<?xml version="1.0" encoding="utf-8"?>
<!-- Generator: Adobe Illustrator 17.0.0, SVG Export Plug-In . SVG Version: 6.00 Build 0)  -->
<!DOCTYPE svg PUBLIC "-//W3C//DTD SVG 1.1//EN" "http://www.w3.org/Graphics/SVG/1.1/DTD/svg11.dtd">
<svg version="1.1" id="Слой_1" xmlns="http://www.w3.org/2000/svg" xmlns:xlink="http://www.w3.org/1999/xlink" x="0px" y="0px"
	 width="202.553px" height="181.926px" viewBox="0 0 202.553 181.926" enable-background="new 0 0 202.553 181.926"
	 xml:space="preserve">
<g>
	<g>
		<path fill="#EDEDED" d="M179.178,22.872c15.734,41.559-29.854,133.138-68.661,151.797s-83.022,0.095-98.756-41.463
			s2.97-90.375,41.777-109.034S163.444-18.686,179.178,22.872z"/>
	</g>
	<g>
		<rect x="161.032" y="78.522" fill="#2E88BF" width="28.384" height="28.384"/>
		<rect x="146.84" y="78.522" fill="#4CB4D4" width="28.384" height="28.384"/>
		<path fill="#2E88BF" d="M150.085,78.522l0.986,11.52l3.46-5.219c0,0,1.643,6.794,1.74,7.891c0.097,1.098,3.769-2.189,3.769-3.252
			s2.223,3.473,2.223,3.473s1.257,2.603,1.45,0c0.193-2.603-0.723-14.413-0.723-14.413H150.085z"/>
		<polygon fill="#2E88BF" points="158.884,106.906 158.884,101.254 160.331,104.08 162.457,99.127 164.531,104.25 165.55,103.017 
			167.097,106.906 		"/>
		<path fill="#FFFFFF" d="M168.575,96.707l0.676-4.888l0.806,0.546l1.341-3.51c0,0,0.505-1.404,0.609-0.78
			c0.104,0.624-0.572,6.032-0.364,5.928c0.208-0.104,0.334,0.208,0.375,1.3c0.041,1.092-1.623,3.38-2.039,2.6
			C169.563,97.123,168.575,96.707,168.575,96.707z"/>
		<path fill="#D18C42" d="M180.289,85.741c0,0-0.338,3.431,0,5.509c0.338,2.078,1.788-0.677,1.788-0.677s0.242,0.435,0.483,3.769
			c0.242,3.335,1.691,4.253,1.885,2.658c0.193-1.595,0.048-10.052,0.048-10.052s-1.353-0.29-1.498,0.193
			c-0.145,0.483-0.773,0.145-0.967-0.483C181.836,86.031,181.498,83.808,180.289,85.741z"/>
		<rect x="164.923" y="50.156" fill="#AD263D" width="28.384" height="28.384"/>
		<rect x="150.731" y="50.156" fill="#FF6161" width="28.384" height="28.384"/>
		<path fill="#AD263D" d="M153.976,50.156l0.986,11.52l3.46-5.219c0,0,1.643,6.794,1.74,7.891c0.097,1.098,3.769-2.189,3.769-3.252
			c0-1.063,2.223,3.473,2.223,3.473s1.257,2.603,1.45,0c0.193-2.603-0.723-14.413-0.723-14.413H153.976z"/>
		<path fill="#AD263D" d="M171.45,75.922c-2.013,1.095-4.512-0.07-4.968-2.315l-0.933-4.594l2.081-0.18l1.491-1.946l5.672-2.359
			l2.427,4.702l-3.458,5.436L171.45,75.922z"/>
		<path fill="#FF6161" d="M182.706,61.66l0.676-4.888l0.806,0.546l1.341-3.51c0,0,0.505-1.404,0.609-0.78
			c0.104,0.624-0.572,6.032-0.364,5.928c0.208-0.104,0.334,0.208,0.375,1.3c0.041,1.092-1.623,3.38-2.039,2.6
			C183.693,62.076,182.706,61.66,182.706,61.66z"/>
		<path fill="#B1A9FF" d="M155.799,64.809c0,0-0.338,3.431,0,5.509c0.338,2.078,1.788-0.677,1.788-0.677s0.242,0.435,0.483,3.769
			c0.242,3.335,1.691,4.253,1.885,2.658c0.193-1.595,0.048-10.052,0.048-10.052s-1.353-0.29-1.498,0.193
			c-0.145,0.483-0.773,0.145-0.967-0.483C157.345,65.099,157.007,62.876,155.799,64.809z"/>
		<path fill="#AD263D" d="M92.632,70.768c-0.434-5.9-0.547-12.641-0.547-12.641s-6.644,6.242-8.039,12.156
			c-0.986,4.176,1.79,8.411,4.739,8.758c0.002,0.001,0.004,0.001,0.006,0.002c5.351,1.76,14.625-0.67,14.691-3.59
			c0.042-1.858-5.25-2.334-8.837-2.646C93.564,72.712,92.711,71.849,92.632,70.768z"/>
		<path fill="#4CB4D4" d="M89.724,44.453c0,0-0.279-1.931-2.245-2.376c-1.966-0.444-5.338,3.1-2.5,5.668
			C87.817,50.313,89.724,44.453,89.724,44.453z"/>
		<path fill="#311E69" d="M90.776,65.022l-6.907,6.384c-0.308,3.781,2.231,7.318,4.915,7.633c0.002,0.001,0.004,0.001,0.006,0.002
			c0.046,0.015,0.093,0.029,0.14,0.044C90.829,74.524,90.776,65.022,90.776,65.022z"/>
		<path fill="#1E1240" d="M85.824,45.703c0,0,3.156-2.883,5.454-2.358c2.298,0.525-1.431,2.972-2.026,3.236
			C88.657,46.845,85.824,45.703,85.824,45.703z"/>
		<path fill="#C63F20" d="M69.57,80.948c0,0-5.598,10.711,3.327,15.227c5.568,2.818,11.874,2.638,15.829,2.105
			c2.384-0.322,4.713,0.905,5.817,3.043c3.266,6.322,9.999,18.348,14.268,19.01c5.806,0.9,7.097-2.541,6.774-5.014
			c-0.323-2.473-7.419-19.603-16.129-24.946c-5.074-3.113-15.008-5.914-15.008-5.914L69.57,80.948z"/>
		<rect x="131.454" y="31.049" fill="#311E69" width="10.753" height="103.655"/>
		<rect x="125.336" y="31.049" fill="#311E69" width="3.575" height="103.655"/>
		<rect x="125.06" y="31.049" fill="#311E69" width="17.147" height="2.443"/>
		<path fill="#311E69" d="M89.6,80.619l13.811-7.399c0.724-0.388,1.563,0.273,1.355,1.068l-2.005,7.653
			c-0.133,0.509-0.051,1.051,0.227,1.497l8.934,14.354l1.936,18.925l-10.108,1.609L98.639,85.33
			c-0.124-0.802-0.74-1.438-1.537-1.589l-7.232-1.367C88.997,82.209,88.817,81.039,89.6,80.619z"/>
		<path fill="#311E69" d="M36.673,98.756V78.437c0-4.652,0.413-9.296,1.235-13.875l3.486-28.678c0.752-4.192,4.4-7.243,8.659-7.243
			h29.969c12.253,0,23.13,7.846,26.995,19.474l6.982,30.261c1.693,5.095,2.557,10.429,2.557,15.798v0.066h-4.399v-0.613
			c0-5.433-0.884-10.83-2.617-15.979l-6.413-28.305c-3.342-9.928-12.649-16.615-23.124-16.615H52.953
			c-2.758,0-5.055,2.116-5.281,4.865l-1.703,29.999c-0.175,2.137-0.263,4.281-0.263,6.426v24.739H36.673z"/>
		<path fill="#F46822" d="M12.5,96.176h37.507l2.515,2.213c1.844,1.623,4.217,2.518,6.673,2.518h18.769
			c4.394,0,7.957,3.562,7.957,7.957v3.978c0,2.316,1.878,4.194,4.194,4.194h21.483c2.419,0,3.146,3.287,0.953,4.307l0,0
			c-7.466,3.473-12.611,10.555-13.606,18.729l-0.729,5.991c-0.389,3.194-3.101,5.596-6.319,5.596H52.48
			c-3.385,0-6.129-2.744-6.129-6.129l0,0c0-11.936-9.676-21.613-21.613-21.613H8.031c-4.145,0-7.588-3.189-7.912-7.322
			c-0.272-3.466-0.153-7.784,1.157-12.093C2.78,99.56,7.333,96.176,12.5,96.176z"/>
		<path fill="#C63F20" d="M98.214,146.063l0.729-5.991c0.038-0.308,0.083-0.614,0.132-0.919c-7.602,0.345-14.239-2.032-21.131-2.222
			c-6.66-0.183-13.645,1.847-16.996,0.679c-13.87-4.838,0-6.129-5.484-16.233c-5.484-10.105-16.451-11.184-16.451-11.184H0.164
			c-0.226,2.298-0.196,4.481-0.045,6.403c0.324,4.132,3.767,7.322,7.912,7.322h16.707c11.936,0,21.613,9.676,21.613,21.613l0,0
			c0,3.385,2.744,6.129,6.129,6.129h39.416C95.114,151.659,97.825,149.257,98.214,146.063z"/>
		<g>
			<path fill="#311E69" d="M126.203,123.822l0.203-0.869l-5.255-1.049c-0.388-0.09-0.78-0.167-1.175-0.235l-0.16-0.032l-0.001,0.005
				c-1.463-0.237-2.972-0.322-4.513-0.227c-11.176,0.693-19.674,10.314-18.981,21.489c0.557,8.986,6.888,16.236,15.156,18.374
				l-0.001,0.003l0.048,0.01c0.721,0.184,1.455,0.334,2.202,0.438l3.47,0.69l0.121-0.516c0.164-0.006,0.328-0.008,0.493-0.018
				c11.175-0.693,19.673-10.314,18.981-21.489C136.342,133.156,132.143,127.043,126.203,123.822z"/>
			<circle fill="#1E1240" cx="122.555" cy="142.862" r="20.274"/>
			<circle fill="#EAE8FF" cx="122.555" cy="142.862" r="8.158"/>
		</g>
		<path fill="#311E69" d="M108.142,93.237h6.983c1.836,0,3.483,1.138,4.123,2.859c1.695,4.554,4.548,13.615,3.306,20.223
			l-10.613,4.014L108.142,93.237z"/>
		<g>
			<path fill="#311E69" d="M140.616,129.326c-0.612,0-1.219-0.26-1.645-0.764c-4.511-5.346-11.109-8.412-18.104-8.412h-11.364
				c-1.188,0-2.151-0.963-2.151-2.151c0-1.188,0.963-2.151,2.151-2.151h11.364c8.265,0,16.061,3.623,21.391,9.939
				c0.766,0.908,0.651,2.265-0.257,3.03C141.598,129.159,141.106,129.326,140.616,129.326z"/>
		</g>
		<path fill="#311E69" d="M52.568,73.707c0,0,1.505,25.161,3.871,27.527c2.366,2.366,26.666,1.505,26.666,1.505v-0.138
			c0-3.501-2.812-6.353-6.313-6.402l-8.956-0.126c0,0-3.011-2.366-5.376-2.366c0,0,3.011-10.753-1.29-15.914
			C56.869,72.632,52.568,73.707,52.568,73.707z"/>
		<polygon fill="#311E69" points="139.084,103.416 202.553,103.416 202.553,110.154 140.621,110.154 		"/>
		<path fill="#614CD4" d="M84.945,86.717c-0.475-3.906,2.482-13.611,2.482-13.611s6.062-12.812,4.557-15.199
			c-3.755-5.958-14.714-9.544-18.938-5.071c-1.441,1.526-2.731,4.873-3.683,7.243c-2.263,5.633-4.59,21.853-4.59,21.853
			C67.913,83.686,75.491,86.863,84.945,86.717z"/>
		<path fill="#FF6161" d="M85.071,47.843l-2.639,4.578c-0.124,0.718,3.421,3.344,4.706,2.62c0.376-0.212,0.396-0.916,0.204-1.714
			l-1.198-4.372L85.071,47.843z"/>
		<path fill="#311E69" d="M86.384,49.833c-0.77-0.27-1.819-0.652-1.819-0.652s-0.137,1.274,0.814,2.404
			c0.503,0.598,1.147,0.951,1.788,1.102L86.384,49.833z"/>
		<path fill="#FF6161" d="M86.299,46.075l-1.566,2.6c-0.448,0.897-0.103,1.99,0.782,2.461c0.707,0.377,1.195,0.49,2.186,0.595
			c0.826,0.087,1.415-0.589,1.657-1.642c0.314-1.366,0.214-2.714,0.121-3.432C89.266,45.019,87.444,44.455,86.299,46.075z"/>
		<path fill="#FFFFFF" d="M89.385,49.493c0,0-0.029,0.274-0.284,0.341c-0.254,0.067-0.656-0.141-0.744-0.483
			C88.358,49.352,88.773,49.474,89.385,49.493z"/>
		<g>
			<path fill="#AD263D" d="M85.035,49.904c-0.243-0.309-0.267-0.924-0.268-1.286l-0.034,0.057c-0.448,0.897-0.103,1.99,0.782,2.461
				c0.707,0.377,1.195,0.49,2.186,0.595c0.504,0.053,0.919-0.179,1.222-0.606C88.756,51.114,86.337,51.561,85.035,49.904z"/>
		</g>
		<path fill="#311E69" d="M85.745,47.424c0,0,0.49,0.074,0.623-0.234c0.133-0.308,0.367-1.108,0.367-1.108s2.894,0.261,3.469-0.114
			c0.575-0.375,0.994-1.078,0.067-1.311c-0.927-0.233-3.448,0.08-4.669,1.237C84.38,47.05,84.933,47.578,85.745,47.424z"/>
		<path fill="#F46822" d="M88.891,69.817c-0.177-1.697-0.268-3.398-0.07-4.282c0.315-1.406,0.747-6.672,1.009-10.15
			c-0.574-0.522-1.2-1.01-1.865-1.459l-1.235,8.67l-5.201-0.788c0.055-0.884-0.23-7.653-0.364-10.713
			c-0.741-0.142-1.474-0.227-2.187-0.252c0.293,2.367-0.517,7.466-1.267,11.411c-0.634,3.336-2.616,6.261-5.477,8.09l-6.23,3.983
			c-0.744,4.217-1.23,7.606-1.23,7.606c3.14,1.755,10.719,4.931,20.172,4.786c-0.475-3.906,2.482-13.611,2.482-13.611
			S88.073,71.74,88.891,69.817z"/>
		<path fill="#C63F20" d="M89.83,55.385c-0.344-0.313-0.708-0.612-1.087-0.899c-0.274,1.241-0.777,3.734-0.891,5.744
			c-0.158,2.796,1.258,7.957-2.963,11.398c-4.221,3.441-8.952,2.079-6.084,8.53c0.994,2.237,1.834,4.508,2.652,6.464
			c1.129,0.078,2.293,0.113,3.488,0.095c-0.475-3.906,2.482-13.611,2.482-13.611s0.646-1.366,1.465-3.289
			c-0.177-1.697-0.268-3.398-0.07-4.282C89.136,64.129,89.568,58.863,89.83,55.385z"/>
		<path fill="#FF6161" d="M85.89,47.353c-0.058-0.179-0.088-0.364-0.107-0.551c-0.036-0.356-0.173-0.876-0.674-0.562
			c-0.729,0.456-0.432,2.34,0.462,2.395C86.234,48.674,86.036,47.804,85.89,47.353z"/>
		<path fill="#311E69" d="M73.643,79.637c0,0,3.928,4.036,11.38,4.141c0.152-1.319,0.423-2.786,0.73-4.2L73.643,79.637z"/>
		<polygon fill="#311E69" points="76.614,59.513 77.301,72.703 71.349,70.839 		"/>
		<path fill="#FF6161" d="M76.002,52.635c-6.183-1.909-14.281,17.656-7.498,25.122c5.569,6.129,27.789,5.355,27.397-0.244
			c-0.133-1.89-19.286-5.598-20.466-6.816C74.228,69.449,80.544,54.037,76.002,52.635z"/>
		<path fill="#1E1240" d="M107.987,118.651c0.096-0.313-0.463-2.495-0.473-2.724c-0.038-0.839,0.438-1.563,1.157-2.068
			c0.453-0.318,2.562-1.489,3.01-1.196c0.401,0.263-0.252,2.968,0.426,3.497c0.295,0.231,4.256,0.646,4.787,2.091
			c0.248,0.676-7.057,3.354-8.501,3.11C107.637,121.234,107.67,119.681,107.987,118.651z"/>
		<path fill="#AD263D" d="M95.877,77.988c-1.832-1.399-7.102,1.055-10.053,1.268c-2.966,0.214-4.295-0.459-7.326-1.743
			c-3.03-1.284-3.421-0.15-7.865-1.584c-4.444-1.434-2.294-2.581-2.796-5.376c-0.286-1.596-1.086-2.793-1.72-3.528
			c-0.526,4.099,0.035,8.143,2.388,10.732C73.912,83.708,95.015,83.151,95.877,77.988z"/>
		<path fill="#FF6161" d="M94.772,77.04c0,0,0.719-0.932,1.586-1.263c1.264-0.484,2.24-0.433,1.922,0.193
			c-0.319,0.626-0.282,1.313,0.39,1.366c0.672,0.054,2.419-1.29,2.446-0.484c0.027,0.806-2.366,2.473-3.79,2.688
			C95.901,79.755,92.783,78.922,94.772,77.04z"/>
		<path fill="#F46822" d="M65.263,80.948c0,0-5.598,10.711,3.327,15.227c6.297,3.186,16.421,0.754,21.837-0.954
			c1.972-0.622,4.05,0.582,4.485,2.603c1.545,7.183,4.465,19.823,8.839,20.501c5.806,0.9,7.849-0.534,7.527-3.007
			c-0.323-2.473-2.688-24.8-11.398-30.143c-5.074-3.113-19.739-0.717-19.739-0.717L65.263,80.948z"/>
		<g>
			<path fill="#FFD140" d="M109.046,102.598c-0.41-1.679-0.888-3.401-1.443-5.089c-2.895,1.955-8.926,3.424-11.857,4.055
				c0.264,1.129,0.553,2.305,0.866,3.489C101.488,105.94,106.69,103.773,109.046,102.598z"/>
			<path fill="#FFD140" d="M109.454,104.351c-3.33,1.74-9.663,3.002-12.072,3.438c0.291,0.968,0.599,1.918,0.925,2.829
				c4.445,0.947,9.282-0.514,12.059-1.618C110.121,107.577,109.821,106.002,109.454,104.351z"/>
		</g>
		<path fill="#C63F20" d="M111.277,115.319c-0.323-2.473-2.688-24.8-11.398-30.143c-3.555-2.181-11.816-1.658-16.445-1.149
			c1.582,0.229,3.543,0.473,5.668,0.647c5.257,0.43,6.906-1.362,8.519,1.792c1.613,3.154,3.453,4.377,3.859,9.25
			c0.406,4.872,1.299,5.999,2.393,10.633c1.095,4.634,4.517,11.067,5.172,12.008l0,0
			C110.823,117.894,111.469,116.791,111.277,115.319z"/>
		<g>
			<path fill="#F46822" d="M107.602,97.509c-1.358,0.917-3.404,1.726-5.497,2.393c0.364,1.563,0.825,2.849,1.346,4.778
				c2.342-0.578,4.36-1.466,5.594-2.082C108.636,100.919,108.157,99.196,107.602,97.509z"/>
			<path fill="#F46822" d="M110.273,108.465c0-0.003-0.001-0.005-0.001-0.008c-0.031-0.176-0.063-0.354-0.096-0.534
				c-0.001-0.008-0.003-0.016-0.004-0.023c-0.031-0.17-0.063-0.341-0.096-0.514c-0.004-0.02-0.007-0.04-0.011-0.06
				c-0.03-0.16-0.061-0.321-0.093-0.484c-0.006-0.033-0.013-0.066-0.019-0.099c-0.03-0.156-0.062-0.314-0.094-0.473
				c-0.008-0.038-0.015-0.075-0.023-0.114c-0.032-0.157-0.064-0.315-0.097-0.474c-0.008-0.04-0.016-0.08-0.025-0.12
				c-0.036-0.172-0.072-0.345-0.11-0.519c-0.006-0.027-0.011-0.054-0.017-0.081c-0.043-0.202-0.088-0.406-0.133-0.61
				c-1.472,0.769-3.532,1.445-5.58,1.998l0,0c0.308,1.304,0.801,2.75,1.364,4.177c2.001-0.389,3.801-0.998,5.128-1.526
				C110.336,108.824,110.305,108.646,110.273,108.465z"/>
		</g>
		<g>
			<path fill="#311E69" d="M30.71,123.822l0.203-0.869l-5.256-1.049c-0.388-0.09-0.78-0.167-1.175-0.235l-0.16-0.032l-0.001,0.005
				c-1.463-0.237-2.972-0.322-4.513-0.227c-11.175,0.693-19.673,10.314-18.981,21.489c0.557,8.986,6.888,16.236,15.156,18.374
				l-0.001,0.003l0.048,0.01c0.721,0.184,1.455,0.334,2.202,0.438l3.47,0.69l0.12-0.516c0.164-0.006,0.328-0.008,0.493-0.018
				c11.175-0.693,19.673-10.314,18.981-21.489C40.848,133.156,36.649,127.043,30.71,123.822z"/>
			<circle fill="#1E1240" cx="27.061" cy="142.862" r="20.274"/>
			<circle fill="#EAE8FF" cx="27.061" cy="142.862" r="8.158"/>
		</g>
	</g>
</g>
</svg>
