<?xml version="1.0" encoding="utf-8"?>
<!-- Generator: Adobe Illustrator 17.0.0, SVG Export Plug-In . SVG Version: 6.00 Build 0)  -->
<!DOCTYPE svg PUBLIC "-//W3C//DTD SVG 1.1//EN" "http://www.w3.org/Graphics/SVG/1.1/DTD/svg11.dtd">
<svg version="1.1" id="Слой_1" xmlns="http://www.w3.org/2000/svg" xmlns:xlink="http://www.w3.org/1999/xlink" x="0px" y="0px"
	 width="186.303px" height="187.325px" viewBox="0 0 186.303 187.325" enable-background="new 0 0 186.303 187.325"
	 xml:space="preserve">
<g>
	<g>
		<path fill="#FFFFFF" d="M177.054,22.872c15.734,41.559-29.854,133.138-68.661,151.797s-83.022,0.095-98.756-41.463
			s2.97-90.375,41.777-109.034S161.319-18.686,177.054,22.872z"/>
	</g>
	<g>
		<g>
			<polygon fill="#FF9797" points="151.71,157.074 90.607,157.074 90.607,95.057 121.159,71.085 151.71,95.057 			"/>
			<rect x="0" y="95.057" fill="#F58787" width="90.608" height="62.017"/>
			<polygon fill="#311E69" points="91.554,96.679 121.159,73.449 121.159,71.085 28.108,72.707 0,95.057 0,96.679 			"/>
			<polygon fill="#614CD4" points="90.607,95.057 121.159,71.085 27.162,71.085 0,95.057 			"/>
			<polygon fill="#311E69" points="121.159,73.449 151.71,97.288 151.71,95.057 121.159,71.085 			"/>
			<path fill="#AD263D" d="M123.141,108.846c-5.288,0-9.575,4.287-9.575,9.575v38.653h19.151v-38.653
				C132.717,113.133,128.43,108.846,123.141,108.846z"/>
			<path fill="#7A2A2A" d="M123.141,108.846L123.141,108.846c-0.617,0-1.218,0.064-1.802,0.175c4.426,0.844,7.773,4.729,7.773,9.4
				v38.653h3.605v-38.653C132.717,113.133,128.43,108.846,123.141,108.846z"/>
			<g>
				<rect x="136.434" y="107.99" fill="#D95F76" width="12.166" height="27.307"/>
				<rect x="146.415" y="107.99" fill="#AF3F5A" width="2.185" height="27.307"/>
			</g>
			<g>
				<rect x="96.781" y="107.99" fill="#D95F76" width="12.166" height="27.307"/>
				<rect x="106.762" y="107.99" fill="#AF3F5A" width="2.185" height="27.307"/>
			</g>
			<circle fill="#D95F76" cx="123.141" cy="97.288" r="6.399"/>
			<path fill="#AF3F5A" d="M123.141,90.889c-0.338,0-0.667,0.034-0.991,0.084c3.062,0.478,5.407,3.118,5.407,6.314
				c0,3.196-2.345,5.837-5.407,6.314c0.324,0.051,0.653,0.084,0.991,0.084c3.534,0,6.399-2.865,6.399-6.399
				C129.54,93.754,126.675,90.889,123.141,90.889z"/>
			<path fill="#F58787" d="M143.23,97.288h-5.583c-0.667,0-1.213,0.546-1.213,1.213v1.453c0,0.667,0.546,1.213,1.213,1.213h5.583
				c0.667,0,1.213-0.546,1.213-1.213v-1.453C144.443,97.833,143.897,97.288,143.23,97.288z"/>
			<path fill="#F58787" d="M137.043,102.263h-5.583c-0.667,0-1.213,0.546-1.213,1.213v1.453c0,0.667,0.546,1.213,1.213,1.213h5.583
				c0.667,0,1.213-0.546,1.213-1.213v-1.453C138.256,102.809,137.71,102.263,137.043,102.263z"/>
			<path fill="#F58787" d="M98.386,153.195h-5.583c-0.667,0-1.213,0.546-1.213,1.213v1.453c0,0.667,0.546,1.213,1.213,1.213h5.583
				c0.667,0,1.213-0.546,1.213-1.213v-1.453C99.599,153.741,99.054,153.195,98.386,153.195z"/>
			<path fill="#F58787" d="M110.095,151.428h-8.127c-0.971,0-1.766,0.795-1.766,1.766v2.115c0,0.971,0.795,1.766,1.766,1.766h8.127
				c0.971,0,1.766-0.795,1.766-1.766v-2.115C111.861,152.223,111.066,151.428,110.095,151.428z"/>
			<path fill="#F58787" d="M101.969,145.969h-6.711c-0.802,0-1.458,0.656-1.458,1.458v1.746c0,0.802,0.656,1.458,1.458,1.458h6.711
				c0.802,0,1.458-0.656,1.458-1.458v-1.746C103.427,146.625,102.771,145.969,101.969,145.969z"/>
			<path fill="#F58787" d="M143.795,152.411h-6.712c-0.802,0-1.458,0.656-1.458,1.458v1.746c0,0.802,0.656,1.458,1.458,1.458h6.712
				c0.802,0,1.458-0.656,1.458-1.458v-1.746C145.253,153.068,144.596,152.411,143.795,152.411z"/>
			<path fill="#F58787" d="M145.288,148.127H140.1c-0.62,0-1.127,0.507-1.127,1.127v1.35c0,0.62,0.507,1.127,1.127,1.127h5.188
				c0.62,0,1.127-0.507,1.127-1.127v-1.35C146.415,148.635,145.908,148.127,145.288,148.127z"/>
			<path fill="#F58787" d="M139.866,142.364h-5.188c-0.62,0-1.127,0.507-1.127,1.127v1.35c0,0.62,0.507,1.127,1.127,1.127h5.188
				c0.62,0,1.127-0.507,1.127-1.127v-1.35C140.993,142.872,140.486,142.364,139.866,142.364z"/>
			<path fill="#F58787" d="M145.786,138.76h-3.802c-0.454,0-0.826,0.372-0.826,0.826v0.989c0,0.454,0.372,0.826,0.826,0.826h3.802
				c0.454,0,0.826-0.372,0.826-0.826v-0.989C146.612,139.132,146.24,138.76,145.786,138.76z"/>
			<path fill="#F58787" d="M103.911,141.712h-3.356c-0.401,0-0.729,0.328-0.729,0.729v0.873c0,0.401,0.328,0.729,0.729,0.729h3.356
				c0.401,0,0.729-0.328,0.729-0.729v-0.873C104.64,142.04,104.312,141.712,103.911,141.712z"/>
		</g>
		<g>
			<g>
				<path fill="#C98624" d="M152.098,160.038l-30.283-0.046l-0.211,6.296h0.011c0,1.381,6.868,2.5,15.341,2.5
					c8.473,0,15.341-1.119,15.341-2.5L152.098,160.038z"/>
				<g>
					<path fill="#AA6F22" d="M152.298,166.289l-0.199-6.251l-15.097-0.023c1.143,1.814,3.108,3.006,2.28,4.375
						c-0.618,1.021-1.107,2.819-1.163,4.391C146.048,168.685,152.298,167.606,152.298,166.289z"/>
				</g>
				<ellipse fill="#F7C263" cx="136.957" cy="159.993" rx="15.141" ry="2.5"/>
			</g>
			<g>
				<path fill="#C98624" d="M152.098,152.202l-30.283-0.046l-0.211,6.296h0.011c0,1.381,6.868,2.5,15.341,2.5
					c8.473,0,15.341-1.119,15.341-2.5L152.098,152.202z"/>
				<g>
					<path fill="#AA6F22" d="M152.298,158.453l-0.199-6.25l-15.097-0.023c1.143,1.814,3.108,3.006,2.28,4.375
						c-0.618,1.021-1.107,2.819-1.163,4.391C146.048,160.849,152.298,159.77,152.298,158.453z"/>
				</g>
				<ellipse fill="#F7C263" cx="136.957" cy="152.157" rx="15.141" ry="2.5"/>
			</g>
			<g>
				<path fill="#C98624" d="M152.098,144.076l-30.283-0.046l-0.211,6.296h0.011c0,1.381,6.868,2.5,15.341,2.5
					c8.473,0,15.341-1.119,15.341-2.5L152.098,144.076z"/>
				<g>
					<path fill="#AA6F22" d="M152.298,150.326l-0.199-6.251l-15.097-0.023c1.143,1.814,3.108,3.006,2.28,4.375
						c-0.618,1.021-1.107,2.819-1.163,4.391C146.048,152.723,152.298,151.643,152.298,150.326z"/>
				</g>
				<ellipse fill="#F7C263" cx="136.957" cy="144.03" rx="15.141" ry="2.5"/>
			</g>
			<g>
				<g>
					<path fill="#C98624" d="M158.353,137.039l-30.283-0.046l-0.211,6.296h0.011c0,1.381,6.868,2.5,15.341,2.5
						c8.473,0,15.341-1.119,15.341-2.5L158.353,137.039z"/>
					<g>
						<path fill="#AA6F22" d="M158.553,143.289l-0.199-6.251l-15.097-0.023c1.143,1.814,3.108,3.006,2.279,4.375
							c-0.618,1.021-1.107,2.819-1.163,4.391C152.303,145.685,158.553,144.606,158.553,143.289z"/>
					</g>
					<ellipse fill="#F7C263" cx="143.212" cy="136.993" rx="15.141" ry="2.5"/>
				</g>
				<path fill="#FFDBA1" d="M132.517,137.525c-0.801-0.181-0.804-1.321-0.002-1.498c1.6-0.355,3.806-0.745,6.143-0.859
					c4.58-0.223,5.951-0.335,5.992,0.391c0.04,0.726-9.063,1.508-10.292,2.011C133.913,137.751,133.22,137.684,132.517,137.525z"/>
			</g>
			<g>
				<g>
					<path fill="#C98624" d="M128.894,166.286l-30.283-0.046l-0.211,6.296h0.011c0,1.381,6.868,2.5,15.341,2.5
						c8.472,0,15.341-1.119,15.341-2.5L128.894,166.286z"/>
					<g>
						<path fill="#AA6F22" d="M129.094,172.537l-0.2-6.251l-15.097-0.023c1.143,1.814,3.108,3.006,2.279,4.375
							c-0.618,1.021-1.107,2.819-1.163,4.391C122.844,174.933,129.094,173.854,129.094,172.537z"/>
					</g>
					<ellipse fill="#F7C263" cx="113.753" cy="166.24" rx="15.141" ry="2.5"/>
				</g>
				<path fill="#FFDBA1" d="M103.058,166.773c-0.801-0.181-0.804-1.321-0.002-1.499c1.6-0.355,3.806-0.745,6.143-0.859
					c4.58-0.223,5.952-0.335,5.992,0.391c0.04,0.726-9.063,1.508-10.292,2.011C104.454,166.998,103.761,166.932,103.058,166.773z"/>
			</g>
			<g>
				<g>
					<path fill="#C98624" d="M186.104,173.836l-30.283-0.046l-0.211,6.296h0.011c0,1.381,6.868,2.5,15.341,2.5
						c8.472,0,15.341-1.119,15.341-2.5L186.104,173.836z"/>
					<g>
						<path fill="#AA6F22" d="M186.303,180.087l-0.2-6.25l-15.097-0.023c1.143,1.814,3.108,3.006,2.279,4.375
							c-0.618,1.021-1.107,2.819-1.163,4.391C180.054,182.483,186.303,181.404,186.303,180.087z"/>
					</g>
					<ellipse fill="#F7C263" cx="170.963" cy="173.79" rx="15.141" ry="2.5"/>
				</g>
				<path fill="#FFDBA1" d="M160.268,174.323c-0.801-0.181-0.804-1.321-0.002-1.498c1.6-0.355,3.806-0.745,6.143-0.859
					c4.58-0.223,5.951-0.335,5.992,0.391c0.04,0.726-9.063,1.508-10.292,2.011C161.664,174.548,160.971,174.482,160.268,174.323z"/>
			</g>
		</g>
		<g>
			<path fill="#AD263D" d="M58.066,86.178c3.584-0.534,7.243-6.736,10.285-10.212c3.042-3.476-9.873-13.935-14.098-12.291
				C50.026,65.319,54.743,86.673,58.066,86.178z"/>
			<path fill="#311E69" d="M46.629,50.061c0,0,1.867-1.916,3.76-1.405c2.392,0.645,1.378,2.724,2.392,2.878
				c1.568,0.238,0.095,2.114,0.095,2.114s-0.921,5.724-3.999,6.246c-3.078,0.522-5.216-1.038-5.833-3.5
				C43.043,56.394,39.528,49.586,46.629,50.061z"/>
			<path fill="#FF6161" d="M30.742,136.712c1.915-0.587-0.372-28.338-0.344-30.776c0.091-7.953,5.523-12.815,8.235-16.114
				c0.205-0.249,0.408-0.49,0.611-0.726c1.313-1.53,2.56-2.807,3.444-4.089c0.579-0.838,1.005-1.678,1.189-2.592
				c1.089-5.384-11.543-8.511-6.033-15.172c2.374-2.87,6.547-5.113,13.242-5.111c1.297,0,2.906,0.139,3.991,1.553
				c2.251,2.935,0.424,10.024,2.382,16.835c0.765,2.661,1.631,5.86,2.516,9.236c3.139,11.974,5.728,12.633,6.537,26.599
				c1.042,17.982-5.049,41.702-20.317,64.185c-0.81,1.193-4.266,0-4.266,0c-0.081-1.867,3.14-28.512,8.947-37.959
				c2.117-3.444,0.058-32.425-0.806-32.323c-0.616,0.073,3.994,44.385-39.033,46.674l-1.221-3.66
				C9.815,153.27,19.223,140.243,30.742,136.712z"/>
			<path fill="#AD263D" d="M56.709,144.782c-0.237,2.813-9.23,28.068-9.369,31.494c-0.029,0.71,0.148,1.324,0.448,1.855
				c11.665-18.007,17.53-36.64,18.636-52.36C62.461,132.787,56.862,142.97,56.709,144.782z"/>
			<path fill="#AD263D" d="M13.393,156.754c20.875-1.937,29.814-14.21,33.657-25.663c-0.749-1.398-1.776-2.41-3.09-2.761
				c-5.415-1.449-5.015,11.226-7.538,13.407c-2.523,2.181-11.165,7.09-16.67,9.263C15.554,152.656,13.93,155.497,13.393,156.754z"/>
			<path fill="#311E69" d="M33.021,137.979c-1.903-4.393,7.395-1.154,10.938,0.211c-0.916,1.663-1.974,3.293-3.193,4.857
				C38.774,142.855,34.748,141.967,33.021,137.979z"/>
			<path fill="#311E69" d="M64.313,139.759c-0.42,1.847-0.899,3.715-1.439,5.602c-2.089,0.156-7.229,0.195-9.796-2.829
				C50.51,139.507,60.092,139.586,64.313,139.759z"/>
			<path fill="#FF8F8F" d="M30.398,105.936c0.091-7.953,4.38-12.474,6.464-16.201c1.859-3.325-4.528-15.83,0.982-22.491
				c2.374-2.87,6.547-5.113,13.242-5.111c1.297,0,2.906,0.139,3.991,1.553c1.527,1.99,3.522,4.321,3.75,8.751
				c0.108,2.102-1.998,5.892-1.368,8.084c0.765,2.661,8.097,18.829,11.067,35.996c1.332,7.7,1.489,17.34-0.91,26.732
				c-2.325-0.068-6.462,1.456-11.807,0c-5.581-1.521-6.243-1.408-7.347-1.668c-3.752-0.883-6.006,0.47-8.682,0
				c-4.389-0.771-4.341-3.752-10.149-4.495C29.999,136.951,30.37,108.373,30.398,105.936z"/>
			<path fill="#FF6161" d="M45.378,58.06l0.06,5.719c0.014,0.941,2.387,3.307,3.845,2.082c0.427-0.359-0.174-1.639-0.606-2.607
				l-1.232-4.886L45.378,58.06z"/>
			<path fill="#311E69" d="M48.176,61.269c-2.066-0.475-2.489-2.276-2.489-2.276l1.933,0.071L48.176,61.269z"/>
			<path fill="#FF6161" d="M45.391,54.623l-0.293,2.203c-0.232,1.746,0.919,3.446,2.66,3.715c1.607,0.248,3.132-0.71,3.322-2.738
				c0.169-1.803-1.143-3.325-1.623-4.128C48.362,51.845,45.914,52.115,45.391,54.623z"/>
			<path fill="#FF6161" d="M45.502,56.73c-0.075-0.18-0.123-0.369-0.159-0.561c-0.068-0.365-0.254-0.891-0.746-0.524
				c-0.715,0.535-0.245,2.459,0.685,2.438C45.972,58.068,45.692,57.184,45.502,56.73z"/>
			<path fill="#FF6161" d="M50.098,55.95c0.024-0.194,0.018-0.389,0-0.583c-0.034-0.37,0.002-0.927,0.575-0.707
				c0.833,0.32,0.905,2.299,0.005,2.532C50.009,57.365,50.038,56.438,50.098,55.95z"/>
			<path fill="#FFFFFF" d="M48.082,57.482c0,0,0.906,0.053,2.102-0.326c0,0-0.139,0.932-0.572,1.299
				C49.18,58.821,48.549,58.38,48.082,57.482z"/>
			<g>
				<path fill="#D95F76" d="M68.526,116.515C65.555,99.348,58.224,83.18,57.458,80.519c-0.63-2.192,1.476-5.983,1.368-8.084
					c-0.228-4.429-2.224-6.76-3.75-8.751c-1.084-1.413-2.694-1.552-3.991-1.553c-0.461,0-0.908,0.013-1.346,0.033
					c1.164,2.085,2.419,4.629,2.839,6.558c0.852,3.911-1.176,27.384,2.011,33.827c3.187,6.442,5.755,33.007,3.891,40.004
					c-0.104,0.39-0.208,0.777-0.313,1.162c4.204,0.553,7.478-0.526,9.448-0.468C70.015,133.856,69.858,124.215,68.526,116.515z"/>
			</g>
			<path fill="#311E69" d="M43.287,83.564l17.281,5.133c0.719,1.914,1.51,4.09,2.317,6.46
				C59.584,95.515,47.557,95.917,43.287,83.564z"/>
			<path fill="#AD263D" d="M47.937,59.821c0.659,0.005,1.822-0.282,2.294-0.694c0.418-0.365,0.778-1.231,0.855-1.424
				c-0.002,0.033-0.001,0.066-0.004,0.099c-0.19,2.028-1.715,2.986-3.322,2.738c-1.073-0.165-1.921-0.875-2.36-1.804
				C46.313,59.557,47.344,59.817,47.937,59.821z"/>
			<g>
				<path fill="#FFFFFF" d="M45.58,55.907L45.58,55.907c-0.074-0.743,0.721-0.823,1.36-0.887c0.639-0.064,1.435-0.145,1.51,0.598
					c0.065,0.649-0.526,1.242-1.316,1.321c-0.06,0.006-0.118,0.009-0.176,0.009C46.241,56.949,45.641,56.508,45.58,55.907z
					 M46.97,55.313c-0.805,0.081-1.136,0.177-1.097,0.565c0.049,0.487,0.6,0.829,1.231,0.769c0.629-0.063,1.102-0.511,1.053-0.999
					c-0.028-0.279-0.213-0.372-0.616-0.372C47.384,55.276,47.195,55.291,46.97,55.313z"/>
			</g>
			<g>
				<path fill="#F7C263" d="M105.39,1.993C85.767,13.206,53.062,9.362,53.062,9.362V51.17c0,29.37,19.385,55.216,47.58,63.44
					l4.748,1.385l4.749-1.385c28.196-8.224,47.58-34.07,47.58-63.44V9.362C157.719,9.362,125.014,13.206,105.39,1.993z"/>
				<g>
					<path fill="#C98624" d="M117.809,6.917c1.931,8.601,6.504,33.523-0.738,50.675c-5.453,12.915-25.231,31.999-39.679,44.801
						c6.707,5.471,14.559,9.682,23.25,12.217l4.748,1.385l4.749-1.385c28.196-8.224,47.58-34.07,47.58-63.44V9.362
						C157.719,9.362,136.361,11.871,117.809,6.917z"/>
				</g>
				<g>
					<path fill="#311E69" d="M70.035,55.842V26.815c0.33,0.002,0.665,0.003,1.003,0.003c11.152,0,26.311-1.236,39.178-6.646
						c11.452,4.816,24.713,6.321,35.356,6.594v-4.623c-0.331,0.002-0.665,0.003-1.003,0.003c-11.152,0-26.311-1.236-39.178-6.646
						c-12.866,5.41-28.025,6.646-39.178,6.646c-0.338,0-0.673-0.001-1.003-0.003V51.17c0,11.762,3.73,22.952,10.787,32.361
						c2.427,3.236,5.173,6.144,8.181,8.713c-1.174-1.287-2.298-2.63-3.356-4.041C73.765,78.794,70.035,67.603,70.035,55.842z"/>
				</g>
				<g>
					<path fill="#F7C263" d="M144.568,9.998c-11.29,0-27.536-1.353-39.178-8.005V15.5c12.866,5.41,28.025,6.646,39.178,6.646
						c0.339,0,0.673-0.001,1.003-0.003V51.17c0,11.762-3.73,22.952-10.787,32.361c-7.057,9.409-16.755,16.124-28.047,19.417
						l-1.347,0.393h0v12.654l4.749-1.385c28.196-8.224,47.58-34.07,47.58-63.44V9.362C157.719,9.362,152.308,9.998,144.568,9.998z"
						/>
					<path fill="#FFE0AE" d="M104.043,102.948c-11.291-3.293-20.99-10.008-28.047-19.417C68.94,74.122,65.21,62.931,65.21,51.17
						V22.143c0.33,0.002,0.665,0.003,1.003,0.003c11.152,0,26.311-1.236,39.178-6.646V1.993C93.75,8.645,77.503,9.998,66.213,9.998
						c-7.742,0-13.151-0.636-13.151-0.636V51.17c0,29.37,19.385,55.216,47.58,63.44l4.748,1.385v-12.654L104.043,102.948z"/>
				</g>
				<path fill="#FFE0AE" d="M83.858,83.757c0,0-10.622-21.759-10.501-45.298c0.019-3.734,2.856-6.851,6.567-7.264
					c8.662-0.965,23.499-2.845,25.467-4.595c2.803-2.492-4.361,15.574-10.435,21.492C88.882,54.01,83.858,83.757,83.858,83.757z"/>
			</g>
			<g>
				<path fill="#FFFFFF" d="M49.435,56.198c-0.286-0.155-0.489-0.41-0.57-0.717l0,0c-0.083-0.312-0.005-0.56,0.232-0.735
					c0.193-0.143,0.466-0.223,0.777-0.305c0.312-0.082,0.59-0.148,0.825-0.121c0.293,0.034,0.484,0.21,0.567,0.522
					c0.082,0.307,0.033,0.629-0.139,0.906c-0.17,0.275-0.439,0.472-0.758,0.557c-0.112,0.03-0.224,0.044-0.336,0.044
					C49.825,56.349,49.62,56.298,49.435,56.198z M49.95,54.725c-0.271,0.072-0.526,0.146-0.678,0.257
					c-0.102,0.075-0.188,0.179-0.123,0.423v0c0.061,0.228,0.212,0.417,0.426,0.534c0.218,0.119,0.474,0.147,0.718,0.081
					c0.247-0.066,0.454-0.217,0.583-0.427c0.128-0.207,0.166-0.447,0.105-0.675c-0.065-0.244-0.191-0.291-0.317-0.306
					c-0.026-0.003-0.053-0.004-0.081-0.004C50.408,54.608,50.184,54.663,49.95,54.725z"/>
			</g>
			<g>
				<path fill="#FFFFFF" d="M48.371,55.58c0.285-0.284,0.53-0.128,0.532-0.126l0.163-0.245c-0.155-0.102-0.54-0.199-0.904,0.163
					L48.371,55.58z"/>
			</g>
			<g>
				<path fill="#FF6161" d="M43.568,179.796c0.785,0.706,3.963,4.855,5.084,4.968c0.605,0.061,1.1-0.01,1.428-0.087
					c-0.713-0.559-1.497-1.878-2.213-3.315c-0.482-0.967-1.009-2.243-1.001-4.139l-4.703,1.574c0,0-0.083,0.198-0.19,0.503
					C42.414,179.29,43.083,179.361,43.568,179.796z"/>
				<path fill="#311E69" d="M52.973,186.238c-0.417-0.392-1.164-0.854-2.489-1.324c-0.131-0.047-0.266-0.129-0.403-0.237
					c-0.329,0.077-0.823,0.147-1.428,0.087c-1.122-0.112-4.299-4.262-5.084-4.968c-0.485-0.436-1.153-0.506-1.595-0.496
					c-0.24,0.687-0.599,1.921-0.405,2.697c0.28,1.122,0.953,4.323,0.841,5.327h1.402v-3.589c0,0,1.065,0.561,1.626,1.178
					c0.21,0.231,0.413,0.628,0.584,1.034c0.354,0.841,1.191,1.377,2.104,1.377h4.407C53.1,187.325,53.387,186.627,52.973,186.238z"
					/>
			</g>
			<g>
				<path fill="#FF6161" d="M10.054,154.33c-0.396,0.979-3.214,5.38-2.937,6.473c0.149,0.589,0.384,1.031,0.569,1.313
					c0.283-0.861,1.255-2.048,2.362-3.211c0.745-0.783,1.765-1.713,3.55-2.352l-3.083-3.885c0,0-0.214-0.011-0.537-0.007
					C10.137,153.073,10.299,153.726,10.054,154.33z"/>
				<path fill="#311E69" d="M7.204,165.368c0.226-0.525,0.406-1.385,0.397-2.792c-0.001-0.139,0.031-0.294,0.085-0.46
					c-0.185-0.283-0.419-0.724-0.569-1.313c-0.277-1.093,2.541-5.494,2.937-6.473c0.244-0.604,0.082-1.257-0.077-1.668
					c-0.727,0.009-2.01,0.091-2.674,0.538c-0.959,0.646-3.74,2.37-4.722,2.607l0.478,1.318l3.374-1.223c0,0-0.164,1.193-0.553,1.93
					c-0.146,0.277-0.45,0.602-0.773,0.901c-0.67,0.62-0.889,1.589-0.578,2.448l1.502,4.143
					C6.226,165.858,6.979,165.89,7.204,165.368z"/>
			</g>
			<g>
				<path fill="#FF6161" d="M74.425,64.144c0,0,0.544-1.618,0.633-2.209c0.088-0.591,0.075-2.027,0.7-1.114
					c0.625,0.913-0.015,1.861,0.81,1.883c0.826,0.022,2.929-1.067,3.161-1.876c0.232-0.809,1.189,0.403,0.597,2.132
					c-0.592,1.73-2.439,3.85-4.641,3.264C73.483,65.637,74.425,64.144,74.425,64.144z"/>
				<path fill="#FF6161" d="M37.659,69.753c6.976-6.977,18.625,14.954,22.359,13.603C62,82.639,73.039,62.405,76.052,63.738
					c4.488,1.987-2.049,21.919-12.353,28.799C54.496,98.683,32.18,75.233,37.659,69.753z"/>
				<path fill="#AD263D" d="M37.659,69.753c0.146-0.146,0.295-0.275,0.445-0.396c0.495,0.766,0.737,2.207,1.701,3.357
					c1.52,1.815,4.414,3.433,7.127,5.901c2.713,2.468,5.576,7.391,7.244,9.991c1.668,2.6,5.395,1.521,8.387,1.128
					c2.992-0.392,3.384-4.562,4.611-6.671c1.226-2.109,3.139-1.177,4.512-3.335c1.374-2.158,2.207-10.644,3.973-12.753
					c0.638-0.762,1.224-1.055,1.713-1.123c1.042,5.759-4.973,20.875-13.674,26.685C54.496,98.683,32.18,75.233,37.659,69.753z"/>
			</g>
		</g>
	</g>
</g>
</svg>
