<?xml version="1.0" encoding="utf-8"?>
<!-- Generator: Adobe Illustrator 17.0.0, SVG Export Plug-In . SVG Version: 6.00 Build 0)  -->
<!DOCTYPE svg PUBLIC "-//W3C//DTD SVG 1.1//EN" "http://www.w3.org/Graphics/SVG/1.1/DTD/svg11.dtd">
<svg version="1.1" id="Слой_1" xmlns="http://www.w3.org/2000/svg" xmlns:xlink="http://www.w3.org/1999/xlink" x="0px" y="0px"
	 width="237.692px" height="181.926px" viewBox="0 0 237.692 181.926" enable-background="new 0 0 237.692 181.926"
	 xml:space="preserve">
<g>
	<g>
		<path fill="#FFFFFF" d="M203.748,22.872c15.734,41.559-29.854,133.138-68.661,151.797s-83.022,0.095-98.756-41.463
			S39.3,42.831,78.107,24.172S188.013-18.686,203.748,22.872z"/>
	</g>
	<g>
		<g>
			<g>
				<polygon fill="#1B60A5" points="8.379,116.737 49.651,116.737 45.009,101.836 				"/>
				<path fill="#2F6FBC" d="M29.447,40.25c0,0-29.055,35.851-26.747,41.53c2.307,5.679,2.307,5.679,2.307,5.679L0,95.765
					l8.379,20.971l21.068-8.334V40.25z"/>
				<rect x="111.672" y="105.403" fill="#1E1240" width="42.593" height="8.303"/>
				<path fill="#1E1240" d="M29.389,130.674v-9.822c0-4.467,2.175-8.655,5.829-11.224l1.744-1.226h40.989v22.272H29.389z"/>
				<path fill="#311E69" d="M80.171,106.628v3.772c0,4.321,3.502,7.823,7.823,7.823h9.953c1.83,0,3.313-1.483,3.313-3.313l0,0
					l3.241,1.891c1.597,0.931,3.412,1.422,5.26,1.422h10.694c5.766,0,10.44-4.674,10.44-10.44v-1.156H80.171z"/>
				<path fill="#2E88BF" d="M89.525,40.25H29.447l-2.482,11.465c-3.276,15.132-3.242,30.793,0.1,45.911l2.382,10.777h60.078h46.285
					V40.25H89.525z"/>
				<path fill="#2F6FBC" d="M27.065,97.625l2.382,10.777h60.078h46.285V93.196c-4.281-2.365-8.513-4.269-12.069-5.042
					c-13.134-2.856-14.423,3.811-27.497,7.612c-13.074,3.801-19.713-0.674-34.444-6.531c-14.731-5.857-14.908,1.065-28.21,1.065
					c-3.645,0-6.237-0.587-8.083-1.438C25.906,91.797,26.423,94.722,27.065,97.625z"/>
				<g>
					<path fill="#2F6FBC" d="M56.606,51.715l2.482-11.465h-8.471c-3.095,0-5.771,2.159-6.426,5.184l-1.36,6.281
						c-3.276,15.132-3.242,30.793,0.1,45.91l2.382,10.777h13.775l-2.382-10.777C53.364,82.508,53.33,66.847,56.606,51.715z"/>
					<path fill="#4CB4D4" d="M60.656,51.715l2.482-11.465H49.363l-2.482,11.465c-3.276,15.132-3.242,30.793,0.1,45.911l2.382,10.777
						h13.775l-2.382-10.777C57.414,82.508,57.38,66.847,60.656,51.715z"/>
					<path fill="#2E88BF" d="M58.014,51.715l2.482-11.465H46.721l-2.482,11.465c-3.276,15.132-3.242,30.793,0.1,45.911l2.382,10.777
						h13.775l-2.382-10.777C54.772,82.508,54.738,66.847,58.014,51.715z"/>
				</g>
				<g>
					<path fill="#2F6FBC" d="M82.754,51.715l2.482-11.465h-8.471c-3.095,0-5.771,2.159-6.426,5.184l-1.36,6.281
						c-3.276,15.132-3.242,30.793,0.1,45.91l2.382,10.777h13.775l-2.382-10.777C79.512,82.508,79.478,66.847,82.754,51.715z"/>
					<path fill="#4CB4D4" d="M86.805,51.715l2.482-11.465H75.512L73.03,51.715c-3.276,15.132-3.242,30.793,0.1,45.911l2.382,10.777
						h13.775l-2.382-10.777C83.563,82.508,83.529,66.847,86.805,51.715z"/>
					<path fill="#2E88BF" d="M84.163,51.715l2.482-11.465H72.87l-2.482,11.465c-3.276,15.132-3.242,30.793,0.1,45.911l2.382,10.777
						h13.775l-2.382-10.777C80.92,82.508,80.887,66.847,84.163,51.715z"/>
				</g>
				<g>
					<path fill="#2F6FBC" d="M108.903,51.715l2.482-11.465h-8.471c-3.095,0-5.771,2.159-6.426,5.184l-1.36,6.281
						c-3.276,15.132-3.242,30.793,0.1,45.91l2.382,10.777h13.775l-2.382-10.777C105.661,82.508,105.627,66.847,108.903,51.715z"/>
					<path fill="#4CB4D4" d="M112.953,51.715l2.482-11.465h-13.775l-2.482,11.465c-3.276,15.132-3.242,30.793,0.1,45.911
						l2.382,10.777h13.775l-2.382-10.777C109.711,82.508,109.677,66.847,112.953,51.715z"/>
					<path fill="#2E88BF" d="M110.311,51.715l2.482-11.465H99.019l-2.482,11.465c-3.276,15.132-3.242,30.793,0.1,45.911
						l2.382,10.777h13.775l-2.382-10.777C107.069,82.508,107.035,66.847,110.311,51.715z"/>
				</g>
				<path fill="#8AE9FF" d="M59.755,33.624l-0.087,0.019C42.61,34.007,29.447,40.25,29.447,40.25h60.078h46.285h60.078
					l-27.293-6.626H59.755z"/>
				<path fill="#4CB4D4" d="M135.81,108.402l-2.382-10.777c-3.342-15.117-3.376-30.779-0.1-45.911l2.482-11.465
					c0,0,31.415-14.908,60.078,0l1.144,3.918c5.687,19.47,5.744,40.153,0.166,59.655l-1.31,4.58H135.81z"/>
				<path fill="#2E88BF" d="M197.198,103.823c3.577-12.506,4.833-25.497,3.777-38.343c-7.063-0.481-5.421,9.952-16.522,5.534
					c-13.923-5.541-17.879-13.134-24.012-11.95c-6.133,1.183-9.485,6.626-13.981,15.263c-4.496,8.637-2.603,13.134-9.229,14.182
					c-3.764,0.596-4.863,1.425-5.111,2.031c0.36,2.372,0.79,4.737,1.309,7.086l2.382,10.777h60.078L197.198,103.823z"/>
				<path fill="#1E1240" d="M145.709,126.414H133.68v-9.822c0-4.467,2.175-8.655,5.829-11.224l0,0
					c1.135-0.798,2.488-1.226,3.875-1.226h22.734l4.722,20.993L145.709,126.414z"/>
				<g>
					<path fill="#311E69" d="M59.143,124.379c0-6.962-3.756-12.69-8.572-13.391l-7.412-0.073v26.928l7.412-0.073
						C55.387,137.069,59.143,131.342,59.143,124.379z"/>
					<ellipse fill="#614CD4" cx="43.16" cy="124.379" rx="9.569" ry="13.464"/>
					<ellipse fill="#FFFFFF" cx="43.16" cy="124.379" rx="4.809" ry="7.642"/>
					<path fill="#FFE6E6" d="M43.16,116.737c-0.383,0-0.754,0.073-1.111,0.208c2.12,0.797,3.698,3.822,3.698,7.435
						c0,3.613-1.578,6.638-3.698,7.435c0.357,0.134,0.729,0.207,1.111,0.207c2.656,0,4.809-3.422,4.809-7.642
						C47.969,120.158,45.816,116.737,43.16,116.737z"/>
				</g>
				<g>
					<path fill="#311E69" d="M81.488,124.379c0-6.962-3.756-12.69-8.572-13.391l-7.412-0.073v26.928l7.412-0.073
						C77.733,137.069,81.488,131.342,81.488,124.379z"/>
					<ellipse fill="#614CD4" cx="65.505" cy="124.379" rx="9.569" ry="13.464"/>
					<ellipse fill="#FFFFFF" cx="65.505" cy="124.379" rx="4.809" ry="7.642"/>
					<path fill="#FFE6E6" d="M65.505,116.737c-0.383,0-0.754,0.073-1.111,0.208c2.12,0.797,3.697,3.822,3.697,7.435
						c0,3.613-1.578,6.638-3.697,7.435c0.357,0.134,0.729,0.207,1.111,0.207c2.656,0,4.809-3.422,4.809-7.642
						C70.314,120.158,68.161,116.737,65.505,116.737z"/>
				</g>
				<g>
					<path fill="#311E69" d="M168.488,122.235c0-8.071-4.354-14.71-9.937-15.524l-8.592-0.084v31.216l8.592-0.084
						C164.134,136.946,168.488,130.306,168.488,122.235z"/>
					<ellipse fill="#614CD4" cx="149.959" cy="122.235" rx="11.092" ry="15.608"/>
					<ellipse fill="#FFFFFF" cx="149.959" cy="122.235" rx="5.575" ry="8.859"/>
					<path fill="#FFE6E6" d="M149.959,113.376c-0.444,0-0.875,0.085-1.288,0.241c2.457,0.924,4.286,4.431,4.286,8.619
						c0,4.188-1.829,7.694-4.286,8.619c0.414,0.156,0.845,0.241,1.288,0.241c3.079,0,5.574-3.966,5.574-8.859
						C155.534,117.343,153.038,113.376,149.959,113.376z"/>
				</g>
				<path fill="#1E1240" d="M84.201,109.628l-1.744-1.226H65.871l1.744,1.226c3.654,2.569,5.829,6.757,5.829,11.224v9.822H90.03
					v-9.822C90.03,116.385,87.855,112.198,84.201,109.628z"/>
				<g>
					<g>
						<path fill="#8572ED" d="M175.14,47.199l-0.276-0.27c-4.002,0.111-7.35,0.234-10.028,0.349
							c-5.034,0.216-15.525,2.113-16.959,6.943c-1.088,3.665-0.61,9.625-0.755,13.897c-0.159,4.694-0.318,19.337-0.44,33.202
							c-0.021,2.343,1.873,4.253,4.217,4.253l0,0c3.46,0,6.642,1.897,8.286,4.942l8.549,15.828c1.221,2.261,3.585,3.671,6.155,3.671
							h10.945h4.014V82.505l-7.225-24.521C180.418,53.895,178.186,50.182,175.14,47.199z"/>
						<path fill="#AEA6FF" d="M232.229,76.495l-8.651-24.755c-1.064-1.26-2.519-2.124-4.135-2.452
							c-4.501-0.912-32.876-2.208-43.816-2.38c-0.257-0.004-0.511,0.014-0.763,0.021l0,0c3.227,3.16,5.591,7.093,6.868,11.425
							l5.604,19.02c1.003,3.403,1.512,6.932,1.512,10.479v42.161h45.249c0,0,0.147-28.033,0.207-41.12
							C234.323,84.673,233.622,80.481,232.229,76.495z"/>
					</g>
					<g>
						<path fill="#311E69" d="M175.135,58.308l3.565,13.017c1.172,4.278-2.048,8.498-6.483,8.498h-10.715
							c-3.94,0-7.034-3.372-6.698-7.298c0.375-4.379,1.091-9.943,2.449-14.39c0.866-2.833,3.472-4.774,6.435-4.774h4.963
							C171.68,53.362,174.335,55.387,175.135,58.308z"/>
						<path fill="#614CD4" d="M165.544,55.103c0,0-3.618-0.225-5.64,1.91c-2.023,2.135-3.483,14.832-2.36,17.753
							C158.667,77.688,172.06,54.963,165.544,55.103z"/>
						<g>
							<path fill="#1E1240" d="M178.7,71.325l-3.565-13.017c-0.603-2.201-2.259-3.893-4.335-4.593
								c1.257,1.143,2.195,2.692,2.137,4.759c-0.169,6.012-4.551,7.865-1.348,12.248s1.264,3.371-2.823,6.236
								c-3.215,2.254-7.236,0.839-8.643,2.723c0.445,0.092,0.905,0.142,1.378,0.142h10.715
								C176.652,79.823,179.871,75.603,178.7,71.325z"/>
						</g>
					</g>
					<path fill="#1E1240" d="M236.42,134.137h-40.553c-0.703,0-1.272-0.57-1.272-1.272v-9.071c0-0.703,0.57-1.272,1.272-1.272
						h40.553c0.703,0,1.272,0.57,1.272,1.272v9.071C237.692,133.567,237.122,134.137,236.42,134.137z"/>
					<g>
						<path fill="#311E69" d="M226.489,92.766h-5.749c-0.504,0-0.988,0.2-1.344,0.557l-0.686,0.686
							c-0.52,0.52-1.212,0.807-1.947,0.807h-3.838c-0.735,0-1.426-0.286-1.947-0.806l-0.686-0.686
							c-0.357-0.357-0.84-0.557-1.344-0.557h-5.749c-2.52,0-4.571,2.051-4.571,4.571v5.115c0,3.388,1.447,6.627,3.97,8.888
							l1.518,1.361c0.349,0.312,0.801,0.485,1.269,0.485h18.918c0.468,0,0.92-0.173,1.269-0.485l1.518-1.361
							c2.523-2.261,3.97-5.5,3.97-8.888v-5.115C231.06,94.817,229.01,92.766,226.489,92.766z M227.258,102.452
							c0,2.308-0.986,4.515-2.705,6.056l-0.977,0.876h-17.463l-0.977-0.876c-1.719-1.54-2.705-3.748-2.705-6.056v-5.115
							c0-0.424,0.344-0.768,0.768-0.768h4.961l0.13,0.129c1.238,1.238,2.884,1.92,4.635,1.92h3.838c1.75,0,3.397-0.682,4.635-1.92
							l0.13-0.129h4.961c0.424,0,0.768,0.345,0.768,0.768V102.452z"/>
						<g>
							<rect x="201.39" y="99.915" fill="#311E69" width="27.112" height="2.091"/>
							<rect x="201.39" y="104.792" fill="#311E69" width="27.112" height="2.091"/>
						</g>
					</g>
					<g>
						<path fill="#311E69" d="M185.641,53.444c-1.717,0-2.942,1.665-2.431,3.305l6.772,20.862c0.332,1.064,1.317,1.789,2.431,1.789
							h18.665l-7.861-25.956H185.641z"/>
						<path fill="#311E69" d="M229.57,76.096l-6.772-20.862c-0.332-1.064-1.317-1.789-2.431-1.789h-14.941l7.86,25.956h13.853
							C228.856,79.4,230.081,77.735,229.57,76.096z"/>
					</g>
					<path fill="#614CD4" d="M186.796,55.406h6.978c1.303,0,2.278,1.186,2.036,2.465c-0.474,2.506-1.39,6.375-2.869,8.936
						c-0.881,1.524-3.154,1.295-3.741-0.365l-3.403-9.625C185.554,56.129,186.065,55.406,186.796,55.406z"/>
					<path fill="#311E69" d="M223.555,113.186h9.893v-4.304c0-0.724-0.587-1.311-1.311-1.311h-4.868L223.555,113.186z"/>
					<path fill="#614CD4" d="M209.19,55.097h6.978c1.303,0,2.278,1.186,2.036,2.465c-0.474,2.506-1.39,6.375-2.869,8.936
						c-0.881,1.525-3.154,1.295-3.741-0.365l-3.403-9.625C207.948,55.819,208.459,55.097,209.19,55.097z"/>
					<g>
						<ellipse fill="#FFFFFF" cx="229.473" cy="110.378" rx="0.928" ry="2.091"/>
						<ellipse fill="#FFFFFF" cx="231.803" cy="110.378" rx="0.927" ry="2.091"/>
					</g>
					<path fill="#311E69" d="M205.385,113.186h-9.893v-4.304c0-0.724,0.587-1.311,1.311-1.311h4.868L205.385,113.186z"/>
					<g>
						<ellipse fill="#FFFFFF" cx="197.463" cy="110.378" rx="0.927" ry="2.091"/>
						<ellipse fill="#FFFFFF" cx="199.793" cy="110.378" rx="0.928" ry="2.091"/>
					</g>
					<polygon fill="#8AE9FF" points="146.831,86.178 188.807,86.178 188.807,99.933 181.566,99.933 161.003,95.194 173.327,99.933 
						146.682,99.933 					"/>
				</g>
			</g>
			<g>
				<g>
					<path fill="#5ABABF" d="M73.588,52.625l6.355,9.45l-4.302,2.64l11.993-0.323l2.427-8.211l-2.954,1.934l-3.349-4.942
						c-0.829-1.244-2.312-1.883-3.786-1.633L73.588,52.625z"/>
					<path fill="#5ABABF" d="M71.538,54.035l-8.3,7.778l6.124,5.439l8.076-7.745l-4.015-6.016
						C72.872,52.664,72.263,53.356,71.538,54.035z"/>
				</g>
				<g>
					<path fill="#5ABABF" d="M99.125,77.391L87.901,79.32l-0.647-5.006l-4.616,11.073l6.497,5.576l-0.555-3.487l5.88-1.032
						c1.474-0.247,2.665-1.338,3.04-2.785L99.125,77.391z"/>
					<path fill="#5ABABF" d="M98.678,74.944l-3.697-10.757l-7.47,3.36l3.76,10.539l7.133-1.2
						C99.383,76.722,99.001,75.883,98.678,74.944z"/>
				</g>
				<g>
					<path fill="#5ABABF" d="M64.555,87.296l2.23-11.168l4.905,1.193l-8.677-8.285l-7.537,4.062l3.453,0.734l-1.148,5.859
						c-0.299,1.464,0.292,2.968,1.508,3.837L64.555,87.296z"/>
					<path fill="#5ABABF" d="M66.999,87.758l11.367,0.412l-0.454-8.178l-11.186-0.276l-1.442,7.088
						C65.087,87.777,66.007,87.722,66.999,87.758z"/>
				</g>
			</g>
		</g>
		<g>
			<path fill="#AD263D" d="M60.786,97.987c-1.176-0.514-3.381,2.797-4.02,6.409c-0.639,3.613-2.942,6.125-4.81,5.265
				c-1.163-0.535-6.798-2.784-7.265-0.81c-0.521,2.2,5.341,9.064,13.271,4.369C62.516,110.525,63.859,99.329,60.786,97.987z"/>
			<g>
				<path fill="#311E69" d="M60.786,97.987c-1.176-0.514-3.381,2.797-4.02,6.409c-0.349,1.974-1.195,3.618-2.196,4.564
					c0.356,0.978,1.302,2.831,3.604,4.12C62.555,110.167,63.81,99.308,60.786,97.987z"/>
			</g>
			<g>
				<g>
					<path fill="#1E1240" d="M48.699,109.788l-1.552-0.653c-0.775-0.326-1.627-0.424-2.456-0.283l-2.421,0.411
						c-1.261,0.214-2.265,1.175-2.535,2.425l-5.297,24.539l1.303,0.281l5.165-23.928c0.264-1.223,1.231-2.171,2.458-2.411
						l0.79-0.154c0.913-0.179,1.858-0.065,2.703,0.325l1.304,0.602c0.241,0.111,0.532,0.08,0.725-0.102
						C49.227,110.52,49.121,109.965,48.699,109.788z"/>
					<path fill="#1E1240" d="M55.536,111.059l-1.552-0.653c-0.775-0.326-1.627-0.424-2.456-0.283l-2.421,0.411
						c-1.261,0.214-2.265,1.175-2.535,2.425l-5.297,24.539l1.303,0.281l5.165-23.928c0.264-1.223,1.231-2.171,2.459-2.411
						l0.79-0.155c0.913-0.178,1.858-0.065,2.703,0.325l1.304,0.602c0.24,0.111,0.532,0.08,0.725-0.102
						C56.064,111.791,55.957,111.237,55.536,111.059z"/>
					<g>
						<g>
							<path fill="#1E1240" d="M34.213,149.205c0-0.828-0.22-1.575-0.53-2.103v-0.791h-0.997c-0.712,0-1.292,1.298-1.292,2.894
								c0,1.596,0.579,2.894,1.292,2.894h0.997v-0.791C33.994,150.78,34.213,150.033,34.213,149.205z"/>
							<path fill="#614CD4" d="M33.683,146.311c-0.712,0-1.292,1.298-1.292,2.894c0,1.596,0.58,2.894,1.292,2.894
								c0.712,0,1.292-1.298,1.292-2.894C34.975,147.609,34.395,146.311,33.683,146.311z"/>
						</g>
						<path fill="#4CB4D4" d="M31.835,120.301l-3.128,26.208c-0.034,0.428,0.257,0.813,0.677,0.898l12.476,2.506
							c0.404,0.081,0.808-0.141,0.957-0.525l8.24-25.451L31.835,120.301z"/>
						<path fill="#2E88BF" d="M43.054,137.663c-1.662,4.267-8.756,7.203-9.499,10.581l8.306,1.668
							c0.404,0.081,0.808-0.141,0.957-0.525l8.24-25.451l-5.718-1.081C45.584,124.693,43.881,135.541,43.054,137.663z"/>
						<polygon fill="#311E69" points="31.744,121.44 34.268,121.947 34.089,123.455 35.126,123.663 35.562,122.207 40.432,123.185 
							40.253,124.693 41.291,124.902 41.726,123.445 47.596,124.624 47.417,126.132 48.454,126.34 48.89,124.884 50.562,125.22 
							51.057,123.935 31.835,120.301 						"/>
						<path fill="#4CB4D4" d="M51.691,122.017l-19.649-3.946c-0.643-0.129-1.223,0.411-1.139,1.062l0.212,1.647l2.913,0.585
							l-0.179,1.508l1.038,0.208l0.435-1.456l4.87,0.978l-0.179,1.508l1.038,0.208l0.436-1.457l5.869,1.179l-0.179,1.508
							l1.038,0.208l0.435-1.456l2.757,0.554l0.898-1.374C52.676,122.913,52.356,122.151,51.691,122.017z"/>
						<g>
							<path fill="#1E1240" d="M45.133,149.205c0-0.828-0.22-1.575-0.53-2.103v-0.791h-0.997c-0.712,0-1.292,1.298-1.292,2.894
								c0,1.596,0.579,2.894,1.292,2.894h0.997v-0.791C44.914,150.78,45.133,150.033,45.133,149.205z"/>
							<path fill="#614CD4" d="M44.603,146.311c-0.712,0-1.292,1.298-1.292,2.894c0,1.596,0.579,2.894,1.292,2.894
								c0.712,0,1.292-1.298,1.292-2.894C45.895,147.609,45.315,146.311,44.603,146.311z"/>
						</g>
						<g>
							<g>
								<path fill="#FFFFFF" d="M38.967,129.127l0.653,1.571l-0.708,0.26l1.766,0.306l0.597-1.131l-0.49,0.196l-0.345-0.822
									c-0.085-0.207-0.283-0.344-0.506-0.351L38.967,129.127z"/>
								<path fill="#FFFFFF" d="M38.625,129.273l-1.445,0.895l0.737,0.977l1.411-0.897l-0.411-0.999
									C38.861,129.111,38.751,129.195,38.625,129.273z"/>
							</g>
							<g>
								<path fill="#FFFFFF" d="M41.979,133.506l-1.701-0.048l0.052-0.752l-1.002,1.486l0.788,1.008l0.021-0.527l0.892,0.022
									c0.223,0.007,0.43-0.118,0.527-0.319L41.979,133.506z"/>
								<path fill="#FFFFFF" d="M41.985,133.134l-0.225-1.684l-1.193,0.272l0.241,1.654l1.08,0.034
									C42.036,133.416,42.005,133.281,41.985,133.134z"/>
							</g>
							<g>
								<path fill="#FFFFFF" d="M36.623,133.94l0.655-1.57l0.683,0.319l-1.027-1.469l-1.224,0.373l0.484,0.209l-0.341,0.824
									c-0.087,0.206-0.045,0.443,0.108,0.606L36.623,133.94z"/>
								<path fill="#FFFFFF" d="M36.968,134.08l1.653,0.395l0.174-1.211l-1.631-0.37l-0.42,0.996
									C36.687,134.026,36.824,134.045,36.968,134.08z"/>
							</g>
						</g>
					</g>
				</g>
				<g>
					<path fill="#1E1240" d="M42.09,150.58c-0.044,0-0.088-0.004-0.132-0.013l-15.657-3.152c-0.361-0.073-0.596-0.424-0.523-0.786
						c0.072-0.361,0.424-0.594,0.786-0.523l15.657,3.152c0.361,0.073,0.596,0.424,0.523,0.786
						C42.68,150.36,42.401,150.58,42.09,150.58z"/>
				</g>
			</g>
			<path fill="#F46822" d="M65.011,112.97c-1.463-1.374-7.563,1.25-7.563,1.25s-2.039,6.38-3.101,11.183
				c-0.288,1.303-0.505,2.489-0.589,3.401c-0.426,4.607-0.366,19.838,1.949,21.009c2.606,1.318,3.815-0.233,3.98-0.899
				c1.017-4.091,0.923-13.848,0.052-16.484c-0.198-0.599,1.387-3.704,2.212-5.394C62.535,125.841,68.062,115.836,65.011,112.97z"/>
			<path fill="#614CD4" d="M57.254,114.633c0.218-1.284,1.322-3.53,1.28-6.035c-0.079-4.636-1.101-10.029,2.128-10.941
				c3.199-0.903,11.873,0.824,11.18,5.899c-0.271,1.984-1.228,2.752-1.298,5.103c-0.049,1.64,0.381,6.4,0.411,6.833
				c0.133,1.949-2.626,1.175-4.579,1.191C61.376,116.725,56.918,116.612,57.254,114.633z"/>
			<path fill="#311E69" d="M65.844,93.933c0,0,1.475,1.478-0.491,3.086c-0.797,0.651-2.737-2.531-2.211-3.404
				c0.387-0.642,1.317-1.172,2.103-0.658C65.79,93.314,65.844,93.933,65.844,93.933z"/>
			<path fill="#FF6161" d="M65.376,95.732l0.667,2.641c-0.025,0.374-2.115,1.258-2.669,0.74c-0.162-0.152-0.087-0.506,0.105-0.882
				l1.128-2.04L65.376,95.732z"/>
			<path fill="#311E69" d="M64.38,96.602c0.418-0.042,0.988-0.106,0.988-0.106s-0.086,0.653-0.698,1.103
				c-0.324,0.238-0.688,0.337-1.027,0.335L64.38,96.602z"/>
			<path fill="#FF6161" d="M65.075,94.78l0.317,1.528c0.064,0.512-0.289,0.983-0.799,1.061c-0.407,0.062-0.663,0.034-1.162-0.084
				c-0.416-0.099-0.586-0.527-0.524-1.079c0.081-0.717,0.358-1.354,0.526-1.686C63.815,93.762,64.796,93.798,65.075,94.78z"/>
			<path fill="#FFFFFF" d="M63.987,95.893c0,0-0.776-0.244-0.844-0.069c0,0-0.034,0.103,0.181,0.173
				C63.545,96.07,63.764,96.036,63.987,95.893z"/>
			<path fill="#AD263D" d="M63.362,96.722c0.482-0.041,0.76,0.713,1.674,0.13c0.171-0.109,0.287-0.403,0.349-0.578l0.007,0.033
				c0.064,0.512-0.289,0.983-0.799,1.061c-0.407,0.062-0.663,0.034-1.162-0.084c-0.253-0.06-0.415-0.243-0.489-0.502
				C63.024,96.806,63.215,96.735,63.362,96.722z"/>
			<path fill="#311E69" d="M65.089,94.538c0,0-0.339,0.647-0.311,0.863c0.029,0.216,0.351,0.156,0.478-0.152
				C65.384,94.942,65.38,94.537,65.089,94.538z"/>
			<path fill="#FF6161" d="M65.078,95.461c0.058-0.077,0.104-0.162,0.145-0.25c0.078-0.167,0.232-0.396,0.422-0.16
				c0.277,0.344-0.185,1.21-0.629,1.085C64.687,96.045,64.931,95.656,65.078,95.461z"/>
			<path fill="#C63F20" d="M64.945,120.339c-1.268,0.116-3.529,0.568-4.313,2.31c-1.112,2.473-4.488,5.142-3.607,7.811
				c0.882,2.669,2.694,2.836,1.482,5.061c-1.212,2.225-2.252,3.182-1.482,5.539c0.771,2.357-0.639,6.982,0.659,8.868
				c0.076,0.111,0.153,0.237,0.229,0.374c1.104-0.14,1.664-0.952,1.772-1.389c1.017-4.091,0.923-13.848,0.052-16.484
				c-0.198-0.599,1.387-3.704,2.212-5.394C62.252,126.42,63.869,123.456,64.945,120.339z"/>
			<path fill="#1E1240" d="M78.928,148.245c-0.202-0.097-1.037-1.391-1.147-1.502c-0.404-0.409-0.988-0.506-1.575-0.38
				c-0.37,0.08-1.937,0.594-1.998,0.955c-0.054,0.323,1.606,1.252,1.557,1.838c-0.021,0.255-1.652,2.436-1.174,3.374
				c0.224,0.438,4.961-1.983,5.509-2.822C80.386,149.269,79.592,148.564,78.928,148.245z"/>
			<path fill="#F46822" d="M73.007,132.706c0,0-0.596-9.077-1.653-14.654v0c-0.015-0.216-0.529-4.069-0.634-5.514
				c-1.541-1.584-5.212-5.463-5.321-6.616c-0.115-1.22,2.805-5.494,3.769-6.868c-0.51-0.294-1.066-0.546-1.647-0.758l-3.534,4.498
				l-2.897-0.25l2.258-5.096c-0.721-0.039-1.392-0.017-1.965,0.063c-0.75,1.495-2.083,4.248-2.379,5.491
				c-0.161,0.676-0.39,1.551-0.611,2.37c0.054,1.073,0.121,2.169,0.139,3.225c0.043,2.505-1.062,4.752-1.28,6.035
				c-0.237,1.401,1.926,1.866,4.983,2.004c0.779,4.187,2.725,14.408,3.807,17.944c1.418,4.633,5.903,13.214,8.455,13.684
				c2.872,0.528,4.356-1.997,4.327-2.683C78.739,143.595,73.007,132.706,73.007,132.706z"/>
			<path fill="#C63F20" d="M73.007,132.706c0,0-0.596-9.077-1.653-14.654v0c-0.015-0.216-0.529-4.069-0.634-5.514
				c-1.541-1.584-5.212-5.463-5.321-6.616c-0.115-1.22,2.805-5.494,3.769-6.868c-0.259-0.149-0.529-0.287-0.809-0.414
				c-0.311,0.43-0.783,1.088-1.473,2.069c-1.528,2.169-3.07,4.062-2.716,5.673c0.354,1.612,0.576,7.062,2.328,10.009
				c1.752,2.947,3.643-0.222,3.198,5.005c-0.445,5.228-3.17,9.454,0.389,14.57c3.559,5.116,3.04,5.45,4.412,7.73
				c0.982,1.632,2.205,3.057,3.157,3.759c0.787-0.664,1.186-1.517,1.17-1.874C78.739,143.595,73.007,132.706,73.007,132.706z"/>
			<path fill="#FF6161" d="M69.224,101.25c-3.152,1.029-3.933,9.802-6.083,11.053c-1.505,0.876-9.11-2.481-10.835-1.074
				c-1.726,1.408,6.403,6.621,11.681,5.954c5.278-0.667,8.248-12.477,7.894-14.265C71.526,101.131,70.311,100.895,69.224,101.25z"/>
			<path fill="#311E69" d="M57.267,114.795c-0.174,0.557-0.459,1.483-0.795,2.618c1.874,0.393,6.663,1.214,7.997-0.322
				C65.727,115.64,60.107,115.015,57.267,114.795z"/>
			<path fill="#AD263D" d="M70.889,108.171l-5.054,4.099c0,0,0.208,1.832-1.058,2.559c-1.266,0.728-1.85,0.728-3.143,0.352
				c-1.293-0.375-2.913-1.21-4.397-1.543c-1.484-0.334-4.144-2.169-4.774-1.335c-0.038,0.05-0.069,0.106-0.095,0.166
				c1.386,2.035,7.408,5.247,11.621,4.714C67.251,116.77,69.63,112.1,70.889,108.171z"/>
			<path fill="#AD263D" d="M45.714,107.868c0,0-1.905,0.014-2.183,0.723c-0.278,0.709,0,1.529-0.181,1.766
				c-0.181,0.236,0.348,0.473,0.626,0.111c0.278-0.361,0.352-1.199,0.683-1.114c0.332,0.085,1.347,0.325,1.861-0.106
				C47.035,108.817,46.603,107.886,45.714,107.868z"/>
			<path fill="#AD263D" d="M42.779,109.57c0,0-0.152,0.576,0.027,0.88c0.179,0.304,0.695,0.203,1.081,0.316
				c0.386,0.113,0.536,0.174,1.116,0.025c0.58-0.149,0.754-0.802,0.322-0.928c-0.432-0.127-1.652-0.232-1.652-0.232
				s-0.047-0.433-0.432-0.379C42.856,109.308,42.779,109.57,42.779,109.57z"/>
			<path fill="#FF6161" d="M54.052,110.889c0,0-0.776-0.989-1.678-1.214c-0.902-0.225-1.679,0.458-1.522,0.563
				c0.156,0.105,0.605,0.188,0.605,0.532c0,0.34-1.254,0.67-1.254,0.67s1.744,1.321,2.641,0.977
				C53.74,112.074,54.052,110.889,54.052,110.889z"/>
			<g>
				<path fill="#614CD4" d="M71.881,102.919c-0.355-1.787-1.57-2.023-2.657-1.668c-2.415,0.788-3.439,6.119-4.752,9.133
					c0.355,1.178,1.823,2.814,4.529,3.254C71.372,109.811,72.115,104.098,71.881,102.919z"/>
			</g>
			<path fill="#311E69" d="M69.002,113.638c2.371-3.827,3.113-9.54,2.879-10.719c-0.267-1.344-1.02-1.81-1.84-1.808
				c-0.037,0.498-0.052,1.209,0.073,1.878c0.222,1.196,0.417,1.502-0.584,2.92c-1.001,1.418-1.613,2.198-1.613,3.268
				c0,1.07-1.679,1.793-1.994,2.794c-0.029,0.093-0.059,0.195-0.089,0.3C66.586,112.888,67.636,113.416,69.002,113.638z"/>
			<path fill="#FFD140" d="M53.631,139.032c0.035,0.905,0.082,1.807,0.143,2.683c2.122,0.435,4.942,0.005,6.637-0.344
				c0.017-1.04,0.011-2.082-0.019-3.076C58.183,139.274,55.214,139.178,53.631,139.032z"/>
			<path fill="#FFD140" d="M60.213,145.373c0.084-0.956,0.141-1.979,0.174-3.022c-2.229,0.769-5.043,0.551-6.538,0.349
				c0.082,0.974,0.184,1.9,0.307,2.745C56.085,145.859,58.55,145.626,60.213,145.373z"/>
			<g>
				<path fill="#FFD140" d="M73.979,134.585c-2.348,1.732-6.064,2.235-7.092,2.344c0.318,0.79,0.682,1.621,1.079,2.462
					c2.468,0.11,5.786-1.364,7.353-2.143C74.828,136.255,74.363,135.336,73.979,134.585z"/>
				<path fill="#FFD140" d="M77.016,140.787c-0.423-0.919-0.882-1.878-1.335-2.802c-2.134,1.751-5.743,2.248-7.243,2.382
					c0.434,0.87,0.896,1.734,1.37,2.555C72.544,142.823,75.959,141.292,77.016,140.787z"/>
			</g>
			<g>
				<path fill="#F46822" d="M74.981,136.567c-0.017-0.035-0.035-0.069-0.052-0.104c-0.345-0.689-0.668-1.327-0.948-1.875
					c-0.001-0.001-0.001-0.003-0.002-0.004c-1.072,0.791-2.429,1.324-3.686,1.681c0.667,0.967,1.183,1.758,1.591,2.418
					c1.371-0.457,2.633-1.037,3.435-1.437C75.205,137.016,75.092,136.789,74.981,136.567z"/>
				<path fill="#F46822" d="M75.685,137.991c-0.001-0.002-0.002-0.004-0.003-0.006c-0.908,0.745-2.083,1.262-3.25,1.622
					c0.644,1.131,0.923,1.818,1.244,2.522c1.485-0.487,2.764-1.066,3.34-1.342C76.594,139.87,76.136,138.913,75.685,137.991z"/>
			</g>
			<g>
				<path fill="#F46822" d="M57.025,141.061c0.078,0.237,0.128,0.502,0.166,0.78c1.204-0.095,2.357-0.293,3.219-0.47v0
					c0.008-0.501,0.01-1.002,0.008-1.498c0-0.038,0-0.075-0.001-0.113c-0.003-0.495-0.012-0.985-0.026-1.463v-0.001
					c-1.098,0.487-2.383,0.707-3.593,0.789C56.717,139.654,56.77,140.28,57.025,141.061z"/>
				<path fill="#F46822" d="M57.157,145.661c1.11-0.033,2.191-0.157,3.055-0.288l0-0.002c0.02-0.233,0.039-0.471,0.057-0.711
					c0.001-0.01,0.001-0.019,0.002-0.029c0.053-0.735,0.091-1.501,0.115-2.277c0-0.001,0-0.002,0-0.003
					c-0.981,0.339-2.076,0.486-3.121,0.527C57.28,143.751,57.21,144.714,57.157,145.661z"/>
			</g>
			<path fill="#1E1240" d="M58.536,151.021c-0.136-0.178-0.295-1.71-0.343-1.859c-0.175-0.547-0.652-0.898-1.233-1.052
				c-0.366-0.097-1.996-0.347-2.214-0.052c-0.195,0.264,0.866,1.843,0.557,2.344c-0.135,0.218-2.576,1.425-2.573,2.477
				c0.001,0.492,5.321,0.476,6.19-0.024C59.373,152.594,58.984,151.606,58.536,151.021z"/>
		</g>
		<g>
			<path fill="#4CB4D4" d="M157.567,134.259c0,0-2.234-6.241-1.3-7.169c1.406-1.397,3.812-0.043,5.113-0.485
				c1.301-0.443,2.129-2.004,3.581-1.249c0.895,0.465,1.982,1.555,1.534,2.973c-0.824,2.611-3.388,5.76-3.388,5.76
				s8.183,9.973,8.779,19.264c0.597,9.291-20.894,9.376-24.895,6.137C142.991,156.251,143.077,140.226,157.567,134.259z"/>
			<g>
				<path fill="#2E88BF" d="M171.887,153.353c-0.597-9.291-8.779-19.264-8.779-19.264s2.564-3.149,3.388-5.76
					c0.448-1.419-0.639-2.508-1.534-2.973c-1.094-0.568-1.833,0.176-2.687,0.767c0.22,1.19,0.442,3.008,0.13,4.492
					c-0.511,2.429-1.662,4.014-1.662,4.014s2.046,9.411,0.575,14.525c-1.47,5.114-9.347,7.032-12.964,5.306
					c-1.494-0.713-2.705-1.589-3.612-2.373c-0.1,3.414,0.811,6.236,2.251,7.402C150.993,162.729,172.484,162.644,171.887,153.353z"
					/>
			</g>
		</g>
		<g>
			<path fill="#311E69" d="M178.225,140.745c0,0-2.14-5.979-1.245-6.867c1.347-1.338,3.651-0.041,4.898-0.465
				c1.247-0.424,2.039-1.919,3.431-1.196c0.857,0.446,1.899,1.489,1.47,2.848c-0.79,2.501-3.246,5.517-3.246,5.517
				s7.838,9.553,8.41,18.452c0.572,8.9-20.014,8.981-23.846,5.879C164.263,161.81,164.344,146.46,178.225,140.745z"/>
			<g>
				<path fill="#1E1240" d="M191.941,159.034c-0.572-8.9-8.41-18.453-8.41-18.453s2.456-3.017,3.246-5.517
					c0.429-1.359-0.612-2.403-1.47-2.848c-1.048-0.544-1.756,0.168-2.574,0.735c0.211,1.14,0.423,2.881,0.124,4.303
					c-0.49,2.327-1.592,3.845-1.592,3.845s1.96,9.015,0.551,13.914c-1.409,4.899-8.953,6.736-12.418,5.083
					c-1.431-0.683-2.591-1.523-3.459-2.273c-0.096,3.27,0.777,5.974,2.156,7.09C171.928,168.016,192.513,167.934,191.941,159.034z"
					/>
			</g>
		</g>
		<g>
			<path fill="#311E69" d="M203.464,142.298c0,0-0.895-6.287,0.16-6.978c1.589-1.04,3.585,0.693,4.891,0.528
				c1.306-0.165,2.383-1.471,3.601-0.483c0.75,0.609,1.561,1.84,0.868,3.085c-1.276,2.291-4.288,4.753-4.288,4.753
				s5.759,10.933,4.531,19.766c-1.228,8.833-21.41,4.778-24.541,0.968C185.555,160.129,188.719,145.108,203.464,142.298z"/>
			<g>
				<path fill="#1E1240" d="M213.228,162.97c1.228-8.833-4.531-19.766-4.531-19.766s3.012-2.462,4.288-4.753
					c0.693-1.245-0.117-2.477-0.868-3.085c-0.917-0.744-1.754-0.188-2.669,0.203c-0.023,1.159-0.164,2.908-0.743,4.241
					c-0.947,2.181-2.332,3.447-2.332,3.447s0.109,9.225-2.255,13.741c-2.364,4.516-10.124,4.8-13.186,2.484
					c-1.265-0.957-2.232-2.012-2.932-2.922c-0.751,3.184-0.439,6.008,0.688,7.379C191.818,167.748,212,171.803,213.228,162.97z"/>
			</g>
		</g>
		<g>
			<path fill="#1E1240" d="M101.462,96.51c2.304-0.723,11.82,0.806,12.803-0.498c1.533-2.033,1.389-11.497,3.895-10.948
				c2.996,0.657,3.241,12.376-1.687,15.379c-2.481,1.512-9.931,2.704-12.212,2.34C101.319,102.312,99.946,96.985,101.462,96.51z"/>
			<g>
				<g>
					<path fill="#1E1240" d="M126.592,119.978c-0.609-0.958-1.412-1.662-2.16-2.045l-0.581-0.916l-1.155,0.733
						c-0.825,0.523-0.541,2.453,0.632,4.3c1.173,1.848,2.798,2.925,3.623,2.401l1.155-0.733l-0.581-0.916
						C127.496,121.963,127.201,120.937,126.592,119.978z"/>
					<path fill="#614CD4" d="M123.851,117.017c-0.825,0.524-0.541,2.453,0.632,4.3c1.173,1.848,2.798,2.925,3.623,2.401
						c0.825-0.524,0.541-2.453-0.632-4.3S124.676,116.494,123.851,117.017z"/>
				</g>
				<path fill="#614CD4" d="M104.903,92.785l21.761,28.921c0.372,0.456,1.026,0.562,1.522,0.246l14.732-9.352
					c0.477-0.303,0.667-0.906,0.449-1.428l-15.981-33.02L104.903,92.785z"/>
				<path fill="#311E69" d="M132.482,99.338c2.401,5.802-1.84,15.438,0.628,19.488l9.808-6.226c0.477-0.303,0.667-0.906,0.449-1.428
					l-15.981-33.02l-6.688,4.353C122.685,84.094,131.288,96.453,132.482,99.338z"/>
				<polygon fill="#311E69" points="105.893,94 108.873,92.109 110.126,93.772 111.351,92.994 110.401,91.139 116.152,87.488 
					117.405,89.151 118.631,88.373 117.68,86.518 124.611,82.118 125.864,83.781 127.089,83.003 126.139,81.148 128.114,79.894 
					127.386,78.152 104.903,92.785 				"/>
				<path fill="#614CD4" d="M126.194,75.652l-23.201,14.729c-0.759,0.482-0.821,1.568-0.121,2.133l1.772,1.429l3.439-2.183
					l1.253,1.663l1.225-0.778l-0.95-1.855l5.751-3.651l1.253,1.663l1.225-0.778l-0.95-1.855l6.931-4.4l1.253,1.663l1.225-0.778
					l-0.95-1.855l3.255-2.066l-0.414-2.212C128.019,75.605,126.979,75.153,126.194,75.652z"/>
				<g>
					<path fill="#1E1240" d="M144.621,108.533c-0.609-0.959-1.412-1.662-2.16-2.045l-0.581-0.916l-1.155,0.733
						c-0.825,0.524-0.541,2.453,0.632,4.3c1.173,1.848,2.798,2.925,3.623,2.401l1.155-0.733l-0.581-0.916
						C145.524,110.518,145.23,109.491,144.621,108.533z"/>
					<path fill="#614CD4" d="M141.88,105.572c-0.825,0.523-0.541,2.453,0.632,4.3c1.173,1.848,2.798,2.925,3.623,2.401
						c0.825-0.523,0.541-2.453-0.632-4.3C144.33,106.126,142.704,105.048,141.88,105.572z"/>
				</g>
				<g>
					<g>
						<path fill="#FFFFFF" d="M120.337,94.762l2.137,0.937l-0.454,0.929l2.039-1.373l-0.482-1.687l-0.299,0.659l-1.122-0.487
							c-0.28-0.124-0.607-0.072-0.834,0.133L120.337,94.762z"/>
						<path fill="#FFFFFF" d="M120.137,95.231l-0.582,2.257l1.656,0.268l0.546-2.226l-1.355-0.6
							C120.217,94.847,120.188,95.034,120.137,95.231z"/>
					</g>
					<g>
						<path fill="#FFFFFF" d="M127.474,96.242l-1.73,1.566l-0.662-0.795l0.417,2.422l1.736,0.251l-0.479-0.542l0.904-0.824
							c0.228-0.205,0.314-0.524,0.22-0.816L127.474,96.242z"/>
						<path fill="#FFFFFF" d="M127.127,95.867l-1.821-1.455l-0.923,1.401l1.808,1.41l1.102-0.991
							C127.445,96.098,127.286,95.994,127.127,95.867z"/>
					</g>
					<g>
						<path fill="#FFFFFF" d="M122.581,101.751l-0.84-2.177l0.979-0.332l-2.411-0.48l-0.858,1.53l0.678-0.252l0.445,1.139
							c0.109,0.286,0.376,0.481,0.682,0.498L122.581,101.751z"/>
						<path fill="#FFFFFF" d="M123.055,101.562l2.011-1.177l-0.976-1.365l-1.965,1.181l0.529,1.384
							C122.726,101.776,122.88,101.665,123.055,101.562z"/>
					</g>
				</g>
			</g>
			<path fill="#F46822" d="M107.311,111.718c-4.065,0.757-8.943,2.045-10.551,1.897c-0.101,0.383-1.764,0.892-1.895,1.317
				c-3.183,10.311-2.257,35.782-2.257,35.782s1.386,0.529,3.392-0.021c0.74-0.203,1.314-0.794,1.483-1.543
				c1.209-5.363,3.359-25.738,3.826-27.501l1.788,27.836c0.037,0.641,0.752,1.458,1.394,1.458c0.964,0,1.887,0,2.553-0.126
				c0.367-0.069,0.65-0.362,0.704-0.732C108.254,146.623,110.851,127.031,107.311,111.718z"/>
			<path fill="#1E1240" d="M94.882,94.819c0,0,0.193,1.233,1.297,1.551c0.59,0.17,0.865-1.905,0.327-2.339
				C95.968,93.596,94.882,94.819,94.882,94.819z"/>
			<path fill="#1E1240" d="M91.415,102.292c0.812-3.23,2.444-5.576,9.53-5.792c2.485-0.076,4.678,1.574,4.838,4.056
				c0.624,9.66,3.563,15.277-0.059,16.575c-5.344,1.914-11.511,0.504-11.409-0.174C95.189,111.148,90.388,106.378,91.415,102.292z"
				/>
			<path fill="#FF6161" d="M95.831,95.352l0.305,2.714c0.155,0.342,2.428,0.435,2.766-0.246c0.099-0.199-0.097-0.505-0.409-0.791
				l-1.778-1.518L95.831,95.352z"/>
			<path fill="#311E69" d="M97.072,95.818c-0.407,0.108-0.965,0.249-0.965,0.249s0.311,0.583,1.044,0.79
				c0.388,0.109,0.765,0.073,1.082-0.048L97.072,95.818z"/>
			<path fill="#FF6161" d="M95.947,94.239l0.085,1.563c0.069,0.512,0.532,0.879,1.047,0.823c0.411-0.044,0.652-0.137,1.105-0.38
				c0.378-0.202,0.433-0.661,0.231-1.181c-0.262-0.674-0.695-1.22-0.943-1.499C96.907,92.93,95.966,93.217,95.947,94.239z"/>
			<path fill="#311E69" d="M96.107,94.85c0.166-0.103,0.109,0.076,0.337,0.203c0.228,0.127,0.34,0.06,0.836-0.385
				c0.291-0.261,0.568-0.34,0.747-0.361c0.142,0.225,0.502,0.467,0.611,0.746c0.202,0.519,0.094,1.197-0.284,1.399
				c-0.453,0.243-0.822,0.266-1.233,0.311c-0.514,0.055-1.02-0.448-1.089-0.96l-0.046-0.843
				C96.029,94.911,96.071,94.873,96.107,94.85z"/>
			<path fill="#1E1240" d="M96.032,95.802l-0.01-0.175c0.239,0.035,0.474,0.1,0.593,0.191c0.29,0.224,1.189,0.359,1.384,0.262
				c0.195-0.098,0.213-0.248,0.452-0.302c0.132-0.029,0.221-0.211,0.274-0.369c0.054,0.436-0.076,0.885-0.371,1.043
				c-0.453,0.243-0.822,0.266-1.233,0.311C96.607,96.817,96.101,96.315,96.032,95.802z"/>
			<path fill="#FFFFFF" d="M97.263,95.001c0,0,0.337-0.132,0.708-0.469c0,0,0.198,0.257,0.103,0.462
				C97.978,95.199,97.582,95.249,97.263,95.001z"/>
			<path fill="#1E1240" d="M96.085,93.62c0,0-0.14,0.647,0,0.912c0.14,0.265,0.222,0.367,0.16,0.477
				c-0.062,0.11-0.412,0.003-0.518-0.287C95.622,94.433,95.461,93.669,96.085,93.62z"/>
			<path fill="#FF6161" d="M96.092,94.977c-0.07-0.067-0.129-0.144-0.183-0.225c-0.103-0.153-0.291-0.356-0.443-0.092
				c-0.221,0.384,0.371,1.169,0.791,0.977C96.569,95.494,96.268,95.147,96.092,94.977z"/>
			<path fill="#FFD140" d="M92.498,139.507c-0.011,1.042-0.015,2.043-0.015,2.991l6.046,0.31c0.147-1.048,0.297-2.159,0.448-3.301
				H92.498z"/>
			<path fill="#C63F20" d="M109.138,129.676c0-0.003,0-0.006,0-0.009c-0.003-0.483-0.009-0.97-0.018-1.459c0-0.009,0-0.018,0-0.027
				c-0.023-1.22-0.065-2.457-0.131-3.7c-0.014-0.265-0.029-0.53-0.045-0.795c-0.015-0.253-0.032-0.506-0.049-0.759
				c-0.019-0.274-0.039-0.547-0.06-0.821c-0.114-1.467-0.264-2.934-0.455-4.389c-0.103-0.785-0.218-1.567-0.347-2.342
				c-0.075-0.45-0.154-0.897-0.238-1.342c-0.147-0.781-0.307-1.553-0.483-2.315l-0.001,0v0c-3.263,0.608-7.047,1.556-9.245,1.831
				c2.773,1.616,6.042,2.184,6.298,2.516c2.43,3.16,4.333,7.9,2.729,12.228c-1.604,4.328-1.939,4.122-1.428,8.175
				c0.511,4.051,0.499,14.437,0.499,14.447h0c0.148-0.008,0.29-0.02,0.426-0.034c0.026-0.003,0.051-0.006,0.076-0.008
				c0.133-0.015,0.262-0.032,0.38-0.055c0.276-0.052,0.503-0.23,0.623-0.472c0.04-0.081,0.068-0.168,0.081-0.261
				c0.016-0.108,0.034-0.232,0.053-0.371c0.039-0.278,0.086-0.617,0.137-1.011c0.052-0.394,0.108-0.844,0.168-1.344
				c0.12-1.001,0.252-2.203,0.381-3.568c0.016-0.171,0.032-0.344,0.048-0.519c0.048-0.527,0.095-1.076,0.141-1.645
				c0.015-0.19,0.03-0.382,0.045-0.576c0.118-1.552,0.223-3.242,0.298-5.03c0.009-0.223,0.018-0.448,0.027-0.675
				C109.114,133.535,109.15,131.632,109.138,129.676z"/>
			<path fill="#FFD140" d="M98.438,143.45h-5.954c0.004,1.095,0.014,2.102,0.027,2.996l5.427,0.278
				C98.098,145.762,98.266,144.654,98.438,143.45z"/>
			<path fill="#FFD140" d="M102.438,139.226l0.192,2.993l5.971,0.306c0.089-1.03,0.173-2.133,0.248-3.299H102.438z"/>
			<g>
				<path fill="#F46822" d="M106.019,103.228c-0.543-0.717-1.138-1.564-1.455-2.217c-0.479-0.988-2.149-3.259-3.082-4.498
					c-0.177-0.012-0.356-0.019-0.537-0.013c-0.583,0.018-1.126,0.051-1.638,0.097l1.504,3.089l-3.337,0.57
					c-0.426-0.581-1.851-1.923-2.594-2.61c-0.553,0.263-1.018,0.566-1.411,0.905c1.187,0.702,4.615,3.013,3.911,5.923
					c-0.645,2.666-3.14,4.485-4.298,5.203c0.863,2.236,1.629,4.65,1.234,7.278c-0.102,0.678,6.064,2.088,11.409,0.174
					C108.998,115.957,106.911,111.254,106.019,103.228z"/>
			</g>
			<path fill="#FFD140" d="M108.545,143.168h-5.854l0.193,3.01l5.328,0.273C108.321,145.49,108.435,144.388,108.545,143.168z"/>
			<g>
				<path fill="#F46822" d="M108.729,140.947c0.002-0.024,0.003-0.049,0.005-0.073c0.017-0.227,0.034-0.458,0.05-0.691
					c0.004-0.054,0.008-0.108,0.011-0.162c0.018-0.262,0.036-0.526,0.053-0.795h-2.956c0.057,0.989,0.102,2.071,0.138,3.167
					l2.57,0.132C108.646,142.017,108.688,141.49,108.729,140.947z"/>
				<path fill="#F46822" d="M108.378,144.91c0-0.002,0-0.003,0.001-0.005c0.027-0.268,0.055-0.544,0.082-0.827
					c0.001-0.012,0.002-0.024,0.003-0.036c0.027-0.284,0.055-0.575,0.081-0.874h-2.49c0.031,1.092,0.053,2.178,0.069,3.176
					l2.089,0.107C108.267,145.972,108.322,145.457,108.378,144.91z"/>
			</g>
			<path fill="#C63F20" d="M98.737,123.278c-0.6,2.336-0.294,4.19-0.722,6.389c-0.428,2.198-6.075,18.381-4.42,21.247
				c0.595,0.059,1.425,0.048,2.405-0.221c0.74-0.203,1.314-0.794,1.483-1.543c1.209-5.363,3.359-25.738,3.826-27.501
				C101.309,121.649,99.337,120.942,98.737,123.278z"/>
			<path fill="#C63F20" d="M106.019,103.228c-0.543-0.717-1.138-1.564-1.455-2.217c-0.479-0.988-2.149-3.259-3.082-4.498
				c-0.177-0.012-0.356-0.019-0.537-0.013c-0.106,0.003-0.204,0.01-0.307,0.014c0.152,0.587,0.107,1.464,0.671,2.248
				c3.988,5.544,3.632,16.492,3.928,18.532c0.163-0.052,0.325-0.106,0.487-0.164C108.998,115.957,106.911,111.254,106.019,103.228z"
				/>
			<g>
				<path fill="#F46822" d="M98.648,141.956c0.034-0.249,0.069-0.501,0.103-0.756c0.001-0.009,0.002-0.017,0.003-0.026
					c0.035-0.256,0.07-0.516,0.105-0.777c0.003-0.021,0.006-0.041,0.008-0.062c0.035-0.266,0.071-0.534,0.106-0.803
					c0.001-0.008,0.002-0.016,0.003-0.024h-3.809c-0.282,1.031-0.554,2.073-0.799,3.088l4.16,0.213c0-0.003,0.001-0.006,0.001-0.009
					c0.033-0.236,0.066-0.476,0.1-0.718C98.636,142.04,98.642,141.998,98.648,141.956z"/>
				<path fill="#F46822" d="M93.559,146.5l4.38,0.225c0.159-0.961,0.327-2.067,0.499-3.269c0-0.002,0.001-0.004,0.001-0.006h-4.271
					C93.921,144.525,93.711,145.557,93.559,146.5z"/>
			</g>
			<path fill="#1E1240" d="M104.903,151.359c0.126-0.166,0.271-1.589,0.315-1.727c0.161-0.509,0.604-0.836,1.143-0.979
				c0.34-0.09,1.854-0.327,2.057-0.053c0.181,0.244-1.145,1.854-0.857,2.319c0.125,0.202,2.74,1.177,2.74,2.155
				c0,0.457-4.942,0.453-5.749-0.009C104.129,152.823,104.489,151.904,104.903,151.359z"/>
			<path fill="#1E1240" d="M92.483,100.123c2.395-1.922,9.415,7.78,11.275,7.78c2.073,0,7.45-8.54,10.635-6.578
				c3.185,1.962-4.29,12.964-12.075,12.174C96.023,112.86,89.316,102.664,92.483,100.123z"/>
			<path fill="#FF6161" d="M113.576,101.553c0,0,0.807-1.33,1.391-1.386c0.584-0.056,0.594,0.108,0.594,0.108
				s-0.164,0.248,0.093,0.471c0.258,0.223,1.202,0,1.202,0s-0.137,0.722-0.326,0.807c-0.189,0.086-0.258,0.189-0.258,0.189
				s-0.086,0.447-0.258,0.636c-0.172,0.189-1.528,0.12-1.941,0C113.662,102.257,113.428,101.781,113.576,101.553z"/>
			<g>
				<path fill="#4CB4D4" d="M96.964,92.747c0,0-0.438-1.79-1.726-0.965c-1.49,0.954-1.532,2.173-0.317,3.2
					c0,0,0.212-0.296,0.752-0.726c0,0,0.829-0.422,1.052-0.7C97.257,92.889,96.964,92.747,96.964,92.747z"/>
				<path fill="#1E1240" d="M96.89,92.57c0,0,1.28-0.709,1.391-0.428c0.111,0.281-0.305,1.106-0.806,1.468
					c-0.501,0.362-1.461,0.668-1.802,0.645C95.673,94.255,97.055,93.095,96.89,92.57z"/>
			</g>
			<path fill="#1E1240" d="M95.052,151.359c-0.126-0.166,0.339-1.589,0.295-1.727c-0.161-0.509-0.604-0.836-1.143-0.979
				c-0.34-0.09-1.377-0.276-1.58-0.002c-0.181,0.244,0.058,1.804-0.229,2.268c-0.125,0.202-2.74,1.177-2.74,2.155
				c0,0.457,4.942,0.453,5.749-0.009C95.826,152.823,95.466,151.904,95.052,151.359z"/>
		</g>
	</g>
</g>
</svg>
