<?xml version="1.0" encoding="utf-8"?>
<!-- Generator: Adobe Illustrator 17.0.0, SVG Export Plug-In . SVG Version: 6.00 Build 0)  -->
<!DOCTYPE svg PUBLIC "-//W3C//DTD SVG 1.1//EN" "http://www.w3.org/Graphics/SVG/1.1/DTD/svg11.dtd">
<svg version="1.1" id="Слой_1" xmlns="http://www.w3.org/2000/svg" xmlns:xlink="http://www.w3.org/1999/xlink" x="0px" y="0px"
	 width="182.83px" height="190.667px" viewBox="0 0 182.83 190.667" enable-background="new 0 0 182.83 190.667"
	 xml:space="preserve">
<g>
	<g>
		<path fill="#FFFFFF" d="M176.317,24.519c15.734,41.559-29.854,133.138-68.661,151.797S24.634,176.412,8.9,134.853
			s2.97-90.375,41.777-109.034S160.583-17.039,176.317,24.519z"/>
	</g>
	<g>
		<g>
			<path fill="#F7C263" d="M182.83,18.931c0-8.269-17.544-5.198-29.179-16.775c-10.847-10.794-30.656,22.445-62.236,22.682
				C59.835,24.601,40.026-8.638,29.179,2.156C17.544,13.733,0,10.661,0,18.931c0,8.269,22.9,9.214,22.9,9.214
				s-12.373,2.363-8.126,7.239c4.248,4.876,22.531,1.503,22.531,1.503s-8.31,8.033,0,8.978c8.31,0.945,25.116-8.742,25.116-8.742
				s-4.986,5.198,0.923,7.088c3.077,0.984,10.561-1.427,17.029-3.965c-0.023,0.373-0.038,0.749-0.038,1.13
				c0,6.065,2.982,11.225,7.168,13.25l0.369,36.183c-1.445-0.205-2.884-0.394-4.315-0.58c-4.31-0.553-8.572-1.046-12.666-1.769
				c-2.042-0.364-4.043-0.788-5.914-1.335c-1.857-0.545-3.62-1.234-4.89-2.074c-0.63-0.416-1.125-0.857-1.431-1.268
				c-0.313-0.415-0.466-0.777-0.551-1.225c-0.082-0.448-0.082-1.007,0.049-1.692c0.158-0.868,0.376-1.706,0.656-2.507
				c1.105-3.211,3.28-5.767,6.275-7.563c1.489-0.899,3.163-1.607,4.921-2.134c0.88-0.261,1.782-0.478,2.689-0.645
				c0.453-0.083,0.908-0.155,1.355-0.211c0.224-0.029,0.446-0.053,0.661-0.073l0.313-0.026l0.143-0.009
				c0.03-0.002,0.113-0.006,0.074-0.003c2.477-0.114,4.392-2.215,4.277-4.691c-0.114-2.477-2.215-4.392-4.691-4.277l-0.33,0.023
				l-0.261,0.024l-0.494,0.054c-0.322,0.039-0.637,0.082-0.948,0.13c-0.623,0.095-1.233,0.208-1.841,0.336
				c-1.213,0.257-2.408,0.576-3.591,0.962c-2.362,0.775-4.681,1.814-6.861,3.207c-2.176,1.388-4.205,3.151-5.865,5.255
				c-1.667,2.095-2.931,4.523-3.724,7.026c-0.4,1.251-0.692,2.52-0.887,3.785c-0.227,1.443-0.264,3.085,0.112,4.754
				c0.362,1.668,1.186,3.302,2.237,4.563c1.048,1.28,2.261,2.215,3.452,2.956c2.403,1.461,4.767,2.226,7.061,2.85
				c2.298,0.604,4.547,1.011,6.77,1.348c2.097,0.312,4.171,0.559,6.228,0.782c-0.372,0.274-0.74,0.561-1.074,0.861
				c-0.466,0.418-0.929,0.847-1.38,1.332c-0.452,0.474-0.895,0.996-1.316,1.577c-0.421,0.575-0.82,1.228-1.156,1.975
				c-0.334,0.744-0.603,1.599-0.704,2.534c-0.105,0.931-0.021,1.929,0.238,2.829c0.256,0.904,0.665,1.7,1.121,2.372
				c0.458,0.674,0.961,1.236,1.472,1.732c1.027,0.986,2.084,1.716,3.135,2.36c2.072,1.253,4.143,2.157,6.212,2.984
				c-0.691,0.214-1.381,0.427-2.073,0.641l-1.549,0.476l-0.776,0.239c-0.256,0.08-0.579,0.178-0.867,0.281
				c-1.184,0.42-2.401,0.933-3.618,1.833c-0.603,0.45-1.211,1.013-1.727,1.752c-0.518,0.727-0.914,1.663-1.044,2.62
				c-0.14,0.96-0.022,1.89,0.208,2.682c0.231,0.799,0.566,1.481,0.933,2.09c0.74,1.215,1.607,2.156,2.497,3.01
				c0.895,0.845,1.828,1.584,2.78,2.263c0.953,0.678,1.926,1.297,2.914,1.873c0.494,0.288,0.992,0.565,1.491,0.834l1.466,0.77
				c1.158,0.6,2.321,1.174,3.485,1.738c-0.009,0.005-0.017,0.009-0.026,0.013c-1.942,1.018-3.891,2.075-5.8,3.296
				c-1.904,1.22-3.792,2.597-5.449,4.381c-1.65,1.767-3.03,4.048-3.494,6.628c-0.239,1.287-0.234,2.645,0.024,3.93
				c0.254,1.288,0.744,2.494,1.363,3.574c1.251,2.166,2.952,3.863,4.754,5.304c0.906,0.72,1.849,1.373,2.819,1.975
				c0.485,0.301,0.978,0.588,1.479,0.863c0.511,0.278,0.989,0.528,1.57,0.795c0.813,0.373,1.782,0.034,2.18-0.774
				c0.405-0.822,0.067-1.816-0.754-2.221l-0.043-0.021c-0.396-0.195-0.872-0.455-1.303-0.707c-0.44-0.256-0.875-0.526-1.301-0.806
				c-0.852-0.561-1.674-1.163-2.444-1.809c-1.535-1.289-2.891-2.763-3.76-4.38c-0.876-1.616-1.19-3.333-0.824-4.997
				c0.353-1.689,1.32-3.251,2.645-4.596c1.327-1.355,2.986-2.519,4.749-3.575c1.739-1.044,3.593-1.988,5.478-2.909l0.37,36.312
				c0.016,1.57,1.294,2.835,2.864,2.835c1.571,0,2.848-1.265,2.864-2.835l0.37-36.312c1.885,0.921,3.739,1.865,5.478,2.909
				c1.764,1.056,3.423,2.22,4.749,3.575c1.326,1.345,2.292,2.907,2.645,4.596c0.366,1.664,0.052,3.381-0.824,4.997
				c-0.869,1.617-2.225,3.091-3.76,4.38c-0.77,0.646-1.591,1.249-2.444,1.809c-0.426,0.28-0.861,0.549-1.301,0.806
				c-0.431,0.251-0.908,0.512-1.303,0.707l-0.045,0.022c-0.802,0.396-1.147,1.361-0.772,2.179c0.383,0.832,1.367,1.197,2.2,0.814
				c0.582-0.267,1.059-0.517,1.57-0.795c0.501-0.275,0.994-0.562,1.479-0.863c0.97-0.602,1.913-1.255,2.819-1.975
				c1.802-1.441,3.503-3.138,4.754-5.304c0.619-1.08,1.109-2.286,1.363-3.574c0.258-1.286,0.263-2.643,0.024-3.93
				c-0.464-2.58-1.844-4.861-3.494-6.628c-1.657-1.785-3.545-3.161-5.449-4.381c-1.91-1.221-3.858-2.278-5.8-3.296
				c-0.009-0.004-0.017-0.009-0.026-0.013c1.164-0.564,2.327-1.138,3.485-1.738l1.466-0.77c0.499-0.269,0.997-0.546,1.491-0.834
				c0.987-0.576,1.96-1.195,2.914-1.873c0.952-0.68,1.885-1.418,2.78-2.263c0.89-0.853,1.757-1.795,2.497-3.01
				c0.366-0.609,0.702-1.291,0.933-2.09c0.23-0.792,0.348-1.722,0.208-2.682c-0.13-0.957-0.526-1.893-1.045-2.62
				c-0.516-0.739-1.124-1.301-1.726-1.752c-1.217-0.9-2.434-1.412-3.618-1.833c-0.289-0.103-0.611-0.201-0.867-0.281l-0.776-0.239
				l-1.549-0.476c-0.692-0.213-1.383-0.427-2.073-0.641c2.069-0.827,4.14-1.731,6.212-2.984c1.051-0.644,2.109-1.374,3.135-2.36
				c0.511-0.496,1.015-1.058,1.472-1.732c0.455-0.672,0.865-1.467,1.121-2.372c0.259-0.9,0.343-1.898,0.238-2.829
				c-0.101-0.935-0.37-1.79-0.704-2.534c-0.336-0.747-0.735-1.401-1.156-1.975c-0.421-0.581-0.863-1.103-1.316-1.577
				c-0.451-0.485-0.914-0.913-1.38-1.332c-0.335-0.3-0.703-0.587-1.074-0.861c2.057-0.222,4.131-0.469,6.228-0.782
				c2.223-0.337,4.473-0.744,6.77-1.348c2.295-0.624,4.658-1.389,7.061-2.85c1.191-0.74,2.404-1.676,3.452-2.956
				c1.051-1.26,1.875-2.895,2.237-4.563c0.376-1.669,0.339-3.31,0.112-4.754c-0.195-1.265-0.486-2.534-0.887-3.785
				c-0.793-2.502-2.057-4.93-3.724-7.026c-1.66-2.103-3.689-3.866-5.865-5.255c-2.18-1.393-4.499-2.432-6.861-3.207
				c-1.183-0.385-2.378-0.705-3.591-0.962c-0.607-0.127-1.218-0.241-1.841-0.336c-0.311-0.048-0.625-0.091-0.948-0.13l-0.494-0.054
				l-0.261-0.024l-0.33-0.023c-2.477-0.114-4.577,1.801-4.691,4.277c-0.114,2.477,1.801,4.577,4.277,4.691
				c-0.039-0.003,0.044,0.001,0.074,0.003l0.143,0.009l0.313,0.026c0.215,0.02,0.437,0.045,0.661,0.073
				c0.447,0.056,0.902,0.128,1.355,0.211c0.907,0.167,1.809,0.384,2.689,0.645c1.759,0.527,3.432,1.235,4.921,2.134
				c2.995,1.796,5.17,4.352,6.275,7.563c0.28,0.801,0.498,1.639,0.656,2.507c0.13,0.685,0.13,1.245,0.049,1.692
				c-0.085,0.448-0.238,0.81-0.551,1.225c-0.306,0.411-0.8,0.852-1.431,1.268c-1.27,0.84-3.033,1.529-4.89,2.074
				c-1.871,0.547-3.871,0.972-5.914,1.335c-4.095,0.723-8.356,1.216-12.666,1.769c-1.431,0.186-2.87,0.375-4.315,0.58l0.371-36.417
				c3.937-2.175,6.694-7.182,6.694-13.016c0-0.381-0.015-0.756-0.038-1.13c6.467,2.538,13.951,4.949,17.029,3.965
				c5.91-1.89,0.923-7.088,0.923-7.088s16.806,9.687,25.116,8.742c8.31-0.945,0-8.978,0-8.978s18.283,3.373,22.531-1.503
				c4.248-4.876-8.126-7.239-8.126-7.239S182.83,27.2,182.83,18.931z M77.529,107.488c-0.523-0.531-0.803-1.033-0.849-1.303
				c-0.029-0.141-0.028-0.241-0.006-0.382c0.024-0.139,0.082-0.328,0.199-0.564c0.228-0.473,0.702-1.09,1.304-1.682
				c0.293-0.299,0.634-0.596,0.98-0.89c0.314-0.265,0.607-0.475,0.959-0.7c0.69-0.437,1.488-0.829,2.344-1.174
				c1.678-0.674,3.559-1.176,5.497-1.582l0.141,13.871c-1.106-0.416-2.201-0.846-3.269-1.302c-1.889-0.812-3.735-1.697-5.301-2.713
				C78.751,108.564,78.044,108.02,77.529,107.488z M83.926,133.729c-0.445-0.256-0.884-0.518-1.317-0.787
				c-0.865-0.538-1.701-1.106-2.493-1.704c-0.791-0.598-1.536-1.23-2.195-1.89c-0.652-0.656-1.227-1.353-1.589-2.002
				c-0.376-0.653-0.463-1.201-0.396-1.398c0.028-0.113,0.062-0.201,0.178-0.349c0.11-0.144,0.303-0.33,0.572-0.515
				c0.534-0.377,1.332-0.724,2.191-0.993c0.223-0.072,0.42-0.125,0.681-0.199l0.781-0.216l1.563-0.432
				c2.09-0.58,4.185-1.16,6.283-1.763l0.149,14.65c-1.018-0.532-2.028-1.07-3.024-1.623L83.926,133.729z M102.966,123.676
				l0.781,0.216c0.261,0.074,0.458,0.127,0.681,0.199c0.859,0.269,1.657,0.615,2.191,0.993c0.27,0.185,0.462,0.371,0.572,0.515
				c0.115,0.148,0.15,0.237,0.178,0.349c0.067,0.198-0.021,0.745-0.396,1.398c-0.362,0.649-0.937,1.346-1.589,2.002
				c-0.658,0.659-1.404,1.291-2.195,1.89c-0.792,0.598-1.629,1.166-2.493,1.704c-0.433,0.269-0.872,0.531-1.317,0.787l-1.383,0.777
				c-0.996,0.554-2.007,1.092-3.024,1.623l0.149-14.65c2.098,0.603,4.193,1.184,6.283,1.763L102.966,123.676z M106.623,106.185
				c-0.046,0.27-0.326,0.773-0.849,1.303c-0.516,0.532-1.222,1.076-2,1.579c-1.566,1.016-3.411,1.9-5.301,2.713
				c-1.068,0.456-2.162,0.885-3.269,1.302l0.141-13.871c1.938,0.407,3.819,0.908,5.497,1.582c0.856,0.345,1.653,0.737,2.344,1.174
				c0.351,0.225,0.645,0.435,0.959,0.7c0.347,0.294,0.687,0.591,0.98,0.89c0.602,0.591,1.076,1.209,1.304,1.682
				c0.117,0.236,0.175,0.425,0.199,0.564C106.651,105.944,106.652,106.043,106.623,106.185z"/>
			<g>
				<path fill="#C98624" d="M182.83,18.931c0-8.269-17.544-5.198-29.179-16.775c-10.847-10.794-30.656,22.445-62.236,22.682v158.687
					c0.079,0.007,0.155,0.024,0.236,0.024c1.571,0,2.848-1.265,2.864-2.835l0.37-36.312c1.885,0.921,3.739,1.865,5.478,2.909
					c1.764,1.056,3.423,2.22,4.749,3.575c1.326,1.345,2.292,2.907,2.645,4.596c0.366,1.664,0.052,3.381-0.824,4.997
					c-0.869,1.617-2.225,3.091-3.76,4.38c-0.77,0.646-1.591,1.249-2.444,1.809c-0.426,0.28-0.861,0.549-1.301,0.806
					c-0.431,0.251-0.908,0.512-1.303,0.707l-0.045,0.022c-0.802,0.396-1.147,1.361-0.772,2.179c0.383,0.832,1.367,1.197,2.2,0.814
					c0.582-0.267,1.059-0.517,1.57-0.795c0.501-0.275,0.994-0.562,1.479-0.863c0.97-0.602,1.913-1.255,2.819-1.975
					c1.802-1.441,3.503-3.138,4.754-5.304c0.619-1.08,1.109-2.286,1.363-3.574c0.258-1.286,0.263-2.643,0.024-3.93
					c-0.464-2.58-1.844-4.861-3.494-6.628c-1.657-1.785-3.545-3.161-5.449-4.381c-1.91-1.221-3.858-2.278-5.8-3.296
					c-0.009-0.004-0.017-0.009-0.026-0.013c1.164-0.564,2.327-1.138,3.485-1.738l1.466-0.77c0.499-0.269,0.997-0.546,1.491-0.834
					c0.987-0.576,1.96-1.195,2.914-1.873c0.952-0.68,1.885-1.418,2.78-2.263c0.89-0.853,1.757-1.795,2.497-3.01
					c0.366-0.609,0.702-1.291,0.933-2.09c0.23-0.792,0.348-1.722,0.208-2.682c-0.13-0.957-0.526-1.893-1.045-2.62
					c-0.516-0.739-1.124-1.301-1.726-1.752c-1.217-0.9-2.434-1.412-3.618-1.833c-0.289-0.103-0.611-0.201-0.867-0.281l-0.776-0.239
					l-1.549-0.476c-0.692-0.213-1.383-0.427-2.073-0.641c2.069-0.827,4.14-1.731,6.212-2.984c1.051-0.644,2.109-1.374,3.135-2.36
					c0.511-0.496,1.015-1.058,1.472-1.732c0.455-0.672,0.865-1.467,1.121-2.372c0.259-0.9,0.343-1.898,0.238-2.829
					c-0.101-0.935-0.37-1.79-0.704-2.534c-0.336-0.747-0.735-1.401-1.156-1.975c-0.421-0.581-0.863-1.103-1.316-1.577
					c-0.451-0.485-0.914-0.913-1.38-1.332c-0.335-0.3-0.703-0.587-1.074-0.861c2.057-0.222,4.131-0.469,6.228-0.782
					c2.223-0.337,4.473-0.744,6.77-1.348c2.295-0.624,4.658-1.389,7.061-2.85c1.191-0.74,2.404-1.676,3.452-2.956
					c1.051-1.26,1.875-2.895,2.237-4.563c0.376-1.669,0.339-3.31,0.112-4.754c-0.195-1.265-0.486-2.534-0.887-3.785
					c-0.793-2.502-2.057-4.93-3.724-7.026c-1.66-2.103-3.689-3.866-5.865-5.255c-2.18-1.393-4.499-2.432-6.861-3.207
					c-1.183-0.385-2.378-0.705-3.591-0.962c-0.607-0.127-1.218-0.241-1.841-0.336c-0.311-0.048-0.625-0.091-0.948-0.13l-0.494-0.054
					l-0.261-0.024l-0.33-0.023c-2.477-0.114-4.577,1.801-4.691,4.277c-0.114,2.477,1.801,4.577,4.277,4.691
					c-0.039-0.003,0.044,0.001,0.074,0.003l0.143,0.009l0.313,0.026c0.215,0.02,0.437,0.045,0.661,0.073
					c0.447,0.056,0.902,0.128,1.355,0.211c0.907,0.167,1.809,0.384,2.689,0.645c1.759,0.527,3.432,1.235,4.921,2.134
					c2.995,1.796,5.17,4.352,6.275,7.563c0.28,0.801,0.498,1.639,0.656,2.507c0.13,0.685,0.13,1.245,0.049,1.692
					c-0.085,0.448-0.238,0.81-0.551,1.225c-0.306,0.411-0.8,0.852-1.431,1.268c-1.27,0.84-3.033,1.529-4.89,2.074
					c-1.871,0.547-3.871,0.972-5.914,1.335c-4.095,0.723-8.356,1.216-12.666,1.769c-1.431,0.186-2.87,0.375-4.315,0.58l0.371-36.417
					c3.937-2.175,6.694-7.182,6.694-13.016c0-0.381-0.015-0.756-0.038-1.13c6.467,2.538,13.951,4.949,17.029,3.965
					c5.91-1.89,0.923-7.088,0.923-7.088s16.806,9.687,25.116,8.742c8.31-0.945,0-8.978,0-8.978s18.283,3.373,22.531-1.503
					c4.248-4.876-8.126-7.239-8.126-7.239S182.83,27.2,182.83,18.931z M101.402,123.243l1.563,0.432l0.781,0.216
					c0.261,0.074,0.458,0.127,0.681,0.199c0.859,0.269,1.657,0.615,2.191,0.993c0.27,0.185,0.462,0.371,0.572,0.515
					c0.115,0.148,0.15,0.237,0.178,0.349c0.067,0.198-0.021,0.745-0.396,1.398c-0.362,0.649-0.937,1.346-1.589,2.002
					c-0.658,0.659-1.404,1.291-2.195,1.89c-0.792,0.598-1.629,1.166-2.493,1.704c-0.433,0.269-0.872,0.531-1.317,0.787l-1.383,0.777
					c-0.996,0.554-2.007,1.092-3.024,1.623l0.149-14.65C97.217,122.083,99.312,122.664,101.402,123.243z M100.843,100.793
					c0.856,0.345,1.653,0.737,2.344,1.174c0.351,0.225,0.645,0.435,0.959,0.7c0.347,0.294,0.687,0.591,0.98,0.89
					c0.602,0.591,1.076,1.209,1.304,1.682c0.117,0.236,0.175,0.425,0.199,0.564c0.023,0.142,0.023,0.241-0.006,0.382
					c-0.046,0.27-0.326,0.773-0.849,1.303c-0.516,0.532-1.222,1.076-2,1.579c-1.566,1.016-3.411,1.9-5.301,2.713
					c-1.068,0.456-2.162,0.885-3.269,1.302l0.141-13.871C97.284,99.618,99.165,100.119,100.843,100.793z"/>
			</g>
		</g>
		<g>
			<path fill="#1E1240" d="M59.044,70.002c0,0,0.137-2.287-0.846-3.568c-0.983-1.281-3.376-1.281-5.29,0.396
				c-1.914,1.677-0.725,6.373-1.396,6.861c-0.671,0.488,0.191,1.248,1.152,1.571c1.767,0.593,5.738,0.351,7.631-1.791
				C61.471,72.141,59.044,70.002,59.044,70.002z"/>
			<g>
				<g>
					<path fill="#FF6161" d="M64.176,181.337c0.659,0.585,3.333,4.033,4.27,4.121c0.505,0.047,0.918-0.014,1.192-0.08
						c-0.598-0.463-1.26-1.56-1.865-2.756c-0.407-0.805-0.652-1.869-0.655-3.452l-2.925,0.154c-0.612,0.032-1.12,0.479-1.234,1.081
						c-0.044,0.234-0.087,0.439-0.117,0.525C63.211,180.92,63.769,180.975,64.176,181.337z"/>
					<path fill="#1E1240" d="M72.061,186.667c-0.35-0.325-0.976-0.707-2.085-1.093c-0.11-0.038-0.223-0.106-0.338-0.196
						c-0.274,0.066-0.687,0.127-1.192,0.08c-0.937-0.088-3.611-3.536-4.27-4.121c-0.407-0.361-0.965-0.416-1.334-0.406
						c-0.197,0.574-0.491,1.607-0.325,2.254c0.24,0.935,0.818,3.605,0.729,4.443l1.17-0.007l-0.015-2.434
						c0,0,0.889-0.099,1.36,0.413c0.177,0.192,0.348,0.522,0.492,0.86c0.3,0.701,1.002,1.144,1.764,1.139l3.679-0.023
						C72.173,187.573,72.409,186.99,72.061,186.667z"/>
				</g>
				<path fill="#FF6161" d="M70.926,111.431c0.21,0.751,2.666,20.569-3.578,69.813c-0.197,1.552-4.616-0.604-5.926-3.393
					c-3.524-7.499-6.052-23.511-2.472-37.936c1.924-7.751,0.62-16.973,1.144-20.64c0.466-3.254,1.862-9.608,3.542-12.756
					C64.808,104.323,69.789,107.372,70.926,111.431z"/>
				<path fill="#AD263D" d="M71.483,119.05c-2.329,2.828-7.057,9.191-7.087,14.278c-0.04,6.751,0.04,18.781,0,22.157
					c-0.04,3.375-2.411,5.699-1.554,11.425c1.554,10.386,4.417,15.035,4.506,14.335C71.493,148.554,71.804,128.835,71.483,119.05z"
					/>
			</g>
			<g>
				<g>
					<path fill="#FF6161" d="M50.275,181.552c0.659,0.585,3.333,4.033,4.27,4.121c0.505,0.047,0.918-0.014,1.192-0.08
						c-0.598-0.463-1.259-1.56-1.865-2.756c-0.407-0.805-0.652-1.869-0.655-3.451l-2.925,0.154c-0.612,0.032-1.12,0.479-1.234,1.081
						c-0.044,0.234-0.088,0.439-0.117,0.525C49.31,181.136,49.868,181.191,50.275,181.552z"/>
					<path fill="#1E1240" d="M58.16,186.882c-0.35-0.325-0.976-0.707-2.085-1.093c-0.11-0.038-0.223-0.106-0.338-0.196
						c-0.274,0.066-0.687,0.127-1.192,0.08c-0.937-0.088-3.611-3.536-4.27-4.121c-0.407-0.361-0.965-0.416-1.334-0.406
						c-0.197,0.574-0.491,1.607-0.325,2.254c0.24,0.935,0.818,3.605,0.729,4.443l1.17-0.007l-0.015-2.434
						c0,0,0.889-0.099,1.36,0.413c0.177,0.192,0.348,0.522,0.492,0.86c0.3,0.701,1.002,1.144,1.764,1.139l3.679-0.023
						C58.272,187.789,58.508,187.205,58.16,186.882z"/>
				</g>
				<path fill="#FF6161" d="M63.535,112.416c0.138,0.767,0.694,20.729-10.215,69.155c-0.344,1.526-4.538-1.041-5.576-3.942
					c-2.793-7.8-3.783-23.981,1.155-37.999c2.653-7.532,2.234-16.837,3.106-20.437c0.774-3.194,2.77-9.387,4.742-12.361
					C58.122,104.758,62.79,108.267,63.535,112.416z"/>
				<path fill="#AD263D" d="M63.363,120.053c-2.588,2.593-7.901,8.477-8.416,13.538c-0.683,6.716-1.75,18.7-2.112,22.056
					c-0.362,3.356-2.943,5.443-2.636,11.224c0.557,10.487,2.964,15.388,3.119,14.699C60.561,149.424,62.75,129.825,63.363,120.053z"
					/>
				<path fill="#311E69" d="M56.357,151.593c1.087-3.681-5.445-2.329-10.156-0.93c-0.275,1.828-0.471,3.646-0.598,5.435
					C48.869,156.168,55.132,155.742,56.357,151.593z"/>
			</g>
			<path fill="#FF8F8F" d="M62.742,78.14c4.601,3.285,10.691,11.774,12.817,11.77c3.013-0.005,18.342-6.831,19.599-3.611
				c1.353,3.464-12,10.698-18.793,11.951c-9.044,1.667-17.345-15.897-17.804-17.704C57.63,76.877,60.996,76.893,62.742,78.14z"/>
			<path fill="#311E69" d="M61.822,87.068c1.603,2.654,3.703,5.594,6.095,7.81c0.157-3.934-3.942-12.827-3.942-12.827L61.822,87.068
				z"/>
			<path fill="#FFCACA" d="M68.541,98.004c-0.934-1.837-1.805-3.652-2.372-5.173c-0.893-3.966-1.873-6.233-1.63-6.974
				c0.843-2.567,0.695-4.346,0.431-4.836c-0.223-0.413-0.921-1.083-0.921-1.083c-0.583-0.565-2.491-2.333-3.886-2.982
				c-4.84-2.254-9.722,0.495-10.018,2.046c-0.302,1.587,1.934,8.325,2.264,10.118c0.194,1.055,0.305,2.175,0.118,3.238
				c-0.105,0.376-1.087,2.17-2.368,4.429C52.764,97.476,60.721,99.283,68.541,98.004z"/>
			<path fill="#FF8F8F" d="M68.722,98.362c-1.002-1.958-1.95-3.911-2.553-5.531c-0.893-3.966-1.873-6.233-1.63-6.974
				c0.843-2.567,0.695-4.346,0.431-4.836c-0.223-0.413-0.921-1.083-0.921-1.083c-0.583-0.565-2.491-2.333-3.886-2.982
				c-1.068-0.497-2.139-0.751-3.161-0.827c1.557,1.337,4.413,3.864,5.078,4.972c0.926,1.543,0.864,3.98-1.635,4.381
				c-2.499,0.401-5.381-0.216-5.081,1.358c0.299,1.574,6.778,3.826,7.581,5.801c0.802,1.975,0.71,6.788,3.024,9.318
				c1.308,1.43,3.453,2.357,5.071,2.893C70.092,101.376,69.166,99.229,68.722,98.362z"/>
			<path fill="#614CD4" d="M68.722,98.362c-0.061-0.119-0.121-0.238-0.181-0.357c-7.82,1.278-15.777-0.528-18.381-1.218
				c-2.346,4.136-5.695,9.832-6.508,11.246c-1.524,2.649-2.413,5.652-2.356,8.722c0.066,3.578,3.167,24.97-3.621,36.041
				c9.588,1.904,16.35,2.978,22.832,1.995c7.629-1.158,10.921-3.913,11.721-4.145C76.921,118.029,70.187,101.225,68.722,98.362z"/>
			<path fill="#311E69" d="M72.227,150.645c4.693-32.616-2.04-49.42-3.505-52.283c-0.061-0.119-0.121-0.238-0.181-0.357
				c-2.473,0.404-4.959,0.499-7.286,0.419c0.346,2.178,0.821,4.661,1.472,7.361c2.345,9.718,0.123,15.765-2.962,26.256
				c-1.799,6.116-3.004,15.963-3.696,23.114c1.512-0.027,2.982-0.144,4.436-0.364C68.135,153.632,71.427,150.877,72.227,150.645z"/>
			<path fill="#311E69" d="M52.409,89.119c0.033,0.181,0.063,0.363,0.09,0.547c2.385-2.411,1.709-9.824,1.709-9.824l-3.179,4.103
				C51.595,86.065,52.243,88.218,52.409,89.119z"/>
			<path fill="#1E1240" d="M63.009,88.999H51.732c-0.405,0-0.813,0.328-0.912,0.733l-4.335,17.735
				c-0.099,0.405,0.149,0.733,0.554,0.733h11.278c0.405,0,0.813-0.328,0.912-0.733l4.335-17.735
				C63.662,89.327,63.414,88.999,63.009,88.999z"/>
			<path fill="#FFCACA" d="M54.209,82.169c-2.264,6.117-9.973,15.532-8.871,17.679c1.324,2.58,13.501,1.712,12.565,5.642
				c-0.883,3.71-17.931,4.866-20.559-2.678c-3.498-10.043,11.974-23.917,13.647-24.887C54.389,75.955,55.068,79.847,54.209,82.169z"
				/>
			<path fill="#FF6161" d="M55.812,72.144l0.761,3.053c0.164,0.669,3.041,2.455,1.235,3.525c-0.673,0.399-3.501-1.529-3.373-2.294
				l-0.028-3.685L55.812,72.144z"/>
			<path fill="#311E69" d="M56.252,73.908l0.321,1.289c0.005,0.021,0.013,0.043,0.023,0.065c-0.511-0.109-1.144-0.337-1.227-0.803
				C55.302,74.08,55.757,73.946,56.252,73.908z"/>
			<path fill="#FF8F8F" d="M45.338,99.848c-0.929-1.811,4.409-8.792,7.462-14.604c-3.141,2.521-9.848,7.972-10.61,9.169
				c-0.998,1.569-1.369,3.792,0.637,5.358c0.857,0.669,2.401,0.966,3.889,1.086C46.043,100.587,45.55,100.262,45.338,99.848z"/>
			<g>
				<path fill="#FF6161" d="M54.262,70.948c-0.475,1.321,0.136,2.839,1.448,3.341c1.21,0.463,2.559-0.026,3.049-1.574
					c0.435-1.376-0.331-2.783-0.57-3.489c-0.358-1.056-0.95-1.013-1.692,0.063C56.053,69.932,54.262,70.948,54.262,70.948z"/>
				<path fill="#FF6161" d="M54.348,71.109c-0.07-0.139-0.118-0.287-0.157-0.438c-0.075-0.286-0.252-0.694-0.622-0.375
					c-0.539,0.465-0.058,1.968,0.68,1.9C54.796,72.146,54.524,71.459,54.348,71.109z"/>
				<path fill="#FFFFFF" d="M57.072,71.851c0,0,0.644,0.057,1.53-0.219c0,0,0.018,0.453-0.24,0.671
					C58.05,72.567,57.427,72.554,57.072,71.851z"/>
				<g>
					<path fill="#AD263D" d="M55.969,73.76c0.512,0.115,1.467,0.087,1.904-0.155c0.387-0.214,0.814-0.828,0.906-0.965
						c-0.007,0.025-0.012,0.051-0.02,0.076c-0.489,1.548-1.838,2.037-3.049,1.574c-0.808-0.309-1.349-1.005-1.535-1.803
						C54.749,73.281,55.509,73.656,55.969,73.76z"/>
				</g>
			</g>
			<path fill="#FFFFFF" d="M54.43,75.856c0,0,2.417,2.014,2.82,1.805c0.384-0.2-0.11-1.726-0.11-1.726s0.945,0.369,1.26,0.824
				l0.901,2.018l-1.349-0.149l-1.087,0.777c0,0-2.747-1.743-2.747-2.329C54.119,76.488,54.43,75.856,54.43,75.856z"/>
			<path fill="#FF8F8F" d="M50.849,105.026c-4.258,0.736-3.024-0.481-6.726-1.975c-3.702-1.494-2.345-0.364-4.844-1.435
				c-1.143-0.49-1.904-1.77-2.394-3.016c-0.135,1.446-0.01,2.864,0.46,4.212c2.628,7.545,19.675,6.389,20.559,2.678
				c0.091-0.38,0.057-0.715-0.076-1.012C56.328,104.196,53.972,104.486,50.849,105.026z"/>
			<path fill="#AD263D" d="M93.863,87.329c0.752,0.882,2.961,0.247,4.553-0.868c1.591-1.115,1.408-2.895,0.399-2.195
				c-1.638,1.136-3.491,0.623-4.181,1.31C93.944,86.262,93.553,86.964,93.863,87.329z"/>
			<path fill="#AD263D" d="M93.536,85.809c0,0,0.822-1.84,1.932-1.953c1.109-0.113,1.222,0.189,1.8-0.14
				c0.578-0.329,0.583,0.496,0.178,0.708c-0.406,0.212-1.092,0.109-1.389,0.386c-0.298,0.277,0.197,2.413-1.089,2.773
				C93.68,87.942,93.39,86.396,93.536,85.809z"/>
			<path fill="#FF6161" d="M55.536,104.296c0.093-0.337,1.169-0.645,1.698-0.755c1.011-0.211,1.497-0.687,1.736-1.046
				c0.24-0.359,0.538,0.359,0.126,0.84c-0.412,0.48-1.414,0.966-0.863,1.031c0.551,0.065,2.499-2.424,2.473-1.17
				c-0.076,3.751-3.089,4.155-4.798,3.656C55.908,106.851,54.961,106.375,55.536,104.296z"/>
		</g>
		<g>
			<path fill="#EAE8FF" d="M115.057,75.836c0,0-5.32,3.221-15.979,19.337c-3.97,6.002-2.524,13.457,4.436,12.37
				C111.803,106.248,123.428,79.197,115.057,75.836z"/>
			<path fill="#1E1240" d="M120.807,186.78c-0.829-1.232-1.057-2.588-1.154-3.701l-4.119-0.014c0,0,0.276,1.414-0.422,2.516
				c-0.304,0.481-1.189,0.836-2.409,1.345c-1.932,0.984-4.317,2.253-4.402,2.911c-0.141,1.098,11.22,1.102,13.112,0.044
				C122.402,189.327,121.716,188.13,120.807,186.78z"/>
			<path fill="#311E69" d="M112.56,86.404c0,0-4.125,9.401-2.095,12.685c2.031,3.285,4.571,0.935,4.571,0.935L112.56,86.404z"/>
			<path fill="#1E1240" d="M147.565,186.78c-0.829-1.232-1.057-2.588-1.154-3.701l-4.119-0.014c0,0,0.276,1.414-0.422,2.516
				c-0.304,0.481-1.189,0.836-2.409,1.345c-1.932,0.984-4.317,2.253-4.402,2.911c-0.141,1.098,11.22,1.102,13.112,0.044
				C149.16,189.327,148.473,188.13,147.565,186.78z"/>
			<path fill="#1E1240" d="M138.692,149.832c0.28-3.936,4.638-19.38,3.039-28.657c-0.654-3.796-1.236-13.101-1.56-15.862
				c-0.037-0.318-0.061-0.633-0.072-0.947c-10.905,1.394-21.659-1.231-24.227-1.924c-0.378,2.078-1.195,4.071-2.424,5.835
				c-4.687,6.724-5.128,23.078-5.149,34.52c-0.048,25.598,4.601,40.814,7.061,41.565c2.07,0.632,1.962,0.963,4.542,0.486
				c7.044-1.304,1.869-30.7,1.461-34.509c-0.386-3.604,3.106-22.589,3.106-22.589c0.466,1.787,0.57,45.088,16.654,57.893
				c1.578,1.256,6.424,0.92,6.21-1.555C146.549,175.032,138.469,152.972,138.692,149.832z"/>
			<path fill="#FFFFFF" d="M142.825,121.851c-2.828-13.621,2.172-30.47,0.842-35.8c-1.718-6.883-5.593-15.435-22.344-12.913
				c-5.237,0.789-9.806,3.355-9.704,8.651c0.1,5.153,1.693,21.378-0.895,28.171c-2.145,5.632,9.527,11.918,17.056,12.482
				C135.695,123.036,143.068,123.022,142.825,121.851z"/>
			<g>
				<path fill="#EAE8FF" d="M143.666,86.052c-1.385-5.548-4.176-12.176-13.977-13.22c1.257,2.64,3.748,8.453,3.124,11.872
					c-0.825,4.526-7.929,27.155-5.298,35.619c0.242,0.779,0.466,1.482,0.681,2.15c7.755,0.562,14.866,0.528,14.627-0.622
					C139.997,108.23,144.997,91.381,143.666,86.052z"/>
			</g>
			<g>
				<path fill="#311E69" d="M122.96,63.965c0.678-0.842,2.398-2.662,5.755-0.335c2.201,1.525,0.467,7.597-0.874,8.262
					c-1.045,0.518-2.571-3.368-3.194-5.107c-0.873-0.075-1.596-0.228-1.781-0.521C122.324,65.402,122.501,64.535,122.96,63.965z"/>
				<g>
					<path fill="#FF6161" d="M127.721,68.672l1.598,5.55c-0.027,0.795-4.394,2.813-5.604,1.755c-0.354-0.31-0.219-1.066,0.161-1.876
						l2.248-4.402L127.721,68.672z"/>
					<path fill="#311E69" d="M125.672,70.583c0.373-0.05,0.803-0.11,1.175-0.163c0.459-0.065,0.818,0.4,0.628,0.822
						c-0.202,0.448-0.544,0.982-1.118,1.434c-0.67,0.527-1.435,0.761-2.153,0.781L125.672,70.583z"/>
					<path fill="#FF6161" d="M126.483,66.31l1.156,3.293c0.295,1.115-0.349,2.264-1.455,2.589c-0.884,0.259-1.46,0.273-2.601,0.159
						c-0.95-0.095-1.456-0.994-1.482-2.236c-0.034-1.612,0.393-3.106,0.666-3.893C123.389,64.428,125.572,64.218,126.483,66.31z"/>
					<path fill="#FFFFFF" d="M124.375,68.767c0,0-0.78,0.21-1.891,0.097c0,0-0.015,0.723,0.428,0.964
						C123.356,70.07,124.131,69.635,124.375,68.767z"/>
					<g>
						<path fill="#AD263D" d="M123.263,71.124c1.056-0.235,1.896,1.354,3.749-0.208c0.346-0.291,0.517-0.978,0.602-1.385
							l0.025,0.072c0.295,1.115-0.349,2.264-1.455,2.589c-0.884,0.259-1.46,0.273-2.601,0.159c-0.58-0.058-0.993-0.416-1.234-0.968
							C122.539,71.409,122.94,71.195,123.263,71.124z"/>
					</g>
					<path fill="#311E69" d="M125.511,65.305c0,0,0.84,1.214,0.777,1.88c-0.063,0.666-0.146,0.947,0.077,1.121
						c0.222,0.174,0.851-0.345,0.822-1.033C127.157,66.586,126.839,64.874,125.511,65.305z"/>
					<path fill="#FF6161" d="M126.745,67.856c0.1-0.192,0.169-0.397,0.226-0.605c0.108-0.397,0.361-0.961,0.87-0.511
						c0.741,0.655,0.048,2.736-0.976,2.629C126.106,69.29,126.495,68.339,126.745,67.856z"/>
				</g>
				<path fill="#311E69" d="M123.233,65.032c0,0,2.832,2.45,3.208,2.389c0.376-0.061,0.602-1.774-0.117-2.392
					C125.605,64.411,123.004,63.719,123.233,65.032z"/>
			</g>
			<path fill="#311E69" d="M141.735,94.755c0,0-4.656,6.956-12.81,9.238c-4.249,1.189-10.926-3.527-16.823-2.608
				c-0.137,2.824-0.443,5.434-1.018,7.466c2.865,1.411,15.053,7.005,22.079,3.751C141.163,108.898,141.735,94.755,141.735,94.755z"
				/>
			<path fill="#EAE8FF" d="M98.146,99.867c2.946-3.435,25.954-3.549,28.691-0.056c2.737,3.493-9.57,7.851-21.032,8.681
				C96.44,109.169,96.108,102.244,98.146,99.867z"/>
			<path fill="#FFFFFF" d="M136.156,76.35c-2.757-0.543-5.909,7.578-5.568,15.606c0.341,8.028-0.699,9.722-5.099,8.767
				c-2.74-0.595-19.412-6.867-20.876-2.975c-1.191,3.166,18.149,22.763,32.889,8.975C145.963,98.806,143.359,77.769,136.156,76.35z"
				/>
			<path fill="#FF6161" d="M108.672,96.514c0,0-2.292-0.923-4.43-0.054c-2.138,0.869-2.228,0.983-1.46,1.298
				c0.768,0.315,2.513,1.55,4.747,1.298C109.763,98.803,108.672,96.514,108.672,96.514z"/>
			<path fill="#EAE8FF" d="M141.563,83.024c-1.682,3.866-2.658,11.293-3.474,12.933c-1.314,2.64-1.619,7.679-3.011,10.219
				c-1.392,2.54-4.985,2.23-8.181,1.029c-3.196-1.201-6.688-1.3-10.423-0.887c-3.735,0.413-5.941-3.883-8.303-5.427
				c-1.465-0.957-2.331-0.924-2.779-0.761c3.763,5.935,19.594,18.298,32.11,6.59C143.161,101.427,143.87,90.263,141.563,83.024z"/>
			<path fill="#AD263D" d="M125.574,98.927c0,0,2.737-0.606,3.619-0.139c0.882,0.467,2.306,2.326,1.904,2.331
				c-0.402,0.005-1.408-0.945-1.408-0.945s0.742,1.505,0.73,2.178c-0.012,0.672-1.154,0.744-1.682,0.505
				c-0.528-0.238-4.193-1.726-4.774-2.563C123.383,99.457,125.574,98.927,125.574,98.927z"/>
		</g>
	</g>
</g>
</svg>
