<svg version="1.1"  xmlns="http://www.w3.org/2000/svg" xmlns:xlink="http://www.w3.org/1999/xlink" x="0px" y="0px" viewBox="0 0 18.749 16.94" enable-background="new 0 0 18.749 16.94" xml:space="preserve">
	<path d="M0.071,8.118c-0.02,0.054-0.026,0.108-0.036,0.164C0.024,8.335,0.008,8.386,0.006,8.44C0.006,8.451,0,8.459,0,8.47 s0.006,0.019,0.006,0.029c0.002,0.055,0.018,0.105,0.029,0.159c0.011,0.056,0.016,0.11,0.036,0.164 C0.078,8.841,0.083,8.86,0.092,8.878c0.022,0.049,0.06,0.089,0.091,0.135C0.208,9.052,0.22,9.097,0.251,9.133 c0.007,0.008,0.017,0.011,0.024,0.018C0.29,9.166,0.304,9.18,0.319,9.194c0.008,0.007,0.01,0.017,0.018,0.024l8.433,7.471 c0.414,0.366,1.045,0.328,1.412-0.085c0.366-0.414,0.328-1.045-0.085-1.412L3.637,9.47h14.112c0.552,0,1-0.448,1-1s-0.448-1-1-1 H3.637l6.459-5.721c0.414-0.366,0.452-0.999,0.085-1.412C9.984,0.114,9.709,0,9.433,0C9.197,0,8.96,0.083,8.77,0.251l-8.433,7.47 C0.329,7.728,0.326,7.738,0.319,7.745C0.303,7.76,0.289,7.774,0.275,7.79C0.268,7.797,0.258,7.799,0.251,7.807 C0.22,7.843,0.208,7.887,0.182,7.926c-0.03,0.046-0.069,0.086-0.091,0.135C0.083,8.08,0.078,8.099,0.071,8.118z"/>
</svg>