<svg version="1.1"  xmlns="http://www.w3.org/2000/svg" xmlns:xlink="http://www.w3.org/1999/xlink" x="0px" y="0px" width="18.749px" height="16.94px" viewBox="0 0 18.749 16.94" enable-background="new 0 0 18.749 16.94" xml:space="preserve">
	<path d="M18.677,8.823c0.02-0.054,0.026-0.108,0.036-0.164c0.01-0.054,0.027-0.104,0.029-0.159c0-0.01,0.006-0.019,0.006-0.029 s-0.006-0.019-0.006-0.029c-0.002-0.055-0.018-0.105-0.029-0.159c-0.011-0.056-0.016-0.11-0.036-0.164 c-0.007-0.019-0.012-0.038-0.021-0.056c-0.022-0.049-0.06-0.089-0.091-0.135c-0.026-0.039-0.037-0.083-0.069-0.119 C18.49,7.8,18.48,7.797,18.473,7.789c-0.014-0.015-0.028-0.029-0.043-0.043c-0.008-0.007-0.01-0.017-0.018-0.024L9.979,0.251 C9.565-0.114,8.934-0.077,8.567,0.337C8.201,0.75,8.239,1.382,8.652,1.748l6.459,5.722H1c-0.552,0-1,0.448-1,1s0.448,1,1,1h14.111 l-6.459,5.721c-0.414,0.366-0.452,0.999-0.085,1.412c0.198,0.223,0.473,0.337,0.749,0.337c0.235,0,0.472-0.083,0.663-0.251 l8.433-7.47c0.008-0.007,0.011-0.017,0.018-0.024c0.016-0.015,0.03-0.029,0.044-0.044c0.007-0.007,0.017-0.009,0.023-0.017 c0.032-0.036,0.044-0.081,0.069-0.119c0.03-0.046,0.069-0.086,0.091-0.135C18.665,8.861,18.67,8.842,18.677,8.823z"/>
</svg>
