<svg version="1.1"  xmlns="http://www.w3.org/2000/svg" xmlns:xlink="http://www.w3.org/1999/xlink" x="0px" y="0px" width="25.557px" height="22.893px" viewBox="0 0 25.557 22.893" enable-background="new 0 0 25.557 22.893" xml:space="preserve">
	<g>
		<g>
			<path  d="M18.837,2.582L18.837,2.582c-0.367,0-0.664,0.297-0.664,0.663c0,0.366,0.297,0.663,0.663,0.663v0 c1.55,0,2.812,1.262,2.812,2.812h0l0,0c0,0.366,0.297,0.663,0.663,0.663s0.663-0.297,0.663-0.663 c0-0.001-0.001-0.002-0.001-0.002C22.972,4.437,21.118,2.583,18.837,2.582z"/>
		</g>
		<g>
			<path  d="M18.836,0c-1.119,0-2.209,0.291-3.21,0.848c-0.126,0.061-0.246,0.129-0.463,0.258L15.018,1.2 c-0.717,0.461-1.299,1.045-1.746,1.758l-0.074,0.124c-0.155,0.241-0.295,0.489-0.418,0.744c-0.11-0.224-0.232-0.439-0.367-0.643 l-0.144-0.246c-0.43-0.691-1.012-1.275-1.707-1.723l-0.265-0.169c-0.12-0.069-0.241-0.137-0.334-0.181 C8.93,0.291,7.839,0,6.721,0C3.015,0,0,3.015,0,6.72v0.359c0,7.292,11.39,15.813,12.779,15.813s12.779-8.521,12.779-15.813V6.72 C25.557,3.015,22.542,0,18.836,0z M24.231,7.079c0,6.277-9.801,13.815-11.453,14.466C11.126,20.894,1.326,13.357,1.326,7.079 V6.72c0-2.975,2.42-5.394,5.395-5.394c0.891,0,1.765,0.235,2.631,0.715C9.45,2.088,9.544,2.142,9.691,2.23l0.131,0.085 c0.551,0.355,0.995,0.799,1.355,1.363l0.069,0.124c0.569,0.88,0.869,1.889,0.869,2.918h0l0,0c0,0.366,0.297,0.663,0.663,0.663 c0.366,0,0.663-0.297,0.663-0.663l0,0c0-1.029,0.3-2.038,0.869-2.918l0.104-0.164c0.325-0.524,0.77-0.968,1.321-1.323 l0.184-0.118c0.095-0.054,0.188-0.108,0.318-0.173c0.834-0.463,1.708-0.698,2.599-0.698c2.975,0,5.395,2.42,5.395,5.394V7.079z"/>
		</g>
	</g>
</svg>
