<?xml version="1.0" encoding="utf-8"?>
<!-- Generator: Adobe Illustrator 17.0.0, SVG Export Plug-In . SVG Version: 6.00 Build 0)  -->
<!DOCTYPE svg PUBLIC "-//W3C//DTD SVG 1.1//EN" "http://www.w3.org/Graphics/SVG/1.1/DTD/svg11.dtd">
<svg version="1.1" id="Слой_1" xmlns="http://www.w3.org/2000/svg" xmlns:xlink="http://www.w3.org/1999/xlink" x="0px" y="0px"
	 width="98.131px" height="97.619px" viewBox="0 0 98.131 97.619" enable-background="new 0 0 98.131 97.619" xml:space="preserve">
<g>
	<g>
		<polygon fill="#FF9797" points="79.91,81.685 47.725,81.685 47.725,49.019 63.817,36.392 79.91,49.019 		"/>
		<rect x="0" y="49.019" fill="#F58787" width="47.725" height="32.666"/>
		<polygon fill="#311E69" points="48.224,49.874 63.817,37.638 63.817,36.392 14.805,37.247 0,49.019 0,49.874 		"/>
		<polygon fill="#614CD4" points="47.725,49.019 63.817,36.392 14.307,36.392 0,49.019 		"/>
		<polygon fill="#311E69" points="63.817,37.638 79.91,50.194 79.91,49.019 63.817,36.392 		"/>
		<path fill="#AD263D" d="M64.862,56.282c-2.786,0-5.044,2.258-5.044,5.044v20.359h10.087V61.326
			C69.905,58.54,67.647,56.282,64.862,56.282z"/>
		<path fill="#7A2A2A" d="M64.862,56.282L64.862,56.282c-0.325,0-0.642,0.034-0.949,0.092c2.331,0.444,4.094,2.491,4.094,4.951
			v20.359h1.899V61.326C69.905,58.54,67.647,56.282,64.862,56.282z"/>
		<g>
			<rect x="71.864" y="55.831" fill="#D95F76" width="6.408" height="14.383"/>
			<rect x="77.121" y="55.831" fill="#AF3F5A" width="1.151" height="14.383"/>
		</g>
		<g>
			<rect x="50.977" y="55.831" fill="#D95F76" width="6.408" height="14.383"/>
			<rect x="56.234" y="55.831" fill="#AF3F5A" width="1.151" height="14.383"/>
		</g>
		<circle fill="#D95F76" cx="64.862" cy="50.194" r="3.37"/>
		<path fill="#AF3F5A" d="M64.862,46.824c-0.178,0-0.352,0.018-0.522,0.044c1.613,0.252,2.848,1.643,2.848,3.326
			s-1.235,3.074-2.848,3.326c0.171,0.027,0.344,0.044,0.522,0.044c1.861,0,3.37-1.509,3.37-3.37
			C68.232,48.333,66.723,46.824,64.862,46.824z"/>
		<path fill="#F58787" d="M75.443,50.194h-2.941c-0.351,0-0.639,0.287-0.639,0.639v0.765c0,0.351,0.288,0.639,0.639,0.639h2.941
			c0.351,0,0.639-0.288,0.639-0.639v-0.765C76.082,50.482,75.794,50.194,75.443,50.194z"/>
		<path fill="#F58787" d="M72.184,52.815h-2.941c-0.351,0-0.639,0.288-0.639,0.639v0.765c0,0.351,0.288,0.639,0.639,0.639h2.941
			c0.351,0,0.639-0.287,0.639-0.639v-0.765C72.823,53.102,72.535,52.815,72.184,52.815z"/>
		<path fill="#F58787" d="M51.823,79.642h-2.941c-0.351,0-0.639,0.288-0.639,0.639v0.765c0,0.351,0.287,0.639,0.639,0.639h2.941
			c0.351,0,0.639-0.287,0.639-0.639v-0.765C52.462,79.93,52.174,79.642,51.823,79.642z"/>
		<path fill="#F58787" d="M57.99,78.711h-4.281c-0.512,0-0.93,0.419-0.93,0.93v1.114c0,0.512,0.418,0.93,0.93,0.93h4.281
			c0.512,0,0.93-0.418,0.93-0.93v-1.114C58.92,79.13,58.501,78.711,57.99,78.711z"/>
		<path fill="#F58787" d="M53.709,75.836h-3.535c-0.422,0-0.768,0.346-0.768,0.768v0.92c0,0.422,0.346,0.768,0.768,0.768h3.535
			c0.422,0,0.768-0.346,0.768-0.768v-0.92C54.478,76.181,54.132,75.836,53.709,75.836z"/>
		<path fill="#F58787" d="M75.74,79.229h-3.535c-0.422,0-0.768,0.346-0.768,0.768v0.92c0,0.422,0.346,0.768,0.768,0.768h3.535
			c0.422,0,0.768-0.346,0.768-0.768v-0.92C76.508,79.575,76.163,79.229,75.74,79.229z"/>
		<path fill="#F58787" d="M76.527,76.973h-2.733c-0.327,0-0.594,0.267-0.594,0.594v0.711c0,0.327,0.267,0.594,0.594,0.594h2.733
			c0.326,0,0.594-0.267,0.594-0.594v-0.711C77.121,77.24,76.854,76.973,76.527,76.973z"/>
		<path fill="#F58787" d="M73.671,73.937h-2.733c-0.327,0-0.594,0.267-0.594,0.594v0.711c0,0.327,0.267,0.594,0.594,0.594h2.733
			c0.327,0,0.594-0.267,0.594-0.594v-0.711C74.265,74.204,73.998,73.937,73.671,73.937z"/>
		<path fill="#F58787" d="M76.789,72.039h-2.002c-0.239,0-0.435,0.196-0.435,0.435v0.521c0,0.239,0.196,0.435,0.435,0.435h2.002
			c0.239,0,0.435-0.196,0.435-0.435v-0.521C77.224,72.235,77.029,72.039,76.789,72.039z"/>
		<path fill="#F58787" d="M54.732,73.594h-1.768c-0.211,0-0.384,0.173-0.384,0.384v0.46c0,0.211,0.173,0.384,0.384,0.384h1.768
			c0.211,0,0.384-0.173,0.384-0.384v-0.46C55.116,73.767,54.944,73.594,54.732,73.594z"/>
	</g>
	<g>
		<g>
			<path fill="#C98624" d="M80.114,83.247l-15.951-0.024l-0.111,3.316h0.006c0,0.727,3.618,1.317,8.08,1.317
				c4.463,0,8.08-0.59,8.08-1.317L80.114,83.247z"/>
			<g>
				<path fill="#AA6F22" d="M80.219,86.539l-0.105-3.292l-7.952-0.012c0.602,0.956,1.637,1.583,1.201,2.305
					c-0.326,0.538-0.583,1.485-0.613,2.313C76.927,87.801,80.219,87.233,80.219,86.539z"/>
			</g>
			<ellipse fill="#F7C263" cx="72.139" cy="83.223" rx="7.975" ry="1.317"/>
		</g>
		<g>
			<path fill="#C98624" d="M80.114,79.119l-15.951-0.024l-0.111,3.316h0.006c0,0.727,3.618,1.317,8.08,1.317
				c4.463,0,8.08-0.59,8.08-1.317L80.114,79.119z"/>
			<g>
				<path fill="#AA6F22" d="M80.219,82.411l-0.105-3.292l-7.952-0.012c0.602,0.956,1.637,1.583,1.201,2.305
					c-0.326,0.538-0.583,1.485-0.613,2.313C76.927,83.674,80.219,83.105,80.219,82.411z"/>
			</g>
			<ellipse fill="#F7C263" cx="72.139" cy="79.095" rx="7.975" ry="1.317"/>
		</g>
		<g>
			<path fill="#C98624" d="M80.114,74.839l-15.951-0.024l-0.111,3.316h0.006c0,0.727,3.618,1.317,8.08,1.317
				c4.463,0,8.08-0.59,8.08-1.317L80.114,74.839z"/>
			<g>
				<path fill="#AA6F22" d="M80.219,78.131l-0.105-3.292l-7.952-0.012c0.602,0.956,1.637,1.583,1.201,2.305
					c-0.326,0.538-0.583,1.485-0.613,2.313C76.927,79.393,80.219,78.825,80.219,78.131z"/>
			</g>
			<ellipse fill="#F7C263" cx="72.139" cy="74.815" rx="7.975" ry="1.317"/>
		</g>
		<g>
			<g>
				<path fill="#C98624" d="M83.409,71.132l-15.951-0.024l-0.111,3.316h0.006c0,0.727,3.618,1.317,8.08,1.317
					c4.463,0,8.08-0.59,8.08-1.317L83.409,71.132z"/>
				<g>
					<path fill="#AA6F22" d="M83.514,74.424l-0.105-3.292l-7.952-0.012c0.602,0.956,1.637,1.583,1.201,2.305
						c-0.326,0.538-0.583,1.485-0.613,2.313C80.222,75.687,83.514,75.118,83.514,74.424z"/>
				</g>
				<ellipse fill="#F7C263" cx="75.433" cy="71.108" rx="7.975" ry="1.317"/>
			</g>
			<path fill="#FFDBA1" d="M69.8,71.388c-0.422-0.095-0.423-0.696-0.001-0.789c0.843-0.187,2.005-0.393,3.236-0.453
				c2.412-0.118,3.135-0.177,3.156,0.206c0.021,0.382-4.774,0.794-5.421,1.059C70.535,71.507,70.171,71.472,69.8,71.388z"/>
		</g>
		<g>
			<g>
				<path fill="#C98624" d="M67.892,86.537l-15.951-0.024L51.83,89.83h0.006c0,0.727,3.618,1.317,8.08,1.317
					c4.463,0,8.08-0.59,8.08-1.317L67.892,86.537z"/>
				<g>
					<path fill="#AA6F22" d="M67.997,89.83l-0.105-3.292l-7.952-0.012c0.602,0.956,1.637,1.584,1.201,2.305
						c-0.326,0.538-0.583,1.485-0.613,2.313C64.705,91.092,67.997,90.524,67.997,89.83z"/>
				</g>
				<ellipse fill="#F7C263" cx="59.917" cy="86.513" rx="7.975" ry="1.317"/>
			</g>
			<path fill="#FFDBA1" d="M54.283,86.794c-0.422-0.095-0.423-0.696-0.001-0.789c0.843-0.187,2.005-0.392,3.236-0.453
				c2.412-0.118,3.135-0.176,3.156,0.206c0.021,0.382-4.774,0.794-5.421,1.059C55.019,86.913,54.654,86.878,54.283,86.794z"/>
		</g>
		<g>
			<g>
				<path fill="#C98624" d="M98.026,90.514L82.075,90.49l-0.111,3.316h0.006c0,0.727,3.618,1.317,8.08,1.317
					c4.463,0,8.08-0.59,8.08-1.317L98.026,90.514z"/>
				<g>
					<path fill="#AA6F22" d="M98.131,93.807l-0.105-3.292l-7.952-0.012c0.602,0.956,1.637,1.583,1.201,2.305
						c-0.326,0.538-0.583,1.485-0.613,2.313C94.839,95.069,98.131,94.5,98.131,93.807z"/>
				</g>
				<ellipse fill="#F7C263" cx="90.05" cy="90.49" rx="7.975" ry="1.317"/>
			</g>
			<path fill="#FFDBA1" d="M84.417,90.771c-0.422-0.095-0.423-0.696-0.001-0.789c0.843-0.187,2.005-0.393,3.236-0.453
				c2.412-0.118,3.135-0.176,3.156,0.206c0.021,0.382-4.774,0.794-5.421,1.059C85.152,90.889,84.788,90.854,84.417,90.771z"/>
		</g>
	</g>
	<g>
		<path fill="#AD263D" d="M30.585,44.342c1.888-0.281,3.815-3.548,5.417-5.379c1.602-1.831-5.2-7.34-7.426-6.474
			C26.35,33.356,28.834,44.603,30.585,44.342z"/>
		<path fill="#311E69" d="M24.561,25.319c0,0,0.983-1.009,1.98-0.74c1.26,0.34,0.726,1.435,1.26,1.516
			c0.826,0.125,0.05,1.113,0.05,1.113s-0.485,3.015-2.107,3.29c-1.621,0.275-2.747-0.547-3.073-1.843
			C22.672,28.654,20.82,25.068,24.561,25.319z"/>
		<path fill="#FF6161" d="M16.192,70.96c1.009-0.309-0.196-14.927-0.181-16.211c0.048-4.189,2.909-6.75,4.337-8.487
			c0.108-0.131,0.215-0.258,0.322-0.382c0.692-0.806,1.348-1.479,1.814-2.154c0.305-0.441,0.529-0.884,0.626-1.365
			c0.573-2.836-6.08-4.483-3.178-7.992c1.25-1.512,3.449-2.693,6.975-2.692c0.683,0,1.531,0.073,2.102,0.818
			c1.186,1.546,0.223,5.28,1.255,8.867c0.403,1.402,0.859,3.086,1.325,4.865c1.653,6.307,3.017,6.654,3.443,14.01
			c0.549,9.472-2.659,21.966-10.701,33.808c-0.427,0.629-2.247,0-2.247,0c-0.043-0.983,1.654-15.018,4.712-19.994
			c1.115-1.814,0.03-17.079-0.425-17.025c-0.325,0.038,2.104,23.379-20.56,24.584L5.17,79.682
			C5.17,79.682,10.125,72.82,16.192,70.96z"/>
		<path fill="#AD263D" d="M29.87,75.211c-0.125,1.482-4.861,14.784-4.935,16.589c-0.015,0.374,0.078,0.697,0.236,0.977
			c6.144-9.485,9.233-19.299,9.816-27.579C32.9,68.893,29.951,74.256,29.87,75.211z"/>
		<path fill="#AD263D" d="M7.054,81.517c10.995-1.02,15.704-7.485,17.728-13.517c-0.395-0.736-0.935-1.269-1.628-1.454
			c-2.852-0.763-2.641,5.913-3.97,7.062c-1.329,1.149-5.881,3.734-8.78,4.879C8.193,79.358,7.337,80.854,7.054,81.517z"/>
		<path fill="#311E69" d="M17.393,71.627c-1.002-2.314,3.895-0.608,5.762,0.111c-0.483,0.876-1.04,1.735-1.682,2.558
			C20.423,74.196,18.303,73.728,17.393,71.627z"/>
		<path fill="#311E69" d="M33.875,72.565c-0.221,0.973-0.473,1.957-0.758,2.951c-1.1,0.082-3.808,0.103-5.16-1.49
			C26.605,72.432,31.652,72.474,33.875,72.565z"/>
		<path fill="#FF8F8F" d="M16.011,54.749c0.048-4.189,2.307-6.57,3.405-8.534c0.979-1.751-2.385-8.338,0.517-11.847
			c1.25-1.512,3.449-2.693,6.975-2.692c0.683,0,1.531,0.073,2.102,0.818c0.804,1.048,1.855,2.276,1.975,4.609
			c0.057,1.107-1.052,3.104-0.72,4.258c0.403,1.402,4.265,9.918,5.83,18.96c0.702,4.056,0.784,9.134-0.48,14.08
			c-1.225-0.036-3.404,0.767-6.219,0c-2.94-0.801-3.288-0.742-3.87-0.878c-1.976-0.465-3.164,0.248-4.573,0
			c-2.312-0.406-2.286-1.976-5.346-2.368C15.801,71.086,15.996,56.033,16.011,54.749z"/>
		<path fill="#FF6161" d="M23.902,29.532l0.032,3.012c0.007,0.496,1.257,1.742,2.025,1.096c0.225-0.189-0.092-0.863-0.319-1.373
			l-0.649-2.573L23.902,29.532z"/>
		<path fill="#311E69" d="M25.376,31.222c-1.088-0.25-1.311-1.199-1.311-1.199l1.018,0.037L25.376,31.222z"/>
		<path fill="#FF6161" d="M23.909,27.721l-0.154,1.16c-0.122,0.92,0.484,1.815,1.401,1.957c0.847,0.131,1.65-0.374,1.75-1.442
			c0.089-0.95-0.602-1.751-0.855-2.174C25.474,26.258,24.184,26.4,23.909,27.721z"/>
		<path fill="#FF6161" d="M23.967,28.831c-0.04-0.095-0.065-0.195-0.084-0.296c-0.036-0.192-0.134-0.469-0.393-0.276
			c-0.377,0.282-0.129,1.295,0.361,1.284C24.215,29.536,24.067,29.071,23.967,28.831z"/>
		<path fill="#FF6161" d="M26.388,28.42c0.012-0.102,0.009-0.205,0-0.307c-0.018-0.195,0.001-0.488,0.303-0.372
			c0.439,0.168,0.476,1.211,0.002,1.334C26.341,29.166,26.356,28.678,26.388,28.42z"/>
		<path fill="#FFFFFF" d="M25.326,29.227c0,0,0.477,0.028,1.107-0.172c0,0-0.073,0.491-0.301,0.684
			C25.905,29.933,25.572,29.7,25.326,29.227z"/>
		<g>
			<path fill="#D95F76" d="M36.094,60.322c-1.565-9.042-5.426-17.558-5.83-18.96c-0.332-1.154,0.777-3.151,0.72-4.258
				c-0.12-2.333-1.171-3.561-1.975-4.609c-0.571-0.744-1.419-0.818-2.102-0.818c-0.243,0-0.478,0.007-0.709,0.018
				c0.613,1.098,1.274,2.438,1.495,3.454c0.449,2.06-0.62,14.424,1.059,17.817c1.679,3.393,3.031,17.385,2.05,21.071
				c-0.055,0.205-0.11,0.409-0.165,0.612c2.214,0.291,3.939-0.277,4.976-0.247C36.879,69.456,36.796,64.378,36.094,60.322z"/>
		</g>
		<path fill="#311E69" d="M22.8,42.965l9.102,2.704c0.379,1.008,0.795,2.154,1.221,3.403C31.384,49.26,25.049,49.472,22.8,42.965z"
			/>
		<path fill="#AD263D" d="M25.249,30.459c0.347,0.003,0.96-0.149,1.208-0.366c0.22-0.192,0.41-0.649,0.45-0.75
			c-0.001,0.017-0.001,0.035-0.002,0.052c-0.1,1.068-0.903,1.573-1.75,1.442c-0.565-0.087-1.012-0.461-1.243-0.95
			C24.394,30.321,24.937,30.457,25.249,30.459z"/>
		<g>
			<path fill="#FFFFFF" d="M24.008,28.398L24.008,28.398c-0.039-0.391,0.38-0.433,0.716-0.467c0.336-0.034,0.756-0.076,0.795,0.315
				c0.034,0.342-0.277,0.654-0.693,0.696c-0.031,0.003-0.062,0.005-0.093,0.005C24.356,28.947,24.04,28.714,24.008,28.398z
				 M24.74,28.085c-0.424,0.043-0.598,0.093-0.578,0.297c0.026,0.257,0.316,0.437,0.648,0.405c0.332-0.033,0.58-0.269,0.555-0.526
				c-0.015-0.147-0.112-0.196-0.324-0.196C24.958,28.066,24.859,28.073,24.74,28.085z"/>
		</g>
		<g>
			<path fill="#F7C263" d="M55.512,0C45.176,5.906,27.949,3.882,27.949,3.882v22.021c0,15.47,10.21,29.084,25.062,33.416l2.501,0.73
				l2.501-0.73c14.851-4.332,25.062-17.945,25.062-33.416V3.882C83.075,3.882,65.848,5.906,55.512,0z"/>
			<g>
				<path fill="#C98624" d="M62.053,2.593c1.017,4.53,3.426,17.658-0.389,26.692c-2.872,6.803-13.29,16.855-20.9,23.598
					c3.533,2.882,7.669,5.1,12.246,6.435l2.501,0.73l2.501-0.73c14.851-4.332,25.062-17.945,25.062-33.416V3.882
					C83.075,3.882,71.825,5.203,62.053,2.593z"/>
			</g>
			<g>
				<path fill="#311E69" d="M36.889,28.363V13.074c0.174,0.001,0.35,0.002,0.528,0.002c5.874,0,13.859-0.651,20.636-3.501
					c6.032,2.537,13.017,3.329,18.623,3.473v-2.435c-0.174,0.001-0.35,0.002-0.528,0.002c-5.874,0-13.859-0.651-20.636-3.501
					c-6.777,2.85-14.762,3.501-20.636,3.501c-0.178,0-0.355-0.001-0.528-0.002v15.289c0,6.195,1.965,12.089,5.682,17.046
					c1.278,1.704,2.725,3.236,4.309,4.589c-0.618-0.678-1.21-1.385-1.768-2.128C38.854,40.453,36.889,34.559,36.889,28.363z"/>
			</g>
			<g>
				<path fill="#F7C263" d="M76.148,4.217c-5.947,0-14.504-0.713-20.636-4.217v7.114c6.777,2.85,14.762,3.501,20.636,3.501
					c0.178,0,0.354-0.001,0.528-0.002v15.289c0,6.195-1.965,12.089-5.682,17.046s-8.826,8.493-14.773,10.227l-0.71,0.207h0v6.665
					l2.501-0.73c14.851-4.332,25.062-17.945,25.062-33.416V3.882C83.075,3.882,80.225,4.217,76.148,4.217z"/>
				<path fill="#FFE0AE" d="M54.802,53.176c-5.947-1.735-11.056-5.271-14.773-10.227c-3.717-4.956-5.682-10.85-5.682-17.046V10.613
					c0.174,0.001,0.35,0.002,0.528,0.002c5.874,0,13.859-0.651,20.636-3.501V0c-6.131,3.504-14.689,4.217-20.636,4.217
					c-4.078,0-6.927-0.335-6.927-0.335v22.021c0,15.47,10.21,29.084,25.062,33.416l2.501,0.73v-6.665L54.802,53.176z"/>
			</g>
			<path fill="#FFE0AE" d="M44.17,43.067c0,0-5.595-11.461-5.531-23.86c0.01-1.967,1.504-3.608,3.459-3.826
				c4.562-0.508,12.377-1.498,13.414-2.42c1.477-1.313-2.297,8.203-5.496,11.32C46.816,27.399,44.17,43.067,44.17,43.067z"/>
		</g>
		<g>
			<path fill="#FFFFFF" d="M26.039,28.551c-0.151-0.082-0.257-0.216-0.3-0.378l0,0c-0.044-0.165-0.003-0.295,0.122-0.387
				c0.102-0.075,0.246-0.117,0.409-0.161c0.164-0.043,0.311-0.078,0.435-0.064c0.154,0.018,0.255,0.111,0.299,0.275
				c0.043,0.162,0.017,0.331-0.073,0.477c-0.089,0.145-0.231,0.249-0.399,0.294c-0.059,0.016-0.118,0.023-0.177,0.023
				C26.244,28.631,26.136,28.604,26.039,28.551z M26.31,27.775c-0.143,0.038-0.277,0.077-0.357,0.136
				c-0.054,0.04-0.099,0.094-0.065,0.223v0c0.032,0.12,0.112,0.22,0.224,0.281c0.115,0.062,0.249,0.077,0.378,0.043
				c0.13-0.035,0.239-0.114,0.307-0.225c0.067-0.109,0.087-0.236,0.055-0.356c-0.034-0.128-0.101-0.153-0.167-0.161
				c-0.014-0.002-0.028-0.002-0.043-0.002C26.551,27.714,26.433,27.743,26.31,27.775z"/>
		</g>
		<g>
			<path fill="#FFFFFF" d="M25.479,28.226c0.15-0.15,0.279-0.068,0.28-0.067l0.086-0.129c-0.081-0.054-0.284-0.105-0.476,0.086
				L25.479,28.226z"/>
		</g>
		<g>
			<path fill="#FF6161" d="M22.948,93.654c0.413,0.372,2.087,2.558,2.678,2.617c0.319,0.032,0.579-0.005,0.752-0.046
				c-0.376-0.295-0.789-0.989-1.166-1.746c-0.254-0.51-0.532-1.181-0.527-2.18l-2.477,0.829c0,0-0.044,0.104-0.1,0.265
				C22.341,93.387,22.693,93.424,22.948,93.654z"/>
			<path fill="#311E69" d="M27.902,97.047c-0.22-0.206-0.613-0.45-1.311-0.698c-0.069-0.024-0.14-0.068-0.213-0.125
				c-0.173,0.041-0.434,0.078-0.752,0.046c-0.591-0.059-2.265-2.245-2.678-2.617c-0.255-0.229-0.607-0.266-0.84-0.261
				c-0.126,0.362-0.316,1.012-0.214,1.421c0.148,0.591,0.502,2.277,0.443,2.806h0.738v-1.89c0,0,0.561,0.295,0.857,0.62
				c0.111,0.122,0.217,0.331,0.307,0.545c0.187,0.443,0.628,0.725,1.108,0.725h2.321C27.969,97.619,28.12,97.252,27.902,97.047z"/>
		</g>
		<g>
			<path fill="#FF6161" d="M5.296,80.24c-0.209,0.515-1.693,2.834-1.547,3.41c0.079,0.31,0.202,0.543,0.3,0.692
				c0.149-0.454,0.661-1.079,1.244-1.691c0.392-0.412,0.93-0.903,1.87-1.239l-1.624-2.046c0,0-0.113-0.006-0.283-0.004
				C5.339,79.578,5.424,79.922,5.296,80.24z"/>
			<path fill="#311E69" d="M3.795,86.054c0.119-0.277,0.214-0.73,0.209-1.47c-0.001-0.073,0.016-0.155,0.045-0.242
				c-0.097-0.149-0.221-0.381-0.3-0.692c-0.146-0.576,1.339-2.894,1.547-3.41c0.129-0.318,0.043-0.662-0.041-0.879
				c-0.383,0.005-1.059,0.048-1.408,0.284c-0.505,0.34-1.97,1.248-2.487,1.373l0.252,0.694l1.777-0.644c0,0-0.086,0.628-0.291,1.017
				C3.021,82.23,2.86,82.401,2.69,82.559c-0.353,0.326-0.468,0.837-0.304,1.289l0.791,2.182C3.279,86.312,3.676,86.329,3.795,86.054
				z"/>
		</g>
		<g>
			<path fill="#FF6161" d="M39.202,32.736c0,0,0.287-0.852,0.333-1.164c0.047-0.311,0.04-1.068,0.369-0.587
				c0.329,0.481-0.008,0.98,0.427,0.992c0.435,0.011,1.543-0.562,1.665-0.988c0.122-0.426,0.626,0.212,0.314,1.123
				c-0.312,0.911-1.285,2.028-2.445,1.719C38.705,33.523,39.202,32.736,39.202,32.736z"/>
			<path fill="#FF6161" d="M19.836,35.691c3.674-3.675,9.81,7.877,11.777,7.165c1.044-0.378,6.859-11.036,8.446-10.333
				c2.364,1.046-1.079,11.545-6.507,15.169C28.704,50.929,16.95,38.577,19.836,35.691z"/>
			<path fill="#AD263D" d="M19.836,35.691c0.077-0.077,0.155-0.145,0.234-0.209c0.261,0.403,0.388,1.162,0.896,1.768
				c0.801,0.956,2.325,1.808,3.754,3.108c1.429,1.3,2.937,3.893,3.816,5.262c0.878,1.369,2.842,0.801,4.418,0.594
				c1.576-0.207,1.783-2.403,2.429-3.514c0.646-1.111,1.653-0.62,2.377-1.757c0.723-1.137,1.163-5.606,2.093-6.717
				c0.336-0.402,0.645-0.556,0.902-0.592c0.549,3.033-2.619,10.996-7.202,14.056C28.704,50.929,16.95,38.577,19.836,35.691z"/>
		</g>
	</g>
</g>
</svg>
