<?xml version="1.0" encoding="utf-8"?>
<!-- Generator: Adobe Illustrator 17.0.0, SVG Export Plug-In . SVG Version: 6.00 Build 0)  -->
<!DOCTYPE svg PUBLIC "-//W3C//DTD SVG 1.1//EN" "http://www.w3.org/Graphics/SVG/1.1/DTD/svg11.dtd">
<svg version="1.1" id="Слой_1" xmlns="http://www.w3.org/2000/svg" xmlns:xlink="http://www.w3.org/1999/xlink" x="0px" y="0px"
	 width="87.915px" height="94.035px" viewBox="0 0 87.915 94.035" enable-background="new 0 0 87.915 94.035" xml:space="preserve">
<g>
	<g>
		<path fill="#F7C263" d="M87.915,9.103c0-3.976-8.436-2.499-14.031-8.066c-5.216-5.19-14.741,10.793-29.927,10.907
			C28.772,11.829,19.247-4.154,14.031,1.037C8.436,6.603,0,5.126,0,9.103c0,3.976,11.012,4.431,11.012,4.431
			s-5.95,1.136-3.907,3.481c2.042,2.345,10.834,0.723,10.834,0.723s-3.996,3.863,0,4.317c3.996,0.454,12.077-4.204,12.077-4.204
			s-2.398,2.499,0.444,3.408c1.48,0.473,5.079-0.686,8.188-1.906c-0.011,0.179-0.018,0.36-0.018,0.543
			c0,2.916,1.434,5.398,3.447,6.371l0.177,17.399c-0.695-0.099-1.387-0.189-2.075-0.279c-2.073-0.266-4.122-0.503-6.091-0.851
			c-0.982-0.175-1.944-0.379-2.844-0.642c-0.893-0.262-1.741-0.593-2.351-0.997c-0.303-0.2-0.541-0.412-0.688-0.61
			c-0.151-0.2-0.224-0.374-0.265-0.589c-0.039-0.215-0.039-0.484,0.023-0.814c0.076-0.417,0.181-0.821,0.316-1.206
			c0.531-1.544,1.577-2.773,3.017-3.637c0.716-0.432,1.521-0.773,2.367-1.026c0.423-0.126,0.857-0.23,1.293-0.31
			c0.218-0.04,0.436-0.074,0.652-0.102c0.108-0.014,0.214-0.026,0.318-0.035l0.15-0.012l0.069-0.004
			c0.014-0.001,0.054-0.003,0.036-0.001c1.191-0.055,2.112-1.065,2.057-2.256c-0.055-1.191-1.065-2.112-2.256-2.057l-0.159,0.011
			l-0.125,0.012l-0.238,0.026c-0.155,0.019-0.306,0.039-0.456,0.062c-0.299,0.046-0.593,0.1-0.885,0.161
			c-0.583,0.123-1.158,0.277-1.727,0.462c-1.136,0.373-2.251,0.872-3.299,1.542c-1.046,0.668-2.022,1.515-2.82,2.527
			c-0.802,1.008-1.409,2.175-1.791,3.378c-0.193,0.602-0.333,1.212-0.426,1.82c-0.109,0.694-0.127,1.483,0.054,2.286
			c0.174,0.802,0.57,1.588,1.076,2.194c0.504,0.615,1.087,1.065,1.66,1.421c1.156,0.703,2.292,1.07,3.395,1.37
			c1.105,0.291,2.187,0.486,3.256,0.648c1.008,0.15,2.006,0.269,2.995,0.376c-0.179,0.132-0.356,0.27-0.517,0.414
			c-0.224,0.201-0.447,0.407-0.664,0.64c-0.218,0.228-0.43,0.479-0.633,0.758c-0.203,0.276-0.395,0.591-0.556,0.95
			c-0.161,0.358-0.29,0.769-0.338,1.219c-0.05,0.448-0.01,0.928,0.114,1.36c0.123,0.435,0.32,0.817,0.539,1.14
			c0.22,0.324,0.462,0.594,0.708,0.833c0.494,0.474,1.002,0.825,1.508,1.135c0.996,0.603,1.992,1.037,2.987,1.435
			c-0.332,0.103-0.664,0.206-0.997,0.308l-0.745,0.229l-0.373,0.115c-0.123,0.039-0.278,0.086-0.417,0.135
			c-0.57,0.202-1.154,0.449-1.74,0.881c-0.29,0.217-0.582,0.487-0.83,0.842c-0.249,0.35-0.44,0.8-0.502,1.26
			c-0.067,0.462-0.011,0.909,0.1,1.29c0.111,0.384,0.272,0.712,0.448,1.005c0.356,0.584,0.773,1.037,1.201,1.447
			c0.43,0.406,0.879,0.762,1.337,1.088c0.458,0.326,0.926,0.624,1.401,0.901c0.237,0.138,0.477,0.272,0.717,0.401l0.705,0.37
			c0.557,0.289,1.116,0.565,1.676,0.836c-0.004,0.002-0.008,0.004-0.012,0.006c-0.934,0.489-1.871,0.998-2.789,1.585
			c-0.915,0.587-1.823,1.249-2.62,2.107c-0.793,0.85-1.457,1.946-1.68,3.187c-0.115,0.619-0.112,1.272,0.012,1.89
			c0.122,0.62,0.358,1.199,0.656,1.719c0.601,1.042,1.419,1.858,2.286,2.551c0.435,0.346,0.889,0.66,1.355,0.95
			c0.233,0.145,0.47,0.283,0.711,0.415c0.246,0.134,0.475,0.254,0.755,0.382c0.391,0.179,0.857,0.016,1.048-0.372
			c0.195-0.395,0.032-0.873-0.363-1.068l-0.021-0.01c-0.19-0.094-0.419-0.219-0.627-0.34c-0.212-0.123-0.421-0.253-0.626-0.387
			c-0.41-0.27-0.805-0.559-1.175-0.87c-0.738-0.62-1.39-1.329-1.808-2.106c-0.421-0.777-0.572-1.603-0.396-2.403
			c0.17-0.812,0.635-1.563,1.272-2.21c0.638-0.652,1.436-1.211,2.284-1.719c0.836-0.502,1.728-0.956,2.634-1.399l0.178,17.461
			c0.008,0.755,0.622,1.363,1.377,1.363c0.755,0,1.37-0.608,1.377-1.363l0.178-17.461c0.907,0.443,1.798,0.897,2.634,1.399
			c0.848,0.508,1.646,1.068,2.284,1.719c0.637,0.647,1.102,1.398,1.272,2.21c0.176,0.8,0.025,1.626-0.396,2.403
			c-0.418,0.777-1.07,1.486-1.808,2.106c-0.37,0.311-0.765,0.6-1.175,0.87c-0.205,0.135-0.414,0.264-0.626,0.387
			c-0.207,0.121-0.436,0.246-0.627,0.34l-0.022,0.011c-0.386,0.191-0.552,0.655-0.371,1.048c0.184,0.4,0.658,0.576,1.058,0.392
			c0.28-0.129,0.509-0.248,0.755-0.382c0.241-0.132,0.478-0.27,0.711-0.415c0.466-0.29,0.92-0.603,1.355-0.95
			c0.866-0.693,1.685-1.509,2.286-2.551c0.298-0.519,0.533-1.099,0.655-1.719c0.124-0.618,0.127-1.271,0.012-1.89
			c-0.223-1.241-0.887-2.337-1.68-3.187c-0.797-0.858-1.705-1.52-2.62-2.107c-0.918-0.587-1.855-1.096-2.789-1.585
			c-0.004-0.002-0.008-0.004-0.012-0.006c0.56-0.271,1.119-0.547,1.676-0.836l0.705-0.37c0.24-0.129,0.48-0.263,0.717-0.401
			c0.475-0.277,0.943-0.575,1.401-0.901c0.458-0.327,0.906-0.682,1.337-1.088c0.428-0.41,0.845-0.863,1.201-1.447
			c0.176-0.293,0.337-0.621,0.448-1.005c0.11-0.381,0.167-0.828,0.1-1.29c-0.063-0.46-0.253-0.91-0.502-1.26
			c-0.248-0.355-0.54-0.626-0.83-0.842c-0.585-0.433-1.17-0.679-1.74-0.881c-0.139-0.05-0.294-0.097-0.417-0.135l-0.373-0.115
			L49.5,56.728c-0.333-0.103-0.665-0.205-0.997-0.308c0.995-0.398,1.991-0.832,2.987-1.435c0.505-0.309,1.014-0.661,1.508-1.135
			c0.246-0.238,0.488-0.509,0.708-0.833c0.219-0.323,0.416-0.706,0.539-1.14c0.125-0.433,0.165-0.913,0.114-1.36
			c-0.049-0.45-0.178-0.861-0.338-1.219c-0.161-0.359-0.353-0.673-0.556-0.95c-0.202-0.28-0.415-0.53-0.633-0.758
			c-0.217-0.233-0.44-0.439-0.664-0.64c-0.161-0.144-0.338-0.282-0.517-0.414c0.989-0.107,1.986-0.226,2.995-0.376
			c1.069-0.162,2.151-0.358,3.256-0.648c1.103-0.3,2.24-0.668,3.395-1.37c0.573-0.356,1.156-0.806,1.66-1.421
			c0.505-0.606,0.902-1.392,1.076-2.194c0.181-0.803,0.163-1.592,0.054-2.286c-0.094-0.608-0.234-1.218-0.426-1.82
			c-0.381-1.203-0.989-2.371-1.791-3.378c-0.798-1.011-1.774-1.859-2.82-2.527c-1.048-0.67-2.163-1.169-3.299-1.542
			c-0.569-0.185-1.144-0.339-1.727-0.462c-0.292-0.061-0.586-0.116-0.885-0.161c-0.15-0.023-0.301-0.044-0.456-0.062l-0.238-0.026
			l-0.125-0.012l-0.159-0.011c-1.191-0.055-2.201,0.866-2.256,2.057c-0.055,1.191,0.866,2.201,2.057,2.256
			c-0.019-0.001,0.021,0.001,0.036,0.001l0.069,0.004l0.15,0.012c0.103,0.01,0.21,0.021,0.318,0.035
			c0.215,0.027,0.434,0.062,0.652,0.102c0.436,0.08,0.87,0.185,1.293,0.31c0.846,0.253,1.65,0.594,2.367,1.026
			c1.44,0.864,2.486,2.093,3.017,3.637c0.135,0.385,0.24,0.788,0.316,1.206c0.063,0.33,0.063,0.599,0.023,0.814
			c-0.041,0.215-0.114,0.389-0.265,0.589c-0.147,0.198-0.385,0.41-0.688,0.61c-0.611,0.404-1.458,0.735-2.351,0.997
			c-0.9,0.263-1.862,0.467-2.844,0.642c-1.969,0.348-4.018,0.585-6.091,0.851c-0.688,0.089-1.38,0.18-2.075,0.279l0.178-17.511
			c1.893-1.046,3.219-3.453,3.219-6.259c0-0.183-0.007-0.364-0.018-0.543c3.11,1.22,6.708,2.38,8.188,1.906
			c2.842-0.909,0.444-3.408,0.444-3.408s8.081,4.658,12.077,4.204c3.996-0.454,0-4.317,0-4.317s8.791,1.622,10.834-0.723
			c2.042-2.345-3.907-3.481-3.907-3.481S87.915,13.079,87.915,9.103z M37.28,51.686c-0.252-0.255-0.386-0.497-0.408-0.627
			c-0.014-0.068-0.014-0.116-0.003-0.184c0.011-0.067,0.039-0.158,0.096-0.271c0.11-0.227,0.338-0.524,0.627-0.809
			c0.141-0.144,0.305-0.287,0.471-0.428c0.151-0.127,0.292-0.228,0.461-0.337c0.332-0.21,0.715-0.399,1.127-0.564
			c0.807-0.324,1.711-0.565,2.643-0.761l0.068,6.67c-0.532-0.2-1.058-0.407-1.572-0.626c-0.908-0.391-1.796-0.816-2.549-1.304
			C37.868,52.204,37.528,51.942,37.28,51.686z M40.356,64.304c-0.214-0.123-0.425-0.249-0.633-0.379
			c-0.416-0.259-0.818-0.532-1.199-0.82c-0.38-0.288-0.739-0.592-1.055-0.909c-0.314-0.316-0.59-0.651-0.764-0.963
			c-0.181-0.314-0.223-0.577-0.191-0.672c0.013-0.054,0.03-0.097,0.085-0.168c0.053-0.069,0.145-0.159,0.275-0.248
			c0.257-0.181,0.641-0.348,1.053-0.477c0.107-0.035,0.202-0.06,0.328-0.096l0.375-0.104l0.752-0.208
			c1.005-0.279,2.012-0.558,3.021-0.848l0.072,7.045c-0.489-0.256-0.975-0.514-1.454-0.781L40.356,64.304z M49.511,59.47
			l0.375,0.104c0.126,0.036,0.22,0.061,0.327,0.096c0.413,0.129,0.797,0.296,1.053,0.477c0.13,0.089,0.222,0.178,0.275,0.248
			c0.055,0.071,0.072,0.114,0.085,0.168c0.032,0.095-0.01,0.358-0.191,0.672c-0.174,0.312-0.45,0.647-0.764,0.963
			c-0.317,0.317-0.675,0.621-1.055,0.909c-0.381,0.288-0.783,0.561-1.199,0.82c-0.208,0.129-0.419,0.255-0.633,0.379l-0.665,0.374
			c-0.479,0.266-0.965,0.525-1.454,0.781l0.072-7.045c1.009,0.29,2.016,0.569,3.021,0.848L49.511,59.47z M51.27,51.059
			c-0.022,0.13-0.157,0.372-0.408,0.627c-0.248,0.256-0.588,0.517-0.962,0.759c-0.753,0.488-1.64,0.914-2.549,1.304
			c-0.513,0.219-1.04,0.426-1.572,0.626l0.068-6.67c0.932,0.196,1.836,0.437,2.643,0.761c0.412,0.166,0.795,0.354,1.127,0.564
			c0.169,0.108,0.31,0.209,0.461,0.337c0.167,0.141,0.33,0.284,0.471,0.428c0.289,0.284,0.517,0.581,0.627,0.809
			c0.056,0.114,0.084,0.204,0.096,0.271C51.284,50.944,51.284,50.991,51.27,51.059z"/>
		<g>
			<path fill="#C98624" d="M87.915,9.103c0-3.976-8.436-2.499-14.031-8.066c-5.216-5.19-14.741,10.793-29.927,10.907v76.305
				c0.038,0.003,0.075,0.011,0.114,0.011c0.755,0,1.37-0.608,1.377-1.363l0.178-17.461c0.907,0.443,1.798,0.897,2.634,1.399
				c0.848,0.508,1.646,1.068,2.284,1.719c0.637,0.647,1.102,1.398,1.272,2.21c0.176,0.8,0.025,1.626-0.396,2.403
				c-0.418,0.777-1.07,1.486-1.808,2.106c-0.37,0.311-0.765,0.6-1.175,0.87c-0.205,0.135-0.414,0.264-0.626,0.387
				c-0.207,0.121-0.436,0.246-0.627,0.34l-0.022,0.011c-0.386,0.191-0.552,0.655-0.371,1.048c0.184,0.4,0.658,0.576,1.058,0.392
				c0.28-0.129,0.509-0.248,0.755-0.382c0.241-0.132,0.478-0.27,0.711-0.415c0.466-0.29,0.92-0.603,1.355-0.95
				c0.866-0.693,1.685-1.509,2.286-2.551c0.298-0.519,0.533-1.099,0.655-1.719c0.124-0.618,0.127-1.271,0.012-1.89
				c-0.223-1.241-0.887-2.337-1.68-3.187c-0.797-0.858-1.705-1.52-2.62-2.107c-0.918-0.587-1.855-1.096-2.789-1.585
				c-0.004-0.002-0.008-0.004-0.012-0.006c0.56-0.271,1.119-0.547,1.676-0.836l0.705-0.37c0.24-0.129,0.48-0.263,0.717-0.401
				c0.475-0.277,0.943-0.575,1.401-0.901c0.458-0.327,0.906-0.682,1.337-1.088c0.428-0.41,0.845-0.863,1.201-1.447
				c0.176-0.293,0.337-0.621,0.448-1.005c0.11-0.381,0.167-0.828,0.1-1.29c-0.063-0.46-0.253-0.91-0.502-1.26
				c-0.248-0.355-0.54-0.626-0.83-0.842c-0.585-0.433-1.17-0.679-1.74-0.881c-0.139-0.05-0.294-0.097-0.417-0.135l-0.373-0.115
				L49.5,56.728c-0.333-0.103-0.665-0.205-0.997-0.308c0.995-0.398,1.991-0.832,2.987-1.435c0.505-0.309,1.014-0.661,1.508-1.135
				c0.246-0.238,0.488-0.509,0.708-0.833c0.219-0.323,0.416-0.706,0.539-1.14c0.125-0.433,0.165-0.913,0.114-1.36
				c-0.049-0.45-0.178-0.861-0.338-1.219c-0.161-0.359-0.353-0.673-0.556-0.95c-0.202-0.28-0.415-0.53-0.633-0.758
				c-0.217-0.233-0.44-0.439-0.664-0.64c-0.161-0.144-0.338-0.282-0.517-0.414c0.989-0.107,1.986-0.226,2.995-0.376
				c1.069-0.162,2.151-0.358,3.256-0.648c1.103-0.3,2.24-0.668,3.395-1.37c0.573-0.356,1.156-0.806,1.66-1.421
				c0.505-0.606,0.902-1.392,1.076-2.194c0.181-0.803,0.163-1.592,0.054-2.286c-0.094-0.608-0.234-1.218-0.426-1.82
				c-0.381-1.203-0.989-2.371-1.791-3.378c-0.798-1.011-1.774-1.859-2.82-2.527c-1.048-0.67-2.163-1.169-3.299-1.542
				c-0.569-0.185-1.144-0.339-1.727-0.462c-0.292-0.061-0.586-0.116-0.885-0.161c-0.15-0.023-0.301-0.044-0.456-0.062l-0.238-0.026
				l-0.125-0.012l-0.159-0.011c-1.191-0.055-2.201,0.866-2.256,2.057c-0.055,1.191,0.866,2.201,2.057,2.256
				c-0.019-0.001,0.021,0.001,0.036,0.001l0.069,0.004l0.15,0.012c0.103,0.01,0.21,0.021,0.318,0.035
				c0.215,0.027,0.434,0.062,0.652,0.102c0.436,0.08,0.87,0.185,1.293,0.31c0.846,0.253,1.65,0.594,2.367,1.026
				c1.44,0.864,2.486,2.093,3.017,3.637c0.135,0.385,0.24,0.788,0.316,1.206c0.063,0.33,0.063,0.599,0.023,0.814
				c-0.041,0.215-0.114,0.389-0.265,0.589c-0.147,0.198-0.385,0.41-0.688,0.61c-0.611,0.404-1.458,0.735-2.351,0.997
				c-0.9,0.263-1.862,0.467-2.844,0.642c-1.969,0.348-4.018,0.585-6.091,0.851c-0.688,0.089-1.38,0.18-2.075,0.279l0.178-17.511
				c1.893-1.046,3.219-3.453,3.219-6.259c0-0.183-0.007-0.364-0.018-0.543c3.11,1.22,6.708,2.38,8.188,1.906
				c2.842-0.909,0.444-3.408,0.444-3.408s8.081,4.658,12.077,4.204c3.996-0.454,0-4.317,0-4.317s8.791,1.622,10.834-0.723
				c2.042-2.345-3.907-3.481-3.907-3.481S87.915,13.079,87.915,9.103z M48.76,59.262l0.752,0.208l0.375,0.104
				c0.126,0.036,0.22,0.061,0.327,0.096c0.413,0.129,0.797,0.296,1.053,0.477c0.13,0.089,0.222,0.178,0.275,0.248
				c0.055,0.071,0.072,0.114,0.085,0.168c0.032,0.095-0.01,0.358-0.191,0.672c-0.174,0.312-0.45,0.647-0.764,0.963
				c-0.317,0.317-0.675,0.621-1.055,0.909c-0.381,0.288-0.783,0.561-1.199,0.82c-0.208,0.129-0.419,0.255-0.633,0.379l-0.665,0.374
				c-0.479,0.266-0.965,0.525-1.454,0.781l0.072-7.045C46.747,58.704,47.755,58.983,48.76,59.262z M48.491,48.467
				c0.412,0.166,0.795,0.354,1.127,0.564c0.169,0.108,0.31,0.209,0.461,0.337c0.167,0.141,0.33,0.284,0.471,0.428
				c0.289,0.284,0.517,0.581,0.627,0.809c0.056,0.114,0.084,0.204,0.096,0.271c0.011,0.068,0.011,0.116-0.003,0.184
				c-0.022,0.13-0.157,0.372-0.408,0.627c-0.248,0.256-0.588,0.517-0.962,0.759c-0.753,0.488-1.64,0.914-2.549,1.304
				c-0.513,0.219-1.04,0.426-1.572,0.626l0.068-6.67C46.779,47.902,47.684,48.143,48.491,48.467z"/>
		</g>
	</g>
	<g>
		<path fill="#1E1240" d="M28.392,36.012c0,0,0.066-1.1-0.407-1.716c-0.473-0.616-1.623-0.616-2.544,0.191
			c-0.92,0.806-0.348,3.065-0.671,3.299c-0.323,0.235,0.092,0.6,0.554,0.755c0.85,0.285,2.759,0.169,3.669-0.861
			C29.559,37.041,28.392,36.012,28.392,36.012z"/>
		<g>
			<g>
				<path fill="#FF6161" d="M30.859,89.548c0.317,0.281,1.603,1.939,2.053,1.982c0.243,0.023,0.441-0.007,0.573-0.038
					c-0.288-0.223-0.606-0.75-0.897-1.325c-0.196-0.387-0.314-0.899-0.315-1.66l-1.406,0.074c-0.294,0.015-0.539,0.23-0.594,0.52
					c-0.021,0.112-0.042,0.211-0.056,0.252C30.395,89.348,30.664,89.374,30.859,89.548z"/>
				<path fill="#1E1240" d="M34.651,92.111c-0.168-0.156-0.469-0.34-1.003-0.526c-0.053-0.018-0.107-0.051-0.163-0.094
					c-0.132,0.032-0.33,0.061-0.573,0.038c-0.451-0.042-1.736-1.7-2.053-1.982c-0.196-0.174-0.464-0.2-0.641-0.195
					c-0.095,0.276-0.236,0.772-0.156,1.084c0.115,0.45,0.393,1.733,0.351,2.137l0.563-0.003l-0.007-1.171
					c0,0,0.427-0.048,0.654,0.199c0.085,0.092,0.167,0.251,0.237,0.414c0.144,0.337,0.482,0.55,0.848,0.548l1.769-0.011
					C34.705,92.547,34.818,92.266,34.651,92.111z"/>
			</g>
			<path fill="#FF6161" d="M34.105,55.934c0.101,0.361,1.282,9.891-1.72,33.57c-0.095,0.746-2.22-0.291-2.85-1.631
				c-1.694-3.606-2.91-11.305-1.189-18.242c0.925-3.727,0.298-8.162,0.55-9.925c0.224-1.564,0.896-4.62,1.703-6.134
				C31.163,52.516,33.558,53.982,34.105,55.934z"/>
			<path fill="#AD263D" d="M34.373,59.597c-1.12,1.36-3.393,4.42-3.408,6.866c-0.019,3.246,0.019,9.031,0,10.654
				c-0.019,1.623-1.159,2.74-0.747,5.494c0.747,4.994,2.124,7.23,2.167,6.893C34.378,73.784,34.527,64.303,34.373,59.597z"/>
		</g>
		<g>
			<g>
				<path fill="#FF6161" d="M24.175,89.652c0.317,0.281,1.603,1.94,2.053,1.982c0.243,0.023,0.441-0.007,0.573-0.038
					c-0.288-0.223-0.606-0.75-0.897-1.325c-0.196-0.387-0.314-0.899-0.315-1.66l-1.406,0.074c-0.294,0.015-0.539,0.23-0.594,0.52
					c-0.021,0.112-0.042,0.211-0.056,0.252C23.711,89.452,23.979,89.478,24.175,89.652z"/>
				<path fill="#1E1240" d="M27.967,92.215c-0.168-0.156-0.469-0.34-1.003-0.526c-0.053-0.018-0.107-0.051-0.163-0.094
					c-0.132,0.032-0.33,0.061-0.573,0.038c-0.451-0.042-1.736-1.7-2.053-1.982c-0.196-0.174-0.464-0.2-0.641-0.195
					c-0.095,0.276-0.236,0.773-0.156,1.084c0.115,0.45,0.393,1.733,0.351,2.137l0.563-0.003l-0.007-1.171
					c0,0,0.427-0.048,0.654,0.199c0.085,0.092,0.167,0.251,0.237,0.414c0.144,0.337,0.482,0.55,0.848,0.548l1.769-0.011
					C28.02,92.651,28.134,92.37,27.967,92.215z"/>
			</g>
			<path fill="#FF6161" d="M30.551,56.407c0.066,0.369,0.334,9.968-4.912,33.253c-0.165,0.734-2.182-0.501-2.681-1.896
				c-1.343-3.751-1.819-11.531,0.555-18.272c1.276-3.622,1.074-8.096,1.494-9.827c0.372-1.536,1.332-4.514,2.28-5.944
				C27.948,52.725,30.193,54.413,30.551,56.407z"/>
			<path fill="#AD263D" d="M30.468,60.08c-1.245,1.247-3.799,4.076-4.047,6.51c-0.329,3.23-0.842,8.992-1.015,10.606
				c-0.174,1.614-1.415,2.617-1.267,5.397c0.268,5.043,1.425,7.399,1.5,7.068C29.121,74.203,30.174,64.778,30.468,60.08z"/>
			<path fill="#311E69" d="M27.1,75.246c0.523-1.77-2.618-1.12-4.884-0.447c-0.132,0.879-0.226,1.753-0.288,2.614
				C23.499,77.446,26.511,77.241,27.1,75.246z"/>
		</g>
		<path fill="#FF8F8F" d="M30.17,39.926c2.213,1.579,5.141,5.661,6.163,5.66c1.449-0.002,8.82-3.285,9.424-1.736
			c0.65,1.666-5.77,5.144-9.037,5.747c-4.349,0.802-8.34-7.644-8.561-8.513C27.712,39.319,29.33,39.326,30.17,39.926z"/>
		<path fill="#311E69" d="M29.728,44.219c0.771,1.276,1.781,2.69,2.931,3.755c0.075-1.892-1.896-6.168-1.896-6.168L29.728,44.219z"
			/>
		<path fill="#FFCACA" d="M32.958,49.478c-0.449-0.883-0.868-1.756-1.141-2.488c-0.43-1.907-0.901-2.997-0.784-3.353
			c0.405-1.234,0.334-2.09,0.207-2.325c-0.107-0.199-0.443-0.521-0.443-0.521c-0.28-0.271-1.198-1.122-1.869-1.434
			c-2.327-1.084-4.675,0.238-4.817,0.984c-0.145,0.763,0.93,4.003,1.089,4.865c0.093,0.507,0.147,1.046,0.057,1.557
			c-0.051,0.181-0.523,1.044-1.139,2.13C25.372,49.223,29.198,50.092,32.958,49.478z"/>
		<path fill="#FF8F8F" d="M33.045,49.649c-0.482-0.942-0.938-1.881-1.228-2.659c-0.43-1.907-0.901-2.997-0.784-3.353
			c0.405-1.234,0.334-2.09,0.207-2.325c-0.107-0.199-0.443-0.521-0.443-0.521c-0.28-0.271-1.198-1.122-1.869-1.434
			c-0.514-0.239-1.028-0.361-1.52-0.398c0.749,0.643,2.122,1.858,2.442,2.391c0.445,0.742,0.415,1.914-0.786,2.107
			c-1.202,0.193-2.587-0.104-2.443,0.653c0.144,0.757,3.259,1.84,3.645,2.789c0.386,0.95,0.341,3.264,1.454,4.481
			c0.629,0.688,1.66,1.133,2.439,1.391C33.704,51.099,33.259,50.066,33.045,49.649z"/>
		<path fill="#614CD4" d="M33.045,49.649c-0.029-0.057-0.058-0.115-0.087-0.172c-3.76,0.615-7.587-0.254-8.839-0.586
			c-1.128,1.989-2.738,4.728-3.129,5.408c-0.733,1.274-1.16,2.718-1.133,4.194c0.032,1.721,1.523,12.007-1.741,17.33
			c4.611,0.916,7.862,1.432,10.979,0.959c3.669-0.557,5.251-1.881,5.636-1.993C36.988,59.106,33.75,51.026,33.045,49.649z"/>
		<path fill="#311E69" d="M34.731,74.79c2.257-15.684-0.981-23.764-1.685-25.141c-0.029-0.057-0.058-0.115-0.087-0.172
			c-1.189,0.194-2.385,0.24-3.503,0.202c0.167,1.047,0.395,2.241,0.708,3.539c1.128,4.673,0.059,7.581-1.424,12.625
			c-0.865,2.941-1.444,7.676-1.777,11.114c0.727-0.013,1.434-0.069,2.133-0.175C32.763,76.226,34.346,74.902,34.731,74.79z"/>
		<path fill="#311E69" d="M25.201,45.205c0.016,0.087,0.03,0.175,0.043,0.263c1.147-1.16,0.822-4.724,0.822-4.724l-1.528,1.973
			C24.81,43.737,25.121,44.772,25.201,45.205z"/>
		<path fill="#1E1240" d="M30.298,45.147h-5.423c-0.195,0-0.391,0.158-0.439,0.352l-2.084,8.528
			c-0.048,0.195,0.072,0.352,0.266,0.352h5.423c0.195,0,0.391-0.158,0.439-0.352l2.084-8.528
			C30.612,45.305,30.493,45.147,30.298,45.147z"/>
		<path fill="#FFCACA" d="M26.067,41.863c-1.089,2.942-4.796,7.468-4.266,8.501c0.636,1.241,6.492,0.823,6.042,2.713
			c-0.425,1.784-8.622,2.34-9.886-1.288c-1.682-4.829,5.758-11.5,6.562-11.967C26.153,38.875,26.48,40.747,26.067,41.863z"/>
		<path fill="#FF6161" d="M26.838,37.043l0.366,1.468c0.079,0.322,1.462,1.18,0.594,1.695c-0.324,0.192-1.683-0.735-1.622-1.103
			l-0.014-1.772L26.838,37.043z"/>
		<path fill="#311E69" d="M27.049,37.891l0.154,0.62c0.002,0.01,0.006,0.02,0.011,0.031c-0.246-0.053-0.55-0.162-0.59-0.386
			C26.592,37.974,26.811,37.909,27.049,37.891z"/>
		<path fill="#FF8F8F" d="M21.801,50.364c-0.447-0.871,2.12-4.228,3.588-7.022c-1.51,1.212-4.736,3.834-5.102,4.409
			c-0.48,0.755-0.658,1.823,0.306,2.577c0.412,0.322,1.155,0.464,1.87,0.522C22.14,50.719,21.903,50.563,21.801,50.364z"/>
		<g>
			<path fill="#FF6161" d="M26.092,36.467c-0.228,0.635,0.066,1.365,0.696,1.607c0.582,0.223,1.231-0.012,1.466-0.757
				c0.209-0.662-0.159-1.338-0.274-1.678c-0.172-0.508-0.457-0.487-0.814,0.03C26.953,35.979,26.092,36.467,26.092,36.467z"/>
			<path fill="#FF6161" d="M26.133,36.545c-0.034-0.067-0.057-0.138-0.076-0.21c-0.036-0.138-0.121-0.334-0.299-0.18
				c-0.259,0.224-0.028,0.947,0.327,0.914C26.349,37.043,26.218,36.713,26.133,36.545z"/>
			<path fill="#FFFFFF" d="M27.443,36.901c0,0,0.31,0.027,0.736-0.105c0,0,0.008,0.218-0.116,0.323
				C27.914,37.246,27.614,37.24,27.443,36.901z"/>
			<g>
				<path fill="#AD263D" d="M26.913,37.819c0.246,0.055,0.705,0.042,0.915-0.074c0.186-0.103,0.391-0.398,0.436-0.464
					c-0.003,0.012-0.006,0.024-0.01,0.037c-0.235,0.744-0.884,0.98-1.466,0.757c-0.389-0.149-0.649-0.483-0.738-0.867
					C26.326,37.589,26.692,37.77,26.913,37.819z"/>
			</g>
		</g>
		<path fill="#FFFFFF" d="M26.173,38.827c0,0,1.162,0.969,1.356,0.868c0.184-0.096-0.053-0.83-0.053-0.83s0.455,0.177,0.606,0.396
			l0.433,0.971l-0.649-0.072l-0.523,0.373c0,0-1.321-0.838-1.321-1.12C26.023,39.131,26.173,38.827,26.173,38.827z"/>
		<path fill="#FF8F8F" d="M24.451,52.854c-2.047,0.354-1.454-0.231-3.234-0.95c-1.78-0.718-1.128-0.175-2.329-0.69
			c-0.549-0.235-0.915-0.851-1.151-1.45c-0.065,0.695-0.005,1.377,0.221,2.025c1.264,3.628,9.461,3.072,9.886,1.288
			c0.044-0.183,0.027-0.344-0.037-0.487C27.086,52.455,25.953,52.594,24.451,52.854z"/>
		<path fill="#AD263D" d="M45.135,44.344c0.361,0.424,1.424,0.119,2.189-0.417c0.765-0.536,0.677-1.392,0.192-1.055
			c-0.788,0.546-1.679,0.3-2.01,0.63C45.173,43.831,44.985,44.169,45.135,44.344z"/>
		<path fill="#AD263D" d="M44.977,43.613c0,0,0.395-0.885,0.929-0.939c0.533-0.055,0.587,0.091,0.865-0.067
			c0.278-0.158,0.28,0.238,0.085,0.34c-0.195,0.102-0.525,0.052-0.668,0.185c-0.143,0.133,0.095,1.16-0.524,1.333
			C45.047,44.639,44.907,43.896,44.977,43.613z"/>
		<path fill="#FF6161" d="M26.705,52.503c0.045-0.162,0.562-0.31,0.816-0.363c0.486-0.101,0.72-0.331,0.835-0.503
			c0.115-0.173,0.259,0.173,0.061,0.404c-0.198,0.231-0.68,0.464-0.415,0.496c0.265,0.031,1.202-1.166,1.189-0.563
			c-0.037,1.804-1.485,1.998-2.307,1.758C26.884,53.731,26.428,53.502,26.705,52.503z"/>
	</g>
	<g>
		<path fill="#EAE8FF" d="M55.325,38.818c0,0-2.558,1.549-7.684,9.298c-1.909,2.886-1.214,6.471,2.133,5.948
			C53.761,53.442,59.351,40.434,55.325,38.818z"/>
		<path fill="#1E1240" d="M58.091,92.165c-0.399-0.592-0.508-1.244-0.555-1.78l-1.981-0.007c0,0,0.133,0.68-0.203,1.21
			c-0.146,0.231-0.572,0.402-1.158,0.647c-0.929,0.473-2.076,1.083-2.117,1.4c-0.068,0.528,5.395,0.53,6.305,0.021
			C58.858,93.391,58.528,92.815,58.091,92.165z"/>
		<path fill="#311E69" d="M54.125,43.899c0,0-1.984,4.52-1.007,6.1c0.977,1.579,2.198,0.45,2.198,0.45L54.125,43.899z"/>
		<path fill="#1E1240" d="M70.957,92.165c-0.399-0.592-0.508-1.244-0.555-1.78l-1.981-0.007c0,0,0.133,0.68-0.203,1.21
			c-0.146,0.231-0.572,0.402-1.158,0.647c-0.929,0.473-2.076,1.083-2.117,1.4c-0.068,0.528,5.395,0.53,6.305,0.021
			C71.724,93.391,71.394,92.815,70.957,92.165z"/>
		<path fill="#1E1240" d="M66.691,74.399c0.134-1.893,2.23-9.319,1.462-13.78c-0.314-1.825-0.594-6.3-0.75-7.627
			c-0.018-0.153-0.029-0.304-0.035-0.455c-5.244,0.67-10.415-0.592-11.649-0.925c-0.182,0.999-0.574,1.958-1.165,2.806
			c-2.254,3.233-2.466,11.097-2.476,16.599c-0.023,12.309,2.213,19.626,3.395,19.987c0.995,0.304,0.944,0.463,2.184,0.234
			c3.387-0.627,0.899-14.762,0.702-16.594c-0.186-1.733,1.493-10.862,1.493-10.862c0.224,0.859,0.274,21.681,8.008,27.838
			c0.759,0.604,3.089,0.442,2.986-0.748C70.469,86.516,66.584,75.909,66.691,74.399z"/>
		<path fill="#FFFFFF" d="M68.678,60.944c-1.36-6.55,1.045-14.652,0.405-17.214c-0.826-3.309-2.69-7.422-10.744-6.209
			c-2.518,0.379-4.715,1.613-4.666,4.16c0.048,2.478,0.814,10.279-0.43,13.546c-1.032,2.708,4.581,5.731,8.201,6.002
			C65.25,61.514,68.795,61.507,68.678,60.944z"/>
		<g>
			<path fill="#EAE8FF" d="M69.083,43.73c-0.666-2.668-2.008-5.855-6.721-6.357c0.604,1.27,1.802,4.065,1.502,5.709
				c-0.397,2.177-3.813,13.058-2.547,17.127c0.116,0.374,0.224,0.712,0.328,1.034c3.729,0.27,7.148,0.254,7.034-0.299
				C67.318,54.395,69.722,46.293,69.083,43.73z"/>
		</g>
		<g>
			<path fill="#311E69" d="M59.126,33.109c0.326-0.405,1.153-1.28,2.768-0.161c1.059,0.733,0.224,3.653-0.42,3.973
				c-0.503,0.249-1.236-1.619-1.536-2.456c-0.42-0.036-0.767-0.11-0.856-0.251C58.82,33.8,58.905,33.384,59.126,33.109z"/>
			<g>
				<path fill="#FF6161" d="M61.415,35.373l0.768,2.669c-0.013,0.382-2.113,1.353-2.695,0.844c-0.17-0.149-0.105-0.513,0.078-0.902
					l1.081-2.117L61.415,35.373z"/>
				<path fill="#311E69" d="M60.43,36.292c0.179-0.024,0.386-0.053,0.565-0.078c0.221-0.031,0.393,0.192,0.302,0.395
					c-0.097,0.215-0.261,0.472-0.538,0.69c-0.322,0.254-0.69,0.366-1.035,0.375L60.43,36.292z"/>
				<path fill="#FF6161" d="M60.82,34.237l0.556,1.584c0.142,0.536-0.168,1.089-0.7,1.245c-0.425,0.125-0.702,0.131-1.251,0.076
					c-0.457-0.046-0.7-0.478-0.713-1.075c-0.016-0.775,0.189-1.493,0.32-1.872C59.332,33.332,60.382,33.231,60.82,34.237z"/>
				<path fill="#FFFFFF" d="M59.806,35.419c0,0-0.375,0.101-0.909,0.047c0,0-0.007,0.348,0.206,0.464
					C59.316,36.045,59.689,35.836,59.806,35.419z"/>
				<g>
					<path fill="#AD263D" d="M59.271,36.552c0.508-0.113,0.912,0.651,1.803-0.1c0.166-0.14,0.249-0.47,0.29-0.666l0.012,0.035
						c0.142,0.536-0.168,1.089-0.7,1.245c-0.425,0.125-0.702,0.131-1.251,0.076c-0.279-0.028-0.477-0.2-0.593-0.465
						C58.923,36.689,59.116,36.586,59.271,36.552z"/>
				</g>
				<path fill="#311E69" d="M60.352,33.754c0,0,0.404,0.584,0.374,0.904c-0.03,0.32-0.07,0.455,0.037,0.539
					c0.107,0.084,0.409-0.166,0.395-0.497C61.144,34.37,60.991,33.546,60.352,33.754z"/>
				<path fill="#FF6161" d="M60.946,34.98c0.048-0.092,0.081-0.191,0.109-0.291c0.052-0.191,0.174-0.462,0.419-0.246
					c0.356,0.315,0.023,1.316-0.469,1.264C60.638,35.67,60.826,35.213,60.946,34.98z"/>
			</g>
			<path fill="#311E69" d="M59.257,33.623c0,0,1.362,1.178,1.543,1.149c0.181-0.029,0.289-0.853-0.056-1.15
				C60.398,33.324,59.147,32.991,59.257,33.623z"/>
		</g>
		<path fill="#311E69" d="M68.154,47.915c0,0-2.239,3.345-6.16,4.442c-2.043,0.572-5.254-1.696-8.09-1.254
			c-0.066,1.358-0.213,2.613-0.489,3.59c1.378,0.679,7.238,3.368,10.617,1.804C67.879,54.716,68.154,47.915,68.154,47.915z"/>
		<path fill="#EAE8FF" d="M47.194,50.373c1.417-1.652,12.48-1.707,13.796-0.027c1.316,1.68-4.602,3.775-10.113,4.174
			C46.374,54.846,46.214,51.516,47.194,50.373z"/>
		<path fill="#FFFFFF" d="M65.471,39.065c-1.326-0.261-2.841,3.644-2.678,7.504c0.164,3.86-0.336,4.675-2.452,4.215
			c-1.318-0.286-9.334-3.302-10.038-1.431c-0.573,1.522,8.727,10.946,15.815,4.316C70.187,49.863,68.935,39.747,65.471,39.065z"/>
		<path fill="#FF6161" d="M52.255,48.761c0,0-1.102-0.444-2.13-0.026c-1.028,0.418-1.072,0.473-0.702,0.624
			c0.369,0.151,1.208,0.745,2.283,0.624C52.78,49.861,52.255,48.761,52.255,48.761z"/>
		<path fill="#EAE8FF" d="M68.071,42.274c-0.809,1.859-1.278,5.43-1.671,6.219c-0.632,1.27-0.778,3.692-1.448,4.914
			c-0.669,1.222-2.397,1.072-3.934,0.495c-1.537-0.577-3.216-0.625-5.012-0.426c-1.796,0.199-2.857-1.867-3.993-2.609
			c-0.704-0.46-1.121-0.444-1.336-0.366c1.809,2.854,9.422,8.799,15.44,3.169C68.84,51.123,69.18,45.755,68.071,42.274z"/>
		<path fill="#AD263D" d="M60.383,49.921c0,0,1.316-0.292,1.74-0.067c0.424,0.225,1.109,1.118,0.916,1.121
			c-0.193,0.002-0.677-0.454-0.677-0.454s0.357,0.724,0.351,1.047c-0.006,0.323-0.555,0.358-0.809,0.243
			c-0.254-0.115-2.016-0.83-2.295-1.232C59.329,50.176,60.383,49.921,60.383,49.921z"/>
	</g>
</g>
</svg>
