<?xml version="1.0" encoding="utf-8"?>
<!-- Generator: Adobe Illustrator 17.0.0, SVG Export Plug-In . SVG Version: 6.00 Build 0)  -->
<!DOCTYPE svg PUBLIC "-//W3C//DTD SVG 1.1//EN" "http://www.w3.org/Graphics/SVG/1.1/DTD/svg11.dtd">
<svg version="1.1" id="Слой_1" xmlns="http://www.w3.org/2000/svg" xmlns:xlink="http://www.w3.org/1999/xlink" x="0px" y="0px"
	 width="122.798px" height="81.604px" viewBox="0 0 122.798 81.604" enable-background="new 0 0 122.798 81.604"
	 xml:space="preserve">
<g>
	<g>
		<rect x="7.97" y="30.265" fill="#2E88BF" width="17.222" height="17.222"/>
		<rect x="16.581" y="30.265" fill="#4CB4D4" width="17.222" height="17.222"/>
		<path fill="#2E88BF" d="M31.834,30.265l-0.598,6.99l-2.1-3.167c0,0-0.997,4.122-1.056,4.788c-0.059,0.666-2.287-1.328-2.287-1.973
			c0-0.645-1.349,2.107-1.349,2.107s-0.762,1.58-0.88,0c-0.117-1.58,0.438-8.745,0.438-8.745H31.834z"/>
		<polygon fill="#2E88BF" points="26.496,47.487 26.496,44.057 25.618,45.772 24.328,42.767 23.07,45.875 22.451,45.127 
			21.513,47.487 		"/>
		<path fill="#FFFFFF" d="M20.616,41.299l-0.41-2.966l-0.489,0.331l-0.814-2.13c0,0-0.306-0.852-0.369-0.473
			c-0.063,0.379,0.347,3.66,0.221,3.597c-0.126-0.063-0.203,0.126-0.228,0.789c-0.025,0.663,0.985,2.051,1.237,1.578
			C20.016,41.551,20.616,41.299,20.616,41.299z"/>
		<path fill="#D18C42" d="M13.508,34.645c0,0,0.205,2.082,0,3.343c-0.205,1.261-1.085-0.411-1.085-0.411s-0.147,0.264-0.293,2.287
			c-0.147,2.023-1.026,2.58-1.144,1.613c-0.117-0.968-0.029-6.099-0.029-6.099s0.821-0.176,0.909,0.117
			c0.088,0.293,0.469,0.088,0.586-0.293C12.57,34.821,12.775,33.472,13.508,34.645z"/>
	</g>
	<g>
		<rect x="5.61" y="13.054" fill="#AD263D" width="17.222" height="17.222"/>
		<rect x="14.221" y="13.054" fill="#FF6161" width="17.222" height="17.222"/>
		<path fill="#AD263D" d="M29.474,13.054l-0.598,6.99l-2.1-3.167c0,0-0.997,4.122-1.056,4.788c-0.059,0.666-2.287-1.328-2.287-1.973
			c0-0.645-1.349,2.107-1.349,2.107s-0.762,1.58-0.88,0c-0.117-1.58,0.438-8.745,0.438-8.745H29.474z"/>
		<path fill="#AD263D" d="M18.872,28.687c1.222,0.664,2.737-0.042,3.014-1.405l0.566-2.787l-1.263-0.109l-0.905-1.181l-3.441-1.432
			l-1.473,2.853l2.098,3.298L18.872,28.687z"/>
		<path fill="#FF6161" d="M12.042,20.034l-0.41-2.966l-0.489,0.331l-0.814-2.13c0,0-0.306-0.852-0.369-0.473
			c-0.063,0.379,0.347,3.66,0.221,3.597c-0.126-0.063-0.203,0.126-0.228,0.789c-0.025,0.663,0.985,2.051,1.237,1.578
			C11.443,20.286,12.042,20.034,12.042,20.034z"/>
		<path fill="#B1A9FF" d="M28.368,21.944c0,0,0.205,2.082,0,3.343c-0.205,1.261-1.085-0.411-1.085-0.411s-0.147,0.264-0.293,2.287
			c-0.147,2.023-1.026,2.58-1.144,1.613c-0.117-0.968-0.029-6.099-0.029-6.099s0.821-0.176,0.909,0.117
			c0.088,0.293,0.469,0.088,0.586-0.293C27.429,22.12,27.635,20.771,28.368,21.944z"/>
	</g>
	<g>
		<path fill="#AD263D" d="M66.694,25.56c0.263-3.58,0.332-7.67,0.332-7.67s4.031,3.788,4.878,7.375
			c0.598,2.534-1.086,5.104-2.875,5.314c-0.001,0-0.002,0.001-0.004,0.001c-3.247,1.068-8.874-0.406-8.914-2.178
			c-0.025-1.127,3.186-1.416,5.362-1.606C66.128,26.739,66.646,26.216,66.694,25.56z"/>
		<path fill="#4CB4D4" d="M68.459,9.593c0,0,0.169-1.172,1.362-1.441c1.193-0.27,3.239,1.881,1.517,3.439
			C69.615,13.149,68.459,9.593,68.459,9.593z"/>
		<path fill="#311E69" d="M67.82,22.074l4.191,3.874c0.187,2.294-1.354,4.44-2.982,4.632c-0.001,0-0.002,0.001-0.004,0.001
			c-0.028,0.009-0.057,0.018-0.085,0.027C67.788,27.839,67.82,22.074,67.82,22.074z"/>
		<path fill="#1E1240" d="M70.825,10.352c0,0-1.915-1.749-3.309-1.431c-1.394,0.319,0.868,1.804,1.229,1.964
			C69.106,11.045,70.825,10.352,70.825,10.352z"/>
		<path fill="#C63F20" d="M80.687,31.737c0,0,3.397,6.499-2.018,9.239c-3.379,1.71-7.204,1.601-9.604,1.277
			c-1.447-0.195-2.859,0.549-3.529,1.846c-1.982,3.836-6.067,11.133-8.657,11.534c-3.523,0.546-4.306-1.542-4.11-3.042
			c0.196-1.501,4.502-11.894,9.786-15.136c3.079-1.889,9.106-3.588,9.106-3.588L80.687,31.737z"/>
		<rect x="36.615" y="1.461" fill="#311E69" width="6.524" height="62.892"/>
		<rect x="44.682" y="1.461" fill="#311E69" width="2.169" height="62.892"/>
		<rect x="36.615" y="1.461" fill="#311E69" width="10.404" height="1.482"/>
		<path fill="#311E69" d="M68.534,31.537l-8.38-4.489c-0.44-0.235-0.949,0.166-0.822,0.648l1.216,4.643
			c0.081,0.309,0.031,0.637-0.138,0.908l-5.421,8.709L53.815,53.44l6.133,0.976l3.102-20.02c0.075-0.486,0.449-0.872,0.932-0.964
			l4.388-0.829C68.899,32.502,69.009,31.792,68.534,31.537z"/>
		<path fill="#311E69" d="M100.647,42.542V30.213c0-2.823-0.251-5.64-0.749-8.419l-2.115-17.4C97.326,1.851,95.113,0,92.528,0
			L74.345,0C66.91,0,60.311,4.761,57.966,11.816L53.73,30.176c-1.028,3.091-1.551,6.328-1.551,9.585v0.04h2.669V39.43
			c0-3.296,0.536-6.571,1.588-9.695l3.891-17.174c2.028-6.024,7.675-10.081,14.031-10.081h16.412c1.674,0,3.067,1.284,3.204,2.952
			l1.033,18.202c0.106,1.297,0.16,2.597,0.16,3.899v15.01H100.647z"/>
		<path fill="#F46822" d="M115.314,40.976H92.557l-1.526,1.343c-1.119,0.985-2.558,1.528-4.049,1.528H75.594
			c-2.666,0-4.828,2.161-4.828,4.828v2.414c0,1.405-1.139,2.544-2.544,2.544H55.187c-1.467,0-1.909,1.994-0.578,2.613l0,0
			c4.53,2.107,7.652,6.404,8.255,11.364l0.442,3.635c0.236,1.938,1.881,3.395,3.834,3.395h23.916c2.054,0,3.719-1.665,3.719-3.719
			l0,0c0-7.242,5.871-13.113,13.113-13.113h10.137c2.515,0,4.604-1.935,4.8-4.442c0.165-2.103,0.093-4.723-0.702-7.337
			C121.212,43.029,118.449,40.976,115.314,40.976z"/>
		<path fill="#C63F20" d="M63.307,71.245l-0.442-3.635c-0.023-0.187-0.05-0.372-0.08-0.557c4.612,0.209,8.64-1.233,12.821-1.348
			c4.041-0.111,8.279,1.121,10.312,0.412c8.416-2.936,0-3.719,3.327-9.849c3.327-6.131,9.981-6.786,9.981-6.786h23.572
			c0.137,1.394,0.119,2.719,0.028,3.885c-0.197,2.507-2.285,4.442-4.8,4.442h-10.137c-7.242,0-13.113,5.871-13.113,13.113l0,0
			c0,2.054-1.665,3.719-3.719,3.719H67.141C65.188,74.64,63.543,73.183,63.307,71.245z"/>
		<g>
			<path fill="#311E69" d="M46.325,57.75l-0.123-0.528l3.189-0.636c0.235-0.055,0.473-0.101,0.713-0.142l0.097-0.019l0.001,0.003
				c0.887-0.144,1.803-0.195,2.738-0.137c6.781,0.42,11.937,6.258,11.517,13.039c-0.338,5.452-4.179,9.851-9.196,11.148l0,0.002
				l-0.029,0.006c-0.437,0.112-0.883,0.202-1.336,0.266L51.79,81.17l-0.073-0.313c-0.1-0.004-0.199-0.005-0.299-0.011
				c-6.781-0.42-11.937-6.258-11.517-13.039C40.173,63.414,42.721,59.705,46.325,57.75z"/>
			<circle fill="#1E1240" cx="48.538" cy="69.303" r="12.301"/>
			<circle fill="#EAE8FF" cx="48.538" cy="69.303" r="4.95"/>
		</g>
		<path fill="#311E69" d="M57.283,39.193h-4.237c-1.114,0-2.113,0.691-2.502,1.735c-1.028,2.763-2.76,8.261-2.006,12.27l6.44,2.436
			L57.283,39.193z"/>
		<g>
			<path fill="#311E69" d="M37.58,61.09c0.371,0,0.74-0.157,0.998-0.463c2.737-3.244,6.74-5.104,10.984-5.104h6.895
				c0.721,0,1.305-0.584,1.305-1.305c0-0.721-0.584-1.305-1.305-1.305h-6.895c-5.014,0-9.745,2.198-12.979,6.031
				c-0.465,0.551-0.395,1.374,0.156,1.839C36.984,60.989,37.283,61.09,37.58,61.09z"/>
		</g>
		<path fill="#311E69" d="M91.003,27.343c0,0-0.913,15.266-2.349,16.702c-1.435,1.435-16.18,0.913-16.18,0.913v-0.084
			c0-2.124,1.706-3.855,3.83-3.884l5.434-0.077c0,0,1.827-1.435,3.262-1.435c0,0-1.827-6.524,0.783-9.656
			C88.393,26.691,91.003,27.343,91.003,27.343z"/>
		<polygon fill="#311E69" points="38.509,45.369 0,45.369 0,49.457 37.577,49.457 		"/>
		<path fill="#614CD4" d="M71.358,35.237c0.288-2.37-1.506-8.259-1.506-8.259s-3.678-7.774-2.765-9.222
			c2.278-3.615,8.928-5.791,11.49-3.077c0.874,0.926,1.657,2.957,2.235,4.395c1.373,3.418,2.785,13.259,2.785,13.259
			C81.692,33.398,77.094,35.325,71.358,35.237z"/>
		<path fill="#FF6161" d="M71.282,11.65l1.601,2.778c0.075,0.436-2.076,2.029-2.855,1.589c-0.228-0.129-0.24-0.556-0.124-1.04
			l0.727-2.652L71.282,11.65z"/>
		<path fill="#311E69" d="M70.485,12.858c0.467-0.164,1.103-0.396,1.103-0.396s0.083,0.773-0.494,1.459
			c-0.305,0.363-0.696,0.577-1.085,0.669L70.485,12.858z"/>
		<path fill="#FF6161" d="M70.537,10.578l0.95,1.577c0.272,0.544,0.062,1.207-0.474,1.493c-0.429,0.229-0.725,0.297-1.327,0.361
			c-0.501,0.053-0.859-0.358-1.005-0.997c-0.19-0.829-0.13-1.647-0.073-2.082C68.737,9.937,69.842,9.595,70.537,10.578z"/>
		<path fill="#FFFFFF" d="M68.664,12.652c0,0,0.018,0.166,0.172,0.207c0.154,0.041,0.398-0.085,0.451-0.293
			C69.287,12.566,69.036,12.64,68.664,12.652z"/>
		<g>
			<path fill="#AD263D" d="M71.303,12.901c0.147-0.188,0.162-0.56,0.163-0.78l0.021,0.034c0.272,0.544,0.062,1.207-0.474,1.493
				c-0.429,0.229-0.725,0.297-1.327,0.361c-0.306,0.032-0.558-0.109-0.741-0.368C69.046,13.635,70.513,13.906,71.303,12.901z"/>
		</g>
		<path fill="#311E69" d="M70.873,11.396c0,0-0.297,0.045-0.378-0.142c-0.081-0.187-0.223-0.672-0.223-0.672
			s-1.756,0.159-2.105-0.069c-0.349-0.228-0.603-0.654-0.041-0.795c0.563-0.141,2.092,0.049,2.833,0.75
			C71.701,11.169,71.366,11.489,70.873,11.396z"/>
		<path fill="#F46822" d="M68.964,24.983c0.107-1.03,0.163-2.062,0.043-2.598c-0.191-0.853-0.454-4.048-0.612-6.158
			c0.348-0.317,0.728-0.613,1.132-0.885l0.749,5.26l3.156-0.478c-0.034-0.536,0.14-4.643,0.221-6.5
			c0.45-0.086,0.894-0.138,1.327-0.153c-0.178,1.436,0.314,4.53,0.769,6.924c0.385,2.024,1.587,3.799,3.323,4.908l3.78,2.416
			c0.451,2.559,0.747,4.615,0.747,4.615c-1.905,1.065-6.503,2.992-12.239,2.904c0.288-2.37-1.506-8.259-1.506-8.259
			S69.46,26.15,68.964,24.983z"/>
		<path fill="#C63F20" d="M68.394,16.226c0.209-0.19,0.43-0.371,0.66-0.546c0.166,0.753,0.471,2.266,0.541,3.485
			c0.096,1.696-0.763,4.828,1.798,6.916c2.561,2.088,5.431,1.261,3.692,5.176c-0.603,1.357-1.113,2.735-1.609,3.922
			c-0.685,0.047-1.391,0.069-2.116,0.057c0.288-2.37-1.506-8.259-1.506-8.259s-0.392-0.829-0.889-1.996
			c0.107-1.03,0.163-2.062,0.043-2.598C68.815,21.532,68.553,18.337,68.394,16.226z"/>
		<path fill="#FF6161" d="M70.785,11.353c0.035-0.109,0.053-0.221,0.065-0.335c0.022-0.216,0.105-0.531,0.409-0.341
			c0.442,0.277,0.262,1.42-0.28,1.453C70.576,12.155,70.696,11.627,70.785,11.353z"/>
		<path fill="#311E69" d="M78.215,30.941c0,0-2.383,2.449-6.905,2.513c-0.092-0.801-0.257-1.691-0.443-2.548L78.215,30.941z"/>
		<polygon fill="#311E69" points="76.413,18.731 75.996,26.734 79.607,25.603 		"/>
		<path fill="#FF6161" d="M76.784,14.558c3.751-1.158,8.665,10.713,4.549,15.242c-3.379,3.719-16.861,3.249-16.623-0.148
			c0.08-1.147,11.702-3.397,12.418-4.136C77.86,24.76,74.028,15.409,76.784,14.558z"/>
		<path fill="#1E1240" d="M57.377,54.613c-0.058-0.19,0.281-1.514,0.287-1.653c0.023-0.509-0.266-0.949-0.702-1.255
			c-0.275-0.193-1.554-0.904-1.827-0.725c-0.243,0.159,0.153,1.801-0.258,2.122c-0.179,0.14-2.582,0.392-2.905,1.269
			c-0.151,0.41,4.282,2.035,5.158,1.887C57.59,56.18,57.57,55.238,57.377,54.613z"/>
		<path fill="#AD263D" d="M64.725,29.941c1.112-0.849,4.309,0.64,6.1,0.769c1.8,0.13,2.606-0.279,4.445-1.058
			c1.839-0.779,2.076-0.091,4.772-0.961c2.697-0.87,1.392-1.566,1.696-3.262c0.174-0.968,0.659-1.695,1.044-2.141
			c0.319,2.487-0.021,4.941-1.449,6.512C78.053,33.411,65.248,33.073,64.725,29.941z"/>
		<path fill="#FF6161" d="M65.396,29.366c0,0-0.436-0.565-0.962-0.767c-0.767-0.294-1.359-0.263-1.166,0.117
			c0.193,0.38,0.171,0.796-0.237,0.829c-0.408,0.033-1.468-0.783-1.484-0.294c-0.016,0.489,1.435,1.501,2.3,1.631
			C64.711,31.013,66.603,30.507,65.396,29.366z"/>
		<path fill="#F46822" d="M83.3,31.737c0,0,3.397,6.499-2.018,9.239c-3.821,1.933-9.963,0.458-13.249-0.579
			c-1.197-0.377-2.457,0.353-2.721,1.579c-0.938,4.358-2.709,12.028-5.363,12.439c-3.523,0.546-4.763-0.324-4.567-1.824
			c0.196-1.501,1.631-15.047,6.916-18.289c3.079-1.889,11.977-0.435,11.977-0.435L83.3,31.737z"/>
		<g>
			<path fill="#FFD140" d="M56.735,44.873c0.249-1.019,0.539-2.064,0.876-3.088c1.757,1.186,5.416,2.078,7.194,2.46
				c-0.16,0.685-0.335,1.399-0.525,2.117C61.321,46.901,58.164,45.586,56.735,44.873z"/>
			<path fill="#FFD140" d="M56.487,45.937c2.02,1.056,5.863,1.821,7.325,2.086c-0.177,0.587-0.364,1.164-0.561,1.716
				c-2.697,0.575-5.632-0.312-7.317-0.982C56.082,47.894,56.265,46.938,56.487,45.937z"/>
		</g>
		<path fill="#C63F20" d="M55.381,52.591c0.196-1.501,1.631-15.047,6.916-18.289c2.157-1.323,7.17-1.006,9.978-0.697
			c-0.96,0.139-2.15,0.287-3.439,0.393c-3.19,0.261-4.19-0.826-5.169,1.087c-0.978,1.914-2.095,2.656-2.341,5.612
			c-0.246,2.956-0.788,3.64-1.452,6.451c-0.664,2.811-2.741,6.715-3.138,7.286l0,0C55.657,54.154,55.265,53.484,55.381,52.591z"/>
		<g>
			<path fill="#F46822" d="M57.611,41.785c0.824,0.556,2.065,1.048,3.335,1.452c-0.221,0.948-0.5,1.728-0.817,2.899
				c-1.421-0.351-2.645-0.89-3.394-1.263C56.984,43.854,57.274,42.809,57.611,41.785z"/>
			<path fill="#F46822" d="M55.991,48.433c0-0.002,0.001-0.003,0.001-0.005c0.019-0.107,0.038-0.215,0.058-0.324
				c0.001-0.005,0.002-0.009,0.003-0.014c0.019-0.103,0.038-0.207,0.058-0.312c0.002-0.012,0.004-0.024,0.007-0.036
				c0.018-0.097,0.037-0.195,0.056-0.294c0.004-0.02,0.008-0.04,0.012-0.06c0.018-0.095,0.038-0.191,0.057-0.287
				c0.005-0.023,0.009-0.046,0.014-0.069c0.019-0.095,0.039-0.191,0.059-0.288c0.005-0.024,0.01-0.049,0.015-0.073
				c0.022-0.104,0.044-0.209,0.066-0.315c0.004-0.016,0.007-0.033,0.01-0.049c0.026-0.123,0.053-0.246,0.081-0.37
				c0.893,0.467,2.143,0.877,3.386,1.212l0,0c-0.187,0.791-0.486,1.669-0.827,2.534c-1.214-0.236-2.306-0.605-3.112-0.926
				C55.952,48.651,55.971,48.542,55.991,48.433z"/>
		</g>
		<g>
			<path fill="#311E69" d="M104.265,57.75l-0.123-0.528l3.189-0.636c0.235-0.055,0.473-0.101,0.713-0.142l0.097-0.019l0.001,0.003
				c0.887-0.144,1.803-0.195,2.738-0.137c6.781,0.42,11.937,6.258,11.517,13.039c-0.338,5.452-4.179,9.851-9.196,11.148l0,0.002
				l-0.029,0.006c-0.437,0.112-0.883,0.202-1.336,0.266l-2.105,0.419l-0.073-0.313c-0.1-0.004-0.199-0.005-0.299-0.011
				c-6.781-0.42-11.937-6.258-11.517-13.039C98.114,63.414,100.662,59.705,104.265,57.75z"/>
			<circle fill="#1E1240" cx="106.479" cy="69.303" r="12.301"/>
			<circle fill="#EAE8FF" cx="106.479" cy="69.303" r="4.95"/>
		</g>
	</g>
</g>
</svg>
