<?xml version="1.0" encoding="utf-8"?>
<!-- Generator: Adobe Illustrator 17.0.0, SVG Export Plug-In . SVG Version: 6.00 Build 0)  -->
<!DOCTYPE svg PUBLIC "-//W3C//DTD SVG 1.1//EN" "http://www.w3.org/Graphics/SVG/1.1/DTD/svg11.dtd">
<svg version="1.1" id="Слой_1" xmlns="http://www.w3.org/2000/svg" xmlns:xlink="http://www.w3.org/1999/xlink" x="0px" y="0px"
	 width="99px" height="90.5px" viewBox="0 0 99 90.5" enable-background="new 0 0 99 90.5" xml:space="preserve">
<g>
	<defs>
		<path id="SVGID_1_" d="M0.087,44.251c0,0,5.223-41.786,31.726-51.791c26.502-10.005,62.336,0.156,68.32,16.997
			c5.984,16.84,12.675,76.239-9.904,82.179c-22.579,5.94-61.252,7.275-71.887,0.204C7.707,84.767-0.969,57.369,0.087,44.251z"/>
	</defs>
	<clipPath id="SVGID_2_">
		<use xlink:href="#SVGID_1_"  overflow="visible"/>
	</clipPath>
	<g clip-path="url(#SVGID_2_)">
		<g>
			<path fill="#FFD140" d="M58.835,22.042c2.289-3.464,3.965-7.867,2.911-10.302c-0.974-2.25-2.409-2.71-2.409-2.71
				s-9.789,9.388-7.691,16.592c0,0,2.113,9.188,9.078,6.957C64.579,31.344,61.186,25.438,58.835,22.042z"/>
			<path fill="#D18C42" d="M61.746,11.74c-0.417-0.964-0.919-1.598-1.357-2.009c-0.987,1.293-2.066,3.087-2.01,4.714
				c0.102,2.971-1.474,4.564-2.624,5.998c-1.15,1.434,0.725,5.68,2.23,9.477c0.425,1.072,0.702,2.085,0.966,2.998
				c0.553-0.03,1.142-0.136,1.772-0.338c3.855-1.235,0.463-7.141-1.889-10.537C61.124,18.578,62.799,14.175,61.746,11.74z"/>
			<path fill="#311E69" d="M59.336,12.721c0,0,0.542,4.282,1.021,6.685c0.689-1.383,1.225-2.797,1.501-4.098L59.336,12.721z"/>
			<path fill="#FFD140" d="M77.677,18.989c-2.858-7.256-4.714-9.801-7.824-11.711c-3.505-2.152-8.151-0.535-10.246,1.462
				c-3.346,3.189,4.461,7.898,2.622,14.124c-0.313,1.058-3.618,9.716-5.037,14.597c-3.602,12.392,0.622,35.126,1.262,42.404
				c0.061,0.698,0.528,1.296,1.192,1.52c1.332,0.449,3.235,0.405,5.38-0.251c0.876-0.268,2.129-0.887,2.044-1.799
				c-0.518-5.567-1.208-17.26-0.79-27.081c0.34-7.991,1.635-14.77,2.561-15.778c0,0-0.322,14.226,0.148,18.937
				c0.615,6.168,4.36,22.544,4.52,24.38c0.041,0.476,0.357,0.878,0.801,1.055c1.457,0.583,3.574,1.177,5.956,0.141
				c1.825-0.794-0.044-29.617-0.044-29.617S80.074,25.073,77.677,18.989z"/>
			<path fill="#311E69" d="M75.723,81.71c0.127-0.202,0.205-0.765,0.246-0.972c1.293,0.182,2.142,0.375,2.654,0.197
				c0.101,0.493,1.596,3.068,0.988,3.41c-1.162,0.655-8.072,0.682-8.073,0C71.537,83.43,75.536,82.007,75.723,81.71z"/>
			<path fill="#311E69" d="M63.634,81.71c0.127-0.202,0.205-0.765,0.246-0.972c1.293,0.182,2.599-3.064,2.91-0.191
				c0.101,0.493,1.34,3.455,0.732,3.798c-1.162,0.655-8.072,0.682-8.073,0C59.449,83.43,63.448,82.007,63.634,81.71z"/>
			<path fill="#D18C42" d="M77.677,18.989c-2.858-7.256-4.713-9.801-7.824-11.711c-0.005-0.003-0.011-0.006-0.016-0.01
				c-0.642-0.392-1.402,0.301-1.1,0.99c0.954,2.179,2.839,5.585,2.563,7.141c-0.372,2.096,1.977,6.637,3.737,8.283
				c1.761,1.646,1.98,3.663,0.835,7.115c0,0-2.28,3.451-0.226,8.442c2.054,4.991,1.672,8.875,0.934,15.587
				c-0.586,5.327-1.043,20.002,0.506,26.709c0.972,0.069,2.046-0.052,3.181-0.546c1.825-0.794-0.044-29.617-0.044-29.617
				S80.074,25.073,77.677,18.989z"/>
			<path fill="#311E69" d="M77.479,18.49c-0.587-1.469-1.133-2.737-1.658-3.841l-2.71-0.204
				C73.111,14.445,74.283,18.113,77.479,18.49z"/>
			<path fill="#FFD140" d="M68.843,6.77c0,0,10.906,3.199,16.471,10.072c5.565,6.872,1.655,11.49-2.263,13.946
				c-5.618,3.522-9.181-0.288-9.157-3.727c0.024-3.439,6.642-4.822,5.734-7.356c-1.336-3.727-12.552-7.73-12.808-8.987
				C66.564,9.46,68.843,6.77,68.843,6.77z"/>
			<path fill="#4CB4D4" d="M73.981,27.333c0,0-1.37-0.235-2.113-0.274c-0.744-0.039-0.021,0.953-0.548,1.409
				c-1.174,1.018,0.665,1.526,1.409,1.683c0.744,0.157,2.387-1.252,2.544-1.957C75.429,27.49,73.981,27.333,73.981,27.333z"/>
			<path fill="#4CB4D4" d="M62.066,30.084c0,0,1.662,0.764,2.246,1.617c0.584,0.853-0.343,1.572-1.429,1.617
				c-1.086,0.045-1.207,0.171-1.887-0.745C60.315,31.656,59.641,29.276,62.066,30.084z"/>
			<path fill="#D18C42" d="M64.493,44.426c-0.58,3.027-1.641,12.293-3.127,20.491c-1.278,7.053-3.062,13.231-2.911,14.947
				c0.061,0.698,0.528,1.296,1.192,1.52c1.332,0.449,3.235,0.405,5.38-0.251c0.876-0.268,2.129-0.887,2.044-1.799
				c-0.518-5.567-1.208-17.26-0.79-27.081c0.34-7.991,1.635-14.77,2.561-15.778C68.843,36.475,65.678,38.243,64.493,44.426z"/>
			<path fill="#614CD4" d="M59.84,4.379c0,0-0.579-1.4,0.659-2.043c1.753-0.91,3.166,0.826,3.147,1.675
				c-0.027,1.188-0.82,1.182-1.602,1.084C61.263,4.997,59.84,4.379,59.84,4.379z"/>
			<path fill="#1E1240" d="M62.582,3.87c0,0-2.094-1.118-3.075-0.96c-1.341,0.217-1.292,1.459-0.849,1.86
				c0.443,0.401,2.073,0.814,2.424,0.684C61.434,5.325,62.582,3.87,62.582,3.87z"/>
			<g>
				<path fill="#FF6161" d="M63.203,5.001l2.403,2.81c0.187,0.456-1.768,2.711-2.722,2.421c-0.279-0.085-0.396-0.547-0.387-1.102
					l0.149-3.063L63.203,5.001z"/>
				<path fill="#311E69" d="M62.615,6.684c0.469-0.291,1.105-0.698,1.105-0.698s0.278,0.821-0.184,1.707
					c-0.244,0.469-0.618,0.796-1.018,0.99L62.615,6.684z"/>
				<g>
					<path fill="#311E69" d="M60.105,5.041c0,0-0.542-0.172-0.375-1.037c0.167-0.865,3.227-0.271,3.668,0.305
						c0.656,0.858,0.589,1.609,0.589,1.609S60.764,6.095,60.105,5.041z"/>
					<path fill="#FF6161" d="M62.12,4.19l1.416,1.486c0.427,0.527,0.36,1.299-0.155,1.74c-0.411,0.353-0.717,0.499-1.356,0.714
						c-0.532,0.179-1.021-0.181-1.336-0.841c-0.408-0.856-0.54-1.76-0.584-2.248C60.005,3.929,61.126,3.289,62.12,4.19z"/>
					<path fill="#FFFFFF" d="M61.676,5.976c0,0-0.368,0.301-0.991,0.509c0,0,0.167,0.391,0.463,0.413
						C61.445,6.921,61.755,6.5,61.676,5.976z"/>
					<g>
						<path fill="#AD263D" d="M61.556,7.55c0.51-0.381,1.344,0.268,1.96-1.018c0.115-0.24,0.041-0.649-0.012-0.888l0.031,0.033
							c0.427,0.527,0.36,1.299-0.155,1.74c-0.411,0.353-0.717,0.499-1.356,0.714C61.7,8.24,61.392,8.147,61.129,7.91
							C61.237,7.878,61.401,7.667,61.556,7.55z"/>
					</g>
					<path fill="#FF6161" d="M62.546,4.749c-0.032-0.24,0.08-0.719,0.459-0.591c0.551,0.186,0.712,1.35,0.133,1.526
						C62.707,5.814,62.562,4.875,62.546,4.749z"/>
				</g>
			</g>
			<path fill="#8AE9FF" d="M60.466,6.078c0.045-0.253,0.274-0.429,0.529-0.406c0.434,0.038,1.097,0.148,1.501,0.462
				c0.639,0.497,0.72,1.196,0.13,1.622c-0.59,0.427-1.553,0.585-1.916,0.05C60.34,7.261,60.385,6.533,60.466,6.078z"/>
			<g>
				<path fill="#8AE9FF" d="M61.794,6.342c-0.058,0.031-0.131,0.022-0.179-0.027c-0.06-0.06-0.061-0.157-0.001-0.217
					c0.011-0.011,0.446-0.62,0.927-2.155c0.026-0.081,0.111-0.126,0.193-0.101c0.081,0.025,0.126,0.112,0.101,0.192
					c-0.504,1.609-0.954,2.231-1.002,2.279C61.82,6.326,61.807,6.335,61.794,6.342z"/>
			</g>
			<g>
				<path fill="#8AE9FF" d="M60.712,6.795c-0.014-0.002-0.028-0.007-0.041-0.013l-0.515-0.25c-0.076-0.037-0.108-0.129-0.071-0.205
					c0.037-0.076,0.127-0.109,0.205-0.071l0.515,0.25c0.076,0.037,0.108,0.129,0.071,0.205C60.846,6.774,60.778,6.806,60.712,6.795z
					"/>
			</g>
			<path fill="#D18C42" d="M85.314,16.841c-3.757-4.639-9.944-7.602-13.57-9.04c0.026,0.925,0.487,2.368,2.895,3.102
				c3.717,1.133,7.362,3.256,8.106,5.876c0.743,2.619-1.593-0.85,0.46,3.858c2.053,4.708-2.923,7.019-5.345,8.035
				c-1.008,0.423-2.323,0.476-3.459,0.668c1.169,2.498,4.29,4.18,8.649,1.447C86.969,28.331,90.879,23.714,85.314,16.841z"/>
		</g>
		<g>
			<polygon fill="#311E69" points="-21.33,84.692 -21.33,41.98 -27.48,41.98 -27.48,84.692 -31.424,84.692 -31.424,88.414 
				-17.387,88.414 -17.387,84.692 			"/>
			<polygon fill="#311E69" points="29.07,84.692 29.07,41.98 22.92,41.98 22.92,84.692 18.977,84.692 18.977,88.414 33.014,88.414 
				33.014,84.692 			"/>
			<polygon fill="#311E69" points="79.471,84.692 79.471,41.98 73.321,41.98 73.321,84.692 69.377,84.692 69.377,88.414 
				83.415,88.414 83.415,84.692 			"/>
		</g>
		<g>
			<g>
				<path fill="#2E88BF" d="M12.919,21.502c0,0,2.946-3.436,8.633-2.36c5.687,1.076,4.136,2.662,4.998,3.417
					c0.862,0.755,6.725,0.906,7.8,0.755c1.075-0.151,8.491-0.472,12.021-1.331c3.53-0.859,12.836,0.047,14.042,0.727
					c1.206,0.68,10.684,4.909,9.133,5.589c-1.551,0.68-60.573,0-60.573,0L12.919,21.502z"/>
				<g>
					<path fill="#B1A9FF" d="M63.934,18.873c-0.572,0.241-1.343,0.463-2.137,0.391c-1.587-0.145-1.543-0.917-2.654-1.504
						c-1.111-0.588-3.521-0.975-4.486-0.23c-0.964,0.744-0.858,1.47-1.744,1.491c-0.48,0.012-0.813-0.078-1.018-0.162
						c-0.137-0.057-0.292,0.02-0.326,0.164l-0.032,0.135l-0.32,1.349l-0.032,0.135c-0.034,0.144,0.07,0.282,0.218,0.293
						c0.221,0.016,0.559,0.086,0.982,0.312c0.781,0.417,0.361,1.018,0.888,2.116c0.527,1.098,2.854,1.835,4.111,1.809
						c1.257-0.026,1.564-0.735,3.047-0.152c0.742,0.292,1.33,0.837,1.734,1.309c0.51,0.597,1.204,1.01,1.969,1.191l3.546,0.633
						c0.86,0.204,1.722-0.328,1.926-1.188l1.262-5.318c0.204-0.86-0.328-1.722-1.188-1.926l-3.453-1.028
						C65.463,18.512,64.659,18.568,63.934,18.873z"/>
					<g>
						<path fill="#614CD4" d="M62.23,22.52c-0.854-0.85-1.784-0.021-4.286,0.41c-2.502,0.432-4.096-2.03-4.673-2.768
							c-0.277-0.355-1.067-0.56-1.811-0.677l-0.242,1.02l-0.032,0.135c-0.034,0.144,0.07,0.282,0.218,0.293
							c0.221,0.016,0.559,0.086,0.982,0.312c0.781,0.417,0.361,1.018,0.888,2.116c0.527,1.098,2.854,1.835,4.111,1.809
							c1.257-0.026,1.564-0.735,3.047-0.152c0.742,0.292,1.33,0.837,1.734,1.309c0.51,0.597,1.204,1.01,1.969,1.191l3.546,0.633
							c0.86,0.204,1.722-0.328,1.927-1.188l0.662-2.788c-1.119,0.493-2.654,0.865-4.254,0.703
							C63.262,24.601,63.083,23.371,62.23,22.52z"/>
					</g>
				</g>
				<path fill="#B1A9FF" d="M42.819,27.656c1.997-2.29,4.062-2.463,4.874-2.371c0.811,0.092,1.724-0.087,1.724-0.087l-0.074-1.468
					l-0.121-2.396c0,0-0.926-0.086-1.724,0.087c-0.798,0.173-2.87,0.21-5.088-1.867c-1.525-1.428-7.749-0.822-11.49-0.303
					c-1.636,0.227-2.827,1.667-2.744,3.316l0.112,2.226l0.066,1.298c0.083,1.65,1.413,2.962,3.064,3.023
					C35.192,29.254,41.446,29.23,42.819,27.656z"/>
				<g>
					<polygon fill="#D18C42" points="-11.221,9.456 4.016,8.153 20.951,10.306 14.268,16.253 3.166,19.142 					"/>
					<polygon fill="#D3AC40" points="-18.921,26.843 -11.221,9.456 4.865,12.175 3.472,15.687 4.865,14.554 4.865,17.159 
						8.765,13.081 14.268,16.253 6.48,26.843 					"/>
					<polygon fill="#BA7332" points="20.951,10.306 13.191,26.843 6.48,26.843 14.268,16.253 					"/>
				</g>
			</g>
			<g>
				<path fill="#311E69" d="M89.877,26.843H-38.627v15.811H89.877c4.348,0,7.906-3.558,7.906-7.906
					C97.783,30.4,94.225,26.843,89.877,26.843z"/>
				<g>
					<path fill="#B1A9FF" d="M-32.372,34.748c0,2.658-2.155,4.813-4.813,4.813s-3.369-2.155-3.369-4.813s0.711-4.813,3.369-4.813
						S-32.372,32.09-32.372,34.748z"/>
					<circle fill="#311E69" cx="-37.185" cy="34.748" r="1.805"/>
				</g>
				<g>
					<circle fill="#B1A9FF" cx="-21.409" cy="34.748" r="4.813"/>
					<circle fill="#311E69" cx="-21.409" cy="34.748" r="1.805"/>
				</g>
				<g>
					<circle fill="#B1A9FF" cx="-5.634" cy="34.748" r="4.813"/>
					<circle fill="#311E69" cx="-5.634" cy="34.748" r="1.805"/>
				</g>
				<g>
					<circle fill="#B1A9FF" cx="10.141" cy="34.748" r="4.813"/>
					<circle fill="#311E69" cx="10.141" cy="34.748" r="1.805"/>
				</g>
				<g>
					<circle fill="#B1A9FF" cx="25.916" cy="34.748" r="4.813"/>
					<circle fill="#311E69" cx="25.916" cy="34.748" r="1.805"/>
				</g>
				<g>
					<circle fill="#B1A9FF" cx="41.692" cy="34.748" r="4.813"/>
					<circle fill="#311E69" cx="41.692" cy="34.748" r="1.805"/>
				</g>
				<g>
					<circle fill="#B1A9FF" cx="57.467" cy="34.748" r="4.813"/>
					<circle fill="#311E69" cx="57.467" cy="34.748" r="1.805"/>
				</g>
				<g>
					<circle fill="#B1A9FF" cx="73.242" cy="34.748" r="4.813"/>
					<circle fill="#311E69" cx="73.242" cy="34.748" r="1.805"/>
				</g>
				<g>
					<circle fill="#B1A9FF" cx="89.017" cy="34.748" r="4.813"/>
					<circle fill="#311E69" cx="89.017" cy="34.748" r="1.805"/>
				</g>
			</g>
		</g>
		<g>
			<g>
				<path fill="#FF6161" d="M30.808,86.626c-0.271-0.84-1.473-1.437-1.473-1.437l0.064-1.688l-3.301-0.286l0.184,2.441
					c0,0,0.333,0.769,1.36,1.298C28.973,87.64,31.079,87.466,30.808,86.626z"/>
				<path fill="#311E69" d="M32.827,88.515c0-0.853-0.616-1.59-1.294-2.143c-0.86-0.701-1.899-1.147-2.991-1.345
					c-0.577-0.105-1.263-0.2-1.85-0.2c-0.592,0-0.9,0.52-1.032,0.839c-0.072,0.172-0.157,0.338-0.258,0.495
					c-0.304,0.469-0.856,1.483-0.405,2.09C25.844,89.393,32.902,88.918,32.827,88.515z"/>
			</g>
			<path fill="#FF6161" d="M36.431,6.071c0,0,0.098,1.925,0.066,2.895c-0.033,0.97-0.264,1.829-1.216,1.89
				c-0.667,0.043-2.056-1.182-1.615-2.385C34.106,7.269,36.431,6.071,36.431,6.071z"/>
			<g>
				<path fill="#AD263D" d="M34.644,9.944c0.846,0.269,1.471,0.073,1.723-0.037c-0.153,0.528-0.466,0.909-1.087,0.949
					c-0.497,0.032-1.391-0.638-1.635-1.478C33.981,9.63,34.329,9.844,34.644,9.944z"/>
			</g>
			<g>
				<path fill="#FF6161" d="M45.686,86.626c-0.271-0.84-1.473-1.437-1.473-1.437l0.063-1.688l-3.301-0.286l0.184,2.441
					c0,0,0.333,0.769,1.36,1.298C43.851,87.64,45.957,87.466,45.686,86.626z"/>
				<path fill="#311E69" d="M47.705,88.515c0-0.853-0.616-1.59-1.294-2.143c-0.86-0.701-1.899-1.147-2.991-1.345
					c-0.577-0.105-1.263-0.2-1.85-0.2c-0.592,0-0.9,0.52-1.032,0.839c-0.072,0.172-0.157,0.338-0.258,0.495
					c-0.304,0.469-0.856,1.483-0.405,2.09C40.722,89.393,47.78,88.918,47.705,88.515z"/>
			</g>
			<path fill="#FF6161" d="M31.023,10.901c0,0,0.698-1.209,1.402-2.008c0.617-0.7,1.196-0.999,1.881-1.056
				c1.469-0.122,0.377,5.118-0.311,5.207C33.307,13.131,31.023,10.901,31.023,10.901z"/>
			<path fill="#311E69" d="M32.718,9.677C32.535,9.575,32.224,8.8,32.224,8.8s-1.023-1.965,0.158-3.469
				c0.689-0.877,1.471-0.682,1.471-0.682s2.253,0.492,2.923,1.313c0.485,0.594-0.59,1.108-0.579,1.229
				c0.063,0.686-0.049,1.576-0.267,1.436c-0.219-0.14-0.577-0.218-0.955,0.236C34.595,9.317,33.241,9.971,32.718,9.677z"/>
			<path fill="#FFD140" d="M47.631,57.218c-0.517-5.088-5.369-21.208-5.378-25.178c-0.016-6.666,2.024-12.631-0.849-16.663
				c-3.762-5.277-14.416-7.202-17.425-1.3c-1.125,2.206-2.176,8.518-2.343,12.835c-0.532,13.788,4.191,31.948,4.067,33.573
				c-0.166,2.175-2.31,21.905-0.98,22.73c1.329,0.825,5.234,1.501,6.979,0.504c1.745-0.997,3.937-19.193,4.128-23.347
				c0.061-1.318-0.689-4.088-0.651-6.844c1.138,3.163,4.187,7.802,4.41,9.927c0.723,6.885-1.045,17.213-0.124,19.76
				c0.583,1.612,4.737,2.574,6.528,0C47.179,81.507,49.774,78.315,47.631,57.218z"/>
			<path fill="#FF6161" d="M35.929,8.802c0,0,0.209-0.437-0.109-0.761c-0.318-0.324-0.683,0.1-0.574,0.861
				C35.356,9.663,35.727,9.537,35.929,8.802z"/>
			<path fill="#4CB4D4" d="M36.534,8.276c0,0,0.593,0.662,0.366,1.647c-0.226,0.985-1.385,1.132-1.673,0.856
				c-0.288-0.276,0.745-0.648,0.947-1.19C36.367,9.067,36.534,8.276,36.534,8.276z"/>
			<g>
				<path fill="#4CB4D4" d="M36.63,9.22c-0.067,0-0.133-0.035-0.168-0.098c-0.01-0.017-0.969-1.702-1.585-2.176
					c-0.722-0.555-2.699-1.189-2.718-1.195C32.056,5.718,32,5.609,32.032,5.507c0.033-0.102,0.142-0.158,0.243-0.126
					c0.084,0.027,2.062,0.661,2.837,1.258c0.678,0.521,1.645,2.22,1.686,2.292c0.053,0.093,0.02,0.211-0.073,0.264
					C36.695,9.212,36.662,9.22,36.63,9.22z"/>
			</g>
			<path fill="#D18C42" d="M45.991,83.215c1.188-1.708,3.783-4.9,1.64-25.997c-0.517-5.088-5.369-21.208-5.378-25.178
				c-0.016-6.666,2.024-12.631-0.849-16.663c-1.513-2.122-4.14-3.7-6.936-4.447c0.572,0.73,1.08,1.863,1.145,3.628
				c0.158,4.264-3.168,6.719-2.894,12.274c0.274,5.556,5.785,10.175,7.859,19.187c0.691,3.002-1.665,4.781-0.426,9.69
				c1.239,4.91,3.048,10.401,1.95,18.186c-0.711,5.042,0.02,8.849,0.623,10.907C43.933,84.802,45.195,84.359,45.991,83.215z"/>
			<path fill="#311E69" d="M42.938,21.484c-2.117-1.353-4.75-1.055-4.75-1.055s0.344,7.469,2.67,10.328
				c0.456,0.561,0.93,1.001,1.397,1.351c0-0.022-0.002-0.048-0.003-0.069C42.243,28.212,42.911,24.617,42.938,21.484z"/>
			<g>
				<path fill="#1E1240" d="M35.637,7.149c0,0,3.816-1.569,2.641-2.348c-1.12-0.743-3.731,0.738-4.365,1.211
					C33.278,6.484,35.637,7.149,35.637,7.149z"/>
				<path fill="#4CB4D4" d="M31.881,7.748c0,0,1.135,0.471,2.226,0.171c1.091-0.301,2.306-1.08,2.313-1.585
					c0.006-0.505-0.337-2.345-1.8-2.488C33.158,3.703,30.886,5.073,31.881,7.748z"/>
				<path fill="#2E88BF" d="M31.881,7.748c-0.548-1.471-0.106-2.546,0.644-3.194c-0.053,0.177-0.038,0.384,0.087,0.624
					c0.592,1.135,0.303,0.79,0.968,1.278c0.665,0.488,1.172-0.038,1.366,0.803c0.023,0.1,0.02,0.218-0.003,0.348
					c-0.273,0.127-0.559,0.235-0.837,0.312C33.016,8.22,31.881,7.748,31.881,7.748z"/>
			</g>
			<path fill="#FFD140" d="M39.947,13.78c0,0,13.813,11.297,12.435,15.341c-2.077,6.094-10.362,0.431-13.124-4.465
				C36.497,19.759,39.947,13.78,39.947,13.78z"/>
			<path fill="#D18C42" d="M32,58.1c0.605,4.005,2.48,6.654,0.702,9.432c-1.777,2.778-2.778,0.253-3.876,7.069
				c-0.719,4.46-1.055,6.398-1.566,9.434c1.577,0.276,3.395,0.281,4.44-0.316c1.745-0.997,3.937-19.193,4.128-23.347
				c0.061-1.318-0.689-4.088-0.651-6.844C35.177,53.529,31.395,54.095,32,58.1z"/>
			<path fill="#D18C42" d="M52.284,27.424c-1.15,0.809-2.78,1.673-3.702,0.894c-1.53-1.292-2.863-0.969-5.77-2.196
				c-2.907-1.227-0.969-1.034-2.235-3.876c-0.784-1.761-1.715-2.727-2.311-3.209c-0.207,1.775-0.048,3.773,0.992,5.618
				c2.762,4.897,11.047,10.559,13.124,4.465C52.544,28.646,52.494,28.07,52.284,27.424z"/>
		</g>
	</g>
</g>
</svg>
