<svg xmlns="http://www.w3.org/2000/svg" width="62.141" height="14.308" viewBox="0 0 62.141 14.308"><path fill="#857362" d="M1.099 3.004c2.631-1.678 9.579.142 11.418 2.542s1.197 5.705-1.433 7.382S4.83 14.02 2.991 11.62s-4.523-6.939-1.892-8.616z"/><path fill="#C4B17A" d="M25 8.014c.835-3.006 7.22-6.297 10.192-5.741 2.972.556 4.704 3.443 3.868 6.449s-3.922 4.993-6.894 4.437S24.165 11.02 25 8.014z"/><path fill="#B9C4A7" d="M60.191.584c2.347 2.056 2.544 9.236.755 11.673-1.789 2.437-5.142 2.746-7.488.69-2.347-2.056-2.799-5.699-1.01-8.136s5.397-6.283 7.743-4.227z"/></svg>