<svg xmlns="http://www.w3.org/2000/svg" width="18.749" height="16.94" viewBox="0 0 18.749 16.94"><path d="M18.677 8.823c.02-.054.026-.108.036-.164.01-.054.027-.104.029-.159 0-.01.006-.019.006-.029s-.006-.019-.006-.029c-.002-.055-.018-.105-.029-.159-.011-.056-.016-.11-.036-.164-.007-.019-.012-.038-.021-.056-.022-.049-.06-.089-.091-.135-.026-.039-.037-.083-.069-.119-.006-.009-.016-.012-.023-.02a.872.872 0 0 0-.043-.043c-.008-.007-.01-.017-.018-.024L9.979.251a1.001 1.001 0 0 0-1.327 1.497l6.459 5.722H1a1 1 0 0 0 0 2h14.111l-6.459 5.721a1 1 0 0 0 .664 1.749c.235 0 .472-.083.663-.251l8.433-7.47c.008-.007.011-.017.018-.024a.913.913 0 0 0 .044-.044c.007-.007.017-.009.023-.017.032-.036.044-.081.069-.119.03-.046.069-.086.091-.135.008-.019.013-.038.02-.057z"/></svg>