<svg xmlns="http://www.w3.org/2000/svg" viewBox="0 0 18.749 16.94"><path d="M.071 8.118c-.02.054-.026.108-.036.164-.011.053-.027.104-.029.158 0 .011-.006.019-.006.03s.006.019.006.029c.002.055.018.105.029.159.011.056.016.11.036.164.007.019.012.038.021.056.022.049.06.089.091.135.025.039.037.084.068.12.007.008.017.011.024.018l.044.043c.008.007.01.017.018.024l8.433 7.471a1.001 1.001 0 0 0 1.327-1.497L3.637 9.47h14.112a1 1 0 0 0 0-2H3.637l6.459-5.721A1 1 0 1 0 8.77.251L.337 7.721c-.008.007-.011.017-.018.024a.62.62 0 0 0-.044.045c-.007.007-.017.009-.024.017-.031.036-.043.08-.069.119-.03.046-.069.086-.091.135-.008.019-.013.038-.02.057z"/></svg>