<svg xmlns="http://www.w3.org/2000/svg" width="25.557" height="22.893" viewBox="0 0 25.557 22.893"><path d="M18.837 2.582a.663.663 0 1 0-.001 1.326 2.816 2.816 0 0 1 2.812 2.812.663.663 0 0 0 1.326 0l-.001-.002a4.141 4.141 0 0 0-4.136-4.136z"/><path d="M18.836 0a6.568 6.568 0 0 0-3.21.848 6.045 6.045 0 0 0-.463.258l-.145.094a5.613 5.613 0 0 0-1.746 1.758l-.074.124a6.991 6.991 0 0 0-.418.744 5.783 5.783 0 0 0-.367-.643l-.144-.246a5.525 5.525 0 0 0-1.707-1.723l-.265-.169a5.253 5.253 0 0 0-.334-.181C8.93.291 7.839 0 6.721 0A6.728 6.728 0 0 0 0 6.72v.359c0 7.292 11.39 15.813 12.779 15.813s12.779-8.521 12.779-15.813V6.72A6.73 6.73 0 0 0 18.836 0zm5.395 7.079c0 6.277-9.801 13.815-11.453 14.466-1.652-.651-11.452-8.188-11.452-14.466V6.72a5.4 5.4 0 0 1 5.395-5.394c.891 0 1.765.235 2.631.715.098.047.192.101.339.189l.131.085c.551.355.995.799 1.355 1.363l.069.124c.569.88.869 1.889.869 2.918a.663.663 0 0 0 1.326 0c0-1.029.3-2.038.869-2.918l.104-.164c.325-.524.77-.968 1.321-1.323l.184-.118c.095-.054.188-.108.318-.173.834-.463 1.708-.698 2.599-.698a5.4 5.4 0 0 1 5.395 5.394v.359z"/></svg>