<svg xmlns="http://www.w3.org/2000/svg" width="569.383" height="494.277" viewBox="0 0 569.383 494.277"><path fill="#E6EBDD" d="M444.709 362.477c-57.542 76.33-276.476 98.52-354.968 49.34S-5.734 260.892 51.808 184.562s167.82-98.34 246.312-49.16 204.131 150.745 146.589 227.075z"/><path fill="#8ACCD5" d="M443.686 347.39c-20.431 26.83-53.79 42.045-84.897 52.611-38.793 13.176-79.919 19.766-120.761 21.798-37.835 1.882-77.056-.007-113.574-10.799-38.187-11.285-69.938-37.984-88.59-73.164-21.386-40.336-21.77-88.827-4.372-130.616 18.454-44.325 55.947-78.913 99.924-97.213 42.777-17.8 92.035-19.52 135.573-3.431 20.57 7.602 38.805 19.985 56.738 32.377 18.688 12.913 36.745 26.763 53.904 41.652 42.915 37.239 110.338 107.184 66.055 166.785-.933 1.255 1.325 1.805 2.046.834 10.443-14.056 15.748-30.537 14.638-48.07-1.142-18.029-8.698-35.115-17.928-50.389-22.94-37.964-58.19-68.52-93.141-95.088-16.912-12.856-34.454-25.059-52.598-36.117-18.653-11.368-39.535-18.767-61.025-22.462-43.47-7.475-89.129 1.489-127.396 23.076-39.723 22.408-71.124 59.486-84.751 103.173-12.819 41.095-7.873 86.31 13.953 123.429 19.41 33.011 50.901 56.888 87.468 67.502 35.558 10.322 73.628 12.1 110.426 10.551 40.388-1.7 80.966-8.196 119.491-20.564 30.941-9.933 63.158-24.23 85.509-48.596 1.889-2.059 3.661-4.223 5.353-6.446.948-1.242-1.314-1.793-2.045-.833z"/><path fill="#FFF" d="M231.776 180.401c-6.934-.595-13.915-.582-20.851-1.177-4.246-.367-4.174 5.788.016 6.146 6.934.597 13.917.581 20.848 1.179 4.247.364 4.173-5.788-.013-6.148z"/><path fill="#BC8074" d="M262.062 219.566c-.156-16.077-24.568 12.595-28.582 14.692 1.239 3.173 7.94 18.718 7.94 18.718s20.798-17.2 20.642-33.41z"/><path fill="#6382AB" d="M210.957 172.551c5.221.086 15.543.078 19.651 3.506 4.58 3.822 6.299 13.609 7.316 19.231.874 4.822-4.574 8.803-7.898 12.668a43.256 43.256 0 0 1-4.526 4.548c-3.804 3.278-8.354 7.734-13.321 3.732-4.704-3.791-14.935-32.554-13.992-39.231.833-5.882 8.831-4.518 12.77-4.454z"/><path fill="#7DACD1" d="M212.941 188.977c.754-.268 1.511-.52 2.271-.745 1.757-.519 3.418-1.239 5.213-1.631 1.572-.342 4.532-1.974 5.321 2.297.393 2.131-.84 2.654-1.98 3.524-2.639 2.013-5.666 3.171-8.686 3.881-2.223.524-4.397 1.657-6.819 1.269-1.24-.2-1.806 1.02-2.902-1.321-2.473-5.269 5.796-6.634 7.582-7.274z"/><path fill="#587489" d="M215.053 207.216c2.452-1.148 4.92-2.594 7.225-4.037.052-.033.105-.066.157-.103 2.268-1.474 4.892-4.285 7.602-4.702 4.888-.751 2.991 5.101 1.117 7.11-2.521 2.705-5.448 4.908-8.109 7.39-2.504 2.333-5.423 4.44-9.129 1.236-3.683-3.18-1.969-5.436 1.137-6.894z"/><path fill="#5B7896" d="M246.929 193.389c.106-.213.224-.416.354-.609 1.5-2.248 4.654-1.973 6.564-.132 1.978 1.906 1.134 4.788 1.71 7.21 2.35 9.895 8.495 17.488 18.785 19.514 11.183 2.203 23.271 3.905 34.47.899 3.082-.826 7.2-1.877 8.956-4.841 2.162-3.644 2.36-9.544 2.362-13.698 0-.841-.542-4.143-.016-4.896.744-1.063 2.703-.66 3.788-1.163 1.392-.642 1.837-1.959 3.779-1.746 4.785.519 2.411 13.392 1.769 16.304-1.072 4.849-2.054 10.369-6.424 13.264-3.065 2.028-6.673 3.363-10.237 4.197-15.035 3.521-29.536 2.161-44.297-.88-4.224-.869-8.28-2.297-11.433-5.355-3.682-3.569-6.062-8.363-7.988-13.031-2.002-4.85-4.859-9.631-2.142-15.037z"/><path fill="#7198C2" d="M239.208 156.778c8.801-9.649 18.157-18.81 27.51-27.918 25.019-24.364 50.715-48.037 76.508-71.57a6757.581 6757.581 0 0 1 33.446-30.31c4.128-3.713 9.21-10.168 14.327-12.336 11.803-5.012 15.575 5.95 19.759 14.492 15.111 30.874 29.9 61.933 43.68 93.426 6.518 14.893 12.929 29.89 18.354 45.221 2.603 7.354 9.346 18.002 4.735 25.798-3.224 5.452-10.359 5.369-16.175 6.021-12.684 1.427-25.521 1.783-38.282 2.108-34.298.886-68.642.453-102.954-.024-17.941-.249-35.882-.58-53.825-.809-2.498-.028-30.76.302-31.601-1.372-3.281-6.552-11.51-16.595-11.023-23.902.356-5.23 12.361-15.337 15.541-18.825z"/><path fill="#7DACD1" d="M247.183 167.172c.475-.329.951-.651 1.43-.971 17.322-11.673 35.064-22.539 52.883-33.153 10.595-6.309 21.249-12.508 32.129-18.168 3.476-1.809 28.285-14.698 26.509 2.108-.639 6.051-9.398 9.414-12.922 11.125-7.472 3.622-14.869 7.626-22.321 11.504-12.553 6.534-24.834 14.648-37.55 21.126a152.202 152.202 0 0 1-7.524 3.589c-5.836 2.58-11.287 5.82-17.291 7.971-2.736.981-19.829 11.953-22.648 4.031-1.763-4.969 5.524-7.938 7.305-9.162z"/><path fill="#688CAB" d="M270.84 181.342c.907-.08 1.816-.158 2.72-.233 32.92-2.756 65.944-4.578 98.925-6.137 19.608-.928 39.238-1.726 58.86-1.93 6.268-.065 50.993-.516 37.778 14.02-4.764 5.235-19.807 4.307-26.086 4.26-13.304-.102-26.743.178-40.183.319-22.639.236-45.871 2.044-68.719 2.153-4.473.021-8.927-.022-13.362-.153-10.233-.306-20.32.161-30.536-.611-4.658-.354-36.79 1.867-35.954-6.655.532-5.339 13.156-4.728 16.557-5.033z"/><path fill="#7DACD1" d="M426.051 212.575a16.095 16.095 0 0 1-1.879-.599c-7.761-3.046-17.242-14.235-21.404-20.689-12.172-18.886-22.167-36.189-30.098-56.929-8.894-23.261-15.344-39.649-20.425-63.878-2.74-13.069-3.23-32.675 6.72-42.185 8.522-8.148 19.808-16.836 31.032-21.398-.502 16.372 6.524 35.395 10.072 51.498 3.938 17.869 8.88 35.563 15.091 52.865 6.144 17.105 15.365 34.626 24.427 50.496 5.07 8.876 12.685 13.369 18.874 21.33 4.469 5.75 12.13 24.594 20.671 25.872-7.646-1.144-14.333 2.091-21.758 2.628-8.079.584-22.679 3.208-31.323.989z"/><path fill="#6382AB" d="M401.724 11.518c15.652 2.845 54.375 51.668 70.899 91.996 18.189 44.391 21.921 86.222 14.511 90.796-36.092 22.267-75.635-75.116-84.873-97.882-5.51-13.578-28.931-90.07-.537-84.91z"/><path fill="#41536A" d="M469.079 210.933c-18.317-.6-35.886-17.058-53.714-50.312-12.85-23.972-22.528-50.726-26.172-60.798-2.502-6.915-7.289-24.275-10.095-41.219-1.688-10.192-2.496-19.114-2.397-26.518.142-10.555 2.122-18.321 6.061-23.739 4.069-5.604 10.137-8.563 17.087-8.336 1.513.05 3.081.253 4.667.604 5.986 1.328 12.43 5.584 20.288 13.396 6.226 6.193 13.167 14.544 20.071 24.147 14.79 20.584 27.485 43.91 34.83 63.998 7.83 21.411 13.207 43.998 15.139 63.602.894 9.045.98 16.766.262 22.945-.682 5.849-2.38 14.072-9.249 17.959-5.351 3.025-10.994 4.461-16.778 4.271zm-69.252-188.04c-4.744 8.532-.602 23.793.667 31.574 2.787 17.099 7.475 33.218 9.184 37.946 3.826 10.574 12.784 35.337 24.888 57.916 7.589 14.155 16.752 36.248 35.061 39.041 28.237 4.311 12.255-44.794 7.837-60.293-6.785-23.794-17.346-47.067-30.341-70.527-6.392-11.538-29.131-43.31-44.624-38.909-1.376.391-1.98 2.012-2.672 3.252z"/><path fill="#BC8074" d="M247.695 216.236c.166-1.188.505-2.373 1.408-2.656 1.987-.623 4.63 3.456 5.238 4.939.563 1.371.208 3.201-.67 4.378-.845 1.134-1.911 2.198-3.272 1.677-2.941-1.127-3.337-3.369-2.928-6.113.08-.525.108-1.376.224-2.225z"/><g fill="#BC8074"><path d="M247.991 215.342c-.501-1.181 2.374-4.369 2.734-5.58.146-.494.201-1.192.771-1.131.47.052.995 1.339 1.077 1.712.268 1.192-.612 1.687-.814 2.712-.284 1.422.712 1.147.65 2.246-.081 1.471-3.874 1.267-4.41.061l-.008-.02z"/><path d="M251.353 213.34c-.018-.402.09-.8.238-1.191.491-1.327 1.428-2.553-.531-3.43.845-.355 2.187.188 2.281 1.195.058.632-.494 1.546-.797 2.082-.541.958.449 3.046-.884 3.216.519-.066-.299-1.696-.307-1.872z"/></g><path fill="#BC8074" d="M255.621 208.48c.944-3.451 4.091-1.688 6.168-.759l.012.006c1.957 1.005 4.042 2.431 5.4 4.246 1.324 1.763 1.268 3.473 1.052 5.6-2.014-2.929-5.867 2.789-8.087 2.936-2.25.151-2.129-1.339-2.722-3.109-.473-1.413-1.554-2.238-2.307-3.493-.89-1.483-.307-2.843.214-4.522.1-.325.194-.632.27-.905z"/><path fill="#936663" d="M265.906 212.358l.272 1.222c-1.283.284-2.967 2.326-4.453 4.128a51.5 51.5 0 0 1-1.726 2.023l-.925-.848c.54-.585 1.094-1.259 1.682-1.972 1.693-2.054 3.445-4.179 5.15-4.553zm-2.742-2.036l.252 1.226c-1.176.242-2.66 2.19-3.969 3.913-.503.661-1.021 1.346-1.528 1.939l-.957-.81c.482-.567.972-1.21 1.486-1.887 1.583-2.079 3.078-4.044 4.716-4.381zm-2.939-1.936l.488 1.155c-1.249.523-2.305 2.141-3.326 3.703-.36.55-.731 1.118-1.106 1.634l-1.014-.739c.358-.489.702-1.019 1.068-1.578 1.126-1.722 2.29-3.504 3.89-4.175z"/><path fill="#E3B45B" d="M561.035 33.712c-5.587-1.192-51.648 11.785-50.966 19.746.081.941 2.365 3.13 5.274 5.556l.008.006c3.789 3.156 7.766 6.061 11.741 8.971-5.076-3.714-31.512.4-36.138 3.16-5.156 3.076-15.734 10.27-3.428 11.256 6.442.517 57.279 2.822 58.587-7.622.286-2.247-5.682-15.305-7.515-14.938 6.751-1.355 23.664-5.44 28.545-10.116 5.477-5.247-.076-14.735-6.108-16.019zm-79.619 82.052c-.184.794 1.014 3.145 2.635 5.846l.007.008c2.114 3.507 4.442 6.856 6.765 10.209-2.965-4.277-24.724-7.193-29.076-6.016-4.856 1.31-15.048 4.727-5.695 8.479 4.894 1.962 43.992 16 47.817 7.692.822-1.791-.342-13.999-1.871-14.132 5.641.493 19.946 1.154 25.012-1.541 5.688-3.028 3.89-12.187-.478-14.689-4.044-2.317-43.512-2.595-45.116 4.144zm-5.831-62.114c-.39-1.746-8.451-9.845-9.752-9.077 4.786-2.826 16.579-10.421 19.041-15.212 2.766-5.376-4.022-10.93-8.967-10.26-4.579.619-36.206 22.68-33.544 28.413.316.678 2.644 1.688 5.518 2.709.004.002.004.002.006.001 3.74 1.324 7.553 2.411 11.366 3.503-4.869-1.392-23.92 8.791-26.703 12.09-3.104 3.676-9.231 11.873.42 9.287 5.045-1.35 44.422-13.337 42.615-21.454z"/><path fill="#EDEBEB" d="M231.254 236.663c-1.176 0-1.176 1.822 0 1.822s1.176-1.822 0-1.822z"/><path fill="#BC8074" d="M206.68 233.75a81.152 81.152 0 0 1-5.73-3.098c-1.916-1.138-5.635-4.375-8.082-3.65-6.007 1.778-3.754 17.38-2.325 21.062 3.025 7.793 12.932 11.67 20.706 12.276 6.67.519 15.377 1.609 21.3-2.682 3.525-2.552 4.746-8.295 4.909-12.353.159-3.937-.824-6.828-3.075-9.838-8.996 3.99-19.07 2.515-27.703-1.717z"/><path fill="#BC8074" d="M241.766 229.612c-.803-.743-1.373-1.288-1.557-1.495-4.751 5.063-17.61 11.22-24.82 9 .172 7.949-.285 24.337 12.32 22.747 8.555-1.079 16.8-8.144 21.55-14.909 1.611-2.297 2.789-4.179 3.71-5.854-.22.372-7.802-6.337-11.203-9.489z"/><path fill="#B0796F" d="M255.218 230.122c-1.107 1.478-1.914 3.292-2.989 4.767-6.61 9.073-19.857 20.738-31.786 19.44-6.004-.653-11.545.803-16.895-2.215-.785 1.357-1.347 2.995-1.672 4.518 4.324 2.857 10.874 3.457 15.944 3.461 7.421.007 15.86-1.652 21.804-6.44 4.12-3.318 7.035-6.546 10.595-10.276 2.837-2.972 11.343-11.307 8.02-15.659-1.295.469-2.234 1.351-3.021 2.404z"/><path fill="#A5867E" d="M115.279 474.071l-.555-.292c.187.113.373.208.555.292z"/><path fill="#C2897C" d="M124.128 401.518c-8.996 5.349-12.933 16.427-14.606 26.785a88.998 88.998 0 0 0-.9 7.858c-.739 10.319-.861 21.495.636 31.746.512 3.514.547 7.371 3.194 9.772 2.256 2.045 4.483 5.57 6.881 1.876.826-1.273.554-5.841.978-7.464 2.355-9.053 5.147-17.621 8.236-26.509 3.293-9.479 6.54-18.98 9.165-28.662 1.214-4.49 4.754-11.652 2.376-16.199-2.897-5.537-11.888-1.626-15.96.797zm58.015-4.247c-29.318-2.382-11.383 53.887-7.731 68.423.763 3.044 1.27 6.331 3.191 8.898 2.064 2.757 5.632 3.888 7.65 6.701-.064-.091 6.108-57.599 6.164-67.692.036-6.69-.73-15.636-9.274-16.33z"/><path fill="#161F26" d="M178.805 487.513c.231-1.475.638-3.587.725-3.904-1.716.009-5.387-.867-5.339-2.81l-.006.18a.824.824 0 0 1-.034.237c-.504 1.825.477 4.951 1.458 6.563.662 1.091 1.808 1.148 3.058 1.189-.066-.003.01-.629.138-1.455zm15.317 1.574c-1.077-.285-2.077.304-3.16.244-2.652-.146-4.608-1.744-6.696-3.106-.72-.47-1.457-.911-2.243-1.256.9 4.445 4.059 7.546 8.777 7.593 1.063.011 5.291-.152 5.514-1.589.12-.792-1.569-1.72-2.192-1.886z"/><path fill="#C2897C" d="M191.352 485.9c-1.134-1.285-2.324-2.395-3.071-3.991-2.403-5.137-2.735-12.409-1.743-17.969.922-5.153.656-10.9 1.015-16.151.073-1.085-.159-2.075-.94-2.81-1.919-1.809-11.252.575-12.94 2.494-3.199 3.628-1.3 9.679-.572 13.61.528 2.874 1.111 16.495 3.288 18.942 1.539 1.732 3.74 2.816 5.712 3.955.932.539 1.43 1.156 2.208 1.824 1.001.858 2.366 1.077 3.566 1.517 1.035.38 2.696 1.323 3.854 1.055 1.604-.373.218-1.803-.377-2.476z"/><path fill="#273032" d="M192.858 486.838c-.762-.706-1.964-2.084-2.998-2.329.287.782 1.348 1.648 1.202 2.482-1.833-.114-3.647-1.089-5.21-1.983-1.39-.796-2.618-1.801-3.866-2.803-.614-.492-7.598-5.926-7.054-6.528-1.944 1.994-1.548 6.246.776 7.868 1.576 1.098 3.218 1.077 4.904 1.652 1.662.566 2.69 2.077 3.998 3.142 1.45 1.181 3.184 1.834 5.022 2.117.533.083 6.533.401 6.425.151-.605-1.397-1.983-2.643-3.199-3.769z"/><path fill="#161F26" d="M107.344 479.906c-.011.06-.023.119-.036.177a.918.918 0 0 1-.071.23c-.802 1.731-.36 4.976.335 6.721.471 1.18 1.591 1.408 2.813 1.638-.066-.011.111-.622.377-1.419.476-1.427 1.228-3.456 1.368-3.758-1.691-.251-5.158-1.671-4.786-3.589zm15.078 10.979c-2.584-.544-4.242-2.423-6.07-4.086-.63-.575-1.281-1.122-1.996-1.582.142 4.538 2.732 8.085 7.367 8.842 1.045.169 5.234.647 5.691-.744.252-.766-1.255-1.939-1.84-2.197-1.011-.444-2.094-.012-3.152-.233z"/><path fill="#C2897C" d="M111.531 447.507c-2.212 2.456-2.846 7.986-3.004 12.686-.072 2.177-.044 4.176-.022 5.611.054 3.656-.804 10.584 1.134 13.667 1.224 1.947 3.208 3.351 4.96 4.777.826.672 1.213 1.359 1.866 2.138.842 1.002 2.148 1.423 3.254 2.04.958.533 2.435 1.717 3.62 1.626 1.642-.128.515-1.751.044-2.508-.902-1.443-1.889-2.723-2.356-4.416-1.504-5.451-.616-12.704 1.292-18.061 1.768-4.966 2.469-10.696 3.699-15.845.255-1.063.193-2.078-.453-2.925-2.219-2.911-11.849-1.217-14.034 1.21z"/><path fill="#273032" d="M122.144 485.942c.151.816 1.054 1.835.767 2.639-1.785-.388-3.405-1.627-4.795-2.749-1.234-.998-2.274-2.178-3.336-3.359-.521-.58-6.484-7.014-5.848-7.527-2.248 1.681-2.57 5.954-.554 7.911 1.368 1.325 2.986 1.551 4.55 2.374 1.54.811 2.3 2.463 3.411 3.716 1.229 1.386 2.826 2.295 4.587 2.854.51.161 6.361 1.38 6.297 1.116-.361-1.477-1.509-2.918-2.517-4.215-.632-.816-1.586-2.361-2.562-2.76zm39.476-218.346c-3.801-.498-9.147-4.133-12.837-3.123-1.922.528-6.994 6.375-8.443 7.902-8.175 8.614-17.316 24.427-22.162 35.816-6.986 16.419-8.604 34.607-13.468 51.661-3.205 11.243-11.706 37.74 1.497 45.319 12.491 7.17 30.432 10.08 44.595 10.953 13.168.811 41.879 2.406 50.566-10.041 4.853-6.955 1.272-17.349.218-24.946-1.806-13.018-3.104-26.183-4.246-39.277-2.008-23.072-4.774-46.201-11.707-68.385-3.752-12.012-14.859-4.682-24.013-5.879z"/><path fill="#273032" d="M155.016 276.678c-.08 5.276-5.186 9.557-10.239 9.752-2.728.105-2.372 4.321.348 4.217 7.532-.29 13.993-6.797 14.109-14.315.04-2.728-4.177-2.357-4.218.346z"/><path fill="#EBB85C" d="M181.013 216.053c-5.176 2.979-8.21 8.643-10.335 13.833-2.61 6.376.538 6.995 4.616 12.173.004.005.009.01.011.016a83.994 83.994 0 0 0 14.17 14.177c7.197-5.57 14.475-11.042 21.431-16.884-3.025-2.859-6.839-9.482-11.307-15.15-5.339-6.771-11.608-12.179-18.586-8.165z"/><path fill="#D99E49" d="M203.43 245.563c-3.746 2.103-7.236 4.643-10.941 6.835-3.042 1.794-7.5 3.175-9.918 5.893a80.062 80.062 0 0 0 3.969 4.843c3.58-1.695 23.453-15.984 24.403-16.537-1.179-1.279-2.351-2.566-3.248-4.02-1.39.581-2.971 2.26-4.265 2.986z"/><path fill="#B97D71" d="M182.819 193.891c-2.479.939-5.388.294-7.774-.709-2.842-1.196-4.494-3.444-7.03-4.941 1.93 1.139-2.418 12.362-3.007 14.042-2.344 6.693-3.769 11.003-11.39 12.086.287 6.912 4.9 11.595 10.597 15.353 5.384 3.553 13.231 5.336 18.197.101 4.383-4.619 3.177-8.477 1.44-12.627-1.276-3.053-2.843-6.263-2.682-10.051.197-4.548.661-8.791 1.649-13.254z"/><path fill="#AA7470" d="M172.008 201.418a13.482 13.482 0 0 1-1.076-.471c-2.914-1.435-5.098-3.955-7.562-5.998l-.042.292c-.464 3.084 1.209 5.857-.101 9.033-1.177 2.859-3.519 6.43-5.613 8.702 2.129 3.62 5.824 1.242 7.973-1.002 2.769-2.892 2.679-5.262 7.031-4.345 2.505.528 7.628-.232 7.51-3.789-.018-.509-7.494-2.178-8.12-2.422z"/><path fill="#2B3735" d="M182.267 175.781c-2.41-2.345-5.498-4.952-9.026-5.151-5.148-.286-4.316 2.827-3.493 6.512.584 2.614 1.471 5.855.095 8.366-.81 1.48-2.426 2.119-3.365 3.442-3.658 5.152 4.615 7.784 7.678 9.757 2.209 1.424 3.339 2.8 6.259 2.705 2.524-.082 5.136-1.207 6.552-3.371 2.608-3.99.534-10.288-.469-14.506-.655-2.753-2.187-5.762-4.231-7.754z"/><path fill="#DA957A" d="M177.746 176.519c-1.025-.368-2.18-.548-3.477-.496-12.871.523-15.895 18.409-5.508 25.659 1.466 1.02 3.042 2.081 4.57 2.991 2.94 1.749 6.698 2.401 8.66-1.202 1.496-2.751 2.311-5.772 2.632-8.977.672-6.707-.736-15.758-6.877-17.975z"/><path fill="#4A3F42" d="M170.512 185.781c-.7.16-2.191.316-2.169 1.37-.003-.033.168-.059.435-.081.81-.063 2.492-.075 2.666-.093 1.076-.113 1.146-1.05.982-2.01-.657.31-1.202.65-1.914.814zm10.165-1.529c-.178.022-2.187.352-2.226.191.189.789.401 1.367.974 1.471.194.036.427.018.714-.065.167-.048 2.207-.983 2.242-.796-.204-1.124-.793-.911-1.704-.801z"/><path fill="#CD8975" d="M178.591 191.123c-.246-.216-.484-.45-.614-.73-.4-.856-.458-1.866-.902-2.685-1.616.057-.72 4.254-.128 4.97.785.946 3.206 1.074 2.435-.721-.123-.293-.464-.546-.791-.834z"/><path fill="#EEDDD5" d="M173.168 190.333l.062.004a1.312 1.312 0 0 1-.142-.021l.08.017z"/><path fill="#4A3F42" d="M182.411 188.186c.291.788.258 1.411-.094 1.753-.322.316-.905.386-1.449.168-.573-.226-.926-.696-.949-1.261l-.642.028c.034.826.538 1.507 1.352 1.831.777.308 1.638.185 2.139-.306.314-.305.763-1.031.243-2.437l-.6.224zm-9.721.807c.34 1.185.224 2.09-.328 2.551-.504.425-1.364.459-2.138.084-.806-.394-1.272-1.12-1.243-1.945l-.943-.03c-.039 1.205.622 2.26 1.774 2.821 1.1.535 2.366.451 3.154-.209.494-.412 1.231-1.422.628-3.53l-.904.258z"/><path fill="#DB7D6E" d="M172.072 194.38c-.652-1.22-4.24-1.02-3.275 1.09.768 1.681 4.405.763 3.297-1.053.068.148.01.031-.022-.037zm11.272-2.035c-.471-.884-3.07-.739-2.373.792.557 1.218 3.192.552 2.389-.764.05.108.009.022-.016-.028z"/><path fill="#7A686E" d="M168.476 175.268l.035-.026-.035.026zm-8.997 10.528l-.035.046.035-.046z"/><path fill="#739BC3" d="M162.357 212.156l.005.01-.005-.01z"/><path fill="#EBB85C" d="M156.72 224.139c.336-3.482.79-7.063-1.112-9.432-1.646-2.05-8.448-1.221-10.593-.884-10.759 1.69-16.559 10.343-18.093 20.554-1.162 7.743-.145 24.269 9.414 27.144 4.417 1.329 9.681-4.792 13.536-6.278a96.537 96.537 0 0 0 7.446-3.224 94.702 94.702 0 0 0 5.178-2.706c2.632-1.474-4.792-16.484-5.545-18.701-.628-1.851-.456-4.139-.231-6.473z"/><path fill="#EBB85C" d="M191.731 219.63c-.459-.932-1.225-1.596-2.139-2.098-1.541-.843-3.498-1.226-5.114-1.659a4.109 4.109 0 0 1-.868-.347c-1.935 4.145-6.921 6.636-11.523 6.704a3.706 3.706 0 0 1-1.425-.257 20.47 20.47 0 0 1-2.745-.106 2.47 2.47 0 0 1-1.009-.339c-1.513-.002-2.885-.624-3.961-1.582-1.547-.194-2.996-.891-4.07-1.964a6.356 6.356 0 0 1-1.698-3.007l-.044-.466c-2.708-.832-5.57-1.358-7.322.044-3.574 2.865-2.555 9.83-3.266 13.645-1.318 7.068-.16 14.186-1.957 21.231 0 .001 0 .004-.003.01-1.225 4.721-1.208 13.317 2.586 17.045 5.986 5.877 15.869 5.591 23.463 3.845 9.04-2.078 13.714-4.687 15.717-13.907.892-4.099 1.977-7.413 4.728-10.818 4.77-5.9 2.113-12.159 1.361-18.681-.266-2.335.365-5.102-.711-7.293z"/><path fill="#CE8A76" d="M173.595 196.007c-.166.03-.234.843-.202.843l.09-.021c.185-.091.385-.867.112-.822z"/><path fill="#D99E49" d="M181.127 217.29c-1.415 1.464-2.896 2.349-4.774 2.871-3.572.991-7.616.557-11.157-.485-1.533-.453-3.044-1.419-4.136-2.59-.3-.32-2.486-4.023-2.498-4.018-.836.246-1.626.619-2.47.87.062.552.318 1.208.437 1.623a9.895 9.895 0 0 0 2.048 3.754c1.729 2.01 4.474 3.692 7.744 4.595 6.985 1.927 14.619.859 18.36-6.08.259-.482.499-.993.719-1.534a30.837 30.837 0 0 1-2.749-.95c-.659.508-.774 1.166-1.524 1.944z"/><path fill="#DFAA55" d="M176.923 261.038c-3.328 3.093-7.436 4.854-11.883 5.576-.298.049-1.182.193-2.351.381-3.665.592-10.138 1.619-10.23 1.509 3.834 4.694 16.287 1.459 21.379.451 7.868-1.558 10.762-4.004 11.95-12.388.189-1.335 1.562-9.484 2.805-9.721a7.396 7.396 0 0 0-2.818 1.162c-4.45 3.025-4.998 9.448-8.852 13.03zm-19.761-10.185c.266-.032.539-.037.816-.015-.572-.046-.05-.052.264-.066.158-.042.551-.131.633-.161.325-.117.652-.242.967-.386.084-.038.881-.434.638-.304.509-.268 1.016-.547 1.526-.818-.431-3.09-2.724-8.162-.202-10.23.088-.071.178-.136.268-.197-3.058-1.029-6.145-1.938-9.299-2.148.307.895.76 1.877 1.173 2.986.372 1 2.612 7.587 3.216 11.339z"/><path fill="#CE8A77" d="M177.775 176.189c-3.347-.824-6.954.648-9.402 2.909-1.884 1.74-3.464 3.939-4.368 6.349-.564 1.5-.922 3.091.062 4.52.662-.829.609-2.205.932-3.196.434-1.322 1.041-3.195 1.942-4.263 1.514-1.794 4.276-2.039 6.242-3.2 1.056-.623 1.725-1.962 3.084-1.986 1.026-.02 2.331.83 3.247 1.28 1.589.779 3.193 2.246 3.835 3.935l-.126-.327c-1.022-2.598-2.526-5.302-5.448-6.021z"/><path fill="#354241" d="M171.388 170.499c-2.616-1.26-5.954-1.174-8.422-.015-4.529 2.126-6.426 3.319-11.591 2.659-3.671-.468-7.762-.792-10.229 2.436-2.344 3.063-.75 7.531-4.754 9.234-3.622 1.541-9.236-.671-13.328 1.037-7.399 3.092-12.369 14.481-7.719 21.97 3.69 5.939 8.815.642 13.409 3.78 3.648 2.491 5.369 7.339 10.607 4.717 3.52-1.763 6.1-5.254 10.48-4.389 4.367.862 6.263 5.74 10.59 2.415 2.666-2.047 5.824-7.32 6.57-10.605.974-4.296-2.714-9.17-2.902-13.489-.15-3.473.79-7.007 3.168-9.555 1.806-1.934 9.562-2.973 7.41-7.083-.748-1.43-1.919-2.455-3.289-3.112z"/><path fill="#DA957A" d="M162.348 189.563c-2.547.372-2.071 4.471-.08 5.294.094.039.358.045.694.038.948-.019 2.48-.136 2.538.079-.425-1.585-.59-5.786-3.152-5.411z"/><path fill="#B47A6C" d="M162.077 191.936c-.055.708.027 1.835 1.065 1.331-.088-.562-.231-1.127-.353-1.686l-.712.355z"/><path fill="#2B3735" d="M158.144 198.737c-3.112 1.689-4.998 4.666-8.644 1.882-1.716-1.309-3.107-3.455-5.15-4.265-2.486-.983-5.719.178-7.749 1.655-1.72 1.25-3.185 3.707-5.527 3.434a4.234 4.234 0 0 1-.266-.041c-2.798-.522-4.022-3.948-6.07-5.444-2.835-2.073-7.523.353-8.936 3.119-2.568 5.012.402 11.363 6.444 10.717 2.534-.271 5.114-.027 7.501.887 2.433.932 3.257 2.752 5.052 3.838 3.265 1.979 6.184-1.124 9.057-2.706 1.783-.982 4.212-2.279 6.304-2.052 3.141.339 5.442 2.783 8.631 1.896 3.399-.946 7.387-7.079 7.719-10.418.465-4.677-5.46-4.078-8.366-2.502z"/><path fill="#EDEBEC" d="M145.091 264.317c-.449.806-1.066 1.513-1.655 2.221-.61.731.523 1.675 1.132.944.673-.808 1.344-1.619 1.858-2.539.465-.834-.873-1.45-1.335-.626z"/><path fill="#BC8074" d="M181.2 259.569c-4.809 2.49-9.752 1.944-14.458-.451-4.328-2.204-6.382-6.218-9.845-9.407-3.054 1.976-6.216 3.942-9.451 5.677-2.422 1.3-4.988 2.267-7.54 3.275-2.88 1.137-4.41 1.314-3.094 4.594 1.478 3.671 5.102 8.117 7.776 11.004 1.375 1.483 3.185 2.927 5.093 4.235a59.966 59.966 0 0 0 5.641 3.391c6.342 3.364 13.542 4.006 20.569 3.007 10.917-1.55 20.287-7.749 26.187-17.034 2.622-4.126 6.474-9.697 8.051-14.332.755-2.226 2.005-6.304 3.189-13.78.174-1.101-14.309-.52-13.935-1.058-2.323 3.332-4.258 6.939-6.76 10.199-3.188 4.155-6.695 8.232-11.423 10.68z"/><path fill="#D99E49" d="M144.199 254.372c-3.422 1.535-8.085 2.423-11.171 5.052.743 1.98 1.534 3.931 2.432 5.824 3.91-1.353 26.994-14.173 28.06-14.645-.765-1.557-1.525-3.122-1.971-4.83-1.495.441-3.487 2.052-4.929 2.665-4.185 1.771-8.251 4.059-12.421 5.934z"/><path fill="#B0796F" d="M171.264 266.254c2.806.088 8.544.073 9.188-3.642-.053.302-8.364.228-9.145.077a8.939 8.939 0 0 1-1.397-.39c-2.37-.865-4.504-2.643-6.361-4.287-.457-.404-3.263-4.037-3.441-4.028-1.581.082-2.644 1.393-4.226 1.783-.535 7.251 9.922 10.312 15.382 10.487z"/><path fill="#4D5958" d="M116.865 195.337c-.504.925-.89 1.841-.824 2.916.058.949 1.528.813 1.468-.134-.048-.799.322-1.474.69-2.156.455-.839-.884-1.458-1.334-.626zm10.34-6.708c-1.053-.145-2.101-.082-3.157.014-.947.085-.812 1.553.134 1.468.924-.084 1.838-.158 2.761-.032.941.13 1.204-1.321.262-1.45zm12.787-2.322c-1.089 1-2.443 1.575-3.909 1.735-.945.102-.812 1.571.134 1.468 1.7-.184 3.363-.837 4.632-2.003.692-.633-.155-1.843-.857-1.2zm6.448-8.858c-.421.518-.705 1.098-.947 1.716-.146.374-.027.801.355.98.343.162.833.019.98-.355.197-.502.403-.976.745-1.397.598-.739-.535-1.684-1.133-.944zm15.642-3.265c-.837.484-1.834.559-2.776.645-.946.087-.813 1.554.134 1.468 1.228-.112 2.416-.287 3.497-.912.824-.476-.039-1.673-.855-1.201zm4.876-2.024l-.489.044a.745.745 0 0 0-.667.801c.036.4.4.704.801.668l.489-.045a.743.743 0 0 0 .667-.801.744.744 0 0 0-.801-.667zm-44.465 33.255c-.686-.281-1.161-.703-1.248-1.468-.105-.943-1.575-.812-1.468.134.143 1.268.922 2.189 2.091 2.67.878.359 1.504-.975.625-1.336zm10.653 2.997c-.594-.735-1.798.115-1.201.856.631.779 1.277 1.536 2.043 2.185.724.616 1.668-.518.942-1.132-.67-.571-1.232-1.225-1.784-1.909zm15.481-1.254c-1.206-.15-2.474.143-3.452.882-.756.573.096 1.776.858 1.2a3.249 3.249 0 0 1 2.332-.631c.942.118 1.206-1.333.262-1.451zm9.245 1.076c-.417.465-.916.51-1.409.129-.749-.582-1.695.549-.945 1.133 1.14.883 2.524.757 3.487-.317.635-.71-.499-1.651-1.133-.945zm3.882-6.489c.012.155.025.307.027.463-.007-.027-.023.163-.029.19-.024.119-.03.122-.066.212-.142.377-.03.8.354.981.343.161.838.021.981-.355.206-.546.253-1.047.201-1.625-.087-.947-1.554-.814-1.468.134zm-35.696-5.116c-.796.348-1.59.71-2.176 1.374-.63.714.504 1.656 1.134.944.41-.463 1.01-.697 1.561-.939.867-.379.353-1.762-.519-1.379zm14.163-1.068c-1.552.156-3.075.513-4.627.667-.947.095-.815 1.563.133 1.468 1.552-.154 3.074-.51 4.628-.667.944-.095.811-1.564-.134-1.468zm8.304-4.183c-1.018.383-1.916 1.086-2.62 1.909-.619.723.514 1.667 1.133.944.542-.634 1.223-1.177 2.006-1.472.889-.335.373-1.716-.519-1.381zm7.756-3.692l-2.692.244c-.947.087-.813 1.555.134 1.469l2.69-.245c.949-.085.815-1.554-.132-1.468z"/><path fill="#2B3735" d="M129.344 192.602c-1.136.103-2.264.216-3.353.577-.903.299-.381 1.679.52 1.381.96-.319 1.963-.399 2.965-.49.948-.086.814-1.554-.132-1.468zm8.883-.535c-.887.292-1.799.384-2.722.469-.947.086-.813 1.554.133 1.468 1.055-.098 2.096-.223 3.109-.555.901-.298.381-1.678-.52-1.382zm9.126-7.3c-.744.89-1.486 1.78-2.225 2.669-.611.731.522 1.675 1.131.945.743-.89 1.484-1.78 2.224-2.67.61-.731-.523-1.675-1.13-.944zm10.44-2.153c-.907.066-1.774-.082-2.623-.4-.886-.332-1.518 1.001-.626 1.334 1.098.412 2.208.619 3.384.533.947-.068.813-1.536-.135-1.467zm.222 10.589c-1.193.151-2.203.759-3.209 1.38-.808.5.05 1.699.858 1.2.772-.477 1.564-.995 2.486-1.111.94-.119.81-1.589-.135-1.469zm5.796-11.906a2.828 2.828 0 0 1-.116.133l-.047.048c-.051.036-.146.093-.16.106l-.039.015-.005.002-.011.001c-.097.018-.2.024-.301.033-.946.087-.812 1.556.132 1.468.272-.025.547-.058.802-.161.354-.143.632-.416.878-.702a.741.741 0 0 0-.093-1.037.747.747 0 0 0-1.04.094z"/><path fill="#1F2A28" d="M132.721 203.176c-1.369-.114-2.552.227-3.771.837-.84.42-.332 1.806.519 1.38.955-.478 1.903-.856 2.991-.765.942.078 1.208-1.372.261-1.452zm10.836-.764c-1.016.075-2.024-.041-3.028-.192-.939-.142-1.2 1.308-.26 1.452 1.128.17 2.28.294 3.422.208.948-.07.814-1.539-.134-1.468zm8.396-3.204c-.84.393-1.406 1.132-1.745 1.978-.15.373-.025.802.355.98.348.165.832.02.981-.353.207-.519.483-1.017.926-1.225.363-.17.581-.551.431-.949-.132-.354-.586-.602-.948-.431zm7.109.068c-.496.044-1.116.168-1.601 0-.381-.133-.798-.037-.98.353-.158.335-.025.849.354.981.771.267 1.561.206 2.361.133.946-.085.812-1.553-.134-1.467z"/><path fill="#EDEBEC" d="M118.637 352.276c-.376 1.35-.73 2.702-.796 4.108-.045.95 1.43.99 1.474.041.06-1.276.39-2.491.733-3.716.255-.916-1.155-1.347-1.411-.433zm3.661-18.71c-.534 1.99-1.328 3.914-1.549 5.978-.1.946 1.367 1.076 1.469.133.206-1.932.962-3.732 1.462-5.593.244-.913-1.134-1.436-1.382-.518zm5.466-16.944c-.818 1.664-1.306 3.484-1.49 5.326-.094.946 1.374 1.077 1.469.132a14.372 14.372 0 0 1 1.403-4.94c.42-.855-.966-1.361-1.382-.518zm6.088-11.738c-.304-.217-.826-.174-1.028.174-.351.603-.48 1.3-.829 1.898-.201.348-.177.78.174 1.028.304.218.827.175 1.027-.173.351-.604.482-1.3.829-1.899.201-.347.177-.78-.173-1.028zm-18.309 64.417c0-1.052-1.63-1.052-1.632 0 0 .721.151 1.895-.372 2.482-.698.783.452 1.94 1.153 1.153.885-.991.85-2.38.851-3.635zm-6.496 16.914c-.663 2.023-1.172 4.093-1.836 6.117-.33 1.003 1.248 1.429 1.572.433.664-2.023 1.174-4.094 1.836-6.118.328-1.001-1.247-1.427-1.572-.432z"/><path fill="#BC8074" d="M203.398 221.605c-.009-1.317-.02-2.518-.176-3.238-.284-1.28-.796-2.427-1.229-3.641 2.865-.914 7.305 5.672 7.015 8.226-.242 2.142-2.112 6.752-4.474 5.005-1.096-.807-1.116-3.803-1.136-6.352z"/><path fill="#BC8074" d="M199.39 247.771c1.013 1.094 1.394 3.382 1.924 4.77.092.244.36.805.707 1.531 3.409-1.252 6.541-3.463 8.477-6.409.481-.73 1.202-1.228 1.996-1.259 2.054-5.391 3.506-11.036 4.171-16.834.583-5.098 1.189-11.076-1.127-15.826-.874-1.795-2.539-4.157-4.35-4.925a6.484 6.484 0 0 0-.597-.224c-1.161-.384-2.858-.654-3.489.392-.548.901.722 6.683-.564 11.318-2.084 7.515-5.206 14.161-9.127 20.777-1.124 1.901-3.352 4.469-.599 5.768.992.471 1.689-.038 2.578.921z"/><path fill="#936663" d="M208.119 209.653l.106-.073c.394.081.542.144.956.144 1.41 2.721 2.196 6.156 1.855 10.525l-1.121-.133c.344-4.456-.242-7.881-1.796-10.463zm2.938.156c.702.308.702.308 1.442.839 1.402 2.774 1.942 6.031 1.5 10.613l-1.216-.169c.458-4.746-.129-8.677-1.726-11.283zm3.904 13.728c.203.041.57-4.438.531-4.855-.209-2.713-.837-5.363-1.169-5.768.828.647 1.438 1.893 1.742 2.845.263.828.414 1.686.478 2.379.046.49-.13 5.673-.446 5.615l-1.136-.216zm-.638-10.623a.417.417 0 0 0-.066-.049c.02.001.04.021.066.049z"/><path fill="#B0796F" d="M208.48 240.354c-2.106 6.925-4.308 14.377-7.738 20.684-4.269 7.85-8.75 13.699-15.135 19.909 3.854-2.17 8.291-4.117 11.487-7.167 3.518-3.358 5.962-7.878 8.375-12.045 3.204-5.53 5.268-11.971 6.091-17.563.652-4.417.998-10.218-.327-14.591-.098.116-.378.242-.518.253.17 3.563-1.206 7.133-2.235 10.52z"/><path fill="#647694" d="M177.903 195.742a.438.438 0 0 0-.43.442c.011.314-.082.614-.16.916-.144.555.672.79.82.233.093-.368.2-.753.188-1.138-.008-.244-.179-.451-.418-.453z"/><path fill="#DA726A" d="M179.755 195.557c.091.32.15.653.221.915.115.409.15.86.198 1.283.133 1.182.478 2.51-.023 3.649-.355.806-1.07.912-1.885.945-.991.043-2.163-.384-2.653-1.298-.45-.838-.446-1.927-.236-2.834.207-.904.51-1.85.948-2.67.24-.45.668-.933 1.184-1.056.334-.08.585.186.894.185.298.001.462-.305.773-.095.306.204.467.582.579.976z"/><path fill="#A25E61" d="M178.571 195.063c-.841-.263-1.812.583-2.472 1.725-.87 1.497-1.214 3.501-.053 4.169 1.259.727 3.969.496 4.31-1.186.187-.936-.837-4.413-1.785-4.708z"/><path fill="#FFF" d="M178.561 195.063c-.738-.232-1.572.389-2.21 1.312 1.154-.266 2.012-.315 3.115-.207-.327-.799-.517-.983-.905-1.105z"/><path fill="#B76B70" d="M179.086 198.579c-.341-.228-.871-.405-1.385-.481a2.927 2.927 0 0 0-.919-.007c-.705.132-1.064.436-1.061 1.178-.003 2.873 6.01 1.09 3.365-.69z"/><path fill="#FFF" d="M175.37 200.17c.114.336.321.612.635.79 1.28.726 4.034.489 4.378-1.193.008-.044.012-.551.016-.604-.157.081-.666 1.604-5.029 1.007z"/><path fill="#554341" d="M156.973 86.138c-.609.207-1.225.444-1.836.707-.35.507-.452 1.2-.215 1.866.375 1.061 1.47 1.653 2.439 1.318.972-.332 1.458-1.461 1.081-2.528-.251-.711-.827-1.211-1.469-1.363z"/><path fill="#80C99E" d="M167.744 79.249l.181-.166c-.117.101-.233.2-.36.283.059-.035.119-.073.179-.117zm-.179.117c-.049.028-.097.058-.144.086.05-.029.096-.056.144-.086z"/><path fill="#F3E0D7" d="M167.744 79.249l.181-.166a3.307 3.307 0 0 1-.336.267c.05-.03.103-.061.155-.101z"/><path fill="#80BEB5" d="M162.34 126.537c-3.223 8.411 8.191 5.525 11.14.668.102-.171.198-.343.279-.518 4.436-9.499-9.474-5.222-11.419-.15zm-22.82-49.628c-5.7 4.266 2.201 24.142 6.446 27.101.555.388 1.07-2.965 1.208-7.476.289-9.616-1.157-24.485-7.654-19.625zm17.316 1.062c-5.517 13.981-9.05 28.863-12.33 43.458-1.383 6.164-6.604 22.43-4.688 28.55 1.907 6.098 7.537-7.085 8.442-9.029.962-2.087 1.94-4.189 2.915-6.304 8.791-19.034 17.713-39.149 22.757-59.245 1.907-7.601 6.107-21.746 2.095-28.712-8.687 3.077-16.079 23.394-19.191 31.282z"/><path fill="#FFF" d="M170.779 60.847c-.029-.261.078-.502-.145-.112-.133.23-.139.586-.186.854a70.872 70.872 0 0 1-1.54 6.621c-.805 2.893-1.773 5.716-2.814 8.494-2.126 5.678-4.619 11.15-7.014 16.673-2.393 5.517-4.682 11.122-6.652 16.877-2.123 6.199-3.906 12.558-5.996 18.773-1.486 4.423-3.383 8.713-3.83 13.543-.076.839 1.089.967 1.166.134.286-3.111 1.237-6.027 2.242-8.878 1.008-2.87 2.007-5.74 2.936-8.651 2.021-6.311 3.853-12.713 6.184-18.875 4.236-11.207 9.672-21.761 13.52-33.177a87.46 87.46 0 0 0 2.093-7.213 71.292 71.292 0 0 0 .879-4.205c.02-.104.071-.114.153-.287.131-.266.173-.475.138-.787-.094-.849-1.23-.622-1.134.216zm-28.62 21.829c-.064-.837-1.231-.981-1.166-.135.322 4.364 1.425 8.597 2.309 12.885.173.835 1.308.618 1.137-.218-.858-4.159-1.967-8.296-2.28-12.532zm28.06-5.321c-.15.671-.39 1.426-.938 1.786a.914.914 0 0 0-.31 1.166c.191.408.698.661 1.055.426.9-.594 1.427-1.621 1.679-2.756.238-1.077-1.246-1.702-1.486-.622zm-17.317 46.791c-.178.755-.56 1.41-.74 2.164-.252 1.074 1.233 1.699 1.489.624.176-.755.56-1.41.738-2.164.254-1.075-1.233-1.698-1.487-.624zm7.279-22.808c-.072.126-.146.251-.22.376a3.144 3.144 0 0 1-.197.301c-.022.024-.043.052-.068.078-.011.012-.067.053-.09.076l-.026.011c.013-.011-.115.043-.137.046-.97.213-.619 1.945.353 1.732.835-.184 1.271-.848 1.706-1.601.53-.922-.791-1.941-1.321-1.019zm-5.338-10.718c-.085 1.007-.199 1.974-.507 2.917-.34 1.041 1.149 1.658 1.485.622.353-1.073.481-2.212.577-3.358.092-1.121-1.463-1.292-1.555-.181z"/><path fill="#554341" d="M37.768 194.911c-.941-.367-2.001-.12-2.791.542a50.7 50.7 0 0 0-1.15 2.972c.144.919.714 1.708 1.598 2.048 1.402.54 3.074-.268 3.718-1.802.65-1.532.039-3.218-1.375-3.76z"/><path fill="#80C99E" d="M39.056 175.392l.021-.387a5.898 5.898 0 0 1-.086.72c.025-.104.049-.214.065-.333zm-.065.333c-.023.09-.041.18-.061.265.024-.088.042-.173.061-.265z"/><path fill="#F3E0D7" d="M39.056 175.392l.021-.387a6.612 6.612 0 0 1-.076.677 2.93 2.93 0 0 0 .055-.29z"/><path fill="#80BEB5" d="M91.139 213.064c-4.789-14.606-14.542 6.893-11.565 14.162 4.946 12.056 13.556-4.992 11.789-13.317a9.656 9.656 0 0 0-.224-.845zM8.56 208.517c-1.558 11.205 25.645 20.253 32.763 17.753.933-.326-1.806-4.167-6.051-8.639-9.048-9.524-24.934-21.882-26.712-9.114zm67.725 40.426c-9.691-29.152-20.306-59.499-34.777-84.969-5.477-9.63-15.012-28.373-25.79-29.988-5.699 13.812 6.641 42.436 11.19 53.851 8.059 20.235 18.981 38.842 29.872 56.864 4.604 7.607 15.181 29.645 23.038 33.078 7.83 3.426.658-16.189-.327-19.178-1.062-3.195-2.124-6.421-3.206-9.658z"/><path fill="#FFF" d="M70.327 254.63c-1.78-4.002-3.568-7.984-5.466-11.922-4.108-8.549-8.493-16.946-12.146-25.738-6.645-15.99-11.459-32.854-18.701-48.553a115.696 115.696 0 0 0-4.91-9.496 89.382 89.382 0 0 0-2.648-4.278c-.183-.28-.368-.556-.557-.83-.082-.124-.041-.198-.124-.469-.13-.414-.29-.669-.628-.922-.92-.685-1.839.953-.926 1.63-.281-.209-.409-.575-.254.077.091.384.43.732.643 1.048a79.146 79.146 0 0 1 1.63 2.533 98.012 98.012 0 0 1 3.261 5.704c2.008 3.763 3.779 7.665 5.436 11.618 3.386 8.074 6.208 16.414 9.177 24.679 2.965 8.255 6.12 16.464 9.736 24.415 3.897 8.565 8.291 16.859 12.237 25.399 2.809 6.078 5.079 12.543 9.321 17.701.738.902 2.028-.437 1.297-1.327-2.735-3.326-4.614-7.295-6.378-11.269zm-39.075-34.832c-4.897-2.894-10.024-5.443-14.449-9.091-.878-.72-2.184.606-1.3 1.33 4.561 3.76 9.778 6.409 14.822 9.391.984.58 1.909-1.05.927-1.63zm53.885-1.496a23.557 23.557 0 0 0-.441 5.45c.039 1.192 1.825 1.163 1.784-.042-.053-1.654.039-3.33.373-4.966.241-1.178-1.474-1.628-1.716-.442zm-45.445-47.816c.502.83.995 1.851.799 2.877-.127.668.159 1.33.819 1.5.588.15 1.342-.245 1.471-.913.321-1.692-.151-3.333-.999-4.73-.805-1.327-2.898-.063-2.09 1.266zm30.216 65.016c-.787-1.339-2.881-.072-2.091 1.27.554.941.808 2.046 1.363 2.987.787 1.341 2.881.077 2.092-1.268-.555-.944-.81-2.045-1.364-2.989zm-16.964-29.588l.146.635c.019.096.04.188.057.28a4.88 4.88 0 0 0 .037.252c.004.052.008.109.009.163.001.025-.015.136-.018.186-.005.016-.01.029-.014.046.003-.027-.075.179-.091.213-.765 1.418 1.268 2.629 2.033 1.209.657-1.221.448-2.402.152-3.664-.365-1.543-2.674-.861-2.311.68zm-14.014-5.299c-.995-1.184-2.718.6-1.731 1.775.895 1.065 1.719 2.132 2.325 3.413.673 1.42 2.76.142 2.09-1.265-.689-1.465-1.666-2.71-2.684-3.923z"/><path fill="#80BEB5" d="M254.286 393.843c-2.654-4.902-21.367-21.434-19.071-5.661.956 6.545 10.418 13.269 15.764 16.272 8.878 4.978 6.528-3.72 4.151-8.919a29.632 29.632 0 0 0-.844-1.692zm8.664-12.73c-.792-2.675-4.69-.782-3.897 1.876 5.682 19.187 2.675 39.94 3.849 59.82.33 5.612.913 11.194 1.539 16.769a588.136 588.136 0 0 0 4.065-2.249c-.558-5.096-1.078-10.196-1.406-15.31-1.317-20.372 1.687-41.213-4.15-60.906zm9.566 45.108c-1.027 2.765-1.574 5.58-1.925 8.479-.314 2.588 3.753 2.964 4.068.377.316-2.55.752-4.992 1.651-7.427.912-2.459-2.882-3.893-3.794-1.429zm-10.209-58.849l-.877 7.224c-.313 2.588 3.756 2.965 4.071.375l.875-7.225c.314-2.587-3.759-2.963-4.069-.374zm-5.781 62.97c-1.592-2.04-4.813.536-3.223 2.57.976 1.249 1.784 3.057 2.402 4.682.913 2.417 4.672.708 3.756-1.7-.721-1.919-1.667-3.93-2.935-5.552zm3.169 16.517c-2.619-.238-3.111 3.772-.489 4.013 2.627.242 3.116-3.772.489-4.013z"/><path fill="#80BEB5" d="M257.524 400.997l-.611-.055c-1.115-.105-2.145.72-2.279 1.816-.132 1.096.679 2.089 1.794 2.194l.606.06c1.107.101 2.148-.725 2.281-1.822.136-1.092-.683-2.09-1.791-2.193zm25.703-22.09c-.067-.002-.127-.013-.19-.015-7.535-.584-18.338 16.773-10.732 21.102 8.225 4.673 23.533-19.606 10.922-21.087zm-25.78-5.962c5.595 14.229 21.891-10.596 14.5-18.895-7.566-8.491-16.879 12.846-14.5 18.895zm12.144 64.355l-.188 1.813c3.657 11.118 17.102-8.263 15.665-15.699-3.056-15.717-20.027 2.841-15.477 13.886z"/><path fill="#FFF" d="M264.708 359.13c-.169 1.39-.697 2.669-1.181 3.989-.637 1.727 2.041 2.68 2.673.953.575-1.553 1.167-3.082 1.36-4.728.221-1.813-2.633-2.025-2.852-.214zm-1.963 13.016c-.777-.062-1.494.534-1.576 1.298l-.21 2.011a1.396 1.396 0 0 0 1.285 1.515c.777.057 1.493-.535 1.575-1.299l.209-2.012a1.395 1.395 0 0 0-1.283-1.513z"/><path fill="#80BEB5" d="M271.3 398.726c-1.46 1.228-2.619 2.654-3.296 4.427-.657 1.72 2.018 2.672 2.678.955.503-1.324 1.34-2.324 2.429-3.241 1.426-1.201-.388-3.342-1.811-2.141z"/><path fill="#FFF" d="M278.891 387.731c-1.671.99-2.402 2.57-3.154 4.255-.756 1.687 1.924 2.63 2.671.956.393-.88.777-2.142 1.668-2.673.681-.4 1.062-1.145.715-1.886-.302-.641-1.221-1.054-1.9-.652zm-5.806 50.201c-.594-.41-1.592-.307-2 .357-.74 1.195-1.248 2.471-1.423 3.852-.224 1.813 2.63 2.023 2.856.214.113-.866.418-1.71.881-2.458.408-.666.353-1.503-.314-1.965zm4.221-12.141c-.993 1.249-1.67 2.659-1.862 4.222-.231 1.814 2.625 2.026 2.85.218.138-1.082.649-1.976 1.331-2.832 1.159-1.453-1.17-3.046-2.319-1.608zm-26.363-26.833c-2.695-2.296-4.309-5.243-5.66-8.471-.651-1.547-3.17-.783-2.512.785 1.522 3.629 3.329 7.013 6.37 9.6 1.286 1.098 3.094-.815 1.802-1.914z"/><path fill="#80BEB5" d="M394.274 391.648c-.768-.66-2.013.401-1.241 1.063 1.463 1.261 3.28 1.867 5.162 2.405 1.006.29 1.525-1.2.522-1.49-1.575-.45-3.213-.915-4.443-1.978zm24.16 1.044a18.18 18.18 0 0 1-4.225 2.979c-.913.465-.206 1.785.705 1.318a19.523 19.523 0 0 0 4.564-3.202c.731-.695-.312-1.792-1.044-1.095zm13.793 6.31c-.487 1.391-.989 2.756-1.796 4.021-.534.839.781 1.636 1.316.795.88-1.382 1.451-2.868 1.986-4.383.324-.926-1.178-1.356-1.506-.433z"/><path fill="#FFF" d="M426.66 398.83c-1.98 1.566-3.683 3.398-5.366 5.28-.83.926.518 2.348 1.351 1.414 1.684-1.876 3.383-3.714 5.365-5.277.981-.776-.38-2.184-1.35-1.417z"/><path fill="#80BEB5" d="M427.638 403.309c-1.23 1.494-.86 3.418.53 4.574 1.766 1.48 3.631 2.768 5.827 3.661 1.704.695 3.802-.161 4.564-1.79.777-1.667-.036-3.562-1.742-4.258-1.587-.644-2.802-1.572-4.322-2.836-1.387-1.159-3.739-.7-4.857.649z"/><path fill="#80BEB5" d="M389.663 360.797c-.44 1.734-1.327 4.414-.478 6.119 1.576 3.152 7.353 4.187 10.64 4.239-1.18 2.054-3.664 2.909-5.78 2.493-.494-.093-5.135-2.149-4.925-2.727-4.427 12.018 4.877 29.004 13.798 36.87 2.647 2.334 6.222 5.062 9.862 5.868 3.519.78 7.228-.402 9.997-2.634 3.241-2.617 3.773-6.803 6.726-9.462 3.512-3.162 9.536-2.067 13.482-4.563 5.593-3.538 6.478-10.268 6.687-16.016.308-8.29-3.485-17.199-8.995-23.481-1.051 2.829-.618 7.457-2.92 9.766-2.955 2.962-5.657 2.858-6.167-.887-.418-3.041 4.092-8.944 5.85-11.55.256-.386-5.134-7.946-6.122-8.275-2.879-.959-6.984 4.682-9.159 6.393-1.789-1.208.832-9.811 2.096-11.607-3.012-1.57-6.179-4.2-8.478-6.607-.533-.556-4.348-6.499-3.596-6.922-8.256 4.64-13.318 12.834-17.797 20.466-2.214 3.766-3.675 8.38-4.721 12.517z"/><path fill="#80BEB5" d="M409.225 393.346a1.583 1.583 0 0 1-1.539.383c-1.011-.265-1.538 1.223-.522 1.492 1.104.288 2.288.047 3.144-.741.772-.709-.31-1.847-1.083-1.134zm-12.696-8.128c-1.011-.271-1.538 1.218-.523 1.487 1.805.484 3.627.515 5.496.229 1.053-.157.712-1.668-.334-1.511-1.58.241-3.119.202-4.639-.205z"/><path fill="#FFF" d="M405.016 339.453c-5.912 10.269-3.779 23.728.066 34.419 3.872 10.773 10.168 22.089 19.784 28.699 1.077.741 2.091-1.001 1.019-1.737-9.218-6.337-15.431-17.515-19.011-27.893-3.489-10.109-5.713-22.736-.126-32.445.65-1.125-1.084-2.171-1.732-1.043zm4.142 60.878c-1.297-.102-1.297 1.927-.007 2.028 2.096.164 4.188.334 6.219.923 1.249.359 1.776-1.592.524-1.955-2.196-.633-4.471-.818-6.736-.996zm-9.916-20.424c-.728-.058-1.344.637-1.346 1.333 0 .772.608 1.312 1.338 1.371 1.122.085 2.244.175 3.367.262.73.055 1.343-.636 1.345-1.338.001-.767-.606-1.308-1.339-1.367-1.12-.083-2.241-.175-3.365-.261zm.002 14.041c1.036.229 2.285.293 3.213.816 1.511.852 2.878-1.461 1.361-2.319-1.197-.674-2.56-.814-3.878-1.101-1.682-.368-2.396 2.234-.696 2.604z"/><path fill="#80BEB5" d="M421.287 300.587c-.544-2.884-.651-5.989.198-8.741 1.328-4.292-4.983-6.643-6.305-2.375-1.214 3.934-1.063 8.398-.287 12.508.855 4.523 7.251 3.127 6.394-1.392zm9.224-61.454l.095.013c-.03-.003-.06-.009-.095-.013z"/><path fill="#80BEB5" d="M448.916 277.972c1 .782 9.777-2.969 11.05-3.632 3.097-1.616 4.004-3.144 5.72-6.017 3.675-6.145 5.357-12.472 4.673-19.529-.172-1.75-.522-5.903-1.857-7.16-2.188-2.051-1.207-.652-3.749-.015-3.286.811-7.136 2.231-10.536 3.292 4.499-5.287 13.301-23.476 8.684-30.113-2.761-3.866-16.35.037-25.839 4.763-4.895 2.44-8.705 5.098-9.375 7.021-.766 2.18-.558 12.017 2.824 12.551.035.004.065.01.095.013.108.009.209.015.298.009-.089.006-.19 0-.298-.009-.031-.003-.06-.009-.095-.013-3.168-.396-14.728-6.196-10.601-8.814-5.879 3.722-16.966 11.799-16.855 19.437.022 1.86 3.722 11.303 6.589 9.604-4.322 2.559-9.738.636-12.528-2.573-5.301 8.471-7.417 19.728-1.077 26.957 6.665 7.609 17.818 6.873 26.56 1.606-2.131 1.278 5.64 11.284 6.892 12.182 3.55 2.537 7.902 3.123 12.38 2.369 7.416-1.255 20.447-9.206 21.628-17.664-5.352 1.598-10.717-1.232-14.583-4.265z"/><path fill="#80BEB5" d="M459.97 261.637c-1.314 1.627-3.033 2.561-4.959 3.145-1.16.354-.459 2.288.701 1.933 2.229-.674 4.221-1.843 5.735-3.723.785-.974-.695-2.328-1.477-1.355zm-21.359 9.878c-1.875.607-3.862.735-5.829.864-1.213.081-1.009 2.121.206 2.039 2.138-.142 4.283-.308 6.322-.966 1.154-.374.457-2.307-.699-1.937zm11.738 17.704c-2.601 1.087-5.332 1.344-8.129 1.529-1.217.085-1.012 2.122.204 2.041 2.961-.2 5.873-.487 8.626-1.635 1.116-.469.423-2.406-.701-1.935zm.781-54.202c-.629.767-1.539 1.314-2.51 1.404-1.211.113-1.009 2.154.205 2.041 1.471-.137 2.828-.928 3.783-2.091.79-.969-.692-2.321-1.478-1.354zm-14.729-11.832c-.003-.012 0-.024.002-.034-.003.006-.004.016-.002.034zm.061-.505l.003-.038c-.007.022-.006.033-.003.038z"/><path fill="#80BEB5" d="M436.412 223.443c-.001-.033-.004-.32-.009-.292-.002.01-.005.022-.002.034-.003-.012 0-.024.002-.034a2.66 2.66 0 0 1 .059-.472c-.003-.005-.004-.016.003-.038-.006.023-.005.033-.003.038.011.019.139-.26.051-.13.302-.434.272-1.063-.143-1.444-.39-.355-1.03-.345-1.336.089-.563.803-.57 1.821-.47 2.809.132 1.318 2.018 1.192 1.886-.124a8.827 8.827 0 0 1-.038-.436z"/><path fill="#FFF" d="M412.698 264.41c-6.147-.288-10.923 3.369-15.949 6.331-1.366.801-.307 3.183 1.073 2.37 4.528-2.666 9.096-6.395 14.651-6.132 1.6.074 1.834-2.493.225-2.569zm10.816 15.236c-1.519-9.518 2.669-18.76 7.276-26.504 4.608-7.743 10.349-14.695 16.247-21.38 1.067-1.211-.992-2.747-2.046-1.551-6.321 7.169-12.387 14.639-17.206 23.019-4.537 7.896-8.249 17.241-6.726 26.785.265 1.654 2.72 1.284 2.455-.369zm-3.506-29.276c-1.93-1.571-2.817-4.068-3.26-6.462-.301-1.645-2.758-1.279-2.454.368.569 3.097 1.811 6.152 4.286 8.162 1.294 1.042 2.715-1.028 1.428-2.068zm-10.84 26.358c-1.628-.555-3.262-1.037-4.943-1.362-1.594-.306-1.81 2.262-.231 2.567 1.471.285 2.891.704 4.312 1.189 1.539.524 2.407-1.871.862-2.394zm38.748-21.698a7346.506 7346.506 0 0 1-8.88 3.299c-1.494.559-.407 2.928 1.081 2.371l8.878-3.301c1.493-.555.413-2.923-1.079-2.369z"/><path fill="#80C99E" d="M418.808 281.166c-.159-.931-1.036-1.597-1.93-1.461l-2.453.368c-.891.135-1.506 1.021-1.347 1.952.161.935 1.042 1.596 1.933 1.461l2.455-.367c.892-.135 1.502-1.02 1.342-1.953z"/><path fill="#FFF" d="M440.628 270.515c-.155-.893-1.048-1.644-1.93-1.46-1.049.215-1.935.913-2.959 1.1-.887.159-1.51 1-1.345 1.95.155.909 1.041 1.623 1.928 1.461a8.363 8.363 0 0 0 1.859-.582c.241-.104.472-.222.707-.334.101-.05.204-.095.308-.142.101-.043.529-.134.087-.042.883-.182 1.51-.983 1.345-1.951zM409.775 258.3c-1.697.251-3.235.396-4.878-.344-1.992-.9-3.128 2.3-1.144 3.195 2.176.983 4.348.895 6.609.562 2.112-.318 1.527-3.728-.587-3.413zm28.756-34.649c-.791 1.087-2.182 1.43-3.322 2.016-1.885.974-.462 4.14 1.435 3.162 1.714-.887 3.421-1.474 4.615-3.114 1.275-1.746-1.463-3.807-2.728-2.064zm8.237 18.002c-1.657.837-3.5 1.196-5.053 2.246-.746.508-.73 1.745-.187 2.423.635.791 1.6.783 2.346.278 1.268-.86 2.965-1.1 4.329-1.787 1.898-.952.473-4.119-1.435-3.16zm9.622 22.989c-.622-.774-1.612-.805-2.347-.276a6.41 6.41 0 0 1-.305.219l-.068.047c-.021.011-.054.031-.107.062-.217.132-.439.257-.654.394-.547.349-.996.704-1.387 1.243-.535.739-.314 1.861.415 2.414a1.624 1.624 0 0 0 2.314-.348c.006-.011.016-.018.021-.029.015-.009.111-.116.162-.156.031-.026.068-.051.102-.078.045-.029.087-.06.112-.075a20.585 20.585 0 0 0 1.551-.992c.736-.532.745-1.731.191-2.425zm-3.458 20.207c-.621-.777-1.612-.805-2.343-.277-.852.612-1.937 1.086-2.851 1.743-.733.526-.742 1.728-.184 2.422.622.775 1.609.804 2.342.277.853-.615 1.939-1.087 2.848-1.742.734-.527.741-1.732.188-2.423z"/><path fill="#80BEB5" d="M351.461 346.719c-6.153 9.606 5.515 10.277 6.968.696 1.214-8.001-4.468-4.596-6.968-.696zm1.422 36.307c-5.382-5.253-14.014 3.958-14.895 9.597l2.013.707c5.138 1.693 19.71-3.644 12.882-10.304zm-18.181-29.412c-4.203-1.782-3.659 11.723-2.312 13.989 4.834 8.131 9.072-11.122 2.312-13.989zm16.426 11.621l-2.355 2.339c-1.811 6.669 8.475 4.739 10.49.368 3.759-8.158-4.454-6.015-8.135-2.707zm-6.589-1.432l-9.744 20.015c-.033-.159-.073-.318-.107-.467-.18-.708-.844-1.158-1.462-.985-.618.168-.987.904-.809 1.615.001.003.002.005.001.009-.199.601.015 1.32.527 1.67.275.188.587.232.873.161l-8.586 17.627c-1.021 2.101 1.764 4.394 2.795 2.278l19.309-39.65c1.021-2.101-1.763-4.396-2.797-2.273zm-17.756 25.167c.106-.762.137-1.624.096-2.511l-.096 2.511z"/><path fill="#80BEB5" d="M326.879 386.459c.041.886.01 1.749-.096 2.511l.096-2.511c-.223-4.878-2.589-10.465-6.19-4.239-2.254 3.903.137 11.67 3.5 14.104 2.091-3.078 3.1-7.325 2.739-11.191l-.049 1.326z"/><path fill="#FFF" d="M335.385 374.454c-.458-1.085-2.04-.997-1.583.088.227.548.213 1.128.277 1.677.052.442.581.909 1.022.997.494.098.753-.213.7-.653-.083-.706-.104-1.359-.416-2.109zm13.604-13.425c-.405-.277-.892-.204-1.07.16l-.373.764c-.174.364.013.899.417 1.173.406.278.891.201 1.07-.161l.374-.762c.177-.367-.013-.9-.418-1.174zm-14.812-2.971c-.704 2.482-.855 5.103-.526 7.788.128 1.032 1.637 1.095 1.51.059-.313-2.561-.165-5.014.506-7.38.27-.957-1.223-1.414-1.49-.467zm-11.265 25.944c-.091 1.978-.453 3.934-.224 5.954.114 1.032 1.626 1.096 1.511.059-.224-2.014.133-3.978.222-5.952.05-1.024-1.463-1.069-1.509-.061zm26.775.701c-2.26 1.857-4.534 3.614-7.516 4.118-.944.162-.439 1.724.499 1.567 3.111-.524 5.514-2.33 7.878-4.267.719-.589-.132-2.013-.861-1.418zm5.276-18.714c-.993.601-1.99 1.216-3.152 1.465-.932.199-.429 1.766.498 1.566 1.285-.275 2.415-.948 3.517-1.613.803-.49-.058-1.908-.863-1.418z"/><path fill="#80BEB5" d="M64.301 330.962c-.191-.994 1.347-1.549 1.539-.55.368 1.896-.008 3.775-.476 5.675-.246 1.017-1.798.728-1.551-.287.391-1.59.801-3.243.488-4.838zm-11.088 21.491a18.095 18.095 0 0 0 4.682-2.188c.857-.563 1.652.707.795 1.266-1.569 1.024-3.271 1.841-5.046 2.372-.966.288-1.401-1.162-.431-1.45zm-1.371 15.106c1.449.268 2.884.509 4.382.438.994-.047 1.032 1.489.037 1.536-1.636.079-3.21-.164-4.791-.452-.964-.179-.592-1.696.372-1.522z"/><path fill="#FFF" d="M54.458 362.64c2.341-.94 4.778-1.51 7.246-2.036 1.216-.26 1.781 1.615.556 1.876-2.464.53-4.902 1.094-7.243 2.036-1.161.467-1.706-1.414-.559-1.876z"/><path fill="#80BEB5" d="M57.86 365.713c1.908-.327 3.394.95 3.707 2.731.408 2.268.6 4.526.284 6.876-.243 1.824-2.026 3.22-3.819 3.073-1.832-.154-3.074-1.799-2.831-3.627.229-1.696.027-3.212-.316-5.159-.317-1.779 1.248-3.593 2.975-3.894z"/><path fill="#80BEB5" d="M39.81 311.643c1.724.479 4.491 1.039 5.549 2.621 1.954 2.934-.016 8.462-1.602 11.342 2.369-.005 4.345-1.738 5.034-3.78.164-.476.683-5.525.077-5.63 12.631 2.126 22.757 18.634 25.155 30.282.711 3.458 1.305 7.914.197 11.473-1.07 3.443-3.937 6.075-7.249 7.37-3.881 1.515-7.779-.103-11.554 1.141-4.488 1.479-6.529 7.252-10.654 9.437-5.848 3.099-12.129.525-17.223-2.146-7.348-3.85-13.199-11.564-15.916-19.467 2.978.492 6.78 3.166 9.926 2.315 4.039-1.095 5.29-3.491 2.293-5.794-2.432-1.872-9.794-.888-12.929-.656-.463.03-4.349-8.401-4.144-9.422.597-2.976 7.532-3.739 10.097-4.777-.16-2.152-8.928-4.149-11.116-3.943.132-3.394-.579-7.449-1.526-10.64C4.006 320.63.74 314.367 0 314.81c8.127-4.863 17.754-5.188 26.601-5.288 4.368-.048 9.099.975 13.209 2.121z"/><path fill="#80BEB5" d="M58.353 344.783a1.58 1.58 0 0 0 1.096-1.145c.273-1.009 1.825-.728 1.555.287-.299 1.101-1.096 2.009-2.204 2.361-.999.319-1.45-1.186-.447-1.503zm-.752-15.056c.266-1.013 1.82-.729 1.55.284-.476 1.808-1.354 3.403-2.529 4.886-.659.835-1.801-.211-1.147-1.04.993-1.254 1.725-2.609 2.126-4.13z"/><path fill="#FFF" d="M13.66 314.374c11.849-.033 22.474 8.5 29.845 17.146 7.429 8.71 14.126 19.792 15.09 31.422.108 1.302-1.908 1.317-2.015.021-.925-11.147-7.543-22.089-14.774-30.349-7.043-8.048-16.899-16.248-28.101-16.217-1.299.003-1.346-2.021-.045-2.023zm50.789 33.819c.555-1.177 2.317-.169 1.764 1.001-.899 1.9-1.789 3.801-2.287 5.857-.308 1.262-2.263.751-1.957-.516.541-2.221 1.51-4.287 2.48-6.342zm-12.806-18.747c.311-.661 1.219-.85 1.826-.505.67.383.837 1.178.525 1.843-.483 1.016-.962 2.034-1.443 3.053-.315.659-1.219.849-1.83.503-.668-.38-.835-1.175-.523-1.84.484-1.017.962-2.036 1.445-3.054zm12.188 6.972c-.316 1.014-.88 2.13-.887 3.194-.01 1.735-2.698 1.773-2.688.03.009-1.374.563-2.626.969-3.913.515-1.642 3.128-.971 2.606.689z"/></svg>