<?xml version="1.0" encoding="utf-8"?>
<!-- Generator: Adobe Illustrator 17.0.0, SVG Export Plug-In . SVG Version: 6.00 Build 0)  -->
<!DOCTYPE svg PUBLIC "-//W3C//DTD SVG 1.1//EN" "http://www.w3.org/Graphics/SVG/1.1/DTD/svg11.dtd">
<svg version="1.1" id="Слой_1" xmlns="http://www.w3.org/2000/svg" xmlns:xlink="http://www.w3.org/1999/xlink" x="0px" y="0px"
	 width="62.556px" height="25.371px" viewBox="0 0 62.556 25.371" enable-background="new 0 0 62.556 25.371" xml:space="preserve">
<g>
	<g>
		<path fill="#2B2E22" d="M49.87,25.371H12.686C5.691,25.371,0,19.68,0,12.686S5.691,0,12.686,0H49.87
			c6.995,0,12.686,5.691,12.686,12.686S56.865,25.371,49.87,25.371z M12.686,2.733c-5.488,0-9.953,4.465-9.953,9.953
			c0,5.488,4.465,9.953,9.953,9.953H49.87c5.488,0,9.953-4.465,9.953-9.953c0-5.488-4.465-9.953-9.953-9.953H12.686z"/>
	</g>
	<g>
		<path fill="#2B2E22" d="M16.01,15.513h-1.256l-0.033-0.449c-0.457,0.374-1.031,0.574-1.672,0.574
			c-1.846,0-3.102-1.214-3.102-2.952c0-1.696,1.281-2.952,3.069-2.952c0.624,0,1.089,0.158,1.422,0.416V9.858h1.522v2.121h-1.763
			c-0.15-0.432-0.541-0.699-1.123-0.699c-0.832,0-1.281,0.615-1.281,1.339c0,0.848,0.524,1.439,1.389,1.439
			c0.441,0,0.906-0.166,1.264-0.574l-1.572-0.025v-1.173l3.135,0.008V15.513z"/>
		<path fill="#2B2E22" d="M22.638,15.513h-2.57v-0.757l-0.64-0.84H18.92v1.597h-2.279v-1.389h0.541v-2.886h-0.541v-1.38h3.094
			c1.572,0,2.486,0.757,2.486,2.062c0,0.732-0.333,1.306-0.931,1.647l0.474,0.557h0.873V15.513z M19.735,12.528
			c0.432,0,0.723-0.249,0.723-0.615c0-0.349-0.291-0.582-0.723-0.582H18.92v1.198H19.735z"/>
		<path fill="#2B2E22" d="M26.571,14.124h0.74v1.389h-3.235v-1.389h0.74v-0.116l-1.505-2.769h-0.807v-1.38h2.877v1.38h-0.141
			l0.441,0.807l0.441-0.807h-0.133v-1.38h2.877v1.38h-0.798l-1.497,2.769V14.124z"/>
		<path fill="#2B2E22" d="M34.779,12.095H33.39v-0.732h-0.557v2.761h0.857v1.389h-3.451v-1.389h0.857v-2.761h-0.557v0.732h-1.389
			V9.858h5.63V12.095z"/>
		<path fill="#2B2E22" d="M38.804,12.103c0.923,0.2,1.489,0.649,1.489,1.647c0,1.197-0.815,1.888-2.112,1.888
			c-0.657,0-1.206-0.175-1.605-0.524v0.399h-1.397v-1.904h1.497c0.191,0.391,0.607,0.574,1.123,0.574
			c0.399,0,0.565-0.133,0.565-0.308c0-0.133-0.083-0.283-0.424-0.358l-1.123-0.241c-1.114-0.233-1.622-0.765-1.622-1.672
			c0-1.231,0.965-1.871,2.154-1.871c0.482,0,1.048,0.108,1.48,0.449V9.858h1.38v1.805h-1.622c-0.125-0.291-0.424-0.516-0.882-0.516
			c-0.299,0-0.507,0.108-0.507,0.341c0,0.208,0.166,0.308,0.432,0.358L38.804,12.103z"/>
		<path fill="#2B2E22" d="M47.178,15.513h-2.304v-1.064l-0.033-0.091h-2.054l-0.033,0.083v1.073h-2.287v-1.389h0.615l1.181-2.886
			h-0.541v-1.38h3.069l1.755,4.266h0.632V15.513z M43.802,11.53l-0.524,1.455h1.056L43.802,11.53z"/>
		<path fill="#2B2E22" d="M50.313,14.124h0.74v1.389h-3.235v-1.389h0.74v-0.116l-1.505-2.769h-0.807v-1.38h2.877v1.38h-0.141
			l0.441,0.807l0.441-0.807h-0.133v-1.38h2.877v1.38H51.81l-1.497,2.769V14.124z"/>
	</g>
	<g opacity="0.1">
		<path fill="#2B2E22" d="M49.87,2.733H12.686c-5.488,0-9.953,4.465-9.953,9.953c0,0.27,0.014,0.536,0.035,0.8
			c0.409-5.115,4.699-9.153,9.918-9.153H49.87c5.219,0,9.509,4.038,9.918,9.153c0.021-0.264,0.035-0.53,0.035-0.8
			C59.823,7.197,55.358,2.733,49.87,2.733z"/>
	</g>
</g>
</svg>
