<?xml version="1.0" encoding="utf-8"?>
<!-- Generator: Adobe Illustrator 17.0.0, SVG Export Plug-In . SVG Version: 6.00 Build 0)  -->
<!DOCTYPE svg PUBLIC "-//W3C//DTD SVG 1.1//EN" "http://www.w3.org/Graphics/SVG/1.1/DTD/svg11.dtd">
<svg version="1.1" id="Слой_1" xmlns="http://www.w3.org/2000/svg" xmlns:xlink="http://www.w3.org/1999/xlink" x="0px" y="0px"
	 width="129.703px" height="161.589px" viewBox="0 0 129.703 161.589" enable-background="new 0 0 129.703 161.589"
	 xml:space="preserve">
<g>
	<g>
		<g>
			<path fill="#A4BA82" d="M49.629,65.983c-9.967-11.248-18.751-15.027-32.432-17.659c1.556,3.82,3.75,8.796,7.06,13.897
				c6.257,9.641,9.612,13.437,10.892,13.945c1.074,0.415,3.267,0.368,5.961-0.012c0.698-0.111,2.046-0.308,3.776-0.681
				c0.055-0.012,0.108-0.022,0.163-0.034c2.657-0.582,6.169-1.583,9.597-3.316C53.238,70.201,51.582,68.188,49.629,65.983z"/>
		</g>
		<g>
			<path fill="#90A86B" d="M37.407,71.869c0.833,0,1.932-0.093,3.174-0.268l0.254-0.041c0.74-0.116,1.858-0.292,3.253-0.592
				l0.205-0.044c1.486-0.326,2.914-0.719,4.271-1.174c-0.555-0.657-1.145-1.339-1.775-2.049
				c-7.605-8.583-14.301-12.377-23.023-14.788c1.034,2.064,2.245,4.245,3.672,6.445c6.016,9.269,8.538,11.858,9.231,12.478
				C36.826,71.853,37.065,71.869,37.407,71.869z"/>
		</g>
	</g>
	<g>
		<g>
			<path fill="#A4BA82" d="M80.075,65.983c9.967-11.248,18.751-15.027,32.432-17.659c-1.556,3.82-3.75,8.796-7.06,13.897
				c-6.257,9.641-9.612,13.437-10.892,13.945c-1.074,0.415-3.267,0.368-5.961-0.012c-0.698-0.111-2.046-0.308-3.776-0.681
				c-0.055-0.012-0.108-0.022-0.163-0.034c-2.657-0.582-6.169-1.583-9.597-3.316C76.465,70.201,78.121,68.188,80.075,65.983z"/>
		</g>
		<g>
			<path fill="#90A86B" d="M92.296,71.869c-0.833,0-1.932-0.093-3.174-0.268l-0.254-0.041c-0.74-0.116-1.858-0.292-3.253-0.592
				l-0.205-0.044c-1.486-0.326-2.914-0.719-4.271-1.174c0.555-0.657,1.145-1.339,1.775-2.049
				c7.605-8.583,14.301-12.377,23.023-14.788c-1.034,2.064-2.245,4.245-3.672,6.445c-6.016,9.269-8.538,11.858-9.231,12.478
				C92.878,71.853,92.638,71.869,92.296,71.869z"/>
		</g>
	</g>
	<g>
		<g>
			<path fill="#E3BF61" d="M64.851,22.708c-3.461,2.964-10.336,11.084-10.336,16.431s6.875,15.065,10.336,18.028
				c3.46-2.964,10.336-12.682,10.336-18.028S68.311,25.672,64.851,22.708z"/>
		</g>
		<g>
			<path fill="#DBB34F" d="M64.851,53.518c-3.067-3.783-6.543-9.654-6.543-12.511c0-2.669,3.348-7.624,6.543-11.123
				c3.195,3.5,6.542,8.455,6.542,11.123C71.393,43.864,67.918,49.735,64.851,53.518z"/>
		</g>
	</g>
	<g>
		<g>
			<path fill="#B8A05C" d="M24.475,122.436c5.827-16.176,41.964-27.981,57.895-21.619s24.122,24.634,18.296,40.81
				S77.2,165.759,61.269,159.396C45.338,153.033,18.648,138.612,24.475,122.436z"/>
		</g>
		<g>
			<path fill="#C4B17A" d="M48.333,138.863c-5.35-3.284-17.524-11.671-15.028-18.601c1.497-4.156,7.469-9.004,15.584-12.653
				c11.622-5.225,25.478-7.132,32.232-4.434c1.257,0.502,2.476,1.114,3.625,1.819c9.883,6.066,14.211,18.368,10.291,29.252
				c-2.11,5.858-6.323,10.456-11.863,12.946c-5.515,2.48-11.714,2.584-17.454,0.291C59.544,145.016,53.369,141.955,48.333,138.863z"
				/>
		</g>
		<g>
			<path fill="#7E9296" d="M15.655,113.921c-4.796-2.471-6.857-13.63-4.148-18.005c2.709-4.375,8.794-5.918,13.59-3.447
				s6.488,8.021,3.779,12.396C26.167,109.239,20.451,116.392,15.655,113.921z"/>
		</g>
		<g>
			<path fill="#879CA1" d="M17.347,111.209c-0.36,0-0.694-0.082-1.021-0.25c-1.341-0.691-2.651-2.842-3.419-5.614
				c-0.981-3.541-0.908-7.381,0.175-9.13c1.35-2.179,3.93-3.534,6.734-3.534c1.342,0,2.669,0.319,3.84,0.922
				c1.82,0.938,3.098,2.451,3.6,4.261c0.457,1.65,0.2,3.38-0.724,4.873C23.394,107.805,19.703,111.209,17.347,111.209z"/>
		</g>
		<g>
			<path fill="#857362" d="M98.932,96.764c3.829-2.442,13.943,0.207,16.62,3.7c2.677,3.493,1.743,8.304-2.086,10.746
				c-3.829,2.442-9.103,1.59-11.78-1.903C99.009,105.814,95.103,99.206,98.932,96.764z"/>
		</g>
		<g>
			<path fill="#9C8773" d="M109.771,109.577c-2.052,0-3.962-0.894-5.111-2.393c-2.593-3.383-4.138-6.774-3.844-8.439
				c0.063-0.355,0.203-0.568,0.501-0.758c0.585-0.373,1.667-0.586,2.972-0.586c4.27,0,9.278,2.049,10.579,3.745
				c0.868,1.132,1.216,2.497,0.978,3.843c-0.254,1.438-1.132,2.701-2.475,3.557C112.313,109.22,111.068,109.577,109.771,109.577z"/>
		</g>
	</g>
	<g>
		<path fill="#303629" d="M64.851,59.767c2.415,0,6.716-1.845,13.483-10.634c3.105-4.032,8.312-11.893,8.312-19.249
			s-5.208-15.218-8.312-19.249C71.567,1.845,67.266,0,64.851,0c-2.416,0-6.716,1.845-13.483,10.634
			c-3.104,4.032-8.312,11.893-8.312,19.249s5.208,15.218,8.312,19.249C58.135,57.922,62.435,59.767,64.851,59.767z M64.851,13.412
			c3.869,3.314,11.556,12.393,11.556,18.371S68.72,48.627,64.851,51.941c-3.869-3.314-11.556-14.179-11.556-20.158
			S60.982,16.726,64.851,13.412z"/>
	</g>
	<g>
		<path fill="#303629" d="M129.693,44.8c-0.003-0.057-0.001-0.114-0.006-0.172c-0.001-0.006-0.002-0.012-0.002-0.018
			c-0.012-0.135-0.032-0.268-0.054-0.4c-0.006-0.037-0.009-0.075-0.016-0.111c-0.023-0.12-0.054-0.238-0.085-0.355
			c-0.013-0.048-0.022-0.098-0.036-0.145c-0.023-0.077-0.053-0.152-0.079-0.228c-0.361-1.038-1.038-1.917-1.914-2.525
			c-0.014-0.01-0.03-0.018-0.044-0.027c-0.122-0.083-0.247-0.162-0.376-0.235c-0.022-0.013-0.046-0.022-0.069-0.034
			c-0.124-0.067-0.25-0.132-0.38-0.188c-0.009-0.004-0.019-0.007-0.029-0.011c-0.301-0.13-0.617-0.231-0.943-0.301l-0.002,0
			c-0.167-0.036-0.335-0.063-0.506-0.081c-0.004,0-0.007-0.001-0.007-0.001c-0.037-0.004-0.07-0.003-0.103-0.006
			c-0.132-0.012-0.263-0.022-0.397-0.023c-0.096-0.001-0.19,0.005-0.285,0.01c-0.067,0.003-0.134,0.001-0.201,0.007
			c-0.012,0.001-0.025,0.002-0.037,0.003c-0.012,0.001-0.024,0.002-0.036,0.003c-19.69,1.665-32.873,7.682-46.274,22.806
			c-6.448,7.277-10.503,15.875-12.959,23.005c-2.457-7.13-6.512-15.728-12.959-23.005C38.491,47.643,25.309,41.626,5.618,39.961
			c-0.012-0.001-0.024-0.002-0.036-0.003c-0.012-0.001-0.025-0.002-0.037-0.003c-0.068-0.006-0.134-0.004-0.201-0.007
			c-0.095-0.004-0.189-0.011-0.285-0.01c-0.134,0.001-0.266,0.011-0.397,0.023c-0.033,0.003-0.066,0.002-0.1,0.006
			c0,0-0.007,0.001-0.01,0.002c-0.171,0.019-0.339,0.046-0.505,0.081l-0.003,0c-0.326,0.07-0.642,0.171-0.943,0.301
			c-0.009,0.004-0.019,0.007-0.029,0.011c-0.13,0.057-0.256,0.121-0.38,0.188c-0.023,0.012-0.047,0.022-0.069,0.034
			c-0.129,0.072-0.254,0.152-0.376,0.235c-0.014,0.01-0.03,0.018-0.044,0.027c-0.876,0.608-1.553,1.487-1.914,2.525
			c-0.027,0.076-0.056,0.15-0.079,0.228c-0.014,0.047-0.023,0.097-0.036,0.145c-0.031,0.117-0.062,0.235-0.085,0.355
			c-0.007,0.037-0.01,0.074-0.016,0.111c-0.022,0.132-0.042,0.265-0.054,0.4c-0.001,0.006-0.002,0.012-0.002,0.018
			c-0.005,0.058-0.003,0.114-0.006,0.172C0.006,44.906-0.001,45.011,0,45.119c0.001,0.12,0.011,0.238,0.021,0.357
			c0.004,0.046,0.003,0.091,0.008,0.137c0.001,0.005,0.002,0.011,0.002,0.017c0.006,0.054,0.016,0.106,0.023,0.16
			c0.775,6.446,6.041,15.284,11.122,22.658c5.694,8.263,9.063,12.764,15.758,19.545c2.08,2.106,5.311,1.981,7.413,1.674
			c4.906-0.715,9.815-1.746,15.467-3.332c-1.067-2.174-2.514-4.533-4.002-5.968c-5.621,1.513-11.217,2.271-13.159,1.52
			c-1.28-0.508-4.635-4.304-10.892-13.945c-3.31-5.1-5.504-10.077-7.06-13.897c13.681,2.632,22.465,6.411,32.432,17.659
			c10.776,12.161,12.597,18.54,12.598,35.377c0,0.001,0-1.918,0-1.917c0,0,0,0.004,0,0.006c-0.001,4.786-0.766,7.593-2.558,9.385
			c-2.096,2.096-4.83,3.241-8.321,3.484v10.253c8.079,0,12.64-4.49,15.561-8.417c0.152-0.204,0.292-0.402,0.437-0.602
			c0.145,0.2,0.285,0.398,0.437,0.602c2.921,3.927,7.482,8.417,15.561,8.417v-10.253c-3.491-0.243-6.225-1.388-8.321-3.484
			c-1.79-1.79-2.555-4.591-2.558-9.365c0-0.009,0.001,1.902,0.001,1.893c0-16.839,1.821-23.218,12.598-35.38
			c9.967-11.248,18.751-15.027,32.432-17.659c-1.556,3.82-3.75,8.796-7.06,13.897c-6.257,9.641-9.612,13.437-10.892,13.945
			c-1.942,0.751-7.537-0.007-13.159-1.52c-1.488,1.436-2.935,3.794-4.002,5.968c5.653,1.586,10.561,2.618,15.467,3.332
			c2.102,0.306,5.333,0.432,7.413-1.674c6.695-6.781,10.064-11.281,15.758-19.545c5.081-7.373,10.347-16.211,11.122-22.658
			c0.008-0.053,0.017-0.106,0.023-0.16c0.001-0.005,0.002-0.011,0.002-0.017c0.005-0.046,0.004-0.091,0.008-0.137
			c0.01-0.118,0.019-0.236,0.021-0.357C129.705,45.011,129.698,44.906,129.693,44.8z"/>
	</g>
</g>
</svg>
