<svg xmlns="http://www.w3.org/2000/svg" width="269.877" height="471.687" viewBox="0 0 269.877 471.687"><path fill="#9F7D5D" d="M30.383 254.179c.278-.863.307-1.698.335-2.483.06-1.636.115-3.056 2.399-4.072 2.155-.958 4.452.318 6.512-1.349.939-.759 1.257.742 1.76 1.095.784.55 1.433.744 2.5.942.221 4.98-1.79 9.207-4.642 13.243-.653.925-9.565 10.281-8.578 10.946-3.274-2.206-4.392-6.699-4.672-10.409-.392-5.177 3.045-3.734 4.386-7.913z"/><path fill="#896B54" d="M45.919 224.069c2.583-1.224 6.047-1.286 8.762-.581 1.141.297 2.26.751 3.259 1.394 2.395 1.548 3.409 3.844 3.237 6.741-.085 1.411-.378 3.158-1.226 4.315-.627-2.075-.634-3.697-2.261-5.282a13.3 13.3 0 0 0-2.777-2.05c-1.758-.987-3.693-1.643-5.63-2.24-.916-.283-1.951-.515-2.895-.58-.516-.036-1.832.331-2.243-.013-.686-.572 1.288-1.475 1.774-1.704z"/><path fill="#CF9381" d="M42.761 245.133c.101-1.292-.474-7.96-.078-9.16 1.102-3.342 7.693 1.644 9.791 2.589 1.079.487 2.405 1.386 3.306 2.237 1.753 1.653 2.568 1.167 2.059 3.325-1.059 4.47-.205 10.913.378 15.532.121.946.73 2.497.7 3.369-.042 1.17-1.221 2.116-1.89 3.106-1.98 2.927-4.897 3.829-8.098 3.284-2.067-.353-4.827-1.42-6.438-3.197-1.399-1.546-1.55-3.598-3.619-4.205 4.146.561 3.647-13.768 3.889-16.88z"/><path fill="#DEDDE5" d="M49.159 249.56l-.048-.016.04.012z"/><path fill="#A3857E" d="M46.685 229.775c.07.084.14.18.205.282l-.205-.282zm-.342-.346c-.011-.058-.02-.116-.033-.168l.375.514a2.493 2.493 0 0 0-.342-.346z"/><path fill="#CF9381" d="M46.203 242.684c.096.116.182.238.258.365a5.23 5.23 0 0 0-.296-.387l-.084-.099.03.016c.031.033.063.069.092.105z"/><path fill="#DF9F83" d="M41.315 235.644c.667-.378 1.578-.16 2.123-.771.854-.959 1.165-2.654 1.182-3.91.026-1.837.212-3.706.932-5.409.844-1.988 2.691-1.674 4.118-.889 1.077.593 2.343.395 3.445.86.821.346 1.466.735 2.354.976 1.516.411 2.928 1.057 3.715 2.3.268.426.464.922.567 1.502.354 2.029-.011 4.263.729 6.142 1.036 2.637-.644 5.853-1.591 8.327-.242.637-.527 1.447-.88 2.26-.83 1.916-1.734 3.237-3.788 3.421-1.68.15-3.241-.625-4.757-1.275-1.836-.787-3.796-1.934-4.856-3.775-.891-1.551-1.005-3.609-2.721-4.49-1.23-.63-1.949-2.328-1.681-3.68.131-.664.515-1.252 1.109-1.589z"/><path fill="#A28061" d="M50.287 232.033c.681-.023 1.237-.234 1.89-.401-.005.998-1.349 1.65-1.232 1.662-.159-.013-1.706-.303-2.46-.391-.247-.028-.407-.036-.411-.005.151-.967 1.546-.843 2.213-.865z"/><path fill="#BE8678" d="M42.539 237.58c.074.62.09 1.261.128 1.887l-.815-.156c-.258-.734-.497-1.95.687-1.731z"/><path fill="#A28061" d="M58.642 232.182c.706.321 1.224.425.888 1.32.058-.149-1.827-.373-1.967-.412-.246-.068-.423-.157-.546-.266-.371-.327-.276-.834-.074-1.483-.173.567.566.336 1.699.841z"/><path fill="#D2ADA3" d="M47.858 238.022l-.003-.003.006.003z"/><path fill="#D6B6AD" d="M44.614 235.088l-.011-.033.011.033z"/><path fill="#DF8778" d="M47.184 238.762c.573-.976 3.425-.329 2.56 1.378-.689 1.361-3.547.084-2.58-1.35-.063.12-.011.027.02-.028z"/><path fill="#9F7D5D" d="M44.304 234.844c.32 1.335.512 2.864 1.013 4.216.228.613.519 1.19.913 1.696 1.611 2.07 4.369.859 6.534.788 1.92-.062 3.746 1.058 5.673.906 2.215-.175 2.463-3.045 2.309-4.768.697.901 1.011 2.301 1.005 3.435-.008 1.604-.437 3.183-.757 4.744-.435 2.129-.889 4.468-2.473 6.079-2.506 2.551-7.065 1.816-9.533-.251-1.747-1.463-2.906-3.533-3.614-5.702-.725-2.228-1.575-4.423-1.993-6.74-.163-.903-.431-1.872-.355-2.796.024-.311 1.093-2.368 1.278-1.607z"/><path fill="#D7B898" d="M48.317 243.698a.352.352 0 0 1 .489-.149c.173.101.229.33.14.513l-.137.286a.352.352 0 0 1-.487.149c-.176-.102-.232-.33-.142-.516l.137-.283zm.188 2.133l.045.048a.4.4 0 0 1 .012.536.348.348 0 0 1-.508.013l-.046-.048a.4.4 0 0 1-.011-.537c.133-.144.371-.159.508-.012zm-.048 1.572c.173-.056.411.05.451.252.039.227.093.449.174.665.07.193-.063.415-.241.474-.197.063-.378-.06-.448-.254a4.1 4.1 0 0 1-.176-.663c-.038-.202.039-.408.24-.474zm.698 2.371c.193-.063.381.057.448.251l.001.006.014.027.005.008h.001l.058.055.014.011.003.005c.162.116.244.319.143.514-.087.168-.327.268-.489.151-.201-.148-.354-.309-.438-.557a.383.383 0 0 1 .24-.471zm1.045-6.832c.178.102.231.331.142.515l-.036.09-.011.041v.005c-.006.206-.143.384-.348.391-.185.008-.378-.158-.372-.364.007-.195.055-.357.137-.528a.353.353 0 0 1 .488-.15zm-.324 1.716c.19.046.31.255.266.455a1.05 1.05 0 0 0-.033.228 5.509 5.509 0 0 0-.007.288c-.002.205-.144.384-.345.392a.372.372 0 0 1-.375-.364c.003-.239.007-.483.061-.716a.36.36 0 0 1 .433-.283zm.024 2.217a.37.37 0 0 1 .373.365c0 .055-.001.11.004.166v.008l.004.01.019.051c.077.19-.067.419-.238.472-.205.067-.371-.062-.449-.25-.055-.133-.058-.286-.058-.43-.002-.206.143-.386.345-.392zm.549 2.159c.128-.14.376-.166.506-.012.043.05.086.104.119.159.014.021.086.115.014.032.134.153.158.377.014.536-.128.14-.378.166-.507.011a1.202 1.202 0 0 1-.118-.158c-.014-.022-.086-.115-.017-.031-.13-.154-.153-.379-.011-.537zm.873 2.254c.166.091.336.221.426.395.102.193.059.435-.124.555a.373.373 0 0 1-.527-.132l-.005-.011-.043-.04-.027-.022-.067-.038c-.186-.104-.25-.359-.153-.549a.38.38 0 0 1 .52-.158zm6.89-.688a.352.352 0 0 1 .509-.012.4.4 0 0 1 .012.537c-.099.104-.176.225-.271.329a.348.348 0 0 1-.509.012.395.395 0 0 1-.011-.534c.096-.105.173-.227.27-.332zm.765-1.572c.108-.174.307-.256.489-.15.162.093.246.341.141.515-.039.068-.08.138-.109.213l-.005.016-.004.009-.03.091c-.064.197-.229.334-.433.281-.178-.042-.331-.259-.269-.455.063-.181.12-.362.22-.52zm-12.41-4.462l.002-.014c.004-.036.004-.073.004-.11 0-.206.144-.384.346-.391a.368.368 0 0 1 .371.365 1.334 1.334 0 0 1-.09.527c-.079.188-.326.243-.489.149-.182-.105-.222-.325-.142-.515-.038.093-.007.015-.002-.011zm4.635 2.286c.173-.055.41.05.448.253.047.234.114.463.227.67.231.425-.379.824-.612.399a2.917 2.917 0 0 1-.303-.847c-.041-.203.04-.41.24-.475zm.715 3.597c.054.027.102.061.153.091l.074.044c.016.008.11.046.016.014.204.067.347.227.288.447-.047.18-.281.351-.481.283a1.252 1.252 0 0 1-.289-.126 1.738 1.738 0 0 0-.154-.092.36.36 0 0 1-.148-.506.421.421 0 0 1 .541-.155zm1.914-.035l.622.004a.396.396 0 0 1 .395.389c.007.212-.16.419-.368.418l-.622-.004a.397.397 0 0 1-.396-.389c-.008-.212.159-.418.369-.418zm2.433-.313c.043-.022.085-.043.126-.068l.055-.042.019-.017c.143-.141.362-.16.508-.013.136.137.155.394.012.535a1.365 1.365 0 0 1-.343.25c-.175.091-.386.064-.495-.124-.095-.164-.057-.43.118-.521zm1.085-1.147l.005-.005.044-.074c.044-.079.096-.155.155-.22a.345.345 0 0 1 .505-.012.394.394 0 0 1 .014.535l-.026.029-.003.007-.044.075a1.343 1.343 0 0 1-.155.22.35.35 0 0 1-.508.012.398.398 0 0 1-.009-.536l.022-.031zm2.107-1.469l.022-.057.027-.066c.064-.196.226-.334.431-.28.178.043.332.259.267.454-.03.086-.059.172-.093.255l-.023.058-.024.066c-.064.195-.224.333-.43.281-.175-.044-.332-.261-.266-.455.027-.085.057-.172.089-.256zm-.362-2.11a.37.37 0 0 1 .372.364l-.002.332c0 .206-.145.386-.347.393a.37.37 0 0 1-.372-.366l.001-.33c.002-.207.147-.387.348-.393zM47.053 246.7c.464.002.489.76.027.758-.465-.003-.489-.761-.027-.758zm5.4 2.702c.14.078.275.18.389.297.139.145.15.387.013.536a.35.35 0 0 1-.509.013.926.926 0 0 0-.086-.08l-.014-.014-.005-.003a1.702 1.702 0 0 0-.132-.083c-.172-.097-.236-.337-.142-.516a.35.35 0 0 1 .486-.15zm2.174-.251l.057-.005.033-.008.03-.016.01-.007c.142-.127.348-.144.491.001.135.135.156.395.012.535a.88.88 0 0 1-.609.256.369.369 0 0 1-.371-.363c-.008-.204.15-.389.347-.393zm1.622-.704l.029-.05a.352.352 0 0 1 .486-.15c.175.1.235.333.143.516a1.276 1.276 0 0 1-.189.269.351.351 0 0 1-.508.011c-.138-.14-.153-.39-.014-.536l.053-.06zm1.911-1.454c.084-.184.321-.244.486-.149.179.103.229.33.144.514l-.035.08-.006.016-.006.014-.057.173c-.062.197-.227.332-.433.282-.176-.044-.328-.26-.266-.457.051-.158.103-.319.173-.473zm-4.624 1.283c.068.024.134.048.2.065.032.008.064.016.095.021h.012a.375.375 0 0 1 .373.365c.006.196-.152.4-.348.393a1.607 1.607 0 0 1-.499-.106c-.187-.068-.316-.241-.267-.457.043-.186.248-.348.434-.281zm6.313-3.43l.004-.004c.04-.184.184-.319.387-.291.186.025.371.218.339.417a.689.689 0 0 1-.206.426c-.143.132-.394.088-.519-.064a.368.368 0 0 1-.01-.474c.005-.026.012-.057.005-.01z"/><path fill="#827076" d="M52.562 245.328c.462.005.489.761.026.759-.463-.004-.491-.761-.026-.759z"/><path fill="#D7B898" d="M53.599 252.064l.622.005a.396.396 0 0 1 .396.389c.005.211-.161.419-.369.417l-.622-.004a.395.395 0 0 1-.396-.388c-.007-.213.161-.42.369-.419zm2.253-.67c.046-.023.088-.044.133-.072l.06-.043.022-.02c.15-.15.383-.171.539-.012.146.145.165.419.014.57-.112.11-.23.193-.366.264-.186.098-.407.07-.524-.131-.102-.174-.063-.457.122-.556z"/><path fill="#DF9F83" d="M51.449 243.03c1.359-.33 4.667-1.652 5.796.028.63.938-.005 2.781-.822 3.357-.814.574-2.013.507-2.935.217-1.393-.44-3.273-1.841-2.508-3.481l.469-.121z"/><path fill="#D2937F" d="M51.272 242.196c.264-.006-.03.711-.219.774a.196.196 0 0 1-.084.008c-.032-.003.142-.776.303-.782zm6.081.034c.018-.017.417.481.339.587-.127.174-.429-.373-.375-.526l.036-.061z"/><path fill="#DF8778" d="M57.609 238.822c.43-.657 2.59-.221 1.935.93-.519.914-2.683.053-1.954-.911-.045.079-.006.016.019-.019z"/><path fill="#9F7D5D" d="M45.158 222.958a12.574 12.574 0 0 1 3.183-.364c1.305.019 2.608.262 3.74.801 1.364.647 2.246 1.543 2.782 2.957-3.426.171-7.212.928-9.049 4.271-.607 1.101-.799 2.247-.964 3.463-.084.631-.105 2.183-.853 2.436-.228.077-1.248-.618-1.685-.641-3.187-.173-2.235 5.13.342 5.054.253 1.114 1.725 5.499.507 6.311-1.512 1.008-4.298-1.409-4.985-2.544-1.318-2.176-1.761-5.278-1.815-7.789-.049-2.194.205-4.413.82-6.518 1.192-4.067 3.962-6.45 7.977-7.437z"/><path fill="#2B3340" d="M43.01 247.282c.318.48.233.776-.573.994-1.163.319-4.72-1.029-3.691-2.185.777-.874 3.854.571 4.264 1.191z"/><path fill="#CDA376" d="M59.642 227.002c.379.168.692.536.874.907.266.538-.564.915-.83.377-.002-.006-.061-.106-.033-.069l-.05-.069c-.041-.053-.083-.109-.132-.157l-.052-.054-.035-.029-.062-.044c-.226-.105-.355-.352-.269-.593.084-.229.356-.37.589-.269z"/><path fill="#C2897C" d="M41.428 256.017c.644-2.459.556-5.084.961-7.586.363-2.247.258-4.491.566-6.687.307 1.64 2.143 3.233 2.856 4.782.782 1.699 1.389 3.612 2.835 4.87 2.181 1.898 5.658 2.869 8.668 1.466.008-.005-.602 1.43-.908 1.67-.743.581-1.875.587-2.759.667-4.168.378-6.96-5.349-8.344.041-.77 2.993-2.198 9.666-6.239 5.296.451.489 2.277-4.186 2.364-4.519z"/><path fill="#50484C" d="M49.05 235.017c.66-.472 1.501-.562 2.096-.222.37.213.968.784.813 2.222l-.622-.066c.087-.807-.093-1.383-.505-1.62-.382-.217-.951-.143-1.414.189-.486.347-.71.872-.596 1.404l-.613.127c-.165-.78.149-1.538.841-2.034zm7.896.478c.593-.423 1.347-.503 1.877-.198.333.19.87.701.729 1.991l-.556-.058c.077-.725-.084-1.241-.454-1.453-.342-.195-.852-.128-1.267.168-.435.312-.635.783-.534 1.26l-.549.114c-.149-.699.133-1.38.754-1.824z"/><path fill="#FFF" d="M56.894 243.339c.013.102.02.204.023.304.05 1.385-.775 2.529-2.459 2.258-1.131-.182-3.109-1.114-2.834-2.421.131-.611 5.3.096 5.27-.141z"/><path fill="#BA9577" d="M56.645 241.123c1.141.122 2.372.482 3.508.457.192 1.741-.394 2.434-1.909 2.557-.883.072-1.921-.452-2.466-1.312-.847-1.344-.127-1.806.867-1.702z"/><path fill="#BA9577" d="M50.203 240.928c1.072.119 2.129.231 3.209.043.782-.138 1.918-.632 2.518.257.579.864-.287 2.275-1.095 2.608-.804.334-2.02.47-2.979.22-.264-.068-.487-.211-.718-.299-.796-.3-1.718-2.915-.935-2.829z"/><path fill="#D2937F" d="M55.41 235.42c.338.927.242 1.986.527 2.943.096.315.308.597.53.862.295.353.612.675.699.999.529 1.996-1.981 1.459-2.655.343-.509-.843-.799-5.358.899-5.147z"/><path fill="#D7B898" d="M50.924 241.385c.09.003.178.013.264.029l.1.02.017.001h.023a.376.376 0 0 1 .372.366c.005.195-.153.398-.348.392a1.819 1.819 0 0 1-.266-.029l-.1-.017-.017-.003h-.019a.37.37 0 0 1-.371-.365c-.007-.197.148-.401.345-.394zm1.528.011l.36.002a.372.372 0 0 1 .37.366c.006.2-.15.392-.347.392l-.36-.002a.373.373 0 0 1-.37-.368c-.008-.198.149-.392.347-.39zm1.484-.087l.055-.001c.144-.113.338-.127.475.015.134.135.159.397.014.535a.713.713 0 0 1-.519.211.37.37 0 0 1-.37-.366c-.009-.201.149-.393.345-.394zm-2.301 1.218c.068 0 .132.002.197-.004l.014-.002.01-.003.049-.021c.18-.082.396.072.449.253.062.214-.059.39-.24.473-.138.065-.304.062-.451.061a.374.374 0 0 1-.373-.365c-.008-.199.15-.394.345-.392zm1.665-.132c.032.001.061 0 .093-.002l.085-.026c.181-.084.397.072.448.251.062.216-.06.391-.238.473a.818.818 0 0 1-.363.061.372.372 0 0 1-.373-.364c-.005-.201.15-.393.348-.393zm1.129-.171c.038-.021.077-.039.116-.063.022-.013.116-.09.038-.017.145-.137.357-.164.507-.013.134.133.16.398.012.536a1.224 1.224 0 0 1-.297.201c-.176.091-.386.066-.496-.123-.095-.163-.057-.43.12-.521zm-1.831.831h.202a.375.375 0 0 1 .374.366c.005.199-.152.392-.348.392l-.202-.001a.374.374 0 0 1-.373-.365c-.006-.199.152-.394.347-.392zm1.504.057l.007-.003.036-.015a.498.498 0 0 1 .138-.028c.196-.021.366.168.373.363a.38.38 0 0 1-.348.394c.124-.013.026.007-.012.018a1.054 1.054 0 0 1-.168.029c-.196.009-.365-.161-.371-.367a.375.375 0 0 1 .345-.391zm3.465-1.263l.014.001.009.002c.039.001.077.003.117.003a.373.373 0 0 1 .371.365c.007.2-.15.394-.345.392a1.105 1.105 0 0 1-.503-.096c-.178-.087-.231-.343-.141-.515.098-.186.304-.233.478-.152zm1.353.156l.316.002a.376.376 0 0 1 .37.367c.006.198-.152.394-.346.391l-.314-.001a.376.376 0 0 1-.375-.367c-.003-.199.152-.393.349-.392zm-1.374.892l.02-.001a.375.375 0 0 1 .372.368c.006.198-.153.393-.348.392a.716.716 0 0 1-.528-.2.398.398 0 0 1-.014-.538.348.348 0 0 1 .498-.021zm.962.101l.179.002c.197 0 .367.152.375.364.004.199-.153.395-.349.392h-.18a.375.375 0 0 1-.371-.366c-.006-.199.149-.394.346-.392z"/><path fill="#D79981" d="M50.785 227.028c1.301-.42 2.966-.199 4.117-1.01-.14.098 2.009.98 2.183 1.068 1.188.587 2.146 1.7 2.605 2.965.153.418.256 2.429.423 2.589-1.198-1.15-1.04-3.216-2.283-4.23-.528-.433-1.838-1.305-2.506-1.38-.584-.065-1.767.724-2.459.898-1.636.411-3.344.551-4.572 1.859-.88.935-1.555 2.095-2.159 3.319-.449.91-.851 1.979-1.389 2.829-.257-2.099.217-4.251 1.513-5.948 1.114-1.454 2.815-2.406 4.527-2.959z"/><path fill="#2A333F" d="M49.764 235.314a.669.669 0 0 1 .627.714.684.684 0 0 1-.705.646.662.662 0 0 1-.625-.713.679.679 0 0 1 .703-.647zm7.882.601a.543.543 0 0 1 .516.58c-.027.294-.305.512-.617.487-.315-.025-.544-.285-.515-.58.028-.295.305-.513.616-.487z"/><path fill="#CDA376" d="M47.648 225.302a9.768 9.768 0 0 1 1.919-.705c.615-.157.875.792.261.947a8.511 8.511 0 0 0-1.683.606c-.567.28-1.065-.568-.497-.848zm-3.174 2.915c.088-.252.331-.418.604-.343.244.067.433.353.343.604-.193.546-.542.96-.945 1.364-.449.448-1.144-.246-.696-.695.277-.276.56-.554.694-.93zm-2.972 4.845a.55.55 0 0 0 .009-.013c.033-.051.053-.098.077-.145.058-.116.137-.222.227-.317a.493.493 0 0 1 .695 0c.193.193.184.5 0 .694l-.015.017-.014.02c-.027.044-.049.09-.072.137a1.318 1.318 0 0 1-.227.318.494.494 0 0 1-.694 0 .498.498 0 0 1 .014-.711zm-1.556 8.623c.219-.128.558-.064.674.177.143.293.231.575.231.903a.496.496 0 0 1-.491.491.495.495 0 0 1-.491-.491l-.002-.094-.001-.041a1.712 1.712 0 0 0-.038-.145c-.005-.014-.012-.028-.016-.042.009.028-.036-.079-.036-.079-.121-.246-.071-.536.17-.679zm2.447-15.551c.356-.52 1.21-.029.848.496-.352.515-.794.96-1.147 1.474-.356.52-1.208.029-.848-.496.352-.514.795-.959 1.147-1.474zm-3.489 6.179c.199-.598 1.147-.342.947.261l-.492 1.475c-.199.598-1.148.341-.948-.261l.493-1.475zm-.346 5.865c.268 0 .493.223.493.491v.656a.497.497 0 0 1-.493.491.497.497 0 0 1-.492-.491v-.656c0-.268.225-.491.492-.491zm.656 12.779c0-.634.981-.634.981 0 0 .644.01 1.31-.181 1.932-.184.605-1.134.347-.947-.261.165-.541.145-1.113.147-1.671zm-1.735 4.994c.291-.563 1.139-.066.848.496-.393.761-.952 1.457-1.551 2.066-.446.451-1.14-.244-.696-.695.546-.554 1.04-1.175 1.399-1.867zm-3.1-5.582c.523-.344 1.083-.631 1.538-1.071.456-.44 1.151.255.694.695-.517.499-1.143.834-1.738 1.223-.53.35-1.023-.502-.494-.847zm-2.357 4.553c.132-.619 1.081-.357.947.261a5.795 5.795 0 0 1-1.032 2.247c-.37.505-1.225.015-.849-.497.455-.616.775-1.261.934-2.011zm-2.941 6.434c.046-.23.108-.441.206-.654.111-.243.458-.302.672-.176.248.145.288.428.177.672-.07.15-.09.332-.121.493-.046.23-.108.441-.207.655-.111.243-.458.301-.672.176-.247-.145-.287-.429-.177-.673.069-.15.09-.332.122-.493zm6.218-6.598c.203-.597 1.152-.341.947.261-.173.513-.399.973-.78 1.364-.445.455-1.139-.241-.697-.696.261-.266.411-.578.53-.929zm-2.899 5.125c.124-.237.448-.307.671-.176.24.14.302.436.178.672-.186.35-.471.634-.656.982-.124.237-.449.308-.672.177a.502.502 0 0 1-.178-.673c.187-.349.472-.632.657-.982z"/><path fill="#6B92B8" d="M61.733 265.326c1.424-.779 3.021-1.11 4.772-.813 4.378.743 7.8 4.426 12.111 5.571 5.018 1.334 9.679-.175 13.903-3.005 4.657-3.121 7.078-9.701 13.881-8.43 18.542 3.47 4.588 25.306-2.633 31.673-8.48 7.472-18.403 9.028-29.412 7.215-6.444-1.059-17.297-4.207-19.755-11.185-1.996-5.665.92-17.623 7.133-21.026z"/><path fill="#7EA082" d="M105.76 256.291c.407-.028.908.061 1.446.227 1.474.452 3.221 1.468 4.048 2.22 2.787 2.532 8.869 8.664 4.332 12.116-.231.176-4.096-3.811-6.954-6.758-1.51-1.555-2.74-2.819-3.008-3.028-.492-.385-2.635-1.387-2.796-1.803-.539-1.412 1.648-2.894 2.932-2.974z"/><path fill="#A6CEAE" d="M108.374 258.06a10.02 10.02 0 0 0-2.848 1.396c-.9.627.004 2.073.91 1.441.757-.527 1.56-.946 2.447-1.211 1.054-.316.547-1.943-.509-1.626zm2.642 3.054c-.332-.311-.898-.308-1.207.04a2.084 2.084 0 0 0-.341.508l-.079.164a1.24 1.24 0 0 1-.035.062c-.004.003-.005.003-.01.011a.86.86 0 0 0 .04 1.204c.332.31.898.308 1.207-.04.137-.153.255-.323.341-.508.028-.055.053-.111.079-.165a.611.611 0 0 1 .036-.061l.01-.011a.861.861 0 0 0-.041-1.204zm3.058 3.797a.864.864 0 0 0-1.207.038l-.71.753a.858.858 0 0 0 .039 1.205.864.864 0 0 0 1.207-.04l.71-.754a.855.855 0 0 0-.039-1.202z"/><path fill="#98C2A1" d="M21.6 310.974v1.499c0 .805 1.249.805 1.249 0v-1.499c0-.807-1.249-.807-1.249 0zm3.315 9.677c-.291-.326-.192-1.038-.193-1.433 0-.804-1.25-.804-1.248 0 0 .807-.011 1.679.556 2.316.539.603 1.419-.284.885-.883zm2.624 8.244c-.124-.136-.188-.399-.254-.593-.113-.336-.254-.641-.496-.906-.544-.596-1.425.29-.883.885.123.134.188.397.255.593.112.336.253.641.495.905.542.596 1.423-.289.883-.884zm1.807-12.549c-.805 0-.805 1.249 0 1.249s.805-1.249 0-1.249z"/><path fill="#627D96" d="M18.006 460.826c.172.013.352.056.54.13 1.092.436 4.36 4.063 4.508 5.152.109.81-.845 2.202-1.182 2.884-2.094-.229-5.259-2.475-5.849-4.521-.466-1.611.432-3.773 1.983-3.645z"/><path fill="#627D96" d="M20.791 468.702c1.823-4.549 6.136-1.633 9.419-.823 1.911.471 5.743-1.896 6.807.4 1.436 3.094-3.848 3.577-5.692 3.365-3.618-.416-7.199-1.497-10.534-2.942z"/><path fill="#83B08C" d="M18.168 461.463c-1.628-2.963-1.182-8.743-.914-11.817.299-3.442.624-7.152 1.84-10.405 1.665-4.453 7.613-5.843 10.519-2.285 2.195 2.687 1.222 5.663.484 8.9-.675 2.955-1.829 5.931-2.029 8.973-.152 2.325.131 5.057.499 7.354.179 1.133 1.37.326.472 1.076-2.752 2.311-6.012.467-8.802-.505-1.185-.413-1.537-.321-2.069-1.291zm43.157-23.033l-.003-.013c-1.094-3.744-1.856-9.769 1.475-12.639 1.871-1.613 11.833-2.885 13.772-1.006.789.763.986 1.707.854 2.71-.624 4.849-.621 10.223-1.84 14.925-1.503 5.809-1.304 11.901 2.107 17.006-3.006 3.387-8.042 2.418-11.443-.249-1.498-1.174-1.327-3.369-1.865-5.038-.921-2.856-.738-5.393-.9-8.438-.144-2.715-1.395-4.713-2.157-7.258z"/><path fill="#161F26" d="M34.498 465.208c-1.457-1.035-4.283-3.91-5.944-4.074-.877-.087-2.133.706-3.105.748-.628.027-8.058-1.254-7.988-2.668-.017-.009-.033-.022-.05-.031-1.833 3.015-.747 5.404 2.192 7.042 2.705 1.506 5.884 2.061 8.764 2.956 1.68.523 5.984 1.533 7.539.252 1.979-1.626-.042-3.256-1.408-4.225z"/><path fill="#3B4755" d="M64.158 392.842c3.839-4.238 12.526-5.182 15.783.027 5.173 8.272 1.846 20.091-.115 28.885-2.488 11.165-4.97 22.805-3.929 34.277.138 1.556-10.933.351-12.168-.474-3.178-2.124-3.723-6.322-4.326-9.8-1.298-7.497-.285-15.072-.693-22.611-.495-9.148-1.232-22.73 5.374-30.222.025-.027.051-.055.074-.082z"/><path fill="#3B4755" d="M39.701 330.052c.465.01.93.021 1.393.029 2.779.049 5.567.095 8.345.001 4.545-.153 8.963-.738 13.336-1.909 5.727 16.685 11.312 33.489 15.671 50.619 1.741 6.838 4.194 14.493 3.087 21.615-1.436 9.206-14.584 6.457-19.804 3.017-7.539-4.968-12.071-14.898-16.468-22.564-4.838-8.438-9.185-17.659-10.458-27.496-.643-4.966-.379-8.235-2.341-12.891-.285-.675-3.489-9.628-3.781-9.609.826-.053 1.855-.25 3.008-.544 2.674.015 5.353-.085 8.012-.268z"/><path fill="#4C596F" d="M17.035 436.62c1.042-12.708 2.161-26.019 7.605-37.202 2.483-5.1 9.144-13.214 15.511-9.177 3.884 2.463 7.541 11.272 6.289 15.882-1.102 4.057-2.744 7.994-4.356 11.976-4.073 10.057-6.292 20.545-9.689 30.901-1.075 3.275-1.107 8.077-4.377 9.732-2.255 1.143-5.588.253-7.807-.51-4.718-1.625-4.505-7.561-4.049-11.863.335-3.174.601-6.437.873-9.739z"/><path fill="#4C596F" d="M53.099 369.723c1.61-11.251 3.261-22.073 3.161-33.636-.108-12.579-14.411-10.73-22.689-6.713-6.079 2.953-8.958 10.834-9.799 17.118-1.478 11.009-.771 23.578 1.031 34.532 1.188 7.231 2.623 17.025 8.977 21.827 4.53 3.424 13.824 4.174 15.328-2.408 2.31-10.106 2.527-20.492 3.991-30.72z"/><path fill="#ECF5F8" d="M65.577 397.013l-.008-.012.008.012z"/><path fill="#627D96" d="M63.282 461.33c.028-.049.056-.098.082-.148 3.433.961 8.777 1.717 12.561 1.311-.077 1.334-.034 2.772-.587 4.19-2.776-.067-6.918.02-9.166-.776-2.151-.76-2.684-2.918-3.062-4.379a.619.619 0 0 0 .172-.198z"/><path fill="#627D96" d="M71.836 462.544c1.632-.673 2.12-.154 3.696.288 3.11.874 6.818 2.403 9.542-.338 2.674 1.1-.439 3.354-1.983 3.794-2.704.768-5.717.648-8.464.176-1.975-.339-7.398-2.02-2.791-3.92z"/><path fill="#161F26" d="M64.82 456.971c.633-.167 1.27.781 2.123 1.238 1.452.777 3.689 1.342 5.326 1.21 1.713-.136 2.118-1.584 3.611-1.912 1.723-.38 3.879 1.894 5.547 2.461 1.585.54 5.065 1.065 4.775 3.309-.244 1.874-6.432 1.838-8.26 1.553-3.542-.555-17.849.829-13.893-7.022.264-.527.518-.771.771-.837z"/><path fill="#6382AB" d="M68.101 266.372c-.286-1.893-1.05-2.675-3.804-3.789-.531-.214-3.926-1.995-4.145-1.911-1.885.721-2.891 3.42-4.173 4.855-1.411 1.581-2.959 2.673-5.103 2.98-4.004.574-8.908-1.416-11.157-4.828-2.111-3.196-2.979-3.215-6.83-2.27-1.585.389-3.121.993-4.606 1.656-2.49 1.114-5.223 2.249-7.07 4.309-1.89 2.107-3.306 4.691-4.011 7.436-.82 3.183-1.424 7.231-.343 10.384.553 1.616.401 3.318.455 5.009.068 2.094.178 4.185.25 6.278.281 8.046 1.413 15.673 2.73 23.594 1.065 6.416 2.404 15.235 10.296 16.603 8.292 1.44 17.484 2.262 25.678-.131 2.897-.846 6.089-1.762 7.673-4.478 2.023-3.469 2.201-7.685 1.335-11.524-1.384-6.131.09-12.614-.05-18.77-.081-3.561 1.128-7.437 1.708-10.946.585-3.56 1.119-7.132 1.34-10.736.226-3.653.212-7.316.032-10.972-.054-1.132-.093-2.023-.205-2.749z"/><path fill="#577286" d="M57.563 261.123c-.241.467-.474.936-.689 1.407-.336.738-.625 1.286-1.234 1.877-1.158 1.121-2.659 1.867-4.234 2.242-3.19.757-6.802.008-9.176-2.287-.469-.453-.892-.968-1.305-1.472-.531-.649-.808-1.537-1.279-2.13-1.088-1.37-2.916-.071-4.107.433-.71.301 2.677 4.239 3.117 4.643a14.753 14.753 0 0 0 6.113 3.38c2.996.811 6.52.477 9.39-.648 1.386-.543 2.83-1.321 3.782-2.483.594-.725 1.035-1.723 1.544-2.52.489-.764.926-1.928.198-2.687-.43-.448-1.028-.628-1.332-1.225a63.47 63.47 0 0 0-.788 1.47zm-33.746 70.008c6.75 1.536 9.321 1.901 14.138 1.924 8.396.039 16.461-1.983 24.686-4.912.713-.252 1.43-.515 2.147-.783 1.157-.43 1.238 4.825.829 5.516-1.174 1.981-4.723 2.822-7.35 3.582-7.905 2.284-16.127 3.127-23.785 3.175-3.556.02-7.769-.241-10.175-1.928-1.24-.867-1.034-1.657-.975-3.09.009-.242.105-4.466.485-3.484z"/><path fill="#739DBD" d="M62.925 330.516c.461-.058.887.345.939.884l.156 1.695c.052.541-.291 1.038-.754 1.097-.46.058-.889-.345-.938-.884l-.159-1.695c-.049-.54.293-1.038.756-1.097zm-3.794 1.335c.464-.058.889.343.94.882l.175 1.885c.05.541-.291 1.037-.754 1.096-.463.057-.888-.343-.939-.884l-.176-1.886c-.052-.538.292-1.036.754-1.093zm-4.235 1.239c.348-.301.952-.255 1.193.208.449.869.665 2.024.137 2.912-.263.445-.854.472-1.197.151-.342-.324-.386-.837-.198-1.26l.003-.055c-.002-.039-.002-.079-.006-.119-.005-.058-.014-.114-.021-.172l-.015-.053c-.011-.043-.146-.367-.071-.221-.241-.464-.222-1.047.175-1.391zm-2.759 1.21l.185 1.978c.118 1.277-1.575 1.49-1.695.212l-.182-1.977c-.12-1.277 1.574-1.489 1.692-.213zm-4.732.45c.461-.058.891.343.939.883l.134 1.413c.049.54-.294 1.037-.755 1.095-.462.058-.89-.343-.94-.882l-.132-1.415c-.051-.538.292-1.037.754-1.094zm-3.414.142c.463-.058.889.345.939.883l.132 1.413c.05.54-.293 1.036-.754 1.095-.461.057-.89-.345-.94-.883l-.131-1.414c-.05-.538.293-1.038.754-1.094zm-4.14.231c.461-.057.889.345.939.885l.159 1.694c.05.541-.294 1.04-.754 1.098-.462.058-.889-.345-.939-.885l-.159-1.695c-.051-.54.293-1.039.754-1.097zm-3.683-.111c.462-.057.889.345.939.885l.159 1.695c.05.539-.293 1.037-.754 1.096-.462.058-.89-.345-.94-.883l-.159-1.695c-.05-.54.294-1.037.755-1.098zm-4.407-.999c.302.798.426 1.628.507 2.49.12 1.276-1.575 1.489-1.694.213-.065-.699-.153-1.325-.399-1.972-.446-1.179 1.144-1.9 1.586-.731zm-3.657.172c.316.99.687 1.971.804 3.026.142 1.275-1.553 1.484-1.693.213-.098-.872-.434-1.689-.694-2.507-.384-1.206 1.2-1.934 1.583-.732z"/><path fill="#8EB6C9" d="M32.094 324.839v1.5c0 .806 1.249.806 1.249 0v-1.5c0-.805-1.249-.805-1.249 0zm30.233-55.341a.63.63 0 0 0-.625.624v.75c0 .34.284.624.625.624a.63.63 0 0 0 .624-.624v-.75a.63.63 0 0 0-.624-.624zm.067 8.053c-.557-.584-1.438.3-.883.883.114.118.135.177.173.368-.008-.044.011.175.014.214.008.157.005.318.005.475 0 .806 1.249.806 1.249 0-.001-.721-.036-1.389-.558-1.94zm-4.364 47.543c-.014-.053-.037-.114-.037-.08-.02-.17-.02-.343-.02-.514a.631.631 0 0 0-.623-.625.63.63 0 0 0-.625.625c0 .723.087 1.683.998 1.75.34.024.625-.303.625-.625a.604.604 0 0 0-.318-.531zm-3.824-47.102v3.372c0 .807 1.25.807 1.25 0v-3.372c0-.806-1.25-.806-1.25 0zm-12.868 45.474a.631.631 0 0 0-.625.625v1.125c0 .34.285.624.625.624a.63.63 0 0 0 .625-.624v-1.125a.63.63 0 0 0-.625-.625z"/><path fill="#FFF" d="M36.857 356.702c-.029-.087-.061-.175-.092-.262-.026-.073-.029-.088-.011-.04-.006-.019-.008-.205-.015-.087.021-.338-.195-.651-.548-.692-.324-.038-.671.206-.694.546-.017.279.036.513.121.774.03.088.064.173.093.261.025.075.03.088.011.042.003.018.008.203.014.085-.021.339.197.651.548.692.325.039.672-.206.694-.546.019-.277-.035-.511-.121-.773zm-1.973 11.093l-.263 2.233c-.094.8 1.146.946 1.24.146l.263-2.232c.096-.801-1.146-.947-1.24-.147zm.166 12.472c.076-.8-1.166-.948-1.241-.145-.029.324-.014.647.059.966.024.113.061.224.09.337.017.059.03.117.043.177.002.019.005.029.008.039 0 0-.002.006-.002.013-.058.801 1.183.951 1.24.147.038-.53-.245-1.003-.197-1.534zm-1.029 9.816a.629.629 0 0 0-.692.549l-.132 1.116a.629.629 0 0 0 .548.693c.337.04.652-.21.691-.548l.134-1.118a.632.632 0 0 0-.549-.692zm-3.213 12.327c-.039.334-.071.817-.315 1.028-.606.526.166 1.509.776.981.546-.473.699-1.175.781-1.863.094-.799-1.146-.945-1.242-.146zm-3.612 8.255l-.175 1.488c-.095.801 1.145.948 1.239.147l.175-1.489c.096-.799-1.147-.946-1.239-.146zm-2.935 12.108l-.219 1.86c-.094.801 1.145.947 1.24.146l.22-1.86c.094-.801-1.147-.946-1.241-.146zm-1.621 13.771l-.176 1.489c-.094.8 1.147.946 1.242.146l.175-1.49c.093-.799-1.147-.944-1.241-.145zm-.377 10.71c.004-.063.01-.124.018-.186a.63.63 0 0 0-.548-.692.63.63 0 0 0-.694.547c-.027.238-.062.498.002.731.115.42.395.682.83.751.337.053.656-.22.694-.546a.614.614 0 0 0-.302-.605zm39.756-63.639c-.504-.532-.566-1.105-.566-1.807-.002-.806-1.25-.806-1.25 0 0 1.039.2 1.913.933 2.69.554.585 1.436-.299.883-.883zm4.123 10.493a6.927 6.927 0 0 1-.19-.193l-.001-.114a.631.631 0 0 0-.625-.625.632.632 0 0 0-.625.625c.002.244.032.454.128.68.084.197.281.362.43.511a.63.63 0 0 0 .884 0 .634.634 0 0 0-.001-.884zm-.444 14.809a.63.63 0 0 0-.624.625v1.124c0 .34.285.626.624.626a.634.634 0 0 0 .627-.626v-1.124a.631.631 0 0 0-.627-.625zm.604 18.823c-.238-.767-1.443-.439-1.205.332.326 1.051.352 2.115.352 3.207 0 .806 1.251.806 1.251 0-.002-1.199-.04-2.384-.398-3.539zm-.977 15.284c-.806 0-.806 1.248 0 1.248.805 0 .805-1.248 0-1.248z"/><path fill="#5E6D7F" d="M40.162 343.257c-.776 3.21-3.975 6.545-7.435 6.546-1.592.001-1.902 2.483-.293 2.483 4.96-.003 9.082-4.072 10.21-8.735.38-1.565-2.106-1.838-2.482-.294z"/><path fill="#739DBD" d="M39.062 262.735a.884.884 0 0 0-.876.874v.999c0 .478.398.875.876.875a.883.883 0 0 0 .875-.875v-.999a.884.884 0 0 0-.875-.874zm4.998 3.998a.882.882 0 0 0-.874.874v.249c0 .478.397.876.874.876a.882.882 0 0 0 .874-.876v-.249a.883.883 0 0 0-.874-.874zm9.627.757l-.458-.811a.752.752 0 0 0-1.03-.281.787.787 0 0 0-.276 1.054l.458.811a.754.754 0 0 0 1.031.282.79.79 0 0 0 .275-1.055zm4.05-2.728l.004.003-.007-.003-.015-.002-.012-.004a.076.076 0 0 0-.017-.011 4.718 4.718 0 0 1-.269-.253.882.882 0 0 0-1.238 0 .884.884 0 0 0 0 1.235c.39.389.795.725 1.369.755.477.026.874-.417.874-.875.001-.429-.298-.75-.689-.845zm1.24-3.177c-1.128 0-1.128 1.749 0 1.749s1.128-1.749 0-1.749z"/><path fill="#8EB6C9" d="M23.557 320.438c-.341-.735-1.422-.096-1.084.634.323.695.332 1.442.332 2.194.001.809 1.257.809 1.257 0-.003-.994-.081-1.917-.505-2.828zm-1.588-10.355c-.016-.807-1.27-.809-1.256 0 .014.703.197 1.39.21 2.093.014.809 1.27.812 1.255 0-.013-.703-.197-1.39-.209-2.093zm7.928 7.994c-.414-1.295-.615-2.638-.836-3.975-.132-.798-1.343-.459-1.21.332.22 1.338.423 2.681.837 3.976.244.77 1.457.441 1.209-.333z"/><path fill="#98C2A1" d="M25.944 303.596v1.465c0 .81 1.257.81 1.257 0v-1.465c-.001-.807-1.257-.807-1.257 0zm10.698 6.252c-.566-.581-1.454.307-.889.888.132.137.243.269.337.431a.94.94 0 0 1 .108.381c.022.809 1.279.81 1.256 0-.019-.671-.353-1.229-.812-1.7z"/><path fill="#8EB6C9" d="M38.477 326.865c-.385-1.454-.396-2.943-.396-4.436 0-.809-1.257-.809-1.255 0 0 1.604.027 3.21.44 4.771.207.781 1.419.449 1.211-.335z"/><path fill="#98C2A1" d="M47.498 312.803c-.014-.809-1.27-.81-1.257 0 .014.774.197 1.528.21 2.301.013.81 1.268.811 1.256 0-.012-.772-.197-1.528-.209-2.301z"/><path fill="#8EB6C9" d="M49.923 325.879a5.234 5.234 0 0 1-.542-2.194c-.014-.809-1.27-.811-1.255 0 .018 1.002.279 1.929.715 2.829.35.728 1.431.09 1.082-.635z"/><path fill="#98C2A1" d="M58.566 311.591c-.24-.771-1.451-.442-1.213.332.176.566.188 1.131.188 1.717 0 .81 1.257.81 1.255 0 .001-.692-.023-1.382-.23-2.049zM35.17 273.303c-.404-.406-.679-.747-.946-1.264-.174-.342-.644-.438-.959-.252-.344.201-.429.62-.254.961.3.585.701 1.085 1.163 1.548.644.643 1.638-.351.996-.993z"/><path fill="#B2D5BA" d="M36.928 272.95c-.057-.069-.071-.081-.041-.033-.026-.038-.052-.076-.074-.116-.059-.093-.106-.196-.156-.293a2.54 2.54 0 0 0-.432-.612c-.263-.278-.729-.266-.995 0a.712.712 0 0 0 0 .993c.058.07.072.081.04.033.027.039.053.078.077.12.057.092.105.193.155.293.112.224.258.427.431.61.264.279.73.266.994 0a.711.711 0 0 0 .001-.995z"/><path fill="#F7E6C3" d="M33.206 209.711c-3.152.747-6.264 1.533-9.292 2.695-1.379.528-1.742 2.478-1.116 3.658.757 1.423 2.285 1.644 3.659 1.117 2.576-.987 5.319-1.572 7.998-2.207 3.397-.806 2.147-6.07-1.249-5.263z"/><path fill-rule="evenodd" clip-rule="evenodd" fill="#F7E6C3" d="M142.086 48.95c-60.736-5.495-95.498 43.392-93.31 83.639 2.039 37.602 26.296 74.402 75.407 77.023 51.224 2.732 87.114-24.026 90.425-78.379 2.728-44.767-28.182-78.268-72.522-82.283z"/><path fill-rule="evenodd" clip-rule="evenodd" fill="#F7E6C3" d="M194.752 165.621c-12.487-2.261-27.502 8.206-40.352 8.49-15.721.343-28.62-10.742-43.158-15.044-10.848-3.211-50.616-11.483-52.143.462-1.339 10.496 4.401 18.753 9.141 27.574 5.565 10.352 7.656 19.8 10.378 30.935 1.374 5.604 3.017 10.903 5.081 15.777 6.428 15.189 16.922 26.265 35.889 29.61 21.734 3.837 34.049-3.186 43.744-21.89 9.052-17.462 16.834-35.606 27.936-51.937 5.66-8.329 17.676-21.406 3.484-23.977z"/><path fill="#FFF" d="M166.838 164.068c2.486-7.815 4.773-15.881 5.865-24.031.641-4.792.575-9.696-2.231-13.833-2.612-3.851-7.901-3.78-11.7-2.208-3.635 1.507-6.743 4.499-9.414 7.279a104.473 104.473 0 0 0-10.594 12.952c-.568-4.197-1.221-8.381-2.186-12.521-2.344-10.04-12.884-35.034-26.07-21.727-7.149 7.215-6.953 21.576-7.209 30.975-.353 12.845 1.177 25.727 2.743 38.469 1.606 13.046 2.612 26.005 3.139 39.135.674 16.762 1.131 33.552 2.99 50.248.364 3.251 3.99 5.39 7.045 4.855 1.936-.342 3.348-1.487 4.139-3.01 3.545.31 5.849-2.224 6.501-5.406 7.212-35.383 26.095-66.979 36.982-101.177zm-48.609 15.745c-.899-7.277-1.819-14.556-2.38-21.868a186.738 186.738 0 0 1-.499-17.401c.062-3.467-.884-11.529 2.121-14.101 4.389-3.755 7.158 11.215 7.885 14.232 1.553 6.448 2.383 12.996 3.402 19.537.47 3.016.452 5.468 3.166 7.044 5.168 2.999 8.968-2.214 11.29-6.203 2.459-4.219 4.623-8.628 7.379-12.668 1.307-1.917 5.643-8.57 8.008-8.783 5.653-.508-1.885 17.308-2.743 19.724-8.062 22.719-18.082 44.625-26.766 67.153-2.496 6.475-4.759 13.022-6.735 19.66-1.318-22.114-1.405-44.292-4.128-66.326z"/><path fill="#5E6D7F" d="M144.76 304.932c5.245-7.635 7.561-17.703 9.234-31.11 1.909-15.275.331-7.712-.184-19.449-17.736 5.945-45.203 4.159-61.294-6.685-5.25 11.487-3.25 35.057-.551 47.195 7.782 3.146 15.766 4.696 23.997 6.707 9.344 2.478 19.103 3.71 28.798 3.342z"/><path fill="#474C59" d="M115.963 301.59c-8.231-2.011-16.216-3.561-23.997-6.707.398 1.79.811 3.334 1.219 4.551 5.773 17.248 20.159 24.787 34.571 18.652 7.81-3.326 13.183-7.594 17.004-13.154-9.695.368-19.454-.864-28.797-3.342z"/><path fill="#8EB6C9" d="M154.898 250.464c-5.49.979-8.873 1.171-14.407 1.267-5.931.106-11.851-.19-17.744-.712a171.666 171.666 0 0 1-17.644-2.513c-5.725-1.121-9.295-2.021-14.724-4.074-3.429-1.298-7.225.616-8.619 5.197-1.279 4.195.271 9.621 3.699 10.919 11.294 4.274 23.199 6.289 34.998 7.447 12.057 1.18 24.431 1.397 36.531-.758 3.602-.642 6.047-5.695 5.504-10.059-.59-4.767-4.001-7.354-7.594-6.714zm-2.68 21.793c-5.32.996-8.598 1.195-13.955 1.313-5.744.121-11.477-.155-17.185-.66a159.592 159.592 0 0 1-17.076-2.457c-5.541-1.102-8.996-1.991-14.249-4.028-3.316-1.285-6.999.638-8.362 5.222-1.25 4.197.235 9.616 3.555 10.904 10.926 4.239 22.45 6.217 33.872 7.337 11.675 1.146 23.658 1.322 35.379-.871 3.487-.653 5.871-5.71 5.36-10.072-.562-4.764-3.857-7.34-7.339-6.688zm-3.329 21.548c-5.055 1.015-8.167 1.231-13.253 1.367-5.45.146-10.89-.107-16.308-.59a144.201 144.201 0 0 1-16.2-2.387c-5.254-1.08-8.528-1.952-13.509-3.969-3.14-1.27-6.645.666-7.957 5.256-1.206 4.2.183 9.613 3.329 10.887 10.353 4.191 21.282 6.123 32.122 7.196 11.075 1.097 22.447 1.225 33.583-1.013 3.315-.666 5.601-5.733 5.129-10.093-.512-4.758-3.628-7.32-6.936-6.654z"/><path fill="#F7E6C3" d="M137.267 17.36c-.206-4.812-.347-9.625-.491-14.438-.044-1.473-.886-2.785-2.478-2.914-1.346-.109-2.958 1.001-2.913 2.477.143 4.813.285 9.627.492 14.438.062 1.473.869 2.784 2.477 2.914 1.33.108 2.976-1 2.913-2.477zm130.14 129.238c.335-1.342-.516-3.038-1.971-3.279-4.775-.789-9.198-2.78-13.393-5.126-3.044-1.702-5.701 3.01-2.657 4.712 4.577 2.559 9.535 4.802 14.742 5.664 1.453.241 2.899-.452 3.279-1.971zM32.567 49.041c-4.64-4.203-10.18-7.324-14.552-11.832-1.025-1.056-2.635-1.31-3.812-.309-1.069.907-1.336 2.754-.31 3.813 4.709 4.853 10.588 8.243 15.575 12.763 1.096.993 3.001.425 3.768-.669.925-1.323.421-2.779-.669-3.766zm46.101-27.316c-.825-4.123-1.714-8.294-3.728-12.027-1.651-3.057-6.539-.735-4.877 2.345 1.805 3.341 2.551 7.002 3.29 10.694.684 3.415 6.002 2.416 5.315-1.012zM194.39 9.314c-3.001 6.455-6.524 13.034-7.138 20.249-.124 1.469.637 2.861 2.186 3.141 1.347.243 3.015-.716 3.14-2.185.576-6.777 3.902-12.867 6.721-18.929 1.471-3.167-3.437-5.442-4.909-2.276zm54.022 41.713c-4.559 1.877-8.574 4.741-12.773 7.271-1.26.76-1.953 2.188-1.267 3.61.593 1.234 2.345 2.029 3.609 1.266 4.201-2.532 8.216-5.395 12.773-7.272 3.228-1.328.875-6.2-2.342-4.875zm18.128 43.552c-2.49.631-5.011.81-7.565.971-1.471.092-2.716 1.13-2.73 2.682-.01 1.393 1.21 2.822 2.682 2.729 3.023-.192 6.06-.41 9.005-1.155 3.383-.856 1.988-6.082-1.392-5.227zM9.619 86.129c-2.492-.808-4.896-1.003-7.485-.607-3.448.528-2.434 5.843 1.01 5.315a9.645 9.645 0 0 1 4.62.374c3.315 1.077 5.172-4.005 1.855-5.082zm243.832 95.154c-3.588-1.348-7.212-2.686-10.62-4.464-1.308-.682-2.841-.653-3.766.669-.763 1.089-.64 3.084.667 3.767 3.838 2 7.818 3.592 11.863 5.111 3.275 1.229 5.117-3.859 1.856-5.083zm-26.028 46.361c-4.352-3.168-9.437-4.861-14.525-6.434-3.327-1.027-5.189 4.053-1.855 5.083 4.648 1.435 9.305 2.892 13.281 5.788 2.828 2.057 5.913-2.388 3.099-4.437zm-25.702 43.752c-3.729-5.01-7.841-9.729-12.735-13.641-2.733-2.184-5.808 2.271-3.098 4.436 4.521 3.615 8.266 8.08 11.712 12.709 2.086 2.802 6.195-.719 4.121-3.504zM20.656 172.697c-3.939 1.086-7.791 2.755-11.923 2.891-3.484.115-3.384 5.523.102 5.409 4.655-.153 8.927-1.889 13.358-3.112 3.361-.927 1.829-6.116-1.537-5.188zm-6.321-35.715c-3.544 1.043-7.18 1.143-10.85 1.215-3.488.067-3.385 5.475.103 5.408 4.14-.079 8.287-.259 12.286-1.435 3.341-.983 1.812-6.174-1.539-5.188z"/><path fill="#C2887D" d="M100.901 279.48c.609-1.037 1.16-1.982 1.368-2.617.364-1.13.479-2.256.687-3.399 2.785.556 3.366 7.69 1.933 9.563-1.198 1.573-4.889 4.353-6.016 1.935-.526-1.12.856-3.476 2.028-5.482z"/><path fill="#453D3E" d="M113.343 273.344a47.126 47.126 0 0 1 2.227 2.665c.112 1.039-.307 2.124-1.219 2.866-1.456 1.188-3.626 1.053-4.835-.299-1.217-1.351-1.02-3.407.442-4.597a3.621 3.621 0 0 1 3.385-.635z"/><path fill="#C2887D" d="M85.186 296.372c.246 1.331-.637 3.243-.929 4.555-.053.232-.129.788-.226 1.509 3.397.768 7.067.675 10.156-.571.767-.308 1.604-.323 2.261.055 4.455-3.029 8.557-6.55 12.104-10.583 3.117-3.547 6.709-7.743 7.311-12.482.231-1.79.115-4.406-.945-5.893-.1-.142-.221-.3-.365-.469-.735-.87-1.959-1.927-3.014-1.457-.906.407-2.887 5.395-6.33 8.241-5.581 4.615-11.548 8.051-18.142 11.064-1.896.867-5.023 1.684-3.48 4.044.556.85 1.382.817 1.599 1.987z"/><path fill="#936663" d="M112.136 272.118l.119-.003c.271.257.356.379.682.583-.294 2.746-1.456 5.721-3.991 8.845l-.819-.653c2.587-3.19 3.9-6.058 4.009-8.772zm2.243 1.569c.395.578.395.578.705 1.343-.329 2.783-1.591 5.504-4.316 8.738l-.877-.73c2.825-3.348 4.4-6.6 4.488-9.351zm-4.032 12.271c.14.131 2.752-3.062 2.938-3.396 1.242-2.148 2.119-4.455 2.065-4.923.319.897.158 2.137-.096 3.005-.22.754-.546 1.474-.855 2.029-.219.391-3.046 4.207-3.265 4.008l-.787-.723zm5.003-8.319a.236.236 0 0 0-.027-.071c.017.014.022.037.027.071z"/><path fill="#739DBD" d="M41.323 271.843c2.859 3.519 5.251 7.212 7.935 11.03 2.219 3.153 6.472 6.963 9.781 8.772 7.355 4.013 16.461 2.253 23.579-1.293 3.731-1.86 8.546-6.525 12.948-3.213 3.705 2.789 7.706 10.507 5.662 14.617-2.034 4.084-6.459 7.309-10.089 10.124-6.293 4.878-14.894 9.253-23.32 10.103-13.034 1.312-22.587 1.74-33.805-6.353-3.847-2.774-7.143-6.338-9.979-10.119-5.297-7.06-11.51-17.892-8.987-26.979 1.223-4.405 3.463-10.001 7.97-11.814 5.201-2.091 10.446-3.233 14.824 1.216a56.04 56.04 0 0 1 3.481 3.909z"/><path fill="#577286" d="M94.142 285.893c.419.05.914.226 1.43.484 1.416.707 3.004 2.008 3.706 2.885 2.364 2.961 7.408 10.006 2.138 12.529-.267.128-3.456-4.438-5.815-7.811-1.245-1.782-2.259-3.229-2.494-3.48-.429-.464-2.426-1.823-2.51-2.255-.283-1.466 2.222-2.505 3.545-2.352z"/><path fill="#6487A6" d="M36.708 303.84c7.183 5.617 17.019 8.305 27.889 9.726 5.777.754 11.614-1.469 16.502-4.2 2.547-1.421 4.678-3.245 7.053-4.873.091-.064 5.54-4.155 5.276-2.708-1.5 8.25-15.814 14.853-23.671 16.566-11.3 2.463-24.407-.508-33.917-6.71-4.871-3.177-21.94-20.781-15.601-27.267 3.019 2.657 4.461 6.813 7.114 9.904 2.91 3.391 5.82 6.797 9.355 9.562z"/><path fill="#739DBD" d="M95.307 287.591c-.121-.47-.65-.796-1.151-.665a3.06 3.06 0 0 0-1.761 1.249c-.283.414-.116.994.318 1.246a.992.992 0 0 0 1.355-.375c.008-.009.015-.018.027-.028.02-.021.194-.163.19-.173.063-.037.125-.074.19-.108l.077-.033.053-.015c.502-.131.827-.605.702-1.098zm1.293 3.041c-.559.461-1.003 1.006-1.383 1.606-.641 1 .99 1.943 1.628.943.33-.518.57-.821 1.062-1.227.931-.768-.382-2.085-1.307-1.322zm3.305 3.483c-.951.438-1.762 1.062-2.331 1.915-.662.988.966 1.93 1.626.945.395-.588.958-.963 1.611-1.263 1.11-.511.196-2.104-.906-1.597z"/><path fill="#8EB6C9" d="M39.148 277.664l-3.164-5.275c-.466-.776-1.682-.069-1.214.71l3.164 5.275c.465.776 1.681.068 1.214-.71zm9.142 10.546c-.66-.971-1.451-1.841-2.11-2.812-.507-.746-1.726-.042-1.215.71.659.97 1.45 1.841 2.109 2.812.507.747 1.726.043 1.216-.71zm13.107 10.648c-.715-.359-1.389-.734-1.967-1.297-.65-.631-1.645.362-.996.995.665.645 1.43 1.105 2.252 1.516.811.404 1.523-.808.711-1.214zm18.445-1.478c-2.176.698-4.433 1.035-6.68 1.407-.895.147-.515 1.503.373 1.356 2.247-.372 4.504-.709 6.68-1.407.859-.275.492-1.634-.373-1.356zm-50.647-25.132c-.454-.454-.83-.945-.85-1.612-.027-.905-1.433-.908-1.407 0 .03 1.047.539 1.882 1.26 2.606.641.642 1.637-.353.997-.994zm7.238 13.952c-.695-.376-1.154-1.173-1.503-1.858-.412-.807-1.626-.096-1.215.711.458.895 1.105 1.869 2.009 2.36.798.435 1.507-.78.709-1.213zm13.362 13.009c-1.284-.667-2.329-1.65-3.517-2.461-.751-.512-1.454.706-.71 1.213 1.187.813 2.231 1.796 3.517 2.463.803.416 1.515-.797.71-1.215zm13.009 6.68c-.796-.37-1.597-.447-2.465-.449-.906-.001-.906 1.406 0 1.407.598.001 1.201-.002 1.755.255.815.382 1.532-.831.71-1.213zm17.741-.774c-1.339.356-2.633.98-4.033 1.029-.905.031-.908 1.438 0 1.407 1.542-.053 2.934-.686 4.405-1.08.876-.233.505-1.59-.372-1.356zm-55.923-25.836c-.496-.522-.829-1.238-.848-1.964-.022-.905-1.428-.908-1.405 0 .027 1.101.505 2.166 1.261 2.959.624.658 1.617-.339.992-.995zm5.485 12.195c-.591-.315-.867-.93-1.156-1.505-.404-.811-1.619-.099-1.214.709.398.795.848 1.577 1.66 2.009.799.43 1.509-.785.71-1.213zm8.228 11.01l-1.407-1.407c-.642-.641-1.635.352-.994.995l1.405 1.405c.642.642 1.637-.352.996-.993zm14.807 11.069c-1.147-.376-2.318-.681-3.347-1.335-.768-.488-1.474.729-.71 1.214 1.13.719 2.424 1.065 3.684 1.479.863.282 1.231-1.077.373-1.358zm16.503 2.11c-1.682.311-3.382.326-5.088.326-.905 0-.905 1.407 0 1.406 1.836-.001 3.653-.042 5.462-.376.892-.165.513-1.521-.374-1.356zm15.653-4.852c-1.036.669-2.16 1.034-3.348 1.335-.878.224-.506 1.58.373 1.357 1.298-.329 2.553-.744 3.685-1.478.758-.49.054-1.708-.71-1.214zm-64.191-21.338c-.893-.927-1.516-2.061-1.552-3.369-.027-.906-1.432-.907-1.408 0 .048 1.683.811 3.166 1.965 4.364.631.655 1.625-.341.995-.995zm8.79 13.714c-.622-.652-.91-1.524-1.297-2.32-.398-.814-1.611-.101-1.216.71.449.917.801 1.851 1.519 2.603.625.658 1.618-.338.994-.993zm11.601 11.601l-.351-.351a.714.714 0 0 0-.996 0 .713.713 0 0 0 0 .994l.354.352c.27.271.724.271.993 0a.709.709 0 0 0 0-.995zm4.629-8.487c-.178-.334-.545-.496-.905-.508-.385-.012-.703.329-.703.703 0 .288.172.523.415.635.11.245.354.419.64.419a.709.709 0 0 0 .703-.703 1.185 1.185 0 0 0-.15-.546zm43.042-9.65c-.833.025-1.648.334-2.255.91-.661.624.336 1.616.994.995.334-.316.805-.484 1.261-.498.906-.026.907-1.432 0-1.407zm3.721 6.536c-.463.462-.864.962-1.164 1.548-.175.341-.093.76.252.962.316.186.788.089.962-.252.266-.518.54-.859.945-1.264.643-.642-.353-1.636-.995-.994zm-2.873-14.416a.712.712 0 0 0-.996 0l-1.053 1.054a.71.71 0 0 0 0 .995.712.712 0 0 0 .996 0l1.053-1.054a.709.709 0 0 0 0-.995zm-14.349-9.861c-1.144-.75-2.371-1.36-3.517-2.11-.76-.497-1.465.72-.709 1.215 1.145.749 2.371 1.362 3.516 2.11.762.498 1.465-.72.71-1.215zm3.305 5.788c-1.038-.021-1.947-.4-2.809-.958-.765-.494-1.469.724-.711 1.215 1.07.691 2.238 1.123 3.52 1.15.907.019.905-1.388 0-1.407zm-4.571 3.868h-1.405c-.908 0-.908 1.406 0 1.406h1.405c.908 0 .908-1.406 0-1.406z"/></svg>