<svg xmlns="http://www.w3.org/2000/svg" width="202.553" height="181.926" viewBox="0 0 202.553 181.926"><path fill="#879ca1" d="M179.178 22.872c15.734 41.559-29.854 133.138-68.661 151.797s-83.022.095-98.756-41.463 2.97-90.375 41.777-109.034 109.906-42.858 125.64-1.3z"/><path fill="#2E88BF" d="M161.032 78.522h28.384v28.384h-28.384z"/><path fill="#4CB4D4" d="M146.84 78.522h28.384v28.384H146.84z"/><path fill="#2E88BF" d="M150.085 78.522l.986 11.52 3.46-5.219s1.643 6.794 1.74 7.891c.097 1.098 3.769-2.189 3.769-3.252s2.223 3.473 2.223 3.473 1.257 2.603 1.45 0c.193-2.603-.723-14.413-.723-14.413h-12.905zm8.799 28.384v-5.652l1.447 2.826 2.126-4.953 2.074 5.123 1.019-1.233 1.547 3.889z"/><path fill="#FFF" d="M168.575 96.707l.676-4.888.806.546 1.341-3.51s.505-1.404.609-.78c.104.624-.572 6.032-.364 5.928.208-.104.334.208.375 1.3.041 1.092-1.623 3.38-2.039 2.6-.416-.78-1.404-1.196-1.404-1.196z"/><path fill="#D18C42" d="M180.289 85.741s-.338 3.431 0 5.509c.338 2.078 1.788-.677 1.788-.677s.242.435.483 3.769c.242 3.335 1.691 4.253 1.885 2.658.193-1.595.048-10.052.048-10.052s-1.353-.29-1.498.193c-.145.483-.773.145-.967-.483-.192-.627-.53-2.85-1.739-.917z"/><path fill="#AD263D" d="M164.923 50.156h28.384V78.54h-28.384z"/><path fill="#FF6161" d="M150.731 50.156h28.384V78.54h-28.384z"/><path fill="#AD263D" d="M153.976 50.156l.986 11.52 3.46-5.219s1.643 6.794 1.74 7.891c.097 1.098 3.769-2.189 3.769-3.252 0-1.063 2.223 3.473 2.223 3.473s1.257 2.603 1.45 0c.193-2.603-.723-14.413-.723-14.413h-12.905zm17.474 25.766c-2.013 1.095-4.512-.07-4.968-2.315l-.933-4.594 2.081-.18 1.491-1.946 5.672-2.359 2.427 4.702-3.458 5.436-2.312 1.256z"/><path fill="#FF6161" d="M182.706 61.66l.676-4.888.806.546 1.341-3.51s.505-1.404.609-.78c.104.624-.572 6.032-.364 5.928.208-.104.334.208.375 1.3.041 1.092-1.623 3.38-2.039 2.6-.417-.78-1.404-1.196-1.404-1.196z"/><path fill="#B1A9FF" d="M155.799 64.809s-.338 3.431 0 5.509c.338 2.078 1.788-.677 1.788-.677s.242.435.483 3.769c.242 3.335 1.691 4.253 1.885 2.658.193-1.595.048-10.052.048-10.052s-1.353-.29-1.498.193c-.145.483-.773.145-.967-.483-.193-.627-.531-2.85-1.739-.917z"/><path fill="#AD263D" d="M92.632 70.768c-.434-5.9-.547-12.641-.547-12.641s-6.644 6.242-8.039 12.156c-.986 4.176 1.79 8.411 4.739 8.758l.006.002c5.351 1.76 14.625-.67 14.691-3.59.042-1.858-5.25-2.334-8.837-2.646a2.21 2.21 0 0 1-2.013-2.039z"/><path fill="#4CB4D4" d="M89.724 44.453s-.279-1.931-2.245-2.376c-1.966-.444-5.338 3.1-2.5 5.668s4.745-3.292 4.745-3.292z"/><path fill="#311E69" d="M90.776 65.022l-6.907 6.384c-.308 3.781 2.231 7.318 4.915 7.633l.006.002.14.044c1.899-4.561 1.846-14.063 1.846-14.063z"/><path fill="#1E1240" d="M85.824 45.703s3.156-2.883 5.454-2.358c2.298.525-1.431 2.972-2.026 3.236-.595.264-3.428-.878-3.428-.878z"/><path fill="#C63F20" d="M69.57 80.948s-5.598 10.711 3.327 15.227c5.568 2.818 11.874 2.638 15.829 2.105a5.7 5.7 0 0 1 5.817 3.043c3.266 6.322 9.999 18.348 14.268 19.01 5.806.9 7.097-2.541 6.774-5.014-.323-2.473-7.419-19.603-16.129-24.946-5.074-3.113-15.008-5.914-15.008-5.914L69.57 80.948z"/><path fill="#311E69" d="M131.454 31.049h10.753v103.655h-10.753zm-6.118 0h3.575v103.655h-3.575z"/><path fill="#311E69" d="M125.06 31.049h17.147v2.443H125.06zM89.6 80.619l13.811-7.399c.724-.388 1.563.273 1.355 1.068l-2.005 7.653a1.916 1.916 0 0 0 .227 1.497l8.934 14.354 1.936 18.925-10.108 1.609-5.111-32.996a1.915 1.915 0 0 0-1.537-1.589l-7.232-1.367c-.873-.165-1.053-1.335-.27-1.755z"/><path fill="#311E69" d="M36.673 98.756V78.437c0-4.652.413-9.296 1.235-13.875l3.486-28.678a8.797 8.797 0 0 1 8.659-7.243h29.969a28.447 28.447 0 0 1 26.995 19.474l6.982 30.261a50.1 50.1 0 0 1 2.557 15.798v.066h-4.399v-.613c0-5.433-.884-10.83-2.617-15.979l-6.413-28.305a24.4 24.4 0 0 0-23.124-16.615h-27.05a5.3 5.3 0 0 0-5.281 4.865l-1.703 29.999a78.738 78.738 0 0 0-.263 6.426v24.739h-9.033z"/><path fill="#F46822" d="M12.5 96.176h37.507l2.515 2.213a10.1 10.1 0 0 0 6.673 2.518h18.769a7.957 7.957 0 0 1 7.957 7.957v3.978a4.194 4.194 0 0 0 4.194 4.194h21.483c2.419 0 3.146 3.287.953 4.307a23.833 23.833 0 0 0-13.606 18.729l-.729 5.991a6.366 6.366 0 0 1-6.319 5.596H52.48a6.129 6.129 0 0 1-6.129-6.129c0-11.936-9.676-21.613-21.613-21.613H8.031a7.938 7.938 0 0 1-7.912-7.322c-.272-3.466-.153-7.784 1.157-12.093A11.736 11.736 0 0 1 12.5 96.176z"/><path fill="#C63F20" d="M98.214 146.063l.729-5.991c.038-.308.083-.614.132-.919-7.602.345-14.239-2.032-21.131-2.222-6.66-.183-13.645 1.847-16.996.679-13.87-4.838 0-6.129-5.484-16.233-5.484-10.105-16.451-11.184-16.451-11.184H.164a36.507 36.507 0 0 0-.045 6.403 7.938 7.938 0 0 0 7.912 7.322h16.707c11.936 0 21.613 9.676 21.613 21.613a6.129 6.129 0 0 0 6.129 6.129h39.416a6.367 6.367 0 0 0 6.318-5.597z"/><path fill="#311E69" d="M126.203 123.822l.203-.869-5.255-1.049c-.388-.09-.78-.167-1.175-.235l-.16-.032-.001.005a20.348 20.348 0 0 0-4.513-.227c-11.176.693-19.674 10.314-18.981 21.489.557 8.986 6.888 16.236 15.156 18.374l-.001.003.048.01a20.13 20.13 0 0 0 2.202.438l3.47.69.121-.516c.164-.006.328-.008.493-.018 11.175-.693 19.673-10.314 18.981-21.489-.449-7.24-4.648-13.353-10.588-16.574z"/><circle fill="#1E1240" cx="122.555" cy="142.862" r="20.274"/><circle fill="#EAE8FF" cx="122.555" cy="142.862" r="8.158"/><path fill="#311E69" d="M108.142 93.237h6.983a4.397 4.397 0 0 1 4.123 2.859c1.695 4.554 4.548 13.615 3.306 20.223l-10.613 4.014-3.799-27.096z"/><path fill="#311E69" d="M140.616 129.326c-.612 0-1.219-.26-1.645-.764a23.64 23.64 0 0 0-18.104-8.412h-11.364a2.151 2.151 0 1 1 0-4.302h11.364a27.934 27.934 0 0 1 21.391 9.939 2.15 2.15 0 0 1-.257 3.03 2.133 2.133 0 0 1-1.385.509zM52.568 73.707s1.505 25.161 3.871 27.527c2.366 2.366 26.666 1.505 26.666 1.505v-.138a6.403 6.403 0 0 0-6.313-6.402l-8.956-.126s-3.011-2.366-5.376-2.366c0 0 3.011-10.753-1.29-15.914s-8.602-4.086-8.602-4.086zm86.516 29.709h63.469v6.738h-61.932z"/><path fill="#614CD4" d="M84.945 86.717c-.475-3.906 2.482-13.611 2.482-13.611s6.062-12.812 4.557-15.199c-3.755-5.958-14.714-9.544-18.938-5.071-1.441 1.526-2.731 4.873-3.683 7.243-2.263 5.633-4.59 21.853-4.59 21.853 3.14 1.754 10.718 4.931 20.172 4.785z"/><path fill="#FF6161" d="M85.071 47.843l-2.639 4.578c-.124.718 3.421 3.344 4.706 2.62.376-.212.396-.916.204-1.714l-1.198-4.372-1.073-1.112z"/><path fill="#311E69" d="M86.384 49.833c-.77-.27-1.819-.652-1.819-.652s-.137 1.274.814 2.404a3.326 3.326 0 0 0 1.788 1.102l-.783-2.854z"/><path fill="#FF6161" d="M86.299 46.075l-1.566 2.6a1.85 1.85 0 0 0 .782 2.461c.707.377 1.195.49 2.186.595.826.087 1.415-.589 1.657-1.642.314-1.366.214-2.714.121-3.432-.213-1.638-2.035-2.202-3.18-.582z"/><path fill="#FFF" d="M89.385 49.493s-.029.274-.284.341c-.254.067-.656-.141-.744-.483.001.001.416.123 1.028.142z"/><path fill="#AD263D" d="M85.035 49.904c-.243-.309-.267-.924-.268-1.286l-.034.057a1.85 1.85 0 0 0 .782 2.461c.707.377 1.195.49 2.186.595.504.053.919-.179 1.222-.606-.167-.011-2.586.436-3.888-1.221z"/><path fill="#311E69" d="M85.745 47.424s.49.074.623-.234.367-1.108.367-1.108 2.894.261 3.469-.114c.575-.375.994-1.078.067-1.311-.927-.233-3.448.08-4.669 1.237-1.222 1.156-.669 1.684.143 1.53z"/><path fill="#F46822" d="M88.891 69.817c-.177-1.697-.268-3.398-.07-4.282.315-1.406.747-6.672 1.009-10.15-.574-.522-1.2-1.01-1.865-1.459l-1.235 8.67-5.201-.788c.055-.884-.23-7.653-.364-10.713a14.311 14.311 0 0 0-2.187-.252c.293 2.367-.517 7.466-1.267 11.411a12.336 12.336 0 0 1-5.477 8.09l-6.23 3.983c-.744 4.217-1.23 7.606-1.23 7.606 3.14 1.755 10.719 4.931 20.172 4.786-.475-3.906 2.482-13.611 2.482-13.611s.645-1.368 1.463-3.291z"/><path fill="#C63F20" d="M89.83 55.385a15.672 15.672 0 0 0-1.087-.899c-.274 1.241-.777 3.734-.891 5.744-.158 2.796 1.258 7.957-2.963 11.398s-8.952 2.079-6.084 8.53c.994 2.237 1.834 4.508 2.652 6.464 1.129.078 2.293.113 3.488.095-.475-3.906 2.482-13.611 2.482-13.611s.646-1.366 1.465-3.289c-.177-1.697-.268-3.398-.07-4.282.314-1.406.746-6.672 1.008-10.15z"/><path fill="#FF6161" d="M85.89 47.353a2.645 2.645 0 0 1-.107-.551c-.036-.356-.173-.876-.674-.562-.729.456-.432 2.34.462 2.395.663.039.465-.831.319-1.282z"/><path fill="#311E69" d="M73.643 79.637s3.928 4.036 11.38 4.141c.152-1.319.423-2.786.73-4.2l-12.11.059zm2.971-20.124l.687 13.19-5.952-1.864z"/><path fill="#FF6161" d="M76.002 52.635c-6.183-1.909-14.281 17.656-7.498 25.122 5.569 6.129 27.789 5.355 27.397-.244-.133-1.89-19.286-5.598-20.466-6.816-1.207-1.248 5.109-16.66.567-18.062z"/><path fill="#1E1240" d="M107.987 118.651c.096-.313-.463-2.495-.473-2.724-.038-.839.438-1.563 1.157-2.068.453-.318 2.562-1.489 3.01-1.196.401.263-.252 2.968.426 3.497.295.231 4.256.646 4.787 2.091.248.676-7.057 3.354-8.501 3.11-.756-.127-.723-1.68-.406-2.71z"/><path fill="#AD263D" d="M95.877 77.988c-1.832-1.399-7.102 1.055-10.053 1.268-2.966.214-4.295-.459-7.326-1.743-3.03-1.284-3.421-.15-7.865-1.584-4.444-1.434-2.294-2.581-2.796-5.376-.286-1.596-1.086-2.793-1.72-3.528-.526 4.099.035 8.143 2.388 10.732 5.407 5.951 26.51 5.394 27.372.231z"/><path fill="#FF6161" d="M94.772 77.04s.719-.932 1.586-1.263c1.264-.484 2.24-.433 1.922.193-.319.626-.282 1.313.39 1.366.672.054 2.419-1.29 2.446-.484.027.806-2.366 2.473-3.79 2.688-1.425.215-4.543-.618-2.554-2.5z"/><path fill="#F46822" d="M65.263 80.948s-5.598 10.711 3.327 15.227c6.297 3.186 16.421.754 21.837-.954a3.505 3.505 0 0 1 4.485 2.603c1.545 7.183 4.465 19.823 8.839 20.501 5.806.9 7.849-.534 7.527-3.007-.323-2.473-2.688-24.8-11.398-30.143-5.074-3.113-19.739-.717-19.739-.717l-14.878-3.51z"/><path d="M109.046 102.598a68.078 68.078 0 0 0-1.443-5.089c-2.895 1.955-8.926 3.424-11.857 4.055.264 1.129.553 2.305.866 3.489 4.876.887 10.078-1.28 12.434-2.455zm.408 1.753c-3.33 1.74-9.663 3.002-12.072 3.438.291.968.599 1.918.925 2.829 4.445.947 9.282-.514 12.059-1.618a98.53 98.53 0 0 0-.912-4.649z" fill="#FFD140"/><path fill="#C63F20" d="M111.277 115.319c-.323-2.473-2.688-24.8-11.398-30.143-3.555-2.181-11.816-1.658-16.445-1.149a92.9 92.9 0 0 0 5.668.647c5.257.43 6.906-1.362 8.519 1.792 1.613 3.154 3.453 4.377 3.859 9.25.406 4.872 1.299 5.999 2.393 10.633 1.095 4.634 4.517 11.067 5.172 12.008 1.778-.463 2.424-1.566 2.232-3.038z"/><path d="M107.602 97.509c-1.358.917-3.404 1.726-5.497 2.393.364 1.563.825 2.849 1.346 4.778 2.342-.578 4.36-1.466 5.594-2.082a67.471 67.471 0 0 0-1.443-5.089zm2.671 10.956l-.001-.008a77.831 77.831 0 0 0-.096-.534l-.004-.023-.096-.514-.011-.06-.093-.484-.019-.099-.094-.473-.023-.114-.097-.474-.025-.12c-.036-.172-.072-.345-.11-.519l-.017-.081a85.03 85.03 0 0 0-.133-.61c-1.472.769-3.532 1.445-5.58 1.998.308 1.304.801 2.75 1.364 4.177a29.167 29.167 0 0 0 5.128-1.526l-.093-.536z" fill="#F46822"/><path fill="#311E69" d="M30.71 123.822l.203-.869-5.256-1.049c-.388-.09-.78-.167-1.175-.235l-.16-.032-.001.005a20.348 20.348 0 0 0-4.513-.227C8.633 122.108.135 131.729.827 142.904c.557 8.986 6.888 16.236 15.156 18.374l-.001.003.048.01a20.13 20.13 0 0 0 2.202.438l3.47.69.12-.516c.164-.006.328-.008.493-.018 11.175-.693 19.673-10.314 18.981-21.489-.448-7.24-4.647-13.353-10.586-16.574z"/><circle fill="#1E1240" cx="27.061" cy="142.862" r="20.274"/><circle fill="#EAE8FF" cx="27.061" cy="142.862" r="8.158"/></svg>