<svg xmlns="http://www.w3.org/2000/svg" width="186.303" height="187.325" viewBox="0 0 186.303 187.325"><path fill="#879ca1" d="M177.054 22.872c15.734 41.559-29.854 133.138-68.661 151.797s-83.022.095-98.756-41.463 2.97-90.375 41.777-109.034 109.905-42.858 125.64-1.3z"/><path fill="#FF9797" d="M151.71 157.074H90.607V95.057l30.552-23.972 30.551 23.972z"/><path fill="#F58787" d="M0 95.057h90.608v62.017H0z"/><path fill="#311E69" d="M91.554 96.679l29.605-23.23v-2.364l-93.051 1.622L0 95.057v1.622z"/><path fill="#614CD4" d="M90.607 95.057l30.552-23.972H27.162L0 95.057z"/><path fill="#311E69" d="M121.159 73.449l30.551 23.839v-2.231l-30.551-23.972z"/><path fill="#AD263D" d="M123.141 108.846a9.575 9.575 0 0 0-9.575 9.575v38.653h19.151v-38.653c0-5.288-4.287-9.575-9.576-9.575z"/><path fill="#7A2A2A" d="M123.141 108.846c-.617 0-1.218.064-1.802.175 4.426.844 7.773 4.729 7.773 9.4v38.653h3.605v-38.653c0-5.288-4.287-9.575-9.576-9.575z"/><path fill="#D95F76" d="M136.434 107.99H148.6v27.307h-12.166z"/><path fill="#AF3F5A" d="M146.415 107.99h2.185v27.307h-2.185z"/><path fill="#D95F76" d="M96.781 107.99h12.166v27.307H96.781z"/><path fill="#AF3F5A" d="M106.762 107.99h2.185v27.307h-2.185z"/><circle fill="#D95F76" cx="123.141" cy="97.288" r="6.399"/><path fill="#AF3F5A" d="M123.141 90.889c-.338 0-.667.034-.991.084 3.062.478 5.407 3.118 5.407 6.314a6.393 6.393 0 0 1-5.407 6.314c.324.051.653.084.991.084a6.4 6.4 0 0 0 0-12.796z"/><path fill="#F58787" d="M143.23 97.288h-5.583c-.667 0-1.213.546-1.213 1.213v1.453c0 .667.546 1.213 1.213 1.213h5.583c.667 0 1.213-.546 1.213-1.213v-1.453c0-.668-.546-1.213-1.213-1.213zm-6.187 4.975h-5.583c-.667 0-1.213.546-1.213 1.213v1.453c0 .667.546 1.213 1.213 1.213h5.583c.667 0 1.213-.546 1.213-1.213v-1.453c0-.667-.546-1.213-1.213-1.213zm-38.657 50.932h-5.583c-.667 0-1.213.546-1.213 1.213v1.453c0 .667.546 1.213 1.213 1.213h5.583c.667 0 1.213-.546 1.213-1.213v-1.453c0-.667-.545-1.213-1.213-1.213zm11.709-1.767h-8.127c-.971 0-1.766.795-1.766 1.766v2.115c0 .971.795 1.766 1.766 1.766h8.127c.971 0 1.766-.795 1.766-1.766v-2.115c0-.971-.795-1.766-1.766-1.766zm-8.126-5.459h-6.711c-.802 0-1.458.656-1.458 1.458v1.746c0 .802.656 1.458 1.458 1.458h6.711c.802 0 1.458-.656 1.458-1.458v-1.746c0-.802-.656-1.458-1.458-1.458zm41.826 6.442h-6.712c-.802 0-1.458.656-1.458 1.458v1.746c0 .802.656 1.458 1.458 1.458h6.712c.802 0 1.458-.656 1.458-1.458v-1.746c0-.801-.657-1.458-1.458-1.458zm1.493-4.284H140.1a1.13 1.13 0 0 0-1.127 1.127v1.35c0 .62.507 1.127 1.127 1.127h5.188a1.13 1.13 0 0 0 1.127-1.127v-1.35a1.13 1.13 0 0 0-1.127-1.127zm-5.422-5.763h-5.188a1.13 1.13 0 0 0-1.127 1.127v1.35c0 .62.507 1.127 1.127 1.127h5.188a1.13 1.13 0 0 0 1.127-1.127v-1.35a1.13 1.13 0 0 0-1.127-1.127zm5.92-3.604h-3.802a.829.829 0 0 0-.826.826v.989c0 .454.372.826.826.826h3.802a.829.829 0 0 0 .826-.826v-.989a.829.829 0 0 0-.826-.826zm-41.875 2.952h-3.356a.731.731 0 0 0-.729.729v.873c0 .401.328.729.729.729h3.356a.731.731 0 0 0 .729-.729v-.873a.731.731 0 0 0-.729-.729z"/><path fill="#C98624" d="M152.098 160.038l-30.283-.046-.211 6.296h.011c0 1.381 6.868 2.5 15.341 2.5 8.473 0 15.341-1.119 15.341-2.5l-.199-6.25z"/><path fill="#AA6F22" d="M152.298 166.289l-.199-6.251-15.097-.023c1.143 1.814 3.108 3.006 2.28 4.375-.618 1.021-1.107 2.819-1.163 4.391 7.929-.096 14.179-1.175 14.179-2.492z"/><ellipse fill="#F7C263" cx="136.957" cy="159.993" rx="15.141" ry="2.5"/><path fill="#C98624" d="M152.098 152.202l-30.283-.046-.211 6.296h.011c0 1.381 6.868 2.5 15.341 2.5 8.473 0 15.341-1.119 15.341-2.5l-.199-6.25z"/><path fill="#AA6F22" d="M152.298 158.453l-.199-6.25-15.097-.023c1.143 1.814 3.108 3.006 2.28 4.375-.618 1.021-1.107 2.819-1.163 4.391 7.929-.097 14.179-1.176 14.179-2.493z"/><ellipse fill="#F7C263" cx="136.957" cy="152.157" rx="15.141" ry="2.5"/><path fill="#C98624" d="M152.098 144.076l-30.283-.046-.211 6.296h.011c0 1.381 6.868 2.5 15.341 2.5 8.473 0 15.341-1.119 15.341-2.5l-.199-6.25z"/><path fill="#AA6F22" d="M152.298 150.326l-.199-6.251-15.097-.023c1.143 1.814 3.108 3.006 2.28 4.375-.618 1.021-1.107 2.819-1.163 4.391 7.929-.095 14.179-1.175 14.179-2.492z"/><ellipse fill="#F7C263" cx="136.957" cy="144.03" rx="15.141" ry="2.5"/><path fill="#C98624" d="M158.353 137.039l-30.283-.046-.211 6.296h.011c0 1.381 6.868 2.5 15.341 2.5 8.473 0 15.341-1.119 15.341-2.5l-.199-6.25z"/><path fill="#AA6F22" d="M158.553 143.289l-.199-6.251-15.097-.023c1.143 1.814 3.108 3.006 2.279 4.375-.618 1.021-1.107 2.819-1.163 4.391 7.93-.096 14.18-1.175 14.18-2.492z"/><ellipse fill="#F7C263" cx="143.212" cy="136.993" rx="15.141" ry="2.5"/><path fill="#FFDBA1" d="M132.517 137.525c-.801-.181-.804-1.321-.002-1.498 1.6-.355 3.806-.745 6.143-.859 4.58-.223 5.951-.335 5.992.391.04.726-9.063 1.508-10.292 2.011-.445.181-1.138.114-1.841-.045z"/><path fill="#C98624" d="M128.894 166.286l-30.283-.046-.211 6.296h.011c0 1.381 6.868 2.5 15.341 2.5 8.472 0 15.341-1.119 15.341-2.5l-.199-6.25z"/><path fill="#AA6F22" d="M129.094 172.537l-.2-6.251-15.097-.023c1.143 1.814 3.108 3.006 2.279 4.375-.618 1.021-1.107 2.819-1.163 4.391 7.931-.096 14.181-1.175 14.181-2.492z"/><ellipse fill="#F7C263" cx="113.753" cy="166.24" rx="15.141" ry="2.5"/><path fill="#FFDBA1" d="M103.058 166.773c-.801-.181-.804-1.321-.002-1.499 1.6-.355 3.806-.745 6.143-.859 4.58-.223 5.952-.335 5.992.391.04.726-9.063 1.508-10.292 2.011-.445.181-1.138.115-1.841-.044z"/><path fill="#C98624" d="M186.104 173.836l-30.283-.046-.211 6.296h.011c0 1.381 6.868 2.5 15.341 2.5 8.472 0 15.341-1.119 15.341-2.5l-.199-6.25z"/><path fill="#AA6F22" d="M186.303 180.087l-.2-6.25-15.097-.023c1.143 1.814 3.108 3.006 2.279 4.375-.618 1.021-1.107 2.819-1.163 4.391 7.932-.097 14.181-1.176 14.181-2.493z"/><ellipse fill="#F7C263" cx="170.963" cy="173.79" rx="15.141" ry="2.5"/><path fill="#FFDBA1" d="M160.268 174.323c-.801-.181-.804-1.321-.002-1.498 1.6-.355 3.806-.745 6.143-.859 4.58-.223 5.951-.335 5.992.391.04.726-9.063 1.508-10.292 2.011-.445.18-1.138.114-1.841-.045z"/><path fill="#AD263D" d="M58.066 86.178c3.584-.534 7.243-6.736 10.285-10.212s-9.873-13.935-14.098-12.291c-4.227 1.644.49 22.998 3.813 22.503z"/><path fill="#311E69" d="M46.629 50.061s1.867-1.916 3.76-1.405c2.392.645 1.378 2.724 2.392 2.878 1.568.238.095 2.114.095 2.114s-.921 5.724-3.999 6.246c-3.078.522-5.216-1.038-5.833-3.5-.001 0-3.516-6.808 3.585-6.333z"/><path fill="#FF6161" d="M30.742 136.712c1.915-.587-.372-28.338-.344-30.776.091-7.953 5.523-12.815 8.235-16.114.205-.249.408-.49.611-.726 1.313-1.53 2.56-2.807 3.444-4.089.579-.838 1.005-1.678 1.189-2.592 1.089-5.384-11.543-8.511-6.033-15.172 2.374-2.87 6.547-5.113 13.242-5.111 1.297 0 2.906.139 3.991 1.553 2.251 2.935.424 10.024 2.382 16.835.765 2.661 1.631 5.86 2.516 9.236 3.139 11.974 5.728 12.633 6.537 26.599 1.042 17.982-5.049 41.702-20.317 64.185-.81 1.193-4.266 0-4.266 0-.081-1.867 3.14-28.512 8.947-37.959 2.117-3.444.058-32.425-.806-32.323-.616.073 3.994 44.385-39.033 46.674l-1.221-3.66c-.001-.002 9.407-13.029 20.926-16.56z"/><path fill="#AD263D" d="M56.709 144.782c-.237 2.813-9.23 28.068-9.369 31.494-.029.71.148 1.324.448 1.855 11.665-18.007 17.53-36.64 18.636-52.36-3.963 7.016-9.562 17.199-9.715 19.011zm-43.316 11.972c20.875-1.937 29.814-14.21 33.657-25.663-.749-1.398-1.776-2.41-3.09-2.761-5.415-1.449-5.015 11.226-7.538 13.407-2.523 2.181-11.165 7.09-16.67 9.263-4.198 1.656-5.822 4.497-6.359 5.754z"/><path fill="#311E69" d="M33.021 137.979c-1.903-4.393 7.395-1.154 10.938.211a36.669 36.669 0 0 1-3.193 4.857c-1.992-.192-6.018-1.08-7.745-5.068zm31.292 1.78c-.42 1.847-.899 3.715-1.439 5.602-2.089.156-7.229.195-9.796-2.829-2.568-3.025 7.014-2.946 11.235-2.773z"/><path fill="#FF8F8F" d="M30.398 105.936c.091-7.953 4.38-12.474 6.464-16.201 1.859-3.325-4.528-15.83.982-22.491 2.374-2.87 6.547-5.113 13.242-5.111 1.297 0 2.906.139 3.991 1.553 1.527 1.99 3.522 4.321 3.75 8.751.108 2.102-1.998 5.892-1.368 8.084.765 2.661 8.097 18.829 11.067 35.996 1.332 7.7 1.489 17.34-.91 26.732-2.325-.068-6.462 1.456-11.807 0-5.581-1.521-6.243-1.408-7.347-1.668-3.752-.883-6.006.47-8.682 0-4.389-.771-4.341-3.752-10.149-4.495.368-.135.739-28.713.767-31.15z"/><path fill="#FF6161" d="M45.378 58.06l.06 5.719c.014.941 2.387 3.307 3.845 2.082.427-.359-.174-1.639-.606-2.607l-1.232-4.886-2.067-.308z"/><path fill="#311E69" d="M48.176 61.269c-2.066-.475-2.489-2.276-2.489-2.276l1.933.071.556 2.205z"/><path fill="#FF6161" d="M45.391 54.623l-.293 2.203c-.232 1.746.919 3.446 2.66 3.715 1.607.248 3.132-.71 3.322-2.738.169-1.803-1.143-3.325-1.623-4.128-1.095-1.83-3.543-1.56-4.066.948z"/><path fill="#FF6161" d="M45.502 56.73a2.786 2.786 0 0 1-.159-.561c-.068-.365-.254-.891-.746-.524-.715.535-.245 2.459.685 2.438.69-.015.41-.899.22-1.353zm4.596-.78a2.705 2.705 0 0 0 0-.583c-.034-.37.002-.927.575-.707.833.32.905 2.299.005 2.532-.669.173-.64-.754-.58-1.242z"/><path fill="#FFF" d="M48.082 57.482s.906.053 2.102-.326c0 0-.139.932-.572 1.299-.432.366-1.063-.075-1.53-.973z"/><path fill="#D95F76" d="M68.526 116.515C65.555 99.348 58.224 83.18 57.458 80.519c-.63-2.192 1.476-5.983 1.368-8.084-.228-4.429-2.224-6.76-3.75-8.751-1.084-1.413-2.694-1.552-3.991-1.553-.461 0-.908.013-1.346.033 1.164 2.085 2.419 4.629 2.839 6.558.852 3.911-1.176 27.384 2.011 33.827 3.187 6.442 5.755 33.007 3.891 40.004-.104.39-.208.777-.313 1.162 4.204.553 7.478-.526 9.448-.468 2.4-9.391 2.243-19.032.911-26.732z"/><path fill="#311E69" d="M43.287 83.564l17.281 5.133c.719 1.914 1.51 4.09 2.317 6.46-3.301.358-15.328.76-19.598-11.593z"/><path fill="#AD263D" d="M47.937 59.821c.659.005 1.822-.282 2.294-.694.418-.365.778-1.231.855-1.424-.002.033-.001.066-.004.099-.19 2.028-1.715 2.986-3.322 2.738-1.073-.165-1.921-.875-2.36-1.804.913.821 1.944 1.081 2.537 1.085z"/><path fill="#FFF" d="M45.58 55.907c-.074-.743.721-.823 1.36-.887.639-.064 1.435-.145 1.51.598.065.649-.526 1.242-1.316 1.321-.06.006-.118.009-.176.009-.717.001-1.317-.44-1.378-1.041zm1.39-.594c-.805.081-1.136.177-1.097.565.049.487.6.829 1.231.769.629-.063 1.102-.511 1.053-.999-.028-.279-.213-.372-.616-.372-.157 0-.346.015-.571.037z"/><path fill="#F7C263" d="M105.39 1.993C85.767 13.206 53.062 9.362 53.062 9.362V51.17c0 29.37 19.385 55.216 47.58 63.44l4.748 1.385 4.749-1.385c28.196-8.224 47.58-34.07 47.58-63.44V9.362s-32.705 3.844-52.329-7.369z"/><path fill="#C98624" d="M117.809 6.917c1.931 8.601 6.504 33.523-.738 50.675-5.453 12.915-25.231 31.999-39.679 44.801a65.94 65.94 0 0 0 23.25 12.217l4.748 1.385 4.749-1.385c28.196-8.224 47.58-34.07 47.58-63.44V9.362s-21.358 2.509-39.91-2.445z"/><path fill="#311E69" d="M70.035 55.842V26.815c.33.002.665.003 1.003.003 11.152 0 26.311-1.236 39.178-6.646 11.452 4.816 24.713 6.321 35.356 6.594v-4.623c-.331.002-.665.003-1.003.003-11.152 0-26.311-1.236-39.178-6.646-12.866 5.41-28.025 6.646-39.178 6.646-.338 0-.673-.001-1.003-.003V51.17c0 11.762 3.73 22.952 10.787 32.361a54.264 54.264 0 0 0 8.181 8.713 54.628 54.628 0 0 1-3.356-4.041c-7.057-9.409-10.787-20.6-10.787-32.361z"/><path fill="#F7C263" d="M144.568 9.998c-11.29 0-27.536-1.353-39.178-8.005V15.5c12.866 5.41 28.025 6.646 39.178 6.646.339 0 .673-.001 1.003-.003V51.17c0 11.762-3.73 22.952-10.787 32.361-7.057 9.409-16.755 16.124-28.047 19.417l-1.347.393v12.654l4.749-1.385c28.196-8.224 47.58-34.07 47.58-63.44V9.362s-5.411.636-13.151.636z"/><path fill="#FFE0AE" d="M104.043 102.948c-11.291-3.293-20.99-10.008-28.047-19.417-7.056-9.409-10.786-20.6-10.786-32.361V22.143c.33.002.665.003 1.003.003 11.152 0 26.311-1.236 39.178-6.646V1.993C93.75 8.645 77.503 9.998 66.213 9.998c-7.742 0-13.151-.636-13.151-.636V51.17c0 29.37 19.385 55.216 47.58 63.44l4.748 1.385v-12.654l-1.347-.393z"/><path fill="#FFE0AE" d="M83.858 83.757S73.236 61.998 73.357 38.459c.019-3.734 2.856-6.851 6.567-7.264 8.662-.965 23.499-2.845 25.467-4.595 2.803-2.492-4.361 15.574-10.435 21.492-6.074 5.918-11.098 35.665-11.098 35.665z"/><path fill="#FFF" d="M49.435 56.198a1.144 1.144 0 0 1-.57-.717c-.083-.312-.005-.56.232-.735.193-.143.466-.223.777-.305.312-.082.59-.148.825-.121.293.034.484.21.567.522.082.307.033.629-.139.906a1.292 1.292 0 0 1-1.094.601c-.208 0-.413-.051-.598-.151zm.515-1.473c-.271.072-.526.146-.678.257-.102.075-.188.179-.123.423a.86.86 0 0 0 .426.534.967.967 0 0 0 .718.081.971.971 0 0 0 .583-.427.854.854 0 0 0 .105-.675c-.065-.244-.191-.291-.317-.306a.709.709 0 0 0-.081-.004c-.175 0-.399.055-.633.117z"/><path fill="#FFF" d="M48.371 55.58c.285-.284.53-.128.532-.126l.163-.245c-.155-.102-.54-.199-.904.163l.209.208z"/><path fill="#FF6161" d="M43.568 179.796c.785.706 3.963 4.855 5.084 4.968.605.061 1.1-.01 1.428-.087-.713-.559-1.497-1.878-2.213-3.315-.482-.967-1.009-2.243-1.001-4.139l-4.703 1.574s-.083.198-.19.503c.441-.01 1.11.061 1.595.496z"/><path fill="#311E69" d="M52.973 186.238c-.417-.392-1.164-.854-2.489-1.324a1.475 1.475 0 0 1-.403-.237 4.387 4.387 0 0 1-1.428.087c-1.122-.112-4.299-4.262-5.084-4.968-.485-.436-1.153-.506-1.595-.496-.24.687-.599 1.921-.405 2.697.28 1.122.953 4.323.841 5.327h1.402v-3.589s1.065.561 1.626 1.178c.21.231.413.628.584 1.034a2.277 2.277 0 0 0 2.104 1.377h4.407c.567.001.854-.697.44-1.086z"/><path fill="#FF6161" d="M10.054 154.33c-.396.979-3.214 5.38-2.937 6.473.149.589.384 1.031.569 1.313.283-.861 1.255-2.048 2.362-3.211.745-.783 1.765-1.713 3.55-2.352l-3.083-3.885s-.214-.011-.537-.007c.159.412.321 1.065.076 1.669z"/><path fill="#311E69" d="M7.204 165.368c.226-.525.406-1.385.397-2.792a1.487 1.487 0 0 1 .085-.46 4.382 4.382 0 0 1-.569-1.313c-.277-1.093 2.541-5.494 2.937-6.473.244-.604.082-1.257-.077-1.668-.727.009-2.01.091-2.674.538-.959.646-3.74 2.37-4.722 2.607l.478 1.318 3.374-1.223s-.164 1.193-.553 1.93c-.146.277-.45.602-.773.901a2.278 2.278 0 0 0-.578 2.448l1.502 4.143c.195.534.948.566 1.173.044z"/><path fill="#FF6161" d="M74.425 64.144s.544-1.618.633-2.209c.088-.591.075-2.027.7-1.114s-.015 1.861.81 1.883c.826.022 2.929-1.067 3.161-1.876.232-.809 1.189.403.597 2.132-.592 1.73-2.439 3.85-4.641 3.264-2.202-.587-1.26-2.08-1.26-2.08z"/><path fill="#FF6161" d="M37.659 69.753c6.976-6.977 18.625 14.954 22.359 13.603C62 82.639 73.039 62.405 76.052 63.738c4.488 1.987-2.049 21.919-12.353 28.799-9.203 6.146-31.519-17.304-26.04-22.784z"/><path fill="#AD263D" d="M37.659 69.753c.146-.146.295-.275.445-.396.495.766.737 2.207 1.701 3.357 1.52 1.815 4.414 3.433 7.127 5.901s5.576 7.391 7.244 9.991c1.668 2.6 5.395 1.521 8.387 1.128 2.992-.392 3.384-4.562 4.611-6.671 1.226-2.109 3.139-1.177 4.512-3.335 1.374-2.158 2.207-10.644 3.973-12.753.638-.762 1.224-1.055 1.713-1.123 1.042 5.759-4.973 20.875-13.674 26.685-9.202 6.146-31.518-17.304-26.039-22.784z"/></svg>