<svg xmlns="http://www.w3.org/2000/svg" width="237.692" height="181.926" viewBox="0 0 237.692 181.926"><path fill="#FFF" d="M203.748 22.872c15.734 41.559-29.854 133.138-68.661 151.797s-83.022.095-98.756-41.463S39.3 42.831 78.107 24.172s109.906-42.858 125.641-1.3z"/><path fill="#1B60A5" d="M8.379 116.737h41.272l-4.642-14.901z"/><path fill="#2F6FBC" d="M29.447 40.25S.392 76.101 2.7 81.78l2.307 5.679L0 95.765l8.379 20.971 21.068-8.334V40.25z"/><path fill="#1E1240" d="M111.672 105.403h42.593v8.303h-42.593zm-82.283 25.271v-9.822c0-4.467 2.175-8.655 5.829-11.224l1.744-1.226h40.989v22.272H29.389z"/><path fill="#311E69" d="M80.171 106.628v3.772a7.822 7.822 0 0 0 7.823 7.823h9.953a3.313 3.313 0 0 0 3.313-3.313l3.241 1.891a10.444 10.444 0 0 0 5.26 1.422h10.694c5.766 0 10.44-4.674 10.44-10.44v-1.156H80.171z"/><path fill="#2E88BF" d="M89.525 40.25H29.447l-2.482 11.465a107.407 107.407 0 0 0 .1 45.911l2.382 10.777H135.81V40.25H89.525z"/><path fill="#2F6FBC" d="M27.065 97.625l2.382 10.777H135.81V93.196c-4.281-2.365-8.513-4.269-12.069-5.042-13.134-2.856-14.423 3.811-27.497 7.612s-19.713-.674-34.444-6.531C47.069 83.378 46.892 90.3 33.59 90.3c-3.645 0-6.237-.587-8.083-1.438.399 2.935.916 5.86 1.558 8.763z"/><path fill="#2F6FBC" d="M56.606 51.715l2.482-11.465h-8.471a6.575 6.575 0 0 0-6.426 5.184l-1.36 6.281a107.402 107.402 0 0 0 .1 45.91l2.382 10.777h13.775l-2.382-10.777a107.402 107.402 0 0 1-.1-45.91z"/><path fill="#4CB4D4" d="M60.656 51.715l2.482-11.465H49.363l-2.482 11.465a107.407 107.407 0 0 0 .1 45.911l2.382 10.777h13.775l-2.382-10.777a107.407 107.407 0 0 1-.1-45.911z"/><path fill="#2E88BF" d="M58.014 51.715l2.482-11.465H46.721l-2.482 11.465a107.407 107.407 0 0 0 .1 45.911l2.382 10.777h13.775l-2.382-10.777a107.407 107.407 0 0 1-.1-45.911z"/><path fill="#2F6FBC" d="M82.754 51.715l2.482-11.465h-8.471a6.575 6.575 0 0 0-6.426 5.184l-1.36 6.281a107.402 107.402 0 0 0 .1 45.91l2.382 10.777h13.775l-2.382-10.777a107.402 107.402 0 0 1-.1-45.91z"/><path fill="#4CB4D4" d="M86.805 51.715l2.482-11.465H75.512L73.03 51.715a107.407 107.407 0 0 0 .1 45.911l2.382 10.777h13.775l-2.382-10.777a107.407 107.407 0 0 1-.1-45.911z"/><path fill="#2E88BF" d="M84.163 51.715l2.482-11.465H72.87l-2.482 11.465a107.407 107.407 0 0 0 .1 45.911l2.382 10.777h13.775l-2.382-10.777a107.391 107.391 0 0 1-.1-45.911z"/><path fill="#2F6FBC" d="M108.903 51.715l2.482-11.465h-8.471a6.575 6.575 0 0 0-6.426 5.184l-1.36 6.281a107.402 107.402 0 0 0 .1 45.91l2.382 10.777h13.775l-2.382-10.777a107.402 107.402 0 0 1-.1-45.91z"/><path fill="#4CB4D4" d="M112.953 51.715l2.482-11.465H101.66l-2.482 11.465a107.407 107.407 0 0 0 .1 45.911l2.382 10.777h13.775l-2.382-10.777a107.407 107.407 0 0 1-.1-45.911z"/><path fill="#2E88BF" d="M110.311 51.715l2.482-11.465H99.019l-2.482 11.465a107.407 107.407 0 0 0 .1 45.911l2.382 10.777h13.775l-2.382-10.777a107.391 107.391 0 0 1-.101-45.911z"/><path fill="#8AE9FF" d="M59.755 33.624l-.087.019c-17.058.364-30.221 6.607-30.221 6.607h166.441l-27.293-6.626H59.755z"/><path fill="#4CB4D4" d="M135.81 108.402l-2.382-10.777a107.407 107.407 0 0 1-.1-45.911l2.482-11.465s31.415-14.908 60.078 0l1.144 3.918a107.416 107.416 0 0 1 .166 59.655l-1.31 4.58H135.81z"/><path fill="#2E88BF" d="M197.198 103.823a107.42 107.42 0 0 0 3.777-38.343c-7.063-.481-5.421 9.952-16.522 5.534-13.923-5.541-17.879-13.134-24.012-11.95-6.133 1.183-9.485 6.626-13.981 15.263s-2.603 13.134-9.229 14.182c-3.764.596-4.863 1.425-5.111 2.031.36 2.372.79 4.737 1.309 7.086l2.382 10.777h60.078l1.309-4.58z"/><path fill="#1E1240" d="M145.709 126.414H133.68v-9.822c0-4.467 2.175-8.655 5.829-11.224a6.737 6.737 0 0 1 3.875-1.226h22.734l4.722 20.993-25.131 1.279z"/><path fill="#311E69" d="M59.143 124.379c0-6.962-3.756-12.69-8.572-13.391l-7.412-.073v26.928l7.412-.073c4.816-.701 8.572-6.428 8.572-13.391z"/><ellipse fill="#614CD4" cx="43.16" cy="124.379" rx="9.569" ry="13.464"/><ellipse fill="#FFF" cx="43.16" cy="124.379" rx="4.809" ry="7.642"/><path fill="#FFE6E6" d="M43.16 116.737c-.383 0-.754.073-1.111.208 2.12.797 3.698 3.822 3.698 7.435 0 3.613-1.578 6.638-3.698 7.435.357.134.729.207 1.111.207 2.656 0 4.809-3.422 4.809-7.642 0-4.222-2.153-7.643-4.809-7.643z"/><path fill="#311E69" d="M81.488 124.379c0-6.962-3.756-12.69-8.572-13.391l-7.412-.073v26.928l7.412-.073c4.817-.701 8.572-6.428 8.572-13.391z"/><ellipse fill="#614CD4" cx="65.505" cy="124.379" rx="9.569" ry="13.464"/><ellipse fill="#FFF" cx="65.505" cy="124.379" rx="4.809" ry="7.642"/><path fill="#FFE6E6" d="M65.505 116.737c-.383 0-.754.073-1.111.208 2.12.797 3.697 3.822 3.697 7.435 0 3.613-1.578 6.638-3.697 7.435.357.134.729.207 1.111.207 2.656 0 4.809-3.422 4.809-7.642 0-4.222-2.153-7.643-4.809-7.643z"/><path fill="#311E69" d="M168.488 122.235c0-8.071-4.354-14.71-9.937-15.524l-8.592-.084v31.216l8.592-.084c5.583-.813 9.937-7.453 9.937-15.524z"/><ellipse fill="#614CD4" cx="149.959" cy="122.235" rx="11.092" ry="15.608"/><ellipse fill="#FFF" cx="149.959" cy="122.235" rx="5.575" ry="8.859"/><path fill="#FFE6E6" d="M149.959 113.376c-.444 0-.875.085-1.288.241 2.457.924 4.286 4.431 4.286 8.619s-1.829 7.694-4.286 8.619c.414.156.845.241 1.288.241 3.079 0 5.574-3.966 5.574-8.859.001-4.894-2.495-8.861-5.574-8.861z"/><path fill="#1E1240" d="M84.201 109.628l-1.744-1.226H65.871l1.744 1.226a13.721 13.721 0 0 1 5.829 11.224v9.822H90.03v-9.822c0-4.467-2.175-8.654-5.829-11.224z"/><path fill="#8572ED" d="M175.14 47.199l-.276-.27c-4.002.111-7.35.234-10.028.349-5.034.216-15.525 2.113-16.959 6.943-1.088 3.665-.61 9.625-.755 13.897-.159 4.694-.318 19.337-.44 33.202a4.216 4.216 0 0 0 4.217 4.253 9.416 9.416 0 0 1 8.286 4.942l8.549 15.828a6.996 6.996 0 0 0 6.155 3.671h14.959V82.505l-7.225-24.521a24.979 24.979 0 0 0-6.483-10.785z"/><path fill="#AEA6FF" d="M232.229 76.495l-8.651-24.755a7.315 7.315 0 0 0-4.135-2.452c-4.501-.912-32.876-2.208-43.816-2.38-.257-.004-.511.014-.763.021a26.462 26.462 0 0 1 6.868 11.425l5.604 19.02a37.065 37.065 0 0 1 1.512 10.479v42.161h45.249s.147-28.033.207-41.12a37.071 37.071 0 0 0-2.075-12.399z"/><path fill="#311E69" d="M175.135 58.308l3.565 13.017c1.172 4.278-2.048 8.498-6.483 8.498h-10.715c-3.94 0-7.034-3.372-6.698-7.298.375-4.379 1.091-9.943 2.449-14.39a6.732 6.732 0 0 1 6.435-4.774h4.963a6.724 6.724 0 0 1 6.484 4.947z"/><path fill="#614CD4" d="M165.544 55.103s-3.618-.225-5.64 1.91c-2.023 2.135-3.483 14.832-2.36 17.753 1.123 2.922 14.516-19.803 8-19.663z"/><path fill="#1E1240" d="M178.7 71.325l-3.565-13.017a6.72 6.72 0 0 0-4.335-4.593c1.257 1.143 2.195 2.692 2.137 4.759-.169 6.012-4.551 7.865-1.348 12.248s1.264 3.371-2.823 6.236c-3.215 2.254-7.236.839-8.643 2.723.445.092.905.142 1.378.142h10.715c4.436 0 7.655-4.22 6.484-8.498zm57.72 62.812h-40.553c-.703 0-1.272-.57-1.272-1.272v-9.071c0-.703.57-1.272 1.272-1.272h40.553c.703 0 1.272.57 1.272 1.272v9.071c0 .702-.57 1.272-1.272 1.272z"/><g fill="#311E69"><path d="M226.489 92.766h-5.749c-.504 0-.988.2-1.344.557l-.686.686c-.52.52-1.212.807-1.947.807h-3.838a2.738 2.738 0 0 1-1.947-.806l-.686-.686a1.9 1.9 0 0 0-1.344-.557h-5.749a4.577 4.577 0 0 0-4.571 4.571v5.115c0 3.388 1.447 6.627 3.97 8.888l1.518 1.361c.349.312.801.485 1.269.485h18.918c.468 0 .92-.173 1.269-.485l1.518-1.361a11.949 11.949 0 0 0 3.97-8.888v-5.115a4.576 4.576 0 0 0-4.571-4.572zm.769 9.686a8.143 8.143 0 0 1-2.705 6.056l-.977.876h-17.463l-.977-.876a8.142 8.142 0 0 1-2.705-6.056v-5.115c0-.424.344-.768.768-.768h4.961l.13.129a6.512 6.512 0 0 0 4.635 1.92h3.838c1.75 0 3.397-.682 4.635-1.92l.13-.129h4.961c.424 0 .768.345.768.768v5.115z"/><path d="M201.39 99.915h27.112v2.091H201.39zm0 4.877h27.112v2.091H201.39z"/></g><path d="M185.641 53.444a2.547 2.547 0 0 0-2.431 3.305l6.772 20.862a2.547 2.547 0 0 0 2.431 1.789h18.665l-7.861-25.956h-17.576zm43.929 22.652l-6.772-20.862a2.547 2.547 0 0 0-2.431-1.789h-14.941l7.86 25.956h13.853a2.548 2.548 0 0 0 2.431-3.305z" fill="#311E69"/><path fill="#614CD4" d="M186.796 55.406h6.978a2.075 2.075 0 0 1 2.036 2.465c-.474 2.506-1.39 6.375-2.869 8.936-.881 1.524-3.154 1.295-3.741-.365l-3.403-9.625a1.06 1.06 0 0 1 .999-1.411z"/><path fill="#311E69" d="M223.555 113.186h9.893v-4.304c0-.724-.587-1.311-1.311-1.311h-4.868l-3.714 5.615z"/><path fill="#614CD4" d="M209.19 55.097h6.978a2.075 2.075 0 0 1 2.036 2.465c-.474 2.506-1.39 6.375-2.869 8.936-.881 1.525-3.154 1.295-3.741-.365l-3.403-9.625a1.059 1.059 0 0 1 .999-1.411z"/><g fill="#FFF"><ellipse cx="229.473" cy="110.378" rx=".928" ry="2.091"/><ellipse cx="231.803" cy="110.378" rx=".927" ry="2.091"/></g><path fill="#311E69" d="M205.385 113.186h-9.893v-4.304c0-.724.587-1.311 1.311-1.311h4.868l3.714 5.615z"/><g fill="#FFF"><ellipse cx="197.463" cy="110.378" rx=".927" ry="2.091"/><ellipse cx="199.793" cy="110.378" rx=".928" ry="2.091"/></g><path fill="#8AE9FF" d="M146.831 86.178h41.976v13.755h-7.241l-20.563-4.739 12.324 4.739h-26.645z"/><g fill="#5ABABF"><path d="M73.588 52.625l6.355 9.45-4.302 2.64 11.993-.323 2.427-8.211-2.954 1.934-3.349-4.942a3.787 3.787 0 0 0-3.786-1.633l-6.384 1.085z"/><path d="M71.538 54.035l-8.3 7.778 6.124 5.439 8.076-7.745-4.015-6.016c-.551-.827-1.16-.135-1.885.544zm27.587 23.356L87.901 79.32l-.647-5.006-4.616 11.073 6.497 5.576-.555-3.487 5.88-1.032a3.787 3.787 0 0 0 3.04-2.785l1.625-6.268z"/><path d="M98.678 74.944l-3.697-10.757-7.47 3.36 3.76 10.539 7.133-1.2c.979-.164.597-1.003.274-1.942zM64.555 87.296l2.23-11.168 4.905 1.193-8.677-8.285-7.537 4.062 3.453.734-1.148 5.859a3.786 3.786 0 0 0 1.508 3.837l5.266 3.768z"/><path d="M66.999 87.758l11.367.412-.454-8.178-11.186-.276-1.442 7.088c-.197.973.723.918 1.715.954z"/></g><path fill="#AD263D" d="M60.786 97.987c-1.176-.514-3.381 2.797-4.02 6.409-.639 3.613-2.942 6.125-4.81 5.265-1.163-.535-6.798-2.784-7.265-.81-.521 2.2 5.341 9.064 13.271 4.369 4.554-2.695 5.897-13.891 2.824-15.233z"/><path fill="#311E69" d="M60.786 97.987c-1.176-.514-3.381 2.797-4.02 6.409-.349 1.974-1.195 3.618-2.196 4.564.356.978 1.302 2.831 3.604 4.12 4.381-2.913 5.636-13.772 2.612-15.093z"/><path fill="#1E1240" d="M48.699 109.788l-1.552-.653a4.422 4.422 0 0 0-2.456-.283l-2.421.411a3.13 3.13 0 0 0-2.535 2.425l-5.297 24.539 1.303.281 5.165-23.928a3.13 3.13 0 0 1 2.458-2.411l.79-.154a4.419 4.419 0 0 1 2.703.325l1.304.602c.241.111.532.08.725-.102a.636.636 0 0 0-.187-1.052z"/><path fill="#1E1240" d="M55.536 111.059l-1.552-.653a4.422 4.422 0 0 0-2.456-.283l-2.421.411a3.13 3.13 0 0 0-2.535 2.425l-5.297 24.539 1.303.281 5.165-23.928a3.13 3.13 0 0 1 2.459-2.411l.79-.155a4.426 4.426 0 0 1 2.703.325l1.304.602c.24.111.532.08.725-.102a.636.636 0 0 0-.188-1.051zm-21.323 38.146c0-.828-.22-1.575-.53-2.103v-.791h-.997c-.712 0-1.292 1.298-1.292 2.894s.579 2.894 1.292 2.894h.997v-.791c.311-.528.53-1.275.53-2.103z"/><path fill="#614CD4" d="M33.683 146.311c-.712 0-1.292 1.298-1.292 2.894s.58 2.894 1.292 2.894c.712 0 1.292-1.298 1.292-2.894s-.58-2.894-1.292-2.894z"/><path fill="#4CB4D4" d="M31.835 120.301l-3.128 26.208a.848.848 0 0 0 .677.898l12.476 2.506a.848.848 0 0 0 .957-.525l8.24-25.451-19.222-3.636z"/><path fill="#2E88BF" d="M43.054 137.663c-1.662 4.267-8.756 7.203-9.499 10.581l8.306 1.668a.848.848 0 0 0 .957-.525l8.24-25.451-5.718-1.081c.244 1.838-1.459 12.686-2.286 14.808z"/><path fill="#311E69" d="M31.744 121.44l2.524.507-.179 1.508 1.037.208.436-1.456 4.87.978-.179 1.508 1.038.209.435-1.457 5.87 1.179-.179 1.508 1.037.208.436-1.456 1.672.336.495-1.285-19.222-3.634z"/><path fill="#4CB4D4" d="M51.691 122.017l-19.649-3.946a.958.958 0 0 0-1.139 1.062l.212 1.647 2.913.585-.179 1.508 1.038.208.435-1.456 4.87.978-.179 1.508 1.038.208.436-1.457 5.869 1.179-.179 1.508 1.038.208.435-1.456 2.757.554.898-1.374a.959.959 0 0 0-.614-1.464z"/><path fill="#1E1240" d="M45.133 149.205c0-.828-.22-1.575-.53-2.103v-.791h-.997c-.712 0-1.292 1.298-1.292 2.894s.579 2.894 1.292 2.894h.997v-.791c.311-.528.53-1.275.53-2.103z"/><path fill="#614CD4" d="M44.603 146.311c-.712 0-1.292 1.298-1.292 2.894s.579 2.894 1.292 2.894c.712 0 1.292-1.298 1.292-2.894s-.58-2.894-1.292-2.894z"/><g fill="#FFF"><path d="M38.967 129.127l.653 1.571-.708.26 1.766.306.597-1.131-.49.196-.345-.822a.566.566 0 0 0-.506-.351l-.967-.029z"/><path d="M38.625 129.273l-1.445.895.737.977 1.411-.897-.411-.999c-.056-.138-.166-.054-.292.024zm3.354 4.233l-1.701-.048.052-.752-1.002 1.486.788 1.008.021-.527.892.022a.566.566 0 0 0 .527-.319l.423-.87z"/><path d="M41.985 133.134l-.225-1.684-1.193.272.241 1.654 1.08.034c.148.006.117-.129.097-.276zm-5.362.806l.655-1.57.683.319-1.027-1.469-1.224.373.484.209-.341.824a.564.564 0 0 0 .108.606l.662.708z"/><path d="M36.968 134.08l1.653.395.174-1.211-1.631-.37-.42.996c-.057.136.08.155.224.19z"/></g><path fill="#1E1240" d="M42.09 150.58a.656.656 0 0 1-.132-.013l-15.657-3.152a.668.668 0 1 1 .263-1.309l15.657 3.152a.668.668 0 0 1-.131 1.322z"/><path fill="#F46822" d="M65.011 112.97c-1.463-1.374-7.563 1.25-7.563 1.25s-2.039 6.38-3.101 11.183c-.288 1.303-.505 2.489-.589 3.401-.426 4.607-.366 19.838 1.949 21.009 2.606 1.318 3.815-.233 3.98-.899 1.017-4.091.923-13.848.052-16.484-.198-.599 1.387-3.704 2.212-5.394.584-1.195 6.111-11.2 3.06-14.066z"/><path fill="#614CD4" d="M57.254 114.633c.218-1.284 1.322-3.53 1.28-6.035-.079-4.636-1.101-10.029 2.128-10.941 3.199-.903 11.873.824 11.18 5.899-.271 1.984-1.228 2.752-1.298 5.103-.049 1.64.381 6.4.411 6.833.133 1.949-2.626 1.175-4.579 1.191-5 .042-9.458-.071-9.122-2.05z"/><path fill="#311E69" d="M65.844 93.933s1.475 1.478-.491 3.086c-.797.651-2.737-2.531-2.211-3.404.387-.642 1.317-1.172 2.103-.658.545.357.599.976.599.976z"/><path fill="#FF6161" d="M65.376 95.732l.667 2.641c-.025.374-2.115 1.258-2.669.74-.162-.152-.087-.506.105-.882l1.128-2.04.769-.459z"/><path fill="#311E69" d="M64.38 96.602c.418-.042.988-.106.988-.106s-.086.653-.698 1.103a1.712 1.712 0 0 1-1.027.335l.737-1.332z"/><path fill="#FF6161" d="M65.075 94.78l.317 1.528a.952.952 0 0 1-.799 1.061c-.407.062-.663.034-1.162-.084-.416-.099-.586-.527-.524-1.079.081-.717.358-1.354.526-1.686.382-.758 1.363-.722 1.642.26z"/><path fill="#FFF" d="M63.987 95.893s-.776-.244-.844-.069c0 0-.034.103.181.173.221.073.44.039.663-.104z"/><path fill="#AD263D" d="M63.362 96.722c.482-.041.76.713 1.674.13.171-.109.287-.403.349-.578l.007.033a.952.952 0 0 1-.799 1.061c-.407.062-.663.034-1.162-.084-.253-.06-.415-.243-.489-.502.082.024.273-.047.42-.06z"/><path fill="#311E69" d="M65.089 94.538s-.339.647-.311.863c.029.216.351.156.478-.152.128-.307.124-.712-.167-.711z"/><path fill="#FF6161" d="M65.078 95.461a1.38 1.38 0 0 0 .145-.25c.078-.167.232-.396.422-.16.277.344-.185 1.21-.629 1.085-.329-.091-.085-.48.062-.675z"/><path fill="#C63F20" d="M64.945 120.339c-1.268.116-3.529.568-4.313 2.31-1.112 2.473-4.488 5.142-3.607 7.811.882 2.669 2.694 2.836 1.482 5.061s-2.252 3.182-1.482 5.539c.771 2.357-.639 6.982.659 8.868.076.111.153.237.229.374 1.104-.14 1.664-.952 1.772-1.389 1.017-4.091.923-13.848.052-16.484-.198-.599 1.387-3.704 2.212-5.394.303-.615 1.92-3.579 2.996-6.696z"/><path fill="#1E1240" d="M78.928 148.245c-.202-.097-1.037-1.391-1.147-1.502-.404-.409-.988-.506-1.575-.38-.37.08-1.937.594-1.998.955-.054.323 1.606 1.252 1.557 1.838-.021.255-1.652 2.436-1.174 3.374.224.438 4.961-1.983 5.509-2.822.286-.439-.508-1.144-1.172-1.463z"/><path fill="#F46822" d="M73.007 132.706s-.596-9.077-1.653-14.654c-.015-.216-.529-4.069-.634-5.514-1.541-1.584-5.212-5.463-5.321-6.616-.115-1.22 2.805-5.494 3.769-6.868a10.536 10.536 0 0 0-1.647-.758l-3.534 4.498-2.897-.25 2.258-5.096a10.409 10.409 0 0 0-1.965.063c-.75 1.495-2.083 4.248-2.379 5.491-.161.676-.39 1.551-.611 2.37.054 1.073.121 2.169.139 3.225.043 2.505-1.062 4.752-1.28 6.035-.237 1.401 1.926 1.866 4.983 2.004.779 4.187 2.725 14.408 3.807 17.944 1.418 4.633 5.903 13.214 8.455 13.684 2.872.528 4.356-1.997 4.327-2.683-.085-1.986-5.817-12.875-5.817-12.875z"/><path fill="#C63F20" d="M73.007 132.706s-.596-9.077-1.653-14.654c-.015-.216-.529-4.069-.634-5.514-1.541-1.584-5.212-5.463-5.321-6.616-.115-1.22 2.805-5.494 3.769-6.868a9.449 9.449 0 0 0-.809-.414c-.311.43-.783 1.088-1.473 2.069-1.528 2.169-3.07 4.062-2.716 5.673.354 1.612.576 7.062 2.328 10.009 1.752 2.947 3.643-.222 3.198 5.005-.445 5.228-3.17 9.454.389 14.57s3.04 5.45 4.412 7.73c.982 1.632 2.205 3.057 3.157 3.759.787-.664 1.186-1.517 1.17-1.874-.085-1.986-5.817-12.875-5.817-12.875z"/><path fill="#FF6161" d="M69.224 101.25c-3.152 1.029-3.933 9.802-6.083 11.053-1.505.876-9.11-2.481-10.835-1.074-1.726 1.408 6.403 6.621 11.681 5.954 5.278-.667 8.248-12.477 7.894-14.265-.355-1.787-1.57-2.023-2.657-1.668z"/><path fill="#311E69" d="M57.267 114.795c-.174.557-.459 1.483-.795 2.618 1.874.393 6.663 1.214 7.997-.322 1.258-1.451-4.362-2.076-7.202-2.296z"/><path fill="#AD263D" d="M70.889 108.171l-5.054 4.099s.208 1.832-1.058 2.559c-1.266.728-1.85.728-3.143.352-1.293-.375-2.913-1.21-4.397-1.543-1.484-.334-4.144-2.169-4.774-1.335a.796.796 0 0 0-.095.166c1.386 2.035 7.408 5.247 11.621 4.714 3.262-.413 5.641-5.083 6.9-9.012zm-25.175-.303s-1.905.014-2.183.723c-.278.709 0 1.529-.181 1.766-.181.236.348.473.626.111.278-.361.352-1.199.683-1.114.332.085 1.347.325 1.861-.106.515-.431.083-1.362-.806-1.38z"/><path fill="#AD263D" d="M42.779 109.57s-.152.576.027.88c.179.304.695.203 1.081.316.386.113.536.174 1.116.025.58-.149.754-.802.322-.928-.432-.127-1.652-.232-1.652-.232s-.047-.433-.432-.379c-.385.056-.462.318-.462.318z"/><path fill="#FF6161" d="M54.052 110.889s-.776-.989-1.678-1.214c-.902-.225-1.679.458-1.522.563.156.105.605.188.605.532 0 .34-1.254.67-1.254.67s1.744 1.321 2.641.977c.896-.343 1.208-1.528 1.208-1.528z"/><path fill="#614CD4" d="M71.881 102.919c-.355-1.787-1.57-2.023-2.657-1.668-2.415.788-3.439 6.119-4.752 9.133.355 1.178 1.823 2.814 4.529 3.254 2.371-3.827 3.114-9.54 2.88-10.719z"/><path fill="#311E69" d="M69.002 113.638c2.371-3.827 3.113-9.54 2.879-10.719-.267-1.344-1.02-1.81-1.84-1.808-.037.498-.052 1.209.073 1.878.222 1.196.417 1.502-.584 2.92s-1.613 2.198-1.613 3.268c0 1.07-1.679 1.793-1.994 2.794a13.29 13.29 0 0 0-.089.3c.752.617 1.802 1.145 3.168 1.367z"/><path fill="#FFD140" d="M53.631 139.032c.035.905.082 1.807.143 2.683 2.122.435 4.942.005 6.637-.344.017-1.04.011-2.082-.019-3.076-2.209.979-5.178.883-6.761.737zm6.582 6.341c.084-.956.141-1.979.174-3.022-2.229.769-5.043.551-6.538.349.082.974.184 1.9.307 2.745 1.929.414 4.394.181 6.057-.072zm13.766-10.788c-2.348 1.732-6.064 2.235-7.092 2.344.318.79.682 1.621 1.079 2.462 2.468.11 5.786-1.364 7.353-2.143-.491-.993-.956-1.912-1.34-2.663zm3.037 6.202c-.423-.919-.882-1.878-1.335-2.802-2.134 1.751-5.743 2.248-7.243 2.382.434.87.896 1.734 1.37 2.555 2.736-.099 6.151-1.63 7.208-2.135z"/><path d="M74.981 136.567l-.052-.104c-.345-.689-.668-1.327-.948-1.875l-.002-.004c-1.072.791-2.429 1.324-3.686 1.681a58.032 58.032 0 0 1 1.591 2.418 27.368 27.368 0 0 0 3.435-1.437l-.338-.679zm.704 1.424l-.003-.006c-.908.745-2.083 1.262-3.25 1.622.644 1.131.923 1.818 1.244 2.522a29.093 29.093 0 0 0 3.34-1.342 132.99 132.99 0 0 0-1.331-2.796zm-18.66 3.07c.078.237.128.502.166.78a26.893 26.893 0 0 0 3.219-.47c.008-.501.01-1.002.008-1.498l-.001-.113a63.153 63.153 0 0 0-.026-1.463v-.001c-1.098.487-2.383.707-3.593.789-.081.569-.028 1.195.227 1.976zm.132 4.6a25.95 25.95 0 0 0 3.055-.288v-.002c.02-.233.039-.471.057-.711l.002-.029c.053-.735.091-1.501.115-2.277v-.003c-.981.339-2.076.486-3.121.527.015.873-.055 1.836-.108 2.783z" fill="#F46822"/><path fill="#1E1240" d="M58.536 151.021c-.136-.178-.295-1.71-.343-1.859-.175-.547-.652-.898-1.233-1.052-.366-.097-1.996-.347-2.214-.052-.195.264.866 1.843.557 2.344-.135.218-2.576 1.425-2.573 2.477.001.492 5.321.476 6.19-.024.453-.261.064-1.249-.384-1.834z"/><path fill="#4CB4D4" d="M157.567 134.259s-2.234-6.241-1.3-7.169c1.406-1.397 3.812-.043 5.113-.485 1.301-.443 2.129-2.004 3.581-1.249.895.465 1.982 1.555 1.534 2.973-.824 2.611-3.388 5.76-3.388 5.76s8.183 9.973 8.779 19.264c.597 9.291-20.894 9.376-24.895 6.137-4-3.239-3.914-19.264 10.576-25.231z"/><path fill="#2E88BF" d="M171.887 153.353c-.597-9.291-8.779-19.264-8.779-19.264s2.564-3.149 3.388-5.76c.448-1.419-.639-2.508-1.534-2.973-1.094-.568-1.833.176-2.687.767.22 1.19.442 3.008.13 4.492-.511 2.429-1.662 4.014-1.662 4.014s2.046 9.411.575 14.525c-1.47 5.114-9.347 7.032-12.964 5.306a16.285 16.285 0 0 1-3.612-2.373c-.1 3.414.811 6.236 2.251 7.402 4 3.24 25.491 3.155 24.894-6.136z"/><path fill="#311E69" d="M178.225 140.745s-2.14-5.979-1.245-6.867c1.347-1.338 3.651-.041 4.898-.465 1.247-.424 2.039-1.919 3.431-1.196.857.446 1.899 1.489 1.47 2.848-.79 2.501-3.246 5.517-3.246 5.517s7.838 9.553 8.41 18.452c.572 8.9-20.014 8.981-23.846 5.879-3.834-3.103-3.753-18.453 10.128-24.168z"/><path fill="#1E1240" d="M191.941 159.034c-.572-8.9-8.41-18.453-8.41-18.453s2.456-3.017 3.246-5.517c.429-1.359-.612-2.403-1.47-2.848-1.048-.544-1.756.168-2.574.735.211 1.14.423 2.881.124 4.303-.49 2.327-1.592 3.845-1.592 3.845s1.96 9.015.551 13.914c-1.409 4.899-8.953 6.736-12.418 5.083a15.61 15.61 0 0 1-3.459-2.273c-.096 3.27.777 5.974 2.156 7.09 3.833 3.103 24.418 3.021 23.846-5.879z"/><path fill="#311E69" d="M203.464 142.298s-.895-6.287.16-6.978c1.589-1.04 3.585.693 4.891.528 1.306-.165 2.383-1.471 3.601-.483.75.609 1.561 1.84.868 3.085-1.276 2.291-4.288 4.753-4.288 4.753s5.759 10.933 4.531 19.766c-1.228 8.833-21.41 4.778-24.541.968-3.131-3.808.033-18.829 14.778-21.639z"/><path fill="#1E1240" d="M213.228 162.97c1.228-8.833-4.531-19.766-4.531-19.766s3.012-2.462 4.288-4.753c.693-1.245-.117-2.477-.868-3.085-.917-.744-1.754-.188-2.669.203-.023 1.159-.164 2.908-.743 4.241-.947 2.181-2.332 3.447-2.332 3.447s.109 9.225-2.255 13.741-10.124 4.8-13.186 2.484A15.598 15.598 0 0 1 188 156.56c-.751 3.184-.439 6.008.688 7.379 3.13 3.809 23.312 7.864 24.54-.969zM101.462 96.51c2.304-.723 11.82.806 12.803-.498 1.533-2.033 1.389-11.497 3.895-10.948 2.996.657 3.241 12.376-1.687 15.379-2.481 1.512-9.931 2.704-12.212 2.34-2.942-.471-4.315-5.798-2.799-6.273zm25.13 23.468c-.609-.958-1.412-1.662-2.16-2.045l-.581-.916-1.155.733c-.825.523-.541 2.453.632 4.3 1.173 1.848 2.798 2.925 3.623 2.401l1.155-.733-.581-.916c-.029-.839-.324-1.865-.933-2.824z"/><path fill="#614CD4" d="M123.851 117.017c-.825.524-.541 2.453.632 4.3 1.173 1.848 2.798 2.925 3.623 2.401.825-.524.541-2.453-.632-4.3s-2.798-2.924-3.623-2.401z"/><path fill="#614CD4" d="M104.903 92.785l21.761 28.921a1.16 1.16 0 0 0 1.522.246l14.732-9.352c.477-.303.667-.906.449-1.428l-15.981-33.02-22.483 14.633z"/><path fill="#311E69" d="M132.482 99.338c2.401 5.802-1.84 15.438.628 19.488l9.808-6.226c.477-.303.667-.906.449-1.428l-15.981-33.02-6.688 4.353c1.987 1.589 10.59 13.948 11.784 16.833z"/><path fill="#311E69" d="M105.893 94l2.98-1.891 1.253 1.663 1.225-.778-.95-1.855 5.751-3.651 1.253 1.663 1.226-.778-.951-1.855 6.931-4.4 1.253 1.663 1.225-.778-.95-1.855 1.975-1.254-.728-1.742-22.483 14.633z"/><path fill="#614CD4" d="M126.194 75.652l-23.201 14.729a1.315 1.315 0 0 0-.121 2.133l1.772 1.429 3.439-2.183 1.253 1.663 1.225-.778-.95-1.855 5.751-3.651 1.253 1.663 1.225-.778-.95-1.855 6.931-4.4 1.253 1.663 1.225-.778-.95-1.855 3.255-2.066-.414-2.212a1.313 1.313 0 0 0-1.996-.869z"/><path fill="#1E1240" d="M144.621 108.533c-.609-.959-1.412-1.662-2.16-2.045l-.581-.916-1.155.733c-.825.524-.541 2.453.632 4.3 1.173 1.848 2.798 2.925 3.623 2.401l1.155-.733-.581-.916c-.03-.839-.324-1.866-.933-2.824z"/><path fill="#614CD4" d="M141.88 105.572c-.825.523-.541 2.453.632 4.3 1.173 1.848 2.798 2.925 3.623 2.401.825-.523.541-2.453-.632-4.3s-2.799-2.925-3.623-2.401z"/><g fill="#FFF"><path d="M120.337 94.762l2.137.937-.454.929 2.039-1.373-.482-1.687-.299.659-1.122-.487a.776.776 0 0 0-.834.133l-.985.889z"/><path d="M120.137 95.231l-.582 2.257 1.656.268.546-2.226-1.355-.6c-.185-.083-.214.104-.265.301zm7.337 1.011l-1.73 1.566-.662-.795.417 2.422 1.736.251-.479-.542.904-.824a.776.776 0 0 0 .22-.816l-.406-1.262z"/><path d="M127.127 95.867l-1.821-1.455-.923 1.401 1.808 1.41 1.102-.991c.152-.134-.007-.238-.166-.365zm-4.546 5.884l-.84-2.177.979-.332-2.411-.48-.858 1.53.678-.252.445 1.139a.775.775 0 0 0 .682.498l1.325.074z"/><path d="M123.055 101.562l2.011-1.177-.976-1.365-1.965 1.181.529 1.384c.072.191.226.08.401-.023z"/></g><path fill="#F46822" d="M107.311 111.718c-4.065.757-8.943 2.045-10.551 1.897-.101.383-1.764.892-1.895 1.317-3.183 10.311-2.257 35.782-2.257 35.782s1.386.529 3.392-.021a2.08 2.08 0 0 0 1.483-1.543c1.209-5.363 3.359-25.738 3.826-27.501l1.788 27.836c.037.641.752 1.458 1.394 1.458.964 0 1.887 0 2.553-.126a.873.873 0 0 0 .704-.732c.506-3.462 3.103-23.054-.437-38.367z"/><path fill="#1E1240" d="M94.882 94.819s.193 1.233 1.297 1.551c.59.17.865-1.905.327-2.339-.538-.435-1.624.788-1.624.788zm-3.467 7.473c.812-3.23 2.444-5.576 9.53-5.792 2.485-.076 4.678 1.574 4.838 4.056.624 9.66 3.563 15.277-.059 16.575-5.344 1.914-11.511.504-11.409-.174.874-5.809-3.927-10.579-2.9-14.665z"/><path fill="#FF6161" d="M95.831 95.352l.305 2.714c.155.342 2.428.435 2.766-.246.099-.199-.097-.505-.409-.791l-1.778-1.518-.884-.159z"/><path fill="#311E69" d="M97.072 95.818c-.407.108-.965.249-.965.249s.311.583 1.044.79a1.72 1.72 0 0 0 1.082-.048l-1.161-.991z"/><path fill="#FF6161" d="M95.947 94.239l.085 1.563a.954.954 0 0 0 1.047.823c.411-.044.652-.137 1.105-.38.378-.202.433-.661.231-1.181-.262-.674-.695-1.22-.943-1.499-.565-.635-1.506-.348-1.525.674z"/><path fill="#311E69" d="M96.107 94.85c.166-.103.109.076.337.203.228.127.34.06.836-.385.291-.261.568-.34.747-.361.142.225.502.467.611.746.202.519.094 1.197-.284 1.399-.453.243-.822.266-1.233.311-.514.055-1.02-.448-1.089-.96l-.046-.843a.61.61 0 0 1 .121-.11z"/><path fill="#1E1240" d="M96.032 95.802l-.01-.175c.239.035.474.1.593.191.29.224 1.189.359 1.384.262.195-.098.213-.248.452-.302.132-.029.221-.211.274-.369.054.436-.076.885-.371 1.043-.453.243-.822.266-1.233.311-.514.054-1.02-.448-1.089-.961z"/><path fill="#FFF" d="M97.263 95.001s.337-.132.708-.469c0 0 .198.257.103.462-.096.205-.492.255-.811.007z"/><path fill="#1E1240" d="M96.085 93.62s-.14.647 0 .912.222.367.16.477c-.062.11-.412.003-.518-.287-.105-.289-.266-1.053.358-1.102z"/><path fill="#FF6161" d="M96.092 94.977a1.324 1.324 0 0 1-.183-.225c-.103-.153-.291-.356-.443-.092-.221.384.371 1.169.791.977.312-.143.011-.49-.165-.66z"/><path fill="#FFD140" d="M92.498 139.507a283.087 283.087 0 0 0-.015 2.991l6.046.31c.147-1.048.297-2.159.448-3.301h-6.479z"/><path fill="#C63F20" d="M109.138 129.676v-.009c-.003-.483-.009-.97-.018-1.459v-.027a108.381 108.381 0 0 0-.176-4.495c-.015-.253-.032-.506-.049-.759a83.406 83.406 0 0 0-.515-5.21 68.736 68.736 0 0 0-.585-3.684 57.774 57.774 0 0 0-.483-2.315h-.001c-3.263.608-7.047 1.556-9.245 1.831 2.773 1.616 6.042 2.184 6.298 2.516 2.43 3.16 4.333 7.9 2.729 12.228-1.604 4.328-1.939 4.122-1.428 8.175.511 4.051.499 14.437.499 14.447.148-.008.29-.02.426-.034l.076-.008a4.88 4.88 0 0 0 .38-.055.875.875 0 0 0 .704-.733l.053-.371a116.982 116.982 0 0 0 .305-2.355 143.684 143.684 0 0 0 .615-6.308 148.618 148.618 0 0 0 .325-5.705c.066-1.811.102-3.714.09-5.67z"/><path fill="#FFD140" d="M98.438 143.45h-5.954c.004 1.095.014 2.102.027 2.996l5.427.278c.16-.962.328-2.07.5-3.274zm4-4.224l.192 2.993 5.971.306c.089-1.03.173-2.133.248-3.299h-6.411z"/><path fill="#F46822" d="M106.019 103.228c-.543-.717-1.138-1.564-1.455-2.217-.479-.988-2.149-3.259-3.082-4.498a5.32 5.32 0 0 0-.537-.013c-.583.018-1.126.051-1.638.097l1.504 3.089-3.337.57c-.426-.581-1.851-1.923-2.594-2.61a6.247 6.247 0 0 0-1.411.905c1.187.702 4.615 3.013 3.911 5.923-.645 2.666-3.14 4.485-4.298 5.203.863 2.236 1.629 4.65 1.234 7.278-.102.678 6.064 2.088 11.409.174 3.273-1.172 1.186-5.875.294-13.901z"/><path fill="#FFD140" d="M108.545 143.168h-5.854l.193 3.01 5.328.273c.109-.961.223-2.063.333-3.283z"/><path d="M108.729 140.947l.005-.073a111.847 111.847 0 0 0 .114-1.648h-2.956c.057.989.102 2.071.138 3.167l2.57.132c.046-.508.088-1.035.129-1.578zm-.351 3.963l.001-.005c.027-.268.055-.544.082-.827l.003-.036c.027-.284.055-.575.081-.874h-2.49c.031 1.092.053 2.178.069 3.176l2.089.107c.054-.479.109-.994.165-1.541z" fill="#F46822"/><path fill="#C63F20" d="M98.737 123.278c-.6 2.336-.294 4.19-.722 6.389-.428 2.198-6.075 18.381-4.42 21.247a6.619 6.619 0 0 0 2.405-.221 2.08 2.08 0 0 0 1.483-1.543c1.209-5.363 3.359-25.738 3.826-27.501 0 0-1.972-.707-2.572 1.629zm7.282-20.05c-.543-.717-1.138-1.564-1.455-2.217-.479-.988-2.149-3.259-3.082-4.498a5.32 5.32 0 0 0-.537-.013c-.106.003-.204.01-.307.014.152.587.107 1.464.671 2.248 3.988 5.544 3.632 16.492 3.928 18.532.163-.052.325-.106.487-.164 3.274-1.173 1.187-5.876.295-13.902z"/><path d="M98.648 141.956l.103-.756.003-.026.105-.777.008-.062.106-.803.003-.024h-3.809a106.608 106.608 0 0 0-.799 3.088l4.16.213.001-.009.1-.718.019-.126zm-5.089 4.544l4.38.225c.159-.961.327-2.067.499-3.269l.001-.006h-4.271a47.853 47.853 0 0 0-.609 3.05z" fill="#F46822"/><path fill="#1E1240" d="M104.903 151.359c.126-.166.271-1.589.315-1.727.161-.509.604-.836 1.143-.979.34-.09 1.854-.327 2.057-.053.181.244-1.145 1.854-.857 2.319.125.202 2.74 1.177 2.74 2.155 0 .457-4.942.453-5.749-.009-.423-.242-.063-1.161.351-1.706zm-12.42-51.236c2.395-1.922 9.415 7.78 11.275 7.78 2.073 0 7.45-8.54 10.635-6.578 3.185 1.962-4.29 12.964-12.075 12.174-6.295-.639-13.002-10.835-9.835-13.376z"/><path fill="#FF6161" d="M113.576 101.553s.807-1.33 1.391-1.386c.584-.056.594.108.594.108s-.164.248.093.471c.258.223 1.202 0 1.202 0s-.137.722-.326.807c-.189.086-.258.189-.258.189s-.086.447-.258.636c-.172.189-1.528.12-1.941 0-.411-.121-.645-.597-.497-.825z"/><path fill="#4CB4D4" d="M96.964 92.747s-.438-1.79-1.726-.965c-1.49.954-1.532 2.173-.317 3.2 0 0 .212-.296.752-.726 0 0 .829-.422 1.052-.7.532-.667.239-.809.239-.809z"/><path fill="#1E1240" d="M96.89 92.57s1.28-.709 1.391-.428c.111.281-.305 1.106-.806 1.468-.501.362-1.461.668-1.802.645 0 0 1.382-1.16 1.217-1.685zm-1.838 58.789c-.126-.166.339-1.589.295-1.727-.161-.509-.604-.836-1.143-.979-.34-.09-1.377-.276-1.58-.002-.181.244.058 1.804-.229 2.268-.125.202-2.74 1.177-2.74 2.155 0 .457 4.942.453 5.749-.009.422-.242.062-1.161-.352-1.706z"/></svg>