<svg xmlns="http://www.w3.org/2000/svg" width="182.83" height="190.667" viewBox="0 0 182.83 190.667"><path fill="#FFF" d="M176.317 24.519c15.734 41.559-29.854 133.138-68.661 151.797s-83.022.096-98.756-41.463 2.97-90.375 41.777-109.034 109.906-42.858 125.64-1.3z"/><path fill="#F7C263" d="M182.83 18.931c0-8.269-17.544-5.198-29.179-16.775-10.847-10.794-30.656 22.445-62.236 22.682-31.58-.237-51.389-33.476-62.236-22.682C17.544 13.733 0 10.661 0 18.931c0 8.269 22.9 9.214 22.9 9.214s-12.373 2.363-8.126 7.239c4.248 4.876 22.531 1.503 22.531 1.503s-8.31 8.033 0 8.978c8.31.945 25.116-8.742 25.116-8.742s-4.986 5.198.923 7.088c3.077.984 10.561-1.427 17.029-3.965-.023.373-.038.749-.038 1.13 0 6.065 2.982 11.225 7.168 13.25l.369 36.183a372.432 372.432 0 0 0-4.315-.58c-4.31-.553-8.572-1.046-12.666-1.769-2.042-.364-4.043-.788-5.914-1.335-1.857-.545-3.62-1.234-4.89-2.074-.63-.416-1.125-.857-1.431-1.268a2.754 2.754 0 0 1-.551-1.225c-.082-.448-.082-1.007.049-1.692.158-.868.376-1.706.656-2.507 1.105-3.211 3.28-5.767 6.275-7.563 1.489-.899 3.163-1.607 4.921-2.134a26.106 26.106 0 0 1 4.044-.856c.224-.029.446-.053.661-.073l.313-.026.143-.009a4.488 4.488 0 0 0 4.351-4.694 4.488 4.488 0 0 0-4.691-4.277l-.33.023-.261.024-.494.054a33.211 33.211 0 0 0-2.789.466 34.828 34.828 0 0 0-3.591.962c-2.362.775-4.681 1.814-6.861 3.207-2.176 1.388-4.205 3.151-5.865 5.255a22.06 22.06 0 0 0-3.724 7.026 24.88 24.88 0 0 0-.887 3.785c-.227 1.443-.264 3.085.112 4.754a10.939 10.939 0 0 0 2.237 4.563c1.048 1.28 2.261 2.215 3.452 2.956 2.403 1.461 4.767 2.226 7.061 2.85 2.298.604 4.547 1.011 6.77 1.348 2.097.312 4.171.559 6.228.782-.372.274-.74.561-1.074.861-.466.418-.929.847-1.38 1.332-.452.474-.895.996-1.316 1.577a10.91 10.91 0 0 0-1.156 1.975 8.407 8.407 0 0 0-.704 2.534 7.423 7.423 0 0 0 .238 2.829c.256.904.665 1.7 1.121 2.372a11.08 11.08 0 0 0 1.472 1.732c1.027.986 2.084 1.716 3.135 2.36 2.072 1.253 4.143 2.157 6.212 2.984l-2.073.641-1.549.476-.776.239c-.256.08-.579.178-.867.281-1.184.42-2.401.933-3.618 1.833a7.652 7.652 0 0 0-1.727 1.752 6.032 6.032 0 0 0-1.044 2.62c-.14.96-.022 1.89.208 2.682.231.799.566 1.481.933 2.09.74 1.215 1.607 2.156 2.497 3.01a26.03 26.03 0 0 0 2.78 2.263 38.21 38.21 0 0 0 2.914 1.873c.494.288.992.565 1.491.834l1.466.77c1.158.6 2.321 1.174 3.485 1.738a.315.315 0 0 1-.026.013c-1.942 1.018-3.891 2.075-5.8 3.296-1.904 1.22-3.792 2.597-5.449 4.381-1.65 1.767-3.03 4.048-3.494 6.628a10.452 10.452 0 0 0 .024 3.93c.254 1.288.744 2.494 1.363 3.574 1.251 2.166 2.952 3.863 4.754 5.304.906.72 1.849 1.373 2.819 1.975.485.301.978.588 1.479.863.511.278.989.528 1.57.795a1.66 1.66 0 0 0 1.426-2.995l-.043-.021a21.915 21.915 0 0 1-1.303-.707c-.44-.256-.875-.526-1.301-.806a26.339 26.339 0 0 1-2.444-1.809c-1.535-1.289-2.891-2.763-3.76-4.38-.876-1.616-1.19-3.333-.824-4.997.353-1.689 1.32-3.251 2.645-4.596 1.327-1.355 2.986-2.519 4.749-3.575 1.739-1.044 3.593-1.988 5.478-2.909l.37 36.312a2.865 2.865 0 0 0 5.728 0l.37-36.312c1.885.921 3.739 1.865 5.478 2.909 1.764 1.056 3.423 2.22 4.749 3.575 1.326 1.345 2.292 2.907 2.645 4.596.366 1.664.052 3.381-.824 4.997-.869 1.617-2.225 3.091-3.76 4.38a26.028 26.028 0 0 1-2.444 1.809c-.426.28-.861.549-1.301.806-.431.251-.908.512-1.303.707l-.045.022a1.66 1.66 0 0 0 1.428 2.993 24.637 24.637 0 0 0 1.57-.795 32.03 32.03 0 0 0 1.479-.863 29.636 29.636 0 0 0 2.819-1.975c1.802-1.441 3.503-3.138 4.754-5.304.619-1.08 1.109-2.286 1.363-3.574.258-1.286.263-2.643.024-3.93-.464-2.58-1.844-4.861-3.494-6.628-1.657-1.785-3.545-3.161-5.449-4.381-1.91-1.221-3.858-2.278-5.8-3.296l-.026-.013a144.883 144.883 0 0 0 3.485-1.738l1.466-.77c.499-.269.997-.546 1.491-.834a38.609 38.609 0 0 0 2.914-1.873 26.152 26.152 0 0 0 2.78-2.263c.89-.853 1.757-1.795 2.497-3.01a8.724 8.724 0 0 0 .933-2.09c.23-.792.348-1.722.208-2.682a6.021 6.021 0 0 0-1.045-2.62 7.69 7.69 0 0 0-1.726-1.752c-1.217-.9-2.434-1.412-3.618-1.833-.289-.103-.611-.201-.867-.281l-.776-.239-1.549-.476-2.073-.641c2.069-.827 4.14-1.731 6.212-2.984 1.051-.644 2.109-1.374 3.135-2.36a11.027 11.027 0 0 0 1.472-1.732 8.251 8.251 0 0 0 1.121-2.372c.259-.9.343-1.898.238-2.829a8.407 8.407 0 0 0-.704-2.534 10.877 10.877 0 0 0-1.156-1.975 15.11 15.11 0 0 0-1.316-1.577 21.183 21.183 0 0 0-1.38-1.332c-.335-.3-.703-.587-1.074-.861a153.96 153.96 0 0 0 6.228-.782c2.223-.337 4.473-.744 6.77-1.348 2.295-.624 4.658-1.389 7.061-2.85 1.191-.74 2.404-1.676 3.452-2.956a10.933 10.933 0 0 0 2.237-4.563c.376-1.669.339-3.31.112-4.754a24.76 24.76 0 0 0-.887-3.785 22.082 22.082 0 0 0-3.724-7.026c-1.66-2.103-3.689-3.866-5.865-5.255-2.18-1.393-4.499-2.432-6.861-3.207a35.084 35.084 0 0 0-3.591-.962 33.988 33.988 0 0 0-1.841-.336 28.938 28.938 0 0 0-.948-.13l-.494-.054-.261-.024-.33-.023a4.489 4.489 0 1 0-.34 8.971l.143.009.313.026a24.343 24.343 0 0 1 2.016.284c.907.167 1.809.384 2.689.645 1.759.527 3.432 1.235 4.921 2.134 2.995 1.796 5.17 4.352 6.275 7.563.28.801.498 1.639.656 2.507.13.685.13 1.245.049 1.692-.085.448-.238.81-.551 1.225-.306.411-.8.852-1.431 1.268-1.27.84-3.033 1.529-4.89 2.074-1.871.547-3.871.972-5.914 1.335-4.095.723-8.356 1.216-12.666 1.769-1.431.186-2.87.375-4.315.58l.371-36.417c3.937-2.175 6.694-7.182 6.694-13.016 0-.381-.015-.756-.038-1.13 6.467 2.538 13.951 4.949 17.029 3.965 5.91-1.89.923-7.088.923-7.088s16.806 9.687 25.116 8.742c8.31-.945 0-8.978 0-8.978s18.283 3.373 22.531-1.503c4.248-4.876-8.126-7.239-8.126-7.239s22.902-.944 22.902-9.213zM77.529 107.488c-.523-.531-.803-1.033-.849-1.303a.964.964 0 0 1-.006-.382c.024-.139.082-.328.199-.564.228-.473.702-1.09 1.304-1.682.293-.299.634-.596.98-.89.314-.265.607-.475.959-.7.69-.437 1.488-.829 2.344-1.174 1.678-.674 3.559-1.176 5.497-1.582l.141 13.871a80.583 80.583 0 0 1-3.269-1.302c-1.889-.812-3.735-1.697-5.301-2.713-.777-.503-1.484-1.047-1.999-1.579zm6.397 26.241a45.318 45.318 0 0 1-1.317-.787 33.517 33.517 0 0 1-2.493-1.704 21.03 21.03 0 0 1-2.195-1.89c-.652-.656-1.227-1.353-1.589-2.002-.376-.653-.463-1.201-.396-1.398a.816.816 0 0 1 .178-.349c.11-.144.303-.33.572-.515.534-.377 1.332-.724 2.191-.993.223-.072.42-.125.681-.199l.781-.216 1.563-.432c2.09-.58 4.185-1.16 6.283-1.763l.149 14.65a135.827 135.827 0 0 1-3.024-1.623l-1.384-.779zm19.04-10.053l.781.216c.261.074.458.127.681.199.859.269 1.657.615 2.191.993.27.185.462.371.572.515.115.148.15.237.178.349.067.198-.021.745-.396 1.398-.362.649-.937 1.346-1.589 2.002a21.167 21.167 0 0 1-2.195 1.89 33.727 33.727 0 0 1-2.493 1.704c-.433.269-.872.531-1.317.787l-1.383.777c-.996.554-2.007 1.092-3.024 1.623l.149-14.65c2.098.603 4.193 1.184 6.283 1.763l1.562.434zm3.657-17.491c-.046.27-.326.773-.849 1.303-.516.532-1.222 1.076-2 1.579-1.566 1.016-3.411 1.9-5.301 2.713a81.472 81.472 0 0 1-3.269 1.302l.141-13.871c1.938.407 3.819.908 5.497 1.582.856.345 1.653.737 2.344 1.174.351.225.645.435.959.7.347.294.687.591.98.89.602.591 1.076 1.209 1.304 1.682.117.236.175.425.199.564a.946.946 0 0 1-.005.382z"/><path fill="#C98624" d="M182.83 18.931c0-8.269-17.544-5.198-29.179-16.775-10.847-10.794-30.656 22.445-62.236 22.682v158.687c.079.007.155.024.236.024a2.864 2.864 0 0 0 2.864-2.835l.37-36.312c1.885.921 3.739 1.865 5.478 2.909 1.764 1.056 3.423 2.22 4.749 3.575 1.326 1.345 2.292 2.907 2.645 4.596.366 1.664.052 3.381-.824 4.997-.869 1.617-2.225 3.091-3.76 4.38a26.028 26.028 0 0 1-2.444 1.809c-.426.28-.861.549-1.301.806-.431.251-.908.512-1.303.707l-.045.022a1.66 1.66 0 0 0 1.428 2.993 24.637 24.637 0 0 0 1.57-.795 32.03 32.03 0 0 0 1.479-.863 29.636 29.636 0 0 0 2.819-1.975c1.802-1.441 3.503-3.138 4.754-5.304.619-1.08 1.109-2.286 1.363-3.574.258-1.286.263-2.643.024-3.93-.464-2.58-1.844-4.861-3.494-6.628-1.657-1.785-3.545-3.161-5.449-4.381-1.91-1.221-3.858-2.278-5.8-3.296l-.026-.013a144.883 144.883 0 0 0 3.485-1.738l1.466-.77c.499-.269.997-.546 1.491-.834a38.609 38.609 0 0 0 2.914-1.873 26.152 26.152 0 0 0 2.78-2.263c.89-.853 1.757-1.795 2.497-3.01a8.724 8.724 0 0 0 .933-2.09c.23-.792.348-1.722.208-2.682a6.021 6.021 0 0 0-1.045-2.62 7.69 7.69 0 0 0-1.726-1.752c-1.217-.9-2.434-1.412-3.618-1.833-.289-.103-.611-.201-.867-.281l-.776-.239-1.549-.476-2.073-.641c2.069-.827 4.14-1.731 6.212-2.984 1.051-.644 2.109-1.374 3.135-2.36a11.027 11.027 0 0 0 1.472-1.732 8.251 8.251 0 0 0 1.121-2.372c.259-.9.343-1.898.238-2.829a8.407 8.407 0 0 0-.704-2.534 10.877 10.877 0 0 0-1.156-1.975 15.11 15.11 0 0 0-1.316-1.577 21.183 21.183 0 0 0-1.38-1.332c-.335-.3-.703-.587-1.074-.861a153.96 153.96 0 0 0 6.228-.782c2.223-.337 4.473-.744 6.77-1.348 2.295-.624 4.658-1.389 7.061-2.85 1.191-.74 2.404-1.676 3.452-2.956a10.933 10.933 0 0 0 2.237-4.563c.376-1.669.339-3.31.112-4.754a24.76 24.76 0 0 0-.887-3.785 22.082 22.082 0 0 0-3.724-7.026c-1.66-2.103-3.689-3.866-5.865-5.255-2.18-1.393-4.499-2.432-6.861-3.207a35.084 35.084 0 0 0-3.591-.962 33.988 33.988 0 0 0-1.841-.336 28.938 28.938 0 0 0-.948-.13l-.494-.054-.261-.024-.33-.023a4.489 4.489 0 1 0-.34 8.971l.143.009.313.026a24.343 24.343 0 0 1 2.016.284c.907.167 1.809.384 2.689.645 1.759.527 3.432 1.235 4.921 2.134 2.995 1.796 5.17 4.352 6.275 7.563.28.801.498 1.639.656 2.507.13.685.13 1.245.049 1.692-.085.448-.238.81-.551 1.225-.306.411-.8.852-1.431 1.268-1.27.84-3.033 1.529-4.89 2.074-1.871.547-3.871.972-5.914 1.335-4.095.723-8.356 1.216-12.666 1.769-1.431.186-2.87.375-4.315.58l.371-36.417c3.937-2.175 6.694-7.182 6.694-13.016 0-.381-.015-.756-.038-1.13 6.467 2.538 13.951 4.949 17.029 3.965 5.91-1.89.923-7.088.923-7.088s16.806 9.687 25.116 8.742c8.31-.945 0-8.978 0-8.978s18.283 3.373 22.531-1.503c4.248-4.876-8.126-7.239-8.126-7.239s22.901-.942 22.901-9.211zm-81.428 104.312l1.563.432.781.216c.261.074.458.127.681.199.859.269 1.657.615 2.191.993.27.185.462.371.572.515.115.148.15.237.178.349.067.198-.021.745-.396 1.398-.362.649-.937 1.346-1.589 2.002a21.167 21.167 0 0 1-2.195 1.89 33.727 33.727 0 0 1-2.493 1.704c-.433.269-.872.531-1.317.787l-1.383.777c-.996.554-2.007 1.092-3.024 1.623l.149-14.65c2.097.605 4.192 1.186 6.282 1.765zm-.559-22.45c.856.345 1.653.737 2.344 1.174.351.225.645.435.959.7.347.294.687.591.98.89.602.591 1.076 1.209 1.304 1.682.117.236.175.425.199.564a.945.945 0 0 1-.006.382c-.046.27-.326.773-.849 1.303-.516.532-1.222 1.076-2 1.579-1.566 1.016-3.411 1.9-5.301 2.713a81.472 81.472 0 0 1-3.269 1.302l.141-13.871c1.939.407 3.82.908 5.498 1.582z"/><path fill="#1E1240" d="M59.044 70.002s.137-2.287-.846-3.568c-.983-1.281-3.376-1.281-5.29.396-1.914 1.677-.725 6.373-1.396 6.861-.671.488.191 1.248 1.152 1.571 1.767.593 5.738.351 7.631-1.791 1.176-1.33-1.251-3.469-1.251-3.469z"/><path fill="#FF6161" d="M64.176 181.337c.659.585 3.333 4.033 4.27 4.121.505.047.918-.014 1.192-.08-.598-.463-1.26-1.56-1.865-2.756-.407-.805-.652-1.869-.655-3.452l-2.925.154a1.327 1.327 0 0 0-1.234 1.081 4.989 4.989 0 0 1-.117.525c.369-.01.927.045 1.334.407z"/><path fill="#1E1240" d="M72.061 186.667c-.35-.325-.976-.707-2.085-1.093a1.202 1.202 0 0 1-.338-.196 3.663 3.663 0 0 1-1.192.08c-.937-.088-3.611-3.536-4.27-4.121-.407-.361-.965-.416-1.334-.406-.197.574-.491 1.607-.325 2.254.24.935.818 3.605.729 4.443l1.17-.007-.015-2.434s.889-.099 1.36.413c.177.192.348.522.492.86a1.9 1.9 0 0 0 1.764 1.139l3.679-.023c.477-.003.713-.586.365-.909z"/><path fill="#FF6161" d="M70.926 111.431c.21.751 2.666 20.569-3.578 69.813-.197 1.552-4.616-.604-5.926-3.393-3.524-7.499-6.052-23.511-2.472-37.936 1.924-7.751.62-16.973 1.144-20.64.466-3.254 1.862-9.608 3.542-12.756 1.172-2.196 6.153.853 7.29 4.912z"/><path fill="#AD263D" d="M71.483 119.05c-2.329 2.828-7.057 9.191-7.087 14.278-.04 6.751.04 18.781 0 22.157-.04 3.375-2.411 5.699-1.554 11.425 1.554 10.386 4.417 15.035 4.506 14.335 4.145-32.691 4.456-52.41 4.135-62.195z"/><path fill="#FF6161" d="M50.275 181.552c.659.585 3.333 4.033 4.27 4.121.505.047.918-.014 1.192-.08-.598-.463-1.259-1.56-1.865-2.756-.407-.805-.652-1.869-.655-3.451l-2.925.154a1.327 1.327 0 0 0-1.234 1.081 5.265 5.265 0 0 1-.117.525c.369-.01.927.045 1.334.406z"/><path fill="#1E1240" d="M58.16 186.882c-.35-.325-.976-.707-2.085-1.093a1.202 1.202 0 0 1-.338-.196 3.663 3.663 0 0 1-1.192.08c-.937-.088-3.611-3.536-4.27-4.121-.407-.361-.965-.416-1.334-.406-.197.574-.491 1.607-.325 2.254.24.935.818 3.605.729 4.443l1.17-.007-.015-2.434s.889-.099 1.36.413c.177.192.348.522.492.86a1.9 1.9 0 0 0 1.764 1.139l3.679-.023c.477-.002.713-.586.365-.909z"/><path fill="#FF6161" d="M63.535 112.416c.138.767.694 20.729-10.215 69.155-.344 1.526-4.538-1.041-5.576-3.942-2.793-7.8-3.783-23.981 1.155-37.999 2.653-7.532 2.234-16.837 3.106-20.437.774-3.194 2.77-9.387 4.742-12.361 1.375-2.074 6.043 1.435 6.788 5.584z"/><path fill="#AD263D" d="M63.363 120.053c-2.588 2.593-7.901 8.477-8.416 13.538-.683 6.716-1.75 18.7-2.112 22.056-.362 3.356-2.943 5.443-2.636 11.224.557 10.487 2.964 15.388 3.119 14.699 7.243-32.146 9.432-51.745 10.045-61.517z"/><path fill="#311E69" d="M56.357 151.593c1.087-3.681-5.445-2.329-10.156-.93a69.787 69.787 0 0 0-.598 5.435c3.266.07 9.529-.356 10.754-4.505z"/><path fill="#FF8F8F" d="M62.742 78.14c4.601 3.285 10.691 11.774 12.817 11.77 3.013-.005 18.342-6.831 19.599-3.611 1.353 3.464-12 10.698-18.793 11.951-9.044 1.667-17.345-15.897-17.804-17.704-.931-3.669 2.435-3.653 4.181-2.406z"/><path fill="#311E69" d="M61.822 87.068c1.603 2.654 3.703 5.594 6.095 7.81.157-3.934-3.942-12.827-3.942-12.827l-2.153 5.017z"/><path fill="#FFCACA" d="M68.541 98.004c-.934-1.837-1.805-3.652-2.372-5.173-.893-3.966-1.873-6.233-1.63-6.974.843-2.567.695-4.346.431-4.836-.223-.413-.921-1.083-.921-1.083-.583-.565-2.491-2.333-3.886-2.982-4.84-2.254-9.722.495-10.018 2.046-.302 1.587 1.934 8.325 2.264 10.118.194 1.055.305 2.175.118 3.238-.105.376-1.087 2.17-2.368 4.429 2.605.689 10.562 2.496 18.382 1.217z"/><path fill="#FF8F8F" d="M68.722 98.362c-1.002-1.958-1.95-3.911-2.553-5.531-.893-3.966-1.873-6.233-1.63-6.974.843-2.567.695-4.346.431-4.836-.223-.413-.921-1.083-.921-1.083-.583-.565-2.491-2.333-3.886-2.982a9.058 9.058 0 0 0-3.161-.827c1.557 1.337 4.413 3.864 5.078 4.972.926 1.543.864 3.98-1.635 4.381-2.499.401-5.381-.216-5.081 1.358.299 1.574 6.778 3.826 7.581 5.801.802 1.975.71 6.788 3.024 9.318 1.308 1.43 3.453 2.357 5.071 2.893-.948-3.476-1.874-5.623-2.318-6.49z"/><path fill="#614CD4" d="M68.722 98.362l-.181-.357c-7.82 1.278-15.777-.528-18.381-1.218-2.346 4.136-5.695 9.832-6.508 11.246-1.524 2.649-2.413 5.652-2.356 8.722.066 3.578 3.167 24.97-3.621 36.041 9.588 1.904 16.35 2.978 22.832 1.995 7.629-1.158 10.921-3.913 11.721-4.145 4.693-32.617-2.041-49.421-3.506-52.284z"/><path fill="#311E69" d="M72.227 150.645c4.693-32.616-2.04-49.42-3.505-52.283l-.181-.357c-2.473.404-4.959.499-7.286.419a95.21 95.21 0 0 0 1.472 7.361c2.345 9.718.123 15.765-2.962 26.256-1.799 6.116-3.004 15.963-3.696 23.114a33.54 33.54 0 0 0 4.436-.364c7.63-1.159 10.922-3.914 11.722-4.146zM52.409 89.119c.033.181.063.363.09.547 2.385-2.411 1.709-9.824 1.709-9.824l-3.179 4.103c.566 2.12 1.214 4.273 1.38 5.174z"/><path fill="#1E1240" d="M63.009 88.999H51.732c-.405 0-.813.328-.912.733l-4.335 17.735c-.099.405.149.733.554.733h11.278c.405 0 .813-.328.912-.733l4.335-17.735c.098-.405-.15-.733-.555-.733z"/><path fill="#FFCACA" d="M54.209 82.169c-2.264 6.117-9.973 15.532-8.871 17.679 1.324 2.58 13.501 1.712 12.565 5.642-.883 3.71-17.931 4.866-20.559-2.678-3.498-10.043 11.974-23.917 13.647-24.887 3.398-1.97 4.077 1.922 3.218 4.244z"/><path fill="#FF6161" d="M55.812 72.144l.761 3.053c.164.669 3.041 2.455 1.235 3.525-.673.399-3.501-1.529-3.373-2.294l-.028-3.685 1.405-.599z"/><path fill="#311E69" d="M56.252 73.908l.321 1.289a.362.362 0 0 0 .023.065c-.511-.109-1.144-.337-1.227-.803-.067-.379.388-.513.883-.551z"/><path fill="#FF8F8F" d="M45.338 99.848c-.929-1.811 4.409-8.792 7.462-14.604-3.141 2.521-9.848 7.972-10.61 9.169-.998 1.569-1.369 3.792.637 5.358.857.669 2.401.966 3.889 1.086-.673-.27-1.166-.595-1.378-1.009z"/><path fill="#FF6161" d="M54.262 70.948c-.475 1.321.136 2.839 1.448 3.341 1.21.463 2.559-.026 3.049-1.574.435-1.376-.331-2.783-.57-3.489-.358-1.056-.95-1.013-1.692.063-.444.643-2.235 1.659-2.235 1.659z"/><path fill="#FF6161" d="M54.348 71.109a2.178 2.178 0 0 1-.157-.438c-.075-.286-.252-.694-.622-.375-.539.465-.058 1.968.68 1.9.547-.05.275-.737.099-1.087z"/><path fill="#FFF" d="M57.072 71.851s.644.057 1.53-.219c0 0 .018.453-.24.671-.312.264-.935.251-1.29-.452z"/><path fill="#AD263D" d="M55.969 73.76c.512.115 1.467.087 1.904-.155.387-.214.814-.828.906-.965-.007.025-.012.051-.02.076-.489 1.548-1.838 2.037-3.049 1.574-.808-.309-1.349-1.005-1.535-1.803.574.794 1.334 1.169 1.794 1.273z"/><path fill="#FFF" d="M54.43 75.856s2.417 2.014 2.82 1.805c.384-.2-.11-1.726-.11-1.726s.945.369 1.26.824l.901 2.018-1.349-.149-1.087.777s-2.747-1.743-2.747-2.329c.001-.588.312-1.22.312-1.22z"/><path fill="#FF8F8F" d="M50.849 105.026c-4.258.736-3.024-.481-6.726-1.975-3.702-1.494-2.345-.364-4.844-1.435-1.143-.49-1.904-1.77-2.394-3.016-.135 1.446-.01 2.864.46 4.212 2.628 7.545 19.675 6.389 20.559 2.678.091-.38.057-.715-.076-1.012-1.5-.282-3.856.008-6.979.548z"/><path fill="#AD263D" d="M93.863 87.329c.752.882 2.961.247 4.553-.868 1.591-1.115 1.408-2.895.399-2.195-1.638 1.136-3.491.623-4.181 1.31-.69.686-1.081 1.388-.771 1.753z"/><path fill="#AD263D" d="M93.536 85.809s.822-1.84 1.932-1.953c1.109-.113 1.222.189 1.8-.14.578-.329.583.496.178.708-.406.212-1.092.109-1.389.386-.298.277.197 2.413-1.089 2.773-1.288.359-1.578-1.187-1.432-1.774z"/><path fill="#FF6161" d="M55.536 104.296c.093-.337 1.169-.645 1.698-.755 1.011-.211 1.497-.687 1.736-1.046.24-.359.538.359.126.84-.412.48-1.414.966-.863 1.031.551.065 2.499-2.424 2.473-1.17-.076 3.751-3.089 4.155-4.798 3.656 0-.001-.947-.477-.372-2.556z"/><path fill="#EAE8FF" d="M115.057 75.836s-5.32 3.221-15.979 19.337c-3.97 6.002-2.524 13.457 4.436 12.37 8.289-1.295 19.914-28.346 11.543-31.707z"/><path fill="#1E1240" d="M120.807 186.78c-.829-1.232-1.057-2.588-1.154-3.701l-4.119-.014s.276 1.414-.422 2.516c-.304.481-1.189.836-2.409 1.345-1.932.984-4.317 2.253-4.402 2.911-.141 1.098 11.22 1.102 13.112.044.989-.554.303-1.751-.606-3.101z"/><path fill="#311E69" d="M112.56 86.404s-4.125 9.401-2.095 12.685c2.031 3.285 4.571.935 4.571.935l-2.476-13.62z"/><path fill="#1E1240" d="M147.565 186.78c-.829-1.232-1.057-2.588-1.154-3.701l-4.119-.014s.276 1.414-.422 2.516c-.304.481-1.189.836-2.409 1.345-1.932.984-4.317 2.253-4.402 2.911-.141 1.098 11.22 1.102 13.112.044.989-.554.302-1.751-.606-3.101z"/><path fill="#1E1240" d="M138.692 149.832c.28-3.936 4.638-19.38 3.039-28.657-.654-3.796-1.236-13.101-1.56-15.862a11.74 11.74 0 0 1-.072-.947c-10.905 1.394-21.659-1.231-24.227-1.924a14.852 14.852 0 0 1-2.424 5.835c-4.687 6.724-5.128 23.078-5.149 34.52-.048 25.598 4.601 40.814 7.061 41.565 2.07.632 1.962.963 4.542.486 7.044-1.304 1.869-30.7 1.461-34.509-.386-3.604 3.106-22.589 3.106-22.589.466 1.787.57 45.088 16.654 57.893 1.578 1.256 6.424.92 6.21-1.555-.784-9.056-8.864-31.116-8.641-34.256z"/><path fill="#FFF" d="M142.825 121.851c-2.828-13.621 2.172-30.47.842-35.8-1.718-6.883-5.593-15.435-22.344-12.913-5.237.789-9.806 3.355-9.704 8.651.1 5.153 1.693 21.378-.895 28.171-2.145 5.632 9.527 11.918 17.056 12.482 7.915.594 15.288.58 15.045-.591z"/><path fill="#EAE8FF" d="M143.666 86.052c-1.385-5.548-4.176-12.176-13.977-13.22 1.257 2.64 3.748 8.453 3.124 11.872-.825 4.526-7.929 27.155-5.298 35.619.242.779.466 1.482.681 2.15 7.755.562 14.866.528 14.627-.622-2.826-13.621 2.174-30.47.843-35.799z"/><path fill="#311E69" d="M122.96 63.965c.678-.842 2.398-2.662 5.755-.335 2.201 1.525.467 7.597-.874 8.262-1.045.518-2.571-3.368-3.194-5.107-.873-.075-1.596-.228-1.781-.521-.542-.862-.365-1.729.094-2.299z"/><path fill="#FF6161" d="M127.721 68.672l1.598 5.55c-.027.795-4.394 2.813-5.604 1.755-.354-.31-.219-1.066.161-1.876l2.248-4.402 1.597-1.027z"/><path fill="#311E69" d="M125.672 70.583c.373-.05.803-.11 1.175-.163.459-.065.818.4.628.822a3.81 3.81 0 0 1-1.118 1.434 3.633 3.633 0 0 1-2.153.781l1.468-2.874z"/><path fill="#FF6161" d="M126.483 66.31l1.156 3.293a2.13 2.13 0 0 1-1.455 2.589c-.884.259-1.46.273-2.601.159-.95-.095-1.456-.994-1.482-2.236-.034-1.612.393-3.106.666-3.893.622-1.794 2.805-2.004 3.716.088z"/><path fill="#FFF" d="M124.375 68.767s-.78.21-1.891.097c0 0-.015.723.428.964.444.242 1.219-.193 1.463-1.061z"/><path fill="#AD263D" d="M123.263 71.124c1.056-.235 1.896 1.354 3.749-.208.346-.291.517-.978.602-1.385l.025.072a2.13 2.13 0 0 1-1.455 2.589c-.884.259-1.46.273-2.601.159-.58-.058-.993-.416-1.234-.968.19.026.591-.188.914-.259z"/><path fill="#311E69" d="M125.511 65.305s.84 1.214.777 1.88c-.063.666-.146.947.077 1.121.222.174.851-.345.822-1.033-.03-.687-.348-2.399-1.676-1.968z"/><path fill="#FF6161" d="M126.745 67.856c.1-.192.169-.397.226-.605.108-.397.361-.961.87-.511.741.655.048 2.736-.976 2.629-.759-.079-.37-1.03-.12-1.513z"/><path fill="#311E69" d="M123.233 65.032s2.832 2.45 3.208 2.389c.376-.061.602-1.774-.117-2.392-.719-.618-3.32-1.31-3.091.003zm18.502 29.723s-4.656 6.956-12.81 9.238c-4.249 1.189-10.926-3.527-16.823-2.608-.137 2.824-.443 5.434-1.018 7.466 2.865 1.411 15.053 7.005 22.079 3.751 8-3.704 8.572-17.847 8.572-17.847z"/><path fill="#EAE8FF" d="M98.146 99.867c2.946-3.435 25.954-3.549 28.691-.056 2.737 3.493-9.57 7.851-21.032 8.681-9.365.677-9.697-6.248-7.659-8.625z"/><path fill="#FFF" d="M136.156 76.35c-2.757-.543-5.909 7.578-5.568 15.606.341 8.028-.699 9.722-5.099 8.767-2.74-.595-19.412-6.867-20.876-2.975-1.191 3.166 18.149 22.763 32.889 8.975 8.461-7.917 5.857-28.954-1.346-30.373z"/><path fill="#FF6161" d="M108.672 96.514s-2.292-.923-4.43-.054-2.228.983-1.46 1.298c.768.315 2.513 1.55 4.747 1.298 2.234-.253 1.143-2.542 1.143-2.542z"/><path fill="#EAE8FF" d="M141.563 83.024c-1.682 3.866-2.658 11.293-3.474 12.933-1.314 2.64-1.619 7.679-3.011 10.219-1.392 2.54-4.985 2.23-8.181 1.029-3.196-1.201-6.688-1.3-10.423-.887-3.735.413-5.941-3.883-8.303-5.427-1.465-.957-2.331-.924-2.779-.761 3.763 5.935 19.594 18.298 32.11 6.59 5.659-5.293 6.368-16.457 4.061-23.696z"/><path fill="#AD263D" d="M125.574 98.927s2.737-.606 3.619-.139c.882.467 2.306 2.326 1.904 2.331-.402.005-1.408-.945-1.408-.945s.742 1.505.73 2.178c-.012.672-1.154.744-1.682.505-.528-.238-4.193-1.726-4.774-2.563-.58-.837 1.611-1.367 1.611-1.367z"/></svg>