<?xml version="1.0" encoding="utf-8"?>
<!-- Generator: Adobe Illustrator 17.0.0, SVG Export Plug-In . SVG Version: 6.00 Build 0)  -->
<!DOCTYPE svg PUBLIC "-//W3C//DTD SVG 1.1//EN" "http://www.w3.org/Graphics/SVG/1.1/DTD/svg11.dtd">
<svg version="1.1" id="Слой_1" xmlns="http://www.w3.org/2000/svg" xmlns:xlink="http://www.w3.org/1999/xlink" x="0px" y="0px"
	 width="569.383px" height="494.277px" viewBox="0 0 569.383 494.277" enable-background="new 0 0 569.383 494.277"
	 xml:space="preserve">
<g>
	<path fill="#E6EBDD" d="M444.709,362.477c-57.542,76.33-276.476,98.52-354.968,49.34S-5.734,260.892,51.808,184.562
		s167.82-98.34,246.312-49.16S502.251,286.147,444.709,362.477z"/>
	<g>
		<g>
			<path fill="#8ACCD5" d="M443.686,347.39c-20.431,26.83-53.79,42.045-84.897,52.611c-38.793,13.176-79.919,19.766-120.761,21.798
				c-37.835,1.882-77.056-0.007-113.574-10.799c-38.187-11.285-69.938-37.984-88.59-73.164
				c-21.386-40.336-21.77-88.827-4.372-130.616c18.454-44.325,55.947-78.913,99.924-97.213c42.777-17.8,92.035-19.52,135.573-3.431
				c20.57,7.602,38.805,19.985,56.738,32.377c18.688,12.913,36.745,26.763,53.904,41.652
				C420.546,217.844,487.969,287.789,443.686,347.39c-0.933,1.255,1.325,1.805,2.046,0.834
				c10.443-14.056,15.748-30.537,14.638-48.07c-1.142-18.029-8.698-35.115-17.928-50.389c-22.94-37.964-58.19-68.52-93.141-95.088
				c-16.912-12.856-34.454-25.059-52.598-36.117c-18.653-11.368-39.535-18.767-61.025-22.462
				c-43.47-7.475-89.129,1.489-127.396,23.076c-39.723,22.408-71.124,59.486-84.751,103.173
				c-12.819,41.095-7.873,86.31,13.953,123.429c19.41,33.011,50.901,56.888,87.468,67.502c35.558,10.322,73.628,12.1,110.426,10.551
				c40.388-1.7,80.966-8.196,119.491-20.564c30.941-9.933,63.158-24.23,85.509-48.596c1.889-2.059,3.661-4.223,5.353-6.446
				C446.679,346.981,444.417,346.43,443.686,347.39z"/>
		</g>
	</g>
	<g>
		<g>
			<g>
				<g>
					<path fill="#FFFFFF" d="M231.776,180.401c-6.934-0.595-13.915-0.582-20.851-1.177c-4.246-0.367-4.174,5.788,0.016,6.146
						c6.934,0.597,13.917,0.581,20.848,1.179C236.036,186.913,235.962,180.761,231.776,180.401z"/>
				</g>
			</g>
		</g>
		<path fill="#BC8074" d="M262.062,219.566c-0.156-16.077-24.568,12.595-28.582,14.692c1.239,3.173,7.94,18.718,7.94,18.718
			S262.218,235.776,262.062,219.566z"/>
		<path fill="#6382AB" d="M210.957,172.551c5.221,0.086,15.543,0.078,19.651,3.506c4.58,3.822,6.299,13.609,7.316,19.231
			c0.874,4.822-4.574,8.803-7.898,12.668c-1.365,1.588-2.885,3.133-4.526,4.548c-3.804,3.278-8.354,7.734-13.321,3.732
			c-4.704-3.791-14.935-32.554-13.992-39.231C199.02,171.123,207.018,172.487,210.957,172.551z"/>
		<path fill="#7DACD1" d="M212.941,188.977c0.754-0.268,1.511-0.52,2.271-0.745c1.757-0.519,3.418-1.239,5.213-1.631
			c1.572-0.342,4.532-1.974,5.321,2.297c0.393,2.131-0.84,2.654-1.98,3.524c-2.639,2.013-5.666,3.171-8.686,3.881
			c-2.223,0.524-4.397,1.657-6.819,1.269c-1.24-0.2-1.806,1.02-2.902-1.321C202.886,190.982,211.155,189.617,212.941,188.977z"/>
		<path fill="#587489" d="M215.053,207.216c2.452-1.148,4.92-2.594,7.225-4.037c0.052-0.033,0.105-0.066,0.157-0.103
			c2.268-1.474,4.892-4.285,7.602-4.702c4.888-0.751,2.991,5.101,1.117,7.11c-2.521,2.705-5.448,4.908-8.109,7.39
			c-2.504,2.333-5.423,4.44-9.129,1.236C210.233,210.93,211.947,208.674,215.053,207.216z"/>
		<path fill="#5B7896" d="M246.929,193.389c0.106-0.213,0.224-0.416,0.354-0.609c1.5-2.248,4.654-1.973,6.564-0.132
			c1.978,1.906,1.134,4.788,1.71,7.21c2.35,9.895,8.495,17.488,18.785,19.514c11.183,2.203,23.271,3.905,34.47,0.899
			c3.082-0.826,7.2-1.877,8.956-4.841c2.162-3.644,2.36-9.544,2.362-13.698c0-0.841-0.542-4.143-0.016-4.896
			c0.744-1.063,2.703-0.66,3.788-1.163c1.392-0.642,1.837-1.959,3.779-1.746c4.785,0.519,2.411,13.392,1.769,16.304
			c-1.072,4.849-2.054,10.369-6.424,13.264c-3.065,2.028-6.673,3.363-10.237,4.197c-15.035,3.521-29.536,2.161-44.297-0.88
			c-4.224-0.869-8.28-2.297-11.433-5.355c-3.682-3.569-6.062-8.363-7.988-13.031C247.069,203.576,244.212,198.795,246.929,193.389z"
			/>
		<path fill="#7198C2" d="M239.208,156.778c8.801-9.649,18.157-18.81,27.51-27.918c25.019-24.364,50.715-48.037,76.508-71.57
			c11.113-10.142,22.265-20.242,33.446-30.31c4.128-3.713,9.21-10.168,14.327-12.336c11.803-5.012,15.575,5.95,19.759,14.492
			c15.111,30.874,29.9,61.933,43.68,93.426c6.518,14.893,12.929,29.89,18.354,45.221c2.603,7.354,9.346,18.002,4.735,25.798
			c-3.224,5.452-10.359,5.369-16.175,6.021c-12.684,1.427-25.521,1.783-38.282,2.108c-34.298,0.886-68.642,0.453-102.954-0.024
			c-17.941-0.249-35.882-0.58-53.825-0.809c-2.498-0.028-30.76,0.302-31.601-1.372c-3.281-6.552-11.51-16.595-11.023-23.902
			C224.023,170.373,236.028,160.266,239.208,156.778z"/>
		<path fill="#7DACD1" d="M247.183,167.172c0.475-0.329,0.951-0.651,1.43-0.971c17.322-11.673,35.064-22.539,52.883-33.153
			c10.595-6.309,21.249-12.508,32.129-18.168c3.476-1.809,28.285-14.698,26.509,2.108c-0.639,6.051-9.398,9.414-12.922,11.125
			c-7.472,3.622-14.869,7.626-22.321,11.504c-12.553,6.534-24.834,14.648-37.55,21.126c-2.492,1.267-4.995,2.473-7.524,3.589
			c-5.836,2.58-11.287,5.82-17.291,7.971c-2.736,0.981-19.829,11.953-22.648,4.031C238.115,171.365,245.402,168.396,247.183,167.172
			z"/>
		<path fill="#688CAB" d="M270.84,181.342c0.907-0.08,1.816-0.158,2.72-0.233c32.92-2.756,65.944-4.578,98.925-6.137
			c19.608-0.928,39.238-1.726,58.86-1.93c6.268-0.065,50.993-0.516,37.778,14.02c-4.764,5.235-19.807,4.307-26.086,4.26
			c-13.304-0.102-26.743,0.178-40.183,0.319c-22.639,0.236-45.871,2.044-68.719,2.153c-4.473,0.021-8.927-0.022-13.362-0.153
			c-10.233-0.306-20.32,0.161-30.536-0.611c-4.658-0.354-36.79,1.867-35.954-6.655C254.815,181.036,267.439,181.647,270.84,181.342z
			"/>
		<g>
			<path fill="#7DACD1" d="M426.051,212.575c-0.662-0.17-1.291-0.368-1.879-0.599c-7.761-3.046-17.242-14.235-21.404-20.689
				c-12.172-18.886-22.167-36.189-30.098-56.929c-8.894-23.261-15.344-39.649-20.425-63.878c-2.74-13.069-3.23-32.675,6.72-42.185
				c8.522-8.148,19.808-16.836,31.032-21.398c-0.502,16.372,6.524,35.395,10.072,51.498c3.938,17.869,8.88,35.563,15.091,52.865
				c6.144,17.105,15.365,34.626,24.427,50.496c5.07,8.876,12.685,13.369,18.874,21.33c4.469,5.75,12.13,24.594,20.671,25.872
				c-7.646-1.144-14.333,2.091-21.758,2.628C449.295,212.17,434.695,214.794,426.051,212.575z"/>
		</g>
		<path fill="#6382AB" d="M401.724,11.518c15.652,2.845,54.375,51.668,70.899,91.996c18.189,44.391,21.921,86.222,14.511,90.796
			c-36.092,22.267-75.635-75.116-84.873-97.882C396.751,82.85,373.33,6.358,401.724,11.518z"/>
		<g>
			<path fill="#41536A" d="M469.079,210.933c-18.317-0.6-35.886-17.058-53.714-50.312c-12.85-23.972-22.528-50.726-26.172-60.798
				c-2.502-6.915-7.289-24.275-10.095-41.219c-1.688-10.192-2.496-19.114-2.397-26.518c0.142-10.555,2.122-18.321,6.061-23.739
				c4.069-5.604,10.137-8.563,17.087-8.336c1.513,0.05,3.081,0.253,4.667,0.604c5.986,1.328,12.43,5.584,20.288,13.396
				c6.226,6.193,13.167,14.544,20.071,24.147c14.79,20.584,27.485,43.91,34.83,63.998c7.83,21.411,13.207,43.998,15.139,63.602
				c0.894,9.045,0.98,16.766,0.262,22.945c-0.682,5.849-2.38,14.072-9.249,17.959C480.506,209.687,474.863,211.123,469.079,210.933z
				 M399.827,22.893c-4.744,8.532-0.602,23.793,0.667,31.574c2.787,17.099,7.475,33.218,9.184,37.946
				c3.826,10.574,12.784,35.337,24.888,57.916c7.589,14.155,16.752,36.248,35.061,39.041c28.237,4.311,12.255-44.794,7.837-60.293
				c-6.785-23.794-17.346-47.067-30.341-70.527c-6.392-11.538-29.131-43.31-44.624-38.909
				C401.123,20.032,400.519,21.653,399.827,22.893z"/>
		</g>
		<path fill="#BC8074" d="M247.695,216.236c0.166-1.188,0.505-2.373,1.408-2.656c1.987-0.623,4.63,3.456,5.238,4.939
			c0.563,1.371,0.208,3.201-0.67,4.378c-0.845,1.134-1.911,2.198-3.272,1.677c-2.941-1.127-3.337-3.369-2.928-6.113
			C247.551,217.936,247.579,217.085,247.695,216.236z"/>
		<g>
			<path fill="#BC8074" d="M247.991,215.342c-0.501-1.181,2.374-4.369,2.734-5.58c0.146-0.494,0.201-1.192,0.771-1.131
				c0.47,0.052,0.995,1.339,1.077,1.712c0.268,1.192-0.612,1.687-0.814,2.712c-0.284,1.422,0.712,1.147,0.65,2.246
				c-0.081,1.471-3.874,1.267-4.41,0.061L247.991,215.342z"/>
			<path fill="#BC8074" d="M251.353,213.34c-0.018-0.402,0.09-0.8,0.238-1.191c0.491-1.327,1.428-2.553-0.531-3.43
				c0.845-0.355,2.187,0.188,2.281,1.195c0.058,0.632-0.494,1.546-0.797,2.082c-0.541,0.958,0.449,3.046-0.884,3.216
				C252.179,215.146,251.361,213.516,251.353,213.34z"/>
		</g>
		<path fill="#BC8074" d="M255.621,208.48c0.944-3.451,4.091-1.688,6.168-0.759l0.012,0.006c1.957,1.005,4.042,2.431,5.4,4.246
			c1.324,1.763,1.268,3.473,1.052,5.6c-2.014-2.929-5.867,2.789-8.087,2.936c-2.25,0.151-2.129-1.339-2.722-3.109
			c-0.473-1.413-1.554-2.238-2.307-3.493c-0.89-1.483-0.307-2.843,0.214-4.522C255.451,209.06,255.545,208.753,255.621,208.48z"/>
		<path fill="#936663" d="M265.906,212.358l0.272,1.222c-1.283,0.284-2.967,2.326-4.453,4.128c-0.599,0.726-1.165,1.412-1.726,2.023
			l-0.925-0.848c0.54-0.585,1.094-1.259,1.682-1.972C262.449,214.857,264.201,212.732,265.906,212.358z"/>
		<path fill="#936663" d="M263.164,210.322l0.252,1.226c-1.176,0.242-2.66,2.19-3.969,3.913c-0.503,0.661-1.021,1.346-1.528,1.939
			l-0.957-0.81c0.482-0.567,0.972-1.21,1.486-1.887C260.031,212.624,261.526,210.659,263.164,210.322z"/>
		<path fill="#936663" d="M260.225,208.386l0.488,1.155c-1.249,0.523-2.305,2.141-3.326,3.703c-0.36,0.55-0.731,1.118-1.106,1.634
			l-1.014-0.739c0.358-0.489,0.702-1.019,1.068-1.578C257.461,210.839,258.625,209.057,260.225,208.386z"/>
		<path fill="#E3B45B" d="M561.035,33.712c-5.587-1.192-51.648,11.785-50.966,19.746c0.081,0.941,2.365,3.13,5.274,5.556
			c0.004,0.002,0.008,0.006,0.008,0.006c3.789,3.156,7.766,6.061,11.741,8.971c-5.076-3.714-31.512,0.4-36.138,3.16
			c-5.156,3.076-15.734,10.27-3.428,11.256c6.442,0.517,57.279,2.822,58.587-7.622c0.286-2.247-5.682-15.305-7.515-14.938
			c6.751-1.355,23.664-5.44,28.545-10.116C572.62,44.484,567.067,34.996,561.035,33.712z"/>
		<path fill="#E3B45B" d="M481.416,115.764c-0.184,0.794,1.014,3.145,2.635,5.846c0.002,0.001,0.005,0.006,0.007,0.008
			c2.114,3.507,4.442,6.856,6.765,10.209c-2.965-4.277-24.724-7.193-29.076-6.016c-4.856,1.31-15.048,4.727-5.695,8.479
			c4.894,1.962,43.992,16,47.817,7.692c0.822-1.791-0.342-13.999-1.871-14.132c5.641,0.493,19.946,1.154,25.012-1.541
			c5.688-3.028,3.89-12.187-0.478-14.689C522.488,109.303,483.02,109.025,481.416,115.764z"/>
		<path fill="#E3B45B" d="M475.585,53.65c-0.39-1.746-8.451-9.845-9.752-9.077c4.786-2.826,16.579-10.421,19.041-15.212
			c2.766-5.376-4.022-10.93-8.967-10.26c-4.579,0.619-36.206,22.68-33.544,28.413c0.316,0.678,2.644,1.688,5.518,2.709
			c0.004,0.002,0.004,0.002,0.006,0.001c3.74,1.324,7.553,2.411,11.366,3.503c-4.869-1.392-23.92,8.791-26.703,12.09
			c-3.104,3.676-9.231,11.873,0.42,9.287C438.015,73.754,477.392,61.767,475.585,53.65z"/>
		<path fill="#EDEBEB" d="M231.254,236.663c-1.176,0-1.176,1.822,0,1.822C232.43,238.485,232.43,236.663,231.254,236.663z"/>
		<path fill="#BC8074" d="M206.68,233.75c-1.921-0.941-3.826-1.968-5.73-3.098c-1.916-1.138-5.635-4.375-8.082-3.65
			c-6.007,1.778-3.754,17.38-2.325,21.062c3.025,7.793,12.932,11.67,20.706,12.276c6.67,0.519,15.377,1.609,21.3-2.682
			c3.525-2.552,4.746-8.295,4.909-12.353c0.159-3.937-0.824-6.828-3.075-9.838C225.387,239.457,215.313,237.982,206.68,233.75z"/>
		<path fill="#BC8074" d="M241.766,229.612c-0.803-0.743-1.373-1.288-1.557-1.495c-4.751,5.063-17.61,11.22-24.82,9
			c0.172,7.949-0.285,24.337,12.32,22.747c8.555-1.079,16.8-8.144,21.55-14.909c1.611-2.297,2.789-4.179,3.71-5.854
			C252.749,239.473,245.167,232.764,241.766,229.612z"/>
		<path fill="#B0796F" d="M255.218,230.122c-1.107,1.478-1.914,3.292-2.989,4.767c-6.61,9.073-19.857,20.738-31.786,19.44
			c-6.004-0.653-11.545,0.803-16.895-2.215c-0.785,1.357-1.347,2.995-1.672,4.518c4.324,2.857,10.874,3.457,15.944,3.461
			c7.421,0.007,15.86-1.652,21.804-6.44c4.12-3.318,7.035-6.546,10.595-10.276c2.837-2.972,11.343-11.307,8.02-15.659
			C256.944,228.187,256.005,229.069,255.218,230.122z"/>
		<path fill="#A5867E" d="M115.279,474.071l-0.555-0.292C114.911,473.892,115.097,473.987,115.279,474.071z"/>
		<path fill="#C2897C" d="M124.128,401.518c-8.996,5.349-12.933,16.427-14.606,26.785c-0.439,2.706-0.721,5.363-0.9,7.858
			c-0.739,10.319-0.861,21.495,0.636,31.746c0.512,3.514,0.547,7.371,3.194,9.772c2.256,2.045,4.483,5.57,6.881,1.876
			c0.826-1.273,0.554-5.841,0.978-7.464c2.355-9.053,5.147-17.621,8.236-26.509c3.293-9.479,6.54-18.98,9.165-28.662
			c1.214-4.49,4.754-11.652,2.376-16.199C137.191,395.184,128.2,399.095,124.128,401.518z"/>
		<path fill="#C2897C" d="M182.143,397.271c-29.318-2.382-11.383,53.887-7.731,68.423c0.763,3.044,1.27,6.331,3.191,8.898
			c2.064,2.757,5.632,3.888,7.65,6.701c-0.064-0.091,6.108-57.599,6.164-67.692C191.453,406.911,190.687,397.965,182.143,397.271z"
			/>
		<path fill="#161F26" d="M178.805,487.513c0.231-1.475,0.638-3.587,0.725-3.904c-1.716,0.009-5.387-0.867-5.339-2.81
			c-0.002,0.06-0.004,0.12-0.006,0.18c0,0.092-0.014,0.169-0.034,0.237c-0.504,1.825,0.477,4.951,1.458,6.563
			c0.662,1.091,1.808,1.148,3.058,1.189C178.601,488.965,178.677,488.339,178.805,487.513z"/>
		<path fill="#161F26" d="M194.122,489.087c-1.077-0.285-2.077,0.304-3.16,0.244c-2.652-0.146-4.608-1.744-6.696-3.106
			c-0.72-0.47-1.457-0.911-2.243-1.256c0.9,4.445,4.059,7.546,8.777,7.593c1.063,0.011,5.291-0.152,5.514-1.589
			C196.434,490.181,194.745,489.253,194.122,489.087z"/>
		<path fill="#C2897C" d="M191.352,485.9c-1.134-1.285-2.324-2.395-3.071-3.991c-2.403-5.137-2.735-12.409-1.743-17.969
			c0.922-5.153,0.656-10.9,1.015-16.151c0.073-1.085-0.159-2.075-0.94-2.81c-1.919-1.809-11.252,0.575-12.94,2.494
			c-3.199,3.628-1.3,9.679-0.572,13.61c0.528,2.874,1.111,16.495,3.288,18.942c1.539,1.732,3.74,2.816,5.712,3.955
			c0.932,0.539,1.43,1.156,2.208,1.824c1.001,0.858,2.366,1.077,3.566,1.517c1.035,0.38,2.696,1.323,3.854,1.055
			C193.333,488.003,191.947,486.573,191.352,485.9z"/>
		<path fill="#273032" d="M192.858,486.838c-0.762-0.706-1.964-2.084-2.998-2.329c0.287,0.782,1.348,1.648,1.202,2.482
			c-1.833-0.114-3.647-1.089-5.21-1.983c-1.39-0.796-2.618-1.801-3.866-2.803c-0.614-0.492-7.598-5.926-7.054-6.528
			c-1.944,1.994-1.548,6.246,0.776,7.868c1.576,1.098,3.218,1.077,4.904,1.652c1.662,0.566,2.69,2.077,3.998,3.142
			c1.45,1.181,3.184,1.834,5.022,2.117c0.533,0.083,6.533,0.401,6.425,0.151C195.452,489.21,194.074,487.964,192.858,486.838z"/>
		<path fill="#161F26" d="M107.344,479.906c-0.011,0.06-0.023,0.119-0.036,0.177c-0.016,0.091-0.041,0.165-0.071,0.23
			c-0.802,1.731-0.36,4.976,0.335,6.721c0.471,1.18,1.591,1.408,2.813,1.638c-0.066-0.011,0.111-0.622,0.377-1.419
			c0.476-1.427,1.228-3.456,1.368-3.758C110.439,483.244,106.972,481.824,107.344,479.906z"/>
		<path fill="#161F26" d="M122.422,490.885c-2.584-0.544-4.242-2.423-6.07-4.086c-0.63-0.575-1.281-1.122-1.996-1.582
			c0.142,4.538,2.732,8.085,7.367,8.842c1.045,0.169,5.234,0.647,5.691-0.744c0.252-0.766-1.255-1.939-1.84-2.197
			C124.563,490.674,123.48,491.106,122.422,490.885z"/>
		<path fill="#C2897C" d="M111.531,447.507c-2.212,2.456-2.846,7.986-3.004,12.686c-0.072,2.177-0.044,4.176-0.022,5.611
			c0.054,3.656-0.804,10.584,1.134,13.667c1.224,1.947,3.208,3.351,4.96,4.777c0.826,0.672,1.213,1.359,1.866,2.138
			c0.842,1.002,2.148,1.423,3.254,2.04c0.958,0.533,2.435,1.717,3.62,1.626c1.642-0.128,0.515-1.751,0.044-2.508
			c-0.902-1.443-1.889-2.723-2.356-4.416c-1.504-5.451-0.616-12.704,1.292-18.061c1.768-4.966,2.469-10.696,3.699-15.845
			c0.255-1.063,0.193-2.078-0.453-2.925C123.346,443.386,113.716,445.08,111.531,447.507z"/>
		<path fill="#273032" d="M122.144,485.942c0.151,0.816,1.054,1.835,0.767,2.639c-1.785-0.388-3.405-1.627-4.795-2.749
			c-1.234-0.998-2.274-2.178-3.336-3.359c-0.521-0.58-6.484-7.014-5.848-7.527c-2.248,1.681-2.57,5.954-0.554,7.911
			c1.368,1.325,2.986,1.551,4.55,2.374c1.54,0.811,2.3,2.463,3.411,3.716c1.229,1.386,2.826,2.295,4.587,2.854
			c0.51,0.161,6.361,1.38,6.297,1.116c-0.361-1.477-1.509-2.918-2.517-4.215C124.074,487.886,123.12,486.341,122.144,485.942z"/>
		<path fill="#273032" d="M161.62,267.596c-3.801-0.498-9.147-4.133-12.837-3.123c-1.922,0.528-6.994,6.375-8.443,7.902
			c-8.175,8.614-17.316,24.427-22.162,35.816c-6.986,16.419-8.604,34.607-13.468,51.661c-3.205,11.243-11.706,37.74,1.497,45.319
			c12.491,7.17,30.432,10.08,44.595,10.953c13.168,0.811,41.879,2.406,50.566-10.041c4.853-6.955,1.272-17.349,0.218-24.946
			c-1.806-13.018-3.104-26.183-4.246-39.277c-2.008-23.072-4.774-46.201-11.707-68.385
			C181.881,261.463,170.774,268.793,161.62,267.596z"/>
		<path fill="#273032" d="M155.016,276.678c-0.08,5.276-5.186,9.557-10.239,9.752c-2.728,0.105-2.372,4.321,0.348,4.217
			c7.532-0.29,13.993-6.797,14.109-14.315C159.274,273.604,155.057,273.975,155.016,276.678z"/>
		<path fill="#EBB85C" d="M181.013,216.053c-5.176,2.979-8.21,8.643-10.335,13.833c-2.61,6.376,0.538,6.995,4.616,12.173
			c0.004,0.005,0.009,0.01,0.011,0.016c4.141,5.272,8.898,10.037,14.17,14.177c7.197-5.57,14.475-11.042,21.431-16.884
			c-3.025-2.859-6.839-9.482-11.307-15.15C194.26,217.447,187.991,212.039,181.013,216.053z"/>
		<path fill="#D99E49" d="M203.43,245.563c-3.746,2.103-7.236,4.643-10.941,6.835c-3.042,1.794-7.5,3.175-9.918,5.893
			c1.265,1.659,2.574,3.283,3.969,4.843c3.58-1.695,23.453-15.984,24.403-16.537c-1.179-1.279-2.351-2.566-3.248-4.02
			C206.305,243.158,204.724,244.837,203.43,245.563z"/>
		<path fill="#B97D71" d="M182.819,193.891c-2.479,0.939-5.388,0.294-7.774-0.709c-2.842-1.196-4.494-3.444-7.03-4.941
			c1.93,1.139-2.418,12.362-3.007,14.042c-2.344,6.693-3.769,11.003-11.39,12.086c0.287,6.912,4.9,11.595,10.597,15.353
			c5.384,3.553,13.231,5.336,18.197,0.101c4.383-4.619,3.177-8.477,1.44-12.627c-1.276-3.053-2.843-6.263-2.682-10.051
			C181.367,202.597,181.831,198.354,182.819,193.891z"/>
		<path fill="#AA7470" d="M172.008,201.418c-0.364-0.141-0.724-0.298-1.076-0.471c-2.914-1.435-5.098-3.955-7.562-5.998
			c-0.013,0.096-0.028,0.194-0.042,0.292c-0.464,3.084,1.209,5.857-0.101,9.033c-1.177,2.859-3.519,6.43-5.613,8.702
			c2.129,3.62,5.824,1.242,7.973-1.002c2.769-2.892,2.679-5.262,7.031-4.345c2.505,0.528,7.628-0.232,7.51-3.789
			C180.11,203.331,172.634,201.662,172.008,201.418z"/>
		<path fill="#2B3735" d="M182.267,175.781c-2.41-2.345-5.498-4.952-9.026-5.151c-5.148-0.286-4.316,2.827-3.493,6.512
			c0.584,2.614,1.471,5.855,0.095,8.366c-0.81,1.48-2.426,2.119-3.365,3.442c-3.658,5.152,4.615,7.784,7.678,9.757
			c2.209,1.424,3.339,2.8,6.259,2.705c2.524-0.082,5.136-1.207,6.552-3.371c2.608-3.99,0.534-10.288-0.469-14.506
			C185.843,180.782,184.311,177.773,182.267,175.781z"/>
		<path fill="#DA957A" d="M177.746,176.519c-1.025-0.368-2.18-0.548-3.477-0.496c-12.871,0.523-15.895,18.409-5.508,25.659
			c1.466,1.02,3.042,2.081,4.57,2.991c2.94,1.749,6.698,2.401,8.66-1.202c1.496-2.751,2.311-5.772,2.632-8.977
			C185.295,187.787,183.887,178.736,177.746,176.519z"/>
		<path fill="#4A3F42" d="M170.512,185.781c-0.7,0.16-2.191,0.316-2.169,1.37c-0.003-0.033,0.168-0.059,0.435-0.081
			c0.81-0.063,2.492-0.075,2.666-0.093c1.076-0.113,1.146-1.05,0.982-2.01C171.769,185.277,171.224,185.617,170.512,185.781z"/>
		<path fill="#4A3F42" d="M180.677,184.252c-0.178,0.022-2.187,0.352-2.226,0.191c0.189,0.789,0.401,1.367,0.974,1.471
			c0.194,0.036,0.427,0.018,0.714-0.065c0.167-0.048,2.207-0.983,2.242-0.796C182.177,183.929,181.588,184.142,180.677,184.252z"/>
		<path fill="#CD8975" d="M178.591,191.123c-0.246-0.216-0.484-0.45-0.614-0.73c-0.4-0.856-0.458-1.866-0.902-2.685
			c-1.616,0.057-0.72,4.254-0.128,4.97c0.785,0.946,3.206,1.074,2.435-0.721C179.259,191.664,178.918,191.411,178.591,191.123z"/>
		<path fill="#EEDDD5" d="M173.168,190.333l0.062,0.004c-0.048-0.004-0.096-0.012-0.142-0.021L173.168,190.333z"/>
		<path fill="#4A3F42" d="M182.411,188.186c0.291,0.788,0.258,1.411-0.094,1.753c-0.322,0.316-0.905,0.386-1.449,0.168
			c-0.573-0.226-0.926-0.696-0.949-1.261l-0.642,0.028c0.034,0.826,0.538,1.507,1.352,1.831c0.777,0.308,1.638,0.185,2.139-0.306
			c0.314-0.305,0.763-1.031,0.243-2.437L182.411,188.186z"/>
		<path fill="#4A3F42" d="M172.69,188.993c0.34,1.185,0.224,2.09-0.328,2.551c-0.504,0.425-1.364,0.459-2.138,0.084
			c-0.806-0.394-1.272-1.12-1.243-1.945l-0.943-0.03c-0.039,1.205,0.622,2.26,1.774,2.821c1.1,0.535,2.366,0.451,3.154-0.209
			c0.494-0.412,1.231-1.422,0.628-3.53L172.69,188.993z"/>
		<path fill="#DB7D6E" d="M172.072,194.38c-0.652-1.22-4.24-1.02-3.275,1.09c0.768,1.681,4.405,0.763,3.297-1.053
			C172.162,194.565,172.104,194.448,172.072,194.38z"/>
		<path fill="#DB7D6E" d="M183.344,192.345c-0.471-0.884-3.07-0.739-2.373,0.792c0.557,1.218,3.192,0.552,2.389-0.764
			C183.41,192.481,183.369,192.395,183.344,192.345z"/>
		<path fill="#7A686E" d="M168.476,175.268l0.035-0.026L168.476,175.268z"/>
		<path fill="#7A686E" d="M159.479,185.796l-0.035,0.046L159.479,185.796z"/>
		<path fill="#739BC3" d="M162.357,212.156l0.005,0.01L162.357,212.156z"/>
		<path fill="#EBB85C" d="M156.72,224.139c0.336-3.482,0.79-7.063-1.112-9.432c-1.646-2.05-8.448-1.221-10.593-0.884
			c-10.759,1.69-16.559,10.343-18.093,20.554c-1.162,7.743-0.145,24.269,9.414,27.144c4.417,1.329,9.681-4.792,13.536-6.278
			c2.526-0.972,5.012-2.044,7.446-3.224c1.723-0.833,3.391-1.704,5.178-2.706c2.632-1.474-4.792-16.484-5.545-18.701
			C156.323,228.761,156.495,226.473,156.72,224.139z"/>
		<path fill="#EBB85C" d="M191.731,219.63c-0.459-0.932-1.225-1.596-2.139-2.098c-1.541-0.843-3.498-1.226-5.114-1.659
			c-0.307-0.084-0.6-0.202-0.868-0.347c-1.935,4.145-6.921,6.636-11.523,6.704c-0.504,0.007-0.99-0.083-1.425-0.257
			c-0.915,0.028-1.833-0.011-2.745-0.106c-0.37-0.038-0.708-0.161-1.009-0.339c-1.513-0.002-2.885-0.624-3.961-1.582
			c-1.547-0.194-2.996-0.891-4.07-1.964c-0.85-0.856-1.414-1.857-1.698-3.007c-0.014-0.155-0.03-0.31-0.044-0.466
			c-2.708-0.832-5.57-1.358-7.322,0.044c-3.574,2.865-2.555,9.83-3.266,13.645c-1.318,7.068-0.16,14.186-1.957,21.231
			c0,0.001,0,0.004-0.003,0.01c-1.225,4.721-1.208,13.317,2.586,17.045c5.986,5.877,15.869,5.591,23.463,3.845
			c9.04-2.078,13.714-4.687,15.717-13.907c0.892-4.099,1.977-7.413,4.728-10.818c4.77-5.9,2.113-12.159,1.361-18.681
			C192.176,224.588,192.807,221.821,191.731,219.63z"/>
		<path fill="#CE8A76" d="M173.595,196.007c-0.166,0.03-0.234,0.843-0.202,0.843l0.09-0.021
			C173.668,196.738,173.868,195.962,173.595,196.007z"/>
		<path fill="#D99E49" d="M181.127,217.29c-1.415,1.464-2.896,2.349-4.774,2.871c-3.572,0.991-7.616,0.557-11.157-0.485
			c-1.533-0.453-3.044-1.419-4.136-2.59c-0.3-0.32-2.486-4.023-2.498-4.018c-0.836,0.246-1.626,0.619-2.47,0.87
			c0.062,0.552,0.318,1.208,0.437,1.623c0.364,1.27,1.013,2.553,2.048,3.754c1.729,2.01,4.474,3.692,7.744,4.595
			c6.985,1.927,14.619,0.859,18.36-6.08c0.259-0.482,0.499-0.993,0.719-1.534c-0.926-0.263-1.834-0.594-2.749-0.95
			C181.992,215.854,181.877,216.512,181.127,217.29z"/>
		<path fill="#DFAA55" d="M176.923,261.038c-3.328,3.093-7.436,4.854-11.883,5.576c-0.298,0.049-1.182,0.193-2.351,0.381
			c-3.665,0.592-10.138,1.619-10.23,1.509c3.834,4.694,16.287,1.459,21.379,0.451c7.868-1.558,10.762-4.004,11.95-12.388
			c0.189-1.335,1.562-9.484,2.805-9.721c-1.08,0.204-2.006,0.611-2.818,1.162C181.325,251.033,180.777,257.456,176.923,261.038z"/>
		<path fill="#DFAA55" d="M157.162,250.853c0.266-0.032,0.539-0.037,0.816-0.015c-0.572-0.046-0.05-0.052,0.264-0.066
			c0.158-0.042,0.551-0.131,0.633-0.161c0.325-0.117,0.652-0.242,0.967-0.386c0.084-0.038,0.881-0.434,0.638-0.304
			c0.509-0.268,1.016-0.547,1.526-0.818c-0.431-3.09-2.724-8.162-0.202-10.23c0.088-0.071,0.178-0.136,0.268-0.197
			c-3.058-1.029-6.145-1.938-9.299-2.148c0.307,0.895,0.76,1.877,1.173,2.986C154.318,240.514,156.558,247.101,157.162,250.853z"/>
		<path fill="#CE8A77" d="M177.775,176.189c-3.347-0.824-6.954,0.648-9.402,2.909c-1.884,1.74-3.464,3.939-4.368,6.349
			c-0.564,1.5-0.922,3.091,0.062,4.52c0.662-0.829,0.609-2.205,0.932-3.196c0.434-1.322,1.041-3.195,1.942-4.263
			c1.514-1.794,4.276-2.039,6.242-3.2c1.056-0.623,1.725-1.962,3.084-1.986c1.026-0.02,2.331,0.83,3.247,1.28
			c1.589,0.779,3.193,2.246,3.835,3.935c-0.042-0.109-0.084-0.218-0.126-0.327C182.201,179.612,180.697,176.908,177.775,176.189z"/>
		<path fill="#354241" d="M171.388,170.499c-2.616-1.26-5.954-1.174-8.422-0.015c-4.529,2.126-6.426,3.319-11.591,2.659
			c-3.671-0.468-7.762-0.792-10.229,2.436c-2.344,3.063-0.75,7.531-4.754,9.234c-3.622,1.541-9.236-0.671-13.328,1.037
			c-7.399,3.092-12.369,14.481-7.719,21.97c3.69,5.939,8.815,0.642,13.409,3.78c3.648,2.491,5.369,7.339,10.607,4.717
			c3.52-1.763,6.1-5.254,10.48-4.389c4.367,0.862,6.263,5.74,10.59,2.415c2.666-2.047,5.824-7.32,6.57-10.605
			c0.974-4.296-2.714-9.17-2.902-13.489c-0.15-3.473,0.79-7.007,3.168-9.555c1.806-1.934,9.562-2.973,7.41-7.083
			C173.929,172.181,172.758,171.156,171.388,170.499z"/>
		<path fill="#DA957A" d="M162.348,189.563c-2.547,0.372-2.071,4.471-0.08,5.294c0.094,0.039,0.358,0.045,0.694,0.038
			c0.948-0.019,2.48-0.136,2.538,0.079C165.075,193.389,164.91,189.188,162.348,189.563z"/>
		<path fill="#B47A6C" d="M162.077,191.936c-0.055,0.708,0.027,1.835,1.065,1.331c-0.088-0.562-0.231-1.127-0.353-1.686
			L162.077,191.936z"/>
		<path fill="#2B3735" d="M158.144,198.737c-3.112,1.689-4.998,4.666-8.644,1.882c-1.716-1.309-3.107-3.455-5.15-4.265
			c-2.486-0.983-5.719,0.178-7.749,1.655c-1.72,1.25-3.185,3.707-5.527,3.434c-0.092-0.011-0.179-0.025-0.266-0.041
			c-2.798-0.522-4.022-3.948-6.07-5.444c-2.835-2.073-7.523,0.353-8.936,3.119c-2.568,5.012,0.402,11.363,6.444,10.717
			c2.534-0.271,5.114-0.027,7.501,0.887c2.433,0.932,3.257,2.752,5.052,3.838c3.265,1.979,6.184-1.124,9.057-2.706
			c1.783-0.982,4.212-2.279,6.304-2.052c3.141,0.339,5.442,2.783,8.631,1.896c3.399-0.946,7.387-7.079,7.719-10.418
			C166.975,196.562,161.05,197.161,158.144,198.737z"/>
		<path fill="#EDEBEC" d="M145.091,264.317c-0.449,0.806-1.066,1.513-1.655,2.221c-0.61,0.731,0.523,1.675,1.132,0.944
			c0.673-0.808,1.344-1.619,1.858-2.539C146.891,264.109,145.553,263.493,145.091,264.317z"/>
		<path fill="#BC8074" d="M181.2,259.569c-4.809,2.49-9.752,1.944-14.458-0.451c-4.328-2.204-6.382-6.218-9.845-9.407
			c-3.054,1.976-6.216,3.942-9.451,5.677c-2.422,1.3-4.988,2.267-7.54,3.275c-2.88,1.137-4.41,1.314-3.094,4.594
			c1.478,3.671,5.102,8.117,7.776,11.004c1.375,1.483,3.185,2.927,5.093,4.235c1.891,1.294,3.88,2.456,5.641,3.391
			c6.342,3.364,13.542,4.006,20.569,3.007c10.917-1.55,20.287-7.749,26.187-17.034c2.622-4.126,6.474-9.697,8.051-14.332
			c0.755-2.226,2.005-6.304,3.189-13.78c0.174-1.101-14.309-0.52-13.935-1.058c-2.323,3.332-4.258,6.939-6.76,10.199
			C189.435,253.044,185.928,257.121,181.2,259.569z"/>
		<path fill="#D99E49" d="M144.199,254.372c-3.422,1.535-8.085,2.423-11.171,5.052c0.743,1.98,1.534,3.931,2.432,5.824
			c3.91-1.353,26.994-14.173,28.06-14.645c-0.765-1.557-1.525-3.122-1.971-4.83c-1.495,0.441-3.487,2.052-4.929,2.665
			C152.435,250.209,148.369,252.497,144.199,254.372z"/>
		<path fill="#B0796F" d="M171.264,266.254c2.806,0.088,8.544,0.073,9.188-3.642c-0.053,0.302-8.364,0.228-9.145,0.077
			c-0.476-0.09-0.941-0.224-1.397-0.39c-2.37-0.865-4.504-2.643-6.361-4.287c-0.457-0.404-3.263-4.037-3.441-4.028
			c-1.581,0.082-2.644,1.393-4.226,1.783C155.347,263.018,165.804,266.079,171.264,266.254z"/>
		<path fill="#4D5958" d="M116.865,195.337c-0.504,0.925-0.89,1.841-0.824,2.916c0.058,0.949,1.528,0.813,1.468-0.134
			c-0.048-0.799,0.322-1.474,0.69-2.156C118.654,195.124,117.315,194.505,116.865,195.337z"/>
		<path fill="#4D5958" d="M127.205,188.629c-1.053-0.145-2.101-0.082-3.157,0.014c-0.947,0.085-0.812,1.553,0.134,1.468
			c0.924-0.084,1.838-0.158,2.761-0.032C127.884,190.209,128.147,188.758,127.205,188.629z"/>
		<path fill="#4D5958" d="M139.992,186.307c-1.089,1-2.443,1.575-3.909,1.735c-0.945,0.102-0.812,1.571,0.134,1.468
			c1.7-0.184,3.363-0.837,4.632-2.003C141.541,186.874,140.694,185.664,139.992,186.307z"/>
		<path fill="#4D5958" d="M146.44,177.449c-0.421,0.518-0.705,1.098-0.947,1.716c-0.146,0.374-0.027,0.801,0.355,0.98
			c0.343,0.162,0.833,0.019,0.98-0.355c0.197-0.502,0.403-0.976,0.745-1.397C148.171,177.654,147.038,176.709,146.44,177.449z"/>
		<path fill="#4D5958" d="M162.082,174.184c-0.837,0.484-1.834,0.559-2.776,0.645c-0.946,0.087-0.813,1.554,0.134,1.468
			c1.228-0.112,2.416-0.287,3.497-0.912C163.761,174.909,162.898,173.712,162.082,174.184z"/>
		<path fill="#4D5958" d="M166.958,172.16l-0.489,0.044c-0.399,0.037-0.703,0.401-0.667,0.801c0.036,0.4,0.4,0.704,0.801,0.668
			l0.489-0.045c0.401-0.036,0.704-0.401,0.667-0.801C167.722,172.427,167.358,172.123,166.958,172.16z"/>
		<path fill="#4D5958" d="M122.493,205.415c-0.686-0.281-1.161-0.703-1.248-1.468c-0.105-0.943-1.575-0.812-1.468,0.134
			c0.143,1.268,0.922,2.189,2.091,2.67C122.746,207.11,123.372,205.776,122.493,205.415z"/>
		<path fill="#4D5958" d="M133.146,208.412c-0.594-0.735-1.798,0.115-1.201,0.856c0.631,0.779,1.277,1.536,2.043,2.185
			c0.724,0.616,1.668-0.518,0.942-1.132C134.26,209.75,133.698,209.096,133.146,208.412z"/>
		<path fill="#4D5958" d="M148.627,207.158c-1.206-0.15-2.474,0.143-3.452,0.882c-0.756,0.573,0.096,1.776,0.858,1.2
			c0.658-0.498,1.51-0.732,2.332-0.631C149.307,208.727,149.571,207.276,148.627,207.158z"/>
		<path fill="#4D5958" d="M157.872,208.234c-0.417,0.465-0.916,0.51-1.409,0.129c-0.749-0.582-1.695,0.549-0.945,1.133
			c1.14,0.883,2.524,0.757,3.487-0.317C159.64,208.469,158.506,207.528,157.872,208.234z"/>
		<path fill="#4D5958" d="M161.754,201.745c0.012,0.155,0.025,0.307,0.027,0.463c-0.007-0.027-0.023,0.163-0.029,0.19
			c-0.024,0.119-0.03,0.122-0.066,0.212c-0.142,0.377-0.03,0.8,0.354,0.981c0.343,0.161,0.838,0.021,0.981-0.355
			c0.206-0.546,0.253-1.047,0.201-1.625C163.135,200.664,161.668,200.797,161.754,201.745z"/>
		<path fill="#4D5958" d="M126.058,196.629c-0.796,0.348-1.59,0.71-2.176,1.374c-0.63,0.714,0.504,1.656,1.134,0.944
			c0.41-0.463,1.01-0.697,1.561-0.939C127.444,197.629,126.93,196.246,126.058,196.629z"/>
		<path fill="#4D5958" d="M140.221,195.561c-1.552,0.156-3.075,0.513-4.627,0.667c-0.947,0.095-0.815,1.563,0.133,1.468
			c1.552-0.154,3.074-0.51,4.628-0.667C141.299,196.934,141.166,195.465,140.221,195.561z"/>
		<path fill="#4D5958" d="M148.525,191.378c-1.018,0.383-1.916,1.086-2.62,1.909c-0.619,0.723,0.514,1.667,1.133,0.944
			c0.542-0.634,1.223-1.177,2.006-1.472C149.933,192.424,149.417,191.043,148.525,191.378z"/>
		<path fill="#4D5958" d="M156.281,187.686l-2.692,0.244c-0.947,0.087-0.813,1.555,0.134,1.469l2.69-0.245
			C157.362,189.069,157.228,187.6,156.281,187.686z"/>
		<path fill="#2B3735" d="M129.344,192.602c-1.136,0.103-2.264,0.216-3.353,0.577c-0.903,0.299-0.381,1.679,0.52,1.381
			c0.96-0.319,1.963-0.399,2.965-0.49C130.424,193.984,130.29,192.516,129.344,192.602z"/>
		<path fill="#2B3735" d="M138.227,192.067c-0.887,0.292-1.799,0.384-2.722,0.469c-0.947,0.086-0.813,1.554,0.133,1.468
			c1.055-0.098,2.096-0.223,3.109-0.555C139.648,193.151,139.128,191.771,138.227,192.067z"/>
		<path fill="#2B3735" d="M147.353,184.767c-0.744,0.89-1.486,1.78-2.225,2.669c-0.611,0.731,0.522,1.675,1.131,0.945
			c0.743-0.89,1.484-1.78,2.224-2.67C149.093,184.98,147.96,184.036,147.353,184.767z"/>
		<path fill="#2B3735" d="M157.793,182.614c-0.907,0.066-1.774-0.082-2.623-0.4c-0.886-0.332-1.518,1.001-0.626,1.334
			c1.098,0.412,2.208,0.619,3.384,0.533C158.875,184.013,158.741,182.545,157.793,182.614z"/>
		<path fill="#2B3735" d="M158.015,193.203c-1.193,0.151-2.203,0.759-3.209,1.38c-0.808,0.5,0.05,1.699,0.858,1.2
			c0.772-0.477,1.564-0.995,2.486-1.111C159.09,194.553,158.96,193.083,158.015,193.203z"/>
		<path fill="#2B3735" d="M163.811,181.297c-0.037,0.045-0.075,0.089-0.116,0.133c-0.025,0.025-0.039,0.04-0.047,0.048
			c-0.051,0.036-0.146,0.093-0.16,0.106c-0.014,0.005-0.026,0.011-0.039,0.015l-0.005,0.002c0,0-0.006,0.001-0.011,0.001
			c-0.097,0.018-0.2,0.024-0.301,0.033c-0.946,0.087-0.812,1.556,0.132,1.468c0.272-0.025,0.547-0.058,0.802-0.161
			c0.354-0.143,0.632-0.416,0.878-0.702c0.262-0.306,0.212-0.784-0.093-1.037C164.539,180.944,164.072,180.991,163.811,181.297z"/>
		<path fill="#1F2A28" d="M132.721,203.176c-1.369-0.114-2.552,0.227-3.771,0.837c-0.84,0.42-0.332,1.806,0.519,1.38
			c0.955-0.478,1.903-0.856,2.991-0.765C133.402,204.706,133.668,203.256,132.721,203.176z"/>
		<path fill="#1F2A28" d="M143.557,202.412c-1.016,0.075-2.024-0.041-3.028-0.192c-0.939-0.142-1.2,1.308-0.26,1.452
			c1.128,0.17,2.28,0.294,3.422,0.208C144.639,203.81,144.505,202.341,143.557,202.412z"/>
		<path fill="#1F2A28" d="M151.953,199.208c-0.84,0.393-1.406,1.132-1.745,1.978c-0.15,0.373-0.025,0.802,0.355,0.98
			c0.348,0.165,0.832,0.02,0.981-0.353c0.207-0.519,0.483-1.017,0.926-1.225c0.363-0.17,0.581-0.551,0.431-0.949
			C152.769,199.285,152.315,199.037,151.953,199.208z"/>
		<path fill="#1F2A28" d="M159.062,199.276c-0.496,0.044-1.116,0.168-1.601,0c-0.381-0.133-0.798-0.037-0.98,0.353
			c-0.158,0.335-0.025,0.849,0.354,0.981c0.771,0.267,1.561,0.206,2.361,0.133C160.142,200.658,160.008,199.19,159.062,199.276z"/>
		<path fill="#EDEBEC" d="M118.637,352.276c-0.376,1.35-0.73,2.702-0.796,4.108c-0.045,0.95,1.43,0.99,1.474,0.041
			c0.06-1.276,0.39-2.491,0.733-3.716C120.303,351.793,118.893,351.362,118.637,352.276z"/>
		<path fill="#EDEBEC" d="M122.298,333.566c-0.534,1.99-1.328,3.914-1.549,5.978c-0.1,0.946,1.367,1.076,1.469,0.133
			c0.206-1.932,0.962-3.732,1.462-5.593C123.924,333.171,122.546,332.648,122.298,333.566z"/>
		<path fill="#EDEBEC" d="M127.764,316.622c-0.818,1.664-1.306,3.484-1.49,5.326c-0.094,0.946,1.374,1.077,1.469,0.132
			c0.171-1.722,0.639-3.387,1.403-4.94C129.566,316.285,128.18,315.779,127.764,316.622z"/>
		<path fill="#EDEBEC" d="M133.852,304.884c-0.304-0.217-0.826-0.174-1.028,0.174c-0.351,0.603-0.48,1.3-0.829,1.898
			c-0.201,0.348-0.177,0.78,0.174,1.028c0.304,0.218,0.827,0.175,1.027-0.173c0.351-0.604,0.482-1.3,0.829-1.899
			C134.226,305.565,134.202,305.132,133.852,304.884z"/>
		<path fill="#EDEBEC" d="M115.543,369.301c0-1.052-1.63-1.052-1.632,0c0,0.721,0.151,1.895-0.372,2.482
			c-0.698,0.783,0.452,1.94,1.153,1.153C115.577,371.945,115.542,370.556,115.543,369.301z"/>
		<path fill="#EDEBEC" d="M109.047,386.215c-0.663,2.023-1.172,4.093-1.836,6.117c-0.33,1.003,1.248,1.429,1.572,0.433
			c0.664-2.023,1.174-4.094,1.836-6.118C110.947,385.646,109.372,385.22,109.047,386.215z"/>
		<path fill="#BC8074" d="M203.398,221.605c-0.009-1.317-0.02-2.518-0.176-3.238c-0.284-1.28-0.796-2.427-1.229-3.641
			c2.865-0.914,7.305,5.672,7.015,8.226c-0.242,2.142-2.112,6.752-4.474,5.005C203.438,227.15,203.418,224.154,203.398,221.605z"/>
		<path fill="#BC8074" d="M199.39,247.771c1.013,1.094,1.394,3.382,1.924,4.77c0.092,0.244,0.36,0.805,0.707,1.531
			c3.409-1.252,6.541-3.463,8.477-6.409c0.481-0.73,1.202-1.228,1.996-1.259c2.054-5.391,3.506-11.036,4.171-16.834
			c0.583-5.098,1.189-11.076-1.127-15.826c-0.874-1.795-2.539-4.157-4.35-4.925c-0.171-0.075-0.372-0.151-0.597-0.224
			c-1.161-0.384-2.858-0.654-3.489,0.392c-0.548,0.901,0.722,6.683-0.564,11.318c-2.084,7.515-5.206,14.161-9.127,20.777
			c-1.124,1.901-3.352,4.469-0.599,5.768C197.804,247.321,198.501,246.812,199.39,247.771z"/>
		<g>
			<g>
				<path fill="#936663" d="M208.119,209.653l0.106-0.073c0.394,0.081,0.542,0.144,0.956,0.144c1.41,2.721,2.196,6.156,1.855,10.525
					l-1.121-0.133C210.259,215.66,209.673,212.235,208.119,209.653z"/>
			</g>
		</g>
		<g>
			<g>
				<path fill="#936663" d="M211.057,209.809c0.702,0.308,0.702,0.308,1.442,0.839c1.402,2.774,1.942,6.031,1.5,10.613l-1.216-0.169
					C213.241,216.346,212.654,212.415,211.057,209.809z"/>
			</g>
		</g>
		<g>
			<g>
				<path fill="#936663" d="M214.961,223.537c0.203,0.041,0.57-4.438,0.531-4.855c-0.209-2.713-0.837-5.363-1.169-5.768
					c0.828,0.647,1.438,1.893,1.742,2.845c0.263,0.828,0.414,1.686,0.478,2.379c0.046,0.49-0.13,5.673-0.446,5.615
					C216.095,223.752,214.961,223.537,214.961,223.537z"/>
			</g>
			<g>
				<path fill="#936663" d="M214.323,212.914c-0.021-0.018-0.044-0.037-0.066-0.049
					C214.277,212.866,214.297,212.886,214.323,212.914z"/>
			</g>
		</g>
		<path fill="#B0796F" d="M208.48,240.354c-2.106,6.925-4.308,14.377-7.738,20.684c-4.269,7.85-8.75,13.699-15.135,19.909
			c3.854-2.17,8.291-4.117,11.487-7.167c3.518-3.358,5.962-7.878,8.375-12.045c3.204-5.53,5.268-11.971,6.091-17.563
			c0.652-4.417,0.998-10.218-0.327-14.591c-0.098,0.116-0.378,0.242-0.518,0.253C210.885,233.397,209.509,236.967,208.48,240.354z"
			/>
		<g>
			<path fill="#647694" d="M177.903,195.742c-0.223-0.004-0.437,0.198-0.43,0.442c0.011,0.314-0.082,0.614-0.16,0.916
				c-0.144,0.555,0.672,0.79,0.82,0.233c0.093-0.368,0.2-0.753,0.188-1.138C178.313,195.951,178.142,195.744,177.903,195.742z"/>
			<path fill="#DA726A" d="M179.755,195.557c0.091,0.32,0.15,0.653,0.221,0.915c0.115,0.409,0.15,0.86,0.198,1.283
				c0.133,1.182,0.478,2.51-0.023,3.649c-0.355,0.806-1.07,0.912-1.885,0.945c-0.991,0.043-2.163-0.384-2.653-1.298
				c-0.45-0.838-0.446-1.927-0.236-2.834c0.207-0.904,0.51-1.85,0.948-2.67c0.24-0.45,0.668-0.933,1.184-1.056
				c0.334-0.08,0.585,0.186,0.894,0.185c0.298,0.001,0.462-0.305,0.773-0.095C179.482,194.785,179.643,195.163,179.755,195.557z"/>
			<g>
				<path fill="#A25E61" d="M178.571,195.063c-0.841-0.263-1.812,0.583-2.472,1.725c-0.87,1.497-1.214,3.501-0.053,4.169
					c1.259,0.727,3.969,0.496,4.31-1.186C180.543,198.835,179.519,195.358,178.571,195.063z"/>
				<path fill="#FFFFFF" d="M178.561,195.063c-0.738-0.232-1.572,0.389-2.21,1.312c1.154-0.266,2.012-0.315,3.115-0.207
					C179.139,195.369,178.949,195.185,178.561,195.063z"/>
				<path fill="#B76B70" d="M179.086,198.579c-0.341-0.228-0.871-0.405-1.385-0.481c-0.332-0.048-0.657-0.056-0.919-0.007
					c-0.705,0.132-1.064,0.436-1.061,1.178C175.718,202.142,181.731,200.359,179.086,198.579z"/>
				<path fill="#FFFFFF" d="M175.37,200.17c0.114,0.336,0.321,0.612,0.635,0.79c1.28,0.726,4.034,0.489,4.378-1.193
					c0.008-0.044,0.012-0.551,0.016-0.604C180.242,199.244,179.733,200.767,175.37,200.17z"/>
			</g>
		</g>
	</g>
	<g>
		<g>
			<path fill="#554341" d="M156.973,86.138c-0.609,0.207-1.225,0.444-1.836,0.707c-0.35,0.507-0.452,1.2-0.215,1.866
				c0.375,1.061,1.47,1.653,2.439,1.318c0.972-0.332,1.458-1.461,1.081-2.528C158.191,86.79,157.615,86.29,156.973,86.138z"/>
		</g>
		<g>
			<path fill="#80C99E" d="M167.744,79.249l0.181-0.166c-0.117,0.101-0.233,0.2-0.36,0.283
				C167.624,79.331,167.684,79.293,167.744,79.249z"/>
		</g>
		<g>
			<path fill="#80C99E" d="M167.565,79.366c-0.049,0.028-0.097,0.058-0.144,0.086C167.471,79.423,167.517,79.396,167.565,79.366z"/>
		</g>
		<g>
			<path fill="#F3E0D7" d="M167.744,79.249l0.181-0.166c-0.107,0.096-0.218,0.186-0.336,0.267
				C167.639,79.32,167.692,79.289,167.744,79.249z"/>
		</g>
		<path fill="#80BEB5" d="M162.34,126.537c-3.223,8.411,8.191,5.525,11.14,0.668c0.102-0.171,0.198-0.343,0.279-0.518
			C178.195,117.188,164.285,121.465,162.34,126.537z"/>
		<path fill="#80BEB5" d="M139.52,76.909c-5.7,4.266,2.201,24.142,6.446,27.101c0.555,0.388,1.07-2.965,1.208-7.476
			C147.463,86.918,146.017,72.049,139.52,76.909z"/>
		<path fill="#80BEB5" d="M156.836,77.971c-5.517,13.981-9.05,28.863-12.33,43.458c-1.383,6.164-6.604,22.43-4.688,28.55
			c1.907,6.098,7.537-7.085,8.442-9.029c0.962-2.087,1.94-4.189,2.915-6.304c8.791-19.034,17.713-39.149,22.757-59.245
			c1.907-7.601,6.107-21.746,2.095-28.712C167.34,49.766,159.948,70.083,156.836,77.971z"/>
		<path fill="#FFFFFF" d="M170.779,60.847c-0.029-0.261,0.078-0.502-0.145-0.112c-0.133,0.23-0.139,0.586-0.186,0.854
			c-0.127,0.707-0.271,1.409-0.419,2.11c-0.324,1.521-0.708,3.023-1.121,4.511c-0.805,2.893-1.773,5.716-2.814,8.494
			c-2.126,5.678-4.619,11.15-7.014,16.673c-2.393,5.517-4.682,11.122-6.652,16.877c-2.123,6.199-3.906,12.558-5.996,18.773
			c-1.486,4.423-3.383,8.713-3.83,13.543c-0.076,0.839,1.089,0.967,1.166,0.134c0.286-3.111,1.237-6.027,2.242-8.878
			c1.008-2.87,2.007-5.74,2.936-8.651c2.021-6.311,3.853-12.713,6.184-18.875c4.236-11.207,9.672-21.761,13.52-33.177
			c0.795-2.361,1.497-4.766,2.093-7.213c0.281-1.155,0.528-2.325,0.752-3.5c0.045-0.234,0.088-0.469,0.127-0.705
			c0.02-0.104,0.071-0.114,0.153-0.287c0.131-0.266,0.173-0.475,0.138-0.787C171.819,59.782,170.683,60.009,170.779,60.847z"/>
		<path fill="#FFFFFF" d="M142.159,82.676c-0.064-0.837-1.231-0.981-1.166-0.135c0.322,4.364,1.425,8.597,2.309,12.885
			c0.173,0.835,1.308,0.618,1.137-0.218C143.581,91.049,142.472,86.912,142.159,82.676z"/>
		<path fill="#FFFFFF" d="M170.219,77.355c-0.15,0.671-0.39,1.426-0.938,1.786c-0.353,0.235-0.523,0.706-0.31,1.166
			c0.191,0.408,0.698,0.661,1.055,0.426c0.9-0.594,1.427-1.621,1.679-2.756C171.943,76.9,170.459,76.275,170.219,77.355z"/>
		<path fill="#FFFFFF" d="M152.902,124.146c-0.178,0.755-0.56,1.41-0.74,2.164c-0.252,1.074,1.233,1.699,1.489,0.624
			c0.176-0.755,0.56-1.41,0.738-2.164C154.643,123.695,153.156,123.072,152.902,124.146z"/>
		<path fill="#FFFFFF" d="M160.181,101.338c-0.072,0.126-0.146,0.251-0.22,0.376c-0.032,0.055-0.066,0.11-0.1,0.161
			c0-0.001-0.083,0.116-0.097,0.14c-0.022,0.024-0.043,0.052-0.068,0.078c-0.011,0.012-0.067,0.053-0.09,0.076
			c-0.01,0.004-0.018,0.008-0.026,0.011c0.013-0.011-0.115,0.043-0.137,0.046c-0.97,0.213-0.619,1.945,0.353,1.732
			c0.835-0.184,1.271-0.848,1.706-1.601C162.032,101.435,160.711,100.416,160.181,101.338z"/>
		<path fill="#FFFFFF" d="M154.843,90.62c-0.085,1.007-0.199,1.974-0.507,2.917c-0.34,1.041,1.149,1.658,1.485,0.622
			c0.353-1.073,0.481-2.212,0.577-3.358C156.49,89.68,154.935,89.509,154.843,90.62z"/>
	</g>
	<g>
		<g>
			<path fill="#554341" d="M37.768,194.911c-0.941-0.367-2.001-0.12-2.791,0.542c-0.407,0.956-0.791,1.955-1.15,2.972
				c0.144,0.919,0.714,1.708,1.598,2.048c1.402,0.54,3.074-0.268,3.718-1.802C39.793,197.139,39.182,195.453,37.768,194.911z"/>
		</g>
		<g>
			<path fill="#80C99E" d="M39.056,175.392l0.021-0.387c-0.018,0.244-0.039,0.484-0.086,0.72
				C39.016,175.621,39.04,175.511,39.056,175.392z"/>
		</g>
		<g>
			<path fill="#80C99E" d="M38.991,175.725c-0.023,0.09-0.041,0.18-0.061,0.265C38.954,175.902,38.972,175.817,38.991,175.725z"/>
		</g>
		<g>
			<path fill="#F3E0D7" d="M39.056,175.392l0.021-0.387c-0.015,0.229-0.038,0.453-0.076,0.677
				C39.022,175.59,39.043,175.495,39.056,175.392z"/>
		</g>
		<path fill="#80BEB5" d="M91.139,213.064c-4.789-14.606-14.542,6.893-11.565,14.162c4.946,12.056,13.556-4.992,11.789-13.317
			C91.298,213.619,91.226,213.334,91.139,213.064z"/>
		<path fill="#80BEB5" d="M8.56,208.517c-1.558,11.205,25.645,20.253,32.763,17.753c0.933-0.326-1.806-4.167-6.051-8.639
			C26.224,208.107,10.338,195.749,8.56,208.517z"/>
		<path fill="#80BEB5" d="M76.285,248.943c-9.691-29.152-20.306-59.499-34.777-84.969c-5.477-9.63-15.012-28.373-25.79-29.988
			c-5.699,13.812,6.641,42.436,11.19,53.851c8.059,20.235,18.981,38.842,29.872,56.864c4.604,7.607,15.181,29.645,23.038,33.078
			c7.83,3.426,0.658-16.189-0.327-19.178C78.429,255.406,77.367,252.18,76.285,248.943z"/>
		<path fill="#FFFFFF" d="M70.327,254.63c-1.78-4.002-3.568-7.984-5.466-11.922c-4.108-8.549-8.493-16.946-12.146-25.738
			c-6.645-15.99-11.459-32.854-18.701-48.553c-1.497-3.247-3.129-6.417-4.91-9.496c-0.842-1.454-1.729-2.879-2.648-4.278
			c-0.183-0.28-0.368-0.556-0.557-0.83c-0.082-0.124-0.041-0.198-0.124-0.469c-0.13-0.414-0.29-0.669-0.628-0.922
			c-0.92-0.685-1.839,0.953-0.926,1.63c-0.281-0.209-0.409-0.575-0.254,0.077c0.091,0.384,0.43,0.732,0.643,1.048
			c0.561,0.831,1.099,1.678,1.63,2.533c1.155,1.858,2.23,3.767,3.261,5.704c2.008,3.763,3.779,7.665,5.436,11.618
			c3.386,8.074,6.208,16.414,9.177,24.679c2.965,8.255,6.12,16.464,9.736,24.415c3.897,8.565,8.291,16.859,12.237,25.399
			c2.809,6.078,5.079,12.543,9.321,17.701c0.738,0.902,2.028-0.437,1.297-1.327C73.97,262.573,72.091,258.604,70.327,254.63z"/>
		<path fill="#FFFFFF" d="M31.252,219.798c-4.897-2.894-10.024-5.443-14.449-9.091c-0.878-0.72-2.184,0.606-1.3,1.33
			c4.561,3.76,9.778,6.409,14.822,9.391C31.309,222.008,32.234,220.378,31.252,219.798z"/>
		<path fill="#FFFFFF" d="M85.137,218.302c-0.366,1.793-0.499,3.634-0.441,5.45c0.039,1.192,1.825,1.163,1.784-0.042
			c-0.053-1.654,0.039-3.33,0.373-4.966C87.094,217.566,85.379,217.116,85.137,218.302z"/>
		<path fill="#FFFFFF" d="M39.692,170.486c0.502,0.83,0.995,1.851,0.799,2.877c-0.127,0.668,0.159,1.33,0.819,1.5
			c0.588,0.15,1.342-0.245,1.471-0.913c0.321-1.692-0.151-3.333-0.999-4.73C40.977,167.893,38.884,169.157,39.692,170.486z"/>
		<path fill="#FFFFFF" d="M69.908,235.502c-0.787-1.339-2.881-0.072-2.091,1.27c0.554,0.941,0.808,2.046,1.363,2.987
			c0.787,1.341,2.881,0.077,2.092-1.268C70.717,237.547,70.462,236.446,69.908,235.502z"/>
		<path fill="#FFFFFF" d="M52.944,205.914c0.05,0.215,0.098,0.428,0.146,0.635c0.019,0.096,0.04,0.188,0.057,0.28
			c-0.001-0.002,0.028,0.216,0.037,0.252c0.004,0.052,0.008,0.109,0.009,0.163c0.001,0.025-0.015,0.136-0.018,0.186
			c-0.005,0.016-0.01,0.029-0.014,0.046c0.003-0.027-0.075,0.179-0.091,0.213c-0.765,1.418,1.268,2.629,2.033,1.209
			c0.657-1.221,0.448-2.402,0.152-3.664C54.89,203.691,52.581,204.373,52.944,205.914z"/>
		<path fill="#FFFFFF" d="M38.93,200.615c-0.995-1.184-2.718,0.6-1.731,1.775c0.895,1.065,1.719,2.132,2.325,3.413
			c0.673,1.42,2.76,0.142,2.09-1.265C40.925,203.073,39.948,201.828,38.93,200.615z"/>
	</g>
	<g>
		<path fill="#80BEB5" d="M254.286,393.843c-2.654-4.902-21.367-21.434-19.071-5.661c0.956,6.545,10.418,13.269,15.764,16.272
			c8.878,4.978,6.528-3.72,4.151-8.919C254.842,394.912,254.555,394.338,254.286,393.843z"/>
		<path fill="#80BEB5" d="M262.95,381.113c-0.792-2.675-4.69-0.782-3.897,1.876c5.682,19.187,2.675,39.94,3.849,59.82
			c0.33,5.612,0.913,11.194,1.539,16.769c1.359-0.744,2.715-1.496,4.065-2.249c-0.558-5.096-1.078-10.196-1.406-15.31
			C265.783,421.647,268.787,400.806,262.95,381.113z"/>
		<path fill="#80BEB5" d="M272.516,426.221c-1.027,2.765-1.574,5.58-1.925,8.479c-0.314,2.588,3.753,2.964,4.068,0.377
			c0.316-2.55,0.752-4.992,1.651-7.427C277.222,425.191,273.428,423.757,272.516,426.221z"/>
		<path fill="#80BEB5" d="M262.307,367.372l-0.877,7.224c-0.313,2.588,3.756,2.965,4.071,0.375l0.875-7.225
			C266.69,365.159,262.617,364.783,262.307,367.372z"/>
		<path fill="#80BEB5" d="M256.526,430.342c-1.592-2.04-4.813,0.536-3.223,2.57c0.976,1.249,1.784,3.057,2.402,4.682
			c0.913,2.417,4.672,0.708,3.756-1.7C258.74,433.975,257.794,431.964,256.526,430.342z"/>
		<path fill="#80BEB5" d="M259.695,446.859c-2.619-0.238-3.111,3.772-0.489,4.013C261.833,451.114,262.322,447.1,259.695,446.859z"
			/>
		<path fill="#80BEB5" d="M257.524,400.997l-0.611-0.055c-1.115-0.105-2.145,0.72-2.279,1.816c-0.132,1.096,0.679,2.089,1.794,2.194
			l0.606,0.06c1.107,0.101,2.148-0.725,2.281-1.822C259.451,402.098,258.632,401.1,257.524,400.997z"/>
		<path fill="#80BEB5" d="M283.227,378.907c-0.067-0.002-0.127-0.013-0.19-0.015c-7.535-0.584-18.338,16.773-10.732,21.102
			C280.53,404.667,295.838,380.388,283.227,378.907z"/>
		<path fill="#80BEB5" d="M257.447,372.945c5.595,14.229,21.891-10.596,14.5-18.895
			C264.381,345.559,255.068,366.896,257.447,372.945z"/>
		<path fill="#80BEB5" d="M269.591,437.3l-0.188,1.813c3.657,11.118,17.102-8.263,15.665-15.699
			C282.012,407.697,265.041,426.255,269.591,437.3z"/>
		<path fill="#FFFFFF" d="M264.708,359.13c-0.169,1.39-0.697,2.669-1.181,3.989c-0.637,1.727,2.041,2.68,2.673,0.953
			c0.575-1.553,1.167-3.082,1.36-4.728C267.781,357.531,264.927,357.319,264.708,359.13z"/>
		<path fill="#FFFFFF" d="M262.745,372.146c-0.777-0.062-1.494,0.534-1.576,1.298l-0.21,2.011c-0.075,0.765,0.509,1.457,1.285,1.515
			c0.777,0.057,1.493-0.535,1.575-1.299l0.209-2.012C264.101,372.894,263.519,372.203,262.745,372.146z"/>
		<path fill="#80BEB5" d="M271.3,398.726c-1.46,1.228-2.619,2.654-3.296,4.427c-0.657,1.72,2.018,2.672,2.678,0.955
			c0.503-1.324,1.34-2.324,2.429-3.241C274.537,399.666,272.723,397.525,271.3,398.726z"/>
		<path fill="#FFFFFF" d="M278.891,387.731c-1.671,0.99-2.402,2.57-3.154,4.255c-0.756,1.687,1.924,2.63,2.671,0.956
			c0.393-0.88,0.777-2.142,1.668-2.673c0.681-0.4,1.062-1.145,0.715-1.886C280.489,387.742,279.57,387.329,278.891,387.731z"/>
		<path fill="#FFFFFF" d="M273.085,437.932c-0.594-0.41-1.592-0.307-2,0.357c-0.74,1.195-1.248,2.471-1.423,3.852
			c-0.224,1.813,2.63,2.023,2.856,0.214c0.113-0.866,0.418-1.71,0.881-2.458C273.807,439.231,273.752,438.394,273.085,437.932z"/>
		<path fill="#FFFFFF" d="M277.306,425.791c-0.993,1.249-1.67,2.659-1.862,4.222c-0.231,1.814,2.625,2.026,2.85,0.218
			c0.138-1.082,0.649-1.976,1.331-2.832C280.784,425.946,278.455,424.353,277.306,425.791z"/>
		<path fill="#FFFFFF" d="M250.943,398.958c-2.695-2.296-4.309-5.243-5.66-8.471c-0.651-1.547-3.17-0.783-2.512,0.785
			c1.522,3.629,3.329,7.013,6.37,9.6C250.427,401.97,252.235,400.057,250.943,398.958z"/>
	</g>
	<g>
		<path fill="#80BEB5" d="M394.274,391.648c-0.768-0.66-2.013,0.401-1.241,1.063c1.463,1.261,3.28,1.867,5.162,2.405
			c1.006,0.29,1.525-1.2,0.522-1.49C397.142,393.176,395.504,392.711,394.274,391.648z"/>
		<g>
			<path fill="#80BEB5" d="M418.434,392.692c-1.253,1.188-2.669,2.18-4.225,2.979c-0.913,0.465-0.206,1.785,0.705,1.318
				c1.667-0.852,3.22-1.925,4.564-3.202C420.209,393.092,419.166,391.995,418.434,392.692z"/>
			<path fill="#80BEB5" d="M432.227,399.002c-0.487,1.391-0.989,2.756-1.796,4.021c-0.534,0.839,0.781,1.636,1.316,0.795
				c0.88-1.382,1.451-2.868,1.986-4.383C434.057,398.509,432.555,398.079,432.227,399.002z"/>
			<path fill="#FFFFFF" d="M426.66,398.83c-1.98,1.566-3.683,3.398-5.366,5.28c-0.83,0.926,0.518,2.348,1.351,1.414
				c1.684-1.876,3.383-3.714,5.365-5.277C428.991,399.471,427.63,398.063,426.66,398.83z"/>
			<g>
				<path fill="#80BEB5" d="M427.638,403.309c-1.23,1.494-0.86,3.418,0.53,4.574c1.766,1.48,3.631,2.768,5.827,3.661
					c1.704,0.695,3.802-0.161,4.564-1.79c0.777-1.667-0.036-3.562-1.742-4.258c-1.587-0.644-2.802-1.572-4.322-2.836
					C431.108,401.501,428.756,401.96,427.638,403.309z"/>
			</g>
			<g>
				<g>
					<path fill="#80BEB5" d="M389.663,360.797c-0.44,1.734-1.327,4.414-0.478,6.119c1.576,3.152,7.353,4.187,10.64,4.239
						c-1.18,2.054-3.664,2.909-5.78,2.493c-0.494-0.093-5.135-2.149-4.925-2.727c-4.427,12.018,4.877,29.004,13.798,36.87
						c2.647,2.334,6.222,5.062,9.862,5.868c3.519,0.78,7.228-0.402,9.997-2.634c3.241-2.617,3.773-6.803,6.726-9.462
						c3.512-3.162,9.536-2.067,13.482-4.563c5.593-3.538,6.478-10.268,6.687-16.016c0.308-8.29-3.485-17.199-8.995-23.481
						c-1.051,2.829-0.618,7.457-2.92,9.766c-2.955,2.962-5.657,2.858-6.167-0.887c-0.418-3.041,4.092-8.944,5.85-11.55
						c0.256-0.386-5.134-7.946-6.122-8.275c-2.879-0.959-6.984,4.682-9.159,6.393c-1.789-1.208,0.832-9.811,2.096-11.607
						c-3.012-1.57-6.179-4.2-8.478-6.607c-0.533-0.556-4.348-6.499-3.596-6.922c-8.256,4.64-13.318,12.834-17.797,20.466
						C392.17,352.046,390.709,356.66,389.663,360.797z"/>
				</g>
			</g>
			<path fill="#80BEB5" d="M409.225,393.346c-0.436,0.401-0.965,0.533-1.539,0.383c-1.011-0.265-1.538,1.223-0.522,1.492
				c1.104,0.288,2.288,0.047,3.144-0.741C411.08,393.771,409.998,392.633,409.225,393.346z"/>
			<path fill="#80BEB5" d="M396.529,385.218c-1.011-0.271-1.538,1.218-0.523,1.487c1.805,0.484,3.627,0.515,5.496,0.229
				c1.053-0.157,0.712-1.668-0.334-1.511C399.588,385.664,398.049,385.625,396.529,385.218z"/>
			<path fill="#FFFFFF" d="M405.016,339.453c-5.912,10.269-3.779,23.728,0.066,34.419c3.872,10.773,10.168,22.089,19.784,28.699
				c1.077,0.741,2.091-1.001,1.019-1.737c-9.218-6.337-15.431-17.515-19.011-27.893c-3.489-10.109-5.713-22.736-0.126-32.445
				C407.398,339.371,405.664,338.325,405.016,339.453z"/>
			<path fill="#FFFFFF" d="M409.158,400.331c-1.297-0.102-1.297,1.927-0.007,2.028c2.096,0.164,4.188,0.334,6.219,0.923
				c1.249,0.359,1.776-1.592,0.524-1.955C413.698,400.694,411.423,400.509,409.158,400.331z"/>
			<path fill="#FFFFFF" d="M399.242,379.907c-0.728-0.058-1.344,0.637-1.346,1.333c0,0.772,0.608,1.312,1.338,1.371
				c1.122,0.085,2.244,0.175,3.367,0.262c0.73,0.055,1.343-0.636,1.345-1.338c0.001-0.767-0.606-1.308-1.339-1.367
				C401.487,380.085,400.366,379.993,399.242,379.907z"/>
			<path fill="#FFFFFF" d="M399.244,393.948c1.036,0.229,2.285,0.293,3.213,0.816c1.511,0.852,2.878-1.461,1.361-2.319
				c-1.197-0.674-2.56-0.814-3.878-1.101C398.258,390.976,397.544,393.578,399.244,393.948z"/>
		</g>
	</g>
	<g>
		<g>
			<path fill="#80BEB5" d="M421.287,300.587c-0.544-2.884-0.651-5.989,0.198-8.741c1.328-4.292-4.983-6.643-6.305-2.375
				c-1.214,3.934-1.063,8.398-0.287,12.508C415.748,306.502,422.144,305.106,421.287,300.587z"/>
		</g>
		<g>
			<g>
				<path fill="#80BEB5" d="M430.511,239.133c0.035,0.004,0.067,0.009,0.095,0.013C430.576,239.143,430.546,239.137,430.511,239.133
					z"/>
			</g>
			<g>
				<path fill="#80BEB5" d="M448.916,277.972c1,0.782,9.777-2.969,11.05-3.632c3.097-1.616,4.004-3.144,5.72-6.017
					c3.675-6.145,5.357-12.472,4.673-19.529c-0.172-1.75-0.522-5.903-1.857-7.16c-2.188-2.051-1.207-0.652-3.749-0.015
					c-3.286,0.811-7.136,2.231-10.536,3.292c4.499-5.287,13.301-23.476,8.684-30.113c-2.761-3.866-16.35,0.037-25.839,4.763
					c-4.895,2.44-8.705,5.098-9.375,7.021c-0.766,2.18-0.558,12.017,2.824,12.551c0.035,0.004,0.065,0.01,0.095,0.013
					c0.108,0.009,0.209,0.015,0.298,0.009c-0.089,0.006-0.19,0-0.298-0.009c-0.031-0.003-0.06-0.009-0.095-0.013
					c-3.168-0.396-14.728-6.196-10.601-8.814c-5.879,3.722-16.966,11.799-16.855,19.437c0.022,1.86,3.722,11.303,6.589,9.604
					c-4.322,2.559-9.738,0.636-12.528-2.573c-5.301,8.471-7.417,19.728-1.077,26.957c6.665,7.609,17.818,6.873,26.56,1.606
					c-2.131,1.278,5.64,11.284,6.892,12.182c3.55,2.537,7.902,3.123,12.38,2.369c7.416-1.255,20.447-9.206,21.628-17.664
					C458.147,283.835,452.782,281.005,448.916,277.972z"/>
			</g>
		</g>
		<path fill="#80BEB5" d="M459.97,261.637c-1.314,1.627-3.033,2.561-4.959,3.145c-1.16,0.354-0.459,2.288,0.701,1.933
			c2.229-0.674,4.221-1.843,5.735-3.723C462.232,262.018,460.752,260.664,459.97,261.637z"/>
		<path fill="#80BEB5" d="M438.611,271.515c-1.875,0.607-3.862,0.735-5.829,0.864c-1.213,0.081-1.009,2.121,0.206,2.039
			c2.138-0.142,4.283-0.308,6.322-0.966C440.464,273.078,439.767,271.145,438.611,271.515z"/>
		<path fill="#80BEB5" d="M450.349,289.219c-2.601,1.087-5.332,1.344-8.129,1.529c-1.217,0.085-1.012,2.122,0.204,2.041
			c2.961-0.2,5.873-0.487,8.626-1.635C452.166,290.685,451.473,288.748,450.349,289.219z"/>
		<path fill="#80BEB5" d="M451.13,235.017c-0.629,0.767-1.539,1.314-2.51,1.404c-1.211,0.113-1.009,2.154,0.205,2.041
			c1.471-0.137,2.828-0.928,3.783-2.091C453.398,235.402,451.916,234.05,451.13,235.017z"/>
		<path fill="#80BEB5" d="M436.401,223.185c-0.003-0.012,0-0.024,0.002-0.034C436.4,223.157,436.399,223.167,436.401,223.185z"/>
		<path fill="#80BEB5" d="M436.462,222.68c0.001-0.013,0.002-0.026,0.003-0.038C436.458,222.664,436.459,222.675,436.462,222.68z"/>
		<path fill="#80BEB5" d="M436.412,223.443c-0.001-0.033-0.004-0.32-0.009-0.292c-0.002,0.01-0.005,0.022-0.002,0.034
			c-0.003-0.012,0-0.024,0.002-0.034c0.007-0.157,0.024-0.32,0.059-0.472c-0.003-0.005-0.004-0.016,0.003-0.038
			c-0.006,0.023-0.005,0.033-0.003,0.038c0.011,0.019,0.139-0.26,0.051-0.13c0.302-0.434,0.272-1.063-0.143-1.444
			c-0.39-0.355-1.03-0.345-1.336,0.089c-0.563,0.803-0.57,1.821-0.47,2.809c0.132,1.318,2.018,1.192,1.886-0.124
			C436.434,223.735,436.421,223.59,436.412,223.443z"/>
		<path fill="#FFFFFF" d="M412.698,264.41c-6.147-0.288-10.923,3.369-15.949,6.331c-1.366,0.801-0.307,3.183,1.073,2.37
			c4.528-2.666,9.096-6.395,14.651-6.132C414.073,267.053,414.307,264.486,412.698,264.41z"/>
		<path fill="#FFFFFF" d="M423.514,279.646c-1.519-9.518,2.669-18.76,7.276-26.504c4.608-7.743,10.349-14.695,16.247-21.38
			c1.067-1.211-0.992-2.747-2.046-1.551c-6.321,7.169-12.387,14.639-17.206,23.019c-4.537,7.896-8.249,17.241-6.726,26.785
			C421.324,281.669,423.779,281.299,423.514,279.646z"/>
		<path fill="#FFFFFF" d="M420.008,250.37c-1.93-1.571-2.817-4.068-3.26-6.462c-0.301-1.645-2.758-1.279-2.454,0.368
			c0.569,3.097,1.811,6.152,4.286,8.162C419.874,253.48,421.295,251.41,420.008,250.37z"/>
		<path fill="#FFFFFF" d="M409.168,276.728c-1.628-0.555-3.262-1.037-4.943-1.362c-1.594-0.306-1.81,2.262-0.231,2.567
			c1.471,0.285,2.891,0.704,4.312,1.189C409.845,279.646,410.713,277.251,409.168,276.728z"/>
		<path fill="#FFFFFF" d="M447.916,255.03c-2.954,1.099-5.917,2.201-8.88,3.299c-1.494,0.559-0.407,2.928,1.081,2.371
			c2.957-1.1,5.918-2.201,8.878-3.301C450.488,256.844,449.408,254.476,447.916,255.03z"/>
		<path fill="#80C99E" d="M418.808,281.166c-0.159-0.931-1.036-1.597-1.93-1.461l-2.453,0.368c-0.891,0.135-1.506,1.021-1.347,1.952
			c0.161,0.935,1.042,1.596,1.933,1.461l2.455-0.367C418.358,282.984,418.968,282.099,418.808,281.166z"/>
		<path fill="#FFFFFF" d="M440.628,270.515c-0.155-0.893-1.048-1.644-1.93-1.46c-1.049,0.215-1.935,0.913-2.959,1.1
			c-0.887,0.159-1.51,1-1.345,1.95c0.155,0.909,1.041,1.623,1.928,1.461c0.644-0.114,1.263-0.324,1.859-0.582
			c0.241-0.104,0.472-0.222,0.707-0.334c0.101-0.05,0.204-0.095,0.308-0.142c0.101-0.043,0.529-0.134,0.087-0.042
			C440.166,272.284,440.793,271.483,440.628,270.515z"/>
		<path fill="#FFFFFF" d="M409.775,258.3c-1.697,0.251-3.235,0.396-4.878-0.344c-1.992-0.9-3.128,2.3-1.144,3.195
			c2.176,0.983,4.348,0.895,6.609,0.562C412.474,261.395,411.889,257.985,409.775,258.3z"/>
		<path fill="#FFFFFF" d="M438.531,223.651c-0.791,1.087-2.182,1.43-3.322,2.016c-1.885,0.974-0.462,4.14,1.435,3.162
			c1.714-0.887,3.421-1.474,4.615-3.114C442.534,223.969,439.796,221.908,438.531,223.651z"/>
		<path fill="#FFFFFF" d="M446.768,241.653c-1.657,0.837-3.5,1.196-5.053,2.246c-0.746,0.508-0.73,1.745-0.187,2.423
			c0.635,0.791,1.6,0.783,2.346,0.278c1.268-0.86,2.965-1.1,4.329-1.787C450.101,243.861,448.676,240.694,446.768,241.653z"/>
		<path fill="#FFFFFF" d="M456.39,264.642c-0.622-0.774-1.612-0.805-2.347-0.276c-0.097,0.074-0.201,0.149-0.305,0.219
			c-0.025,0.017-0.046,0.031-0.068,0.047c-0.021,0.011-0.054,0.031-0.107,0.062c-0.217,0.132-0.439,0.257-0.654,0.394
			c-0.547,0.349-0.996,0.704-1.387,1.243c-0.535,0.739-0.314,1.861,0.415,2.414c0.756,0.572,1.781,0.389,2.314-0.348
			c0.006-0.011,0.016-0.018,0.021-0.029c0.015-0.009,0.111-0.116,0.162-0.156c0.031-0.026,0.068-0.051,0.102-0.078
			c0.045-0.029,0.087-0.06,0.112-0.075c0.528-0.313,1.053-0.633,1.551-0.992C456.935,266.535,456.944,265.336,456.39,264.642z"/>
		<path fill="#FFFFFF" d="M452.932,284.849c-0.621-0.777-1.612-0.805-2.343-0.277c-0.852,0.612-1.937,1.086-2.851,1.743
			c-0.733,0.526-0.742,1.728-0.184,2.422c0.622,0.775,1.609,0.804,2.342,0.277c0.853-0.615,1.939-1.087,2.848-1.742
			C453.478,286.745,453.485,285.54,452.932,284.849z"/>
	</g>
	<g>
		<path fill="#80BEB5" d="M351.461,346.719c-6.153,9.606,5.515,10.277,6.968,0.696C359.643,339.414,353.961,342.819,351.461,346.719
			z"/>
		<path fill="#80BEB5" d="M352.883,383.026c-5.382-5.253-14.014,3.958-14.895,9.597l2.013,0.707
			C345.139,395.023,359.711,389.686,352.883,383.026z"/>
		<path fill="#80BEB5" d="M334.702,353.614c-4.203-1.782-3.659,11.723-2.312,13.989
			C337.224,375.734,341.462,356.481,334.702,353.614z"/>
		<path fill="#80BEB5" d="M351.128,365.235l-2.355,2.339c-1.811,6.669,8.475,4.739,10.49,0.368
			C363.022,359.784,354.809,361.927,351.128,365.235z"/>
		<path fill="#80BEB5" d="M344.539,363.803l-9.744,20.015c-0.033-0.159-0.073-0.318-0.107-0.467
			c-0.18-0.708-0.844-1.158-1.462-0.985c-0.618,0.168-0.987,0.904-0.809,1.615c0.001,0.003,0.002,0.005,0.001,0.009
			c-0.199,0.601,0.015,1.32,0.527,1.67c0.275,0.188,0.587,0.232,0.873,0.161l-8.586,17.627c-1.021,2.101,1.764,4.394,2.795,2.278
			l19.309-39.65C348.357,363.975,345.573,361.68,344.539,363.803z"/>
		<path fill="#80BEB5" d="M326.783,388.97c0.106-0.762,0.137-1.624,0.096-2.511L326.783,388.97z"/>
		<path fill="#80BEB5" d="M326.879,386.459c0.041,0.886,0.01,1.749-0.096,2.511L326.879,386.459
			c-0.223-4.878-2.589-10.465-6.19-4.239c-2.254,3.903,0.137,11.67,3.5,14.104c2.091-3.078,3.1-7.325,2.739-11.191L326.879,386.459z
			"/>
		<path fill="#FFFFFF" d="M335.385,374.454c-0.458-1.085-2.04-0.997-1.583,0.088c0.227,0.548,0.213,1.128,0.277,1.677
			c0.052,0.442,0.581,0.909,1.022,0.997c0.494,0.098,0.753-0.213,0.7-0.653C335.718,375.857,335.697,375.204,335.385,374.454z"/>
		<path fill="#FFFFFF" d="M348.989,361.029c-0.405-0.277-0.892-0.204-1.07,0.16l-0.373,0.764c-0.174,0.364,0.013,0.899,0.417,1.173
			c0.406,0.278,0.891,0.201,1.07-0.161l0.374-0.762C349.584,361.836,349.394,361.303,348.989,361.029z"/>
		<path fill="#FFFFFF" d="M334.177,358.058c-0.704,2.482-0.855,5.103-0.526,7.788c0.128,1.032,1.637,1.095,1.51,0.059
			c-0.313-2.561-0.165-5.014,0.506-7.38C335.937,357.568,334.444,357.111,334.177,358.058z"/>
		<path fill="#FFFFFF" d="M322.912,384.002c-0.091,1.978-0.453,3.934-0.224,5.954c0.114,1.032,1.626,1.096,1.511,0.059
			c-0.224-2.014,0.133-3.978,0.222-5.952C324.471,383.039,322.958,382.994,322.912,384.002z"/>
		<path fill="#FFFFFF" d="M349.687,384.703c-2.26,1.857-4.534,3.614-7.516,4.118c-0.944,0.162-0.439,1.724,0.499,1.567
			c3.111-0.524,5.514-2.33,7.878-4.267C351.267,385.532,350.416,384.108,349.687,384.703z"/>
		<path fill="#FFFFFF" d="M354.963,365.989c-0.993,0.601-1.99,1.216-3.152,1.465c-0.932,0.199-0.429,1.766,0.498,1.566
			c1.285-0.275,2.415-0.948,3.517-1.613C356.629,366.917,355.768,365.499,354.963,365.989z"/>
	</g>
	<g>
		<path fill="#80BEB5" d="M64.301,330.962c-0.191-0.994,1.347-1.549,1.539-0.55c0.368,1.896-0.008,3.775-0.476,5.675
			c-0.246,1.017-1.798,0.728-1.551-0.287C64.204,334.21,64.614,332.557,64.301,330.962z"/>
		<g>
			<path fill="#80BEB5" d="M53.213,352.453c1.653-0.497,3.217-1.233,4.682-2.188c0.857-0.563,1.652,0.707,0.795,1.266
				c-1.569,1.024-3.271,1.841-5.046,2.372C52.678,354.191,52.243,352.741,53.213,352.453z"/>
			<path fill="#80BEB5" d="M51.842,367.559c1.449,0.268,2.884,0.509,4.382,0.438c0.994-0.047,1.032,1.489,0.037,1.536
				c-1.636,0.079-3.21-0.164-4.791-0.452C50.506,368.902,50.878,367.385,51.842,367.559z"/>
			<path fill="#FFFFFF" d="M54.458,362.64c2.341-0.94,4.778-1.51,7.246-2.036c1.216-0.26,1.781,1.615,0.556,1.876
				c-2.464,0.53-4.902,1.094-7.243,2.036C53.856,364.983,53.311,363.102,54.458,362.64z"/>
			<g>
				<path fill="#80BEB5" d="M57.86,365.713c1.908-0.327,3.394,0.95,3.707,2.731c0.408,2.268,0.6,4.526,0.284,6.876
					c-0.243,1.824-2.026,3.22-3.819,3.073c-1.832-0.154-3.074-1.799-2.831-3.627c0.229-1.696,0.027-3.212-0.316-5.159
					C54.568,367.828,56.133,366.014,57.86,365.713z"/>
			</g>
			<g>
				<g>
					<path fill="#80BEB5" d="M39.81,311.643c1.724,0.479,4.491,1.039,5.549,2.621c1.954,2.934-0.016,8.462-1.602,11.342
						c2.369-0.005,4.345-1.738,5.034-3.78c0.164-0.476,0.683-5.525,0.077-5.63c12.631,2.126,22.757,18.634,25.155,30.282
						c0.711,3.458,1.305,7.914,0.197,11.473c-1.07,3.443-3.937,6.075-7.249,7.37c-3.881,1.515-7.779-0.103-11.554,1.141
						c-4.488,1.479-6.529,7.252-10.654,9.437c-5.848,3.099-12.129,0.525-17.223-2.146c-7.348-3.85-13.199-11.564-15.916-19.467
						c2.978,0.492,6.78,3.166,9.926,2.315c4.039-1.095,5.29-3.491,2.293-5.794c-2.432-1.872-9.794-0.888-12.929-0.656
						c-0.463,0.03-4.349-8.401-4.144-9.422c0.597-2.976,7.532-3.739,10.097-4.777c-0.16-2.152-8.928-4.149-11.116-3.943
						c0.132-3.394-0.579-7.449-1.526-10.64C4.006,320.63,0.74,314.367,0,314.81c8.127-4.863,17.754-5.188,26.601-5.288
						C30.969,309.474,35.7,310.497,39.81,311.643z"/>
				</g>
			</g>
			<path fill="#80BEB5" d="M58.353,344.783c0.565-0.179,0.942-0.574,1.096-1.145c0.273-1.009,1.825-0.728,1.555,0.287
				c-0.299,1.101-1.096,2.009-2.204,2.361C57.801,346.605,57.35,345.1,58.353,344.783z"/>
			<path fill="#80BEB5" d="M57.601,329.727c0.266-1.013,1.82-0.729,1.55,0.284c-0.476,1.808-1.354,3.403-2.529,4.886
				c-0.659,0.835-1.801-0.211-1.147-1.04C56.468,332.603,57.2,331.248,57.601,329.727z"/>
			<path fill="#FFFFFF" d="M13.66,314.374c11.849-0.033,22.474,8.5,29.845,17.146c7.429,8.71,14.126,19.792,15.09,31.422
				c0.108,1.302-1.908,1.317-2.015,0.021c-0.925-11.147-7.543-22.089-14.774-30.349c-7.043-8.048-16.899-16.248-28.101-16.217
				C12.406,316.4,12.359,314.376,13.66,314.374z"/>
			<path fill="#FFFFFF" d="M64.449,348.193c0.555-1.177,2.317-0.169,1.764,1.001c-0.899,1.9-1.789,3.801-2.287,5.857
				c-0.308,1.262-2.263,0.751-1.957-0.516C62.51,352.314,63.479,350.248,64.449,348.193z"/>
			<path fill="#FFFFFF" d="M51.643,329.446c0.311-0.661,1.219-0.85,1.826-0.505c0.67,0.383,0.837,1.178,0.525,1.843
				c-0.483,1.016-0.962,2.034-1.443,3.053c-0.315,0.659-1.219,0.849-1.83,0.503c-0.668-0.38-0.835-1.175-0.523-1.84
				C50.682,331.483,51.16,330.464,51.643,329.446z"/>
			<path fill="#FFFFFF" d="M63.831,336.418c-0.316,1.014-0.88,2.13-0.887,3.194c-0.01,1.735-2.698,1.773-2.688,0.03
				c0.009-1.374,0.563-2.626,0.969-3.913C61.74,334.087,64.353,334.758,63.831,336.418z"/>
		</g>
	</g>
</g>
</svg>
