<?xml version="1.0" encoding="utf-8"?>
<!-- Generator: Adobe Illustrator 17.0.0, SVG Export Plug-In . SVG Version: 6.00 Build 0)  -->
<!DOCTYPE svg PUBLIC "-//W3C//DTD SVG 1.1//EN" "http://www.w3.org/Graphics/SVG/1.1/DTD/svg11.dtd">
<svg version="1.1" id="Слой_1" xmlns="http://www.w3.org/2000/svg" xmlns:xlink="http://www.w3.org/1999/xlink" x="0px" y="0px"
	 width="142.183px" height="62.616px" viewBox="0 0 142.183 62.616" enable-background="new 0 0 142.183 62.616"
	 xml:space="preserve">
<g>
	<g>
		<g>
			<path fill="#A4BA82" d="M19.231,25.569c-3.862-4.359-7.266-5.823-12.567-6.843c0.603,1.48,1.453,3.409,2.736,5.385
				c2.425,3.736,3.725,5.207,4.221,5.404c0.416,0.161,1.266,0.142,2.31-0.005c0.27-0.043,0.793-0.119,1.463-0.264
				c0.021-0.005,0.042-0.009,0.063-0.013c1.03-0.225,2.39-0.613,3.719-1.285C20.63,27.203,19.988,26.423,19.231,25.569z"/>
		</g>
		<g>
			<path fill="#90A86B" d="M14.495,27.849c0.323,0,0.748-0.036,1.23-0.104l0.098-0.016c0.287-0.045,0.72-0.113,1.261-0.229
				l0.079-0.017c0.576-0.126,1.129-0.278,1.655-0.455c-0.215-0.255-0.444-0.519-0.688-0.794c-2.947-3.326-5.542-4.796-8.922-5.73
				c0.401,0.8,0.87,1.645,1.423,2.498c2.331,3.592,3.309,4.595,3.577,4.835C14.27,27.843,14.363,27.849,14.495,27.849z"/>
		</g>
	</g>
	<g>
		<g>
			<path fill="#A4BA82" d="M31.029,25.569c3.862-4.359,7.266-5.823,12.567-6.843c-0.603,1.48-1.453,3.409-2.736,5.385
				c-2.425,3.736-3.725,5.207-4.221,5.404c-0.416,0.161-1.266,0.142-2.31-0.005c-0.27-0.043-0.793-0.119-1.463-0.264
				c-0.021-0.005-0.042-0.009-0.063-0.013c-1.03-0.225-2.39-0.613-3.719-1.285C29.631,27.203,30.272,26.423,31.029,25.569z"/>
		</g>
		<g>
			<path fill="#90A86B" d="M35.765,27.849c-0.323,0-0.748-0.036-1.23-0.104l-0.098-0.016c-0.287-0.045-0.72-0.113-1.261-0.229
				l-0.079-0.017c-0.576-0.126-1.129-0.278-1.655-0.455c0.215-0.255,0.444-0.519,0.688-0.794c2.947-3.326,5.542-4.796,8.922-5.73
				c-0.401,0.8-0.87,1.645-1.423,2.498c-2.331,3.592-3.309,4.595-3.577,4.835C35.99,27.843,35.898,27.849,35.765,27.849z"/>
		</g>
	</g>
	<g>
		<g>
			<path fill="#E3BF61" d="M25.13,8.799c-1.341,1.149-4.005,4.295-4.005,6.367s2.664,5.838,4.005,6.986
				c1.341-1.149,4.005-4.914,4.005-6.986S26.471,9.948,25.13,8.799z"/>
		</g>
		<g>
			<path fill="#DBB34F" d="M25.13,20.738c-1.189-1.466-2.535-3.741-2.535-4.848c0-1.034,1.297-2.954,2.535-4.31
				c1.238,1.356,2.535,3.276,2.535,4.31C27.665,16.997,26.319,19.272,25.13,20.738z"/>
		</g>
	</g>
	<g>
		<g>
			<path fill="#B8A05C" d="M9.484,47.444c2.258-6.268,16.261-10.843,22.434-8.377s9.347,9.546,7.09,15.814
				s-9.093,9.351-15.266,6.885C17.569,59.301,7.226,53.712,9.484,47.444z"/>
		</g>
		<g>
			<path fill="#C4B17A" d="M18.729,53.81c-2.073-1.273-6.791-4.522-5.823-7.208c0.58-1.61,2.894-3.489,6.039-4.903
				c4.503-2.025,9.873-2.763,12.49-1.718c0.487,0.194,0.96,0.432,1.405,0.705c3.83,2.351,5.507,7.118,3.988,11.335
				c-0.818,2.27-2.45,4.052-4.597,5.017c-2.137,0.961-4.539,1.001-6.764,0.113C23.074,56.194,20.681,55.008,18.729,53.81z"/>
		</g>
		<g>
			<path fill="#7E9296" d="M6.066,44.145c-1.859-0.958-2.657-5.282-1.607-6.977s3.408-2.293,5.266-1.336
				c1.859,0.958,2.514,3.108,1.464,4.804S7.925,45.102,6.066,44.145z"/>
		</g>
		<g>
			<path fill="#879CA1" d="M6.722,43.094c-0.14,0-0.269-0.032-0.395-0.097c-0.52-0.268-1.027-1.101-1.325-2.175
				c-0.38-1.372-0.352-2.86,0.068-3.538c0.523-0.844,1.523-1.369,2.61-1.369c0.52,0,1.034,0.124,1.488,0.357
				c0.705,0.363,1.201,0.95,1.395,1.651c0.177,0.639,0.077,1.31-0.281,1.888C9.065,41.775,7.635,43.094,6.722,43.094z"/>
		</g>
		<g>
			<path fill="#857362" d="M38.337,37.496c1.484-0.946,5.403,0.08,6.44,1.434c1.037,1.353,0.675,3.218-0.808,4.164
				c-1.484,0.946-3.528,0.616-4.565-0.737C38.366,41.003,36.853,38.443,38.337,37.496z"/>
		</g>
		<g>
			<path fill="#9C8773" d="M42.536,42.461c-0.795,0-1.535-0.347-1.98-0.927c-1.005-1.311-1.603-2.625-1.49-3.27
				c0.024-0.138,0.079-0.22,0.194-0.294c0.227-0.145,0.646-0.227,1.152-0.227c1.654,0,3.595,0.794,4.099,1.451
				c0.336,0.439,0.471,0.968,0.379,1.489c-0.098,0.557-0.439,1.046-0.959,1.378C43.522,42.323,43.039,42.461,42.536,42.461z"/>
		</g>
	</g>
	<g>
		<path fill="#303629" d="M25.13,23.16c0.936,0,2.602-0.715,5.225-4.121c1.203-1.562,3.221-4.609,3.221-7.459
			s-2.018-5.897-3.221-7.459C27.732,0.715,26.066,0,25.13,0c-0.936,0-2.602,0.715-5.225,4.121c-1.203,1.562-3.221,4.609-3.221,7.459
			s2.018,5.897,3.221,7.459C22.528,22.445,24.194,23.16,25.13,23.16z M25.13,5.197c1.499,1.284,4.478,4.802,4.478,7.119
			s-2.979,6.527-4.478,7.811c-1.499-1.284-4.478-5.495-4.478-7.811S23.631,6.481,25.13,5.197z"/>
	</g>
	<g>
		<path fill="#303629" d="M50.256,17.36c-0.001-0.022,0-0.044-0.002-0.066c0-0.002-0.001-0.005-0.001-0.007
			c-0.005-0.052-0.012-0.104-0.021-0.155c-0.002-0.014-0.004-0.029-0.006-0.043c-0.009-0.047-0.021-0.092-0.033-0.138
			c-0.005-0.019-0.008-0.038-0.014-0.056c-0.009-0.03-0.02-0.059-0.031-0.088c-0.14-0.402-0.402-0.743-0.742-0.979
			c-0.005-0.004-0.012-0.007-0.017-0.011c-0.047-0.032-0.096-0.063-0.146-0.091c-0.009-0.005-0.018-0.009-0.027-0.013
			c-0.048-0.026-0.097-0.051-0.147-0.073c-0.004-0.002-0.008-0.003-0.011-0.004c-0.117-0.05-0.239-0.089-0.366-0.117l-0.001,0
			c-0.065-0.014-0.13-0.024-0.196-0.032l-0.003,0c-0.014-0.002-0.027-0.001-0.04-0.002c-0.051-0.004-0.102-0.008-0.154-0.009
			c-0.037,0-0.074,0.002-0.11,0.004c-0.026,0.001-0.052,0-0.078,0.003c-0.005,0-0.01,0.001-0.014,0.001l-0.014,0.001
			c-7.63,0.645-12.738,2.977-17.931,8.837c-2.499,2.82-4.07,6.152-5.022,8.914c-0.952-2.763-2.523-6.095-5.022-8.914
			c-5.193-5.861-10.301-8.192-17.931-8.837l-0.014-0.001c-0.005,0-0.01-0.001-0.014-0.001c-0.026-0.002-0.052-0.001-0.078-0.003
			c-0.037-0.002-0.073-0.004-0.11-0.004c-0.052,0.001-0.103,0.004-0.154,0.009c-0.013,0.001-0.026,0.001-0.039,0.002l-0.004,0.001
			c-0.066,0.007-0.131,0.018-0.196,0.031l-0.001,0c-0.126,0.027-0.249,0.066-0.366,0.117c-0.004,0.002-0.008,0.003-0.011,0.004
			c-0.05,0.022-0.099,0.047-0.147,0.073c-0.009,0.005-0.018,0.008-0.027,0.013c-0.05,0.028-0.098,0.059-0.146,0.091
			c-0.006,0.004-0.012,0.007-0.017,0.011c-0.34,0.235-0.602,0.576-0.742,0.979c-0.01,0.029-0.022,0.058-0.031,0.088
			c-0.005,0.018-0.009,0.038-0.014,0.056c-0.012,0.046-0.024,0.091-0.033,0.138c-0.003,0.014-0.004,0.029-0.006,0.043
			c-0.009,0.051-0.016,0.103-0.021,0.155c0,0.002-0.001,0.005-0.001,0.007c-0.002,0.022-0.001,0.044-0.002,0.066
			C0.002,17.401,0,17.442,0,17.484c0.001,0.047,0.004,0.092,0.008,0.138c0.001,0.018,0.001,0.035,0.003,0.053
			c0,0.002,0.001,0.004,0.001,0.007c0.002,0.021,0.006,0.041,0.009,0.062c0.3,2.498,2.341,5.923,4.31,8.78
			c2.206,3.202,3.512,4.946,6.106,7.574c0.806,0.816,2.058,0.767,2.872,0.649c1.901-0.277,3.803-0.676,5.994-1.291
			c-0.413-0.842-0.974-1.756-1.551-2.313c-2.178,0.586-4.347,0.88-5.099,0.589c-0.496-0.197-1.796-1.668-4.221-5.404
			C7.15,24.35,6.3,22.422,5.697,20.942c5.301,1.02,8.705,2.484,12.567,6.843c4.176,4.712,4.882,7.184,4.882,13.709
			c0,0,0-0.743,0-0.743c0,0,0,0.001,0,0.002c0,1.855-0.297,2.942-0.991,3.637c-0.812,0.812-1.871,1.256-3.224,1.35v3.973
			c3.131,0,4.898-1.74,6.03-3.262c0.059-0.079,0.113-0.156,0.169-0.233c0.056,0.078,0.111,0.154,0.169,0.233
			c1.132,1.522,2.899,3.262,6.03,3.262V45.74c-1.353-0.094-2.412-0.538-3.224-1.35c-0.693-0.693-0.99-1.779-0.991-3.629
			c0-0.003,0.001,0.737,0.001,0.734c0-6.525,0.706-8.997,4.882-13.71c3.862-4.359,7.266-5.823,12.567-6.843
			c-0.603,1.48-1.453,3.409-2.736,5.385c-2.425,3.736-3.725,5.207-4.221,5.404c-0.752,0.291-2.921-0.003-5.099-0.589
			c-0.576,0.556-1.137,1.47-1.551,2.313c2.19,0.615,4.093,1.014,5.994,1.291c0.815,0.119,2.066,0.167,2.872-0.649
			c2.594-2.628,3.9-4.371,6.106-7.574c1.969-2.857,4.009-6.282,4.31-8.78c0.003-0.021,0.007-0.041,0.009-0.062
			c0-0.002,0.001-0.004,0.001-0.007c0.002-0.018,0.002-0.035,0.003-0.053c0.004-0.046,0.008-0.092,0.008-0.138
			C50.261,17.442,50.258,17.401,50.256,17.36z"/>
	</g>
	<g>
		<g>
			<path fill="#2B2E22" d="M59.26,14.926v-0.27h1.343c0.513,0,0.959,0.139,1.336,0.418c0.378,0.279,0.665,0.636,0.863,1.07
				l1.863,3.801l2.383-5.29h0.876l-3.449,7.616c-0.189,0.439-0.47,0.784-0.843,1.037c-0.373,0.252-0.829,0.378-1.369,0.378H61.59
				v-0.474c0.197,0,0.397-0.011,0.599-0.033c0.202-0.022,0.39-0.067,0.566-0.135c0.176-0.068,0.337-0.164,0.484-0.287
				c0.147-0.123,0.266-0.283,0.359-0.481l0.092-0.198l-2.765-5.666c-0.197-0.43-0.435-0.777-0.714-1.041
				C59.933,15.111,59.616,14.961,59.26,14.926z"/>
			<path fill="#2B2E22" d="M67.989,17.625v-0.408h1.619c0.233,0,0.428,0.03,0.586,0.09c0.158,0.059,0.284,0.158,0.379,0.295
				c0.094,0.137,0.159,0.318,0.194,0.543c0.035,0.226,0.053,0.506,0.053,0.842v1.286l1.632-2.009
				c0.136-0.163,0.269-0.31,0.398-0.441c0.129-0.13,0.268-0.241,0.418-0.332c0.149-0.09,0.316-0.159,0.501-0.205
				c0.184-0.046,0.392-0.07,0.625-0.07h0.27v0.356c-0.268,0-0.51,0.054-0.727,0.162c-0.218,0.109-0.425,0.28-0.622,0.514
				l-1.31,1.606l1.797,2.389c0.233,0.319,0.452,0.56,0.658,0.724c0.206,0.164,0.404,0.267,0.593,0.312v0.29
				c-0.07,0.031-0.2,0.059-0.388,0.083c-0.189,0.024-0.369,0.035-0.54,0.035c-0.378,0-0.733-0.077-1.066-0.232
				c-0.334-0.154-0.647-0.431-0.941-0.831l-1.296-1.681v2.612h-1.751v-4.581c0-0.404-0.056-0.73-0.168-0.978
				c-0.112-0.248-0.372-0.372-0.78-0.372H67.989z"/>
			<path fill="#2B2E22" d="M75.078,17.625v-0.408h1.336c0.307,0,0.547,0.04,0.721,0.122c0.173,0.082,0.31,0.23,0.411,0.444
				c0.079-0.07,0.174-0.145,0.286-0.227c0.112-0.081,0.243-0.158,0.392-0.231c0.149-0.072,0.32-0.13,0.514-0.174
				c0.193-0.044,0.406-0.066,0.639-0.066c0.465,0,0.877,0.085,1.234,0.257c0.358,0.171,0.655,0.405,0.892,0.701
				c0.237,0.296,0.413,0.646,0.53,1.05c0.116,0.403,0.174,0.836,0.174,1.296c0,0.457-0.058,0.887-0.174,1.291
				c-0.117,0.403-0.295,0.755-0.537,1.053c-0.241,0.298-0.544,0.532-0.908,0.701c-0.365,0.169-0.79,0.254-1.277,0.254
				c-0.224,0-0.421-0.019-0.593-0.059c-0.171-0.039-0.32-0.086-0.448-0.138c-0.144-0.053-0.269-0.121-0.375-0.204v2.831h-1.751
				v-7.142c0-0.198-0.011-0.38-0.033-0.546c-0.022-0.167-0.065-0.311-0.128-0.431c-0.064-0.121-0.158-0.213-0.283-0.276
				s-0.286-0.096-0.484-0.096H75.078z M77.804,18.244c0.009,0.061,0.022,0.125,0.039,0.191c0.017,0.061,0.031,0.129,0.04,0.201
				c0.008,0.072,0.013,0.157,0.013,0.254v3.791c0.101,0.079,0.208,0.147,0.323,0.204c0.101,0.053,0.22,0.099,0.359,0.138
				c0.138,0.039,0.293,0.059,0.464,0.059c0.25,0,0.461-0.067,0.632-0.201c0.171-0.134,0.311-0.323,0.418-0.566
				c0.108-0.244,0.184-0.529,0.23-0.856c0.046-0.327,0.069-0.683,0.069-1.07c0-0.386-0.023-0.744-0.069-1.073
				c-0.046-0.329-0.121-0.615-0.224-0.856c-0.103-0.242-0.236-0.43-0.398-0.566c-0.162-0.136-0.36-0.204-0.592-0.204
				c-0.342,0-0.617,0.063-0.823,0.188C78.078,18.004,77.918,18.126,77.804,18.244z"/>
			<path fill="#2B2E22" d="M83.07,21.871c0-0.325,0.055-0.61,0.164-0.856c0.11-0.246,0.301-0.457,0.573-0.632
				c0.272-0.175,0.642-0.308,1.109-0.398c0.467-0.09,1.065-0.135,1.794-0.135h0.204c0-0.807-0.112-1.369-0.337-1.685
				s-0.539-0.474-0.944-0.474c-0.153,0-0.3,0.015-0.44,0.046c-0.14,0.031-0.268,0.091-0.384,0.181
				c-0.116,0.09-0.219,0.214-0.308,0.372c-0.09,0.158-0.161,0.362-0.213,0.612h-0.744c0-0.233,0.015-0.469,0.046-0.711
				c0.03-0.242,0.127-0.452,0.289-0.632c0.162-0.18,0.43-0.304,0.802-0.372c0.373-0.068,0.778-0.102,1.216-0.102
				c0.883,0,1.565,0.234,2.047,0.701s0.722,1.177,0.722,2.13v3.64H87.52l-0.467-0.606H86.98c-0.101,0.145-0.227,0.27-0.376,0.375
				c-0.128,0.101-0.295,0.187-0.502,0.257c-0.207,0.07-0.453,0.105-0.74,0.105c-0.745,0-1.312-0.168-1.704-0.503
				C83.266,22.848,83.07,22.411,83.07,21.871z M84.886,21.871c0,0.378,0.08,0.662,0.238,0.856s0.372,0.29,0.641,0.29
				c0.207,0,0.381-0.045,0.521-0.135c0.141-0.09,0.26-0.188,0.357-0.293c0.11-0.127,0.201-0.276,0.271-0.447v-1.685h-0.205
				c-0.647,0-1.113,0.117-1.397,0.349C85.028,21.037,84.886,21.393,84.886,21.871z"/>
			<path fill="#2B2E22" d="M89.08,15.334c0-0.233,0.072-0.417,0.217-0.553c0.145-0.136,0.32-0.204,0.526-0.204
				c0.342,0,0.596,0.104,0.761,0.313c0.164,0.208,0.247,0.447,0.247,0.714c0,0.233-0.071,0.416-0.214,0.549
				c-0.143,0.134-0.317,0.201-0.523,0.201c-0.342,0-0.597-0.103-0.764-0.31C89.163,15.839,89.08,15.602,89.08,15.334z M89.35,17.625
				v-0.408h1.619c0.233,0,0.428,0.029,0.586,0.089s0.284,0.157,0.379,0.293c0.094,0.136,0.159,0.316,0.194,0.54
				c0.035,0.224,0.053,0.503,0.053,0.836v4.581h-1.751v-4.581c0-0.404-0.056-0.73-0.168-0.978c-0.112-0.248-0.372-0.372-0.78-0.372
				H89.35z M91.575,15.334c0-0.233,0.071-0.417,0.214-0.553c0.142-0.136,0.319-0.204,0.53-0.204c0.342,0,0.596,0.104,0.761,0.313
				c0.164,0.208,0.247,0.447,0.247,0.714c0,0.233-0.071,0.416-0.214,0.549c-0.143,0.134-0.319,0.201-0.53,0.201
				c-0.342,0-0.596-0.103-0.761-0.31C91.657,15.839,91.575,15.602,91.575,15.334z"/>
			<path fill="#2B2E22" d="M92.944,17.625v-0.408h1.619c0.233,0,0.428,0.029,0.586,0.089s0.284,0.157,0.379,0.293
				c0.094,0.136,0.159,0.316,0.194,0.54c0.035,0.224,0.053,0.503,0.053,0.836v1.079h2.159v-2.837h1.751V21.8
				c0,0.403,0.056,0.729,0.168,0.976c0.112,0.248,0.37,0.372,0.774,0.372h0.138v0.408h-1.62c-0.233,0-0.428-0.027-0.586-0.082
				c-0.158-0.055-0.284-0.149-0.379-0.283c-0.094-0.134-0.159-0.313-0.194-0.536c-0.035-0.224-0.052-0.507-0.052-0.849V20.66h-2.159
				v2.896h-1.751v-4.581c0-0.404-0.056-0.73-0.168-0.978c-0.112-0.248-0.372-0.372-0.78-0.372H92.944z"/>
			<path fill="#2B2E22" d="M101.133,21.871c0-0.325,0.055-0.61,0.164-0.856c0.11-0.246,0.301-0.457,0.573-0.632
				c0.272-0.175,0.642-0.308,1.109-0.398c0.467-0.09,1.065-0.135,1.794-0.135h0.204c0-0.807-0.112-1.369-0.337-1.685
				c-0.225-0.316-0.539-0.474-0.944-0.474c-0.153,0-0.3,0.015-0.44,0.046c-0.14,0.031-0.268,0.091-0.384,0.181
				c-0.116,0.09-0.219,0.214-0.308,0.372c-0.09,0.158-0.161,0.362-0.213,0.612h-0.744c0-0.233,0.015-0.469,0.046-0.711
				c0.03-0.242,0.127-0.452,0.289-0.632c0.162-0.18,0.43-0.304,0.802-0.372c0.373-0.068,0.778-0.102,1.216-0.102
				c0.883,0,1.565,0.234,2.047,0.701s0.722,1.177,0.722,2.13v3.64h-1.146l-0.467-0.606h-0.073c-0.101,0.145-0.227,0.27-0.376,0.375
				c-0.128,0.101-0.295,0.187-0.502,0.257c-0.207,0.07-0.453,0.105-0.74,0.105c-0.745,0-1.312-0.168-1.704-0.503
				C101.329,22.848,101.133,22.411,101.133,21.871z M102.949,21.871c0,0.378,0.08,0.662,0.238,0.856s0.372,0.29,0.641,0.29
				c0.207,0,0.381-0.045,0.521-0.135c0.141-0.09,0.26-0.188,0.357-0.293c0.11-0.127,0.201-0.276,0.271-0.447v-1.685h-0.205
				c-0.647,0-1.113,0.117-1.397,0.349C103.091,21.037,102.949,21.393,102.949,21.871z"/>
			<path fill="#2B2E22" d="M59.879,28.465v-0.408h3.64c0.421,0,0.866,0.023,1.333,0.069c0.467,0.046,0.896,0.15,1.287,0.313
				c0.391,0.162,0.714,0.4,0.971,0.714c0.257,0.314,0.385,0.736,0.385,1.267c0,0.189-0.038,0.382-0.115,0.579
				c-0.077,0.198-0.194,0.384-0.351,0.56c-0.157,0.175-0.352,0.332-0.584,0.471c-0.232,0.138-0.505,0.249-0.82,0.332
				c0.438,0.044,0.803,0.13,1.096,0.26c0.293,0.13,0.527,0.288,0.702,0.477c0.175,0.189,0.298,0.403,0.368,0.642
				c0.07,0.239,0.105,0.488,0.105,0.747c0,0.514-0.116,0.931-0.349,1.254c-0.233,0.322-0.538,0.574-0.915,0.754
				c-0.378,0.18-0.804,0.302-1.281,0.365c-0.476,0.064-0.953,0.096-1.431,0.096h-2.963v-7.142c0-0.403-0.057-0.73-0.171-0.977
				c-0.115-0.248-0.373-0.372-0.777-0.372H59.879z M62.71,32.092h1.009c0.55,0,1.003-0.13,1.359-0.391
				c0.357-0.261,0.534-0.712,0.534-1.353c0-0.334-0.06-0.612-0.181-0.836c-0.121-0.224-0.278-0.402-0.472-0.536
				c-0.194-0.134-0.417-0.23-0.67-0.289s-0.509-0.089-0.769-0.089c-0.11,0-0.214,0.004-0.313,0.013
				c-0.099,0.008-0.184,0.022-0.254,0.039c-0.088,0.017-0.169,0.033-0.244,0.046V32.092z M62.71,36.285
				c0.079,0.026,0.169,0.048,0.27,0.066c0.18,0.044,0.403,0.066,0.671,0.066h0.066c0.746,0,1.315-0.161,1.708-0.484
				c0.392-0.323,0.589-0.782,0.589-1.379c0-1.242-0.765-1.861-2.295-1.856H62.71V36.285z"/>
			<path fill="#2B2E22" d="M68.338,31.025v-0.408h1.619c0.233,0,0.428,0.029,0.586,0.089s0.284,0.157,0.379,0.293
				c0.094,0.136,0.159,0.316,0.194,0.54c0.035,0.224,0.053,0.503,0.053,0.836v4.582h-1.751v-4.582c0-0.403-0.056-0.729-0.168-0.977
				c-0.112-0.248-0.372-0.372-0.78-0.372H68.338z M69.286,28.866c0-0.233,0.072-0.416,0.215-0.55
				c0.143-0.133,0.317-0.201,0.522-0.201c0.342,0,0.597,0.104,0.764,0.31c0.167,0.206,0.25,0.443,0.25,0.711
				c0,0.233-0.072,0.417-0.217,0.553c-0.145,0.136-0.32,0.204-0.526,0.204c-0.34,0-0.593-0.103-0.759-0.309
				C69.368,29.378,69.286,29.138,69.286,28.866z"/>
			<path fill="#2B2E22" d="M72.063,36.825c0-0.136,0.045-0.249,0.134-0.339c0.09-0.09,0.202-0.135,0.338-0.135h0.485
				c0.309-0.677,0.522-1.38,0.639-2.109c0.117-0.729,0.175-1.399,0.175-2.01c0-0.17-0.012-0.329-0.036-0.475
				c-0.024-0.146-0.071-0.273-0.141-0.38s-0.173-0.192-0.309-0.256c-0.136-0.063-0.312-0.095-0.526-0.095v-0.408h5.997v5.733h0.405
				c0.135,0,0.248,0.045,0.337,0.135c0.089,0.09,0.134,0.203,0.134,0.339v2.291h-0.671c-0.035-0.439-0.094-0.799-0.175-1.08
				c-0.081-0.28-0.184-0.501-0.31-0.661c-0.125-0.16-0.273-0.27-0.445-0.329c-0.171-0.059-0.365-0.089-0.58-0.089h-3.268
				c-0.215,0-0.408,0.029-0.58,0.089c-0.171,0.059-0.32,0.169-0.445,0.329c-0.126,0.16-0.229,0.38-0.31,0.658
				c-0.081,0.278-0.139,0.64-0.175,1.083h-0.671V36.825z M74.427,36.351h2.639v-5.128h-1.902c0,0.575-0.013,1.104-0.039,1.585
				c-0.026,0.481-0.068,0.926-0.126,1.335c-0.057,0.408-0.132,0.795-0.227,1.16C74.678,35.667,74.563,36.017,74.427,36.351z"/>
			<path fill="#2B2E22" d="M79.811,31.025v-0.408h1.336c0.307,0,0.547,0.04,0.721,0.122c0.173,0.081,0.31,0.23,0.411,0.444
				c0.079-0.07,0.174-0.146,0.286-0.227c0.112-0.081,0.243-0.158,0.392-0.23c0.149-0.073,0.32-0.13,0.514-0.175
				c0.193-0.044,0.406-0.066,0.639-0.066c0.465,0,0.877,0.086,1.234,0.257c0.358,0.171,0.655,0.405,0.892,0.701
				c0.237,0.296,0.413,0.647,0.53,1.05c0.116,0.404,0.174,0.836,0.174,1.297c0,0.456-0.058,0.887-0.174,1.29
				c-0.117,0.404-0.295,0.755-0.537,1.053c-0.241,0.298-0.544,0.532-0.908,0.701c-0.365,0.169-0.79,0.254-1.277,0.254
				c-0.224,0-0.421-0.019-0.593-0.059c-0.171-0.039-0.32-0.085-0.448-0.138c-0.144-0.053-0.269-0.121-0.375-0.204v2.831h-1.751
				v-7.142c0-0.197-0.011-0.38-0.033-0.546c-0.022-0.166-0.065-0.31-0.128-0.431c-0.064-0.121-0.158-0.213-0.283-0.276
				c-0.125-0.064-0.286-0.096-0.484-0.096H79.811z M82.536,31.644c0.009,0.062,0.022,0.125,0.039,0.191
				c0.017,0.061,0.031,0.128,0.04,0.201c0.008,0.072,0.013,0.157,0.013,0.254v3.791c0.101,0.079,0.208,0.147,0.323,0.204
				c0.101,0.053,0.22,0.099,0.359,0.138c0.138,0.04,0.293,0.059,0.464,0.059c0.25,0,0.461-0.067,0.632-0.201
				c0.171-0.133,0.311-0.322,0.418-0.566c0.108-0.244,0.184-0.529,0.23-0.856c0.046-0.327,0.069-0.684,0.069-1.07
				c0-0.386-0.023-0.744-0.069-1.073c-0.046-0.329-0.121-0.615-0.224-0.856c-0.103-0.242-0.236-0.43-0.398-0.566
				c-0.162-0.136-0.36-0.204-0.592-0.204c-0.342,0-0.617,0.063-0.823,0.188C82.811,31.404,82.65,31.525,82.536,31.644z"/>
			<path fill="#2B2E22" d="M87.902,33.79c0-0.456,0.073-0.888,0.221-1.293c0.147-0.406,0.36-0.757,0.639-1.053
				c0.278-0.296,0.619-0.53,1.02-0.701c0.401-0.171,0.853-0.257,1.353-0.257c0.504,0,0.955,0.086,1.353,0.257
				c0.398,0.171,0.737,0.405,1.015,0.701c0.278,0.296,0.492,0.647,0.641,1.05c0.149,0.404,0.224,0.836,0.224,1.297
				c0,0.456-0.075,0.887-0.224,1.29c-0.149,0.404-0.363,0.755-0.641,1.053c-0.278,0.298-0.617,0.532-1.015,0.701
				c-0.398,0.169-0.85,0.254-1.353,0.254c-0.505,0-0.957-0.084-1.356-0.254c-0.399-0.169-0.739-0.402-1.017-0.701
				c-0.279-0.298-0.492-0.649-0.639-1.053C87.975,34.677,87.902,34.246,87.902,33.79z M89.719,33.79c0,0.386,0.029,0.743,0.089,1.07
				c0.059,0.327,0.147,0.612,0.263,0.856c0.116,0.244,0.264,0.432,0.444,0.566c0.18,0.134,0.386,0.201,0.619,0.201
				c0.233,0,0.439-0.067,0.619-0.201c0.18-0.133,0.329-0.322,0.447-0.566c0.119-0.244,0.206-0.529,0.263-0.856
				c0.057-0.327,0.086-0.684,0.086-1.07c0-0.386-0.029-0.744-0.086-1.073c-0.057-0.329-0.145-0.615-0.263-0.856
				c-0.119-0.242-0.267-0.43-0.447-0.566c-0.18-0.136-0.387-0.204-0.619-0.204c-0.233,0-0.439,0.068-0.619,0.204
				c-0.18,0.136-0.328,0.325-0.444,0.566c-0.117,0.241-0.204,0.526-0.263,0.856C89.748,33.046,89.719,33.404,89.719,33.79z"/>
			<path fill="#2B2E22" d="M94.971,36.825c0-0.136,0.045-0.249,0.134-0.339c0.09-0.09,0.202-0.135,0.338-0.135h0.485
				c0.309-0.677,0.522-1.38,0.639-2.109c0.117-0.729,0.175-1.399,0.175-2.01c0-0.17-0.012-0.329-0.036-0.475
				c-0.024-0.146-0.071-0.273-0.141-0.38s-0.173-0.192-0.309-0.256c-0.136-0.063-0.312-0.095-0.526-0.095v-0.408h5.997v5.733h0.405
				c0.135,0,0.248,0.045,0.337,0.135c0.089,0.09,0.134,0.203,0.134,0.339v2.291h-0.671c-0.035-0.439-0.094-0.799-0.175-1.08
				c-0.081-0.28-0.184-0.501-0.31-0.661c-0.125-0.16-0.273-0.27-0.445-0.329c-0.171-0.059-0.365-0.089-0.58-0.089h-3.268
				c-0.215,0-0.408,0.029-0.58,0.089c-0.171,0.059-0.32,0.169-0.445,0.329c-0.126,0.16-0.229,0.38-0.31,0.658
				c-0.081,0.278-0.139,0.64-0.175,1.083h-0.671V36.825z M97.335,36.351h2.639v-5.128h-1.902c0,0.575-0.013,1.104-0.039,1.585
				c-0.026,0.481-0.068,0.926-0.126,1.335c-0.057,0.408-0.132,0.795-0.227,1.16C97.586,35.667,97.471,36.017,97.335,36.351z"/>
			<path fill="#2B2E22" d="M102.719,36.97v-0.29c0.189-0.044,0.388-0.148,0.599-0.313c0.211-0.164,0.43-0.405,0.658-0.725
				l1.666-2.395l-1.185-1.61c-0.18-0.244-0.382-0.418-0.606-0.522c-0.224-0.104-0.472-0.156-0.744-0.156v-0.342h0.27
				c0.478,0,0.857,0.088,1.136,0.264c0.278,0.176,0.547,0.437,0.806,0.78l1.501,2.004v-3.049h1.751v3.049l1.494-2.004
				c0.259-0.344,0.529-0.604,0.81-0.78c0.28-0.176,0.658-0.264,1.132-0.264h0.27v0.342c-0.268,0-0.515,0.052-0.741,0.156
				c-0.226,0.104-0.429,0.278-0.609,0.522l-1.185,1.61l1.672,2.395c0.224,0.319,0.441,0.561,0.652,0.725
				c0.211,0.164,0.41,0.268,0.599,0.313v0.29c-0.07,0.031-0.2,0.059-0.388,0.083c-0.189,0.024-0.369,0.035-0.54,0.035
				c-0.378,0-0.728-0.086-1.05-0.258c-0.323-0.172-0.642-0.487-0.958-0.944l-1.159-1.647v2.717h-1.751v-2.717l-1.159,1.647
				c-0.316,0.453-0.636,0.767-0.961,0.941c-0.325,0.174-0.676,0.261-1.053,0.261c-0.171,0-0.351-0.011-0.54-0.035
				C102.919,37.029,102.79,37.001,102.719,36.97z"/>
			<path fill="#2B2E22" d="M113.179,33.793c0-0.54,0.076-1.018,0.227-1.433c0.151-0.415,0.36-0.76,0.626-1.034
				s0.578-0.483,0.938-0.626c0.36-0.142,0.751-0.214,1.172-0.214c0.42,0,0.81,0.065,1.169,0.195c0.359,0.13,0.671,0.312,0.936,0.547
				c0.265,0.236,0.474,0.519,0.628,0.851c0.153,0.332,0.23,0.703,0.23,1.112c0,0.1-0.002,0.2-0.006,0.301
				c-0.004,0.1-0.011,0.192-0.019,0.274c-0.009,0.1-0.018,0.19-0.026,0.268h-4.055c0,0.891,0.138,1.522,0.415,1.893
				c0.276,0.371,0.634,0.556,1.073,0.556c0.464,0,0.842-0.107,1.133-0.322s0.553-0.481,0.785-0.796l0.42,0.309
				c-0.101,0.153-0.22,0.314-0.358,0.481c-0.138,0.167-0.308,0.32-0.509,0.461s-0.439,0.255-0.713,0.342
				c-0.273,0.088-0.594,0.131-0.962,0.131c-0.478,0-0.908-0.082-1.29-0.247s-0.708-0.394-0.978-0.691
				c-0.27-0.296-0.476-0.645-0.619-1.045C113.251,34.704,113.179,34.266,113.179,33.793z M114.996,33.428h2.291
				c0-0.449-0.028-0.822-0.085-1.119c-0.057-0.297-0.135-0.536-0.234-0.716c-0.099-0.181-0.218-0.309-0.359-0.387
				c-0.14-0.077-0.296-0.116-0.467-0.116c-0.154,0-0.3,0.039-0.438,0.116c-0.138,0.077-0.259,0.206-0.362,0.387
				c-0.103,0.18-0.187,0.419-0.25,0.716C115.028,32.606,114.996,32.979,114.996,33.428z"/>
			<path fill="#2B2E22" d="M119.525,31.025v-0.408h1.619c0.233,0,0.428,0.029,0.586,0.089c0.158,0.059,0.284,0.157,0.379,0.293
				c0.094,0.136,0.159,0.316,0.194,0.54c0.035,0.224,0.053,0.503,0.053,0.836v1.08h2.159v-2.837h1.751V35.2
				c0,0.403,0.056,0.729,0.168,0.977c0.112,0.248,0.37,0.372,0.774,0.372h0.138v0.408h-1.62c-0.233,0-0.428-0.027-0.586-0.082
				c-0.158-0.055-0.284-0.149-0.379-0.283c-0.094-0.133-0.159-0.312-0.194-0.536c-0.035-0.224-0.052-0.507-0.052-0.849V34.06h-2.159
				v2.896h-1.751v-4.582c0-0.403-0.056-0.729-0.168-0.977s-0.372-0.372-0.78-0.372H119.525z"/>
			<path fill="#2B2E22" d="M127.313,31.025v-0.408h1.619c0.233,0,0.428,0.029,0.586,0.089c0.158,0.059,0.284,0.157,0.379,0.293
				c0.094,0.136,0.159,0.316,0.194,0.54c0.035,0.224,0.053,0.503,0.053,0.836v1.08h2.159v-2.837h1.751V35.2
				c0,0.403,0.056,0.729,0.168,0.977c0.112,0.248,0.37,0.372,0.773,0.372h0.138v0.408h-1.62c-0.233,0-0.428-0.027-0.586-0.082
				c-0.158-0.055-0.284-0.149-0.379-0.283c-0.094-0.133-0.159-0.312-0.194-0.536c-0.035-0.224-0.052-0.507-0.052-0.849V34.06h-2.159
				v2.896h-1.751v-4.582c0-0.403-0.056-0.729-0.168-0.977c-0.112-0.248-0.372-0.372-0.78-0.372H127.313z"/>
			<path fill="#2B2E22" d="M135.315,37.022v-0.35c0.242-0.035,0.456-0.15,0.645-0.344c0.189-0.194,0.355-0.414,0.5-0.661
				l0.807-1.408c-0.477-0.07-0.854-0.258-1.132-0.566c-0.278-0.307-0.416-0.681-0.416-1.121c0-0.351,0.072-0.652,0.217-0.902
				c0.145-0.25,0.35-0.452,0.615-0.606c0.265-0.153,0.578-0.266,0.94-0.339c0.362-0.073,0.76-0.109,1.193-0.109h3.499v0.408h-0.066
				c-0.403,0-0.661,0.124-0.774,0.372c-0.112,0.248-0.168,0.574-0.168,0.977v4.582h-1.751V34.33h-0.595l-0.809,1.607
				c-0.101,0.207-0.207,0.386-0.316,0.536c-0.11,0.15-0.237,0.276-0.382,0.38c-0.145,0.104-0.309,0.181-0.494,0.232
				c-0.184,0.051-0.397,0.076-0.639,0.076c-0.171,0-0.336-0.014-0.494-0.043C135.539,37.089,135.412,37.057,135.315,37.022z
				 M137.536,32.441c0,0.478,0.128,0.823,0.383,1.034c0.256,0.21,0.555,0.316,0.898,0.316c0.172,0,0.316-0.018,0.433-0.056
				c0.117-0.037,0.175-0.052,0.175-0.043v-2.436c0,0.008-0.059-0.005-0.175-0.043c-0.117-0.037-0.261-0.056-0.433-0.056
				c-0.171,0-0.333,0.023-0.485,0.069c-0.152,0.046-0.287,0.119-0.406,0.217c-0.119,0.099-0.214,0.23-0.284,0.392
				C137.571,31.997,137.536,32.199,137.536,32.441z"/>
		</g>
		<g>
			<path fill="#8E9187" d="M60.402,50.655v-5.902h2.856v0.556h-2.19v5.345H60.402z"/>
			<path fill="#8E9187" d="M65.686,50.749c-0.521,0-0.906-0.257-1.069-0.761h-0.017v2.497h-0.581v-5.902h0.581v0.693h0.017
				c0.137-0.479,0.564-0.787,1.06-0.787c1.172,0,1.394,1.146,1.394,2.095C67.071,49.466,66.798,50.749,65.686,50.749z
				 M65.558,46.977c-0.744,0-0.958,1.052-0.958,1.625c0,0.573,0.171,1.659,0.941,1.659c0.795,0,0.864-1.223,0.864-1.788
				C66.404,47.909,66.302,46.977,65.558,46.977z"/>
			<path fill="#8E9187" d="M69.499,50.749c-1.266,0-1.659-1.018-1.659-2.121c0-1.095,0.393-2.138,1.659-2.138
				c1.275,0,1.677,1.043,1.677,2.138C71.175,49.74,70.773,50.749,69.499,50.749z M69.499,46.977c-0.847,0-0.992,0.992-0.992,1.642
				s0.145,1.642,0.992,1.642c0.855,0,1.01-0.984,1.01-1.642S70.346,46.977,69.499,46.977z"/>
			<path fill="#8E9187" d="M75.724,50.655v-3.413c-0.419,1.146-0.83,2.275-1.232,3.413h-0.505l-1.223-3.413h-0.017v3.413h-0.505
				v-4.071h0.829c0.393,1.103,0.787,2.19,1.172,3.293c0.402-1.095,0.804-2.198,1.197-3.293h0.83v4.071H75.724z"/>
			<path fill="#8E9187" d="M79.673,50.655v-0.539h-0.017c-0.222,0.428-0.795,0.633-1.249,0.633c-0.71,0-1.095-0.445-1.095-1.138
				c0-0.932,1.189-1.266,1.941-1.266c0.137,0,0.265,0,0.402-0.026v-0.086c0-0.607,0.034-1.257-0.77-1.257
				c-0.488,0-0.761,0.162-0.83,0.65h-0.65c0.026-0.812,0.727-1.138,1.462-1.138c0.924,0,1.369,0.393,1.369,1.309v2.856H79.673z
				 M79.313,48.807c-0.513,0-1.334,0.214-1.334,0.864c0,0.342,0.231,0.59,0.573,0.59c0.393,0,0.787-0.265,0.949-0.633
				c0.137-0.299,0.154-0.479,0.154-0.821H79.313z"/>
			<path fill="#8E9187" d="M81.587,50.655v0.932h-0.564v-1.428h0.316c0.342-0.582,0.479-1.445,0.479-2.181v-1.394h2.421v3.575h0.41
				v1.428h-0.564v-0.932H81.587z M82.357,47.071v0.906c0,0.676-0.103,1.574-0.445,2.181h1.745v-3.088H82.357z"/>
			<path fill="#8E9187" d="M87.897,47.824c0-0.479-0.214-0.847-0.727-0.847c-0.744,0-0.967,0.812-0.967,1.42
				c0,1.052,0.462,1.864,1.617,1.864c0.231,0,0.453-0.017,0.658-0.086v0.462c-0.282,0.077-0.547,0.111-0.847,0.111
				c-1.403,0-2.095-0.855-2.095-2.224c0-1.112,0.41-2.036,1.659-2.036c0.855,0,1.394,0.453,1.394,1.334H87.897z"/>
			<path fill="#8E9187" d="M90.051,48.303h0.719c0.787,0,1.42,0.248,1.42,1.129c0,0.915-0.675,1.223-1.505,1.223H89.47v-4.071h0.581
				V48.303z M90.633,48.791h-0.582v1.377h0.582c0.573,0,0.941-0.154,0.941-0.718C91.573,48.893,91.163,48.791,90.633,48.791z"/>
			<path fill="#8E9187" d="M94.317,48.431c0.633,0.06,0.941,0.291,1.257,1.249l0.325,0.975h-0.633l-0.299-0.924
				c-0.223-0.692-0.445-0.889-1.103-0.889H93.71v1.813h-0.581v-4.071h0.581v1.83l1.471-1.83h0.701L94.317,48.431z"/>
			<path fill="#8E9187" d="M98.875,50.655v-0.539h-0.017c-0.222,0.428-0.795,0.633-1.249,0.633c-0.71,0-1.095-0.445-1.095-1.138
				c0-0.932,1.189-1.266,1.941-1.266c0.137,0,0.265,0,0.402-0.026v-0.086c0-0.607,0.034-1.257-0.77-1.257
				c-0.488,0-0.761,0.162-0.83,0.65h-0.65c0.026-0.812,0.727-1.138,1.462-1.138c0.924,0,1.369,0.393,1.369,1.309v2.856H98.875z
				 M98.515,48.807c-0.513,0-1.334,0.214-1.334,0.864c0,0.342,0.231,0.59,0.573,0.59c0.393,0,0.787-0.265,0.949-0.633
				c0.137-0.299,0.154-0.479,0.154-0.821H98.515z"/>
			<path fill="#8E9187" d="M104.337,50.749c-1.266,0-1.659-1.018-1.659-2.121c0-1.095,0.393-2.138,1.659-2.138
				c1.275,0,1.677,1.043,1.677,2.138C106.013,49.74,105.611,50.749,104.337,50.749z M104.337,46.977
				c-0.847,0-0.992,0.992-0.992,1.642s0.145,1.642,0.992,1.642c0.855,0,1.01-0.984,1.01-1.642S105.183,46.977,104.337,46.977z"/>
			<path fill="#8E9187" d="M108.749,50.749c-0.521,0-0.906-0.257-1.069-0.761h-0.017v2.497h-0.581v-5.902h0.581v0.693h0.017
				c0.137-0.479,0.564-0.787,1.06-0.787c1.172,0,1.394,1.146,1.394,2.095C110.134,49.466,109.861,50.749,108.749,50.749z
				 M108.621,46.977c-0.744,0-0.958,1.052-0.958,1.625c0,0.573,0.171,1.659,0.941,1.659c0.795,0,0.864-1.223,0.864-1.788
				C109.467,47.909,109.365,46.977,108.621,46.977z"/>
			<path fill="#8E9187" d="M113.391,46.584v0.488h-1.617v3.584h-0.581v-4.071H113.391z"/>
			<path fill="#8E9187" d="M116.169,50.655v-0.539h-0.017c-0.222,0.428-0.795,0.633-1.249,0.633c-0.71,0-1.095-0.445-1.095-1.138
				c0-0.932,1.189-1.266,1.941-1.266c0.137,0,0.265,0,0.402-0.026v-0.086c0-0.607,0.034-1.257-0.77-1.257
				c-0.488,0-0.761,0.162-0.83,0.65h-0.65c0.026-0.812,0.727-1.138,1.463-1.138c0.923,0,1.368,0.393,1.368,1.309v2.856H116.169z
				 M115.81,48.807c-0.513,0-1.334,0.214-1.334,0.864c0,0.342,0.231,0.59,0.573,0.59c0.393,0,0.787-0.265,0.949-0.633
				c0.137-0.299,0.154-0.479,0.154-0.821H115.81z"/>
			<path fill="#8E9187" d="M120.914,50.655h-0.581v-1.856h-1.702v1.856h-0.581v-4.071h0.581v1.711h1.702v-1.711h0.573
				L120.914,50.655z"/>
			<path fill="#8E9187" d="M122.238,45.523v-0.77h0.77v0.77H122.238z M122.333,50.655v-4.071h0.581v4.071H122.333z"/>
			<path fill="#8E9187" d="M123.922,47.499c0.086-0.556,0.462-1.01,1.377-1.01c0.838,0,1.266,0.471,1.266,1.052
				c0,0.445-0.222,0.813-0.701,0.967c0.573,0.111,0.847,0.488,0.847,0.992c0,0.778-0.59,1.24-1.591,1.24
				c-0.513,0-0.915-0.112-1.214-0.231v-0.582c0.385,0.206,0.787,0.334,1.214,0.334c0.471,0,0.967-0.162,0.967-0.727
				c0-0.59-0.453-0.727-0.881-0.744h-0.633v-0.479h0.625c0.488,0,0.753-0.291,0.753-0.684c0-0.359-0.197-0.658-0.701-0.658
				c-0.41,0-0.658,0.171-0.71,0.53H123.922z"/>
			<path fill="#8E9187" d="M129.831,50.655v-0.539h-0.017c-0.222,0.428-0.795,0.633-1.249,0.633c-0.71,0-1.095-0.445-1.095-1.138
				c0-0.932,1.189-1.266,1.941-1.266c0.137,0,0.265,0,0.402-0.026v-0.086c0-0.607,0.034-1.257-0.77-1.257
				c-0.488,0-0.761,0.162-0.83,0.65h-0.65c0.026-0.812,0.727-1.138,1.462-1.138c0.924,0,1.369,0.393,1.369,1.309v2.856H129.831z
				 M129.471,48.807c-0.513,0-1.334,0.214-1.334,0.864c0,0.342,0.231,0.59,0.573,0.59c0.393,0,0.787-0.265,0.949-0.633
				c0.137-0.299,0.154-0.479,0.154-0.821H129.471z"/>
			<path fill="#8E9187" d="M131.711,46.584h0.581v3.575h1.702v-3.575h0.581v3.575h0.402v1.437h-0.556v-0.941h-2.703L131.711,46.584z
				"/>
			<path fill="#8E9187" d="M136.114,45.523v-0.77h0.77v0.77H136.114z M136.208,50.655v-4.071h0.581v4.071H136.208z"/>
			<path fill="#8E9187" d="M138.944,48.756c-0.556-0.111-0.838-0.471-0.838-1.001c0-0.736,0.487-1.172,1.462-1.172h1.12v4.071
				h-0.581v-1.71h-0.342c-0.522,0-0.77,0.162-0.924,0.727l-0.273,0.984h-0.625l0.282-1.001c0.145-0.53,0.299-0.736,0.718-0.881
				V48.756z M140.107,47.063h-0.514c-0.675,0-0.872,0.316-0.872,0.701c0,0.693,0.633,0.675,1.043,0.675h0.342V47.063z"/>
		</g>
		<g>
			<path fill="#857362" d="M115.719,18.379c0.929-0.592,3.383,0.05,4.033,0.898s0.423,2.015-0.506,2.607
				c-0.929,0.592-2.209,0.386-2.858-0.462S114.79,18.972,115.719,18.379z"/>
		</g>
		<g>
			<path fill="#C4B17A" d="M124.16,20.149c0.295-1.062,2.55-2.224,3.599-2.028c1.05,0.196,1.661,1.216,1.366,2.278
				s-1.385,1.763-2.435,1.567C125.641,21.769,123.865,21.21,124.16,20.149z"/>
		</g>
		<g>
			<path fill="#B9C4A7" d="M136.589,17.524c0.829,0.726,0.899,3.262,0.267,4.123c-0.632,0.861-1.816,0.97-2.645,0.244
				c-0.829-0.726-0.988-2.013-0.357-2.873C134.486,18.157,135.76,16.798,136.589,17.524z"/>
		</g>
	</g>
</g>
</svg>
