<?xml version="1.0" encoding="utf-8"?>
<!-- Generator: Adobe Illustrator 17.0.0, SVG Export Plug-In . SVG Version: 6.00 Build 0)  -->
<!DOCTYPE svg PUBLIC "-//W3C//DTD SVG 1.1//EN" "http://www.w3.org/Graphics/SVG/1.1/DTD/svg11.dtd">
<svg version="1.1" id="Слой_1" xmlns="http://www.w3.org/2000/svg" xmlns:xlink="http://www.w3.org/1999/xlink" x="0px" y="0px"
	 width="269.877px" height="471.687px" viewBox="0 0 269.877 471.687" enable-background="new 0 0 269.877 471.687"
	 xml:space="preserve">
<g>
	<g>
		<path fill="#9F7D5D" d="M30.383,254.179c0.278-0.863,0.307-1.698,0.335-2.483c0.06-1.636,0.115-3.056,2.399-4.072
			c2.155-0.958,4.452,0.318,6.512-1.349c0.939-0.759,1.257,0.742,1.76,1.095c0.784,0.55,1.433,0.744,2.5,0.942
			c0.221,4.98-1.79,9.207-4.642,13.243c-0.653,0.925-9.565,10.281-8.578,10.946c-3.274-2.206-4.392-6.699-4.672-10.409
			C25.605,256.915,29.042,258.358,30.383,254.179z"/>
		<path fill="#896B54" d="M45.919,224.069c2.583-1.224,6.047-1.286,8.762-0.581c1.141,0.297,2.26,0.751,3.259,1.394
			c2.395,1.548,3.409,3.844,3.237,6.741c-0.085,1.411-0.378,3.158-1.226,4.315c-0.627-2.075-0.634-3.697-2.261-5.282
			c-0.845-0.822-1.782-1.49-2.777-2.05c-1.758-0.987-3.693-1.643-5.63-2.24c-0.916-0.283-1.951-0.515-2.895-0.58
			c-0.516-0.036-1.832,0.331-2.243-0.013C43.459,225.201,45.433,224.298,45.919,224.069z"/>
		<path fill="#CF9381" d="M42.761,245.133c0.101-1.292-0.474-7.96-0.078-9.16c1.102-3.342,7.693,1.644,9.791,2.589
			c1.079,0.487,2.405,1.386,3.306,2.237c1.753,1.653,2.568,1.167,2.059,3.325c-1.059,4.47-0.205,10.913,0.378,15.532
			c0.121,0.946,0.73,2.497,0.7,3.369c-0.042,1.17-1.221,2.116-1.89,3.106c-1.98,2.927-4.897,3.829-8.098,3.284
			c-2.067-0.353-4.827-1.42-6.438-3.197c-1.399-1.546-1.55-3.598-3.619-4.205C43.018,262.574,42.519,248.245,42.761,245.133z"/>
		<polygon fill="#DEDDE5" points="49.159,249.56 49.111,249.544 49.151,249.556 		"/>
		<path fill="#A3857E" d="M46.685,229.775c0.07,0.084,0.14,0.18,0.205,0.282L46.685,229.775z"/>
		<path fill="#A3857E" d="M46.343,229.429c-0.011-0.058-0.02-0.116-0.033-0.168l0.375,0.514
			C46.574,229.639,46.459,229.525,46.343,229.429z"/>
		<path fill="#CF9381" d="M46.203,242.684c0.096,0.116,0.182,0.238,0.258,0.365c-0.092-0.131-0.188-0.26-0.296-0.387
			c-0.027-0.033-0.055-0.065-0.084-0.099l0.03,0.016C46.142,242.612,46.174,242.648,46.203,242.684z"/>
		<path fill="#DF9F83" d="M41.315,235.644c0.667-0.378,1.578-0.16,2.123-0.771c0.854-0.959,1.165-2.654,1.182-3.91
			c0.026-1.837,0.212-3.706,0.932-5.409c0.844-1.988,2.691-1.674,4.118-0.889c1.077,0.593,2.343,0.395,3.445,0.86
			c0.821,0.346,1.466,0.735,2.354,0.976c1.516,0.411,2.928,1.057,3.715,2.3c0.268,0.426,0.464,0.922,0.567,1.502
			c0.354,2.029-0.011,4.263,0.729,6.142c1.036,2.637-0.644,5.853-1.591,8.327c-0.242,0.637-0.527,1.447-0.88,2.26
			c-0.83,1.916-1.734,3.237-3.788,3.421c-1.68,0.15-3.241-0.625-4.757-1.275c-1.836-0.787-3.796-1.934-4.856-3.775
			c-0.891-1.551-1.005-3.609-2.721-4.49c-1.23-0.63-1.949-2.328-1.681-3.68C40.337,236.569,40.721,235.981,41.315,235.644z"/>
		<path fill="#A28061" d="M50.287,232.033c0.681-0.023,1.237-0.234,1.89-0.401c-0.005,0.998-1.349,1.65-1.232,1.662
			c-0.159-0.013-1.706-0.303-2.46-0.391c-0.247-0.028-0.407-0.036-0.411-0.005C48.225,231.931,49.62,232.055,50.287,232.033z"/>
		<path fill="#BE8678" d="M42.539,237.58c0.074,0.62,0.09,1.261,0.128,1.887l-0.815-0.156
			C41.594,238.577,41.355,237.361,42.539,237.58z"/>
		<path fill="#A28061" d="M58.642,232.182c0.706,0.321,1.224,0.425,0.888,1.32c0.058-0.149-1.827-0.373-1.967-0.412
			c-0.246-0.068-0.423-0.157-0.546-0.266c-0.371-0.327-0.276-0.834-0.074-1.483C56.77,231.908,57.509,231.677,58.642,232.182z"/>
		<polygon fill="#D2ADA3" points="47.858,238.022 47.855,238.019 47.861,238.022 		"/>
		<path fill="#D6B6AD" d="M44.614,235.088l-0.011-0.033L44.614,235.088z"/>
		<path fill="#DF8778" d="M47.184,238.762c0.573-0.976,3.425-0.329,2.56,1.378c-0.689,1.361-3.547,0.084-2.58-1.35
			C47.101,238.91,47.153,238.817,47.184,238.762z"/>
		<path fill="#9F7D5D" d="M44.304,234.844c0.32,1.335,0.512,2.864,1.013,4.216c0.228,0.613,0.519,1.19,0.913,1.696
			c1.611,2.07,4.369,0.859,6.534,0.788c1.92-0.062,3.746,1.058,5.673,0.906c2.215-0.175,2.463-3.045,2.309-4.768
			c0.697,0.901,1.011,2.301,1.005,3.435c-0.008,1.604-0.437,3.183-0.757,4.744c-0.435,2.129-0.889,4.468-2.473,6.079
			c-2.506,2.551-7.065,1.816-9.533-0.251c-1.747-1.463-2.906-3.533-3.614-5.702c-0.725-2.228-1.575-4.423-1.993-6.74
			c-0.163-0.903-0.431-1.872-0.355-2.796C43.05,236.14,44.119,234.083,44.304,234.844z"/>
		<path fill="#D7B898" d="M48.317,243.698c0.088-0.184,0.319-0.247,0.489-0.149c0.173,0.101,0.229,0.33,0.14,0.513l-0.137,0.286
			c-0.088,0.184-0.319,0.245-0.487,0.149c-0.176-0.102-0.232-0.33-0.142-0.516L48.317,243.698z"/>
		<path fill="#D7B898" d="M48.505,245.831l0.045,0.048c0.137,0.146,0.15,0.384,0.012,0.536c-0.134,0.147-0.371,0.16-0.508,0.013
			l-0.046-0.048c-0.137-0.146-0.15-0.383-0.011-0.537C48.13,245.699,48.368,245.684,48.505,245.831z"/>
		<path fill="#D7B898" d="M48.457,247.403c0.173-0.056,0.411,0.05,0.451,0.252c0.039,0.227,0.093,0.449,0.174,0.665
			c0.07,0.193-0.063,0.415-0.241,0.474c-0.197,0.063-0.378-0.06-0.448-0.254c-0.079-0.216-0.134-0.437-0.176-0.663
			C48.179,247.675,48.256,247.469,48.457,247.403z"/>
		<path fill="#D7B898" d="M49.155,249.774c0.193-0.063,0.381,0.057,0.448,0.251l0.001,0.006l0.014,0.027l0.005,0.008l0.001,0
			l0.058,0.055l0.014,0.011l0.003,0.005c0.162,0.116,0.244,0.319,0.143,0.514c-0.087,0.168-0.327,0.268-0.489,0.151
			c-0.201-0.148-0.354-0.309-0.438-0.557C48.85,250.052,48.972,249.833,49.155,249.774z"/>
		<path fill="#D7B898" d="M50.2,242.942c0.178,0.102,0.231,0.331,0.142,0.515l-0.036,0.09l-0.011,0.041v0.005
			c-0.006,0.206-0.143,0.384-0.348,0.391c-0.185,0.008-0.378-0.158-0.372-0.364c0.007-0.195,0.055-0.357,0.137-0.528
			C49.802,242.907,50.034,242.846,50.2,242.942z"/>
		<path fill="#D7B898" d="M49.876,244.658c0.19,0.046,0.31,0.255,0.266,0.455c-0.025,0.108-0.028,0.141-0.033,0.228
			c-0.005,0.095-0.007,0.192-0.007,0.288c-0.002,0.205-0.144,0.384-0.345,0.392c-0.191,0.007-0.376-0.159-0.375-0.364
			c0.003-0.239,0.007-0.483,0.061-0.716C49.487,244.738,49.684,244.609,49.876,244.658z"/>
		<path fill="#D7B898" d="M49.9,246.875c0.191-0.007,0.373,0.158,0.373,0.365c0,0.055-0.001,0.11,0.004,0.166v0.008l0.004,0.01
			l0.019,0.051c0.077,0.19-0.067,0.419-0.238,0.472c-0.205,0.067-0.371-0.062-0.449-0.25c-0.055-0.133-0.058-0.286-0.058-0.43
			C49.553,247.061,49.698,246.881,49.9,246.875z"/>
		<path fill="#D7B898" d="M50.449,249.034c0.128-0.14,0.376-0.166,0.506-0.012c0.043,0.05,0.086,0.104,0.119,0.159
			c0.014,0.021,0.086,0.115,0.014,0.032c0.134,0.153,0.158,0.377,0.014,0.536c-0.128,0.14-0.378,0.166-0.507,0.011
			c-0.044-0.049-0.083-0.103-0.118-0.158c-0.014-0.022-0.086-0.115-0.017-0.031C50.33,249.417,50.307,249.192,50.449,249.034z"/>
		<path fill="#D7B898" d="M51.322,251.288c0.166,0.091,0.336,0.221,0.426,0.395c0.102,0.193,0.059,0.435-0.124,0.555
			c-0.173,0.112-0.425,0.061-0.527-0.132l-0.005-0.011l-0.043-0.04l-0.027-0.022l-0.067-0.038c-0.186-0.104-0.25-0.359-0.153-0.549
			C50.905,251.254,51.138,251.186,51.322,251.288z"/>
		<path fill="#D7B898" d="M58.212,250.6c0.137-0.146,0.368-0.156,0.509-0.012c0.14,0.142,0.149,0.389,0.012,0.537
			c-0.099,0.104-0.176,0.225-0.271,0.329c-0.138,0.149-0.366,0.158-0.509,0.012c-0.141-0.141-0.147-0.387-0.011-0.534
			C58.038,250.827,58.115,250.705,58.212,250.6z"/>
		<path fill="#D7B898" d="M58.977,249.028c0.108-0.174,0.307-0.256,0.489-0.15c0.162,0.093,0.246,0.341,0.141,0.515
			c-0.039,0.068-0.08,0.138-0.109,0.213l-0.005,0.016l-0.004,0.009c-0.01,0.031-0.021,0.061-0.03,0.091
			c-0.064,0.197-0.229,0.334-0.433,0.281c-0.178-0.042-0.331-0.259-0.269-0.455C58.82,249.367,58.877,249.186,58.977,249.028z"/>
		<path fill="#D7B898" d="M46.567,244.566l0.002-0.014c0.004-0.036,0.004-0.073,0.004-0.11c0-0.206,0.144-0.384,0.346-0.391
			c0.189-0.007,0.373,0.157,0.371,0.365c-0.001,0.184-0.018,0.356-0.09,0.527c-0.079,0.188-0.326,0.243-0.489,0.149
			c-0.182-0.105-0.222-0.325-0.142-0.515C46.531,244.67,46.562,244.592,46.567,244.566z"/>
		<path fill="#D7B898" d="M51.202,246.852c0.173-0.055,0.41,0.05,0.448,0.253c0.047,0.234,0.114,0.463,0.227,0.67
			c0.231,0.425-0.379,0.824-0.612,0.399c-0.143-0.263-0.247-0.551-0.303-0.847C50.921,247.124,51.002,246.917,51.202,246.852z"/>
		<path fill="#D7B898" d="M51.917,250.449c0.054,0.027,0.102,0.061,0.153,0.091l0.074,0.044c0.016,0.008,0.11,0.046,0.016,0.014
			c0.204,0.067,0.347,0.227,0.288,0.447c-0.047,0.18-0.281,0.351-0.481,0.283c-0.105-0.035-0.2-0.069-0.289-0.126
			c-0.051-0.033-0.101-0.065-0.154-0.092c-0.188-0.095-0.255-0.327-0.148-0.506C51.481,250.424,51.729,250.354,51.917,250.449z"/>
		<path fill="#D7B898" d="M53.831,250.414l0.622,0.004c0.207,0.001,0.388,0.162,0.395,0.389c0.007,0.212-0.16,0.419-0.368,0.418
			l-0.622-0.004c-0.209-0.003-0.39-0.163-0.396-0.389C53.454,250.62,53.621,250.414,53.831,250.414z"/>
		<path fill="#D7B898" d="M56.264,250.101c0.043-0.022,0.085-0.043,0.126-0.068l0.055-0.042l0.019-0.017
			c0.143-0.141,0.362-0.16,0.508-0.013c0.136,0.137,0.155,0.394,0.012,0.535c-0.105,0.104-0.215,0.184-0.343,0.25
			c-0.175,0.091-0.386,0.064-0.495-0.124C56.051,250.458,56.089,250.192,56.264,250.101z"/>
		<path fill="#D7B898" d="M57.349,248.954l0.005-0.005l0.044-0.074c0.044-0.079,0.096-0.155,0.155-0.22
			c0.133-0.15,0.367-0.155,0.505-0.012c0.144,0.143,0.149,0.384,0.014,0.535l-0.026,0.029l-0.003,0.007l-0.044,0.075
			c-0.046,0.077-0.094,0.153-0.155,0.22c-0.132,0.149-0.367,0.154-0.508,0.012c-0.14-0.143-0.146-0.385-0.009-0.536L57.349,248.954z
			"/>
		<path fill="#D7B898" d="M59.456,247.485l0.022-0.057l0.027-0.066c0.064-0.196,0.226-0.334,0.431-0.28
			c0.178,0.043,0.332,0.259,0.267,0.454c-0.03,0.086-0.059,0.172-0.093,0.255l-0.023,0.058l-0.024,0.066
			c-0.064,0.195-0.224,0.333-0.43,0.281c-0.175-0.044-0.332-0.261-0.266-0.455C59.394,247.656,59.424,247.569,59.456,247.485z"/>
		<path fill="#D7B898" d="M59.094,245.375c0.188-0.009,0.372,0.158,0.372,0.364l-0.002,0.332c0,0.206-0.145,0.386-0.347,0.393
			c-0.19,0.006-0.374-0.158-0.372-0.366l0.001-0.33C58.748,245.561,58.893,245.381,59.094,245.375z"/>
		<path fill="#D7B898" d="M47.053,246.7c0.464,0.002,0.489,0.76,0.027,0.758C46.615,247.455,46.591,246.697,47.053,246.7z"/>
		<path fill="#D7B898" d="M52.453,249.402c0.14,0.078,0.275,0.18,0.389,0.297c0.139,0.145,0.15,0.387,0.013,0.536
			c-0.134,0.148-0.37,0.158-0.509,0.013c-0.027-0.028-0.056-0.056-0.086-0.08l-0.014-0.014l-0.005-0.003
			c-0.044-0.03-0.087-0.058-0.132-0.083c-0.172-0.097-0.236-0.337-0.142-0.516C52.061,249.367,52.28,249.306,52.453,249.402z"/>
		<path fill="#D7B898" d="M54.627,249.151l0.057-0.005l0.033-0.008l0.03-0.016l0.01-0.007c0.142-0.127,0.348-0.144,0.491,0.001
			c0.135,0.135,0.156,0.395,0.012,0.535c-0.171,0.165-0.378,0.252-0.609,0.256c-0.195,0.005-0.365-0.155-0.371-0.363
			C54.272,249.34,54.43,249.155,54.627,249.151z"/>
		<path fill="#D7B898" d="M56.249,248.447l0.029-0.05c0.09-0.181,0.317-0.248,0.486-0.15c0.175,0.1,0.235,0.333,0.143,0.516
			c-0.052,0.098-0.115,0.189-0.189,0.269c-0.141,0.145-0.367,0.156-0.508,0.011c-0.138-0.14-0.153-0.39-0.014-0.536L56.249,248.447z
			"/>
		<path fill="#D7B898" d="M58.16,246.993c0.084-0.184,0.321-0.244,0.486-0.149c0.179,0.103,0.229,0.33,0.144,0.514l-0.035,0.08
			l-0.006,0.016l-0.006,0.014c-0.019,0.058-0.038,0.115-0.057,0.173c-0.062,0.197-0.227,0.332-0.433,0.282
			c-0.176-0.044-0.328-0.26-0.266-0.457C58.038,247.308,58.09,247.147,58.16,246.993z"/>
		<path fill="#D7B898" d="M53.536,248.276c0.068,0.024,0.134,0.048,0.2,0.065c0.032,0.008,0.064,0.016,0.095,0.021h0.012
			c0.197,0.008,0.366,0.149,0.373,0.365c0.006,0.196-0.152,0.4-0.348,0.393c-0.176-0.006-0.335-0.047-0.499-0.106
			c-0.187-0.068-0.316-0.241-0.267-0.457C53.145,248.371,53.35,248.209,53.536,248.276z"/>
		<path fill="#D7B898" d="M59.849,244.846l0.004-0.004c0.04-0.184,0.184-0.319,0.387-0.291c0.186,0.025,0.371,0.218,0.339,0.417
			c-0.024,0.167-0.084,0.313-0.206,0.426c-0.143,0.132-0.394,0.088-0.519-0.064c-0.125-0.15-0.116-0.34-0.01-0.474
			C59.849,244.83,59.856,244.799,59.849,244.846z"/>
		<path fill="#827076" d="M52.562,245.328c0.462,0.005,0.489,0.761,0.026,0.759C52.125,246.083,52.097,245.326,52.562,245.328z"/>
		<path fill="#D7B898" d="M53.599,252.064l0.622,0.005c0.209,0.001,0.389,0.162,0.396,0.389c0.005,0.211-0.161,0.419-0.369,0.417
			l-0.622-0.004c-0.209-0.001-0.389-0.161-0.396-0.388C53.223,252.27,53.391,252.063,53.599,252.064z"/>
		<path fill="#D7B898" d="M55.852,251.394c0.046-0.023,0.088-0.044,0.133-0.072l0.06-0.043l0.022-0.02
			c0.15-0.15,0.383-0.171,0.539-0.012c0.146,0.145,0.165,0.419,0.014,0.57c-0.112,0.11-0.23,0.193-0.366,0.264
			c-0.186,0.098-0.407,0.07-0.524-0.131C55.628,251.776,55.667,251.493,55.852,251.394z"/>
		<path fill="#DF9F83" d="M51.449,243.03c1.359-0.33,4.667-1.652,5.796,0.028c0.63,0.938-0.005,2.781-0.822,3.357
			c-0.814,0.574-2.013,0.507-2.935,0.217c-1.393-0.44-3.273-1.841-2.508-3.481L51.449,243.03z"/>
		<path fill="#D2937F" d="M51.272,242.196c0.264-0.006-0.03,0.711-0.219,0.774c-0.026,0.008-0.055,0.012-0.084,0.008
			C50.937,242.975,51.111,242.202,51.272,242.196z"/>
		<path fill="#D2937F" d="M57.353,242.23c0.018-0.017,0.417,0.481,0.339,0.587c-0.127,0.174-0.429-0.373-0.375-0.526L57.353,242.23z
			"/>
		<path fill="#DF8778" d="M57.609,238.822c0.43-0.657,2.59-0.221,1.935,0.93c-0.519,0.914-2.683,0.053-1.954-0.911
			C57.545,238.92,57.584,238.857,57.609,238.822z"/>
		<path fill="#9F7D5D" d="M45.158,222.958c1.002-0.247,2.094-0.382,3.183-0.364c1.305,0.019,2.608,0.262,3.74,0.801
			c1.364,0.647,2.246,1.543,2.782,2.957c-3.426,0.171-7.212,0.928-9.049,4.271c-0.607,1.101-0.799,2.247-0.964,3.463
			c-0.084,0.631-0.105,2.183-0.853,2.436c-0.228,0.077-1.248-0.618-1.685-0.641c-3.187-0.173-2.235,5.13,0.342,5.054
			c0.253,1.114,1.725,5.499,0.507,6.311c-1.512,1.008-4.298-1.409-4.985-2.544c-1.318-2.176-1.761-5.278-1.815-7.789
			c-0.049-2.194,0.205-4.413,0.82-6.518C38.373,226.328,41.143,223.945,45.158,222.958z"/>
		<path fill="#2B3340" d="M43.01,247.282c0.318,0.48,0.233,0.776-0.573,0.994c-1.163,0.319-4.72-1.029-3.691-2.185
			C39.523,245.217,42.6,246.662,43.01,247.282z"/>
		<path fill="#CDA376" d="M59.642,227.002c0.379,0.168,0.692,0.536,0.874,0.907c0.266,0.538-0.564,0.915-0.83,0.377
			c-0.002-0.006-0.061-0.106-0.033-0.069l-0.05-0.069c-0.041-0.053-0.083-0.109-0.132-0.157l-0.052-0.054l-0.035-0.029l-0.062-0.044
			c-0.226-0.105-0.355-0.352-0.269-0.593C59.137,227.042,59.409,226.901,59.642,227.002z"/>
		<path fill="#C2897C" d="M41.428,256.017c0.644-2.459,0.556-5.084,0.961-7.586c0.363-2.247,0.258-4.491,0.566-6.687
			c0.307,1.64,2.143,3.233,2.856,4.782c0.782,1.699,1.389,3.612,2.835,4.87c2.181,1.898,5.658,2.869,8.668,1.466
			c0.008-0.005-0.602,1.43-0.908,1.67c-0.743,0.581-1.875,0.587-2.759,0.667c-4.168,0.378-6.96-5.349-8.344,0.041
			c-0.77,2.993-2.198,9.666-6.239,5.296C39.515,261.025,41.341,256.35,41.428,256.017z"/>
		<path fill="#50484C" d="M49.05,235.017c0.66-0.472,1.501-0.562,2.096-0.222c0.37,0.213,0.968,0.784,0.813,2.222l-0.622-0.066
			c0.087-0.807-0.093-1.383-0.505-1.62c-0.382-0.217-0.951-0.143-1.414,0.189c-0.486,0.347-0.71,0.872-0.596,1.404l-0.613,0.127
			C48.044,236.271,48.358,235.513,49.05,235.017z"/>
		<path fill="#50484C" d="M56.946,235.495c0.593-0.423,1.347-0.503,1.877-0.198c0.333,0.19,0.87,0.701,0.729,1.991l-0.556-0.058
			c0.077-0.725-0.084-1.241-0.454-1.453c-0.342-0.195-0.852-0.128-1.267,0.168c-0.435,0.312-0.635,0.783-0.534,1.26l-0.549,0.114
			C56.043,236.62,56.325,235.939,56.946,235.495z"/>
		<path fill="#FFFFFF" d="M56.894,243.339c0.013,0.102,0.02,0.204,0.023,0.304c0.05,1.385-0.775,2.529-2.459,2.258
			c-1.131-0.182-3.109-1.114-2.834-2.421C51.755,242.869,56.924,243.576,56.894,243.339z"/>
		<path fill="#BA9577" d="M56.645,241.123c1.141,0.122,2.372,0.482,3.508,0.457c0.192,1.741-0.394,2.434-1.909,2.557
			c-0.883,0.072-1.921-0.452-2.466-1.312C54.931,241.481,55.651,241.019,56.645,241.123z"/>
		<path fill="#BA9577" d="M50.203,240.928c1.072,0.119,2.129,0.231,3.209,0.043c0.782-0.138,1.918-0.632,2.518,0.257
			c0.579,0.864-0.287,2.275-1.095,2.608c-0.804,0.334-2.02,0.47-2.979,0.22c-0.264-0.068-0.487-0.211-0.718-0.299
			C50.342,243.457,49.42,240.842,50.203,240.928z"/>
		<path fill="#D2937F" d="M55.41,235.42c0.338,0.927,0.242,1.986,0.527,2.943c0.096,0.315,0.308,0.597,0.53,0.862
			c0.295,0.353,0.612,0.675,0.699,0.999c0.529,1.996-1.981,1.459-2.655,0.343C54.002,239.724,53.712,235.209,55.41,235.42z"/>
		<path fill="#D7B898" d="M50.924,241.385c0.09,0.003,0.178,0.013,0.264,0.029c0.033,0.006,0.068,0.014,0.1,0.02l0.017,0.001
			l0.023,0c0.194,0.005,0.363,0.149,0.372,0.366c0.005,0.195-0.153,0.398-0.348,0.392c-0.09-0.003-0.178-0.013-0.266-0.029
			c-0.033-0.006-0.065-0.012-0.1-0.017l-0.017-0.003H50.95c-0.197-0.006-0.366-0.148-0.371-0.365
			C50.572,241.582,50.727,241.378,50.924,241.385z"/>
		<path fill="#D7B898" d="M52.452,241.396l0.36,0.002c0.194,0.001,0.364,0.153,0.37,0.366c0.006,0.2-0.15,0.392-0.347,0.392
			l-0.36-0.002c-0.194-0.001-0.364-0.154-0.37-0.368C52.097,241.588,52.254,241.394,52.452,241.396z"/>
		<path fill="#D7B898" d="M53.936,241.309l0.055-0.001c0.144-0.113,0.338-0.127,0.475,0.015c0.134,0.135,0.159,0.397,0.014,0.535
			c-0.15,0.143-0.315,0.211-0.519,0.211c-0.197-0.002-0.364-0.153-0.37-0.366C53.582,241.502,53.74,241.31,53.936,241.309z"/>
		<path fill="#D7B898" d="M51.635,242.527c0.068,0,0.132,0.002,0.197-0.004l0.014-0.002l0.01-0.003l0.049-0.021
			c0.18-0.082,0.396,0.072,0.449,0.253c0.062,0.214-0.059,0.39-0.24,0.473c-0.138,0.065-0.304,0.062-0.451,0.061
			c-0.196-0.001-0.366-0.153-0.373-0.365C51.282,242.72,51.44,242.525,51.635,242.527z"/>
		<path fill="#D7B898" d="M53.3,242.395c0.032,0.001,0.061,0,0.093-0.002l0.085-0.026c0.181-0.084,0.397,0.072,0.448,0.251
			c0.062,0.216-0.06,0.391-0.238,0.473c-0.112,0.053-0.241,0.063-0.363,0.061c-0.194,0-0.367-0.151-0.373-0.364
			C52.947,242.587,53.102,242.395,53.3,242.395z"/>
		<path fill="#D7B898" d="M54.429,242.224c0.038-0.021,0.077-0.039,0.116-0.063c0.022-0.013,0.116-0.09,0.038-0.017
			c0.145-0.137,0.357-0.164,0.507-0.013c0.134,0.133,0.16,0.398,0.012,0.536c-0.093,0.087-0.187,0.145-0.297,0.201
			c-0.176,0.091-0.386,0.066-0.496-0.123C54.214,242.582,54.252,242.315,54.429,242.224z"/>
		<path fill="#D7B898" d="M52.598,243.055H52.8c0.197,0.002,0.366,0.152,0.374,0.366c0.005,0.199-0.152,0.392-0.348,0.392
			l-0.202-0.001c-0.196-0.001-0.366-0.153-0.373-0.365C52.245,243.248,52.403,243.053,52.598,243.055z"/>
		<path fill="#D7B898" d="M54.102,243.112l0.007-0.003l0.036-0.015c0.044-0.017,0.091-0.024,0.138-0.028
			c0.196-0.021,0.366,0.168,0.373,0.363c0.006,0.218-0.153,0.373-0.348,0.394c0.124-0.013,0.026,0.007-0.012,0.018
			c-0.055,0.013-0.111,0.025-0.168,0.029c-0.196,0.009-0.365-0.161-0.371-0.367C53.75,243.297,53.907,243.122,54.102,243.112z"/>
		<path fill="#D7B898" d="M57.567,241.849l0.014,0.001l0.009,0.002c0.039,0.001,0.077,0.003,0.117,0.003
			c0.196,0.002,0.364,0.153,0.371,0.365c0.007,0.2-0.15,0.394-0.345,0.392c-0.178-0.001-0.339-0.016-0.503-0.096
			c-0.178-0.087-0.231-0.343-0.141-0.515C57.187,241.815,57.393,241.768,57.567,241.849z"/>
		<path fill="#D7B898" d="M58.92,242.005l0.316,0.002c0.192,0.002,0.363,0.154,0.37,0.367c0.006,0.198-0.152,0.394-0.346,0.391
			l-0.314-0.001c-0.197-0.001-0.366-0.152-0.375-0.367C58.568,242.198,58.723,242.004,58.92,242.005z"/>
		<path fill="#D7B898" d="M57.546,242.897l0.02-0.001c0.196,0.003,0.366,0.154,0.372,0.368c0.006,0.198-0.153,0.393-0.348,0.392
			c-0.203-0.002-0.376-0.052-0.528-0.2c-0.146-0.142-0.147-0.389-0.014-0.538C57.182,242.769,57.401,242.766,57.546,242.897z"/>
		<path fill="#D7B898" d="M58.508,242.998L58.687,243c0.197,0,0.367,0.152,0.375,0.364c0.004,0.199-0.153,0.395-0.349,0.392l-0.18,0
			c-0.194-0.002-0.364-0.154-0.371-0.366C58.156,243.191,58.311,242.996,58.508,242.998z"/>
		<path fill="#D79981" d="M50.785,227.028c1.301-0.42,2.966-0.199,4.117-1.01c-0.14,0.098,2.009,0.98,2.183,1.068
			c1.188,0.587,2.146,1.7,2.605,2.965c0.153,0.418,0.256,2.429,0.423,2.589c-1.198-1.15-1.04-3.216-2.283-4.23
			c-0.528-0.433-1.838-1.305-2.506-1.38c-0.584-0.065-1.767,0.724-2.459,0.898c-1.636,0.411-3.344,0.551-4.572,1.859
			c-0.88,0.935-1.555,2.095-2.159,3.319c-0.449,0.91-0.851,1.979-1.389,2.829c-0.257-2.099,0.217-4.251,1.513-5.948
			C47.372,228.533,49.073,227.581,50.785,227.028z"/>
		<path fill="#2A333F" d="M49.764,235.314c0.367,0.018,0.649,0.338,0.627,0.714c-0.022,0.374-0.341,0.663-0.705,0.646
			c-0.369-0.018-0.65-0.336-0.625-0.713C49.08,235.586,49.397,235.297,49.764,235.314z"/>
		<path fill="#2A333F" d="M57.646,235.915c0.313,0.024,0.543,0.284,0.516,0.58c-0.027,0.294-0.305,0.512-0.617,0.487
			c-0.315-0.025-0.544-0.285-0.515-0.58C57.058,236.107,57.335,235.889,57.646,235.915z"/>
		<path fill="#CDA376" d="M47.648,225.302c0.617-0.304,1.252-0.535,1.919-0.705c0.615-0.157,0.875,0.792,0.261,0.947
			c-0.586,0.15-1.143,0.339-1.683,0.606C47.578,226.43,47.08,225.582,47.648,225.302z"/>
		<path fill="#CDA376" d="M44.474,228.217c0.088-0.252,0.331-0.418,0.604-0.343c0.244,0.067,0.433,0.353,0.343,0.604
			c-0.193,0.546-0.542,0.96-0.945,1.364c-0.449,0.448-1.144-0.246-0.696-0.695C44.057,228.871,44.34,228.593,44.474,228.217z"/>
		<path fill="#CDA376" d="M41.502,233.062c0.005-0.007,0.009-0.013,0.009-0.013c0.033-0.051,0.053-0.098,0.077-0.145
			c0.058-0.116,0.137-0.222,0.227-0.317c0.185-0.196,0.51-0.186,0.695,0c0.193,0.193,0.184,0.5,0,0.694
			c-0.007,0.008-0.012,0.013-0.015,0.017c0,0-0.01,0.013-0.014,0.02c-0.027,0.044-0.049,0.09-0.072,0.137
			c-0.058,0.117-0.137,0.223-0.227,0.318c-0.184,0.195-0.508,0.185-0.694,0c-0.193-0.193-0.184-0.501,0-0.695
			C41.488,233.079,41.499,233.068,41.502,233.062z"/>
		<path fill="#CDA376" d="M39.946,241.685c0.219-0.128,0.558-0.064,0.674,0.177c0.143,0.293,0.231,0.575,0.231,0.903
			c0,0.268-0.225,0.491-0.491,0.491c-0.268,0-0.491-0.223-0.491-0.491c0-0.032-0.002-0.063-0.002-0.094c0,0,0-0.028-0.001-0.041
			c-0.01-0.049-0.024-0.098-0.038-0.145c-0.005-0.014-0.012-0.028-0.016-0.042c0.009,0.028-0.036-0.079-0.036-0.079
			C39.655,242.118,39.705,241.828,39.946,241.685z"/>
		<path fill="#CDA376" d="M42.393,226.134c0.356-0.52,1.21-0.029,0.848,0.496c-0.352,0.515-0.794,0.96-1.147,1.474
			c-0.356,0.52-1.208,0.029-0.848-0.496C41.598,227.094,42.041,226.649,42.393,226.134z"/>
		<path fill="#CDA376" d="M38.904,232.313c0.199-0.598,1.147-0.342,0.947,0.261l-0.492,1.475c-0.199,0.598-1.148,0.341-0.948-0.261
			L38.904,232.313z"/>
		<path fill="#CDA376" d="M38.558,238.178c0.268,0,0.493,0.223,0.493,0.491v0.656c0,0.268-0.225,0.491-0.493,0.491
			c-0.267,0-0.492-0.223-0.492-0.491v-0.656C38.066,238.401,38.291,238.178,38.558,238.178z"/>
		<path fill="#CDA376" d="M39.214,250.957c0-0.634,0.981-0.634,0.981,0c0,0.644,0.01,1.31-0.181,1.932
			c-0.184,0.605-1.134,0.347-0.947-0.261C39.232,252.087,39.212,251.515,39.214,250.957z"/>
		<path fill="#CDA376" d="M37.479,255.951c0.291-0.563,1.139-0.066,0.848,0.496c-0.393,0.761-0.952,1.457-1.551,2.066
			c-0.446,0.451-1.14-0.244-0.696-0.695C36.626,257.264,37.12,256.643,37.479,255.951z"/>
		<path fill="#CDA376" d="M34.379,250.369c0.523-0.344,1.083-0.631,1.538-1.071c0.456-0.44,1.151,0.255,0.694,0.695
			c-0.517,0.499-1.143,0.834-1.738,1.223C34.343,251.566,33.85,250.714,34.379,250.369z"/>
		<path fill="#CDA376" d="M32.022,254.922c0.132-0.619,1.081-0.357,0.947,0.261c-0.175,0.825-0.533,1.569-1.032,2.247
			c-0.37,0.505-1.225,0.015-0.849-0.497C31.543,256.317,31.863,255.672,32.022,254.922z"/>
		<path fill="#CDA376" d="M29.081,261.356c0.046-0.23,0.108-0.441,0.206-0.654c0.111-0.243,0.458-0.302,0.672-0.176
			c0.248,0.145,0.288,0.428,0.177,0.672c-0.07,0.15-0.09,0.332-0.121,0.493c-0.046,0.23-0.108,0.441-0.207,0.655
			c-0.111,0.243-0.458,0.301-0.672,0.176c-0.247-0.145-0.287-0.429-0.177-0.673C29.028,261.699,29.049,261.517,29.081,261.356z"/>
		<path fill="#CDA376" d="M35.299,254.758c0.203-0.597,1.152-0.341,0.947,0.261c-0.173,0.513-0.399,0.973-0.78,1.364
			c-0.445,0.455-1.139-0.241-0.697-0.696C35.03,255.421,35.18,255.109,35.299,254.758z"/>
		<path fill="#CDA376" d="M32.4,259.883c0.124-0.237,0.448-0.307,0.671-0.176c0.24,0.14,0.302,0.436,0.178,0.672
			c-0.186,0.35-0.471,0.634-0.656,0.982c-0.124,0.237-0.449,0.308-0.672,0.177c-0.238-0.14-0.301-0.436-0.178-0.673
			C31.93,260.516,32.215,260.233,32.4,259.883z"/>
	</g>
	<path fill="#6B92B8" d="M61.733,265.326c1.424-0.779,3.021-1.11,4.772-0.813c4.378,0.743,7.8,4.426,12.111,5.571
		c5.018,1.334,9.679-0.175,13.903-3.005c4.657-3.121,7.078-9.701,13.881-8.43c18.542,3.47,4.588,25.306-2.633,31.673
		c-8.48,7.472-18.403,9.028-29.412,7.215c-6.444-1.059-17.297-4.207-19.755-11.185C52.604,280.687,55.52,268.729,61.733,265.326z"/>
	<path fill="#7EA082" d="M105.76,256.291c0.407-0.028,0.908,0.061,1.446,0.227c1.474,0.452,3.221,1.468,4.048,2.22
		c2.787,2.532,8.869,8.664,4.332,12.116c-0.231,0.176-4.096-3.811-6.954-6.758c-1.51-1.555-2.74-2.819-3.008-3.028
		c-0.492-0.385-2.635-1.387-2.796-1.803C102.289,257.853,104.476,256.371,105.76,256.291z"/>
	<path fill="#A6CEAE" d="M108.374,258.06c-1.018,0.304-1.979,0.79-2.848,1.396c-0.9,0.627,0.004,2.073,0.91,1.441
		c0.757-0.527,1.56-0.946,2.447-1.211C109.937,259.37,109.43,257.743,108.374,258.06z"/>
	<path fill="#A6CEAE" d="M111.016,261.114c-0.332-0.311-0.898-0.308-1.207,0.04c-0.137,0.152-0.253,0.321-0.341,0.508
		c-0.026,0.052-0.052,0.11-0.079,0.164c-0.011,0.021-0.023,0.042-0.035,0.062c-0.004,0.003-0.005,0.003-0.01,0.011
		c-0.309,0.347-0.308,0.88,0.04,1.204c0.332,0.31,0.898,0.308,1.207-0.04c0.137-0.153,0.255-0.323,0.341-0.508
		c0.028-0.055,0.053-0.111,0.079-0.165c0.011-0.022,0.023-0.041,0.036-0.061l0.01-0.011
		C111.364,261.972,111.364,261.438,111.016,261.114z"/>
	<path fill="#A6CEAE" d="M114.074,264.911c-0.34-0.318-0.891-0.3-1.207,0.038l-0.71,0.753c-0.319,0.34-0.301,0.887,0.039,1.205
		c0.34,0.317,0.889,0.299,1.207-0.04l0.71-0.754C114.431,265.775,114.415,265.227,114.074,264.911z"/>
	<path fill="#98C2A1" d="M21.6,310.974v1.499c0,0.805,1.249,0.805,1.249,0v-1.499C22.849,310.167,21.6,310.167,21.6,310.974z"/>
	<path fill="#98C2A1" d="M24.915,320.651c-0.291-0.326-0.192-1.038-0.193-1.433c0-0.804-1.25-0.804-1.248,0
		c0,0.807-0.011,1.679,0.556,2.316C24.569,322.137,25.449,321.25,24.915,320.651z"/>
	<path fill="#98C2A1" d="M27.539,328.895c-0.124-0.136-0.188-0.399-0.254-0.593c-0.113-0.336-0.254-0.641-0.496-0.906
		c-0.544-0.596-1.425,0.29-0.883,0.885c0.123,0.134,0.188,0.397,0.255,0.593c0.112,0.336,0.253,0.641,0.495,0.905
		C27.198,330.375,28.079,329.49,27.539,328.895z"/>
	<path fill="#98C2A1" d="M29.346,316.346c-0.805,0-0.805,1.249,0,1.249C30.151,317.595,30.151,316.346,29.346,316.346z"/>
	<path fill="#627D96" d="M18.006,460.826c0.172,0.013,0.352,0.056,0.54,0.13c1.092,0.436,4.36,4.063,4.508,5.152
		c0.109,0.81-0.845,2.202-1.182,2.884c-2.094-0.229-5.259-2.475-5.849-4.521C15.557,462.86,16.455,460.698,18.006,460.826z"/>
	<path fill="#627D96" d="M20.791,468.702c1.823-4.549,6.136-1.633,9.419-0.823c1.911,0.471,5.743-1.896,6.807,0.4
		c1.436,3.094-3.848,3.577-5.692,3.365C27.707,471.228,24.126,470.147,20.791,468.702z"/>
	<path fill="#83B08C" d="M18.168,461.463c-1.628-2.963-1.182-8.743-0.914-11.817c0.299-3.442,0.624-7.152,1.84-10.405
		c1.665-4.453,7.613-5.843,10.519-2.285c2.195,2.687,1.222,5.663,0.484,8.9c-0.675,2.955-1.829,5.931-2.029,8.973
		c-0.152,2.325,0.131,5.057,0.499,7.354c0.179,1.133,1.37,0.326,0.472,1.076c-2.752,2.311-6.012,0.467-8.802-0.505
		C19.052,462.341,18.7,462.433,18.168,461.463z"/>
	<path fill="#83B08C" d="M61.325,438.43c0,0-0.001-0.008-0.003-0.013c-1.094-3.744-1.856-9.769,1.475-12.639
		c1.871-1.613,11.833-2.885,13.772-1.006c0.789,0.763,0.986,1.707,0.854,2.71c-0.624,4.849-0.621,10.223-1.84,14.925
		c-1.503,5.809-1.304,11.901,2.107,17.006c-3.006,3.387-8.042,2.418-11.443-0.249c-1.498-1.174-1.327-3.369-1.865-5.038
		c-0.921-2.856-0.738-5.393-0.9-8.438C63.338,442.973,62.087,440.975,61.325,438.43z"/>
	<path fill="#161F26" d="M34.498,465.208c-1.457-1.035-4.283-3.91-5.944-4.074c-0.877-0.087-2.133,0.706-3.105,0.748
		c-0.628,0.027-8.058-1.254-7.988-2.668c-0.017-0.009-0.033-0.022-0.05-0.031c-1.833,3.015-0.747,5.404,2.192,7.042
		c2.705,1.506,5.884,2.061,8.764,2.956c1.68,0.523,5.984,1.533,7.539,0.252C37.885,467.807,35.864,466.177,34.498,465.208z"/>
	<path fill="#3B4755" d="M64.158,392.842c3.839-4.238,12.526-5.182,15.783,0.027c5.173,8.272,1.846,20.091-0.115,28.885
		c-2.488,11.165-4.97,22.805-3.929,34.277c0.138,1.556-10.933,0.351-12.168-0.474c-3.178-2.124-3.723-6.322-4.326-9.8
		c-1.298-7.497-0.285-15.072-0.693-22.611c-0.495-9.148-1.232-22.73,5.374-30.222C64.109,392.897,64.135,392.869,64.158,392.842z"/>
	<path fill="#3B4755" d="M39.701,330.052c0.465,0.01,0.93,0.021,1.393,0.029c2.779,0.049,5.567,0.095,8.345,0.001
		c4.545-0.153,8.963-0.738,13.336-1.909c5.727,16.685,11.312,33.489,15.671,50.619c1.741,6.838,4.194,14.493,3.087,21.615
		c-1.436,9.206-14.584,6.457-19.804,3.017c-7.539-4.968-12.071-14.898-16.468-22.564c-4.838-8.438-9.185-17.659-10.458-27.496
		c-0.643-4.966-0.379-8.235-2.341-12.891c-0.285-0.675-3.489-9.628-3.781-9.609c0.826-0.053,1.855-0.25,3.008-0.544
		C34.363,330.335,37.042,330.235,39.701,330.052z"/>
	<path fill="#4C596F" d="M17.035,436.62c1.042-12.708,2.161-26.019,7.605-37.202c2.483-5.1,9.144-13.214,15.511-9.177
		c3.884,2.463,7.541,11.272,6.289,15.882c-1.102,4.057-2.744,7.994-4.356,11.976c-4.073,10.057-6.292,20.545-9.689,30.901
		c-1.075,3.275-1.107,8.077-4.377,9.732c-2.255,1.143-5.588,0.253-7.807-0.51c-4.718-1.625-4.505-7.561-4.049-11.863
		C16.497,443.185,16.763,439.922,17.035,436.62z"/>
	<path fill="#4C596F" d="M53.099,369.723c1.61-11.251,3.261-22.073,3.161-33.636c-0.108-12.579-14.411-10.73-22.689-6.713
		c-6.079,2.953-8.958,10.834-9.799,17.118c-1.478,11.009-0.771,23.578,1.031,34.532c1.188,7.231,2.623,17.025,8.977,21.827
		c4.53,3.424,13.824,4.174,15.328-2.408C51.418,390.337,51.635,379.951,53.099,369.723z"/>
	<path fill="#ECF5F8" d="M65.577,397.013c-0.004-0.007-0.008-0.012-0.008-0.012S65.572,397.004,65.577,397.013z"/>
	<path fill="#627D96" d="M63.282,461.33c0.028-0.049,0.056-0.098,0.082-0.148c3.433,0.961,8.777,1.717,12.561,1.311
		c-0.077,1.334-0.034,2.772-0.587,4.19c-2.776-0.067-6.918,0.02-9.166-0.776c-2.151-0.76-2.684-2.918-3.062-4.379
		C63.182,461.471,63.244,461.405,63.282,461.33z"/>
	<path fill="#627D96" d="M71.836,462.544c1.632-0.673,2.12-0.154,3.696,0.288c3.11,0.874,6.818,2.403,9.542-0.338
		c2.674,1.1-0.439,3.354-1.983,3.794c-2.704,0.768-5.717,0.648-8.464,0.176C72.652,466.125,67.229,464.444,71.836,462.544z"/>
	<path fill="#161F26" d="M64.82,456.971c0.633-0.167,1.27,0.781,2.123,1.238c1.452,0.777,3.689,1.342,5.326,1.21
		c1.713-0.136,2.118-1.584,3.611-1.912c1.723-0.38,3.879,1.894,5.547,2.461c1.585,0.54,5.065,1.065,4.775,3.309
		c-0.244,1.874-6.432,1.838-8.26,1.553c-3.542-0.555-17.849,0.829-13.893-7.022C64.313,457.281,64.567,457.037,64.82,456.971z"/>
	<path fill="#6382AB" d="M68.101,266.372c-0.286-1.893-1.05-2.675-3.804-3.789c-0.531-0.214-3.926-1.995-4.145-1.911
		c-1.885,0.721-2.891,3.42-4.173,4.855c-1.411,1.581-2.959,2.673-5.103,2.98c-4.004,0.574-8.908-1.416-11.157-4.828
		c-2.111-3.196-2.979-3.215-6.83-2.27c-1.585,0.389-3.121,0.993-4.606,1.656c-2.49,1.114-5.223,2.249-7.07,4.309
		c-1.89,2.107-3.306,4.691-4.011,7.436c-0.82,3.183-1.424,7.231-0.343,10.384c0.553,1.616,0.401,3.318,0.455,5.009
		c0.068,2.094,0.178,4.185,0.25,6.278c0.281,8.046,1.413,15.673,2.73,23.594c1.065,6.416,2.404,15.235,10.296,16.603
		c8.292,1.44,17.484,2.262,25.678-0.131c2.897-0.846,6.089-1.762,7.673-4.478c2.023-3.469,2.201-7.685,1.335-11.524
		c-1.384-6.131,0.09-12.614-0.05-18.77c-0.081-3.561,1.128-7.437,1.708-10.946c0.585-3.56,1.119-7.132,1.34-10.736
		c0.226-3.653,0.212-7.316,0.032-10.972C68.252,267.989,68.213,267.098,68.101,266.372z"/>
	<path fill="#577286" d="M57.563,261.123c-0.241,0.467-0.474,0.936-0.689,1.407c-0.336,0.738-0.625,1.286-1.234,1.877
		c-1.158,1.121-2.659,1.867-4.234,2.242c-3.19,0.757-6.802,0.008-9.176-2.287c-0.469-0.453-0.892-0.968-1.305-1.472
		c-0.531-0.649-0.808-1.537-1.279-2.13c-1.088-1.37-2.916-0.071-4.107,0.433c-0.71,0.301,2.677,4.239,3.117,4.643
		c1.596,1.472,3.681,2.722,6.113,3.38c2.996,0.811,6.52,0.477,9.39-0.648c1.386-0.543,2.83-1.321,3.782-2.483
		c0.594-0.725,1.035-1.723,1.544-2.52c0.489-0.764,0.926-1.928,0.198-2.687c-0.43-0.448-1.028-0.628-1.332-1.225
		C58.087,260.134,57.819,260.626,57.563,261.123z"/>
	<path fill="#577286" d="M23.817,331.131c6.75,1.536,9.321,1.901,14.138,1.924c8.396,0.039,16.461-1.983,24.686-4.912
		c0.713-0.252,1.43-0.515,2.147-0.783c1.157-0.43,1.238,4.825,0.829,5.516c-1.174,1.981-4.723,2.822-7.35,3.582
		c-7.905,2.284-16.127,3.127-23.785,3.175c-3.556,0.02-7.769-0.241-10.175-1.928c-1.24-0.867-1.034-1.657-0.975-3.09
		C23.341,334.373,23.437,330.149,23.817,331.131z"/>
	<path fill="#739DBD" d="M62.925,330.516c0.461-0.058,0.887,0.345,0.939,0.884l0.156,1.695c0.052,0.541-0.291,1.038-0.754,1.097
		c-0.46,0.058-0.889-0.345-0.938-0.884l-0.159-1.695C62.12,331.073,62.462,330.575,62.925,330.516z"/>
	<path fill="#739DBD" d="M59.131,331.851c0.464-0.058,0.889,0.343,0.94,0.882l0.175,1.885c0.05,0.541-0.291,1.037-0.754,1.096
		c-0.463,0.057-0.888-0.343-0.939-0.884l-0.176-1.886C58.325,332.406,58.669,331.908,59.131,331.851z"/>
	<path fill="#739DBD" d="M54.896,333.09c0.348-0.301,0.952-0.255,1.193,0.208c0.449,0.869,0.665,2.024,0.137,2.912
		c-0.263,0.445-0.854,0.472-1.197,0.151c-0.342-0.324-0.386-0.837-0.198-1.26l0.003-0.055c-0.002-0.039-0.002-0.079-0.006-0.119
		c-0.005-0.058-0.014-0.114-0.021-0.172l-0.015-0.053c-0.011-0.043-0.146-0.367-0.071-0.221
		C54.48,334.017,54.499,333.434,54.896,333.09z"/>
	<path fill="#739DBD" d="M52.137,334.3l0.185,1.978c0.118,1.277-1.575,1.49-1.695,0.212l-0.182-1.977
		C50.325,333.236,52.019,333.024,52.137,334.3z"/>
	<path fill="#739DBD" d="M47.405,334.75c0.461-0.058,0.891,0.343,0.939,0.883l0.134,1.413c0.049,0.54-0.294,1.037-0.755,1.095
		c-0.462,0.058-0.89-0.343-0.94-0.882l-0.132-1.415C46.6,335.306,46.943,334.807,47.405,334.75z"/>
	<path fill="#739DBD" d="M43.991,334.892c0.463-0.058,0.889,0.345,0.939,0.883l0.132,1.413c0.05,0.54-0.293,1.036-0.754,1.095
		c-0.461,0.057-0.89-0.345-0.94-0.883l-0.131-1.414C43.187,335.448,43.53,334.948,43.991,334.892z"/>
	<path fill="#739DBD" d="M39.851,335.123c0.461-0.057,0.889,0.345,0.939,0.885l0.159,1.694c0.05,0.541-0.294,1.04-0.754,1.098
		c-0.462,0.058-0.889-0.345-0.939-0.885l-0.159-1.695C39.046,335.68,39.39,335.181,39.851,335.123z"/>
	<path fill="#739DBD" d="M36.168,335.012c0.462-0.057,0.889,0.345,0.939,0.885l0.159,1.695c0.05,0.539-0.293,1.037-0.754,1.096
		c-0.462,0.058-0.89-0.345-0.94-0.883l-0.159-1.695C35.363,335.57,35.707,335.073,36.168,335.012z"/>
	<path fill="#739DBD" d="M31.761,334.013c0.302,0.798,0.426,1.628,0.507,2.49c0.12,1.276-1.575,1.489-1.694,0.213
		c-0.065-0.699-0.153-1.325-0.399-1.972C29.729,333.565,31.319,332.844,31.761,334.013z"/>
	<path fill="#739DBD" d="M28.104,334.185c0.316,0.99,0.687,1.971,0.804,3.026c0.142,1.275-1.553,1.484-1.693,0.213
		c-0.098-0.872-0.434-1.689-0.694-2.507C26.137,333.711,27.721,332.983,28.104,334.185z"/>
	<path fill="#8EB6C9" d="M32.094,324.839v1.5c0,0.806,1.249,0.806,1.249,0v-1.5C33.343,324.034,32.094,324.034,32.094,324.839z"/>
	<path fill="#8EB6C9" d="M62.327,269.498c-0.342,0-0.625,0.284-0.625,0.624v0.75c0,0.34,0.284,0.624,0.625,0.624
		c0.34,0,0.624-0.284,0.624-0.624v-0.75C62.951,269.781,62.667,269.498,62.327,269.498z"/>
	<path fill="#8EB6C9" d="M62.394,277.551c-0.557-0.584-1.438,0.3-0.883,0.883c0.114,0.118,0.135,0.177,0.173,0.368
		c-0.008-0.044,0.011,0.175,0.014,0.214c0.008,0.157,0.005,0.318,0.005,0.475c0,0.806,1.249,0.806,1.249,0
		C62.951,278.77,62.916,278.102,62.394,277.551z"/>
	<path fill="#8EB6C9" d="M58.03,325.094c-0.014-0.053-0.037-0.114-0.037-0.08c-0.02-0.17-0.02-0.343-0.02-0.514
		c0-0.34-0.285-0.625-0.623-0.625c-0.342,0-0.625,0.285-0.625,0.625c0,0.723,0.087,1.683,0.998,1.75
		c0.34,0.024,0.625-0.303,0.625-0.625C58.346,325.385,58.216,325.199,58.03,325.094z"/>
	<path fill="#8EB6C9" d="M54.206,277.992v3.372c0,0.807,1.25,0.807,1.25,0v-3.372C55.456,277.186,54.206,277.186,54.206,277.992z"/>
	<path fill="#8EB6C9" d="M41.338,323.466c-0.34,0-0.625,0.284-0.625,0.625v1.125c0,0.34,0.285,0.624,0.625,0.624
		c0.342,0,0.625-0.284,0.625-0.624v-1.125C41.964,323.75,41.68,323.466,41.338,323.466z"/>
	<path fill="#FFFFFF" d="M36.857,356.702c-0.029-0.087-0.061-0.175-0.092-0.262c-0.026-0.073-0.029-0.088-0.011-0.04
		c-0.006-0.019-0.008-0.205-0.015-0.087c0.021-0.338-0.195-0.651-0.548-0.692c-0.324-0.038-0.671,0.206-0.694,0.546
		c-0.017,0.279,0.036,0.513,0.121,0.774c0.03,0.088,0.064,0.173,0.093,0.261c0.025,0.075,0.03,0.088,0.011,0.042
		c0.003,0.018,0.008,0.203,0.014,0.085c-0.021,0.339,0.197,0.651,0.548,0.692c0.325,0.039,0.672-0.206,0.694-0.546
		C36.997,357.198,36.943,356.964,36.857,356.702z"/>
	<path fill="#FFFFFF" d="M34.884,367.795l-0.263,2.233c-0.094,0.8,1.146,0.946,1.24,0.146l0.263-2.232
		C36.22,367.141,34.978,366.995,34.884,367.795z"/>
	<path fill="#FFFFFF" d="M35.05,380.267c0.076-0.8-1.166-0.948-1.241-0.145c-0.029,0.324-0.014,0.647,0.059,0.966
		c0.024,0.113,0.061,0.224,0.09,0.337c0.017,0.059,0.03,0.117,0.043,0.177c0.002,0.019,0.005,0.029,0.008,0.039
		c0,0-0.002,0.006-0.002,0.013c-0.058,0.801,1.183,0.951,1.24,0.147C35.285,381.271,35.002,380.798,35.05,380.267z"/>
	<path fill="#FFFFFF" d="M34.021,390.083c-0.337-0.04-0.654,0.209-0.692,0.549l-0.132,1.116c-0.041,0.338,0.208,0.653,0.548,0.693
		c0.337,0.04,0.652-0.21,0.691-0.548l0.134-1.118C34.609,390.439,34.36,390.123,34.021,390.083z"/>
	<path fill="#FFFFFF" d="M30.808,402.41c-0.039,0.334-0.071,0.817-0.315,1.028c-0.606,0.526,0.166,1.509,0.776,0.981
		c0.546-0.473,0.699-1.175,0.781-1.863C32.144,401.757,30.904,401.611,30.808,402.41z"/>
	<path fill="#FFFFFF" d="M27.196,410.665l-0.175,1.488c-0.095,0.801,1.145,0.948,1.239,0.147l0.175-1.489
		C28.531,410.012,27.288,409.865,27.196,410.665z"/>
	<path fill="#FFFFFF" d="M24.261,422.773l-0.219,1.86c-0.094,0.801,1.145,0.947,1.24,0.146l0.22-1.86
		C25.596,422.118,24.355,421.973,24.261,422.773z"/>
	<path fill="#FFFFFF" d="M22.64,436.544l-0.176,1.489c-0.094,0.8,1.147,0.946,1.242,0.146l0.175-1.49
		C23.974,435.89,22.734,435.745,22.64,436.544z"/>
	<path fill="#FFFFFF" d="M22.263,447.254c0.004-0.063,0.01-0.124,0.018-0.186c0.04-0.337-0.21-0.654-0.548-0.692
		c-0.338-0.04-0.654,0.208-0.694,0.547c-0.027,0.238-0.062,0.498,0.002,0.731c0.115,0.42,0.395,0.682,0.83,0.751
		c0.337,0.053,0.656-0.22,0.694-0.546C22.596,447.602,22.467,447.376,22.263,447.254z"/>
	<path fill="#FFFFFF" d="M62.019,383.615c-0.504-0.532-0.566-1.105-0.566-1.807c-0.002-0.806-1.25-0.806-1.25,0
		c0,1.039,0.2,1.913,0.933,2.69C61.69,385.083,62.572,384.199,62.019,383.615z"/>
	<path fill="#FFFFFF" d="M66.142,394.108c-0.064-0.063-0.128-0.127-0.19-0.193c0-0.037-0.001-0.076-0.001-0.114
		c0-0.34-0.284-0.625-0.625-0.625c-0.34,0-0.625,0.285-0.625,0.625c0.002,0.244,0.032,0.454,0.128,0.68
		c0.084,0.197,0.281,0.362,0.43,0.511c0.24,0.241,0.644,0.241,0.884,0C66.382,394.75,66.382,394.349,66.142,394.108z"/>
	<path fill="#FFFFFF" d="M65.698,408.917c-0.339,0-0.624,0.284-0.624,0.625v1.124c0,0.34,0.285,0.626,0.624,0.626
		c0.341,0,0.627-0.287,0.627-0.626v-1.124C66.325,409.201,66.04,408.917,65.698,408.917z"/>
	<path fill="#FFFFFF" d="M66.302,427.74c-0.238-0.767-1.443-0.439-1.205,0.332c0.326,1.051,0.352,2.115,0.352,3.207
		c0,0.806,1.251,0.806,1.251,0C66.698,430.08,66.66,428.895,66.302,427.74z"/>
	<path fill="#FFFFFF" d="M65.325,443.024c-0.806,0-0.806,1.248,0,1.248C66.13,444.272,66.13,443.024,65.325,443.024z"/>
	<path fill="#5E6D7F" d="M40.162,343.257c-0.776,3.21-3.975,6.545-7.435,6.546c-1.592,0.001-1.902,2.483-0.293,2.483
		c4.96-0.003,9.082-4.072,10.21-8.735C43.024,341.986,40.538,341.713,40.162,343.257z"/>
	<path fill="#739DBD" d="M39.062,262.735c-0.477,0-0.876,0.398-0.876,0.874v0.999c0,0.478,0.398,0.875,0.876,0.875
		c0.477,0,0.875-0.398,0.875-0.875v-0.999C39.937,263.134,39.539,262.735,39.062,262.735z"/>
	<path fill="#739DBD" d="M44.06,266.733c-0.477,0-0.874,0.398-0.874,0.874v0.249c0,0.478,0.397,0.876,0.874,0.876
		c0.477,0,0.874-0.398,0.874-0.876v-0.249C44.934,267.131,44.536,266.733,44.06,266.733z"/>
	<path fill="#739DBD" d="M53.687,267.49l-0.458-0.811c-0.206-0.364-0.675-0.491-1.03-0.281c-0.357,0.211-0.483,0.69-0.276,1.054
		l0.458,0.811c0.206,0.363,0.675,0.492,1.031,0.282C53.767,268.334,53.893,267.853,53.687,267.49z"/>
	<path fill="#739DBD" d="M57.737,264.762l0.004,0.003l-0.007-0.003c-0.008-0.002-0.015-0.002-0.015-0.002l-0.012-0.004
		c-0.008-0.007-0.017-0.011-0.017-0.011c-0.097-0.083-0.185-0.169-0.269-0.253c-0.337-0.338-0.899-0.339-1.238,0
		c-0.335,0.335-0.335,0.899,0,1.235c0.39,0.389,0.795,0.725,1.369,0.755c0.477,0.026,0.874-0.417,0.874-0.875
		C58.427,265.178,58.128,264.857,57.737,264.762z"/>
	<path fill="#739DBD" d="M58.977,261.585c-1.128,0-1.128,1.749,0,1.749C60.105,263.334,60.105,261.585,58.977,261.585z"/>
	<path fill="#8EB6C9" d="M23.557,320.438c-0.341-0.735-1.422-0.096-1.084,0.634c0.323,0.695,0.332,1.442,0.332,2.194
		c0.001,0.809,1.257,0.809,1.257,0C24.059,322.272,23.981,321.349,23.557,320.438z"/>
	<path fill="#8EB6C9" d="M21.969,310.083c-0.016-0.807-1.27-0.809-1.256,0c0.014,0.703,0.197,1.39,0.21,2.093
		c0.014,0.809,1.27,0.812,1.255,0C22.165,311.473,21.981,310.786,21.969,310.083z"/>
	<path fill="#8EB6C9" d="M29.897,318.077c-0.414-1.295-0.615-2.638-0.836-3.975c-0.132-0.798-1.343-0.459-1.21,0.332
		c0.22,1.338,0.423,2.681,0.837,3.976C28.932,319.18,30.145,318.851,29.897,318.077z"/>
	<path fill="#98C2A1" d="M25.944,303.596v1.465c0,0.81,1.257,0.81,1.257,0v-1.465C27.2,302.789,25.944,302.789,25.944,303.596z"/>
	<path fill="#98C2A1" d="M36.642,309.848c-0.566-0.581-1.454,0.307-0.889,0.888c0.132,0.137,0.243,0.269,0.337,0.431
		c0.07,0.118,0.105,0.295,0.108,0.381c0.022,0.809,1.279,0.81,1.256,0C37.435,310.877,37.101,310.319,36.642,309.848z"/>
	<path fill="#8EB6C9" d="M38.477,326.865c-0.385-1.454-0.396-2.943-0.396-4.436c0-0.809-1.257-0.809-1.255,0
		c0,1.604,0.027,3.21,0.44,4.771C37.473,327.981,38.685,327.649,38.477,326.865z"/>
	<path fill="#98C2A1" d="M47.498,312.803c-0.014-0.809-1.27-0.81-1.257,0c0.014,0.774,0.197,1.528,0.21,2.301
		c0.013,0.81,1.268,0.811,1.256,0C47.695,314.332,47.51,313.576,47.498,312.803z"/>
	<path fill="#8EB6C9" d="M49.923,325.879c-0.335-0.696-0.527-1.421-0.542-2.194c-0.014-0.809-1.27-0.811-1.255,0
		c0.018,1.002,0.279,1.929,0.715,2.829C49.191,327.242,50.272,326.604,49.923,325.879z"/>
	<path fill="#98C2A1" d="M58.566,311.591c-0.24-0.771-1.451-0.442-1.213,0.332c0.176,0.566,0.188,1.131,0.188,1.717
		c0,0.81,1.257,0.81,1.255,0C58.797,312.948,58.773,312.258,58.566,311.591z"/>
	<path fill="#98C2A1" d="M35.17,273.303c-0.404-0.406-0.679-0.747-0.946-1.264c-0.174-0.342-0.644-0.438-0.959-0.252
		c-0.344,0.201-0.429,0.62-0.254,0.961c0.3,0.585,0.701,1.085,1.163,1.548C34.818,274.939,35.812,273.945,35.17,273.303z"/>
	<path fill="#B2D5BA" d="M36.928,272.95c-0.057-0.069-0.071-0.081-0.041-0.033c-0.026-0.038-0.052-0.076-0.074-0.116
		c-0.059-0.093-0.106-0.196-0.156-0.293c-0.112-0.225-0.259-0.429-0.432-0.612c-0.263-0.278-0.729-0.266-0.995,0
		c-0.276,0.276-0.262,0.716,0,0.993c0.058,0.07,0.072,0.081,0.04,0.033c0.027,0.039,0.053,0.078,0.077,0.12
		c0.057,0.092,0.105,0.193,0.155,0.293c0.112,0.224,0.258,0.427,0.431,0.61c0.264,0.279,0.73,0.266,0.994,0
		C37.204,273.668,37.192,273.229,36.928,272.95z"/>
	<g>
		<path fill="#F7E6C3" d="M33.206,209.711c-3.152,0.747-6.264,1.533-9.292,2.695c-1.379,0.528-1.742,2.478-1.116,3.658
			c0.757,1.423,2.285,1.644,3.659,1.117c2.576-0.987,5.319-1.572,7.998-2.207C37.852,214.168,36.602,208.904,33.206,209.711z"/>
		<path fill-rule="evenodd" clip-rule="evenodd" fill="#F7E6C3" d="M142.086,48.95c-60.736-5.495-95.498,43.392-93.31,83.639
			c2.039,37.602,26.296,74.402,75.407,77.023c51.224,2.732,87.114-24.026,90.425-78.379
			C217.336,86.466,186.426,52.965,142.086,48.95z"/>
		<path fill-rule="evenodd" clip-rule="evenodd" fill="#F7E6C3" d="M194.752,165.621c-12.487-2.261-27.502,8.206-40.352,8.49
			c-15.721,0.343-28.62-10.742-43.158-15.044c-10.848-3.211-50.616-11.483-52.143,0.462c-1.339,10.496,4.401,18.753,9.141,27.574
			c5.565,10.352,7.656,19.8,10.378,30.935c1.374,5.604,3.017,10.903,5.081,15.777c6.428,15.189,16.922,26.265,35.889,29.61
			c21.734,3.837,34.049-3.186,43.744-21.89c9.052-17.462,16.834-35.606,27.936-51.937
			C196.928,181.269,208.944,168.192,194.752,165.621z"/>
		<path fill="#FFFFFF" d="M166.838,164.068c2.486-7.815,4.773-15.881,5.865-24.031c0.641-4.792,0.575-9.696-2.231-13.833
			c-2.612-3.851-7.901-3.78-11.7-2.208c-3.635,1.507-6.743,4.499-9.414,7.279c-3.817,3.971-7.398,8.327-10.594,12.952
			c-0.568-4.197-1.221-8.381-2.186-12.521c-2.344-10.04-12.884-35.034-26.07-21.727c-7.149,7.215-6.953,21.576-7.209,30.975
			c-0.353,12.845,1.177,25.727,2.743,38.469c1.606,13.046,2.612,26.005,3.139,39.135c0.674,16.762,1.131,33.552,2.99,50.248
			c0.364,3.251,3.99,5.39,7.045,4.855c1.936-0.342,3.348-1.487,4.139-3.01c3.545,0.31,5.849-2.224,6.501-5.406
			C137.068,229.862,155.951,198.266,166.838,164.068z M118.229,179.813c-0.899-7.277-1.819-14.556-2.38-21.868
			c-0.442-5.788-0.598-11.597-0.499-17.401c0.062-3.467-0.884-11.529,2.121-14.101c4.389-3.755,7.158,11.215,7.885,14.232
			c1.553,6.448,2.383,12.996,3.402,19.537c0.47,3.016,0.452,5.468,3.166,7.044c5.168,2.999,8.968-2.214,11.29-6.203
			c2.459-4.219,4.623-8.628,7.379-12.668c1.307-1.917,5.643-8.57,8.008-8.783c5.653-0.508-1.885,17.308-2.743,19.724
			c-8.062,22.719-18.082,44.625-26.766,67.153c-2.496,6.475-4.759,13.022-6.735,19.66
			C121.039,224.025,120.952,201.847,118.229,179.813z"/>
		<path fill="#5E6D7F" d="M144.76,304.932c5.245-7.635,7.561-17.703,9.234-31.11c1.909-15.275,0.331-7.712-0.184-19.449
			c-17.736,5.945-45.203,4.159-61.294-6.685c-5.25,11.487-3.25,35.057-0.551,47.195c7.782,3.146,15.766,4.696,23.997,6.707
			C125.306,304.068,135.065,305.3,144.76,304.932z"/>
		<path fill="#474C59" d="M115.963,301.59c-8.231-2.011-16.216-3.561-23.997-6.707c0.398,1.79,0.811,3.334,1.219,4.551
			c5.773,17.248,20.159,24.787,34.571,18.652c7.81-3.326,13.183-7.594,17.004-13.154C135.065,305.3,125.306,304.068,115.963,301.59z
			"/>
		<path fill="#8EB6C9" d="M154.898,250.464c-5.49,0.979-8.873,1.171-14.407,1.267c-5.931,0.106-11.851-0.19-17.744-0.712
			c-5.916-0.529-11.801-1.371-17.644-2.513c-5.725-1.121-9.295-2.021-14.724-4.074c-3.429-1.298-7.225,0.616-8.619,5.197
			c-1.279,4.195,0.271,9.621,3.699,10.919c11.294,4.274,23.199,6.289,34.998,7.447c12.057,1.18,24.431,1.397,36.531-0.758
			c3.602-0.642,6.047-5.695,5.504-10.059C161.902,252.411,158.491,249.824,154.898,250.464z"/>
		<path fill="#8EB6C9" d="M152.218,272.257c-5.32,0.996-8.598,1.195-13.955,1.313c-5.744,0.121-11.477-0.155-17.185-0.66
			c-5.726-0.507-11.423-1.332-17.076-2.457c-5.541-1.102-8.996-1.991-14.249-4.028c-3.316-1.285-6.999,0.638-8.362,5.222
			c-1.25,4.197,0.235,9.616,3.555,10.904c10.926,4.239,22.45,6.217,33.872,7.337c11.675,1.146,23.658,1.322,35.379-0.871
			c3.487-0.653,5.871-5.71,5.36-10.072C158.995,274.181,155.7,271.605,152.218,272.257z"/>
		<path fill="#8EB6C9" d="M148.889,293.805c-5.055,1.015-8.167,1.231-13.253,1.367c-5.45,0.146-10.89-0.107-16.308-0.59
			c-5.43-0.484-10.838-1.286-16.2-2.387c-5.254-1.08-8.528-1.952-13.509-3.969c-3.14-1.27-6.645,0.666-7.957,5.256
			c-1.206,4.2,0.183,9.613,3.329,10.887c10.353,4.191,21.282,6.123,32.122,7.196c11.075,1.097,22.447,1.225,33.583-1.013
			c3.315-0.666,5.601-5.733,5.129-10.093C155.313,295.701,152.197,293.139,148.889,293.805z"/>
		<path fill="#F7E6C3" d="M137.267,17.36c-0.206-4.812-0.347-9.625-0.491-14.438c-0.044-1.473-0.886-2.785-2.478-2.914
			c-1.346-0.109-2.958,1.001-2.913,2.477c0.143,4.813,0.285,9.627,0.492,14.438c0.062,1.473,0.869,2.784,2.477,2.914
			C135.684,19.945,137.33,18.837,137.267,17.36z"/>
		<path fill="#F7E6C3" d="M267.407,146.598c0.335-1.342-0.516-3.038-1.971-3.279c-4.775-0.789-9.198-2.78-13.393-5.126
			c-3.044-1.702-5.701,3.01-2.657,4.712c4.577,2.559,9.535,4.802,14.742,5.664C265.581,148.81,267.027,148.117,267.407,146.598z"/>
		<path fill="#F7E6C3" d="M32.567,49.041c-4.64-4.203-10.18-7.324-14.552-11.832c-1.025-1.056-2.635-1.31-3.812-0.309
			c-1.069,0.907-1.336,2.754-0.31,3.813c4.709,4.853,10.588,8.243,15.575,12.763c1.096,0.993,3.001,0.425,3.768-0.669
			C34.161,51.484,33.657,50.028,32.567,49.041z"/>
		<path fill="#F7E6C3" d="M78.668,21.725c-0.825-4.123-1.714-8.294-3.728-12.027c-1.651-3.057-6.539-0.735-4.877,2.345
			c1.805,3.341,2.551,7.002,3.29,10.694C74.037,26.152,79.355,25.153,78.668,21.725z"/>
		<path fill="#F7E6C3" d="M194.39,9.314c-3.001,6.455-6.524,13.034-7.138,20.249c-0.124,1.469,0.637,2.861,2.186,3.141
			c1.347,0.243,3.015-0.716,3.14-2.185c0.576-6.777,3.902-12.867,6.721-18.929C200.77,8.423,195.862,6.148,194.39,9.314z"/>
		<path fill="#F7E6C3" d="M248.412,51.027c-4.559,1.877-8.574,4.741-12.773,7.271c-1.26,0.76-1.953,2.188-1.267,3.61
			c0.593,1.234,2.345,2.029,3.609,1.266c4.201-2.532,8.216-5.395,12.773-7.272C253.982,54.574,251.629,49.702,248.412,51.027z"/>
		<path fill="#F7E6C3" d="M266.54,94.579c-2.49,0.631-5.011,0.81-7.565,0.971c-1.471,0.092-2.716,1.13-2.73,2.682
			c-0.01,1.393,1.21,2.822,2.682,2.729c3.023-0.192,6.06-0.41,9.005-1.155C271.315,98.95,269.92,93.724,266.54,94.579z"/>
		<path fill="#F7E6C3" d="M9.619,86.129c-2.492-0.808-4.896-1.003-7.485-0.607c-3.448,0.528-2.434,5.843,1.01,5.315
			c1.618-0.247,3.064-0.13,4.62,0.374C11.079,92.288,12.936,87.206,9.619,86.129z"/>
		<path fill="#F7E6C3" d="M253.451,181.283c-3.588-1.348-7.212-2.686-10.62-4.464c-1.308-0.682-2.841-0.653-3.766,0.669
			c-0.763,1.089-0.64,3.084,0.667,3.767c3.838,2,7.818,3.592,11.863,5.111C254.87,187.595,256.712,182.507,253.451,181.283z"/>
		<path fill="#F7E6C3" d="M227.423,227.644c-4.352-3.168-9.437-4.861-14.525-6.434c-3.327-1.027-5.189,4.053-1.855,5.083
			c4.648,1.435,9.305,2.892,13.281,5.788C227.152,234.138,230.237,229.693,227.423,227.644z"/>
		<path fill="#F7E6C3" d="M201.721,271.396c-3.729-5.01-7.841-9.729-12.735-13.641c-2.733-2.184-5.808,2.271-3.098,4.436
			c4.521,3.615,8.266,8.08,11.712,12.709C199.686,277.702,203.795,274.181,201.721,271.396z"/>
		<path fill="#F7E6C3" d="M20.656,172.697c-3.939,1.086-7.791,2.755-11.923,2.891c-3.484,0.115-3.384,5.523,0.102,5.409
			c4.655-0.153,8.927-1.889,13.358-3.112C25.554,176.958,24.022,171.769,20.656,172.697z"/>
		<path fill="#F7E6C3" d="M14.335,136.982c-3.544,1.043-7.18,1.143-10.85,1.215c-3.488,0.067-3.385,5.475,0.103,5.408
			c4.14-0.079,8.287-0.259,12.286-1.435C19.215,141.187,17.686,135.996,14.335,136.982z"/>
	</g>
	<g>
		<path fill="#C2887D" d="M100.901,279.48c0.609-1.037,1.16-1.982,1.368-2.617c0.364-1.13,0.479-2.256,0.687-3.399
			c2.785,0.556,3.366,7.69,1.933,9.563c-1.198,1.573-4.889,4.353-6.016,1.935C98.347,283.842,99.729,281.486,100.901,279.48z"/>
		<g>
			<g>
				<path fill="#453D3E" d="M113.343,273.344c0.759,0.841,1.504,1.734,2.227,2.665c0.112,1.039-0.307,2.124-1.219,2.866
					c-1.456,1.188-3.626,1.053-4.835-0.299c-1.217-1.351-1.02-3.407,0.442-4.597C110.934,273.183,112.23,272.984,113.343,273.344z"
					/>
			</g>
			<path fill="#C2887D" d="M85.186,296.372c0.246,1.331-0.637,3.243-0.929,4.555c-0.053,0.232-0.129,0.788-0.226,1.509
				c3.397,0.768,7.067,0.675,10.156-0.571c0.767-0.308,1.604-0.323,2.261,0.055c4.455-3.029,8.557-6.55,12.104-10.583
				c3.117-3.547,6.709-7.743,7.311-12.482c0.231-1.79,0.115-4.406-0.945-5.893c-0.1-0.142-0.221-0.3-0.365-0.469
				c-0.735-0.87-1.959-1.927-3.014-1.457c-0.906,0.407-2.887,5.395-6.33,8.241c-5.581,4.615-11.548,8.051-18.142,11.064
				c-1.896,0.867-5.023,1.684-3.48,4.044C84.143,295.235,84.969,295.202,85.186,296.372z"/>
			<g>
				<g>
					<path fill="#936663" d="M112.136,272.118l0.119-0.003c0.271,0.257,0.356,0.379,0.682,0.583
						c-0.294,2.746-1.456,5.721-3.991,8.845l-0.819-0.653C110.714,277.7,112.027,274.832,112.136,272.118z"/>
				</g>
			</g>
			<g>
				<g>
					<path fill="#936663" d="M114.379,273.687c0.395,0.578,0.395,0.578,0.705,1.343c-0.329,2.783-1.591,5.504-4.316,8.738
						l-0.877-0.73C112.716,279.69,114.291,276.438,114.379,273.687z"/>
				</g>
			</g>
			<g>
				<g>
					<path fill="#936663" d="M110.347,285.958c0.14,0.131,2.752-3.062,2.938-3.396c1.242-2.148,2.119-4.455,2.065-4.923
						c0.319,0.897,0.158,2.137-0.096,3.005c-0.22,0.754-0.546,1.474-0.855,2.029c-0.219,0.391-3.046,4.207-3.265,4.008
						L110.347,285.958z"/>
				</g>
				<g>
					<path fill="#936663" d="M115.35,277.639c-0.005-0.024-0.014-0.049-0.027-0.071C115.34,277.582,115.345,277.605,115.35,277.639z
						"/>
				</g>
			</g>
		</g>
	</g>
	<path fill="#739DBD" d="M41.323,271.843c2.859,3.519,5.251,7.212,7.935,11.03c2.219,3.153,6.472,6.963,9.781,8.772
		c7.355,4.013,16.461,2.253,23.579-1.293c3.731-1.86,8.546-6.525,12.948-3.213c3.705,2.789,7.706,10.507,5.662,14.617
		c-2.034,4.084-6.459,7.309-10.089,10.124c-6.293,4.878-14.894,9.253-23.32,10.103c-13.034,1.312-22.587,1.74-33.805-6.353
		c-3.847-2.774-7.143-6.338-9.979-10.119c-5.297-7.06-11.51-17.892-8.987-26.979c1.223-4.405,3.463-10.001,7.97-11.814
		c5.201-2.091,10.446-3.233,14.824,1.216C39.095,269.211,40.242,270.514,41.323,271.843z"/>
	<path fill="#577286" d="M94.142,285.893c0.419,0.05,0.914,0.226,1.43,0.484c1.416,0.707,3.004,2.008,3.706,2.885
		c2.364,2.961,7.408,10.006,2.138,12.529c-0.267,0.128-3.456-4.438-5.815-7.811c-1.245-1.782-2.259-3.229-2.494-3.48
		c-0.429-0.464-2.426-1.823-2.51-2.255C90.314,286.779,92.819,285.74,94.142,285.893z"/>
	<path fill="#6487A6" d="M36.708,303.84c7.183,5.617,17.019,8.305,27.889,9.726c5.777,0.754,11.614-1.469,16.502-4.2
		c2.547-1.421,4.678-3.245,7.053-4.873c0.091-0.064,5.54-4.155,5.276-2.708c-1.5,8.25-15.814,14.853-23.671,16.566
		c-11.3,2.463-24.407-0.508-33.917-6.71c-4.871-3.177-21.94-20.781-15.601-27.267c3.019,2.657,4.461,6.813,7.114,9.904
		C30.263,297.669,33.173,301.075,36.708,303.84z"/>
	<path fill="#739DBD" d="M95.307,287.591c-0.121-0.47-0.65-0.796-1.151-0.665c-0.732,0.19-1.352,0.645-1.761,1.249
		c-0.283,0.414-0.116,0.994,0.318,1.246c0.453,0.263,1.026,0.111,1.308-0.303c0.027-0.038,0.04-0.059,0.047-0.072
		c0.008-0.009,0.015-0.018,0.027-0.028c0.02-0.021,0.194-0.163,0.19-0.173c0.063-0.037,0.125-0.074,0.19-0.108
		c0.026-0.011,0.052-0.023,0.077-0.033c0.012-0.003,0.028-0.008,0.053-0.015C95.107,288.558,95.432,288.084,95.307,287.591z"/>
	<path fill="#739DBD" d="M96.6,290.632c-0.559,0.461-1.003,1.006-1.383,1.606c-0.641,1,0.99,1.943,1.628,0.943
		c0.33-0.518,0.57-0.821,1.062-1.227C98.838,291.186,97.525,289.869,96.6,290.632z"/>
	<path fill="#739DBD" d="M99.905,294.115c-0.951,0.438-1.762,1.062-2.331,1.915c-0.662,0.988,0.966,1.93,1.626,0.945
		c0.395-0.588,0.958-0.963,1.611-1.263C101.921,295.201,101.007,293.608,99.905,294.115z"/>
	<path fill="#8EB6C9" d="M39.148,277.664c-1.055-1.759-2.11-3.517-3.164-5.275c-0.466-0.776-1.682-0.069-1.214,0.71
		c1.055,1.758,2.109,3.516,3.164,5.275C38.399,279.15,39.615,278.442,39.148,277.664z"/>
	<path fill="#8EB6C9" d="M48.29,288.21c-0.66-0.971-1.451-1.841-2.11-2.812c-0.507-0.746-1.726-0.042-1.215,0.71
		c0.659,0.97,1.45,1.841,2.109,2.812C47.581,289.667,48.8,288.963,48.29,288.21z"/>
	<path fill="#8EB6C9" d="M61.397,298.858c-0.715-0.359-1.389-0.734-1.967-1.297c-0.65-0.631-1.645,0.362-0.996,0.995
		c0.665,0.645,1.43,1.105,2.252,1.516C61.497,300.476,62.209,299.264,61.397,298.858z"/>
	<path fill="#8EB6C9" d="M79.842,297.38c-2.176,0.698-4.433,1.035-6.68,1.407c-0.895,0.147-0.515,1.503,0.373,1.356
		c2.247-0.372,4.504-0.709,6.68-1.407C81.074,298.461,80.707,297.102,79.842,297.38z"/>
	<path fill="#8EB6C9" d="M29.195,272.248c-0.454-0.454-0.83-0.945-0.85-1.612c-0.027-0.905-1.433-0.908-1.407,0
		c0.03,1.047,0.539,1.882,1.26,2.606C28.839,273.884,29.835,272.889,29.195,272.248z"/>
	<path fill="#8EB6C9" d="M36.433,286.2c-0.695-0.376-1.154-1.173-1.503-1.858c-0.412-0.807-1.626-0.096-1.215,0.711
		c0.458,0.895,1.105,1.869,2.009,2.36C36.522,287.848,37.231,286.633,36.433,286.2z"/>
	<path fill="#8EB6C9" d="M49.795,299.209c-1.284-0.667-2.329-1.65-3.517-2.461c-0.751-0.512-1.454,0.706-0.71,1.213
		c1.187,0.813,2.231,1.796,3.517,2.463C49.888,300.84,50.6,299.627,49.795,299.209z"/>
	<path fill="#8EB6C9" d="M62.804,305.889c-0.796-0.37-1.597-0.447-2.465-0.449c-0.906-0.001-0.906,1.406,0,1.407
		c0.598,0.001,1.201-0.002,1.755,0.255C62.909,307.484,63.626,306.271,62.804,305.889z"/>
	<path fill="#8EB6C9" d="M80.545,305.115c-1.339,0.356-2.633,0.98-4.033,1.029c-0.905,0.031-0.908,1.438,0,1.407
		c1.542-0.053,2.934-0.686,4.405-1.08C81.793,306.238,81.422,304.881,80.545,305.115z"/>
	<path fill="#8EB6C9" d="M24.622,279.279c-0.496-0.522-0.829-1.238-0.848-1.964c-0.022-0.905-1.428-0.908-1.405,0
		c0.027,1.101,0.505,2.166,1.261,2.959C24.254,280.932,25.247,279.935,24.622,279.279z"/>
	<path fill="#8EB6C9" d="M30.107,291.474c-0.591-0.315-0.867-0.93-1.156-1.505c-0.404-0.811-1.619-0.099-1.214,0.709
		c0.398,0.795,0.848,1.577,1.66,2.009C30.196,293.117,30.906,291.902,30.107,291.474z"/>
	<path fill="#8EB6C9" d="M38.335,302.484l-1.407-1.407c-0.642-0.641-1.635,0.352-0.994,0.995l1.405,1.405
		C37.981,304.119,38.976,303.125,38.335,302.484z"/>
	<path fill="#8EB6C9" d="M53.142,313.553c-1.147-0.376-2.318-0.681-3.347-1.335c-0.768-0.488-1.474,0.729-0.71,1.214
		c1.13,0.719,2.424,1.065,3.684,1.479C53.632,315.193,54,313.834,53.142,313.553z"/>
	<path fill="#8EB6C9" d="M69.645,315.663c-1.682,0.311-3.382,0.326-5.088,0.326c-0.905,0-0.905,1.407,0,1.406
		c1.836-0.001,3.653-0.042,5.462-0.376C70.911,316.854,70.532,315.498,69.645,315.663z"/>
	<path fill="#8EB6C9" d="M85.298,310.811c-1.036,0.669-2.16,1.034-3.348,1.335c-0.878,0.224-0.506,1.58,0.373,1.357
		c1.298-0.329,2.553-0.744,3.685-1.478C86.766,311.535,86.062,310.317,85.298,310.811z"/>
	<path fill="#8EB6C9" d="M21.107,289.473c-0.893-0.927-1.516-2.061-1.552-3.369c-0.027-0.906-1.432-0.907-1.408,0
		c0.048,1.683,0.811,3.166,1.965,4.364C20.743,291.123,21.737,290.127,21.107,289.473z"/>
	<path fill="#8EB6C9" d="M29.897,303.187c-0.622-0.652-0.91-1.524-1.297-2.32c-0.398-0.814-1.611-0.101-1.216,0.71
		c0.449,0.917,0.801,1.851,1.519,2.603C29.528,304.838,30.521,303.842,29.897,303.187z"/>
	<path fill="#8EB6C9" d="M41.498,314.788c-0.116-0.117-0.234-0.233-0.351-0.351c-0.27-0.27-0.723-0.27-0.996,0
		c-0.269,0.271-0.269,0.724,0,0.994c0.118,0.118,0.237,0.236,0.354,0.352c0.27,0.271,0.724,0.271,0.993,0
		C41.77,315.513,41.77,315.06,41.498,314.788z"/>
	<path fill="#8EB6C9" d="M46.127,306.301c-0.178-0.334-0.545-0.496-0.905-0.508c-0.385-0.012-0.703,0.329-0.703,0.703
		c0,0.288,0.172,0.523,0.415,0.635c0.11,0.245,0.354,0.419,0.64,0.419c0.379,0,0.708-0.319,0.703-0.703
		C46.274,306.652,46.218,306.471,46.127,306.301z"/>
	<path fill="#8EB6C9" d="M89.169,296.651c-0.833,0.025-1.648,0.334-2.255,0.91c-0.661,0.624,0.336,1.616,0.994,0.995
		c0.334-0.316,0.805-0.484,1.261-0.498C90.075,298.032,90.076,296.626,89.169,296.651z"/>
	<path fill="#8EB6C9" d="M92.89,303.187c-0.463,0.462-0.864,0.962-1.164,1.548c-0.175,0.341-0.093,0.76,0.252,0.962
		c0.316,0.186,0.788,0.089,0.962-0.252c0.266-0.518,0.54-0.859,0.945-1.264C94.528,303.539,93.532,302.545,92.89,303.187z"/>
	<path fill="#8EB6C9" d="M90.017,288.771c-0.27-0.271-0.723-0.271-0.996,0c-0.351,0.352-0.701,0.702-1.053,1.054
		c-0.271,0.272-0.271,0.724,0,0.995c0.272,0.271,0.724,0.271,0.996,0c0.351-0.352,0.703-0.703,1.053-1.054
		C90.289,289.495,90.289,289.043,90.017,288.771z"/>
	<path fill="#8EB6C9" d="M75.668,278.91c-1.144-0.75-2.371-1.36-3.517-2.11c-0.76-0.497-1.465,0.72-0.709,1.215
		c1.145,0.749,2.371,1.362,3.516,2.11C75.72,280.623,76.423,279.405,75.668,278.91z"/>
	<path fill="#8EB6C9" d="M78.973,284.698c-1.038-0.021-1.947-0.4-2.809-0.958c-0.765-0.494-1.469,0.724-0.711,1.215
		c1.07,0.691,2.238,1.123,3.52,1.15C79.88,286.124,79.878,284.717,78.973,284.698z"/>
	<path fill="#8EB6C9" d="M74.402,288.566h-1.405c-0.908,0-0.908,1.406,0,1.406h1.405C75.31,289.972,75.31,288.566,74.402,288.566z"
		/>
</g>
</svg>
