<svg xmlns="http://www.w3.org/2000/svg" width="98.131" height="97.619" viewBox="0 0 98.131 97.619"><path fill="#FF9797" d="M79.91 81.685H47.725V49.019l16.092-12.627L79.91 49.019z"/><path fill="#F58787" d="M0 49.019h47.725v32.666H0z"/><path fill="#311E69" d="M48.224 49.874l15.593-12.236v-1.246l-49.012.855L0 49.019v.855z"/><path fill="#614CD4" d="M47.725 49.019l16.092-12.627h-49.51L0 49.019z"/><path fill="#311E69" d="M63.817 37.638L79.91 50.194v-1.175L63.817 36.392z"/><path fill="#AD263D" d="M64.862 56.282a5.044 5.044 0 0 0-5.044 5.044v20.359h10.087V61.326a5.043 5.043 0 0 0-5.043-5.044z"/><path fill="#7A2A2A" d="M64.862 56.282c-.325 0-.642.034-.949.092a5.043 5.043 0 0 1 4.094 4.951v20.359h1.899V61.326a5.045 5.045 0 0 0-5.044-5.044z"/><path fill="#D95F76" d="M71.864 55.831h6.408v14.383h-6.408z"/><path fill="#AF3F5A" d="M77.121 55.831h1.151v14.383h-1.151z"/><path fill="#D95F76" d="M50.977 55.831h6.408v14.383h-6.408z"/><path fill="#AF3F5A" d="M56.234 55.831h1.151v14.383h-1.151z"/><circle fill="#D95F76" cx="64.862" cy="50.194" r="3.37"/><path fill="#AF3F5A" d="M64.862 46.824c-.178 0-.352.018-.522.044 1.613.252 2.848 1.643 2.848 3.326s-1.235 3.074-2.848 3.326c.171.027.344.044.522.044a3.37 3.37 0 0 0 0-6.74z"/><path fill="#F58787" d="M75.443 50.194h-2.941a.64.64 0 0 0-.639.639v.765c0 .351.288.639.639.639h2.941a.641.641 0 0 0 .639-.639v-.765a.641.641 0 0 0-.639-.639zm-3.259 2.621h-2.941a.641.641 0 0 0-.639.639v.765c0 .351.288.639.639.639h2.941a.64.64 0 0 0 .639-.639v-.765a.64.64 0 0 0-.639-.639zM51.823 79.642h-2.941a.641.641 0 0 0-.639.639v.765a.64.64 0 0 0 .639.639h2.941a.64.64 0 0 0 .639-.639v-.765a.641.641 0 0 0-.639-.639zm6.167-.931h-4.281a.933.933 0 0 0-.93.93v1.114c0 .512.418.93.93.93h4.281c.512 0 .93-.418.93-.93v-1.114a.933.933 0 0 0-.93-.93zm-4.281-2.875h-3.535a.77.77 0 0 0-.768.768v.92a.77.77 0 0 0 .768.768h3.535a.77.77 0 0 0 .768-.768v-.92a.769.769 0 0 0-.768-.768zm22.031 3.393h-3.535a.77.77 0 0 0-.768.768v.92a.77.77 0 0 0 .768.768h3.535a.77.77 0 0 0 .768-.768v-.92a.77.77 0 0 0-.768-.768zm.787-2.256h-2.733a.595.595 0 0 0-.594.594v.711c0 .327.267.594.594.594h2.733a.596.596 0 0 0 .594-.594v-.711a.595.595 0 0 0-.594-.594zm-2.856-3.036h-2.733a.595.595 0 0 0-.594.594v.711c0 .327.267.594.594.594h2.733a.595.595 0 0 0 .594-.594v-.711a.595.595 0 0 0-.594-.594zm3.118-1.898h-2.002a.437.437 0 0 0-.435.435v.521c0 .239.196.435.435.435h2.002a.437.437 0 0 0 .435-.435v-.521a.436.436 0 0 0-.435-.435zm-22.057 1.555h-1.768a.385.385 0 0 0-.384.384v.46c0 .211.173.384.384.384h1.768a.385.385 0 0 0 .384-.384v-.46a.385.385 0 0 0-.384-.384z"/><path fill="#C98624" d="M80.114 83.247l-15.951-.024-.111 3.316h.006c0 .727 3.618 1.317 8.08 1.317 4.463 0 8.08-.59 8.08-1.317l-.104-3.292z"/><path fill="#AA6F22" d="M80.219 86.539l-.105-3.292-7.952-.012c.602.956 1.637 1.583 1.201 2.305-.326.538-.583 1.485-.613 2.313 4.177-.052 7.469-.62 7.469-1.314z"/><ellipse fill="#F7C263" cx="72.139" cy="83.223" rx="7.975" ry="1.317"/><path fill="#C98624" d="M80.114 79.119l-15.951-.024-.111 3.316h.006c0 .727 3.618 1.317 8.08 1.317 4.463 0 8.08-.59 8.08-1.317l-.104-3.292z"/><path fill="#AA6F22" d="M80.219 82.411l-.105-3.292-7.952-.012c.602.956 1.637 1.583 1.201 2.305-.326.538-.583 1.485-.613 2.313 4.177-.051 7.469-.62 7.469-1.314z"/><ellipse fill="#F7C263" cx="72.139" cy="79.095" rx="7.975" ry="1.317"/><path fill="#C98624" d="M80.114 74.839l-15.951-.024-.111 3.316h.006c0 .727 3.618 1.317 8.08 1.317 4.463 0 8.08-.59 8.08-1.317l-.104-3.292z"/><path fill="#AA6F22" d="M80.219 78.131l-.105-3.292-7.952-.012c.602.956 1.637 1.583 1.201 2.305-.326.538-.583 1.485-.613 2.313 4.177-.052 7.469-.62 7.469-1.314z"/><ellipse fill="#F7C263" cx="72.139" cy="74.815" rx="7.975" ry="1.317"/><path fill="#C98624" d="M83.409 71.132l-15.951-.024-.111 3.316h.006c0 .727 3.618 1.317 8.08 1.317 4.463 0 8.08-.59 8.08-1.317l-.104-3.292z"/><path fill="#AA6F22" d="M83.514 74.424l-.105-3.292-7.952-.012c.602.956 1.637 1.583 1.201 2.305-.326.538-.583 1.485-.613 2.313 4.177-.051 7.469-.62 7.469-1.314z"/><ellipse fill="#F7C263" cx="75.433" cy="71.108" rx="7.975" ry="1.317"/><path fill="#FFDBA1" d="M69.8 71.388c-.422-.095-.423-.696-.001-.789a19.714 19.714 0 0 1 3.236-.453c2.412-.118 3.135-.177 3.156.206.021.382-4.774.794-5.421 1.059-.235.096-.599.061-.97-.023z"/><path fill="#C98624" d="M67.892 86.537l-15.951-.024-.111 3.317h.006c0 .727 3.618 1.317 8.08 1.317 4.463 0 8.08-.59 8.08-1.317l-.104-3.293z"/><path fill="#AA6F22" d="M67.997 89.83l-.105-3.292-7.952-.012c.602.956 1.637 1.584 1.201 2.305-.326.538-.583 1.485-.613 2.313 4.177-.052 7.469-.62 7.469-1.314z"/><ellipse fill="#F7C263" cx="59.917" cy="86.513" rx="7.975" ry="1.317"/><path fill="#FFDBA1" d="M54.283 86.794c-.422-.095-.423-.696-.001-.789a19.823 19.823 0 0 1 3.236-.453c2.412-.118 3.135-.176 3.156.206.021.382-4.774.794-5.421 1.059-.234.096-.599.061-.97-.023z"/><path fill="#C98624" d="M98.026 90.514l-15.951-.024-.111 3.316h.006c0 .727 3.618 1.317 8.08 1.317 4.463 0 8.08-.59 8.08-1.317l-.104-3.292z"/><path fill="#AA6F22" d="M98.131 93.807l-.105-3.292-7.952-.012c.602.956 1.637 1.583 1.201 2.305-.326.538-.583 1.485-.613 2.313 4.177-.052 7.469-.621 7.469-1.314z"/><ellipse fill="#F7C263" cx="90.05" cy="90.49" rx="7.975" ry="1.317"/><path fill="#FFDBA1" d="M84.417 90.771c-.422-.095-.423-.696-.001-.789a19.714 19.714 0 0 1 3.236-.453c2.412-.118 3.135-.176 3.156.206.021.382-4.774.794-5.421 1.059-.235.095-.599.06-.97-.023z"/><path fill="#AD263D" d="M30.585 44.342c1.888-.281 3.815-3.548 5.417-5.379 1.602-1.831-5.2-7.34-7.426-6.474-2.226.867.258 12.114 2.009 11.853z"/><path fill="#311E69" d="M24.561 25.319s.983-1.009 1.98-.74c1.26.34.726 1.435 1.26 1.516.826.125.05 1.113.05 1.113s-.485 3.015-2.107 3.29c-1.621.275-2.747-.547-3.073-1.843.001-.001-1.851-3.587 1.89-3.336z"/><path fill="#FF6161" d="M16.192 70.96c1.009-.309-.196-14.927-.181-16.211.048-4.189 2.909-6.75 4.337-8.487.108-.131.215-.258.322-.382.692-.806 1.348-1.479 1.814-2.154.305-.441.529-.884.626-1.365.573-2.836-6.08-4.483-3.178-7.992 1.25-1.512 3.449-2.693 6.975-2.692.683 0 1.531.073 2.102.818 1.186 1.546.223 5.28 1.255 8.867.403 1.402.859 3.086 1.325 4.865 1.653 6.307 3.017 6.654 3.443 14.01.549 9.472-2.659 21.966-10.701 33.808-.427.629-2.247 0-2.247 0-.043-.983 1.654-15.018 4.712-19.994 1.115-1.814.03-17.079-.425-17.025-.325.038 2.104 23.379-20.56 24.584l-.641-1.928s4.955-6.862 11.022-8.722z"/><path fill="#AD263D" d="M29.87 75.211c-.125 1.482-4.861 14.784-4.935 16.589-.015.374.078.697.236.977 6.144-9.485 9.233-19.299 9.816-27.579-2.087 3.695-5.036 9.058-5.117 10.013zM7.054 81.517C18.049 80.497 22.758 74.032 24.782 68c-.395-.736-.935-1.269-1.628-1.454-2.852-.763-2.641 5.913-3.97 7.062-1.329 1.149-5.881 3.734-8.78 4.879-2.211.871-3.067 2.367-3.35 3.03z"/><path fill="#311E69" d="M17.393 71.627c-1.002-2.314 3.895-.608 5.762.111a19.317 19.317 0 0 1-1.682 2.558c-1.05-.1-3.17-.568-4.08-2.669zm16.482.938a54.52 54.52 0 0 1-.758 2.951c-1.1.082-3.808.103-5.16-1.49-1.352-1.594 3.695-1.552 5.918-1.461z"/><path fill="#FF8F8F" d="M16.011 54.749c.048-4.189 2.307-6.57 3.405-8.534.979-1.751-2.385-8.338.517-11.847 1.25-1.512 3.449-2.693 6.975-2.692.683 0 1.531.073 2.102.818.804 1.048 1.855 2.276 1.975 4.609.057 1.107-1.052 3.104-.72 4.258.403 1.402 4.265 9.918 5.83 18.96.702 4.056.784 9.134-.48 14.08-1.225-.036-3.404.767-6.219 0-2.94-.801-3.288-.742-3.87-.878-1.976-.465-3.164.248-4.573 0-2.312-.406-2.286-1.976-5.346-2.368.194-.069.389-15.122.404-16.406z"/><path fill="#FF6161" d="M23.902 29.532l.032 3.012c.007.496 1.257 1.742 2.025 1.096.225-.189-.092-.863-.319-1.373l-.649-2.573-1.089-.162z"/><path fill="#311E69" d="M25.376 31.222c-1.088-.25-1.311-1.199-1.311-1.199l1.018.037.293 1.162z"/><path fill="#FF6161" d="M23.909 27.721l-.154 1.16c-.122.92.484 1.815 1.401 1.957.847.131 1.65-.374 1.75-1.442.089-.95-.602-1.751-.855-2.174-.577-.964-1.867-.822-2.142.499z"/><path fill="#FF6161" d="M23.967 28.831a1.449 1.449 0 0 1-.084-.296c-.036-.192-.134-.469-.393-.276-.377.282-.129 1.295.361 1.284.364-.007.216-.472.116-.712zm2.421-.411a1.5 1.5 0 0 0 0-.307c-.018-.195.001-.488.303-.372.439.168.476 1.211.002 1.334-.352.091-.337-.397-.305-.655z"/><path fill="#FFF" d="M25.326 29.227s.477.028 1.107-.172c0 0-.073.491-.301.684-.227.194-.56-.039-.806-.512z"/><path fill="#D95F76" d="M36.094 60.322c-1.565-9.042-5.426-17.558-5.83-18.96-.332-1.154.777-3.151.72-4.258-.12-2.333-1.171-3.561-1.975-4.609-.571-.744-1.419-.818-2.102-.818-.243 0-.478.007-.709.018.613 1.098 1.274 2.438 1.495 3.454.449 2.06-.62 14.424 1.059 17.817 1.679 3.393 3.031 17.385 2.05 21.071l-.165.612c2.214.291 3.939-.277 4.976-.247 1.266-4.946 1.183-10.024.481-14.08z"/><path fill="#311E69" d="M22.8 42.965l9.102 2.704c.379 1.008.795 2.154 1.221 3.403-1.739.188-8.074.4-10.323-6.107z"/><path fill="#AD263D" d="M25.249 30.459c.347.003.96-.149 1.208-.366.22-.192.41-.649.45-.75l-.002.052c-.1 1.068-.903 1.573-1.75 1.442a1.66 1.66 0 0 1-1.243-.95c.482.434 1.025.57 1.337.572z"/><path fill="#FFF" d="M24.008 28.398c-.039-.391.38-.433.716-.467.336-.034.756-.076.795.315.034.342-.277.654-.693.696a.966.966 0 0 1-.093.005c-.377 0-.693-.233-.725-.549zm.732-.313c-.424.043-.598.093-.578.297.026.257.316.437.648.405.332-.033.58-.269.555-.526-.015-.147-.112-.196-.324-.196a3.504 3.504 0 0 0-.301.02z"/><path fill="#F7C263" d="M55.512 0C45.176 5.906 27.949 3.882 27.949 3.882v22.021c0 15.47 10.21 29.084 25.062 33.416l2.501.73 2.501-.73c14.851-4.332 25.062-17.945 25.062-33.416V3.882S65.848 5.906 55.512 0z"/><path fill="#C98624" d="M62.053 2.593c1.017 4.53 3.426 17.658-.389 26.692-2.872 6.803-13.29 16.855-20.9 23.598a34.731 34.731 0 0 0 12.246 6.435l2.501.73 2.501-.73c14.851-4.332 25.062-17.945 25.062-33.416V3.882c.001 0-11.249 1.321-21.021-1.289z"/><path fill="#311E69" d="M36.889 28.363V13.074l.528.002c5.874 0 13.859-.651 20.636-3.501 6.032 2.537 13.017 3.329 18.623 3.473v-2.435l-.528.002c-5.874 0-13.859-.651-20.636-3.501-6.777 2.85-14.762 3.501-20.636 3.501l-.528-.002v15.289a28.204 28.204 0 0 0 5.682 17.046 28.594 28.594 0 0 0 4.309 4.589 29.112 29.112 0 0 1-1.768-2.128 28.2 28.2 0 0 1-5.682-17.046z"/><path fill="#F7C263" d="M76.148 4.217c-5.947 0-14.504-.713-20.636-4.217v7.114c6.777 2.85 14.762 3.501 20.636 3.501l.528-.002v15.289c0 6.195-1.965 12.089-5.682 17.046s-8.826 8.493-14.773 10.227l-.71.207v6.665l2.501-.73c14.851-4.332 25.062-17.945 25.062-33.416V3.882c.001 0-2.849.335-6.926.335z"/><path fill="#FFE0AE" d="M54.802 53.176a28.203 28.203 0 0 1-14.773-10.227 28.2 28.2 0 0 1-5.682-17.046v-15.29l.528.002c5.874 0 13.859-.651 20.636-3.501V0C49.38 3.504 40.822 4.217 34.875 4.217c-4.078 0-6.927-.335-6.927-.335v22.021c0 15.47 10.21 29.084 25.062 33.416l2.501.73v-6.665l-.709-.208z"/><path fill="#FFE0AE" d="M44.17 43.067s-5.595-11.461-5.531-23.86a3.88 3.88 0 0 1 3.459-3.826c4.562-.508 12.377-1.498 13.414-2.42 1.477-1.313-2.297 8.203-5.496 11.32-3.2 3.118-5.846 18.786-5.846 18.786z"/><path fill="#FFF" d="M26.039 28.551a.603.603 0 0 1-.3-.378c-.044-.165-.003-.295.122-.387.102-.075.246-.117.409-.161.164-.043.311-.078.435-.064.154.018.255.111.299.275a.605.605 0 0 1-.073.477.667.667 0 0 1-.576.317.644.644 0 0 1-.316-.079zm.271-.776c-.143.038-.277.077-.357.136-.054.04-.099.094-.065.223.032.12.112.22.224.281a.516.516 0 0 0 .378.043.511.511 0 0 0 .307-.225.453.453 0 0 0 .055-.356c-.034-.128-.101-.153-.167-.161-.014-.002-.028-.002-.043-.002-.091 0-.209.029-.332.061z"/><path fill="#FFF" d="M25.479 28.226c.15-.15.279-.068.28-.067l.086-.129c-.081-.054-.284-.105-.476.086l.11.11z"/><path fill="#FF6161" d="M22.948 93.654c.413.372 2.087 2.558 2.678 2.617.319.032.579-.005.752-.046-.376-.295-.789-.989-1.166-1.746-.254-.51-.532-1.181-.527-2.18l-2.477.829s-.044.104-.1.265c.233-.006.585.031.84.261z"/><path fill="#311E69" d="M27.902 97.047c-.22-.206-.613-.45-1.311-.698a.771.771 0 0 1-.213-.125 2.286 2.286 0 0 1-.752.046c-.591-.059-2.265-2.245-2.678-2.617-.255-.229-.607-.266-.84-.261-.126.362-.316 1.012-.214 1.421.148.591.502 2.277.443 2.806h.738v-1.89s.561.295.857.62c.111.122.217.331.307.545a1.2 1.2 0 0 0 1.108.725h2.321c.301 0 .452-.367.234-.572z"/><path fill="#FF6161" d="M5.296 80.24c-.209.515-1.693 2.834-1.547 3.41.079.31.202.543.3.692.149-.454.661-1.079 1.244-1.691.392-.412.93-.903 1.87-1.239l-1.624-2.046s-.113-.006-.283-.004c.083.216.168.56.04.878z"/><path fill="#311E69" d="M3.795 86.054c.119-.277.214-.73.209-1.47a.752.752 0 0 1 .045-.242 2.312 2.312 0 0 1-.3-.692c-.146-.576 1.339-2.894 1.547-3.41.129-.318.043-.662-.041-.879-.383.005-1.059.048-1.408.284-.505.34-1.97 1.248-2.487 1.373l.252.694 1.777-.644s-.086.628-.291 1.017c-.077.145-.238.316-.408.474a1.198 1.198 0 0 0-.304 1.289l.791 2.182c.102.282.499.299.618.024z"/><path fill="#FF6161" d="M39.202 32.736s.287-.852.333-1.164c.047-.311.04-1.068.369-.587.329.481-.008.98.427.992.435.011 1.543-.562 1.665-.988.122-.426.626.212.314 1.123s-1.285 2.028-2.445 1.719c-1.16-.308-.663-1.095-.663-1.095z"/><path fill="#FF6161" d="M19.836 35.691c3.674-3.675 9.81 7.877 11.777 7.165 1.044-.378 6.859-11.036 8.446-10.333 2.364 1.046-1.079 11.545-6.507 15.169-4.848 3.237-16.602-9.115-13.716-12.001z"/><path fill="#AD263D" d="M19.836 35.691c.077-.077.155-.145.234-.209.261.403.388 1.162.896 1.768.801.956 2.325 1.808 3.754 3.108 1.429 1.3 2.937 3.893 3.816 5.262.878 1.369 2.842.801 4.418.594 1.576-.207 1.783-2.403 2.429-3.514.646-1.111 1.653-.62 2.377-1.757.723-1.137 1.163-5.606 2.093-6.717.336-.402.645-.556.902-.592.549 3.033-2.619 10.996-7.202 14.056-4.849 3.239-16.603-9.113-13.717-11.999z"/></svg>