<svg xmlns="http://www.w3.org/2000/svg" width="87.915" height="94.035" viewBox="0 0 87.915 94.035"><path fill="#F7C263" d="M87.915 9.103c0-3.976-8.436-2.499-14.031-8.066-5.216-5.19-14.741 10.793-29.927 10.907-15.185-.115-24.71-16.098-29.926-10.907C8.436 6.603 0 5.126 0 9.103c0 3.976 11.012 4.431 11.012 4.431s-5.95 1.136-3.907 3.481c2.042 2.345 10.834.723 10.834.723s-3.996 3.863 0 4.317c3.996.454 12.077-4.204 12.077-4.204s-2.398 2.499.444 3.408c1.48.473 5.079-.686 8.188-1.906-.011.179-.018.36-.018.543 0 2.916 1.434 5.398 3.447 6.371l.177 17.399c-.695-.099-1.387-.189-2.075-.279-2.073-.266-4.122-.503-6.091-.851a27.285 27.285 0 0 1-2.844-.642c-.893-.262-1.741-.593-2.351-.997-.303-.2-.541-.412-.688-.61a1.324 1.324 0 0 1-.265-.589 2.254 2.254 0 0 1 .023-.814 7.96 7.96 0 0 1 .316-1.206c.531-1.544 1.577-2.773 3.017-3.637a10.312 10.312 0 0 1 2.367-1.026 12.347 12.347 0 0 1 2.263-.447l.15-.012.069-.004a2.159 2.159 0 1 0-.163-4.314l-.159.011-.125.012-.238.026a15.223 15.223 0 0 0-1.341.223c-.583.123-1.158.277-1.727.462a14.487 14.487 0 0 0-3.299 1.542 11.412 11.412 0 0 0-2.82 2.527 10.624 10.624 0 0 0-1.791 3.378 11.813 11.813 0 0 0-.426 1.82 6.11 6.11 0 0 0 .054 2.286 5.25 5.25 0 0 0 1.076 2.194c.504.615 1.087 1.065 1.66 1.421 1.156.703 2.292 1.07 3.395 1.37 1.105.291 2.187.486 3.256.648 1.008.15 2.006.269 2.995.376-.179.132-.356.27-.517.414-.224.201-.447.407-.664.64-.218.228-.43.479-.633.758a5.175 5.175 0 0 0-.556.95c-.161.358-.29.769-.338 1.219-.05.448-.01.928.114 1.36.123.435.32.817.539 1.14.22.324.462.594.708.833a8.604 8.604 0 0 0 1.508 1.135c.996.603 1.992 1.037 2.987 1.435l-.997.308-.745.229-.373.115c-.123.039-.278.086-.417.135-.57.202-1.154.449-1.74.881-.29.217-.582.487-.83.842-.249.35-.44.8-.502 1.26-.067.462-.011.909.1 1.29.111.384.272.712.448 1.005.356.584.773 1.037 1.201 1.447.43.406.879.762 1.337 1.088.458.326.926.624 1.401.901.237.138.477.272.717.401l.705.37c.557.289 1.116.565 1.676.836l-.012.006c-.934.489-1.871.998-2.789 1.585-.915.587-1.823 1.249-2.62 2.107-.793.85-1.457 1.946-1.68 3.187a5.027 5.027 0 0 0 .012 1.89c.122.62.358 1.199.656 1.719.601 1.042 1.419 1.858 2.286 2.551a14.807 14.807 0 0 0 2.066 1.365c.246.134.475.254.755.382a.798.798 0 0 0 .685-1.44l-.021-.01c-.19-.094-.419-.219-.627-.34a13.851 13.851 0 0 1-.626-.387c-.41-.27-.805-.559-1.175-.87-.738-.62-1.39-1.329-1.808-2.106-.421-.777-.572-1.603-.396-2.403.17-.812.635-1.563 1.272-2.21.638-.652 1.436-1.211 2.284-1.719.836-.502 1.728-.956 2.634-1.399l.178 17.461a1.377 1.377 0 0 0 2.754 0l.178-17.461c.907.443 1.798.897 2.634 1.399.848.508 1.646 1.068 2.284 1.719.637.647 1.102 1.398 1.272 2.21.176.8.025 1.626-.396 2.403-.418.777-1.07 1.486-1.808 2.106a13.003 13.003 0 0 1-2.428 1.597l-.022.011a.797.797 0 0 0 .687 1.44c.28-.129.509-.248.755-.382a14.807 14.807 0 0 0 2.066-1.365c.866-.693 1.685-1.509 2.286-2.551a5.665 5.665 0 0 0 .655-1.719 5.027 5.027 0 0 0 .012-1.89c-.223-1.241-.887-2.337-1.68-3.187-.797-.858-1.705-1.52-2.62-2.107-.918-.587-1.855-1.096-2.789-1.585l-.012-.006c.56-.271 1.119-.547 1.676-.836l.705-.37c.24-.129.48-.263.717-.401.475-.277.943-.575 1.401-.901a12.66 12.66 0 0 0 1.337-1.088c.428-.41.845-.863 1.201-1.447.176-.293.337-.621.448-1.005.11-.381.167-.828.1-1.29a2.911 2.911 0 0 0-.502-1.26 3.672 3.672 0 0 0-.83-.842c-.585-.433-1.17-.679-1.74-.881-.139-.05-.294-.097-.417-.135l-.373-.115-.746-.228-.997-.308c.995-.398 1.991-.832 2.987-1.435a8.592 8.592 0 0 0 1.508-1.135c.246-.238.488-.509.708-.833.219-.323.416-.706.539-1.14a3.55 3.55 0 0 0 .114-1.36 4.075 4.075 0 0 0-.338-1.219 5.209 5.209 0 0 0-.556-.95 7.132 7.132 0 0 0-.633-.758c-.217-.233-.44-.439-.664-.64a7.096 7.096 0 0 0-.517-.414 75.604 75.604 0 0 0 2.995-.376 31.016 31.016 0 0 0 3.256-.648c1.103-.3 2.24-.668 3.395-1.37.573-.356 1.156-.806 1.66-1.421a5.262 5.262 0 0 0 1.076-2.194 6.11 6.11 0 0 0 .054-2.286 12.05 12.05 0 0 0-.426-1.82 10.594 10.594 0 0 0-1.791-3.378 11.432 11.432 0 0 0-2.82-2.527 14.487 14.487 0 0 0-3.299-1.542 16.786 16.786 0 0 0-2.612-.623c-.15-.023-.301-.044-.456-.062l-.238-.026-.125-.012-.159-.011a2.159 2.159 0 1 0-.199 4.313l.036.001.069.004.15.012a9.948 9.948 0 0 1 .97.137c.436.08.87.185 1.293.31.846.253 1.65.594 2.367 1.026 1.44.864 2.486 2.093 3.017 3.637.135.385.24.788.316 1.206.063.33.063.599.023.814a1.324 1.324 0 0 1-.265.589c-.147.198-.385.41-.688.61-.611.404-1.458.735-2.351.997-.9.263-1.862.467-2.844.642-1.969.348-4.018.585-6.091.851-.688.089-1.38.18-2.075.279l.178-17.511c1.893-1.046 3.219-3.453 3.219-6.259 0-.183-.007-.364-.018-.543 3.11 1.22 6.708 2.38 8.188 1.906 2.842-.909.444-3.408.444-3.408s8.081 4.658 12.077 4.204c3.996-.454 0-4.317 0-4.317s8.791 1.622 10.834-.723c2.042-2.345-3.907-3.481-3.907-3.481s11.011-.457 11.011-4.433zM37.28 51.686c-.252-.255-.386-.497-.408-.627a.456.456 0 0 1-.003-.184.966.966 0 0 1 .096-.271c.11-.227.338-.524.627-.809.141-.144.305-.287.471-.428.151-.127.292-.228.461-.337a6.97 6.97 0 0 1 1.127-.564c.807-.324 1.711-.565 2.643-.761l.068 6.67a39.26 39.26 0 0 1-1.572-.626c-.908-.391-1.796-.816-2.549-1.304a5.601 5.601 0 0 1-.961-.759zm3.076 12.618a19.967 19.967 0 0 1-.633-.379 16.104 16.104 0 0 1-1.199-.82 10.15 10.15 0 0 1-1.055-.909c-.314-.316-.59-.651-.764-.963-.181-.314-.223-.577-.191-.672a.395.395 0 0 1 .085-.168c.053-.069.145-.159.275-.248.257-.181.641-.348 1.053-.477.107-.035.202-.06.328-.096l.375-.104.752-.208c1.005-.279 2.012-.558 3.021-.848l.072 7.045a62.962 62.962 0 0 1-1.454-.781l-.665-.372zm9.155-4.834l.375.104c.126.036.22.061.327.096.413.129.797.296 1.053.477.13.089.222.178.275.248a.395.395 0 0 1 .085.168c.032.095-.01.358-.191.672-.174.312-.45.647-.764.963-.317.317-.675.621-1.055.909-.381.288-.783.561-1.199.82-.208.129-.419.255-.633.379l-.665.374c-.479.266-.965.525-1.454.781l.072-7.045c1.009.29 2.016.569 3.021.848l.753.206zm1.759-8.411c-.022.13-.157.372-.408.627a5.621 5.621 0 0 1-.962.759c-.753.488-1.64.914-2.549 1.304-.513.219-1.04.426-1.572.626l.068-6.67c.932.196 1.836.437 2.643.761.412.166.795.354 1.127.564.169.108.31.209.461.337.167.141.33.284.471.428.289.284.517.581.627.809.056.114.084.204.096.271a.439.439 0 0 1-.002.184z"/><path fill="#C98624" d="M87.915 9.103c0-3.976-8.436-2.499-14.031-8.066-5.216-5.19-14.741 10.793-29.927 10.907v76.305c.038.003.075.011.114.011.755 0 1.37-.608 1.377-1.363l.178-17.461c.907.443 1.798.897 2.634 1.399.848.508 1.646 1.068 2.284 1.719.637.647 1.102 1.398 1.272 2.21.176.8.025 1.626-.396 2.403-.418.777-1.07 1.486-1.808 2.106a13.003 13.003 0 0 1-2.428 1.597l-.022.011a.797.797 0 0 0 .687 1.44c.28-.129.509-.248.755-.382a14.807 14.807 0 0 0 2.066-1.365c.866-.693 1.685-1.509 2.286-2.551a5.665 5.665 0 0 0 .655-1.719 5.027 5.027 0 0 0 .012-1.89c-.223-1.241-.887-2.337-1.68-3.187-.797-.858-1.705-1.52-2.62-2.107-.918-.587-1.855-1.096-2.789-1.585l-.012-.006c.56-.271 1.119-.547 1.676-.836l.705-.37c.24-.129.48-.263.717-.401.475-.277.943-.575 1.401-.901a12.66 12.66 0 0 0 1.337-1.088c.428-.41.845-.863 1.201-1.447.176-.293.337-.621.448-1.005.11-.381.167-.828.1-1.29a2.911 2.911 0 0 0-.502-1.26 3.672 3.672 0 0 0-.83-.842c-.585-.433-1.17-.679-1.74-.881-.139-.05-.294-.097-.417-.135l-.373-.115-.745-.23-.997-.308c.995-.398 1.991-.832 2.987-1.435a8.592 8.592 0 0 0 1.508-1.135c.246-.238.488-.509.708-.833.219-.323.416-.706.539-1.14a3.55 3.55 0 0 0 .114-1.36 4.075 4.075 0 0 0-.338-1.219 5.209 5.209 0 0 0-.556-.95 7.132 7.132 0 0 0-.633-.758c-.217-.233-.44-.439-.664-.64a7.096 7.096 0 0 0-.517-.414 75.604 75.604 0 0 0 2.995-.376 31.016 31.016 0 0 0 3.256-.648c1.103-.3 2.24-.668 3.395-1.37.573-.356 1.156-.806 1.66-1.421a5.262 5.262 0 0 0 1.076-2.194 6.11 6.11 0 0 0 .054-2.286 12.05 12.05 0 0 0-.426-1.82 10.594 10.594 0 0 0-1.791-3.378 11.432 11.432 0 0 0-2.82-2.527 14.487 14.487 0 0 0-3.299-1.542 16.786 16.786 0 0 0-2.612-.623c-.15-.023-.301-.044-.456-.062l-.238-.026-.125-.012-.159-.011a2.159 2.159 0 1 0-.199 4.313l.036.001.069.004.15.012a9.948 9.948 0 0 1 .97.137c.436.08.87.185 1.293.31.846.253 1.65.594 2.367 1.026 1.44.864 2.486 2.093 3.017 3.637.135.385.24.788.316 1.206.063.33.063.599.023.814a1.324 1.324 0 0 1-.265.589c-.147.198-.385.41-.688.61-.611.404-1.458.735-2.351.997-.9.263-1.862.467-2.844.642-1.969.348-4.018.585-6.091.851-.688.089-1.38.18-2.075.279l.178-17.511c1.893-1.046 3.219-3.453 3.219-6.259 0-.183-.007-.364-.018-.543 3.11 1.22 6.708 2.38 8.188 1.906 2.842-.909.444-3.408.444-3.408s8.081 4.658 12.077 4.204c3.996-.454 0-4.317 0-4.317s8.791 1.622 10.834-.723c2.042-2.345-3.907-3.481-3.907-3.481s11.011-.457 11.011-4.433zM48.76 59.262l.752.208.375.104c.126.036.22.061.327.096.413.129.797.296 1.053.477.13.089.222.178.275.248a.395.395 0 0 1 .085.168c.032.095-.01.358-.191.672-.174.312-.45.647-.764.963-.317.317-.675.621-1.055.909-.381.288-.783.561-1.199.82-.208.129-.419.255-.633.379l-.665.374c-.479.266-.965.525-1.454.781l.072-7.045c1.009.288 2.017.567 3.022.846zm-.269-10.795c.412.166.795.354 1.127.564.169.108.31.209.461.337.167.141.33.284.471.428.289.284.517.581.627.809.056.114.084.204.096.271a.456.456 0 0 1-.003.184c-.022.13-.157.372-.408.627a5.621 5.621 0 0 1-.962.759c-.753.488-1.64.914-2.549 1.304-.513.219-1.04.426-1.572.626l.068-6.67c.932.196 1.837.437 2.644.761z"/><path fill="#1E1240" d="M28.392 36.012s.066-1.1-.407-1.716c-.473-.616-1.623-.616-2.544.191-.92.806-.348 3.065-.671 3.299-.323.235.092.6.554.755.85.285 2.759.169 3.669-.861.566-.639-.601-1.668-.601-1.668z"/><path fill="#FF6161" d="M30.859 89.548c.317.281 1.603 1.939 2.053 1.982.243.023.441-.007.573-.038-.288-.223-.606-.75-.897-1.325-.196-.387-.314-.899-.315-1.66l-1.406.074a.639.639 0 0 0-.594.52 2.484 2.484 0 0 1-.056.252c.178-.005.447.021.642.195z"/><path fill="#1E1240" d="M34.651 92.111c-.168-.156-.469-.34-1.003-.526a.587.587 0 0 1-.163-.094c-.132.032-.33.061-.573.038-.451-.042-1.736-1.7-2.053-1.982-.196-.174-.464-.2-.641-.195-.095.276-.236.772-.156 1.084.115.45.393 1.733.351 2.137l.563-.003-.007-1.171s.427-.048.654.199c.085.092.167.251.237.414.144.337.482.55.848.548l1.769-.011c.228-.002.341-.283.174-.438z"/><path fill="#FF6161" d="M34.105 55.934c.101.361 1.282 9.891-1.72 33.57-.095.746-2.22-.291-2.85-1.631-1.694-3.606-2.91-11.305-1.189-18.242.925-3.727.298-8.162.55-9.925.224-1.564.896-4.62 1.703-6.134.564-1.056 2.959.41 3.506 2.362z"/><path fill="#AD263D" d="M34.373 59.597c-1.12 1.36-3.393 4.42-3.408 6.866-.019 3.246.019 9.031 0 10.654-.019 1.623-1.159 2.74-.747 5.494.747 4.994 2.124 7.23 2.167 6.893 1.993-15.72 2.142-25.201 1.988-29.907z"/><path fill="#FF6161" d="M24.175 89.652c.317.281 1.603 1.94 2.053 1.982.243.023.441-.007.573-.038-.288-.223-.606-.75-.897-1.325-.196-.387-.314-.899-.315-1.66l-1.406.074a.639.639 0 0 0-.594.52 2.484 2.484 0 0 1-.056.252c.178-.005.446.021.642.195z"/><path fill="#1E1240" d="M27.967 92.215c-.168-.156-.469-.34-1.003-.526a.587.587 0 0 1-.163-.094c-.132.032-.33.061-.573.038-.451-.042-1.736-1.7-2.053-1.982-.196-.174-.464-.2-.641-.195-.095.276-.236.773-.156 1.084.115.45.393 1.733.351 2.137l.563-.003-.007-1.171s.427-.048.654.199c.085.092.167.251.237.414.144.337.482.55.848.548l1.769-.011c.227-.002.341-.283.174-.438z"/><path fill="#FF6161" d="M30.551 56.407c.066.369.334 9.968-4.912 33.253-.165.734-2.182-.501-2.681-1.896-1.343-3.751-1.819-11.531.555-18.272 1.276-3.622 1.074-8.096 1.494-9.827.372-1.536 1.332-4.514 2.28-5.944.661-.996 2.906.692 3.264 2.686z"/><path fill="#AD263D" d="M30.468 60.08c-1.245 1.247-3.799 4.076-4.047 6.51-.329 3.23-.842 8.992-1.015 10.606-.174 1.614-1.415 2.617-1.267 5.397.268 5.043 1.425 7.399 1.5 7.068 3.482-15.458 4.535-24.883 4.829-29.581z"/><path fill="#311E69" d="M27.1 75.246c.523-1.77-2.618-1.12-4.884-.447a34.11 34.11 0 0 0-.288 2.614c1.571.033 4.583-.172 5.172-2.167z"/><path fill="#FF8F8F" d="M30.17 39.926c2.213 1.579 5.141 5.661 6.163 5.66 1.449-.002 8.82-3.285 9.424-1.736.65 1.666-5.77 5.144-9.037 5.747-4.349.802-8.34-7.644-8.561-8.513-.447-1.765 1.171-1.758 2.011-1.158z"/><path fill="#311E69" d="M29.728 44.219c.771 1.276 1.781 2.69 2.931 3.755.075-1.892-1.896-6.168-1.896-6.168l-1.035 2.413z"/><path fill="#FFCACA" d="M32.958 49.478c-.449-.883-.868-1.756-1.141-2.488-.43-1.907-.901-2.997-.784-3.353.405-1.234.334-2.09.207-2.325-.107-.199-.443-.521-.443-.521-.28-.271-1.198-1.122-1.869-1.434-2.327-1.084-4.675.238-4.817.984-.145.763.93 4.003 1.089 4.865.093.507.147 1.046.057 1.557-.051.181-.523 1.044-1.139 2.13 1.254.33 5.08 1.199 8.84.585z"/><path fill="#FF8F8F" d="M33.045 49.649c-.482-.942-.938-1.881-1.228-2.659-.43-1.907-.901-2.997-.784-3.353.405-1.234.334-2.09.207-2.325-.107-.199-.443-.521-.443-.521-.28-.271-1.198-1.122-1.869-1.434a4.365 4.365 0 0 0-1.52-.398c.749.643 2.122 1.858 2.442 2.391.445.742.415 1.914-.786 2.107-1.202.193-2.587-.104-2.443.653.144.757 3.259 1.84 3.645 2.789.386.95.341 3.264 1.454 4.481.629.688 1.66 1.133 2.439 1.391-.455-1.672-.9-2.705-1.114-3.122z"/><path fill="#614CD4" d="M33.045 49.649l-.087-.172c-3.76.615-7.587-.254-8.839-.586-1.128 1.989-2.738 4.728-3.129 5.408-.733 1.274-1.16 2.718-1.133 4.194.032 1.721 1.523 12.007-1.741 17.33 4.611.916 7.862 1.432 10.979.959 3.669-.557 5.251-1.881 5.636-1.993 2.257-15.683-.981-23.763-1.686-25.14z"/><path fill="#311E69" d="M34.731 74.79c2.257-15.684-.981-23.764-1.685-25.141l-.087-.172c-1.189.194-2.385.24-3.503.202.167 1.047.395 2.241.708 3.539 1.128 4.673.059 7.581-1.424 12.625-.865 2.941-1.444 7.676-1.777 11.114a16.092 16.092 0 0 0 2.133-.175c3.667-.556 5.25-1.88 5.635-1.992zm-9.53-29.585c.016.087.03.175.043.263 1.147-1.16.822-4.724.822-4.724l-1.528 1.973c.272 1.02.583 2.055.663 2.488z"/><path fill="#1E1240" d="M30.298 45.147h-5.423a.48.48 0 0 0-.439.352l-2.084 8.528c-.048.195.072.352.266.352h5.423a.48.48 0 0 0 .439-.352l2.084-8.528c.048-.194-.071-.352-.266-.352z"/><path fill="#FFCACA" d="M26.067 41.863c-1.089 2.942-4.796 7.468-4.266 8.501.636 1.241 6.492.823 6.042 2.713-.425 1.784-8.622 2.34-9.886-1.288-1.682-4.829 5.758-11.5 6.562-11.967 1.634-.947 1.961.925 1.548 2.041z"/><path fill="#FF6161" d="M26.838 37.043l.366 1.468c.079.322 1.462 1.18.594 1.695-.324.192-1.683-.735-1.622-1.103l-.014-1.772.676-.288z"/><path fill="#311E69" d="M27.049 37.891l.154.62c.002.01.006.02.011.031-.246-.053-.55-.162-.59-.386-.032-.182.187-.247.425-.265z"/><path fill="#FF8F8F" d="M21.801 50.364c-.447-.871 2.12-4.228 3.588-7.022-1.51 1.212-4.736 3.834-5.102 4.409-.48.755-.658 1.823.306 2.577.412.322 1.155.464 1.87.522-.323-.131-.56-.287-.662-.486z"/><path fill="#FF6161" d="M26.092 36.467c-.228.635.066 1.365.696 1.607.582.223 1.231-.012 1.466-.757.209-.662-.159-1.338-.274-1.678-.172-.508-.457-.487-.814.03-.213.31-1.074.798-1.074.798z"/><path fill="#FF6161" d="M26.133 36.545a1.055 1.055 0 0 1-.076-.21c-.036-.138-.121-.334-.299-.18-.259.224-.028.947.327.914.264-.026.133-.356.048-.524z"/><path fill="#FFF" d="M27.443 36.901s.31.027.736-.105c0 0 .008.218-.116.323-.149.127-.449.121-.62-.218z"/><path fill="#AD263D" d="M26.913 37.819c.246.055.705.042.915-.074.186-.103.391-.398.436-.464l-.01.037c-.235.744-.884.98-1.466.757a1.206 1.206 0 0 1-.738-.867c.276.381.642.562.863.611z"/><path fill="#FFF" d="M26.173 38.827s1.162.969 1.356.868c.184-.096-.053-.83-.053-.83s.455.177.606.396l.433.971-.649-.072-.523.373s-1.321-.838-1.321-1.12c.001-.282.151-.586.151-.586z"/><path fill="#FF8F8F" d="M24.451 52.854c-2.047.354-1.454-.231-3.234-.95-1.78-.718-1.128-.175-2.329-.69-.549-.235-.915-.851-1.151-1.45-.065.695-.005 1.377.221 2.025 1.264 3.628 9.461 3.072 9.886 1.288a.737.737 0 0 0-.037-.487c-.721-.135-1.854.004-3.356.264z"/><path fill="#AD263D" d="M45.135 44.344c.361.424 1.424.119 2.189-.417.765-.536.677-1.392.192-1.055-.788.546-1.679.3-2.01.63-.333.329-.521.667-.371.842z"/><path fill="#AD263D" d="M44.977 43.613s.395-.885.929-.939c.533-.055.587.091.865-.067s.28.238.085.34c-.195.102-.525.052-.668.185-.143.133.095 1.16-.524 1.333-.617.174-.757-.569-.687-.852z"/><path fill="#FF6161" d="M26.705 52.503c.045-.162.562-.31.816-.363.486-.101.72-.331.835-.503.115-.173.259.173.061.404-.198.231-.68.464-.415.496.265.031 1.202-1.166 1.189-.563-.037 1.804-1.485 1.998-2.307 1.758 0-.001-.456-.23-.179-1.229z"/><path fill="#EAE8FF" d="M55.325 38.818s-2.558 1.549-7.684 9.298c-1.909 2.886-1.214 6.471 2.133 5.948 3.987-.622 9.577-13.63 5.551-15.246z"/><path fill="#1E1240" d="M58.091 92.165c-.399-.592-.508-1.244-.555-1.78l-1.981-.007s.133.68-.203 1.21c-.146.231-.572.402-1.158.647-.929.473-2.076 1.083-2.117 1.4-.068.528 5.395.53 6.305.021.476-.265.146-.841-.291-1.491z"/><path fill="#311E69" d="M54.125 43.899s-1.984 4.52-1.007 6.1c.977 1.579 2.198.45 2.198.45l-1.191-6.55z"/><path fill="#1E1240" d="M70.957 92.165c-.399-.592-.508-1.244-.555-1.78l-1.981-.007s.133.68-.203 1.21c-.146.231-.572.402-1.158.647-.929.473-2.076 1.083-2.117 1.4-.068.528 5.395.53 6.305.021.476-.265.146-.841-.291-1.491z"/><path fill="#1E1240" d="M66.691 74.399c.134-1.893 2.23-9.319 1.462-13.78-.314-1.825-.594-6.3-.75-7.627a5.88 5.88 0 0 1-.035-.455c-5.244.67-10.415-.592-11.649-.925a7.145 7.145 0 0 1-1.165 2.806c-2.254 3.233-2.466 11.097-2.476 16.599-.023 12.309 2.213 19.626 3.395 19.987.995.304.944.463 2.184.234 3.387-.627.899-14.762.702-16.594-.186-1.733 1.493-10.862 1.493-10.862.224.859.274 21.681 8.008 27.838.759.604 3.089.442 2.986-.748-.377-4.356-4.262-14.963-4.155-16.473z"/><path fill="#FFF" d="M68.678 60.944c-1.36-6.55 1.045-14.652.405-17.214-.826-3.309-2.69-7.422-10.744-6.209-2.518.379-4.715 1.613-4.666 4.16.048 2.478.814 10.279-.43 13.546-1.032 2.708 4.581 5.731 8.201 6.002 3.806.285 7.351.278 7.234-.285z"/><path fill="#EAE8FF" d="M69.083 43.73c-.666-2.668-2.008-5.855-6.721-6.357.604 1.27 1.802 4.065 1.502 5.709-.397 2.177-3.813 13.058-2.547 17.127.116.374.224.712.328 1.034 3.729.27 7.148.254 7.034-.299-1.361-6.549 1.043-14.651.404-17.214z"/><path fill="#311E69" d="M59.126 33.109c.326-.405 1.153-1.28 2.768-.161 1.059.733.224 3.653-.42 3.973-.503.249-1.236-1.619-1.536-2.456-.42-.036-.767-.11-.856-.251-.262-.414-.177-.83.044-1.105z"/><path fill="#FF6161" d="M61.415 35.373l.768 2.669c-.013.382-2.113 1.353-2.695.844-.17-.149-.105-.513.078-.902l1.081-2.117.768-.494z"/><path fill="#311E69" d="M60.43 36.292l.565-.078a.284.284 0 0 1 .302.395 1.831 1.831 0 0 1-.538.69c-.322.254-.69.366-1.035.375l.706-1.382z"/><path fill="#FF6161" d="M60.82 34.237l.556 1.584a1.024 1.024 0 0 1-.7 1.245c-.425.125-.702.131-1.251.076-.457-.046-.7-.478-.713-1.075-.016-.775.189-1.493.32-1.872.3-.863 1.35-.964 1.788.042z"/><path fill="#FFF" d="M59.806 35.419s-.375.101-.909.047c0 0-.007.348.206.464.213.115.586-.094.703-.511z"/><path fill="#AD263D" d="M59.271 36.552c.508-.113.912.651 1.803-.1.166-.14.249-.47.29-.666l.012.035a1.024 1.024 0 0 1-.7 1.245c-.425.125-.702.131-1.251.076-.279-.028-.477-.2-.593-.465.091.012.284-.091.439-.125z"/><path fill="#311E69" d="M60.352 33.754s.404.584.374.904c-.03.32-.07.455.037.539.107.084.409-.166.395-.497-.014-.33-.167-1.154-.806-.946z"/><path fill="#FF6161" d="M60.946 34.98c.048-.092.081-.191.109-.291.052-.191.174-.462.419-.246.356.315.023 1.316-.469 1.264-.367-.037-.179-.494-.059-.727z"/><path fill="#311E69" d="M59.257 33.623s1.362 1.178 1.543 1.149c.181-.029.289-.853-.056-1.15-.346-.298-1.597-.631-1.487.001zm8.897 14.292s-2.239 3.345-6.16 4.442c-2.043.572-5.254-1.696-8.09-1.254-.066 1.358-.213 2.613-.489 3.59 1.378.679 7.238 3.368 10.617 1.804 3.847-1.781 4.122-8.582 4.122-8.582z"/><path fill="#EAE8FF" d="M47.194 50.373c1.417-1.652 12.48-1.707 13.796-.027 1.316 1.68-4.602 3.775-10.113 4.174-4.503.326-4.663-3.004-3.683-4.147z"/><path fill="#FFF" d="M65.471 39.065c-1.326-.261-2.841 3.644-2.678 7.504.164 3.86-.336 4.675-2.452 4.215-1.318-.286-9.334-3.302-10.038-1.431-.573 1.522 8.727 10.946 15.815 4.316 4.069-3.806 2.817-13.922-.647-14.604z"/><path fill="#FF6161" d="M52.255 48.761s-1.102-.444-2.13-.026c-1.028.418-1.072.473-.702.624.369.151 1.208.745 2.283.624 1.074-.122.549-1.222.549-1.222z"/><path fill="#EAE8FF" d="M68.071 42.274c-.809 1.859-1.278 5.43-1.671 6.219-.632 1.27-.778 3.692-1.448 4.914-.669 1.222-2.397 1.072-3.934.495-1.537-.577-3.216-.625-5.012-.426-1.796.199-2.857-1.867-3.993-2.609-.704-.46-1.121-.444-1.336-.366 1.809 2.854 9.422 8.799 15.44 3.169 2.723-2.547 3.063-7.915 1.954-11.396z"/><path fill="#AD263D" d="M60.383 49.921s1.316-.292 1.74-.067c.424.225 1.109 1.118.916 1.121-.193.002-.677-.454-.677-.454s.357.724.351 1.047c-.006.323-.555.358-.809.243-.254-.115-2.016-.83-2.295-1.232-.28-.403.774-.658.774-.658z"/></svg>