<svg xmlns="http://www.w3.org/2000/svg" width="122.798" height="81.604" viewBox="0 0 122.798 81.604"><path fill="#2E88BF" d="M7.97 30.265h17.222v17.222H7.97z"/><path fill="#4CB4D4" d="M16.581 30.265h17.222v17.222H16.581z"/><path fill="#2E88BF" d="M31.834 30.265l-.598 6.99-2.1-3.167s-.997 4.122-1.056 4.788c-.059.666-2.287-1.328-2.287-1.973s-1.349 2.107-1.349 2.107-.762 1.58-.88 0c-.117-1.58.438-8.745.438-8.745h7.832zm-5.338 17.222v-3.43l-.878 1.715-1.29-3.005-1.258 3.108-.619-.748-.938 2.36z"/><path fill="#FFF" d="M20.616 41.299l-.41-2.966-.489.331-.814-2.13s-.306-.852-.369-.473.347 3.66.221 3.597c-.126-.063-.203.126-.228.789-.025.663.985 2.051 1.237 1.578.252-.474.852-.726.852-.726z"/><path fill="#D18C42" d="M13.508 34.645s.205 2.082 0 3.343c-.205 1.261-1.085-.411-1.085-.411s-.147.264-.293 2.287c-.147 2.023-1.026 2.58-1.144 1.613-.117-.968-.029-6.099-.029-6.099s.821-.176.909.117c.088.293.469.088.586-.293.118-.381.323-1.73 1.056-.557z"/><path fill="#AD263D" d="M5.61 13.054h17.222v17.222H5.61z"/><path fill="#FF6161" d="M14.221 13.054h17.222v17.222H14.221z"/><path fill="#AD263D" d="M29.474 13.054l-.598 6.99-2.1-3.167s-.997 4.122-1.056 4.788c-.059.666-2.287-1.328-2.287-1.973s-1.349 2.107-1.349 2.107-.762 1.58-.88 0c-.117-1.58.438-8.745.438-8.745h7.832zM18.872 28.687a2.068 2.068 0 0 0 3.014-1.405l.566-2.787-1.263-.109-.905-1.181-3.441-1.432-1.473 2.853 2.098 3.298 1.404.763z"/><path fill="#FF6161" d="M12.042 20.034l-.41-2.966-.489.331-.814-2.13s-.306-.852-.369-.473.347 3.66.221 3.597c-.126-.063-.203.126-.228.789-.025.663.985 2.051 1.237 1.578.253-.474.852-.726.852-.726z"/><path fill="#B1A9FF" d="M28.368 21.944s.205 2.082 0 3.343c-.205 1.261-1.085-.411-1.085-.411s-.147.264-.293 2.287c-.147 2.023-1.026 2.58-1.144 1.613-.117-.968-.029-6.099-.029-6.099s.821-.176.909.117c.088.293.469.088.586-.293.117-.381.323-1.73 1.056-.557z"/><path fill="#AD263D" d="M66.694 25.56c.263-3.58.332-7.67.332-7.67s4.031 3.788 4.878 7.375c.598 2.534-1.086 5.104-2.875 5.314l-.004.001c-3.247 1.068-8.874-.406-8.914-2.178-.025-1.127 3.186-1.416 5.362-1.606a1.34 1.34 0 0 0 1.221-1.236z"/><path fill="#4CB4D4" d="M68.459 9.593s.169-1.172 1.362-1.441c1.193-.27 3.239 1.881 1.517 3.439-1.723 1.558-2.879-1.998-2.879-1.998z"/><path fill="#311E69" d="M67.82 22.074l4.191 3.874c.187 2.294-1.354 4.44-2.982 4.632l-.004.001-.085.027c-1.152-2.769-1.12-8.534-1.12-8.534z"/><path fill="#1E1240" d="M70.825 10.352s-1.915-1.749-3.309-1.431c-1.394.319.868 1.804 1.229 1.964.361.16 2.08-.533 2.08-.533z"/><path fill="#C63F20" d="M80.687 31.737s3.397 6.499-2.018 9.239c-3.379 1.71-7.204 1.601-9.604 1.277a3.458 3.458 0 0 0-3.529 1.846c-1.982 3.836-6.067 11.133-8.657 11.534-3.523.546-4.306-1.542-4.11-3.042.196-1.501 4.502-11.894 9.786-15.136 3.079-1.889 9.106-3.588 9.106-3.588l9.026-2.13z"/><path fill="#311E69" d="M36.615 1.461h6.524v62.892h-6.524zm8.067 0h2.169v62.892h-2.169z"/><path fill="#311E69" d="M36.615 1.461h10.404v1.482H36.615zm31.919 30.076l-8.38-4.489a.57.57 0 0 0-.822.648l1.216 4.643a1.16 1.16 0 0 1-.138.908l-5.421 8.709-1.174 11.484 6.133.976 3.102-20.02c.075-.486.449-.872.932-.964l4.388-.829a.572.572 0 0 0 .164-1.066z"/><path fill="#311E69" d="M100.647 42.542V30.213c0-2.823-.251-5.64-.749-8.419l-2.115-17.4A5.339 5.339 0 0 0 92.528 0H74.345a17.26 17.26 0 0 0-16.379 11.816l-4.236 18.36a30.374 30.374 0 0 0-1.551 9.585v.04h2.669v-.371c0-3.296.536-6.571 1.588-9.695l3.891-17.174A14.805 14.805 0 0 1 74.358 2.48H90.77a3.215 3.215 0 0 1 3.204 2.952l1.033 18.202c.106 1.297.16 2.597.16 3.899v15.01h5.48z"/><path fill="#F46822" d="M115.314 40.976H92.557l-1.526 1.343a6.127 6.127 0 0 1-4.049 1.528H75.594a4.828 4.828 0 0 0-4.828 4.828v2.414a2.544 2.544 0 0 1-2.544 2.544H55.187c-1.467 0-1.909 1.994-.578 2.613a14.458 14.458 0 0 1 8.255 11.364l.442 3.635a3.862 3.862 0 0 0 3.834 3.395h23.916a3.719 3.719 0 0 0 3.719-3.719c0-7.242 5.871-13.113 13.113-13.113h10.137a4.815 4.815 0 0 0 4.8-4.442c.165-2.103.093-4.723-.702-7.337a7.118 7.118 0 0 0-6.809-5.053z"/><path fill="#C63F20" d="M63.307 71.245l-.442-3.635c-.023-.187-.05-.372-.08-.557 4.612.209 8.64-1.233 12.821-1.348 4.041-.111 8.279 1.121 10.312.412 8.416-2.936 0-3.719 3.327-9.849 3.327-6.131 9.981-6.786 9.981-6.786h23.572c.137 1.394.119 2.719.028 3.885a4.816 4.816 0 0 1-4.8 4.442h-10.137c-7.242 0-13.113 5.871-13.113 13.113a3.719 3.719 0 0 1-3.719 3.719H67.141a3.863 3.863 0 0 1-3.834-3.396z"/><path fill="#311E69" d="M46.325 57.75l-.123-.528 3.189-.636c.235-.055.473-.101.713-.142l.097-.019.001.003a12.308 12.308 0 0 1 2.738-.137c6.781.42 11.937 6.258 11.517 13.039-.338 5.452-4.179 9.851-9.196 11.148v.002l-.029.006a12.33 12.33 0 0 1-1.336.266l-2.106.418-.073-.313c-.1-.004-.199-.005-.299-.011-6.781-.42-11.937-6.258-11.517-13.039.272-4.393 2.82-8.102 6.424-10.057z"/><circle fill="#1E1240" cx="48.538" cy="69.303" r="12.301"/><circle fill="#EAE8FF" cx="48.538" cy="69.303" r="4.95"/><path fill="#311E69" d="M57.283 39.193h-4.237a2.67 2.67 0 0 0-2.502 1.735c-1.028 2.763-2.76 8.261-2.006 12.27l6.44 2.436 2.305-16.441z"/><path fill="#311E69" d="M37.58 61.09c.371 0 .74-.157.998-.463a14.341 14.341 0 0 1 10.984-5.104h6.895a1.305 1.305 0 1 0 0-2.61h-6.895a16.948 16.948 0 0 0-12.979 6.031 1.305 1.305 0 0 0 .997 2.146zm53.423-33.747s-.913 15.266-2.349 16.702c-1.435 1.435-16.18.913-16.18.913v-.084a3.884 3.884 0 0 1 3.83-3.884l5.434-.077s1.827-1.435 3.262-1.435c0 0-1.827-6.524.783-9.656 2.61-3.131 5.22-2.479 5.22-2.479zM38.509 45.369H0v4.088h37.577z"/><path fill="#614CD4" d="M71.358 35.237c.288-2.37-1.506-8.259-1.506-8.259s-3.678-7.774-2.765-9.222c2.278-3.615 8.928-5.791 11.49-3.077.874.926 1.657 2.957 2.235 4.395 1.373 3.418 2.785 13.259 2.785 13.259-1.905 1.065-6.503 2.992-12.239 2.904z"/><path fill="#FF6161" d="M71.282 11.65l1.601 2.778c.075.436-2.076 2.029-2.855 1.589-.228-.129-.24-.556-.124-1.04l.727-2.652.651-.675z"/><path fill="#311E69" d="M70.485 12.858c.467-.164 1.103-.396 1.103-.396s.083.773-.494 1.459a2.02 2.02 0 0 1-1.085.669l.476-1.732z"/><path fill="#FF6161" d="M70.537 10.578l.95 1.577a1.123 1.123 0 0 1-.474 1.493c-.429.229-.725.297-1.327.361-.501.053-.859-.358-1.005-.997-.19-.829-.13-1.647-.073-2.082.129-.993 1.234-1.335 1.929-.352z"/><path fill="#FFF" d="M68.664 12.652s.018.166.172.207c.154.041.398-.085.451-.293 0 0-.251.074-.623.086z"/><path fill="#AD263D" d="M71.303 12.901c.147-.188.162-.56.163-.78l.021.034a1.123 1.123 0 0 1-.474 1.493c-.429.229-.725.297-1.327.361-.306.032-.558-.109-.741-.368.101-.006 1.568.265 2.358-.74z"/><path fill="#311E69" d="M70.873 11.396s-.297.045-.378-.142c-.081-.187-.223-.672-.223-.672s-1.756.159-2.105-.069-.603-.654-.041-.795c.563-.141 2.092.049 2.833.75.742.701.407 1.021-.086.928z"/><path fill="#F46822" d="M68.964 24.983c.107-1.03.163-2.062.043-2.598-.191-.853-.454-4.048-.612-6.158a9.852 9.852 0 0 1 1.132-.885l.749 5.26 3.156-.478c-.034-.536.14-4.643.221-6.5.45-.086.894-.138 1.327-.153-.178 1.436.314 4.53.769 6.924a7.483 7.483 0 0 0 3.323 4.908l3.78 2.416c.451 2.559.747 4.615.747 4.615-1.905 1.065-6.503 2.992-12.239 2.904.288-2.37-1.506-8.259-1.506-8.259s-.394-.829-.89-1.996z"/><path fill="#C63F20" d="M68.394 16.226c.209-.19.43-.371.66-.546.166.753.471 2.266.541 3.485.096 1.696-.763 4.828 1.798 6.916s5.431 1.261 3.692 5.176c-.603 1.357-1.113 2.735-1.609 3.922-.685.047-1.391.069-2.116.057.288-2.37-1.506-8.259-1.506-8.259s-.392-.829-.889-1.996c.107-1.03.163-2.062.043-2.598-.193-.851-.455-4.046-.614-6.157z"/><path fill="#FF6161" d="M70.785 11.353c.035-.109.053-.221.065-.335.022-.216.105-.531.409-.341.442.277.262 1.42-.28 1.453-.403.025-.283-.503-.194-.777z"/><path fill="#311E69" d="M78.215 30.941s-2.383 2.449-6.905 2.513a26.86 26.86 0 0 0-.443-2.548l7.348.035zm-1.802-12.21l-.417 8.003 3.611-1.131z"/><path fill="#FF6161" d="M76.784 14.558c3.751-1.158 8.665 10.713 4.549 15.242-3.379 3.719-16.861 3.249-16.623-.148.08-1.147 11.702-3.397 12.418-4.136.732-.756-3.1-10.107-.344-10.958z"/><path fill="#1E1240" d="M57.377 54.613c-.058-.19.281-1.514.287-1.653.023-.509-.266-.949-.702-1.255-.275-.193-1.554-.904-1.827-.725-.243.159.153 1.801-.258 2.122-.179.14-2.582.392-2.905 1.269-.151.41 4.282 2.035 5.158 1.887.46-.078.44-1.02.247-1.645z"/><path fill="#AD263D" d="M64.725 29.941c1.112-.849 4.309.64 6.1.769 1.8.13 2.606-.279 4.445-1.058 1.839-.779 2.076-.091 4.772-.961 2.697-.87 1.392-1.566 1.696-3.262.174-.968.659-1.695 1.044-2.141.319 2.487-.021 4.941-1.449 6.512-3.28 3.611-16.085 3.273-16.608.141z"/><path fill="#FF6161" d="M65.396 29.366s-.436-.565-.962-.767c-.767-.294-1.359-.263-1.166.117.193.38.171.796-.237.829-.408.033-1.468-.783-1.484-.294-.016.489 1.435 1.501 2.3 1.631.864.131 2.756-.375 1.549-1.516z"/><path fill="#F46822" d="M83.3 31.737s3.397 6.499-2.018 9.239c-3.821 1.933-9.963.458-13.249-.579a2.126 2.126 0 0 0-2.721 1.579c-.938 4.358-2.709 12.028-5.363 12.439-3.523.546-4.763-.324-4.567-1.824.196-1.501 1.631-15.047 6.916-18.289 3.079-1.889 11.977-.435 11.977-.435l9.025-2.13z"/><path d="M56.735 44.873c.249-1.019.539-2.064.876-3.088 1.757 1.186 5.416 2.078 7.194 2.46a74.88 74.88 0 0 1-.525 2.117c-2.959.539-6.116-.776-7.545-1.489zm-.248 1.064c2.02 1.056 5.863 1.821 7.325 2.086a36.355 36.355 0 0 1-.561 1.716c-2.697.575-5.632-.312-7.317-.982a59.68 59.68 0 0 1 .553-2.82z" fill="#FFD140"/><path fill="#C63F20" d="M55.381 52.591c.196-1.501 1.631-15.047 6.916-18.289 2.157-1.323 7.17-1.006 9.978-.697-.96.139-2.15.287-3.439.393-3.19.261-4.19-.826-5.169 1.087-.978 1.914-2.095 2.656-2.341 5.612s-.788 3.64-1.452 6.451c-.664 2.811-2.741 6.715-3.138 7.286-1.079-.28-1.471-.95-1.355-1.843z"/><path d="M57.611 41.785c.824.556 2.065 1.048 3.335 1.452-.221.948-.5 1.728-.817 2.899a16.909 16.909 0 0 1-3.394-1.263c.249-1.019.539-2.064.876-3.088zm-1.62 6.648l.001-.005.058-.324.003-.014.058-.312.007-.036.056-.294.012-.06.057-.287.014-.069.059-.288.015-.073.066-.315.01-.049.081-.37c.893.467 2.143.877 3.386 1.212-.187.791-.486 1.669-.827 2.534a17.673 17.673 0 0 1-3.112-.926c.017-.106.036-.215.056-.324z" fill="#F46822"/><path fill="#311E69" d="M104.265 57.75l-.123-.528 3.189-.636c.235-.055.473-.101.713-.142l.097-.019.001.003a12.308 12.308 0 0 1 2.738-.137c6.781.42 11.937 6.258 11.517 13.039-.338 5.452-4.179 9.851-9.196 11.148v.002l-.029.006a12.33 12.33 0 0 1-1.336.266l-2.105.419-.073-.313c-.1-.004-.199-.005-.299-.011-6.781-.42-11.937-6.258-11.517-13.039.272-4.394 2.82-8.103 6.423-10.058z"/><circle fill="#1E1240" cx="106.479" cy="69.303" r="12.301"/><circle fill="#EAE8FF" cx="106.479" cy="69.303" r="4.95"/></svg>