<svg xmlns="http://www.w3.org/2000/svg" xmlns:xlink="http://www.w3.org/1999/xlink" width="99" height="90.5" viewBox="0 0 99 90.5"><defs><path id="a" d="M.087 44.251S5.31 2.465 31.813-7.54c26.502-10.005 62.336.156 68.32 16.997 5.984 16.84 12.675 76.239-9.904 82.179-22.579 5.94-61.252 7.275-71.887.204C7.707 84.767-.969 57.369.087 44.251z"/></defs><clipPath id="b"><use xlink:href="#a" overflow="visible"/></clipPath><g clip-path="url(#b)"><path fill="#FFD140" d="M58.835 22.042c2.289-3.464 3.965-7.867 2.911-10.302-.974-2.25-2.409-2.71-2.409-2.71s-9.789 9.388-7.691 16.592c0 0 2.113 9.188 9.078 6.957 3.855-1.235.462-7.141-1.889-10.537z"/><path fill="#D18C42" d="M61.746 11.74c-.417-.964-.919-1.598-1.357-2.009-.987 1.293-2.066 3.087-2.01 4.714.102 2.971-1.474 4.564-2.624 5.998-1.15 1.434.725 5.68 2.23 9.477.425 1.072.702 2.085.966 2.998a7.035 7.035 0 0 0 1.772-.338c3.855-1.235.463-7.141-1.889-10.537 2.29-3.465 3.965-7.868 2.912-10.303z"/><path fill="#311E69" d="M59.336 12.721s.542 4.282 1.021 6.685c.689-1.383 1.225-2.797 1.501-4.098l-2.522-2.587z"/><path fill="#FFD140" d="M77.677 18.989c-2.858-7.256-4.714-9.801-7.824-11.711-3.505-2.152-8.151-.535-10.246 1.462-3.346 3.189 4.461 7.898 2.622 14.124-.313 1.058-3.618 9.716-5.037 14.597-3.602 12.392.622 35.126 1.262 42.404a1.765 1.765 0 0 0 1.192 1.52c1.332.449 3.235.405 5.38-.251.876-.268 2.129-.887 2.044-1.799-.518-5.567-1.208-17.26-.79-27.081.34-7.991 1.635-14.77 2.561-15.778 0 0-.322 14.226.148 18.937.615 6.168 4.36 22.544 4.52 24.38.041.476.357.878.801 1.055 1.457.583 3.574 1.177 5.956.141 1.825-.794-.044-29.617-.044-29.617s-.148-26.299-2.545-32.383z"/><path fill="#311E69" d="M75.723 81.71c.127-.202.205-.765.246-.972 1.293.182 2.142.375 2.654.197.101.493 1.596 3.068.988 3.41-1.162.655-8.072.682-8.073 0-.001-.915 3.998-2.338 4.185-2.635zm-12.089 0c.127-.202.205-.765.246-.972 1.293.182 2.599-3.064 2.91-.191.101.493 1.34 3.455.732 3.798-1.162.655-8.072.682-8.073 0 0-.915 3.999-2.338 4.185-2.635z"/><path fill="#D18C42" d="M77.677 18.989c-2.858-7.256-4.713-9.801-7.824-11.711l-.016-.01c-.642-.392-1.402.301-1.1.99.954 2.179 2.839 5.585 2.563 7.141-.372 2.096 1.977 6.637 3.737 8.283 1.761 1.646 1.98 3.663.835 7.115 0 0-2.28 3.451-.226 8.442s1.672 8.875.934 15.587c-.586 5.327-1.043 20.002.506 26.709a6.661 6.661 0 0 0 3.181-.546c1.825-.794-.044-29.617-.044-29.617s-.149-26.299-2.546-32.383z"/><path fill="#311E69" d="M77.479 18.49a66.24 66.24 0 0 0-1.658-3.841l-2.71-.204s1.172 3.668 4.368 4.045z"/><path fill="#FFD140" d="M68.843 6.77s10.906 3.199 16.471 10.072c5.565 6.872 1.655 11.49-2.263 13.946-5.618 3.522-9.181-.288-9.157-3.727.024-3.439 6.642-4.822 5.734-7.356-1.336-3.727-12.552-7.73-12.808-8.987-.256-1.258 2.023-3.948 2.023-3.948z"/><path fill="#4CB4D4" d="M73.981 27.333s-1.37-.235-2.113-.274c-.744-.039-.021.953-.548 1.409-1.174 1.018.665 1.526 1.409 1.683.744.157 2.387-1.252 2.544-1.957.156-.704-1.292-.861-1.292-.861zm-11.915 2.751s1.662.764 2.246 1.617c.584.853-.343 1.572-1.429 1.617-1.086.045-1.207.171-1.887-.745-.681-.917-1.355-3.297 1.07-2.489z"/><path fill="#D18C42" d="M64.493 44.426c-.58 3.027-1.641 12.293-3.127 20.491-1.278 7.053-3.062 13.231-2.911 14.947a1.765 1.765 0 0 0 1.192 1.52c1.332.449 3.235.405 5.38-.251.876-.268 2.129-.887 2.044-1.799-.518-5.567-1.208-17.26-.79-27.081.34-7.991 1.635-14.77 2.561-15.778.001 0-3.164 1.768-4.349 7.951z"/><path fill="#614CD4" d="M59.84 4.379s-.579-1.4.659-2.043c1.753-.91 3.166.826 3.147 1.675-.027 1.188-.82 1.182-1.602 1.084-.781-.098-2.204-.716-2.204-.716z"/><path fill="#1E1240" d="M62.582 3.87s-2.094-1.118-3.075-.96c-1.341.217-1.292 1.459-.849 1.86.443.401 2.073.814 2.424.684.352-.129 1.5-1.584 1.5-1.584z"/><path fill="#FF6161" d="M63.203 5.001l2.403 2.81c.187.456-1.768 2.711-2.722 2.421-.279-.085-.396-.547-.387-1.102l.149-3.063.557-1.066z"/><path fill="#311E69" d="M62.615 6.684c.469-.291 1.105-.698 1.105-.698s.278.821-.184 1.707a2.25 2.25 0 0 1-1.018.99l.097-1.999zm-2.51-1.643s-.542-.172-.375-1.037c.167-.865 3.227-.271 3.668.305.656.858.589 1.609.589 1.609s-3.223.177-3.882-.877z"/><path fill="#FF6161" d="M62.12 4.19l1.416 1.486c.427.527.36 1.299-.155 1.74-.411.353-.717.499-1.356.714-.532.179-1.021-.181-1.336-.841-.408-.856-.54-1.76-.584-2.248-.1-1.112 1.021-1.752 2.015-.851z"/><path fill="#FFF" d="M61.676 5.976s-.368.301-.991.509c0 0 .167.391.463.413.297.023.607-.398.528-.922z"/><path fill="#AD263D" d="M61.556 7.55c.51-.381 1.344.268 1.96-1.018.115-.24.041-.649-.012-.888l.031.033c.427.527.36 1.299-.155 1.74-.411.353-.717.499-1.356.714-.324.109-.632.016-.895-.221.108-.032.272-.243.427-.36z"/><path fill="#FF6161" d="M62.546 4.749c-.032-.24.08-.719.459-.591.551.186.712 1.35.133 1.526-.431.13-.576-.809-.592-.935z"/><path fill="#8AE9FF" d="M60.466 6.078a.492.492 0 0 1 .529-.406c.434.038 1.097.148 1.501.462.639.497.72 1.196.13 1.622-.59.427-1.553.585-1.916.05-.37-.545-.325-1.273-.244-1.728z"/><path fill="#8AE9FF" d="M61.794 6.342a.15.15 0 0 1-.179-.027.153.153 0 0 1-.001-.217c.011-.011.446-.62.927-2.155a.154.154 0 1 1 .294.091c-.504 1.609-.954 2.231-1.002 2.279a.164.164 0 0 1-.039.029zm-1.082.453a.15.15 0 0 1-.041-.013l-.515-.25a.154.154 0 0 1 .134-.276l.515.25a.154.154 0 0 1-.093.289z"/><path fill="#D18C42" d="M85.314 16.841c-3.757-4.639-9.944-7.602-13.57-9.04.026.925.487 2.368 2.895 3.102 3.717 1.133 7.362 3.256 8.106 5.876.743 2.619-1.593-.85.46 3.858s-2.923 7.019-5.345 8.035c-1.008.423-2.323.476-3.459.668 1.169 2.498 4.29 4.18 8.649 1.447 3.919-2.456 7.829-7.073 2.264-13.946z"/><path d="M-21.33 84.692V41.98h-6.15v42.712h-3.944v3.722h14.037v-3.722zm50.4 0V41.98h-6.15v42.712h-3.943v3.722h14.037v-3.722zm50.401 0V41.98h-6.15v42.712h-3.944v3.722h14.038v-3.722z" fill="#311E69"/><path fill="#2E88BF" d="M12.919 21.502s2.946-3.436 8.633-2.36c5.687 1.076 4.136 2.662 4.998 3.417.862.755 6.725.906 7.8.755 1.075-.151 8.491-.472 12.021-1.331 3.53-.859 12.836.047 14.042.727 1.206.68 10.684 4.909 9.133 5.589-1.551.68-60.573 0-60.573 0l3.946-6.797z"/><path fill="#B1A9FF" d="M63.934 18.873c-.572.241-1.343.463-2.137.391-1.587-.145-1.543-.917-2.654-1.504-1.111-.588-3.521-.975-4.486-.23-.964.744-.858 1.47-1.744 1.491-.48.012-.813-.078-1.018-.162a.239.239 0 0 0-.326.164l-.032.135-.32 1.349-.032.135a.24.24 0 0 0 .218.293c.221.016.559.086.982.312.781.417.361 1.018.888 2.116s2.854 1.835 4.111 1.809c1.257-.026 1.564-.735 3.047-.152.742.292 1.33.837 1.734 1.309a3.71 3.71 0 0 0 1.969 1.191l3.546.633a1.6 1.6 0 0 0 1.926-1.188l1.262-5.318a1.6 1.6 0 0 0-1.188-1.926l-3.453-1.028a3.708 3.708 0 0 0-2.293.18z"/><path fill="#614CD4" d="M62.23 22.52c-.854-.85-1.784-.021-4.286.41-2.502.432-4.096-2.03-4.673-2.768-.277-.355-1.067-.56-1.811-.677l-.242 1.02-.032.135a.24.24 0 0 0 .218.293c.221.016.559.086.982.312.781.417.361 1.018.888 2.116s2.854 1.835 4.111 1.809c1.257-.026 1.564-.735 3.047-.152.742.292 1.33.837 1.734 1.309a3.71 3.71 0 0 0 1.969 1.191l3.546.633a1.601 1.601 0 0 0 1.927-1.188l.662-2.788c-1.119.493-2.654.865-4.254.703-2.754-.277-2.933-1.507-3.786-2.358z"/><path fill="#B1A9FF" d="M42.819 27.656c1.997-2.29 4.062-2.463 4.874-2.371.811.092 1.724-.087 1.724-.087l-.074-1.468-.121-2.396s-.926-.086-1.724.087c-.798.173-2.87.21-5.088-1.867-1.525-1.428-7.749-.822-11.49-.303a3.186 3.186 0 0 0-2.744 3.316l.112 2.226.066 1.298a3.185 3.185 0 0 0 3.064 3.023c3.774.14 10.028.116 11.401-1.458z"/><path fill="#D18C42" d="M-11.221 9.456L4.016 8.153l16.935 2.153-6.683 5.947-11.102 2.889z"/><path fill="#D3AC40" d="M-18.921 26.843l7.7-17.387 16.086 2.719-1.393 3.512 1.393-1.133v2.605l3.9-4.078 5.503 3.172-7.788 10.59z"/><path fill="#BA7332" d="M20.951 10.306l-7.76 16.537H6.48l7.788-10.59z"/><path fill="#311E69" d="M89.877 26.843H-38.627v15.811H89.877c4.348 0 7.906-3.558 7.906-7.906s-3.558-7.905-7.906-7.905z"/><path fill="#B1A9FF" d="M-32.372 34.748c0 2.658-2.155 4.813-4.813 4.813s-3.369-2.155-3.369-4.813.711-4.813 3.369-4.813 4.813 2.155 4.813 4.813z"/><circle fill="#311E69" cx="-37.185" cy="34.748" r="1.805"/><circle fill="#B1A9FF" cx="-21.409" cy="34.748" r="4.813"/><circle fill="#311E69" cx="-21.409" cy="34.748" r="1.805"/><circle fill="#B1A9FF" cx="-5.634" cy="34.748" r="4.813"/><circle fill="#311E69" cx="-5.634" cy="34.748" r="1.805"/><circle fill="#B1A9FF" cx="10.141" cy="34.748" r="4.813"/><circle fill="#311E69" cx="10.141" cy="34.748" r="1.805"/><circle fill="#B1A9FF" cx="25.916" cy="34.748" r="4.813"/><circle fill="#311E69" cx="25.916" cy="34.748" r="1.805"/><circle fill="#B1A9FF" cx="41.692" cy="34.748" r="4.813"/><circle fill="#311E69" cx="41.692" cy="34.748" r="1.805"/><circle fill="#B1A9FF" cx="57.467" cy="34.748" r="4.813"/><circle fill="#311E69" cx="57.467" cy="34.748" r="1.805"/><circle fill="#B1A9FF" cx="73.242" cy="34.748" r="4.813"/><circle fill="#311E69" cx="73.242" cy="34.748" r="1.805"/><circle fill="#B1A9FF" cx="89.017" cy="34.748" r="4.813"/><circle fill="#311E69" cx="89.017" cy="34.748" r="1.805"/><path fill="#FF6161" d="M30.808 86.626c-.271-.84-1.473-1.437-1.473-1.437l.064-1.688-3.301-.286.184 2.441s.333.769 1.36 1.298c1.331.686 3.437.512 3.166-.328z"/><path fill="#311E69" d="M32.827 88.515c0-.853-.616-1.59-1.294-2.143-.86-.701-1.899-1.147-2.991-1.345-.577-.105-1.263-.2-1.85-.2-.592 0-.9.52-1.032.839a3.187 3.187 0 0 1-.258.495c-.304.469-.856 1.483-.405 2.09.847 1.142 7.905.667 7.83.264z"/><path fill="#FF6161" d="M36.431 6.071s.098 1.925.066 2.895c-.033.97-.264 1.829-1.216 1.89-.667.043-2.056-1.182-1.615-2.385.44-1.202 2.765-2.4 2.765-2.4z"/><path fill="#AD263D" d="M34.644 9.944c.846.269 1.471.073 1.723-.037-.153.528-.466.909-1.087.949-.497.032-1.391-.638-1.635-1.478.336.252.684.466.999.566z"/><path fill="#FF6161" d="M45.686 86.626c-.271-.84-1.473-1.437-1.473-1.437l.063-1.688-3.301-.286.184 2.441s.333.769 1.36 1.298c1.332.686 3.438.512 3.167-.328z"/><path fill="#311E69" d="M47.705 88.515c0-.853-.616-1.59-1.294-2.143-.86-.701-1.899-1.147-2.991-1.345-.577-.105-1.263-.2-1.85-.2-.592 0-.9.52-1.032.839a3.187 3.187 0 0 1-.258.495c-.304.469-.856 1.483-.405 2.09.847 1.142 7.905.667 7.83.264z"/><path fill="#FF6161" d="M31.023 10.901s.698-1.209 1.402-2.008c.617-.7 1.196-.999 1.881-1.056 1.469-.122.377 5.118-.311 5.207-.688.087-2.972-2.143-2.972-2.143z"/><path fill="#311E69" d="M32.718 9.677c-.183-.102-.494-.877-.494-.877s-1.023-1.965.158-3.469c.689-.877 1.471-.682 1.471-.682s2.253.492 2.923 1.313c.485.594-.59 1.108-.579 1.229.063.686-.049 1.576-.267 1.436-.219-.14-.577-.218-.955.236-.38.454-1.734 1.108-2.257.814z"/><path fill="#FFD140" d="M47.631 57.218c-.517-5.088-5.369-21.208-5.378-25.178-.016-6.666 2.024-12.631-.849-16.663-3.762-5.277-14.416-7.202-17.425-1.3-1.125 2.206-2.176 8.518-2.343 12.835-.532 13.788 4.191 31.948 4.067 33.573-.166 2.175-2.31 21.905-.98 22.73 1.329.825 5.234 1.501 6.979.504 1.745-.997 3.937-19.193 4.128-23.347.061-1.318-.689-4.088-.651-6.844 1.138 3.163 4.187 7.802 4.41 9.927.723 6.885-1.045 17.213-.124 19.76.583 1.612 4.737 2.574 6.528 0 1.186-1.708 3.781-4.9 1.638-25.997z"/><path fill="#FF6161" d="M35.929 8.802s.209-.437-.109-.761-.683.1-.574.861c.11.761.481.635.683-.1z"/><path fill="#4CB4D4" d="M36.534 8.276s.593.662.366 1.647c-.226.985-1.385 1.132-1.673.856-.288-.276.745-.648.947-1.19.193-.522.36-1.313.36-1.313z"/><path fill="#4CB4D4" d="M36.63 9.22a.192.192 0 0 1-.168-.098c-.01-.017-.969-1.702-1.585-2.176-.722-.555-2.699-1.189-2.718-1.195a.195.195 0 0 1-.127-.244.194.194 0 0 1 .243-.126c.084.027 2.062.661 2.837 1.258.678.521 1.645 2.22 1.686 2.292a.194.194 0 0 1-.168.289z"/><path fill="#D18C42" d="M45.991 83.215c1.188-1.708 3.783-4.9 1.64-25.997-.517-5.088-5.369-21.208-5.378-25.178-.016-6.666 2.024-12.631-.849-16.663-1.513-2.122-4.14-3.7-6.936-4.447.572.73 1.08 1.863 1.145 3.628.158 4.264-3.168 6.719-2.894 12.274.274 5.556 5.785 10.175 7.859 19.187.691 3.002-1.665 4.781-.426 9.69 1.239 4.91 3.048 10.401 1.95 18.186-.711 5.042.02 8.849.623 10.907 1.208 0 2.47-.443 3.266-1.587z"/><path fill="#311E69" d="M42.938 21.484c-2.117-1.353-4.75-1.055-4.75-1.055s.344 7.469 2.67 10.328a7.91 7.91 0 0 0 1.397 1.351l-.003-.069c-.009-3.827.659-7.422.686-10.555z"/><path fill="#1E1240" d="M35.637 7.149s3.816-1.569 2.641-2.348c-1.12-.743-3.731.738-4.365 1.211-.635.472 1.724 1.137 1.724 1.137z"/><path fill="#4CB4D4" d="M31.881 7.748s1.135.471 2.226.171c1.091-.301 2.306-1.08 2.313-1.585.006-.505-.337-2.345-1.8-2.488-1.462-.143-3.734 1.227-2.739 3.902z"/><path fill="#2E88BF" d="M31.881 7.748c-.548-1.471-.106-2.546.644-3.194-.053.177-.038.384.087.624.592 1.135.303.79.968 1.278s1.172-.038 1.366.803c.023.1.02.218-.003.348a5.481 5.481 0 0 1-.837.312c-1.09.301-2.225-.171-2.225-.171z"/><path fill="#FFD140" d="M39.947 13.78S53.76 25.077 52.382 29.121c-2.077 6.094-10.362.431-13.124-4.465-2.761-4.897.689-10.876.689-10.876z"/><path fill="#D18C42" d="M32 58.1c.605 4.005 2.48 6.654.702 9.432-1.777 2.778-2.778.253-3.876 7.069-.719 4.46-1.055 6.398-1.566 9.434 1.577.276 3.395.281 4.44-.316 1.745-.997 3.937-19.193 4.128-23.347.061-1.318-.689-4.088-.651-6.844 0 .001-3.782.567-3.177 4.572zm20.284-30.676c-1.15.809-2.78 1.673-3.702.894-1.53-1.292-2.863-.969-5.77-2.196-2.907-1.227-.969-1.034-2.235-3.876-.784-1.761-1.715-2.727-2.311-3.209-.207 1.775-.048 3.773.992 5.618 2.762 4.897 11.047 10.559 13.124 4.465.162-.474.112-1.05-.098-1.696z"/></g></svg>