<?xml version="1.0" standalone="no"?>
<!DOCTYPE svg PUBLIC "-//W3C//DTD SVG 20010904//EN"
 "http://www.w3.org/TR/2001/REC-SVG-20010904/DTD/svg10.dtd">
<svg version="1.0" xmlns="http://www.w3.org/2000/svg"
 width="700.000000pt" height="700.000000pt" viewBox="0 0 700.000000 700.000000"
 preserveAspectRatio="xMidYMid meet">
<metadata>
Created by potrace 1.11, written by Peter Selinger 2001-2013
</metadata>
<g transform="translate(0.000000,700.000000) scale(0.100000,-0.100000)"
fill="#000000" stroke="none">
<path d="M3420 6764 c-149 -40 -334 -193 -541 -446 -212 -260 -353 -501 -433
-742 -92 -276 -75 -503 62 -811 142 -321 458 -732 706 -917 183 -136 293 -154
457 -74 120 59 298 219 434 391 22 27 48 58 57 69 41 45 180 249 230 336 154
271 224 493 219 700 -2 86 -5 105 -31 216 -46 197 -188 478 -345 686 -11 14
-31 41 -45 59 -142 188 -315 364 -441 449 -131 87 -226 112 -329 84z m178
-766 c210 -212 393 -480 458 -673 41 -123 39 -266 -5 -370 -5 -11 -19 -45 -31
-75 -45 -114 -98 -210 -209 -380 -92 -143 -284 -369 -313 -370 -12 0 -99 93
-176 189 -163 203 -309 455 -374 642 -42 123 -45 246 -9 354 44 133 165 335
294 494 65 80 256 281 266 281 4 0 48 -42 99 -92z"/>
<path d="M395 4730 c-125 -33 -205 -130 -205 -250 1 -232 183 -627 525 -1134
257 -382 471 -663 659 -866 257 -276 270 -284 446 -285 112 0 180 6 263 24 23
5 60 12 82 15 22 4 74 13 115 22 41 9 84 17 95 20 37 7 350 87 353 89 13 11
-128 233 -175 278 l-30 27 -104 -24 c-57 -14 -117 -28 -134 -31 -169 -30 -300
-40 -381 -30 -57 7 -62 10 -134 84 -42 42 -117 131 -167 197 -94 126 -310 445
-366 541 -18 30 -40 69 -51 86 -56 95 -228 461 -238 507 -2 8 2 14 7 13 124
-20 503 -120 580 -152 11 -5 47 -19 80 -31 190 -71 454 -226 620 -365 294
-245 641 -657 787 -935 65 -123 125 -282 144 -380 3 -14 9 -41 14 -60 9 -36
15 -70 25 -155 4 -27 8 -61 11 -75 17 -105 25 -545 12 -645 -19 -140 -60 -231
-141 -307 -86 -82 -202 -133 -357 -156 l-45 -7 0 -260 0 -260 75 3 c252 9 506
153 685 386 28 35 52 65 55 65 3 0 22 -23 43 -53 47 -65 186 -201 251 -244
130 -88 298 -146 447 -156 l76 -4 -1 261 -1 261 -65 12 c-36 6 -67 12 -70 13
-3 1 -23 6 -45 12 -22 6 -62 22 -89 36 -170 86 -249 202 -273 399 -14 108 -6
525 12 649 2 17 9 66 15 110 49 341 200 659 464 973 343 409 579 613 906 784
182 95 429 182 655 232 66 15 146 33 178 40 31 8 57 12 57 10 0 -27 -203 -452
-256 -536 -13 -21 -24 -40 -24 -43 0 -6 -198 -311 -243 -375 -106 -153 -253
-339 -311 -397 -85 -83 -107 -90 -265 -79 -117 7 -150 12 -271 37 -122 26
-118 25 -166 38 -23 6 -48 9 -55 6 -24 -10 -111 -133 -171 -243 l-29 -52 26
-10 c28 -11 341 -89 385 -96 14 -2 57 -11 95 -19 76 -15 182 -35 230 -41 93
-13 115 -15 165 -15 139 -1 197 26 314 144 103 104 202 210 261 282 22 26 45
53 50 59 6 6 33 40 60 76 28 35 58 73 67 83 32 36 261 359 374 528 336 501
514 889 515 1125 1 61 -37 138 -88 184 -72 63 -131 75 -293 57 -30 -4 -78 -9
-106 -12 -28 -3 -60 -7 -71 -9 -11 -3 -44 -7 -73 -11 -29 -4 -62 -9 -74 -11
-12 -2 -37 -7 -56 -10 -19 -3 -64 -12 -100 -20 -36 -9 -74 -17 -84 -19 -117
-25 -441 -127 -461 -146 -5 -5 -15 -9 -23 -9 -13 0 -271 -124 -327 -157 -116
-70 -160 -98 -163 -105 -2 -4 -8 -8 -13 -8 -20 0 -227 -160 -373 -290 -68 -60
-261 -255 -332 -337 -200 -227 -357 -468 -507 -775 -26 -53 -47 -101 -47 -105
0 -5 -9 -26 -19 -46 -10 -21 -36 -85 -58 -142 -21 -58 -40 -105 -43 -105 -3 0
-25 53 -49 118 -114 304 -290 631 -469 867 -123 163 -366 421 -522 554 -41 36
-79 70 -85 76 -12 13 -181 139 -250 186 -255 174 -584 320 -910 404 -133 34
-301 69 -390 79 -27 4 -61 8 -75 11 -14 2 -47 7 -75 10 -27 3 -66 7 -85 10
-82 10 -167 13 -195 5z"/>
</g>
</svg>
