<?xml version="1.0" encoding="utf-8"?>
<!-- Generator: Adobe Illustrator 17.0.0, SVG Export Plug-In . SVG Version: 6.00 Build 0)  -->
<!DOCTYPE svg PUBLIC "-//W3C//DTD SVG 1.1//EN" "http://www.w3.org/Graphics/SVG/1.1/DTD/svg11.dtd">
<svg version="1.1" id="Слой_1" xmlns="http://www.w3.org/2000/svg" xmlns:xlink="http://www.w3.org/1999/xlink" x="0px" y="0px"
	 width="62.141px" height="14.308px" viewBox="0 0 62.141 14.308" enable-background="new 0 0 62.141 14.308" xml:space="preserve">
<g>
	<g>
		<path fill="#857362" d="M1.099,3.004c2.631-1.678,9.579,0.142,11.418,2.542s1.197,5.705-1.433,7.382S4.83,14.02,2.991,11.62
			S-1.532,4.681,1.099,3.004z"/>
	</g>
	<g>
		<path fill="#C4B17A" d="M25,8.014c0.835-3.006,7.22-6.297,10.192-5.741c2.972,0.556,4.704,3.443,3.868,6.449
			s-3.922,4.993-6.894,4.437S24.165,11.02,25,8.014z"/>
	</g>
	<g>
		<path fill="#B9C4A7" d="M60.191,0.584c2.347,2.056,2.544,9.236,0.755,11.673c-1.789,2.437-5.142,2.746-7.488,0.69
			c-2.347-2.056-2.799-5.699-1.01-8.136S57.845-1.472,60.191,0.584z"/>
	</g>
</g>
</svg>
